<?xml version="1.0" encoding="UTF-8" standalone="no"?>
<!DOCTYPE svg PUBLIC "-//W3C//DTD SVG 1.1//EN"
 "http://www.w3.org/Graphics/SVG/1.1/DTD/svg11.dtd">
<!-- Generated by graphviz version 2.40.1 (20161225.0304)
 -->
<!-- Title: lpegNode Pages: 1 -->
<svg width="1102pt" height="1206pt"
 viewBox="0.00 0.00 1101.50 1206.40" xmlns="http://www.w3.org/2000/svg" xmlns:xlink="http://www.w3.org/1999/xlink">
<g id="graph0" class="graph" transform="scale(1 1) rotate(0) translate(4 1202.4011)">
<title>lpegNode</title>
<polygon fill="#ffffff" stroke="transparent" points="-4,4 -4,-1202.4011 1097.5,-1202.4011 1097.5,4 -4,4"/>
<!-- doc_0 -->
<g id="node1" class="node">
<title>doc_0</title>
<ellipse fill="none" stroke="#000000" cx="377" cy="-1180.4011" rx="42.1216" ry="18"/>
<text text-anchor="middle" x="377" y="-1176.2011" font-family="Helvetica,sans-Serif" font-size="14.00" fill="#000000">doc &#45; 61</text>
</g>
<!-- section_1 -->
<g id="node2" class="node">
<title>section_1</title>
<ellipse fill="none" stroke="#000000" cx="377" cy="-1108.4011" rx="60.9826" ry="18"/>
<text text-anchor="middle" x="377" y="-1104.2011" font-family="Helvetica,sans-Serif" font-size="14.00" fill="#000000">section: 1&#45;61</text>
</g>
<!-- doc_0&#45;&gt;section_1 -->
<g id="edge1" class="edge">
<title>doc_0&#45;&gt;section_1</title>
<path fill="none" stroke="#000000" stroke-dasharray="5,2" d="M377,-1162.2325C377,-1154.5321 377,-1145.3755 377,-1136.8178"/>
<polygon fill="#000000" stroke="#000000" points="380.5001,-1136.8144 377,-1126.8144 373.5001,-1136.8144 380.5001,-1136.8144"/>
</g>
<!-- header_2 -->
<g id="node3" class="node">
<title>header_2</title>
<ellipse fill="none" stroke="#000000" cx="221" cy="-1036.4011" rx="36.3165" ry="18"/>
<text text-anchor="middle" x="221" y="-1032.2011" font-family="Helvetica,sans-Serif" font-size="14.00" fill="#000000">1 : Dot</text>
</g>
<!-- section_1&#45;&gt;header_2 -->
<g id="edge2" class="edge">
<title>section_1&#45;&gt;header_2</title>
<path fill="none" stroke="#000000" stroke-dasharray="5,2" d="M343.9164,-1093.1318C318.4265,-1081.3672 283.2285,-1065.122 257.0283,-1053.0296"/>
<polygon fill="#000000" stroke="#000000" points="258.3637,-1049.7911 247.8174,-1048.7784 255.4302,-1056.1469 258.3637,-1049.7911"/>
</g>
<!-- prose_3 -->
<g id="node4" class="node">
<title>prose_3</title>
<ellipse fill="none" stroke="#000000" cx="336" cy="-1036.4011" rx="32.4585" ry="18"/>
<text text-anchor="middle" x="336" y="-1032.2011" font-family="Helvetica,sans-Serif" font-size="14.00" fill="#000000">prose</text>
</g>
<!-- section_1&#45;&gt;prose_3 -->
<g id="edge3" class="edge">
<title>section_1&#45;&gt;prose_3</title>
<path fill="none" stroke="#000000" stroke-dasharray="5,2" d="M366.8652,-1090.6034C362.0632,-1082.1706 356.2315,-1071.9297 350.9358,-1062.6299"/>
<polygon fill="#000000" stroke="#000000" points="353.8667,-1060.7036 345.8768,-1053.7457 347.7838,-1064.1675 353.8667,-1060.7036"/>
</g>
<!-- prose_4 -->
<g id="node5" class="node">
<title>prose_4</title>
<ellipse fill="none" stroke="#000000" cx="449" cy="-1036.4011" rx="32.4585" ry="18"/>
<text text-anchor="middle" x="449" y="-1032.2011" font-family="Helvetica,sans-Serif" font-size="14.00" fill="#000000">prose</text>
</g>
<!-- section_1&#45;&gt;prose_4 -->
<g id="edge4" class="edge">
<title>section_1&#45;&gt;prose_4</title>
<path fill="none" stroke="#000000" stroke-dasharray="5,2" d="M394.4292,-1090.9719C403.9403,-1081.4608 415.8329,-1069.5682 426.0861,-1059.315"/>
<polygon fill="#000000" stroke="#000000" points="428.6086,-1061.7422 433.2049,-1052.1963 423.6589,-1056.7925 428.6086,-1061.7422"/>
</g>
<!-- codeblock_5 -->
<g id="node6" class="node">
<title>codeblock_5</title>
<ellipse fill="none" stroke="#000000" cx="694" cy="-1036.4011" rx="72.5844" ry="18"/>
<text text-anchor="middle" x="694" y="-1032.2011" font-family="Helvetica,sans-Serif" font-size="14.00" fill="#000000">code block 7&#45;61</text>
</g>
<!-- section_1&#45;&gt;codeblock_5 -->
<g id="edge5" class="edge">
<title>section_1&#45;&gt;codeblock_5</title>
<path fill="none" stroke="#000000" stroke-dasharray="5,2" d="M425.4905,-1097.3875C480.4467,-1084.9053 570.2201,-1064.5152 630.6681,-1050.7856"/>
<polygon fill="#000000" stroke="#000000" points="631.5035,-1054.1851 640.4799,-1048.5571 629.953,-1047.359 631.5035,-1054.1851"/>
</g>
<!-- leaf_6 -->
<g id="node7" class="node">
<title>leaf_6</title>
<polygon fill="none" stroke="#c0c0c0" points="204,-590.9006 150,-590.9006 150,-554.9006 204,-554.9006 204,-590.9006"/>
<text text-anchor="middle" x="177" y="-569.4006" font-family="Inconsolata" font-size="14.00" fill="#000000">* Dot</text>
</g>
<!-- header_2&#45;&gt;leaf_6 -->
<g id="edge6" class="edge">
<title>header_2&#45;&gt;leaf_6</title>
<path fill="none" stroke="#000000" stroke-dasharray="5,2" d="M218.0655,-1018.4367C216.4207,-1007.9486 214.4207,-994.4486 213,-982.4011 196.136,-839.3945 183.4921,-667.4338 178.8919,-600.9936"/>
<polygon fill="#000000" stroke="#000000" points="182.3758,-600.6384 178.199,-590.9017 175.3922,-601.118 182.3758,-600.6384"/>
</g>
<!-- raw_7 -->
<g id="node8" class="node">
<title>raw_7</title>
<ellipse fill="none" stroke="#000000" cx="249" cy="-572.9006" rx="27" ry="18"/>
<text text-anchor="middle" x="249" y="-568.7006" font-family="Helvetica,sans-Serif" font-size="14.00" fill="#000000">raw</text>
</g>
<!-- prose_3&#45;&gt;raw_7 -->
<g id="edge7" class="edge">
<title>prose_3&#45;&gt;raw_7</title>
<path fill="none" stroke="#000000" stroke-dasharray="5,2" d="M316.8611,-1021.8168C305.5197,-1012.0095 292.0287,-998.0453 285,-982.4011 225.5871,-850.1628 237.7946,-669.9527 245.3704,-601.161"/>
<polygon fill="#000000" stroke="#000000" points="248.8617,-601.4376 246.5348,-591.1014 241.9081,-600.6326 248.8617,-601.4376"/>
</g>
<!-- link_8 -->
<g id="node9" class="node">
<title>link_8</title>
<ellipse fill="none" stroke="#000000" cx="321" cy="-572.9006" rx="27" ry="18"/>
<text text-anchor="middle" x="321" y="-568.7006" font-family="Helvetica,sans-Serif" font-size="14.00" fill="#000000">link</text>
</g>
<!-- prose_3&#45;&gt;link_8 -->
<g id="edge8" class="edge">
<title>prose_3&#45;&gt;link_8</title>
<path fill="none" stroke="#000000" stroke-dasharray="5,2" d="M335.412,-1018.2314C333.1109,-947.1266 324.7061,-687.4188 321.9109,-601.0475"/>
<polygon fill="#000000" stroke="#000000" points="325.4057,-600.8263 321.584,-590.9447 318.4093,-601.0527 325.4057,-600.8263"/>
</g>
<!-- raw_9 -->
<g id="node10" class="node">
<title>raw_9</title>
<ellipse fill="none" stroke="#000000" cx="393" cy="-572.9006" rx="27" ry="18"/>
<text text-anchor="middle" x="393" y="-568.7006" font-family="Helvetica,sans-Serif" font-size="14.00" fill="#000000">raw</text>
</g>
<!-- prose_3&#45;&gt;raw_9 -->
<g id="edge9" class="edge">
<title>prose_3&#45;&gt;raw_9</title>
<path fill="none" stroke="#000000" stroke-dasharray="5,2" d="M344.3052,-1018.805C348.8236,-1008.4396 354.0736,-994.9396 357,-982.4011 389.7285,-842.1722 393.2295,-668.6107 393.2441,-601.3676"/>
<polygon fill="#000000" stroke="#000000" points="396.7436,-601.1411 393.2185,-591.1499 389.7436,-601.1586 396.7436,-601.1411"/>
</g>
<!-- raw_16 -->
<g id="node17" class="node">
<title>raw_16</title>
<ellipse fill="none" stroke="#000000" cx="465" cy="-572.9006" rx="27" ry="18"/>
<text text-anchor="middle" x="465" y="-568.7006" font-family="Helvetica,sans-Serif" font-size="14.00" fill="#000000">raw</text>
</g>
<!-- prose_4&#45;&gt;raw_16 -->
<g id="edge16" class="edge">
<title>prose_4&#45;&gt;raw_16</title>
<path fill="none" stroke="#000000" stroke-dasharray="5,2" d="M449.6272,-1018.2314C452.0817,-947.1266 461.0468,-687.4188 464.0284,-601.0475"/>
<polygon fill="#000000" stroke="#000000" points="467.5299,-601.0596 464.3771,-590.9447 460.5341,-600.818 467.5299,-601.0596"/>
</g>
<!-- leaf_18 -->
<g id="node19" class="node">
<title>leaf_18</title>
<polygon fill="none" stroke="#c0c0c0" points="1093.5,-982.4017 510.5,-982.4017 510.5,-163.3995 1093.5,-163.3995 1093.5,-982.4017"/>
<text text-anchor="middle" x="802" y="-967.2011" font-family="Inconsolata" font-size="14.00" fill="#000000">local Node &#160;&#160;&#160;= &#160;require &quot;espalier/node&quot;</text>
<text text-anchor="middle" x="802" y="-951.8011" font-family="Inconsolata" font-size="14.00" fill="#000000">local Grammar = &#160;require &quot;espalier/grammar&quot;</text>
<text text-anchor="middle" x="802" y="-936.4011" font-family="Inconsolata" font-size="14.00" fill="#000000">local L &#160;&#160;&#160;&#160;&#160;&#160;= &#160;require &quot;espalier/elpatt&quot;</text>
<text text-anchor="middle" x="802" y="-905.001" font-family="Inconsolata" font-size="14.00" fill="#000000">local P, R, E, V, S &#160;&#160;&#160;= &#160;L.P, L.R, L.E, L.V, L.S</text>
<text text-anchor="middle" x="802" y="-873.601" font-family="Inconsolata" font-size="14.00" fill="#000000">local _ = (P&quot; &quot; + P&quot;\n&quot; + P&quot;\t&quot; + P&quot;\r&quot;)^0</text>
<text text-anchor="middle" x="802" y="-842.201" font-family="Inconsolata" font-size="14.00" fill="#000000">local IDstart = &#160;R(&quot;az&quot;, &quot;AZ&quot;) + &quot;_&quot; &#45;&#45; dot is actually latin&#45;1 but</text>
<text text-anchor="middle" x="802" y="-826.8009" font-family="Inconsolata" font-size="14.00" fill="#000000">local IDrest &#160;= &#160;IDstart + R&quot;09&quot;</text>
<text text-anchor="middle" x="802" y="-795.4009" font-family="Inconsolata" font-size="14.00" fill="#000000">local num &#160;&#160;&#160;&#160;= &#160;P&quot;&#45;&quot;^0 * (P&quot;.&quot; + R&quot;09&quot;^1)</text>
<text text-anchor="middle" x="802" y="-780.0009" font-family="Inconsolata" font-size="14.00" fill="#000000"> &#160;&#160;&#160;&#160;&#160;&#160;&#160;&#160;&#160;&#160;&#160;&#160;&#160;+ &#160;R&quot;09&quot;^1 * P&quot;.&quot;^0 * R&quot;09&quot;^0</text>
<text text-anchor="middle" x="802" y="-748.6008" font-family="Inconsolata" font-size="14.00" fill="#000000">local string_patt = P&quot;\&quot;&quot; * (P(1) &#45; (P&quot;\&quot;&quot; * &#45; P&quot;\\\&quot;&quot;))^0 * P&quot;\&quot;&quot;</text>
<text text-anchor="middle" x="802" y="-717.2008" font-family="Inconsolata" font-size="14.00" fill="#000000">local function dot_fn(_ENV)</text>
<text text-anchor="middle" x="802" y="-701.8008" font-family="Inconsolata" font-size="14.00" fill="#000000"> &#160;START &quot;dot&quot;</text>
<text text-anchor="middle" x="802" y="-670.4007" font-family="Inconsolata" font-size="14.00" fill="#000000"> &#160;dot = &#160;_ * P&quot;strict&quot;^0 * _ * (P&quot;graph&quot; + P&quot;digraph&quot;)</text>
<text text-anchor="middle" x="802" y="-655.0007" font-family="Inconsolata" font-size="14.00" fill="#000000"> &#160;&#160;&#160;&#160;&#160;* &#160;_ * V&quot;ID&quot;^0 * _ * &quot;{&quot; * _ * V&quot;statment_list&quot; * _ * &quot;}&quot; * _</text>
<text text-anchor="middle" x="802" y="-623.6007" font-family="Inconsolata" font-size="14.00" fill="#000000"> &#160;statement_list = &#160;V&quot;statement&quot;^0 * _ * &quot;;&quot;^0 * _ * V&quot;statement&quot;^0</text>
<text text-anchor="middle" x="802" y="-592.2007" font-family="Inconsolata" font-size="14.00" fill="#000000"> &#160;statement &#160;= &#160;V&quot;node_statement&quot;</text>
<text text-anchor="middle" x="802" y="-576.8006" font-family="Inconsolata" font-size="14.00" fill="#000000"> &#160;&#160;&#160;&#160;&#160;&#160;&#160;&#160;&#160;&#160;&#160;&#160;+ &#160;V&quot;edge_statement&quot;</text>
<text text-anchor="middle" x="802" y="-561.4006" font-family="Inconsolata" font-size="14.00" fill="#000000"> &#160;&#160;&#160;&#160;&#160;&#160;&#160;&#160;&#160;&#160;&#160;&#160;+ &#160;V&quot;attr_statement&quot;</text>
<text text-anchor="middle" x="802" y="-546.0006" font-family="Inconsolata" font-size="14.00" fill="#000000"> &#160;&#160;&#160;&#160;&#160;&#160;&#160;&#160;&#160;&#160;&#160;&#160;+ &#160;V&quot;ID&quot; * _ * &quot;=&quot; * _ * V&quot;ID&quot;</text>
<text text-anchor="middle" x="802" y="-530.6005" font-family="Inconsolata" font-size="14.00" fill="#000000"> &#160;&#160;&#160;&#160;&#160;&#160;&#160;&#160;&#160;&#160;&#160;&#160;+ &#160;subgraph</text>
<text text-anchor="middle" x="802" y="-499.2005" font-family="Inconsolata" font-size="14.00" fill="#000000"> &#160;attr_statement = &#160;(P&quot;graph&quot; + &quot;node&quot; + &quot;edge&quot;) * attr_list</text>
<text text-anchor="middle" x="802" y="-483.8005" font-family="Inconsolata" font-size="14.00" fill="#000000"> &#160;attr_list &#160;&#160;&#160;&#160;&#160;= &#160;P&quot;[&quot; * _ * V&quot;a_list&quot;^0 * _ * P&quot;]&quot; * _ * V&quot;attr_list&quot;^0</text>
<text text-anchor="middle" x="802" y="-468.4004" font-family="Inconsolata" font-size="14.00" fill="#000000"> &#160;a_list &#160;&#160;&#160;&#160;&#160;&#160;&#160;&#160;= &#160;V&quot;ID&quot; * _ * &quot;=&quot; * _ * V&quot;ID&quot;</text>
<text text-anchor="middle" x="802" y="-453.0004" font-family="Inconsolata" font-size="14.00" fill="#000000"> &#160;&#160;&#160;&#160;&#160;&#160;&#160;&#160;&#160;&#160;&#160;&#160;&#160;&#160;&#160;&#160;* (P&quot;;&quot; + P&quot;,&quot;)^0 * _ * V&quot;a_list&quot;^0</text>
<text text-anchor="middle" x="802" y="-421.6004" font-family="Inconsolata" font-size="14.00" fill="#000000"> &#160;edge_statement = &#160;(V&quot;node_id&quot; + V&quot;subgraph&quot;) * _ * V&quot;edgeRHS&quot; * V&quot;attr_list&quot;^0</text>
<text text-anchor="middle" x="802" y="-406.2003" font-family="Inconsolata" font-size="14.00" fill="#000000"> &#160;edgeRHS &#160;&#160;&#160;&#160;&#160;&#160;&#160;= &#160;V&quot;edgeop&quot; * _ * (V&quot;node_id&quot; + V&quot;subgraph&quot;) * _ * V&quot;edgeRHS&quot;^0</text>
<text text-anchor="middle" x="802" y="-374.8003" font-family="Inconsolata" font-size="14.00" fill="#000000"> &#160;node_statement = &#160;V&quot;node_id&quot; * _ * V&quot;attr_list&quot;^0</text>
<text text-anchor="middle" x="802" y="-359.4003" font-family="Inconsolata" font-size="14.00" fill="#000000"> &#160;node_id &#160;&#160;&#160;&#160;&#160;&#160;&#160;= &#160;V&quot;ID&quot; * _ * V&quot;port&quot;^0</text>
<text text-anchor="middle" x="802" y="-344.0002" font-family="Inconsolata" font-size="14.00" fill="#000000"> &#160;port &#160;&#160;&#160;&#160;&#160;&#160;&#160;&#160;&#160;&#160;= &#160;P&quot;:&quot; * _ * V&quot;ID&quot; * _ * (P&quot;:&quot; * _ * V&quot;compass_point&quot;)^0</text>
<text text-anchor="middle" x="802" y="-312.6002" font-family="Inconsolata" font-size="14.00" fill="#000000"> &#160;subgraph &#160;&#160;&#160;&#160;&#160;&#160;= &#160;(P&quot;subgraph&quot; * _ * V&quot;ID&quot;^0)^0 * _</text>
<text text-anchor="middle" x="802" y="-297.2002" font-family="Inconsolata" font-size="14.00" fill="#000000"> &#160;&#160;&#160;&#160;&#160;&#160;&#160;&#160;&#160;&#160;&#160;&#160;&#160;&#160;&#160;&#160;* &#160;&quot;{&quot; * _ * V&quot;statement_list&quot; * _ * &quot;}&quot;</text>
<text text-anchor="middle" x="802" y="-265.8002" font-family="Inconsolata" font-size="14.00" fill="#000000"> &#160;compass_point &#160;= &#160;S(&quot;n&quot;,&quot;ne&quot;,&quot;e&quot;,&quot;se&quot;,&quot;s&quot;,&quot;sw&quot;,&quot;w&quot;,&quot;nw&quot;,&quot;_&quot;)</text>
<text text-anchor="middle" x="802" y="-234.4001" font-family="Inconsolata" font-size="14.00" fill="#000000"> &#160;ID &#160;&#160;&#160;= &#160;(IDstart^1 * IDrest^0) + num + string_patt</text>
<text text-anchor="middle" x="802" y="-203.0001" font-family="Inconsolata" font-size="14.00" fill="#000000"> &#160;&#45;&#45; Add C&#45;style comments</text>
<text text-anchor="middle" x="802" y="-171.6001" font-family="Inconsolata" font-size="14.00" fill="#000000">end</text>
</g>
<!-- codeblock_5&#45;&gt;leaf_18 -->
<g id="edge18" class="edge">
<title>codeblock_5&#45;&gt;leaf_18</title>
<path fill="none" stroke="#000000" stroke-dasharray="5,2" d="M698.2337,-1018.2314C699.8297,-1011.3822 701.8333,-1002.783 704.1694,-992.7574"/>
<polygon fill="#000000" stroke="#000000" points="707.6478,-993.2521 706.5085,-982.7187 700.8304,-991.6635 707.6478,-993.2521"/>
</g>
<!-- leaf_10 -->
<g id="node11" class="node">
<title>leaf_10</title>
<polygon fill="none" stroke="#c0c0c0" points="156,-127.6015 0,-127.6015 0,-71.7985 156,-71.7985 156,-127.6015"/>
<text text-anchor="middle" x="78" y="-80.2" font-family="Inconsolata" font-size="14.00" fill="#000000">Turns out there&#39;s a </text>
</g>
<!-- raw_7&#45;&gt;leaf_10 -->
<g id="edge10" class="edge">
<title>raw_7&#45;&gt;leaf_10</title>
<path fill="none" stroke="#000000" stroke-dasharray="5,2" d="M253.1861,-554.8693C266.3399,-493.5007 300.955,-289.5657 213,-163.4 205.9347,-153.2653 185.4064,-141.8438 162.4234,-131.5"/>
<polygon fill="#000000" stroke="#000000" points="163.7308,-128.2516 153.1669,-127.4432 160.921,-134.6629 163.7308,-128.2516"/>
</g>
<!-- anchortext_11 -->
<g id="node12" class="node">
<title>anchortext_11</title>
<ellipse fill="none" stroke="#000000" cx="225" cy="-99.7" rx="51.3018" ry="18"/>
<text text-anchor="middle" x="225" y="-95.5" font-family="Helvetica,sans-Serif" font-size="14.00" fill="#000000">anchortext</text>
</g>
<!-- link_8&#45;&gt;anchortext_11 -->
<g id="edge11" class="edge">
<title>link_8&#45;&gt;anchortext_11</title>
<path fill="none" stroke="#000000" stroke-dasharray="5,2" d="M323.4577,-554.7031C330.6637,-495.2813 347.4981,-302.7546 285,-163.4 278.0642,-147.9351 265.7787,-133.8516 254.1234,-122.8825"/>
<polygon fill="#000000" stroke="#000000" points="256.3962,-120.2193 246.6178,-116.1408 251.7185,-125.427 256.3962,-120.2193"/>
</g>
<!-- url_12 -->
<g id="node13" class="node">
<title>url_12</title>
<ellipse fill="none" stroke="#000000" cx="321" cy="-99.7" rx="27" ry="18"/>
<text text-anchor="middle" x="321" y="-95.5" font-family="Helvetica,sans-Serif" font-size="14.00" fill="#000000">url</text>
</g>
<!-- link_8&#45;&gt;url_12 -->
<g id="edge12" class="edge">
<title>link_8&#45;&gt;url_12</title>
<path fill="none" stroke="#000000" stroke-dasharray="5,2" d="M321,-554.6405C321,-482.328 321,-215.7113 321,-127.9292"/>
<polygon fill="#000000" stroke="#000000" points="324.5001,-127.9056 321,-117.9057 317.5001,-127.9057 324.5001,-127.9056"/>
</g>
<!-- leaf_15 -->
<g id="node16" class="node">
<title>leaf_15</title>
<polygon fill="none" stroke="#c0c0c0" points="420,-117.7 366,-117.7 366,-81.7 420,-81.7 420,-117.7"/>
</g>
<!-- raw_9&#45;&gt;leaf_15 -->
<g id="edge15" class="edge">
<title>raw_9&#45;&gt;leaf_15</title>
<path fill="none" stroke="#000000" stroke-dasharray="5,2" d="M393,-554.6405C393,-482.328 393,-215.7113 393,-127.9292"/>
<polygon fill="#000000" stroke="#000000" points="396.5001,-127.9056 393,-117.9057 389.5001,-127.9057 396.5001,-127.9056"/>
</g>
<!-- leaf_13 -->
<g id="node14" class="node">
<title>leaf_13</title>
<polygon fill="none" stroke="#c0c0c0" points="185.5,-36 120.5,-36 120.5,0 185.5,0 185.5,-36"/>
<text text-anchor="middle" x="153" y="-14.5" font-family="Inconsolata" font-size="14.00" fill="#000000">grammar</text>
</g>
<!-- anchortext_11&#45;&gt;leaf_13 -->
<g id="edge13" class="edge">
<title>anchortext_11&#45;&gt;leaf_13</title>
<path fill="none" stroke="#000000" stroke-dasharray="5,2" d="M209.7307,-82.3735C199.8172,-71.1245 186.7222,-56.2653 175.6114,-43.6576"/>
<polygon fill="#000000" stroke="#000000" points="178.2334,-41.3392 168.9959,-36.1509 172.9817,-45.9674 178.2334,-41.3392"/>
</g>
<!-- leaf_14 -->
<g id="node15" class="node">
<title>leaf_14</title>
<polygon fill="none" stroke="#c0c0c0" points="584,-36 204,-36 204,0 584,0 584,-36"/>
<text text-anchor="middle" x="394" y="-14.5" font-family="Inconsolata" font-size="14.00" fill="#000000">https://graphviz.gitlab.io/_pages/doc/info/lang.html</text>
</g>
<!-- url_12&#45;&gt;leaf_14 -->
<g id="edge14" class="edge">
<title>url_12&#45;&gt;leaf_14</title>
<path fill="none" stroke="#000000" stroke-dasharray="5,2" d="M335.0751,-83.9474C345.1624,-72.658 358.9805,-57.193 370.7003,-44.0766"/>
<polygon fill="#000000" stroke="#000000" points="373.6212,-46.0605 377.6742,-36.2715 368.4013,-41.3965 373.6212,-46.0605"/>
</g>
<!-- leaf_17 -->
<g id="node18" class="node">
<title>leaf_17</title>
<polygon fill="none" stroke="#c0c0c0" points="492,-119.6021 438,-119.6021 438,-79.7979 492,-79.7979 492,-119.6021"/>
<text text-anchor="middle" x="465" y="-88.2" font-family="Inconsolata" font-size="14.00" fill="#000000">So</text>
</g>
<!-- raw_16&#45;&gt;leaf_17 -->
<g id="edge17" class="edge">
<title>raw_16&#45;&gt;leaf_17</title>
<path fill="none" stroke="#000000" stroke-dasharray="5,2" d="M465,-554.6405C465,-482.7441 465,-218.7731 465,-129.4622"/>
<polygon fill="#000000" stroke="#000000" points="468.5001,-129.4611 465,-119.4611 461.5001,-129.4611 468.5001,-129.4611"/>
</g>
</g>
</svg>
