<?xml version="1.0" encoding="UTF-8" standalone="no"?>
<!DOCTYPE svg PUBLIC "-//W3C//DTD SVG 1.1//EN"
 "http://www.w3.org/Graphics/SVG/1.1/DTD/svg11.dtd">
<!-- Generated by graphviz version 2.40.1 (20161225.0304)
 -->
<!-- Title: lpegNode Pages: 1 -->
<svg width="3251pt" height="1949pt"
 viewBox="0.00 0.00 3250.50 1949.00" xmlns="http://www.w3.org/2000/svg" xmlns:xlink="http://www.w3.org/1999/xlink">
<g id="graph0" class="graph" transform="scale(1 1) rotate(0) translate(4 1945.002)">
<title>lpegNode</title>
<polygon fill="#ffffff" stroke="transparent" points="-4,4 -4,-1945.002 3246.5,-1945.002 3246.5,4 -4,4"/>
<!-- doc_0 -->
<g id="node1" class="node">
<title>doc_0</title>
<ellipse fill="none" stroke="#000000" cx="906" cy="-1923.002" rx="46.9581" ry="18"/>
<text text-anchor="middle" x="906" y="-1918.802" font-family="Helvetica,sans-Serif" font-size="14.00" fill="#000000">doc &#45; 151</text>
</g>
<!-- section_1 -->
<g id="node2" class="node">
<title>section_1</title>
<ellipse fill="none" stroke="#000000" cx="906" cy="-1851.002" rx="60.9826" ry="18"/>
<text text-anchor="middle" x="906" y="-1846.802" font-family="Helvetica,sans-Serif" font-size="14.00" fill="#000000">section: 1&#45;71</text>
</g>
<!-- doc_0&#45;&gt;section_1 -->
<g id="edge1" class="edge">
<title>doc_0&#45;&gt;section_1</title>
<path fill="none" stroke="#000000" stroke-dasharray="5,2" d="M906,-1904.8334C906,-1897.133 906,-1887.9764 906,-1879.4187"/>
<polygon fill="#000000" stroke="#000000" points="909.5001,-1879.4153 906,-1869.4153 902.5001,-1879.4153 909.5001,-1879.4153"/>
</g>
<!-- header_2 -->
<g id="node3" class="node">
<title>header_2</title>
<ellipse fill="none" stroke="#000000" cx="633" cy="-1779.002" rx="100.1143" ry="18"/>
<text text-anchor="middle" x="633" y="-1774.802" font-family="Helvetica,sans-Serif" font-size="14.00" fill="#000000">1 : A Grammar For Lua</text>
</g>
<!-- section_1&#45;&gt;header_2 -->
<g id="edge2" class="edge">
<title>section_1&#45;&gt;header_2</title>
<path fill="none" stroke="#000000" stroke-dasharray="5,2" d="M860.6131,-1839.0319C816.549,-1827.4106 749.1718,-1809.6408 699.1453,-1796.4469"/>
<polygon fill="#000000" stroke="#000000" points="699.9453,-1793.0383 689.3834,-1793.8724 698.1602,-1799.8069 699.9453,-1793.0383"/>
</g>
<!-- prose_3 -->
<g id="node4" class="node">
<title>prose_3</title>
<ellipse fill="none" stroke="#000000" cx="783" cy="-1779.002" rx="32.4585" ry="18"/>
<text text-anchor="middle" x="783" y="-1774.802" font-family="Helvetica,sans-Serif" font-size="14.00" fill="#000000">prose</text>
</g>
<!-- section_1&#45;&gt;prose_3 -->
<g id="edge3" class="edge">
<title>section_1&#45;&gt;prose_3</title>
<path fill="none" stroke="#000000" stroke-dasharray="5,2" d="M878.3964,-1834.8438C859.3555,-1823.698 834.0105,-1808.8619 814.2307,-1797.2834"/>
<polygon fill="#000000" stroke="#000000" points="815.9752,-1794.249 805.5769,-1792.2178 812.4389,-1800.2902 815.9752,-1794.249"/>
</g>
<!-- prose_4 -->
<g id="node5" class="node">
<title>prose_4</title>
<ellipse fill="none" stroke="#000000" cx="865" cy="-1779.002" rx="32.4585" ry="18"/>
<text text-anchor="middle" x="865" y="-1774.802" font-family="Helvetica,sans-Serif" font-size="14.00" fill="#000000">prose</text>
</g>
<!-- section_1&#45;&gt;prose_4 -->
<g id="edge4" class="edge">
<title>section_1&#45;&gt;prose_4</title>
<path fill="none" stroke="#000000" stroke-dasharray="5,2" d="M895.8652,-1833.2043C891.0632,-1824.7715 885.2315,-1814.5306 879.9358,-1805.2308"/>
<polygon fill="#000000" stroke="#000000" points="882.8667,-1803.3045 874.8768,-1796.3466 876.7838,-1806.7684 882.8667,-1803.3045"/>
</g>
<!-- prose_5 -->
<g id="node6" class="node">
<title>prose_5</title>
<ellipse fill="none" stroke="#000000" cx="947" cy="-1779.002" rx="32.4585" ry="18"/>
<text text-anchor="middle" x="947" y="-1774.802" font-family="Helvetica,sans-Serif" font-size="14.00" fill="#000000">prose</text>
</g>
<!-- section_1&#45;&gt;prose_5 -->
<g id="edge5" class="edge">
<title>section_1&#45;&gt;prose_5</title>
<path fill="none" stroke="#000000" stroke-dasharray="5,2" d="M916.1348,-1833.2043C920.9368,-1824.7715 926.7685,-1814.5306 932.0642,-1805.2308"/>
<polygon fill="#000000" stroke="#000000" points="935.2162,-1806.7684 937.1232,-1796.3466 929.1333,-1803.3045 935.2162,-1806.7684"/>
</g>
<!-- codeblock_6 -->
<g id="node7" class="node">
<title>codeblock_6</title>
<ellipse fill="none" stroke="#000000" cx="1159" cy="-1779.002" rx="77.4211" ry="18"/>
<text text-anchor="middle" x="1159" y="-1774.802" font-family="Helvetica,sans-Serif" font-size="14.00" fill="#000000">code block 12&#45;69</text>
</g>
<!-- section_1&#45;&gt;codeblock_6 -->
<g id="edge6" class="edge">
<title>section_1&#45;&gt;codeblock_6</title>
<path fill="none" stroke="#000000" stroke-dasharray="5,2" d="M950.0692,-1838.4606C991.6167,-1826.6368 1054.1765,-1808.8332 1100.0114,-1795.7893"/>
<polygon fill="#000000" stroke="#000000" points="1101.1557,-1799.1027 1109.8158,-1792.9991 1099.2397,-1792.37 1101.1557,-1799.1027"/>
</g>
<!-- section_7 -->
<g id="node8" class="node">
<title>section_7</title>
<ellipse fill="none" stroke="#000000" cx="1794" cy="-1779.002" rx="65.8187" ry="18"/>
<text text-anchor="middle" x="1794" y="-1774.802" font-family="Helvetica,sans-Serif" font-size="14.00" fill="#000000">section: 72&#45;87</text>
</g>
<!-- section_1&#45;&gt;section_7 -->
<g id="edge7" class="edge">
<title>section_1&#45;&gt;section_7</title>
<path fill="none" stroke="#000000" stroke-dasharray="5,2" d="M964.6076,-1846.2501C1121.1589,-1833.5567 1548.8671,-1798.8777 1720.901,-1784.929"/>
<polygon fill="#000000" stroke="#000000" points="1721.189,-1788.4172 1730.8734,-1784.1204 1720.6232,-1781.4401 1721.189,-1788.4172"/>
</g>
<!-- leaf_8 -->
<g id="node9" class="node">
<title>leaf_8</title>
<polygon fill="none" stroke="#c0c0c0" points="707.5,-1301.5015 558.5,-1301.5015 558.5,-1265.5015 707.5,-1265.5015 707.5,-1301.5015"/>
<text text-anchor="middle" x="633" y="-1280.0015" font-family="Inconsolata" font-size="14.00" fill="#000000">* A Grammar For Lua</text>
</g>
<!-- header_2&#45;&gt;leaf_8 -->
<g id="edge8" class="edge">
<title>header_2&#45;&gt;leaf_8</title>
<path fill="none" stroke="#000000" stroke-dasharray="5,2" d="M633,-1760.7793C633,-1686.0337 633,-1402.612 633,-1311.7296"/>
<polygon fill="#000000" stroke="#000000" points="636.5001,-1311.6278 633,-1301.6278 629.5001,-1311.6279 636.5001,-1311.6278"/>
</g>
<!-- raw_9 -->
<g id="node10" class="node">
<title>raw_9</title>
<ellipse fill="none" stroke="#000000" cx="768" cy="-1283.5015" rx="27" ry="18"/>
<text text-anchor="middle" x="768" y="-1279.3015" font-family="Helvetica,sans-Serif" font-size="14.00" fill="#000000">raw</text>
</g>
<!-- prose_3&#45;&gt;raw_9 -->
<g id="edge9" class="edge">
<title>prose_3&#45;&gt;raw_9</title>
<path fill="none" stroke="#000000" stroke-dasharray="5,2" d="M782.4484,-1760.7793C780.1856,-1686.0337 771.6058,-1402.612 768.8545,-1311.7296"/>
<polygon fill="#000000" stroke="#000000" points="772.3498,-1311.5173 768.5487,-1301.6278 765.353,-1311.7292 772.3498,-1311.5173"/>
</g>
<!-- raw_11 -->
<g id="node12" class="node">
<title>raw_11</title>
<ellipse fill="none" stroke="#000000" cx="853" cy="-1283.5015" rx="27" ry="18"/>
<text text-anchor="middle" x="853" y="-1279.3015" font-family="Helvetica,sans-Serif" font-size="14.00" fill="#000000">raw</text>
</g>
<!-- prose_4&#45;&gt;raw_11 -->
<g id="edge11" class="edge">
<title>prose_4&#45;&gt;raw_11</title>
<path fill="none" stroke="#000000" stroke-dasharray="5,2" d="M864.5587,-1760.7793C862.7485,-1686.0337 855.8846,-1402.612 853.6836,-1311.7296"/>
<polygon fill="#000000" stroke="#000000" points="857.1802,-1311.5401 853.439,-1301.6278 850.1822,-1311.7097 857.1802,-1311.5401"/>
</g>
<!-- raw_13 -->
<g id="node14" class="node">
<title>raw_13</title>
<ellipse fill="none" stroke="#000000" cx="947" cy="-1283.5015" rx="27" ry="18"/>
<text text-anchor="middle" x="947" y="-1279.3015" font-family="Helvetica,sans-Serif" font-size="14.00" fill="#000000">raw</text>
</g>
<!-- prose_5&#45;&gt;raw_13 -->
<g id="edge13" class="edge">
<title>prose_5&#45;&gt;raw_13</title>
<path fill="none" stroke="#000000" stroke-dasharray="5,2" d="M947,-1760.7793C947,-1686.0337 947,-1402.612 947,-1311.7296"/>
<polygon fill="#000000" stroke="#000000" points="950.5001,-1311.6278 947,-1301.6278 943.5001,-1311.6279 950.5001,-1311.6278"/>
</g>
<!-- leaf_15 -->
<g id="node16" class="node">
<title>leaf_15</title>
<polygon fill="none" stroke="#c0c0c0" points="1491.5,-1725.0026 992.5,-1725.0026 992.5,-842.0004 1491.5,-842.0004 1491.5,-1725.0026"/>
<text text-anchor="middle" x="1242" y="-1709.802" font-family="Inconsolata" font-size="14.00" fill="#000000">chunk ::= {stat [`;´]} [laststat [`;´]]</text>
<text text-anchor="middle" x="1242" y="-1678.402" font-family="Inconsolata" font-size="14.00" fill="#000000"> &#160;&#160;block ::= chunk</text>
<text text-anchor="middle" x="1242" y="-1647.002" font-family="Inconsolata" font-size="14.00" fill="#000000"> &#160;&#160;stat ::= &#160;varlist `=´ explist |</text>
<text text-anchor="middle" x="1242" y="-1631.6019" font-family="Inconsolata" font-size="14.00" fill="#000000"> &#160;&#160;&#160;&#160;&#160;&#160;functioncall |</text>
<text text-anchor="middle" x="1242" y="-1616.2019" font-family="Inconsolata" font-size="14.00" fill="#000000"> &#160;&#160;&#160;&#160;&#160;&#160;do block end |</text>
<text text-anchor="middle" x="1242" y="-1600.8019" font-family="Inconsolata" font-size="14.00" fill="#000000"> &#160;&#160;&#160;&#160;&#160;&#160;while exp do block end |</text>
<text text-anchor="middle" x="1242" y="-1585.4018" font-family="Inconsolata" font-size="14.00" fill="#000000"> &#160;&#160;&#160;&#160;&#160;&#160;repeat block until exp |</text>
<text text-anchor="middle" x="1242" y="-1570.0018" font-family="Inconsolata" font-size="14.00" fill="#000000"> &#160;&#160;&#160;&#160;&#160;&#160;if exp then block {elseif exp then block} [else block] end |</text>
<text text-anchor="middle" x="1242" y="-1554.6018" font-family="Inconsolata" font-size="14.00" fill="#000000"> &#160;&#160;&#160;&#160;&#160;&#160;for Name `=´ exp `,´ exp [`,´ exp] do block end |</text>
<text text-anchor="middle" x="1242" y="-1539.2017" font-family="Inconsolata" font-size="14.00" fill="#000000"> &#160;&#160;&#160;&#160;&#160;&#160;for namelist in explist do block end |</text>
<text text-anchor="middle" x="1242" y="-1523.8017" font-family="Inconsolata" font-size="14.00" fill="#000000"> &#160;&#160;&#160;&#160;&#160;&#160;function funcname funcbody |</text>
<text text-anchor="middle" x="1242" y="-1508.4017" font-family="Inconsolata" font-size="14.00" fill="#000000"> &#160;&#160;&#160;&#160;&#160;&#160;local function Name funcbody |</text>
<text text-anchor="middle" x="1242" y="-1493.0017" font-family="Inconsolata" font-size="14.00" fill="#000000"> &#160;&#160;&#160;&#160;&#160;&#160;local namelist [`=´ explist]</text>
<text text-anchor="middle" x="1242" y="-1461.6016" font-family="Inconsolata" font-size="14.00" fill="#000000"> &#160;&#160;laststat ::= return [explist] | break</text>
<text text-anchor="middle" x="1242" y="-1430.2016" font-family="Inconsolata" font-size="14.00" fill="#000000"> &#160;&#160;funcname ::= Name {`.´ Name} [`:´ Name]</text>
<text text-anchor="middle" x="1242" y="-1398.8016" font-family="Inconsolata" font-size="14.00" fill="#000000"> &#160;&#160;varlist ::= var {`,´ var}</text>
<text text-anchor="middle" x="1242" y="-1367.4015" font-family="Inconsolata" font-size="14.00" fill="#000000"> &#160;&#160;var ::= &#160;Name | prefixexp `[´ exp `]´ | prefixexp `.´ Name</text>
<text text-anchor="middle" x="1242" y="-1336.0015" font-family="Inconsolata" font-size="14.00" fill="#000000"> &#160;&#160;namelist ::= Name {`,´ Name}</text>
<text text-anchor="middle" x="1242" y="-1304.6015" font-family="Inconsolata" font-size="14.00" fill="#000000"> &#160;&#160;explist ::= {exp `,´} exp</text>
<text text-anchor="middle" x="1242" y="-1273.2014" font-family="Inconsolata" font-size="14.00" fill="#000000"> &#160;&#160;exp ::= &#160;nil | false | true | Number | String | `...´ | function |</text>
<text text-anchor="middle" x="1242" y="-1257.8014" font-family="Inconsolata" font-size="14.00" fill="#000000"> &#160;&#160;&#160;&#160;&#160;&#160;prefixexp | tableconstructor | exp binop exp | unop exp</text>
<text text-anchor="middle" x="1242" y="-1226.4014" font-family="Inconsolata" font-size="14.00" fill="#000000"> &#160;&#160;prefixexp ::= var | functioncall | `(´ exp `)´</text>
<text text-anchor="middle" x="1242" y="-1195.0013" font-family="Inconsolata" font-size="14.00" fill="#000000"> &#160;&#160;functioncall ::= &#160;prefixexp args | prefixexp `:´ Name args</text>
<text text-anchor="middle" x="1242" y="-1163.6013" font-family="Inconsolata" font-size="14.00" fill="#000000"> &#160;&#160;args ::= &#160;`(´ [explist] `)´ | tableconstructor | String</text>
<text text-anchor="middle" x="1242" y="-1132.2013" font-family="Inconsolata" font-size="14.00" fill="#000000"> &#160;&#160;function ::= function funcbody</text>
<text text-anchor="middle" x="1242" y="-1100.8012" font-family="Inconsolata" font-size="14.00" fill="#000000"> &#160;&#160;funcbody ::= `(´ [parlist] `)´ block end</text>
<text text-anchor="middle" x="1242" y="-1069.4012" font-family="Inconsolata" font-size="14.00" fill="#000000"> &#160;&#160;parlist ::= namelist [`,´ `...´] | `...´</text>
<text text-anchor="middle" x="1242" y="-1038.0012" font-family="Inconsolata" font-size="14.00" fill="#000000"> &#160;&#160;tableconstructor ::= `{´ [fieldlist] `}´</text>
<text text-anchor="middle" x="1242" y="-1006.6012" font-family="Inconsolata" font-size="14.00" fill="#000000"> &#160;&#160;fieldlist ::= field {fieldsep field} [fieldsep]</text>
<text text-anchor="middle" x="1242" y="-975.2011" font-family="Inconsolata" font-size="14.00" fill="#000000"> &#160;&#160;field ::= `[´ exp `]´ `=´ exp | Name `=´ exp | exp</text>
<text text-anchor="middle" x="1242" y="-943.8011" font-family="Inconsolata" font-size="14.00" fill="#000000"> &#160;&#160;fieldsep ::= `,´ | `;´</text>
<text text-anchor="middle" x="1242" y="-912.4011" font-family="Inconsolata" font-size="14.00" fill="#000000"> &#160;&#160;binop ::= `+´ | `&#45;´ | `*´ | `/´ | `^´ | `%´ | `..´ |</text>
<text text-anchor="middle" x="1242" y="-897.001" font-family="Inconsolata" font-size="14.00" fill="#000000"> &#160;&#160;&#160;&#160;&#160;&#160;`&lt;´ | `&lt;=´ | `&gt;´ | `&gt;=´ | `==´ | `~=´ |</text>
<text text-anchor="middle" x="1242" y="-881.601" font-family="Inconsolata" font-size="14.00" fill="#000000"> &#160;&#160;&#160;&#160;&#160;&#160;and | or</text>
<text text-anchor="middle" x="1242" y="-850.201" font-family="Inconsolata" font-size="14.00" fill="#000000"> &#160;&#160;unop ::= `&#45;´ | not | `#´</text>
</g>
<!-- codeblock_6&#45;&gt;leaf_15 -->
<g id="edge15" class="edge">
<title>codeblock_6&#45;&gt;leaf_15</title>
<path fill="none" stroke="#000000" stroke-dasharray="5,2" d="M1162.0524,-1760.7793C1163.205,-1753.8989 1164.6536,-1745.2505 1166.3461,-1735.1468"/>
<polygon fill="#000000" stroke="#000000" points="1169.8415,-1735.465 1168.0417,-1725.0241 1162.9376,-1734.3085 1169.8415,-1735.465"/>
</g>
<!-- header_16 -->
<g id="node17" class="node">
<title>header_16</title>
<ellipse fill="none" stroke="#000000" cx="1661" cy="-1283.5015" rx="82.7165" ry="18"/>
<text text-anchor="middle" x="1661" y="-1279.3015" font-family="Helvetica,sans-Serif" font-size="14.00" fill="#000000">2 : Implementation</text>
</g>
<!-- section_7&#45;&gt;header_16 -->
<g id="edge16" class="edge">
<title>section_7&#45;&gt;header_16</title>
<path fill="none" stroke="#000000" stroke-dasharray="5,2" d="M1777.3653,-1761.3314C1768.8589,-1751.3696 1759.0504,-1738.285 1753,-1725.002 1686.4734,-1578.951 1667.4995,-1383.7337 1662.5789,-1311.7192"/>
<polygon fill="#000000" stroke="#000000" points="1666.0644,-1311.3799 1661.9277,-1301.626 1659.0789,-1311.8306 1666.0644,-1311.3799"/>
</g>
<!-- prose_17 -->
<g id="node18" class="node">
<title>prose_17</title>
<ellipse fill="none" stroke="#000000" cx="1794" cy="-1283.5015" rx="32.4585" ry="18"/>
<text text-anchor="middle" x="1794" y="-1279.3015" font-family="Helvetica,sans-Serif" font-size="14.00" fill="#000000">prose</text>
</g>
<!-- section_7&#45;&gt;prose_17 -->
<g id="edge17" class="edge">
<title>section_7&#45;&gt;prose_17</title>
<path fill="none" stroke="#000000" stroke-dasharray="5,2" d="M1794,-1760.7793C1794,-1686.0337 1794,-1402.612 1794,-1311.7296"/>
<polygon fill="#000000" stroke="#000000" points="1797.5001,-1311.6278 1794,-1301.6278 1790.5001,-1311.6279 1797.5001,-1311.6278"/>
</g>
<!-- section_18 -->
<g id="node19" class="node">
<title>section_18</title>
<ellipse fill="none" stroke="#000000" cx="1942" cy="-1283.5015" rx="65.8187" ry="18"/>
<text text-anchor="middle" x="1942" y="-1279.3015" font-family="Helvetica,sans-Serif" font-size="14.00" fill="#000000">section: 77&#45;87</text>
</g>
<!-- section_7&#45;&gt;section_18 -->
<g id="edge18" class="edge">
<title>section_7&#45;&gt;section_18</title>
<path fill="none" stroke="#000000" stroke-dasharray="5,2" d="M1810.4641,-1761.252C1818.9205,-1751.2669 1828.7356,-1738.1855 1835,-1725.002 1904.3824,-1578.9856 1931.2555,-1383.7475 1939.2114,-1311.7233"/>
<polygon fill="#000000" stroke="#000000" points="1942.7076,-1311.9441 1940.2903,-1301.6287 1935.7473,-1311.2001 1942.7076,-1311.9441"/>
</g>
<!-- section_19 -->
<g id="node20" class="node">
<title>section_19</title>
<ellipse fill="none" stroke="#000000" cx="2570" cy="-1283.5015" rx="70.655" ry="18"/>
<text text-anchor="middle" x="2570" y="-1279.3015" font-family="Helvetica,sans-Serif" font-size="14.00" fill="#000000">section: 88&#45;151</text>
</g>
<!-- section_7&#45;&gt;section_19 -->
<g id="edge19" class="edge">
<title>section_7&#45;&gt;section_19</title>
<path fill="none" stroke="#000000" stroke-dasharray="5,2" d="M1854.1646,-1771.6851C1900.4802,-1764.3679 1965.1337,-1750.4196 2017,-1725.002 2250.1002,-1610.769 2475.1464,-1384.3273 2546.6288,-1308.7336"/>
<polygon fill="#000000" stroke="#000000" points="2549.5221,-1310.766 2553.824,-1301.0839 2544.4232,-1305.9701 2549.5221,-1310.766"/>
</g>
<!-- leaf_10 -->
<g id="node11" class="node">
<title>leaf_10</title>
<polygon fill="none" stroke="#c0c0c0" points="520,-805.9012 0,-805.9012 0,-735.3006 520,-735.3006 520,-805.9012"/>
<text text-anchor="middle" x="260" y="-758.8009" font-family="Inconsolata" font-size="14.00" fill="#000000">While the most important grammar for pegylator is pegylator itself, it&#39;s</text>
<text text-anchor="middle" x="260" y="-743.4009" font-family="Inconsolata" font-size="14.00" fill="#000000">time to make a Lua language parser.</text>
</g>
<!-- raw_9&#45;&gt;leaf_10 -->
<g id="edge10" class="edge">
<title>raw_9&#45;&gt;leaf_10</title>
<path fill="none" stroke="#000000" stroke-dasharray="5,2" d="M772.5081,-1265.6771C788.1448,-1199.2227 832.9523,-963.4935 716,-842.0009 708.4103,-834.1166 624.2385,-819.9567 530.2361,-806.314"/>
<polygon fill="#000000" stroke="#000000" points="530.6197,-802.8331 520.2221,-804.8678 529.6191,-809.7613 530.6197,-802.8331"/>
</g>
<!-- leaf_12 -->
<g id="node13" class="node">
<title>leaf_12</title>
<polygon fill="none" stroke="#c0c0c0" points="1030,-797.9013 538,-797.9013 538,-743.3005 1030,-743.3005 1030,-797.9013"/>
<text text-anchor="middle" x="784" y="-766.8009" font-family="Inconsolata" font-size="14.00" fill="#000000">The hard work is done on this, it&#39;s a matter of translation into the</text>
<text text-anchor="middle" x="784" y="-751.4009" font-family="Inconsolata" font-size="14.00" fill="#000000">Pegylator paradigm.</text>
</g>
<!-- raw_11&#45;&gt;leaf_12 -->
<g id="edge12" class="edge">
<title>raw_11&#45;&gt;leaf_12</title>
<path fill="none" stroke="#000000" stroke-dasharray="5,2" d="M852.0408,-1265.2585C848.626,-1204.6105 835.5375,-1004.3893 804,-842.0009 801.8204,-830.7778 798.7459,-818.7484 795.6599,-807.8229"/>
<polygon fill="#000000" stroke="#000000" points="799.0014,-806.7791 792.8479,-798.1545 792.2799,-808.7341 799.0014,-806.7791"/>
</g>
<!-- leaf_14 -->
<g id="node15" class="node">
<title>leaf_14</title>
<polygon fill="none" stroke="#c0c0c0" points="1575.5,-797.9013 1048.5,-797.9013 1048.5,-743.3005 1575.5,-743.3005 1575.5,-797.9013"/>
<text text-anchor="middle" x="1312" y="-766.8009" font-family="Inconsolata" font-size="14.00" fill="#000000">While this a hell of a lot of work, the complete BNF of Lua is available,</text>
<text text-anchor="middle" x="1312" y="-751.4009" font-family="Inconsolata" font-size="14.00" fill="#000000">and reproduced here.</text>
</g>
<!-- raw_13&#45;&gt;leaf_14 -->
<g id="edge14" class="edge">
<title>raw_13&#45;&gt;leaf_14</title>
<path fill="none" stroke="#000000" stroke-dasharray="5,2" d="M941.8434,-1265.5429C924.105,-1199.6026 872.5518,-968.1271 983,-842.0009 998.5926,-824.195 1037.2478,-810.5092 1082.8125,-800.1188"/>
<polygon fill="#000000" stroke="#000000" points="1083.6238,-803.524 1092.6346,-797.9513 1082.1153,-796.6885 1083.6238,-803.524"/>
</g>
<!-- leaf_20 -->
<g id="node21" class="node">
<title>leaf_20</title>
<polygon fill="none" stroke="#c0c0c0" points="1728.5,-788.6009 1593.5,-788.6009 1593.5,-752.6009 1728.5,-752.6009 1728.5,-788.6009"/>
<text text-anchor="middle" x="1661" y="-767.1009" font-family="Inconsolata" font-size="14.00" fill="#000000">** Implementation</text>
</g>
<!-- header_16&#45;&gt;leaf_20 -->
<g id="edge20" class="edge">
<title>header_16&#45;&gt;leaf_20</title>
<path fill="none" stroke="#000000" stroke-dasharray="5,2" d="M1661,-1265.2471C1661,-1188.5168 1661,-891.8092 1661,-798.7111"/>
<polygon fill="#000000" stroke="#000000" points="1664.5001,-798.6365 1661,-788.6366 1657.5001,-798.6366 1664.5001,-798.6365"/>
</g>
<!-- raw_21 -->
<g id="node22" class="node">
<title>raw_21</title>
<ellipse fill="none" stroke="#000000" cx="1774" cy="-770.6009" rx="27" ry="18"/>
<text text-anchor="middle" x="1774" y="-766.4009" font-family="Helvetica,sans-Serif" font-size="14.00" fill="#000000">raw</text>
</g>
<!-- prose_17&#45;&gt;raw_21 -->
<g id="edge21" class="edge">
<title>prose_17&#45;&gt;raw_21</title>
<path fill="none" stroke="#000000" stroke-dasharray="5,2" d="M1793.2882,-1265.2471C1790.2962,-1188.5168 1778.7264,-891.8092 1775.0961,-798.7111"/>
<polygon fill="#000000" stroke="#000000" points="1778.5904,-798.4926 1774.7033,-788.6366 1771.5957,-798.7654 1778.5904,-798.4926"/>
</g>
<!-- header_23 -->
<g id="node24" class="node">
<title>header_23</title>
<ellipse fill="none" stroke="#000000" cx="1871" cy="-770.6009" rx="51.7605" ry="18"/>
<text text-anchor="middle" x="1871" y="-766.4009" font-family="Helvetica,sans-Serif" font-size="14.00" fill="#000000">3 : Imports</text>
</g>
<!-- section_18&#45;&gt;header_23 -->
<g id="edge23" class="edge">
<title>section_18&#45;&gt;header_23</title>
<path fill="none" stroke="#000000" stroke-dasharray="5,2" d="M1939.4731,-1265.2471C1928.8514,-1188.5168 1887.7787,-891.8092 1874.8912,-798.7111"/>
<polygon fill="#000000" stroke="#000000" points="1878.3349,-798.0622 1873.4966,-788.6366 1871.401,-799.0221 1878.3349,-798.0622"/>
</g>
<!-- prose_24 -->
<g id="node25" class="node">
<title>prose_24</title>
<ellipse fill="none" stroke="#000000" cx="1973" cy="-770.6009" rx="32.4585" ry="18"/>
<text text-anchor="middle" x="1973" y="-766.4009" font-family="Helvetica,sans-Serif" font-size="14.00" fill="#000000">prose</text>
</g>
<!-- section_18&#45;&gt;prose_24 -->
<g id="edge24" class="edge">
<title>section_18&#45;&gt;prose_24</title>
<path fill="none" stroke="#000000" stroke-dasharray="5,2" d="M1943.1033,-1265.2471C1947.7409,-1188.5168 1965.6741,-891.8092 1971.301,-798.7111"/>
<polygon fill="#000000" stroke="#000000" points="1974.8001,-798.8295 1971.9099,-788.6366 1967.8129,-798.4072 1974.8001,-798.8295"/>
</g>
<!-- codeblock_25 -->
<g id="node26" class="node">
<title>codeblock_25</title>
<ellipse fill="none" stroke="#000000" cx="2145" cy="-770.6009" rx="77.4211" ry="18"/>
<text text-anchor="middle" x="2145" y="-766.4009" font-family="Helvetica,sans-Serif" font-size="14.00" fill="#000000">code block 79&#45;85</text>
</g>
<!-- section_18&#45;&gt;codeblock_25 -->
<g id="edge25" class="edge">
<title>section_18&#45;&gt;codeblock_25</title>
<path fill="none" stroke="#000000" stroke-dasharray="5,2" d="M1949.1058,-1265.5478C1979.3406,-1189.1566 2097.4076,-890.848 2134.075,-798.204"/>
<polygon fill="#000000" stroke="#000000" points="2137.4208,-799.261 2137.8466,-788.6747 2130.912,-796.6849 2137.4208,-799.261"/>
</g>
<!-- header_30 -->
<g id="node31" class="node">
<title>header_30</title>
<ellipse fill="none" stroke="#000000" cx="2426" cy="-770.6009" rx="46.4822" ry="18"/>
<text text-anchor="middle" x="2426" y="-766.4009" font-family="Helvetica,sans-Serif" font-size="14.00" fill="#000000">3 : lua_fn</text>
</g>
<!-- section_19&#45;&gt;header_30 -->
<g id="edge30" class="edge">
<title>section_19&#45;&gt;header_30</title>
<path fill="none" stroke="#000000" stroke-dasharray="5,2" d="M2564.875,-1265.2471C2543.3106,-1188.4389 2459.8608,-891.2065 2433.8127,-798.4281"/>
<polygon fill="#000000" stroke="#000000" points="2437.1365,-797.3182 2431.0636,-788.6366 2430.397,-799.2104 2437.1365,-797.3182"/>
</g>
<!-- prose_31 -->
<g id="node32" class="node">
<title>prose_31</title>
<ellipse fill="none" stroke="#000000" cx="2523" cy="-770.6009" rx="32.4585" ry="18"/>
<text text-anchor="middle" x="2523" y="-766.4009" font-family="Helvetica,sans-Serif" font-size="14.00" fill="#000000">prose</text>
</g>
<!-- section_19&#45;&gt;prose_31 -->
<g id="edge31" class="edge">
<title>section_19&#45;&gt;prose_31</title>
<path fill="none" stroke="#000000" stroke-dasharray="5,2" d="M2568.3272,-1265.2471C2561.296,-1188.5168 2534.107,-891.8092 2525.5759,-798.7111"/>
<polygon fill="#000000" stroke="#000000" points="2529.0507,-798.2754 2524.6527,-788.6366 2522.0799,-798.9143 2529.0507,-798.2754"/>
</g>
<!-- structure_32 -->
<g id="node33" class="node">
<title>structure_32</title>
<ellipse fill="none" stroke="#000000" cx="2618" cy="-770.6009" rx="44.5182" ry="18"/>
<text text-anchor="middle" x="2618" y="-766.4009" font-family="Helvetica,sans-Serif" font-size="14.00" fill="#000000">structure</text>
</g>
<!-- section_19&#45;&gt;structure_32 -->
<g id="edge32" class="edge">
<title>section_19&#45;&gt;structure_32</title>
<path fill="none" stroke="#000000" stroke-dasharray="5,2" d="M2571.7083,-1265.2471C2578.8892,-1188.5168 2606.6567,-891.8092 2615.3693,-798.7111"/>
<polygon fill="#000000" stroke="#000000" points="2618.865,-798.9192 2616.3121,-788.6366 2611.8955,-798.2669 2618.865,-798.9192"/>
</g>
<!-- structure_33 -->
<g id="node34" class="node">
<title>structure_33</title>
<ellipse fill="none" stroke="#000000" cx="2725" cy="-770.6009" rx="44.5182" ry="18"/>
<text text-anchor="middle" x="2725" y="-766.4009" font-family="Helvetica,sans-Serif" font-size="14.00" fill="#000000">structure</text>
</g>
<!-- section_19&#45;&gt;structure_33 -->
<g id="edge33" class="edge">
<title>section_19&#45;&gt;structure_33</title>
<path fill="none" stroke="#000000" stroke-dasharray="5,2" d="M2575.4256,-1265.5478C2598.4879,-1189.234 2688.4784,-891.4523 2716.573,-798.4863"/>
<polygon fill="#000000" stroke="#000000" points="2719.9955,-799.2597 2719.538,-788.6747 2713.2948,-797.2346 2719.9955,-799.2597"/>
</g>
<!-- codeblock_34 -->
<g id="node35" class="node">
<title>codeblock_34</title>
<ellipse fill="none" stroke="#000000" cx="2943" cy="-770.6009" rx="82.2579" ry="18"/>
<text text-anchor="middle" x="2943" y="-766.4009" font-family="Helvetica,sans-Serif" font-size="14.00" fill="#000000">code block 98&#45;133</text>
</g>
<!-- section_19&#45;&gt;codeblock_34 -->
<g id="edge34" class="edge">
<title>section_19&#45;&gt;codeblock_34</title>
<path fill="none" stroke="#000000" stroke-dasharray="5,2" d="M2583.0566,-1265.5478C2638.955,-1188.6837 2858.2439,-887.1464 2924.1599,-796.5074"/>
<polygon fill="#000000" stroke="#000000" points="2926.9985,-798.5549 2930.0494,-788.4088 2921.3372,-794.4378 2926.9985,-798.5549"/>
</g>
<!-- leaf_22 -->
<g id="node23" class="node">
<title>leaf_22</title>
<polygon fill="none" stroke="#c0c0c0" points="1806.5,-467.2016 1699.5,-467.2016 1699.5,-395.3993 1806.5,-395.3993 1806.5,-467.2016"/>
<text text-anchor="middle" x="1753" y="-419.8005" font-family="Inconsolata" font-size="14.00" fill="#000000">Let&#39;s try it.</text>
</g>
<!-- raw_21&#45;&gt;leaf_22 -->
<g id="edge22" class="edge">
<title>raw_21&#45;&gt;leaf_22</title>
<path fill="none" stroke="#000000" stroke-dasharray="5,2" d="M1772.8709,-752.3586C1769.6814,-700.8242 1760.5314,-552.9873 1755.8434,-477.2421"/>
<polygon fill="#000000" stroke="#000000" points="1759.3238,-476.8148 1755.2126,-467.0502 1752.3371,-477.2473 1759.3238,-476.8148"/>
</g>
<!-- leaf_26 -->
<g id="node27" class="node">
<title>leaf_26</title>
<polygon fill="none" stroke="#c0c0c0" points="1917.5,-449.3005 1824.5,-449.3005 1824.5,-413.3005 1917.5,-413.3005 1917.5,-449.3005"/>
<text text-anchor="middle" x="1871" y="-427.8005" font-family="Inconsolata" font-size="14.00" fill="#000000">*** Imports</text>
</g>
<!-- header_23&#45;&gt;leaf_26 -->
<g id="edge26" class="edge">
<title>header_23&#45;&gt;leaf_26</title>
<path fill="none" stroke="#000000" stroke-dasharray="5,2" d="M1871,-752.3586C1871,-696.5517 1871,-527.8123 1871,-459.9856"/>
<polygon fill="#000000" stroke="#000000" points="1874.5001,-459.6329 1871,-449.6329 1867.5001,-459.6329 1874.5001,-459.6329"/>
</g>
<!-- raw_27 -->
<g id="node28" class="node">
<title>raw_27</title>
<ellipse fill="none" stroke="#000000" cx="1963" cy="-431.3005" rx="27" ry="18"/>
<text text-anchor="middle" x="1963" y="-427.1005" font-family="Helvetica,sans-Serif" font-size="14.00" fill="#000000">raw</text>
</g>
<!-- prose_24&#45;&gt;raw_27 -->
<g id="edge27" class="edge">
<title>prose_24&#45;&gt;raw_27</title>
<path fill="none" stroke="#000000" stroke-dasharray="5,2" d="M1972.4624,-752.3586C1970.8176,-696.5517 1965.8444,-527.8123 1963.8454,-459.9856"/>
<polygon fill="#000000" stroke="#000000" points="1967.3335,-459.5254 1963.5403,-449.6329 1960.3365,-459.7317 1967.3335,-459.5254"/>
</g>
<!-- leaf_29 -->
<g id="node30" class="node">
<title>leaf_29</title>
<polygon fill="none" stroke="#c0c0c0" points="2367.5,-473.9015 2008.5,-473.9015 2008.5,-388.6994 2367.5,-388.6994 2367.5,-473.9015"/>
<text text-anchor="middle" x="2188" y="-458.9005" font-family="Inconsolata" font-size="14.00" fill="#000000">local Node &#160;&#160;&#160;= &#160;require &quot;espalier/node&quot;</text>
<text text-anchor="middle" x="2188" y="-443.5005" font-family="Inconsolata" font-size="14.00" fill="#000000">local Grammar = &#160;require &quot;espalier/grammar&quot;</text>
<text text-anchor="middle" x="2188" y="-428.1005" font-family="Inconsolata" font-size="14.00" fill="#000000">local L &#160;&#160;&#160;&#160;&#160;&#160;= &#160;require &quot;espalier/elpatt&quot;</text>
<text text-anchor="middle" x="2188" y="-396.7004" font-family="Inconsolata" font-size="14.00" fill="#000000">local P, R, E, V, S &#160;&#160;&#160;= &#160;L.P, L.R, L.E, L.V, L.S</text>
</g>
<!-- codeblock_25&#45;&gt;leaf_29 -->
<g id="edge29" class="edge">
<title>codeblock_25&#45;&gt;leaf_29</title>
<path fill="none" stroke="#000000" stroke-dasharray="5,2" d="M2147.3119,-752.3586C2153.6476,-702.3655 2171.4687,-561.7441 2181.2925,-484.2272"/>
<polygon fill="#000000" stroke="#000000" points="2184.7805,-484.5424 2182.5656,-474.1817 2177.836,-483.6623 2184.7805,-484.5424"/>
</g>
<!-- leaf_28 -->
<g id="node29" class="node">
<title>leaf_28</title>
<polygon fill="none" stroke="#c0c0c0" points="1990,-117.7 1936,-117.7 1936,-81.7 1990,-81.7 1990,-117.7"/>
</g>
<!-- raw_27&#45;&gt;leaf_28 -->
<g id="edge28" class="edge">
<title>raw_27&#45;&gt;leaf_28</title>
<path fill="none" stroke="#000000" stroke-dasharray="5,2" d="M1963,-412.9998C1963,-358.0816 1963,-194.4019 1963,-128.0798"/>
<polygon fill="#000000" stroke="#000000" points="1966.5001,-127.944 1963,-117.9441 1959.5001,-127.9441 1966.5001,-127.944"/>
</g>
<!-- leaf_35 -->
<g id="node36" class="node">
<title>leaf_35</title>
<polygon fill="none" stroke="#c0c0c0" points="2472,-449.3005 2386,-449.3005 2386,-413.3005 2472,-413.3005 2472,-449.3005"/>
<text text-anchor="middle" x="2429" y="-427.8005" font-family="Inconsolata" font-size="14.00" fill="#000000">*** lua_fn</text>
</g>
<!-- header_30&#45;&gt;leaf_35 -->
<g id="edge35" class="edge">
<title>header_30&#45;&gt;leaf_35</title>
<path fill="none" stroke="#000000" stroke-dasharray="5,2" d="M2426.1613,-752.3586C2426.6547,-696.5517 2428.1467,-527.8123 2428.7464,-459.9856"/>
<polygon fill="#000000" stroke="#000000" points="2432.2493,-459.6635 2428.8379,-449.6329 2425.2495,-459.6015 2432.2493,-459.6635"/>
</g>
<!-- raw_36 -->
<g id="node37" class="node">
<title>raw_36</title>
<ellipse fill="none" stroke="#000000" cx="2521" cy="-431.3005" rx="27" ry="18"/>
<text text-anchor="middle" x="2521" y="-427.1005" font-family="Helvetica,sans-Serif" font-size="14.00" fill="#000000">raw</text>
</g>
<!-- prose_31&#45;&gt;raw_36 -->
<g id="edge36" class="edge">
<title>prose_31&#45;&gt;raw_36</title>
<path fill="none" stroke="#000000" stroke-dasharray="5,2" d="M2522.8925,-752.3586C2522.5635,-696.5517 2521.5689,-527.8123 2521.1691,-459.9856"/>
<polygon fill="#000000" stroke="#000000" points="2524.667,-459.6121 2521.1081,-449.6329 2517.6672,-459.6534 2524.667,-459.6121"/>
</g>
<!-- hashline_38 -->
<g id="node39" class="node">
<title>hashline_38</title>
<ellipse fill="none" stroke="#000000" cx="2619" cy="-431.3005" rx="43.0992" ry="18"/>
<text text-anchor="middle" x="2619" y="-427.1005" font-family="Helvetica,sans-Serif" font-size="14.00" fill="#000000">hashline</text>
</g>
<!-- structure_32&#45;&gt;hashline_38 -->
<g id="edge38" class="edge">
<title>structure_32&#45;&gt;hashline_38</title>
<path fill="none" stroke="#000000" stroke-dasharray="5,2" d="M2618.0538,-752.3586C2618.2182,-696.5517 2618.7156,-527.8123 2618.9155,-459.9856"/>
<polygon fill="#000000" stroke="#000000" points="2622.4164,-459.6432 2618.946,-449.6329 2615.4164,-459.6225 2622.4164,-459.6432"/>
</g>
<!-- hashline_41 -->
<g id="node42" class="node">
<title>hashline_41</title>
<ellipse fill="none" stroke="#000000" cx="2724" cy="-431.3005" rx="43.0992" ry="18"/>
<text text-anchor="middle" x="2724" y="-427.1005" font-family="Helvetica,sans-Serif" font-size="14.00" fill="#000000">hashline</text>
</g>
<!-- structure_33&#45;&gt;hashline_41 -->
<g id="edge41" class="edge">
<title>structure_33&#45;&gt;hashline_41</title>
<path fill="none" stroke="#000000" stroke-dasharray="5,2" d="M2724.9462,-752.3586C2724.7818,-696.5517 2724.2844,-527.8123 2724.0845,-459.9856"/>
<polygon fill="#000000" stroke="#000000" points="2727.5836,-459.6225 2724.054,-449.6329 2720.5836,-459.6432 2727.5836,-459.6225"/>
</g>
<!-- leaf_44 -->
<g id="node45" class="node">
<title>leaf_44</title>
<polygon fill="none" stroke="#c0c0c0" points="3242.5,-699.1013 2785.5,-699.1013 2785.5,-163.4996 3242.5,-163.4996 3242.5,-699.1013"/>
<text text-anchor="middle" x="3014" y="-668.0009" font-family="Inconsolata" font-size="14.00" fill="#000000">local _do, _end, _then = P&quot;do&quot;, P&quot;end&quot;, P&quot;then&quot;</text>
<text text-anchor="middle" x="3014" y="-636.6008" font-family="Inconsolata" font-size="14.00" fill="#000000">local function lua_fn(ENV)</text>
<text text-anchor="middle" x="3014" y="-621.2008" font-family="Inconsolata" font-size="14.00" fill="#000000"> &#160;&#160;START &quot;lua&quot;</text>
<text text-anchor="middle" x="3014" y="-605.8008" font-family="Inconsolata" font-size="14.00" fill="#000000"> &#160;&#160;lua &#160;&#160;= V&quot;chunk&quot;^1</text>
<text text-anchor="middle" x="3014" y="-590.4007" font-family="Inconsolata" font-size="14.00" fill="#000000"> &#160;&#160;chunk = (V&quot;stat&quot; * P&quot;;&quot;^0) * (V&quot;laststat&quot;^0 * P&quot;;&quot;^0)^&#45;1</text>
<text text-anchor="middle" x="3014" y="-575.0007" font-family="Inconsolata" font-size="14.00" fill="#000000"> &#160;&#160;block = V&quot;chunk&quot;</text>
<text text-anchor="middle" x="3014" y="-543.6007" font-family="Inconsolata" font-size="14.00" fill="#000000"> &#160;&#160;stat &#160;= V&quot;varlist&quot; * P&quot;=&quot; * V&quot;explist&quot; +</text>
<text text-anchor="middle" x="3014" y="-528.2007" font-family="Inconsolata" font-size="14.00" fill="#000000"> &#160;&#160;&#160;&#160;&#160;&#160;&#160;&#160;&#160;&#160;V&quot;functioncall&quot; +</text>
<text text-anchor="middle" x="3014" y="-512.8006" font-family="Inconsolata" font-size="14.00" fill="#000000"> &#160;&#160;&#160;&#160;&#160;&#160;&#160;&#160;&#160;&#160;_do * V&quot;block&quot; * _end +</text>
<text text-anchor="middle" x="3014" y="-497.4006" font-family="Inconsolata" font-size="14.00" fill="#000000"> &#160;&#160;&#160;&#160;&#160;&#160;&#160;&#160;&#160;&#160;P&quot;while&quot; * V&quot;exp&quot; * _do * V&quot;block&quot; * _end +</text>
<text text-anchor="middle" x="3014" y="-482.0006" font-family="Inconsolata" font-size="14.00" fill="#000000"> &#160;&#160;&#160;&#160;&#160;&#160;&#160;&#160;&#160;&#160;P&quot;repeat&quot; * V&quot;block&quot; * P&quot;until&quot; * _end +</text>
<text text-anchor="middle" x="3014" y="-466.6005" font-family="Inconsolata" font-size="14.00" fill="#000000"> &#160;&#160;&#160;&#160;&#160;&#160;&#160;&#160;&#160;&#160;P&quot;if&quot; * V&quot;exp&quot; * _then * V&quot;block&quot; *</text>
<text text-anchor="middle" x="3014" y="-451.2005" font-family="Inconsolata" font-size="14.00" fill="#000000"> &#160;&#160;&#160;&#160;&#160;&#160;&#160;&#160;&#160;&#160;&#160;&#160;&#160;( P&quot;elseif&quot; V&quot;exp&quot; * _then * V&quot;block&quot; )^0 *</text>
<text text-anchor="middle" x="3014" y="-435.8005" font-family="Inconsolata" font-size="14.00" fill="#000000"> &#160;&#160;&#160;&#160;&#160;&#160;&#160;&#160;&#160;&#160;&#160;&#160;&#160;( P&quot;else&quot; * V&quot;block&quot; )^&#45;1 * _end +</text>
<text text-anchor="middle" x="3014" y="-420.4004" font-family="Inconsolata" font-size="14.00" fill="#000000"> &#160;&#160;&#160;&#160;&#160;&#160;&#160;&#160;&#160;&#160;P&quot;for&quot; * V&quot;Name&quot; * P&quot;=&quot; * V&quot;exp&quot; * P&quot;,&quot; * V&quot;exp&quot; *</text>
<text text-anchor="middle" x="3014" y="-405.0004" font-family="Inconsolata" font-size="14.00" fill="#000000"> &#160;&#160;&#160;&#160;&#160;&#160;&#160;&#160;&#160;&#160;&#160;&#160;&#160;( P&quot;,&quot; * V&quot;exp&quot; )^&#45;1 * _do * V&quot;block&quot; * _end +</text>
<text text-anchor="middle" x="3014" y="-389.6004" font-family="Inconsolata" font-size="14.00" fill="#000000"> &#160;&#160;&#160;&#160;&#160;&#160;&#160;&#160;&#160;&#160;P&quot;for&quot; * V&quot;namelist&quot; * P&quot;in&quot; * V&quot;explist&quot; * _do *</text>
<text text-anchor="middle" x="3014" y="-374.2003" font-family="Inconsolata" font-size="14.00" fill="#000000"> &#160;&#160;&#160;&#160;&#160;&#160;&#160;&#160;&#160;&#160;&#160;&#160;&#160;V&quot;block&quot; * _end +</text>
<text text-anchor="middle" x="3014" y="-358.8003" font-family="Inconsolata" font-size="14.00" fill="#000000"> &#160;&#160;&#160;&#160;&#160;&#160;&#160;&#160;&#160;&#160;P&quot;function&quot; * V&quot;funcname&quot; * V&quot;funcbody&quot; +</text>
<text text-anchor="middle" x="3014" y="-343.4003" font-family="Inconsolata" font-size="14.00" fill="#000000"> &#160;&#160;&#160;&#160;&#160;&#160;&#160;&#160;&#160;&#160;P&quot;local&quot; * P&quot;function&quot; * V&quot;Name&quot; * V&quot;funcbody&quot; +</text>
<text text-anchor="middle" x="3014" y="-328.0002" font-family="Inconsolata" font-size="14.00" fill="#000000"> &#160;&#160;&#160;&#160;&#160;&#160;&#160;&#160;&#160;&#160;P&quot;local&quot; * V&quot;namelist&quot; * ( P&quot;=&quot; * V&quot;explist&quot; )^&#45;1</text>
<text text-anchor="middle" x="3014" y="-296.6002" font-family="Inconsolata" font-size="14.00" fill="#000000"> &#160;&#160;laststat = P&quot;return&quot; * V&quot;explist&quot;^&#45;1 + P&quot;break&quot;</text>
<text text-anchor="middle" x="3014" y="-265.2002" font-family="Inconsolata" font-size="14.00" fill="#000000"> &#160;&#160;funcname = V&quot;Name&quot; * ( P&quot;.&quot; * V&quot;Name&quot; )^0 * ( P&quot;:&quot; V&quot;Name&quot; )</text>
<text text-anchor="middle" x="3014" y="-233.8002" font-family="Inconsolata" font-size="14.00" fill="#000000"> &#160;&#160;varlist &#160;= V&quot;var&quot; * ( P&quot;,&quot; V&quot;var&quot;)^0</text>
<text text-anchor="middle" x="3014" y="-202.4001" font-family="Inconsolata" font-size="14.00" fill="#000000"> &#160;&#160;var &#160;&#160;&#160;&#160;&#160;= V&quot;Name&quot; + V&quot;prefixexp&quot; * P&quot;[&quot; * V&quot;exp&quot; * P&quot;]&quot; +</text>
<text text-anchor="middle" x="3014" y="-187.0001" font-family="Inconsolata" font-size="14.00" fill="#000000"> &#160;&#160;&#160;&#160;&#160;&#160;&#160;&#160;&#160;&#160;&#160;&#160;&#160;&#160;&#160;&#160;V&quot;prefixexp&quot; * &quot;.&quot; * V&quot;Name&quot;</text>
<text text-anchor="middle" x="3014" y="-171.6001" font-family="Inconsolata" font-size="14.00" fill="#000000">end</text>
</g>
<!-- codeblock_34&#45;&gt;leaf_44 -->
<g id="edge44" class="edge">
<title>codeblock_34&#45;&gt;leaf_44</title>
<path fill="none" stroke="#000000" stroke-dasharray="5,2" d="M2946.8173,-752.3586C2949.0531,-741.6737 2952.1553,-726.8488 2955.8097,-709.3849"/>
<polygon fill="#000000" stroke="#000000" points="2959.2723,-709.9256 2957.8947,-699.4207 2952.4207,-708.4918 2959.2723,-709.9256"/>
</g>
<!-- leaf_37 -->
<g id="node38" class="node">
<title>leaf_37</title>
<polygon fill="none" stroke="#c0c0c0" points="2561,-127.6015 2111,-127.6015 2111,-71.7985 2561,-71.7985 2561,-127.6015"/>
<text text-anchor="middle" x="2336" y="-80.2" font-family="Inconsolata" font-size="14.00" fill="#000000">This is provided to the Grammar engine to create a Lua parser.</text>
</g>
<!-- raw_36&#45;&gt;leaf_37 -->
<g id="edge37" class="edge">
<title>raw_36&#45;&gt;leaf_37</title>
<path fill="none" stroke="#000000" stroke-dasharray="5,2" d="M2523.7948,-413.1022C2529.9262,-366.3239 2539.6796,-240.1836 2481,-163.4 2471.3218,-150.7359 2458.5917,-140.5408 2444.6882,-132.3461"/>
<polygon fill="#000000" stroke="#000000" points="2446.3434,-129.262 2435.8965,-127.4979 2442.9632,-135.3918 2446.3434,-129.262"/>
</g>
<!-- hashtag_39 -->
<g id="node40" class="node">
<title>hashtag_39</title>
<ellipse fill="none" stroke="#000000" cx="2621" cy="-99.7" rx="41.6544" ry="18"/>
<text text-anchor="middle" x="2621" y="-95.5" font-family="Helvetica,sans-Serif" font-size="14.00" fill="#000000">hashtag</text>
</g>
<!-- hashline_38&#45;&gt;hashtag_39 -->
<g id="edge39" class="edge">
<title>hashline_38&#45;&gt;hashtag_39</title>
<path fill="none" stroke="#000000" stroke-dasharray="5,2" d="M2619.1104,-412.9998C2619.4416,-358.0816 2620.4288,-194.4019 2620.8288,-128.0798"/>
<polygon fill="#000000" stroke="#000000" points="2624.3295,-127.965 2620.89,-117.9441 2617.3296,-127.9227 2624.3295,-127.965"/>
</g>
<!-- leaf_40 -->
<g id="node41" class="node">
<title>leaf_40</title>
<polygon fill="none" stroke="#c0c0c0" points="2648,-36 2594,-36 2594,0 2648,0 2648,-36"/>
<text text-anchor="middle" x="2621" y="-14.5" font-family="Inconsolata" font-size="14.00" fill="#000000">Todo</text>
</g>
<!-- hashtag_39&#45;&gt;leaf_40 -->
<g id="edge40" class="edge">
<title>hashtag_39&#45;&gt;leaf_40</title>
<path fill="none" stroke="#000000" stroke-dasharray="5,2" d="M2621,-81.5681C2621,-71.2023 2621,-57.9747 2621,-46.2729"/>
<polygon fill="#000000" stroke="#000000" points="2624.5001,-46.0812 2621,-36.0812 2617.5001,-46.0812 2624.5001,-46.0812"/>
</g>
<!-- hashtag_42 -->
<g id="node43" class="node">
<title>hashtag_42</title>
<ellipse fill="none" stroke="#000000" cx="2724" cy="-99.7" rx="41.6544" ry="18"/>
<text text-anchor="middle" x="2724" y="-95.5" font-family="Helvetica,sans-Serif" font-size="14.00" fill="#000000">hashtag</text>
</g>
<!-- hashline_41&#45;&gt;hashtag_42 -->
<g id="edge42" class="edge">
<title>hashline_41&#45;&gt;hashtag_42</title>
<path fill="none" stroke="#000000" stroke-dasharray="5,2" d="M2724,-412.9998C2724,-358.0816 2724,-194.4019 2724,-128.0798"/>
<polygon fill="#000000" stroke="#000000" points="2727.5001,-127.944 2724,-117.9441 2720.5001,-127.9441 2727.5001,-127.944"/>
</g>
<!-- leaf_43 -->
<g id="node44" class="node">
<title>leaf_43</title>
<polygon fill="none" stroke="#c0c0c0" points="2751,-36 2697,-36 2697,0 2751,0 2751,-36"/>
<text text-anchor="middle" x="2724" y="-14.5" font-family="Inconsolata" font-size="14.00" fill="#000000">Todo</text>
</g>
<!-- hashtag_42&#45;&gt;leaf_43 -->
<g id="edge43" class="edge">
<title>hashtag_42&#45;&gt;leaf_43</title>
<path fill="none" stroke="#000000" stroke-dasharray="5,2" d="M2724,-81.5681C2724,-71.2023 2724,-57.9747 2724,-46.2729"/>
<polygon fill="#000000" stroke="#000000" points="2727.5001,-46.0812 2724,-36.0812 2720.5001,-46.0812 2727.5001,-46.0812"/>
</g>
</g>
</svg>
