<?xml version="1.0" encoding="UTF-8" standalone="no"?>
<!DOCTYPE svg PUBLIC "-//W3C//DTD SVG 1.1//EN"
 "http://www.w3.org/Graphics/SVG/1.1/DTD/svg11.dtd">
<!-- Generated by graphviz version 2.40.1 (20161225.0304)
 -->
<!-- Title: lpegNode Pages: 1 -->
<svg width="2772pt" height="1427pt"
 viewBox="0.00 0.00 2772.00 1426.80" xmlns="http://www.w3.org/2000/svg" xmlns:xlink="http://www.w3.org/1999/xlink">
<g id="graph0" class="graph" transform="scale(1 1) rotate(0) translate(4 1422.8013)">
<title>lpegNode</title>
<polygon fill="#ffffff" stroke="transparent" points="-4,4 -4,-1422.8013 2768,-1422.8013 2768,4 -4,4"/>
<!-- doc_0 -->
<g id="node1" class="node">
<title>doc_0</title>
<ellipse fill="none" stroke="#000000" cx="906" cy="-1400.8013" rx="46.1547" ry="18"/>
<text text-anchor="middle" x="906" y="-1396.6013" font-family="Helvetica,sans-Serif" font-size="14.00" fill="#000000">doc &#45; 115</text>
</g>
<!-- section_1 -->
<g id="node2" class="node">
<title>section_1</title>
<ellipse fill="none" stroke="#000000" cx="906" cy="-1328.8013" rx="60.9826" ry="18"/>
<text text-anchor="middle" x="906" y="-1324.6013" font-family="Helvetica,sans-Serif" font-size="14.00" fill="#000000">section: 1&#45;71</text>
</g>
<!-- doc_0&#45;&gt;section_1 -->
<g id="edge1" class="edge">
<title>doc_0&#45;&gt;section_1</title>
<path fill="none" stroke="#000000" stroke-dasharray="5,2" d="M906,-1382.6327C906,-1374.9323 906,-1365.7757 906,-1357.2179"/>
<polygon fill="#000000" stroke="#000000" points="909.5001,-1357.2145 906,-1347.2146 902.5001,-1357.2146 909.5001,-1357.2145"/>
</g>
<!-- header_2 -->
<g id="node3" class="node">
<title>header_2</title>
<ellipse fill="none" stroke="#000000" cx="633" cy="-1256.8013" rx="100.1143" ry="18"/>
<text text-anchor="middle" x="633" y="-1252.6013" font-family="Helvetica,sans-Serif" font-size="14.00" fill="#000000">1 : A Grammer For Lua</text>
</g>
<!-- section_1&#45;&gt;header_2 -->
<g id="edge2" class="edge">
<title>section_1&#45;&gt;header_2</title>
<path fill="none" stroke="#000000" stroke-dasharray="5,2" d="M860.6131,-1316.8312C816.549,-1305.2098 749.1718,-1287.44 699.1453,-1274.2462"/>
<polygon fill="#000000" stroke="#000000" points="699.9453,-1270.8376 689.3834,-1271.6717 698.1602,-1277.6062 699.9453,-1270.8376"/>
</g>
<!-- prose_3 -->
<g id="node4" class="node">
<title>prose_3</title>
<ellipse fill="none" stroke="#000000" cx="783" cy="-1256.8013" rx="32.4585" ry="18"/>
<text text-anchor="middle" x="783" y="-1252.6013" font-family="Helvetica,sans-Serif" font-size="14.00" fill="#000000">prose</text>
</g>
<!-- section_1&#45;&gt;prose_3 -->
<g id="edge3" class="edge">
<title>section_1&#45;&gt;prose_3</title>
<path fill="none" stroke="#000000" stroke-dasharray="5,2" d="M878.3964,-1312.6431C859.3555,-1301.4972 834.0105,-1286.6611 814.2307,-1275.0827"/>
<polygon fill="#000000" stroke="#000000" points="815.9752,-1272.0483 805.5769,-1270.017 812.4389,-1278.0894 815.9752,-1272.0483"/>
</g>
<!-- prose_4 -->
<g id="node5" class="node">
<title>prose_4</title>
<ellipse fill="none" stroke="#000000" cx="865" cy="-1256.8013" rx="32.4585" ry="18"/>
<text text-anchor="middle" x="865" y="-1252.6013" font-family="Helvetica,sans-Serif" font-size="14.00" fill="#000000">prose</text>
</g>
<!-- section_1&#45;&gt;prose_4 -->
<g id="edge4" class="edge">
<title>section_1&#45;&gt;prose_4</title>
<path fill="none" stroke="#000000" stroke-dasharray="5,2" d="M895.8652,-1311.0036C891.0632,-1302.5708 885.2315,-1292.3299 879.9358,-1283.0301"/>
<polygon fill="#000000" stroke="#000000" points="882.8667,-1281.1038 874.8768,-1274.1459 876.7838,-1284.5677 882.8667,-1281.1038"/>
</g>
<!-- prose_5 -->
<g id="node6" class="node">
<title>prose_5</title>
<ellipse fill="none" stroke="#000000" cx="947" cy="-1256.8013" rx="32.4585" ry="18"/>
<text text-anchor="middle" x="947" y="-1252.6013" font-family="Helvetica,sans-Serif" font-size="14.00" fill="#000000">prose</text>
</g>
<!-- section_1&#45;&gt;prose_5 -->
<g id="edge5" class="edge">
<title>section_1&#45;&gt;prose_5</title>
<path fill="none" stroke="#000000" stroke-dasharray="5,2" d="M916.1348,-1311.0036C920.9368,-1302.5708 926.7685,-1292.3299 932.0642,-1283.0301"/>
<polygon fill="#000000" stroke="#000000" points="935.2162,-1284.5677 937.1232,-1274.1459 929.1333,-1281.1038 935.2162,-1284.5677"/>
</g>
<!-- codeblock_6 -->
<g id="node7" class="node">
<title>codeblock_6</title>
<ellipse fill="none" stroke="#000000" cx="1159" cy="-1256.8013" rx="77.4211" ry="18"/>
<text text-anchor="middle" x="1159" y="-1252.6013" font-family="Helvetica,sans-Serif" font-size="14.00" fill="#000000">code block 12&#45;69</text>
</g>
<!-- section_1&#45;&gt;codeblock_6 -->
<g id="edge6" class="edge">
<title>section_1&#45;&gt;codeblock_6</title>
<path fill="none" stroke="#000000" stroke-dasharray="5,2" d="M950.0692,-1316.2599C991.6167,-1304.4361 1054.1765,-1286.6325 1100.0114,-1273.5886"/>
<polygon fill="#000000" stroke="#000000" points="1101.1557,-1276.902 1109.8158,-1270.7984 1099.2397,-1270.1693 1101.1557,-1276.902"/>
</g>
<!-- section_7 -->
<g id="node8" class="node">
<title>section_7</title>
<ellipse fill="none" stroke="#000000" cx="1794" cy="-1256.8013" rx="65.8187" ry="18"/>
<text text-anchor="middle" x="1794" y="-1252.6013" font-family="Helvetica,sans-Serif" font-size="14.00" fill="#000000">section: 72&#45;87</text>
</g>
<!-- section_1&#45;&gt;section_7 -->
<g id="edge7" class="edge">
<title>section_1&#45;&gt;section_7</title>
<path fill="none" stroke="#000000" stroke-dasharray="5,2" d="M964.6076,-1324.0493C1121.1589,-1311.356 1548.8671,-1276.6769 1720.901,-1262.7283"/>
<polygon fill="#000000" stroke="#000000" points="1721.189,-1266.2165 1730.8734,-1261.9197 1720.6232,-1259.2394 1721.189,-1266.2165"/>
</g>
<!-- leaf_8 -->
<g id="node9" class="node">
<title>leaf_8</title>
<polygon fill="none" stroke="#c0c0c0" points="707.5,-779.3008 558.5,-779.3008 558.5,-743.3008 707.5,-743.3008 707.5,-779.3008"/>
<text text-anchor="middle" x="633" y="-757.8008" font-family="Inconsolata" font-size="14.00" fill="#000000">* A Grammer For Lua</text>
</g>
<!-- header_2&#45;&gt;leaf_8 -->
<g id="edge8" class="edge">
<title>header_2&#45;&gt;leaf_8</title>
<path fill="none" stroke="#000000" stroke-dasharray="5,2" d="M633,-1238.5785C633,-1163.8329 633,-880.4113 633,-789.5289"/>
<polygon fill="#000000" stroke="#000000" points="636.5001,-789.4271 633,-779.4271 629.5001,-789.4271 636.5001,-789.4271"/>
</g>
<!-- raw_9 -->
<g id="node10" class="node">
<title>raw_9</title>
<ellipse fill="none" stroke="#000000" cx="768" cy="-761.3008" rx="27" ry="18"/>
<text text-anchor="middle" x="768" y="-757.1008" font-family="Helvetica,sans-Serif" font-size="14.00" fill="#000000">raw</text>
</g>
<!-- prose_3&#45;&gt;raw_9 -->
<g id="edge9" class="edge">
<title>prose_3&#45;&gt;raw_9</title>
<path fill="none" stroke="#000000" stroke-dasharray="5,2" d="M782.4484,-1238.5785C780.1856,-1163.8329 771.6058,-880.4113 768.8545,-789.5289"/>
<polygon fill="#000000" stroke="#000000" points="772.3498,-789.3166 768.5487,-779.4271 765.353,-789.5285 772.3498,-789.3166"/>
</g>
<!-- raw_11 -->
<g id="node12" class="node">
<title>raw_11</title>
<ellipse fill="none" stroke="#000000" cx="853" cy="-761.3008" rx="27" ry="18"/>
<text text-anchor="middle" x="853" y="-757.1008" font-family="Helvetica,sans-Serif" font-size="14.00" fill="#000000">raw</text>
</g>
<!-- prose_4&#45;&gt;raw_11 -->
<g id="edge11" class="edge">
<title>prose_4&#45;&gt;raw_11</title>
<path fill="none" stroke="#000000" stroke-dasharray="5,2" d="M864.5587,-1238.5785C862.7485,-1163.8329 855.8846,-880.4113 853.6836,-789.5289"/>
<polygon fill="#000000" stroke="#000000" points="857.1802,-789.3394 853.439,-779.4271 850.1822,-789.5089 857.1802,-789.3394"/>
</g>
<!-- raw_13 -->
<g id="node14" class="node">
<title>raw_13</title>
<ellipse fill="none" stroke="#000000" cx="947" cy="-761.3008" rx="27" ry="18"/>
<text text-anchor="middle" x="947" y="-757.1008" font-family="Helvetica,sans-Serif" font-size="14.00" fill="#000000">raw</text>
</g>
<!-- prose_5&#45;&gt;raw_13 -->
<g id="edge13" class="edge">
<title>prose_5&#45;&gt;raw_13</title>
<path fill="none" stroke="#000000" stroke-dasharray="5,2" d="M947,-1238.5785C947,-1163.8329 947,-880.4113 947,-789.5289"/>
<polygon fill="#000000" stroke="#000000" points="950.5001,-789.4271 947,-779.4271 943.5001,-789.4271 950.5001,-789.4271"/>
</g>
<!-- leaf_15 -->
<g id="node16" class="node">
<title>leaf_15</title>
<polygon fill="none" stroke="#c0c0c0" points="1491.5,-1202.8019 992.5,-1202.8019 992.5,-319.7997 1491.5,-319.7997 1491.5,-1202.8019"/>
<text text-anchor="middle" x="1242" y="-1187.6013" font-family="Inconsolata" font-size="14.00" fill="#000000">chunk ::= {stat [`;´]} [laststat [`;´]]</text>
<text text-anchor="middle" x="1242" y="-1156.2013" font-family="Inconsolata" font-size="14.00" fill="#000000"> &#160;&#160;block ::= chunk</text>
<text text-anchor="middle" x="1242" y="-1124.8012" font-family="Inconsolata" font-size="14.00" fill="#000000"> &#160;&#160;stat ::= &#160;varlist `=´ explist |</text>
<text text-anchor="middle" x="1242" y="-1109.4012" font-family="Inconsolata" font-size="14.00" fill="#000000"> &#160;&#160;&#160;&#160;&#160;&#160;functioncall |</text>
<text text-anchor="middle" x="1242" y="-1094.0012" font-family="Inconsolata" font-size="14.00" fill="#000000"> &#160;&#160;&#160;&#160;&#160;&#160;do block end |</text>
<text text-anchor="middle" x="1242" y="-1078.6012" font-family="Inconsolata" font-size="14.00" fill="#000000"> &#160;&#160;&#160;&#160;&#160;&#160;while exp do block end |</text>
<text text-anchor="middle" x="1242" y="-1063.2011" font-family="Inconsolata" font-size="14.00" fill="#000000"> &#160;&#160;&#160;&#160;&#160;&#160;repeat block until exp |</text>
<text text-anchor="middle" x="1242" y="-1047.8011" font-family="Inconsolata" font-size="14.00" fill="#000000"> &#160;&#160;&#160;&#160;&#160;&#160;if exp then block {elseif exp then block} [else block] end |</text>
<text text-anchor="middle" x="1242" y="-1032.4011" font-family="Inconsolata" font-size="14.00" fill="#000000"> &#160;&#160;&#160;&#160;&#160;&#160;for Name `=´ exp `,´ exp [`,´ exp] do block end |</text>
<text text-anchor="middle" x="1242" y="-1017.001" font-family="Inconsolata" font-size="14.00" fill="#000000"> &#160;&#160;&#160;&#160;&#160;&#160;for namelist in explist do block end |</text>
<text text-anchor="middle" x="1242" y="-1001.601" font-family="Inconsolata" font-size="14.00" fill="#000000"> &#160;&#160;&#160;&#160;&#160;&#160;function funcname funcbody |</text>
<text text-anchor="middle" x="1242" y="-986.201" font-family="Inconsolata" font-size="14.00" fill="#000000"> &#160;&#160;&#160;&#160;&#160;&#160;local function Name funcbody |</text>
<text text-anchor="middle" x="1242" y="-970.8009" font-family="Inconsolata" font-size="14.00" fill="#000000"> &#160;&#160;&#160;&#160;&#160;&#160;local namelist [`=´ explist]</text>
<text text-anchor="middle" x="1242" y="-939.4009" font-family="Inconsolata" font-size="14.00" fill="#000000"> &#160;&#160;laststat ::= return [explist] | break</text>
<text text-anchor="middle" x="1242" y="-908.0009" font-family="Inconsolata" font-size="14.00" fill="#000000"> &#160;&#160;funcname ::= Name {`.´ Name} [`:´ Name]</text>
<text text-anchor="middle" x="1242" y="-876.6008" font-family="Inconsolata" font-size="14.00" fill="#000000"> &#160;&#160;varlist ::= var {`,´ var}</text>
<text text-anchor="middle" x="1242" y="-845.2008" font-family="Inconsolata" font-size="14.00" fill="#000000"> &#160;&#160;var ::= &#160;Name | prefixexp `[´ exp `]´ | prefixexp `.´ Name</text>
<text text-anchor="middle" x="1242" y="-813.8008" font-family="Inconsolata" font-size="14.00" fill="#000000"> &#160;&#160;namelist ::= Name {`,´ Name}</text>
<text text-anchor="middle" x="1242" y="-782.4007" font-family="Inconsolata" font-size="14.00" fill="#000000"> &#160;&#160;explist ::= {exp `,´} exp</text>
<text text-anchor="middle" x="1242" y="-751.0007" font-family="Inconsolata" font-size="14.00" fill="#000000"> &#160;&#160;exp ::= &#160;nil | false | true | Number | String | `...´ | function |</text>
<text text-anchor="middle" x="1242" y="-735.6007" font-family="Inconsolata" font-size="14.00" fill="#000000"> &#160;&#160;&#160;&#160;&#160;&#160;prefixexp | tableconstructor | exp binop exp | unop exp</text>
<text text-anchor="middle" x="1242" y="-704.2007" font-family="Inconsolata" font-size="14.00" fill="#000000"> &#160;&#160;prefixexp ::= var | functioncall | `(´ exp `)´</text>
<text text-anchor="middle" x="1242" y="-672.8006" font-family="Inconsolata" font-size="14.00" fill="#000000"> &#160;&#160;functioncall ::= &#160;prefixexp args | prefixexp `:´ Name args</text>
<text text-anchor="middle" x="1242" y="-641.4006" font-family="Inconsolata" font-size="14.00" fill="#000000"> &#160;&#160;args ::= &#160;`(´ [explist] `)´ | tableconstructor | String</text>
<text text-anchor="middle" x="1242" y="-610.0006" font-family="Inconsolata" font-size="14.00" fill="#000000"> &#160;&#160;function ::= function funcbody</text>
<text text-anchor="middle" x="1242" y="-578.6005" font-family="Inconsolata" font-size="14.00" fill="#000000"> &#160;&#160;funcbody ::= `(´ [parlist] `)´ block end</text>
<text text-anchor="middle" x="1242" y="-547.2005" font-family="Inconsolata" font-size="14.00" fill="#000000"> &#160;&#160;parlist ::= namelist [`,´ `...´] | `...´</text>
<text text-anchor="middle" x="1242" y="-515.8005" font-family="Inconsolata" font-size="14.00" fill="#000000"> &#160;&#160;tableconstructor ::= `{´ [fieldlist] `}´</text>
<text text-anchor="middle" x="1242" y="-484.4004" font-family="Inconsolata" font-size="14.00" fill="#000000"> &#160;&#160;fieldlist ::= field {fieldsep field} [fieldsep]</text>
<text text-anchor="middle" x="1242" y="-453.0004" font-family="Inconsolata" font-size="14.00" fill="#000000"> &#160;&#160;field ::= `[´ exp `]´ `=´ exp | Name `=´ exp | exp</text>
<text text-anchor="middle" x="1242" y="-421.6004" font-family="Inconsolata" font-size="14.00" fill="#000000"> &#160;&#160;fieldsep ::= `,´ | `;´</text>
<text text-anchor="middle" x="1242" y="-390.2003" font-family="Inconsolata" font-size="14.00" fill="#000000"> &#160;&#160;binop ::= `+´ | `&#45;´ | `*´ | `/´ | `^´ | `%´ | `..´ |</text>
<text text-anchor="middle" x="1242" y="-374.8003" font-family="Inconsolata" font-size="14.00" fill="#000000"> &#160;&#160;&#160;&#160;&#160;&#160;`&lt;´ | `&lt;=´ | `&gt;´ | `&gt;=´ | `==´ | `~=´ |</text>
<text text-anchor="middle" x="1242" y="-359.4003" font-family="Inconsolata" font-size="14.00" fill="#000000"> &#160;&#160;&#160;&#160;&#160;&#160;and | or</text>
<text text-anchor="middle" x="1242" y="-328.0002" font-family="Inconsolata" font-size="14.00" fill="#000000"> &#160;&#160;unop ::= `&#45;´ | not | `#´</text>
</g>
<!-- codeblock_6&#45;&gt;leaf_15 -->
<g id="edge15" class="edge">
<title>codeblock_6&#45;&gt;leaf_15</title>
<path fill="none" stroke="#000000" stroke-dasharray="5,2" d="M1162.0524,-1238.5785C1163.205,-1231.6982 1164.6536,-1223.0498 1166.3461,-1212.9461"/>
<polygon fill="#000000" stroke="#000000" points="1169.8415,-1213.2643 1168.0417,-1202.8234 1162.9376,-1212.1078 1169.8415,-1213.2643"/>
</g>
<!-- header_16 -->
<g id="node17" class="node">
<title>header_16</title>
<ellipse fill="none" stroke="#000000" cx="1661" cy="-761.3008" rx="82.7165" ry="18"/>
<text text-anchor="middle" x="1661" y="-757.1008" font-family="Helvetica,sans-Serif" font-size="14.00" fill="#000000">2 : Implementation</text>
</g>
<!-- section_7&#45;&gt;header_16 -->
<g id="edge16" class="edge">
<title>section_7&#45;&gt;header_16</title>
<path fill="none" stroke="#000000" stroke-dasharray="5,2" d="M1777.3653,-1239.1307C1768.8589,-1229.1688 1759.0504,-1216.0843 1753,-1202.8013 1686.4734,-1056.7503 1667.4995,-861.533 1662.5789,-789.5185"/>
<polygon fill="#000000" stroke="#000000" points="1666.0644,-789.1791 1661.9277,-779.4253 1659.0789,-789.6299 1666.0644,-789.1791"/>
</g>
<!-- prose_17 -->
<g id="node18" class="node">
<title>prose_17</title>
<ellipse fill="none" stroke="#000000" cx="1794" cy="-761.3008" rx="32.4585" ry="18"/>
<text text-anchor="middle" x="1794" y="-757.1008" font-family="Helvetica,sans-Serif" font-size="14.00" fill="#000000">prose</text>
</g>
<!-- section_7&#45;&gt;prose_17 -->
<g id="edge17" class="edge">
<title>section_7&#45;&gt;prose_17</title>
<path fill="none" stroke="#000000" stroke-dasharray="5,2" d="M1794,-1238.5785C1794,-1163.8329 1794,-880.4113 1794,-789.5289"/>
<polygon fill="#000000" stroke="#000000" points="1797.5001,-789.4271 1794,-779.4271 1790.5001,-789.4271 1797.5001,-789.4271"/>
</g>
<!-- section_18 -->
<g id="node19" class="node">
<title>section_18</title>
<ellipse fill="none" stroke="#000000" cx="1942" cy="-761.3008" rx="65.8187" ry="18"/>
<text text-anchor="middle" x="1942" y="-757.1008" font-family="Helvetica,sans-Serif" font-size="14.00" fill="#000000">section: 77&#45;87</text>
</g>
<!-- section_7&#45;&gt;section_18 -->
<g id="edge18" class="edge">
<title>section_7&#45;&gt;section_18</title>
<path fill="none" stroke="#000000" stroke-dasharray="5,2" d="M1810.4641,-1239.0513C1818.9205,-1229.0662 1828.7356,-1215.9848 1835,-1202.8013 1904.3824,-1056.7849 1931.2555,-861.5468 1939.2114,-789.5226"/>
<polygon fill="#000000" stroke="#000000" points="1942.7076,-789.7434 1940.2903,-779.428 1935.7473,-788.9994 1942.7076,-789.7434"/>
</g>
<!-- section_19 -->
<g id="node20" class="node">
<title>section_19</title>
<ellipse fill="none" stroke="#000000" cx="2474" cy="-761.3008" rx="69.851" ry="18"/>
<text text-anchor="middle" x="2474" y="-757.1008" font-family="Helvetica,sans-Serif" font-size="14.00" fill="#000000">section: 88&#45;115</text>
</g>
<!-- section_7&#45;&gt;section_19 -->
<g id="edge19" class="edge">
<title>section_7&#45;&gt;section_19</title>
<path fill="none" stroke="#000000" stroke-dasharray="5,2" d="M1855.8423,-1250.7114C1902.4637,-1244.0762 1966.7397,-1230.4458 2017,-1202.8013 2220.8321,-1090.688 2398.9452,-863.7086 2455.406,-787.1698"/>
<polygon fill="#000000" stroke="#000000" points="2458.3002,-789.1415 2461.3863,-779.0061 2452.6533,-785.0048 2458.3002,-789.1415"/>
</g>
<!-- leaf_10 -->
<g id="node11" class="node">
<title>leaf_10</title>
<polygon fill="none" stroke="#c0c0c0" points="520,-283.7005 0,-283.7005 0,-213.0998 520,-213.0998 520,-283.7005"/>
<text text-anchor="middle" x="260" y="-236.6002" font-family="Inconsolata" font-size="14.00" fill="#000000">While the most important grammar for pegylator is pegylator itself, it&#39;s</text>
<text text-anchor="middle" x="260" y="-221.2002" font-family="Inconsolata" font-size="14.00" fill="#000000">time to make a Lua language parser.</text>
</g>
<!-- raw_9&#45;&gt;leaf_10 -->
<g id="edge10" class="edge">
<title>raw_9&#45;&gt;leaf_10</title>
<path fill="none" stroke="#000000" stroke-dasharray="5,2" d="M772.5081,-743.4763C788.1448,-677.022 832.9523,-441.2928 716,-319.8002 708.4103,-311.9159 624.2385,-297.7559 530.2361,-284.1133"/>
<polygon fill="#000000" stroke="#000000" points="530.6197,-280.6324 520.2221,-282.6671 529.6191,-287.5605 530.6197,-280.6324"/>
</g>
<!-- leaf_12 -->
<g id="node13" class="node">
<title>leaf_12</title>
<polygon fill="none" stroke="#c0c0c0" points="1030,-275.7006 538,-275.7006 538,-221.0998 1030,-221.0998 1030,-275.7006"/>
<text text-anchor="middle" x="784" y="-244.6002" font-family="Inconsolata" font-size="14.00" fill="#000000">The hard work is done on this, it&#39;s a matter of translation into the</text>
<text text-anchor="middle" x="784" y="-229.2002" font-family="Inconsolata" font-size="14.00" fill="#000000">Pegylator paradigm.</text>
</g>
<!-- raw_11&#45;&gt;leaf_12 -->
<g id="edge12" class="edge">
<title>raw_11&#45;&gt;leaf_12</title>
<path fill="none" stroke="#000000" stroke-dasharray="5,2" d="M852.0408,-743.0577C848.626,-682.4097 835.5375,-482.1886 804,-319.8002 801.8204,-308.5771 798.7459,-296.5477 795.6599,-285.6222"/>
<polygon fill="#000000" stroke="#000000" points="799.0014,-284.5784 792.8479,-275.9537 792.2799,-286.5333 799.0014,-284.5784"/>
</g>
<!-- leaf_14 -->
<g id="node15" class="node">
<title>leaf_14</title>
<polygon fill="none" stroke="#c0c0c0" points="1575.5,-275.7006 1048.5,-275.7006 1048.5,-221.0998 1575.5,-221.0998 1575.5,-275.7006"/>
<text text-anchor="middle" x="1312" y="-244.6002" font-family="Inconsolata" font-size="14.00" fill="#000000">While this a hell of a lot of work, the complete BNF of Lua is available,</text>
<text text-anchor="middle" x="1312" y="-229.2002" font-family="Inconsolata" font-size="14.00" fill="#000000">and reproduced here.</text>
</g>
<!-- raw_13&#45;&gt;leaf_14 -->
<g id="edge14" class="edge">
<title>raw_13&#45;&gt;leaf_14</title>
<path fill="none" stroke="#000000" stroke-dasharray="5,2" d="M941.8434,-743.3421C924.105,-677.4019 872.5518,-445.9263 983,-319.8002 998.5926,-301.9943 1037.2478,-288.3085 1082.8125,-277.918"/>
<polygon fill="#000000" stroke="#000000" points="1083.6238,-281.3233 1092.6346,-275.7506 1082.1153,-274.4878 1083.6238,-281.3233"/>
</g>
<!-- leaf_20 -->
<g id="node21" class="node">
<title>leaf_20</title>
<polygon fill="none" stroke="#c0c0c0" points="1728.5,-266.4002 1593.5,-266.4002 1593.5,-230.4002 1728.5,-230.4002 1728.5,-266.4002"/>
<text text-anchor="middle" x="1661" y="-244.9002" font-family="Inconsolata" font-size="14.00" fill="#000000">** Implementation</text>
</g>
<!-- header_16&#45;&gt;leaf_20 -->
<g id="edge20" class="edge">
<title>header_16&#45;&gt;leaf_20</title>
<path fill="none" stroke="#000000" stroke-dasharray="5,2" d="M1661,-743.0464C1661,-666.3161 1661,-369.6085 1661,-276.5103"/>
<polygon fill="#000000" stroke="#000000" points="1664.5001,-276.4358 1661,-266.4359 1657.5001,-276.4359 1664.5001,-276.4358"/>
</g>
<!-- raw_21 -->
<g id="node22" class="node">
<title>raw_21</title>
<ellipse fill="none" stroke="#000000" cx="1774" cy="-248.4002" rx="27" ry="18"/>
<text text-anchor="middle" x="1774" y="-244.2002" font-family="Helvetica,sans-Serif" font-size="14.00" fill="#000000">raw</text>
</g>
<!-- prose_17&#45;&gt;raw_21 -->
<g id="edge21" class="edge">
<title>prose_17&#45;&gt;raw_21</title>
<path fill="none" stroke="#000000" stroke-dasharray="5,2" d="M1793.2882,-743.0464C1790.2962,-666.3161 1778.7264,-369.6085 1775.0961,-276.5103"/>
<polygon fill="#000000" stroke="#000000" points="1778.5904,-276.2919 1774.7033,-266.4359 1771.5957,-276.5647 1778.5904,-276.2919"/>
</g>
<!-- header_23 -->
<g id="node24" class="node">
<title>header_23</title>
<ellipse fill="none" stroke="#000000" cx="1871" cy="-248.4002" rx="51.7605" ry="18"/>
<text text-anchor="middle" x="1871" y="-244.2002" font-family="Helvetica,sans-Serif" font-size="14.00" fill="#000000">3 : Imports</text>
</g>
<!-- section_18&#45;&gt;header_23 -->
<g id="edge23" class="edge">
<title>section_18&#45;&gt;header_23</title>
<path fill="none" stroke="#000000" stroke-dasharray="5,2" d="M1939.4731,-743.0464C1928.8514,-666.3161 1887.7787,-369.6085 1874.8912,-276.5103"/>
<polygon fill="#000000" stroke="#000000" points="1878.3349,-275.8614 1873.4966,-266.4359 1871.401,-276.8214 1878.3349,-275.8614"/>
</g>
<!-- prose_24 -->
<g id="node25" class="node">
<title>prose_24</title>
<ellipse fill="none" stroke="#000000" cx="1973" cy="-248.4002" rx="32.4585" ry="18"/>
<text text-anchor="middle" x="1973" y="-244.2002" font-family="Helvetica,sans-Serif" font-size="14.00" fill="#000000">prose</text>
</g>
<!-- section_18&#45;&gt;prose_24 -->
<g id="edge24" class="edge">
<title>section_18&#45;&gt;prose_24</title>
<path fill="none" stroke="#000000" stroke-dasharray="5,2" d="M1943.1033,-743.0464C1947.7409,-666.3161 1965.6741,-369.6085 1971.301,-276.5103"/>
<polygon fill="#000000" stroke="#000000" points="1974.8001,-276.6288 1971.9099,-266.4359 1967.8129,-276.2065 1974.8001,-276.6288"/>
</g>
<!-- codeblock_25 -->
<g id="node26" class="node">
<title>codeblock_25</title>
<ellipse fill="none" stroke="#000000" cx="2145" cy="-248.4002" rx="77.4211" ry="18"/>
<text text-anchor="middle" x="2145" y="-244.2002" font-family="Helvetica,sans-Serif" font-size="14.00" fill="#000000">code block 79&#45;85</text>
</g>
<!-- section_18&#45;&gt;codeblock_25 -->
<g id="edge25" class="edge">
<title>section_18&#45;&gt;codeblock_25</title>
<path fill="none" stroke="#000000" stroke-dasharray="5,2" d="M1949.1058,-743.3471C1979.3406,-666.9558 2097.4076,-368.6473 2134.075,-276.0033"/>
<polygon fill="#000000" stroke="#000000" points="2137.4208,-277.0603 2137.8466,-266.474 2130.912,-274.4841 2137.4208,-277.0603"/>
</g>
<!-- header_30 -->
<g id="node31" class="node">
<title>header_30</title>
<ellipse fill="none" stroke="#000000" cx="2426" cy="-248.4002" rx="46.4822" ry="18"/>
<text text-anchor="middle" x="2426" y="-244.2002" font-family="Helvetica,sans-Serif" font-size="14.00" fill="#000000">3 : lua_fn</text>
</g>
<!-- section_19&#45;&gt;header_30 -->
<g id="edge30" class="edge">
<title>section_19&#45;&gt;header_30</title>
<path fill="none" stroke="#000000" stroke-dasharray="5,2" d="M2472.2917,-743.0464C2465.1108,-666.3161 2437.3433,-369.6085 2428.6307,-276.5103"/>
<polygon fill="#000000" stroke="#000000" points="2432.1045,-276.0662 2427.6879,-266.4359 2425.135,-276.7185 2432.1045,-276.0662"/>
</g>
<!-- prose_31 -->
<g id="node32" class="node">
<title>prose_31</title>
<ellipse fill="none" stroke="#000000" cx="2523" cy="-248.4002" rx="32.4585" ry="18"/>
<text text-anchor="middle" x="2523" y="-244.2002" font-family="Helvetica,sans-Serif" font-size="14.00" fill="#000000">prose</text>
</g>
<!-- section_19&#45;&gt;prose_31 -->
<g id="edge31" class="edge">
<title>section_19&#45;&gt;prose_31</title>
<path fill="none" stroke="#000000" stroke-dasharray="5,2" d="M2475.7439,-743.0464C2483.0744,-666.3161 2511.4204,-369.6085 2520.3145,-276.5103"/>
<polygon fill="#000000" stroke="#000000" points="2523.81,-276.7234 2521.277,-266.4359 2516.8417,-276.0576 2523.81,-276.7234"/>
</g>
<!-- codeblock_32 -->
<g id="node33" class="node">
<title>codeblock_32</title>
<ellipse fill="none" stroke="#000000" cx="2657" cy="-248.4002" rx="77.4211" ry="18"/>
<text text-anchor="middle" x="2657" y="-244.2002" font-family="Helvetica,sans-Serif" font-size="14.00" fill="#000000">code block 92&#45;97</text>
</g>
<!-- section_19&#45;&gt;codeblock_32 -->
<g id="edge32" class="edge">
<title>section_19&#45;&gt;codeblock_32</title>
<path fill="none" stroke="#000000" stroke-dasharray="5,2" d="M2480.4058,-743.3471C2507.6617,-666.9558 2614.0965,-368.6473 2647.1514,-276.0033"/>
<polygon fill="#000000" stroke="#000000" points="2650.4873,-277.0686 2650.5514,-266.474 2643.8944,-274.7163 2650.4873,-277.0686"/>
</g>
<!-- leaf_22 -->
<g id="node23" class="node">
<title>leaf_22</title>
<polygon fill="none" stroke="#c0c0c0" points="1806.5,-170.1013 1699.5,-170.1013 1699.5,-98.2989 1806.5,-98.2989 1806.5,-170.1013"/>
<text text-anchor="middle" x="1753" y="-122.7001" font-family="Inconsolata" font-size="14.00" fill="#000000">Let&#39;s try it.</text>
</g>
<!-- raw_21&#45;&gt;leaf_22 -->
<g id="edge22" class="edge">
<title>raw_21&#45;&gt;leaf_22</title>
<path fill="none" stroke="#000000" stroke-dasharray="5,2" d="M1770.6725,-230.3048C1768.1975,-216.8457 1764.7041,-197.8483 1761.476,-180.2935"/>
<polygon fill="#000000" stroke="#000000" points="1764.8666,-179.379 1759.6157,-170.177 1757.9821,-180.6451 1764.8666,-179.379"/>
</g>
<!-- leaf_26 -->
<g id="node27" class="node">
<title>leaf_26</title>
<polygon fill="none" stroke="#c0c0c0" points="1917.5,-152.2001 1824.5,-152.2001 1824.5,-116.2001 1917.5,-116.2001 1917.5,-152.2001"/>
<text text-anchor="middle" x="1871" y="-130.7001" font-family="Inconsolata" font-size="14.00" fill="#000000">*** Imports</text>
</g>
<!-- header_23&#45;&gt;leaf_26 -->
<g id="edge26" class="edge">
<title>header_23&#45;&gt;leaf_26</title>
<path fill="none" stroke="#000000" stroke-dasharray="5,2" d="M1871,-230.3048C1871,-212.0118 1871,-183.4878 1871,-162.2605"/>
<polygon fill="#000000" stroke="#000000" points="1874.5001,-162.2107 1871,-152.2108 1867.5001,-162.2108 1874.5001,-162.2107"/>
</g>
<!-- raw_27 -->
<g id="node28" class="node">
<title>raw_27</title>
<ellipse fill="none" stroke="#000000" cx="1963" cy="-134.2001" rx="27" ry="18"/>
<text text-anchor="middle" x="1963" y="-130.0001" font-family="Helvetica,sans-Serif" font-size="14.00" fill="#000000">raw</text>
</g>
<!-- prose_24&#45;&gt;raw_27 -->
<g id="edge27" class="edge">
<title>prose_24&#45;&gt;raw_27</title>
<path fill="none" stroke="#000000" stroke-dasharray="5,2" d="M1971.4155,-230.3048C1969.8136,-212.0118 1967.3159,-183.4878 1965.4571,-162.2605"/>
<polygon fill="#000000" stroke="#000000" points="1968.9362,-161.8673 1964.5771,-152.2108 1961.9629,-162.478 1968.9362,-161.8673"/>
</g>
<!-- leaf_29 -->
<g id="node30" class="node">
<title>leaf_29</title>
<polygon fill="none" stroke="#c0c0c0" points="2367.5,-176.8011 2008.5,-176.8011 2008.5,-91.599 2367.5,-91.599 2367.5,-176.8011"/>
<text text-anchor="middle" x="2188" y="-161.8002" font-family="Inconsolata" font-size="14.00" fill="#000000">local Node &#160;&#160;&#160;= &#160;require &quot;espalier/node&quot;</text>
<text text-anchor="middle" x="2188" y="-146.4001" font-family="Inconsolata" font-size="14.00" fill="#000000">local Grammar = &#160;require &quot;espalier/grammar&quot;</text>
<text text-anchor="middle" x="2188" y="-131.0001" font-family="Inconsolata" font-size="14.00" fill="#000000">local L &#160;&#160;&#160;&#160;&#160;&#160;= &#160;require &quot;espalier/elpatt&quot;</text>
<text text-anchor="middle" x="2188" y="-99.6001" font-family="Inconsolata" font-size="14.00" fill="#000000">local P, R, E, V, S &#160;&#160;&#160;= &#160;L.P, L.R, L.E, L.V, L.S</text>
</g>
<!-- codeblock_25&#45;&gt;leaf_29 -->
<g id="edge29" class="edge">
<title>codeblock_25&#45;&gt;leaf_29</title>
<path fill="none" stroke="#000000" stroke-dasharray="5,2" d="M2151.8135,-230.3048C2156.2848,-218.4298 2162.3795,-202.2435 2168.2921,-186.5406"/>
<polygon fill="#000000" stroke="#000000" points="2171.6856,-187.4606 2171.9339,-176.8686 2165.1346,-184.9938 2171.6856,-187.4606"/>
</g>
<!-- leaf_28 -->
<g id="node29" class="node">
<title>leaf_28</title>
<polygon fill="none" stroke="#c0c0c0" points="1990,-45.7 1936,-45.7 1936,-9.7 1990,-9.7 1990,-45.7"/>
</g>
<!-- raw_27&#45;&gt;leaf_28 -->
<g id="edge28" class="edge">
<title>raw_27&#45;&gt;leaf_28</title>
<path fill="none" stroke="#000000" stroke-dasharray="5,2" d="M1963,-116.1338C1963,-99.6863 1963,-75.1329 1963,-56.0685"/>
<polygon fill="#000000" stroke="#000000" points="1966.5001,-55.8549 1963,-45.8549 1959.5001,-55.855 1966.5001,-55.8549"/>
</g>
<!-- leaf_33 -->
<g id="node34" class="node">
<title>leaf_33</title>
<polygon fill="none" stroke="#c0c0c0" points="2472,-152.2001 2386,-152.2001 2386,-116.2001 2472,-116.2001 2472,-152.2001"/>
<text text-anchor="middle" x="2429" y="-130.7001" font-family="Inconsolata" font-size="14.00" fill="#000000">*** lua_fn</text>
</g>
<!-- header_30&#45;&gt;leaf_33 -->
<g id="edge33" class="edge">
<title>header_30&#45;&gt;leaf_33</title>
<path fill="none" stroke="#000000" stroke-dasharray="5,2" d="M2426.4754,-230.3048C2426.9559,-212.0118 2427.7052,-183.4878 2428.2629,-162.2605"/>
<polygon fill="#000000" stroke="#000000" points="2431.763,-162.2993 2428.5269,-152.2108 2424.7654,-162.1154 2431.763,-162.2993"/>
</g>
<!-- raw_34 -->
<g id="node35" class="node">
<title>raw_34</title>
<ellipse fill="none" stroke="#000000" cx="2521" cy="-134.2001" rx="27" ry="18"/>
<text text-anchor="middle" x="2521" y="-130.0001" font-family="Helvetica,sans-Serif" font-size="14.00" fill="#000000">raw</text>
</g>
<!-- prose_31&#45;&gt;raw_34 -->
<g id="edge34" class="edge">
<title>prose_31&#45;&gt;raw_34</title>
<path fill="none" stroke="#000000" stroke-dasharray="5,2" d="M2522.6831,-230.3048C2522.3627,-212.0118 2521.8632,-183.4878 2521.4914,-162.2605"/>
<polygon fill="#000000" stroke="#000000" points="2524.9901,-162.1479 2521.3154,-152.2108 2517.9912,-162.2706 2524.9901,-162.1479"/>
</g>
<!-- leaf_36 -->
<g id="node37" class="node">
<title>leaf_36</title>
<polygon fill="none" stroke="#c0c0c0" points="2764,-168.8014 2566,-168.8014 2566,-99.5988 2764,-99.5988 2764,-168.8014"/>
<text text-anchor="middle" x="2665" y="-153.8002" font-family="Inconsolata" font-size="14.00" fill="#000000">local function lua_fn(ENV)</text>
<text text-anchor="middle" x="2665" y="-138.4001" font-family="Inconsolata" font-size="14.00" fill="#000000"> &#160;&#160;START &quot;lua&quot;</text>
<text text-anchor="middle" x="2665" y="-123.0001" font-family="Inconsolata" font-size="14.00" fill="#000000"> &#160;&#160;lua = V&quot;chunk&quot;^1</text>
<text text-anchor="middle" x="2665" y="-107.6001" font-family="Inconsolata" font-size="14.00" fill="#000000">end</text>
</g>
<!-- codeblock_32&#45;&gt;leaf_36 -->
<g id="edge36" class="edge">
<title>codeblock_32&#45;&gt;leaf_36</title>
<path fill="none" stroke="#000000" stroke-dasharray="5,2" d="M2658.2676,-230.3048C2659.2252,-216.6354 2660.583,-197.2532 2661.8286,-179.4717"/>
<polygon fill="#000000" stroke="#000000" points="2665.3377,-179.4626 2662.5452,-169.2424 2658.3549,-178.9734 2665.3377,-179.4626"/>
</g>
<!-- leaf_35 -->
<g id="node36" class="node">
<title>leaf_35</title>
<polygon fill="none" stroke="#c0c0c0" points="2746,-55.6015 2296,-55.6015 2296,.2015 2746,.2015 2746,-55.6015"/>
<text text-anchor="middle" x="2521" y="-8.2" font-family="Inconsolata" font-size="14.00" fill="#000000">This is provided to the Grammar engine to create a Lua parser.</text>
</g>
<!-- raw_34&#45;&gt;leaf_35 -->
<g id="edge35" class="edge">
<title>raw_34&#45;&gt;leaf_35</title>
<path fill="none" stroke="#000000" stroke-dasharray="5,2" d="M2521,-116.1338C2521,-102.373 2521,-82.9384 2521,-65.7914"/>
<polygon fill="#000000" stroke="#000000" points="2524.5001,-65.4817 2521,-55.4818 2517.5001,-65.4818 2524.5001,-65.4817"/>
</g>
</g>
</svg>
