<?xml version="1.0" encoding="UTF-8" standalone="no"?>
<!DOCTYPE svg PUBLIC "-//W3C//DTD SVG 1.1//EN"
 "http://www.w3.org/Graphics/SVG/1.1/DTD/svg11.dtd">
<!-- Generated by graphviz version 2.40.1 (20161225.0304)
 -->
<!-- Title: lpegNode Pages: 1 -->
<svg width="3018pt" height="1736pt"
 viewBox="0.00 0.00 3017.50 1736.00" xmlns="http://www.w3.org/2000/svg" xmlns:xlink="http://www.w3.org/1999/xlink">
<g id="graph0" class="graph" transform="scale(1 1) rotate(0) translate(4 1732.0019)">
<title>lpegNode</title>
<polygon fill="#ffffff" stroke="transparent" points="-4,4 -4,-1732.0019 3013.5,-1732.0019 3013.5,4 -4,4"/>
<!-- doc_0 -->
<g id="node1" class="node">
<title>doc_0</title>
<ellipse fill="none" stroke="#000000" cx="906" cy="-1710.0019" rx="46.9581" ry="18"/>
<text text-anchor="middle" x="906" y="-1705.8019" font-family="Helvetica,sans-Serif" font-size="14.00" fill="#000000">doc &#45; 136</text>
</g>
<!-- section_1 -->
<g id="node2" class="node">
<title>section_1</title>
<ellipse fill="none" stroke="#000000" cx="906" cy="-1638.0019" rx="60.9826" ry="18"/>
<text text-anchor="middle" x="906" y="-1633.8019" font-family="Helvetica,sans-Serif" font-size="14.00" fill="#000000">section: 1&#45;71</text>
</g>
<!-- doc_0&#45;&gt;section_1 -->
<g id="edge1" class="edge">
<title>doc_0&#45;&gt;section_1</title>
<path fill="none" stroke="#000000" stroke-dasharray="5,2" d="M906,-1691.8332C906,-1684.1328 906,-1674.9762 906,-1666.4185"/>
<polygon fill="#000000" stroke="#000000" points="909.5001,-1666.4151 906,-1656.4151 902.5001,-1666.4152 909.5001,-1666.4151"/>
</g>
<!-- header_2 -->
<g id="node3" class="node">
<title>header_2</title>
<ellipse fill="none" stroke="#000000" cx="633" cy="-1566.0019" rx="100.1143" ry="18"/>
<text text-anchor="middle" x="633" y="-1561.8019" font-family="Helvetica,sans-Serif" font-size="14.00" fill="#000000">1 : A Grammar For Lua</text>
</g>
<!-- section_1&#45;&gt;header_2 -->
<g id="edge2" class="edge">
<title>section_1&#45;&gt;header_2</title>
<path fill="none" stroke="#000000" stroke-dasharray="5,2" d="M860.6131,-1626.0317C816.549,-1614.4104 749.1718,-1596.6406 699.1453,-1583.4468"/>
<polygon fill="#000000" stroke="#000000" points="699.9453,-1580.0382 689.3834,-1580.8722 698.1602,-1586.8067 699.9453,-1580.0382"/>
</g>
<!-- prose_3 -->
<g id="node4" class="node">
<title>prose_3</title>
<ellipse fill="none" stroke="#000000" cx="783" cy="-1566.0019" rx="32.4585" ry="18"/>
<text text-anchor="middle" x="783" y="-1561.8019" font-family="Helvetica,sans-Serif" font-size="14.00" fill="#000000">prose</text>
</g>
<!-- section_1&#45;&gt;prose_3 -->
<g id="edge3" class="edge">
<title>section_1&#45;&gt;prose_3</title>
<path fill="none" stroke="#000000" stroke-dasharray="5,2" d="M878.3964,-1621.8437C859.3555,-1610.6978 834.0105,-1595.8617 814.2307,-1584.2832"/>
<polygon fill="#000000" stroke="#000000" points="815.9752,-1581.2489 805.5769,-1579.2176 812.4389,-1587.29 815.9752,-1581.2489"/>
</g>
<!-- prose_4 -->
<g id="node5" class="node">
<title>prose_4</title>
<ellipse fill="none" stroke="#000000" cx="865" cy="-1566.0019" rx="32.4585" ry="18"/>
<text text-anchor="middle" x="865" y="-1561.8019" font-family="Helvetica,sans-Serif" font-size="14.00" fill="#000000">prose</text>
</g>
<!-- section_1&#45;&gt;prose_4 -->
<g id="edge4" class="edge">
<title>section_1&#45;&gt;prose_4</title>
<path fill="none" stroke="#000000" stroke-dasharray="5,2" d="M895.8652,-1620.2041C891.0632,-1611.7714 885.2315,-1601.5304 879.9358,-1592.2307"/>
<polygon fill="#000000" stroke="#000000" points="882.8667,-1590.3044 874.8768,-1583.3465 876.7838,-1593.7683 882.8667,-1590.3044"/>
</g>
<!-- prose_5 -->
<g id="node6" class="node">
<title>prose_5</title>
<ellipse fill="none" stroke="#000000" cx="947" cy="-1566.0019" rx="32.4585" ry="18"/>
<text text-anchor="middle" x="947" y="-1561.8019" font-family="Helvetica,sans-Serif" font-size="14.00" fill="#000000">prose</text>
</g>
<!-- section_1&#45;&gt;prose_5 -->
<g id="edge5" class="edge">
<title>section_1&#45;&gt;prose_5</title>
<path fill="none" stroke="#000000" stroke-dasharray="5,2" d="M916.1348,-1620.2041C920.9368,-1611.7714 926.7685,-1601.5304 932.0642,-1592.2307"/>
<polygon fill="#000000" stroke="#000000" points="935.2162,-1593.7683 937.1232,-1583.3465 929.1333,-1590.3044 935.2162,-1593.7683"/>
</g>
<!-- codeblock_6 -->
<g id="node7" class="node">
<title>codeblock_6</title>
<ellipse fill="none" stroke="#000000" cx="1159" cy="-1566.0019" rx="77.4211" ry="18"/>
<text text-anchor="middle" x="1159" y="-1561.8019" font-family="Helvetica,sans-Serif" font-size="14.00" fill="#000000">code block 12&#45;69</text>
</g>
<!-- section_1&#45;&gt;codeblock_6 -->
<g id="edge6" class="edge">
<title>section_1&#45;&gt;codeblock_6</title>
<path fill="none" stroke="#000000" stroke-dasharray="5,2" d="M950.0692,-1625.4604C991.6167,-1613.6367 1054.1765,-1595.8331 1100.0114,-1582.7891"/>
<polygon fill="#000000" stroke="#000000" points="1101.1557,-1586.1025 1109.8158,-1579.999 1099.2397,-1579.3699 1101.1557,-1586.1025"/>
</g>
<!-- section_7 -->
<g id="node8" class="node">
<title>section_7</title>
<ellipse fill="none" stroke="#000000" cx="1794" cy="-1566.0019" rx="65.8187" ry="18"/>
<text text-anchor="middle" x="1794" y="-1561.8019" font-family="Helvetica,sans-Serif" font-size="14.00" fill="#000000">section: 72&#45;87</text>
</g>
<!-- section_1&#45;&gt;section_7 -->
<g id="edge7" class="edge">
<title>section_1&#45;&gt;section_7</title>
<path fill="none" stroke="#000000" stroke-dasharray="5,2" d="M964.6076,-1633.2499C1121.1589,-1620.5566 1548.8671,-1585.8775 1720.901,-1571.9288"/>
<polygon fill="#000000" stroke="#000000" points="1721.189,-1575.417 1730.8734,-1571.1202 1720.6232,-1568.4399 1721.189,-1575.417"/>
</g>
<!-- leaf_8 -->
<g id="node9" class="node">
<title>leaf_8</title>
<polygon fill="none" stroke="#c0c0c0" points="707.5,-1088.5013 558.5,-1088.5013 558.5,-1052.5013 707.5,-1052.5013 707.5,-1088.5013"/>
<text text-anchor="middle" x="633" y="-1067.0013" font-family="Inconsolata" font-size="14.00" fill="#000000">* A Grammar For Lua</text>
</g>
<!-- header_2&#45;&gt;leaf_8 -->
<g id="edge8" class="edge">
<title>header_2&#45;&gt;leaf_8</title>
<path fill="none" stroke="#000000" stroke-dasharray="5,2" d="M633,-1547.7791C633,-1473.0335 633,-1189.6118 633,-1098.7294"/>
<polygon fill="#000000" stroke="#000000" points="636.5001,-1098.6276 633,-1088.6277 629.5001,-1098.6277 636.5001,-1098.6276"/>
</g>
<!-- raw_9 -->
<g id="node10" class="node">
<title>raw_9</title>
<ellipse fill="none" stroke="#000000" cx="768" cy="-1070.5013" rx="27" ry="18"/>
<text text-anchor="middle" x="768" y="-1066.3013" font-family="Helvetica,sans-Serif" font-size="14.00" fill="#000000">raw</text>
</g>
<!-- prose_3&#45;&gt;raw_9 -->
<g id="edge9" class="edge">
<title>prose_3&#45;&gt;raw_9</title>
<path fill="none" stroke="#000000" stroke-dasharray="5,2" d="M782.4484,-1547.7791C780.1856,-1473.0335 771.6058,-1189.6118 768.8545,-1098.7294"/>
<polygon fill="#000000" stroke="#000000" points="772.3498,-1098.5171 768.5487,-1088.6277 765.353,-1098.729 772.3498,-1098.5171"/>
</g>
<!-- raw_11 -->
<g id="node12" class="node">
<title>raw_11</title>
<ellipse fill="none" stroke="#000000" cx="853" cy="-1070.5013" rx="27" ry="18"/>
<text text-anchor="middle" x="853" y="-1066.3013" font-family="Helvetica,sans-Serif" font-size="14.00" fill="#000000">raw</text>
</g>
<!-- prose_4&#45;&gt;raw_11 -->
<g id="edge11" class="edge">
<title>prose_4&#45;&gt;raw_11</title>
<path fill="none" stroke="#000000" stroke-dasharray="5,2" d="M864.5587,-1547.7791C862.7485,-1473.0335 855.8846,-1189.6118 853.6836,-1098.7294"/>
<polygon fill="#000000" stroke="#000000" points="857.1802,-1098.54 853.439,-1088.6277 850.1822,-1098.7095 857.1802,-1098.54"/>
</g>
<!-- raw_13 -->
<g id="node14" class="node">
<title>raw_13</title>
<ellipse fill="none" stroke="#000000" cx="947" cy="-1070.5013" rx="27" ry="18"/>
<text text-anchor="middle" x="947" y="-1066.3013" font-family="Helvetica,sans-Serif" font-size="14.00" fill="#000000">raw</text>
</g>
<!-- prose_5&#45;&gt;raw_13 -->
<g id="edge13" class="edge">
<title>prose_5&#45;&gt;raw_13</title>
<path fill="none" stroke="#000000" stroke-dasharray="5,2" d="M947,-1547.7791C947,-1473.0335 947,-1189.6118 947,-1098.7294"/>
<polygon fill="#000000" stroke="#000000" points="950.5001,-1098.6276 947,-1088.6277 943.5001,-1098.6277 950.5001,-1098.6276"/>
</g>
<!-- leaf_15 -->
<g id="node16" class="node">
<title>leaf_15</title>
<polygon fill="none" stroke="#c0c0c0" points="1491.5,-1512.0024 992.5,-1512.0024 992.5,-629.0002 1491.5,-629.0002 1491.5,-1512.0024"/>
<text text-anchor="middle" x="1242" y="-1496.8019" font-family="Inconsolata" font-size="14.00" fill="#000000">chunk ::= {stat [`;´]} [laststat [`;´]]</text>
<text text-anchor="middle" x="1242" y="-1465.4018" font-family="Inconsolata" font-size="14.00" fill="#000000"> &#160;&#160;block ::= chunk</text>
<text text-anchor="middle" x="1242" y="-1434.0018" font-family="Inconsolata" font-size="14.00" fill="#000000"> &#160;&#160;stat ::= &#160;varlist `=´ explist |</text>
<text text-anchor="middle" x="1242" y="-1418.6018" font-family="Inconsolata" font-size="14.00" fill="#000000"> &#160;&#160;&#160;&#160;&#160;&#160;functioncall |</text>
<text text-anchor="middle" x="1242" y="-1403.2017" font-family="Inconsolata" font-size="14.00" fill="#000000"> &#160;&#160;&#160;&#160;&#160;&#160;do block end |</text>
<text text-anchor="middle" x="1242" y="-1387.8017" font-family="Inconsolata" font-size="14.00" fill="#000000"> &#160;&#160;&#160;&#160;&#160;&#160;while exp do block end |</text>
<text text-anchor="middle" x="1242" y="-1372.4017" font-family="Inconsolata" font-size="14.00" fill="#000000"> &#160;&#160;&#160;&#160;&#160;&#160;repeat block until exp |</text>
<text text-anchor="middle" x="1242" y="-1357.0017" font-family="Inconsolata" font-size="14.00" fill="#000000"> &#160;&#160;&#160;&#160;&#160;&#160;if exp then block {elseif exp then block} [else block] end |</text>
<text text-anchor="middle" x="1242" y="-1341.6016" font-family="Inconsolata" font-size="14.00" fill="#000000"> &#160;&#160;&#160;&#160;&#160;&#160;for Name `=´ exp `,´ exp [`,´ exp] do block end |</text>
<text text-anchor="middle" x="1242" y="-1326.2016" font-family="Inconsolata" font-size="14.00" fill="#000000"> &#160;&#160;&#160;&#160;&#160;&#160;for namelist in explist do block end |</text>
<text text-anchor="middle" x="1242" y="-1310.8016" font-family="Inconsolata" font-size="14.00" fill="#000000"> &#160;&#160;&#160;&#160;&#160;&#160;function funcname funcbody |</text>
<text text-anchor="middle" x="1242" y="-1295.4015" font-family="Inconsolata" font-size="14.00" fill="#000000"> &#160;&#160;&#160;&#160;&#160;&#160;local function Name funcbody |</text>
<text text-anchor="middle" x="1242" y="-1280.0015" font-family="Inconsolata" font-size="14.00" fill="#000000"> &#160;&#160;&#160;&#160;&#160;&#160;local namelist [`=´ explist]</text>
<text text-anchor="middle" x="1242" y="-1248.6015" font-family="Inconsolata" font-size="14.00" fill="#000000"> &#160;&#160;laststat ::= return [explist] | break</text>
<text text-anchor="middle" x="1242" y="-1217.2014" font-family="Inconsolata" font-size="14.00" fill="#000000"> &#160;&#160;funcname ::= Name {`.´ Name} [`:´ Name]</text>
<text text-anchor="middle" x="1242" y="-1185.8014" font-family="Inconsolata" font-size="14.00" fill="#000000"> &#160;&#160;varlist ::= var {`,´ var}</text>
<text text-anchor="middle" x="1242" y="-1154.4014" font-family="Inconsolata" font-size="14.00" fill="#000000"> &#160;&#160;var ::= &#160;Name | prefixexp `[´ exp `]´ | prefixexp `.´ Name</text>
<text text-anchor="middle" x="1242" y="-1123.0013" font-family="Inconsolata" font-size="14.00" fill="#000000"> &#160;&#160;namelist ::= Name {`,´ Name}</text>
<text text-anchor="middle" x="1242" y="-1091.6013" font-family="Inconsolata" font-size="14.00" fill="#000000"> &#160;&#160;explist ::= {exp `,´} exp</text>
<text text-anchor="middle" x="1242" y="-1060.2013" font-family="Inconsolata" font-size="14.00" fill="#000000"> &#160;&#160;exp ::= &#160;nil | false | true | Number | String | `...´ | function |</text>
<text text-anchor="middle" x="1242" y="-1044.8012" font-family="Inconsolata" font-size="14.00" fill="#000000"> &#160;&#160;&#160;&#160;&#160;&#160;prefixexp | tableconstructor | exp binop exp | unop exp</text>
<text text-anchor="middle" x="1242" y="-1013.4012" font-family="Inconsolata" font-size="14.00" fill="#000000"> &#160;&#160;prefixexp ::= var | functioncall | `(´ exp `)´</text>
<text text-anchor="middle" x="1242" y="-982.0012" font-family="Inconsolata" font-size="14.00" fill="#000000"> &#160;&#160;functioncall ::= &#160;prefixexp args | prefixexp `:´ Name args</text>
<text text-anchor="middle" x="1242" y="-950.6012" font-family="Inconsolata" font-size="14.00" fill="#000000"> &#160;&#160;args ::= &#160;`(´ [explist] `)´ | tableconstructor | String</text>
<text text-anchor="middle" x="1242" y="-919.2011" font-family="Inconsolata" font-size="14.00" fill="#000000"> &#160;&#160;function ::= function funcbody</text>
<text text-anchor="middle" x="1242" y="-887.8011" font-family="Inconsolata" font-size="14.00" fill="#000000"> &#160;&#160;funcbody ::= `(´ [parlist] `)´ block end</text>
<text text-anchor="middle" x="1242" y="-856.4011" font-family="Inconsolata" font-size="14.00" fill="#000000"> &#160;&#160;parlist ::= namelist [`,´ `...´] | `...´</text>
<text text-anchor="middle" x="1242" y="-825.001" font-family="Inconsolata" font-size="14.00" fill="#000000"> &#160;&#160;tableconstructor ::= `{´ [fieldlist] `}´</text>
<text text-anchor="middle" x="1242" y="-793.601" font-family="Inconsolata" font-size="14.00" fill="#000000"> &#160;&#160;fieldlist ::= field {fieldsep field} [fieldsep]</text>
<text text-anchor="middle" x="1242" y="-762.201" font-family="Inconsolata" font-size="14.00" fill="#000000"> &#160;&#160;field ::= `[´ exp `]´ `=´ exp | Name `=´ exp | exp</text>
<text text-anchor="middle" x="1242" y="-730.8009" font-family="Inconsolata" font-size="14.00" fill="#000000"> &#160;&#160;fieldsep ::= `,´ | `;´</text>
<text text-anchor="middle" x="1242" y="-699.4009" font-family="Inconsolata" font-size="14.00" fill="#000000"> &#160;&#160;binop ::= `+´ | `&#45;´ | `*´ | `/´ | `^´ | `%´ | `..´ |</text>
<text text-anchor="middle" x="1242" y="-684.0009" font-family="Inconsolata" font-size="14.00" fill="#000000"> &#160;&#160;&#160;&#160;&#160;&#160;`&lt;´ | `&lt;=´ | `&gt;´ | `&gt;=´ | `==´ | `~=´ |</text>
<text text-anchor="middle" x="1242" y="-668.6008" font-family="Inconsolata" font-size="14.00" fill="#000000"> &#160;&#160;&#160;&#160;&#160;&#160;and | or</text>
<text text-anchor="middle" x="1242" y="-637.2008" font-family="Inconsolata" font-size="14.00" fill="#000000"> &#160;&#160;unop ::= `&#45;´ | not | `#´</text>
</g>
<!-- codeblock_6&#45;&gt;leaf_15 -->
<g id="edge15" class="edge">
<title>codeblock_6&#45;&gt;leaf_15</title>
<path fill="none" stroke="#000000" stroke-dasharray="5,2" d="M1162.0524,-1547.7791C1163.205,-1540.8988 1164.6536,-1532.2503 1166.3461,-1522.1467"/>
<polygon fill="#000000" stroke="#000000" points="1169.8415,-1522.4648 1168.0417,-1512.024 1162.9376,-1521.3083 1169.8415,-1522.4648"/>
</g>
<!-- header_16 -->
<g id="node17" class="node">
<title>header_16</title>
<ellipse fill="none" stroke="#000000" cx="1661" cy="-1070.5013" rx="82.7165" ry="18"/>
<text text-anchor="middle" x="1661" y="-1066.3013" font-family="Helvetica,sans-Serif" font-size="14.00" fill="#000000">2 : Implementation</text>
</g>
<!-- section_7&#45;&gt;header_16 -->
<g id="edge16" class="edge">
<title>section_7&#45;&gt;header_16</title>
<path fill="none" stroke="#000000" stroke-dasharray="5,2" d="M1777.3653,-1548.3313C1768.8589,-1538.3694 1759.0504,-1525.2849 1753,-1512.0019 1686.4734,-1365.9508 1667.4995,-1170.7336 1662.5789,-1098.719"/>
<polygon fill="#000000" stroke="#000000" points="1666.0644,-1098.3797 1661.9277,-1088.6258 1659.0789,-1098.8305 1666.0644,-1098.3797"/>
</g>
<!-- prose_17 -->
<g id="node18" class="node">
<title>prose_17</title>
<ellipse fill="none" stroke="#000000" cx="1794" cy="-1070.5013" rx="32.4585" ry="18"/>
<text text-anchor="middle" x="1794" y="-1066.3013" font-family="Helvetica,sans-Serif" font-size="14.00" fill="#000000">prose</text>
</g>
<!-- section_7&#45;&gt;prose_17 -->
<g id="edge17" class="edge">
<title>section_7&#45;&gt;prose_17</title>
<path fill="none" stroke="#000000" stroke-dasharray="5,2" d="M1794,-1547.7791C1794,-1473.0335 1794,-1189.6118 1794,-1098.7294"/>
<polygon fill="#000000" stroke="#000000" points="1797.5001,-1098.6276 1794,-1088.6277 1790.5001,-1098.6277 1797.5001,-1098.6276"/>
</g>
<!-- section_18 -->
<g id="node19" class="node">
<title>section_18</title>
<ellipse fill="none" stroke="#000000" cx="1942" cy="-1070.5013" rx="65.8187" ry="18"/>
<text text-anchor="middle" x="1942" y="-1066.3013" font-family="Helvetica,sans-Serif" font-size="14.00" fill="#000000">section: 77&#45;87</text>
</g>
<!-- section_7&#45;&gt;section_18 -->
<g id="edge18" class="edge">
<title>section_7&#45;&gt;section_18</title>
<path fill="none" stroke="#000000" stroke-dasharray="5,2" d="M1810.4641,-1548.2519C1818.9205,-1538.2667 1828.7356,-1525.1853 1835,-1512.0019 1904.3824,-1365.9854 1931.2555,-1170.7474 1939.2114,-1098.7232"/>
<polygon fill="#000000" stroke="#000000" points="1942.7076,-1098.9439 1940.2903,-1088.6286 1935.7473,-1098.2 1942.7076,-1098.9439"/>
</g>
<!-- section_19 -->
<g id="node20" class="node">
<title>section_19</title>
<ellipse fill="none" stroke="#000000" cx="2474" cy="-1070.5013" rx="70.655" ry="18"/>
<text text-anchor="middle" x="2474" y="-1066.3013" font-family="Helvetica,sans-Serif" font-size="14.00" fill="#000000">section: 88&#45;136</text>
</g>
<!-- section_7&#45;&gt;section_19 -->
<g id="edge19" class="edge">
<title>section_7&#45;&gt;section_19</title>
<path fill="none" stroke="#000000" stroke-dasharray="5,2" d="M1855.8423,-1559.912C1902.4637,-1553.2768 1966.7397,-1539.6464 2017,-1512.0019 2220.3668,-1400.1446 2398.1318,-1173.945 2455.0173,-1096.897"/>
<polygon fill="#000000" stroke="#000000" points="2457.9601,-1098.8027 2461.0503,-1088.6685 2452.3148,-1094.6637 2457.9601,-1098.8027"/>
</g>
<!-- leaf_10 -->
<g id="node11" class="node">
<title>leaf_10</title>
<polygon fill="none" stroke="#c0c0c0" points="520,-592.9011 0,-592.9011 0,-522.3004 520,-522.3004 520,-592.9011"/>
<text text-anchor="middle" x="260" y="-545.8008" font-family="Inconsolata" font-size="14.00" fill="#000000">While the most important grammar for pegylator is pegylator itself, it&#39;s</text>
<text text-anchor="middle" x="260" y="-530.4007" font-family="Inconsolata" font-size="14.00" fill="#000000">time to make a Lua language parser.</text>
</g>
<!-- raw_9&#45;&gt;leaf_10 -->
<g id="edge10" class="edge">
<title>raw_9&#45;&gt;leaf_10</title>
<path fill="none" stroke="#000000" stroke-dasharray="5,2" d="M772.5081,-1052.6769C788.1448,-986.2226 832.9523,-750.4934 716,-629.0008 708.4103,-621.1164 624.2385,-606.9565 530.2361,-593.3138"/>
<polygon fill="#000000" stroke="#000000" points="530.6197,-589.833 520.2221,-591.8676 529.6191,-596.7611 530.6197,-589.833"/>
</g>
<!-- leaf_12 -->
<g id="node13" class="node">
<title>leaf_12</title>
<polygon fill="none" stroke="#c0c0c0" points="1030,-584.9012 538,-584.9012 538,-530.3003 1030,-530.3003 1030,-584.9012"/>
<text text-anchor="middle" x="784" y="-553.8008" font-family="Inconsolata" font-size="14.00" fill="#000000">The hard work is done on this, it&#39;s a matter of translation into the</text>
<text text-anchor="middle" x="784" y="-538.4007" font-family="Inconsolata" font-size="14.00" fill="#000000">Pegylator paradigm.</text>
</g>
<!-- raw_11&#45;&gt;leaf_12 -->
<g id="edge12" class="edge">
<title>raw_11&#45;&gt;leaf_12</title>
<path fill="none" stroke="#000000" stroke-dasharray="5,2" d="M852.0408,-1052.2583C848.626,-991.6103 835.5375,-791.3891 804,-629.0008 801.8204,-617.7777 798.7459,-605.7483 795.6599,-594.8228"/>
<polygon fill="#000000" stroke="#000000" points="799.0014,-593.7789 792.8479,-585.1543 792.2799,-595.7339 799.0014,-593.7789"/>
</g>
<!-- leaf_14 -->
<g id="node15" class="node">
<title>leaf_14</title>
<polygon fill="none" stroke="#c0c0c0" points="1575.5,-584.9012 1048.5,-584.9012 1048.5,-530.3003 1575.5,-530.3003 1575.5,-584.9012"/>
<text text-anchor="middle" x="1312" y="-553.8008" font-family="Inconsolata" font-size="14.00" fill="#000000">While this a hell of a lot of work, the complete BNF of Lua is available,</text>
<text text-anchor="middle" x="1312" y="-538.4007" font-family="Inconsolata" font-size="14.00" fill="#000000">and reproduced here.</text>
</g>
<!-- raw_13&#45;&gt;leaf_14 -->
<g id="edge14" class="edge">
<title>raw_13&#45;&gt;leaf_14</title>
<path fill="none" stroke="#000000" stroke-dasharray="5,2" d="M941.8434,-1052.5427C924.105,-986.6024 872.5518,-755.1269 983,-629.0008 998.5926,-611.1948 1037.2478,-597.509 1082.8125,-587.1186"/>
<polygon fill="#000000" stroke="#000000" points="1083.6238,-590.5239 1092.6346,-584.9511 1082.1153,-583.6883 1083.6238,-590.5239"/>
</g>
<!-- leaf_20 -->
<g id="node21" class="node">
<title>leaf_20</title>
<polygon fill="none" stroke="#c0c0c0" points="1728.5,-575.6007 1593.5,-575.6007 1593.5,-539.6007 1728.5,-539.6007 1728.5,-575.6007"/>
<text text-anchor="middle" x="1661" y="-554.1008" font-family="Inconsolata" font-size="14.00" fill="#000000">** Implementation</text>
</g>
<!-- header_16&#45;&gt;leaf_20 -->
<g id="edge20" class="edge">
<title>header_16&#45;&gt;leaf_20</title>
<path fill="none" stroke="#000000" stroke-dasharray="5,2" d="M1661,-1052.2469C1661,-975.5166 1661,-678.809 1661,-585.7109"/>
<polygon fill="#000000" stroke="#000000" points="1664.5001,-585.6364 1661,-575.6364 1657.5001,-585.6365 1664.5001,-585.6364"/>
</g>
<!-- raw_21 -->
<g id="node22" class="node">
<title>raw_21</title>
<ellipse fill="none" stroke="#000000" cx="1774" cy="-557.6007" rx="27" ry="18"/>
<text text-anchor="middle" x="1774" y="-553.4007" font-family="Helvetica,sans-Serif" font-size="14.00" fill="#000000">raw</text>
</g>
<!-- prose_17&#45;&gt;raw_21 -->
<g id="edge21" class="edge">
<title>prose_17&#45;&gt;raw_21</title>
<path fill="none" stroke="#000000" stroke-dasharray="5,2" d="M1793.2882,-1052.2469C1790.2962,-975.5166 1778.7264,-678.809 1775.0961,-585.7109"/>
<polygon fill="#000000" stroke="#000000" points="1778.5904,-585.4924 1774.7033,-575.6364 1771.5957,-585.7652 1778.5904,-585.4924"/>
</g>
<!-- header_23 -->
<g id="node24" class="node">
<title>header_23</title>
<ellipse fill="none" stroke="#000000" cx="1871" cy="-557.6007" rx="51.7605" ry="18"/>
<text text-anchor="middle" x="1871" y="-553.4007" font-family="Helvetica,sans-Serif" font-size="14.00" fill="#000000">3 : Imports</text>
</g>
<!-- section_18&#45;&gt;header_23 -->
<g id="edge23" class="edge">
<title>section_18&#45;&gt;header_23</title>
<path fill="none" stroke="#000000" stroke-dasharray="5,2" d="M1939.4731,-1052.2469C1928.8514,-975.5166 1887.7787,-678.809 1874.8912,-585.7109"/>
<polygon fill="#000000" stroke="#000000" points="1878.3349,-585.062 1873.4966,-575.6364 1871.401,-586.0219 1878.3349,-585.062"/>
</g>
<!-- prose_24 -->
<g id="node25" class="node">
<title>prose_24</title>
<ellipse fill="none" stroke="#000000" cx="1973" cy="-557.6007" rx="32.4585" ry="18"/>
<text text-anchor="middle" x="1973" y="-553.4007" font-family="Helvetica,sans-Serif" font-size="14.00" fill="#000000">prose</text>
</g>
<!-- section_18&#45;&gt;prose_24 -->
<g id="edge24" class="edge">
<title>section_18&#45;&gt;prose_24</title>
<path fill="none" stroke="#000000" stroke-dasharray="5,2" d="M1943.1033,-1052.2469C1947.7409,-975.5166 1965.6741,-678.809 1971.301,-585.7109"/>
<polygon fill="#000000" stroke="#000000" points="1974.8001,-585.8294 1971.9099,-575.6364 1967.8129,-585.407 1974.8001,-585.8294"/>
</g>
<!-- codeblock_25 -->
<g id="node26" class="node">
<title>codeblock_25</title>
<ellipse fill="none" stroke="#000000" cx="2145" cy="-557.6007" rx="77.4211" ry="18"/>
<text text-anchor="middle" x="2145" y="-553.4007" font-family="Helvetica,sans-Serif" font-size="14.00" fill="#000000">code block 79&#45;85</text>
</g>
<!-- section_18&#45;&gt;codeblock_25 -->
<g id="edge25" class="edge">
<title>section_18&#45;&gt;codeblock_25</title>
<path fill="none" stroke="#000000" stroke-dasharray="5,2" d="M1949.1058,-1052.5477C1979.3406,-976.1564 2097.4076,-677.8479 2134.075,-585.2039"/>
<polygon fill="#000000" stroke="#000000" points="2137.4208,-586.2608 2137.8466,-575.6746 2130.912,-583.6847 2137.4208,-586.2608"/>
</g>
<!-- header_30 -->
<g id="node31" class="node">
<title>header_30</title>
<ellipse fill="none" stroke="#000000" cx="2426" cy="-557.6007" rx="46.4822" ry="18"/>
<text text-anchor="middle" x="2426" y="-553.4007" font-family="Helvetica,sans-Serif" font-size="14.00" fill="#000000">3 : lua_fn</text>
</g>
<!-- section_19&#45;&gt;header_30 -->
<g id="edge30" class="edge">
<title>section_19&#45;&gt;header_30</title>
<path fill="none" stroke="#000000" stroke-dasharray="5,2" d="M2472.2917,-1052.2469C2465.1108,-975.5166 2437.3433,-678.809 2428.6307,-585.7109"/>
<polygon fill="#000000" stroke="#000000" points="2432.1045,-585.2668 2427.6879,-575.6364 2425.135,-585.9191 2432.1045,-585.2668"/>
</g>
<!-- prose_31 -->
<g id="node32" class="node">
<title>prose_31</title>
<ellipse fill="none" stroke="#000000" cx="2523" cy="-557.6007" rx="32.4585" ry="18"/>
<text text-anchor="middle" x="2523" y="-553.4007" font-family="Helvetica,sans-Serif" font-size="14.00" fill="#000000">prose</text>
</g>
<!-- section_19&#45;&gt;prose_31 -->
<g id="edge31" class="edge">
<title>section_19&#45;&gt;prose_31</title>
<path fill="none" stroke="#000000" stroke-dasharray="5,2" d="M2475.7439,-1052.2469C2483.0744,-975.5166 2511.4204,-678.809 2520.3145,-585.7109"/>
<polygon fill="#000000" stroke="#000000" points="2523.81,-585.924 2521.277,-575.6364 2516.8417,-585.2582 2523.81,-585.924"/>
</g>
<!-- codeblock_32 -->
<g id="node33" class="node">
<title>codeblock_32</title>
<ellipse fill="none" stroke="#000000" cx="2721" cy="-557.6007" rx="81.9542" ry="18"/>
<text text-anchor="middle" x="2721" y="-553.4007" font-family="Helvetica,sans-Serif" font-size="14.00" fill="#000000">code block 92&#45;118</text>
</g>
<!-- section_19&#45;&gt;codeblock_32 -->
<g id="edge32" class="edge">
<title>section_19&#45;&gt;codeblock_32</title>
<path fill="none" stroke="#000000" stroke-dasharray="5,2" d="M2482.646,-1052.5477C2519.4714,-976.079 2663.3832,-677.2432 2707.8423,-584.9229"/>
<polygon fill="#000000" stroke="#000000" points="2711.1106,-586.2029 2712.2961,-575.6746 2704.8038,-583.1656 2711.1106,-586.2029"/>
</g>
<!-- leaf_22 -->
<g id="node23" class="node">
<title>leaf_22</title>
<polygon fill="none" stroke="#c0c0c0" points="1806.5,-324.7015 1699.5,-324.7015 1699.5,-252.8992 1806.5,-252.8992 1806.5,-324.7015"/>
<text text-anchor="middle" x="1753" y="-277.3004" font-family="Inconsolata" font-size="14.00" fill="#000000">Let&#39;s try it.</text>
</g>
<!-- raw_21&#45;&gt;leaf_22 -->
<g id="edge22" class="edge">
<title>raw_21&#45;&gt;leaf_22</title>
<path fill="none" stroke="#000000" stroke-dasharray="5,2" d="M1772.5895,-539.5466C1769.3469,-498.0413 1761.2797,-394.7811 1756.571,-334.509"/>
<polygon fill="#000000" stroke="#000000" points="1760.0574,-334.1974 1755.7891,-324.5004 1753.0787,-334.7427 1760.0574,-334.1974"/>
</g>
<!-- leaf_26 -->
<g id="node27" class="node">
<title>leaf_26</title>
<polygon fill="none" stroke="#c0c0c0" points="1917.5,-306.8004 1824.5,-306.8004 1824.5,-270.8004 1917.5,-270.8004 1917.5,-306.8004"/>
<text text-anchor="middle" x="1871" y="-285.3004" font-family="Inconsolata" font-size="14.00" fill="#000000">*** Imports</text>
</g>
<!-- header_23&#45;&gt;leaf_26 -->
<g id="edge26" class="edge">
<title>header_23&#45;&gt;leaf_26</title>
<path fill="none" stroke="#000000" stroke-dasharray="5,2" d="M1871,-539.5466C1871,-493.7494 1871,-372.7654 1871,-317.3064"/>
<polygon fill="#000000" stroke="#000000" points="1874.5001,-317.1299 1871,-307.1299 1867.5001,-317.1299 1874.5001,-317.1299"/>
</g>
<!-- raw_27 -->
<g id="node28" class="node">
<title>raw_27</title>
<ellipse fill="none" stroke="#000000" cx="1963" cy="-288.8004" rx="27" ry="18"/>
<text text-anchor="middle" x="1963" y="-284.6004" font-family="Helvetica,sans-Serif" font-size="14.00" fill="#000000">raw</text>
</g>
<!-- prose_24&#45;&gt;raw_27 -->
<g id="edge27" class="edge">
<title>prose_24&#45;&gt;raw_27</title>
<path fill="none" stroke="#000000" stroke-dasharray="5,2" d="M1972.3283,-539.5466C1970.6246,-493.7494 1966.1237,-372.7654 1964.0605,-317.3064"/>
<polygon fill="#000000" stroke="#000000" points="1967.5513,-316.9928 1963.6819,-307.1299 1960.5562,-317.2531 1967.5513,-316.9928"/>
</g>
<!-- leaf_29 -->
<g id="node30" class="node">
<title>leaf_29</title>
<polygon fill="none" stroke="#c0c0c0" points="2367.5,-331.4014 2008.5,-331.4014 2008.5,-246.1993 2367.5,-246.1993 2367.5,-331.4014"/>
<text text-anchor="middle" x="2188" y="-316.4004" font-family="Inconsolata" font-size="14.00" fill="#000000">local Node &#160;&#160;&#160;= &#160;require &quot;espalier/node&quot;</text>
<text text-anchor="middle" x="2188" y="-301.0004" font-family="Inconsolata" font-size="14.00" fill="#000000">local Grammar = &#160;require &quot;espalier/grammar&quot;</text>
<text text-anchor="middle" x="2188" y="-285.6004" font-family="Inconsolata" font-size="14.00" fill="#000000">local L &#160;&#160;&#160;&#160;&#160;&#160;= &#160;require &quot;espalier/elpatt&quot;</text>
<text text-anchor="middle" x="2188" y="-254.2003" font-family="Inconsolata" font-size="14.00" fill="#000000">local P, R, E, V, S &#160;&#160;&#160;= &#160;L.P, L.R, L.E, L.V, L.S</text>
</g>
<!-- codeblock_25&#45;&gt;leaf_29 -->
<g id="edge29" class="edge">
<title>codeblock_25&#45;&gt;leaf_29</title>
<path fill="none" stroke="#000000" stroke-dasharray="5,2" d="M2147.8881,-539.5466C2154.2696,-499.6548 2169.7769,-402.7161 2179.5334,-341.7268"/>
<polygon fill="#000000" stroke="#000000" points="2183.0424,-341.9481 2181.166,-331.5208 2176.1303,-340.8424 2183.0424,-341.9481"/>
</g>
<!-- leaf_28 -->
<g id="node29" class="node">
<title>leaf_28</title>
<polygon fill="none" stroke="#c0c0c0" points="1990,-45.7 1936,-45.7 1936,-9.7 1990,-9.7 1990,-45.7"/>
</g>
<!-- raw_27&#45;&gt;leaf_28 -->
<g id="edge28" class="edge">
<title>raw_27&#45;&gt;leaf_28</title>
<path fill="none" stroke="#000000" stroke-dasharray="5,2" d="M1963,-270.4403C1963,-225.5899 1963,-110.1924 1963,-56.2667"/>
<polygon fill="#000000" stroke="#000000" points="1966.5001,-56.0398 1963,-46.0398 1959.5001,-56.0398 1966.5001,-56.0398"/>
</g>
<!-- leaf_33 -->
<g id="node34" class="node">
<title>leaf_33</title>
<polygon fill="none" stroke="#c0c0c0" points="2472,-306.8004 2386,-306.8004 2386,-270.8004 2472,-270.8004 2472,-306.8004"/>
<text text-anchor="middle" x="2429" y="-285.3004" font-family="Inconsolata" font-size="14.00" fill="#000000">*** lua_fn</text>
</g>
<!-- header_30&#45;&gt;leaf_33 -->
<g id="edge33" class="edge">
<title>header_30&#45;&gt;leaf_33</title>
<path fill="none" stroke="#000000" stroke-dasharray="5,2" d="M2426.2015,-539.5466C2426.7126,-493.7494 2428.0629,-372.7654 2428.6819,-317.3064"/>
<polygon fill="#000000" stroke="#000000" points="2432.1835,-317.1684 2428.7954,-307.1299 2425.184,-317.0902 2432.1835,-317.1684"/>
</g>
<!-- raw_34 -->
<g id="node35" class="node">
<title>raw_34</title>
<ellipse fill="none" stroke="#000000" cx="2521" cy="-288.8004" rx="27" ry="18"/>
<text text-anchor="middle" x="2521" y="-284.6004" font-family="Helvetica,sans-Serif" font-size="14.00" fill="#000000">raw</text>
</g>
<!-- prose_31&#45;&gt;raw_34 -->
<g id="edge34" class="edge">
<title>prose_31&#45;&gt;raw_34</title>
<path fill="none" stroke="#000000" stroke-dasharray="5,2" d="M2522.8657,-539.5466C2522.5249,-493.7494 2521.6247,-372.7654 2521.2121,-317.3064"/>
<polygon fill="#000000" stroke="#000000" points="2524.7108,-317.1035 2521.1364,-307.1299 2517.711,-317.1557 2524.7108,-317.1035"/>
</g>
<!-- leaf_36 -->
<g id="node37" class="node">
<title>leaf_36</title>
<polygon fill="none" stroke="#c0c0c0" points="3009.5,-486.1011 2566.5,-486.1011 2566.5,-91.4996 3009.5,-91.4996 3009.5,-486.1011"/>
<text text-anchor="middle" x="2788" y="-455.0007" font-family="Inconsolata" font-size="14.00" fill="#000000">local _do, _end, _then = P&quot;do&quot;, P&quot;end&quot;, P&quot;then&quot;</text>
<text text-anchor="middle" x="2788" y="-423.6007" font-family="Inconsolata" font-size="14.00" fill="#000000">local function lua_fn(ENV)</text>
<text text-anchor="middle" x="2788" y="-408.2007" font-family="Inconsolata" font-size="14.00" fill="#000000"> &#160;&#160;START &quot;lua&quot;</text>
<text text-anchor="middle" x="2788" y="-392.8006" font-family="Inconsolata" font-size="14.00" fill="#000000"> &#160;&#160;lua &#160;&#160;= V&quot;chunk&quot;^1</text>
<text text-anchor="middle" x="2788" y="-377.4006" font-family="Inconsolata" font-size="14.00" fill="#000000"> &#160;&#160;chunk = (V&quot;stat&quot; * P&quot;;&quot;^0) * (V&quot;laststat&quot;^0 * P&quot;;&quot;^0)</text>
<text text-anchor="middle" x="2788" y="-362.0006" font-family="Inconsolata" font-size="14.00" fill="#000000"> &#160;&#160;block = V&quot;chunk&quot;</text>
<text text-anchor="middle" x="2788" y="-330.6005" font-family="Inconsolata" font-size="14.00" fill="#000000"> &#160;&#160;stat &#160;= V&quot;varlist&quot; * P&quot;=&quot; * V&quot;explist&quot; +</text>
<text text-anchor="middle" x="2788" y="-315.2005" font-family="Inconsolata" font-size="14.00" fill="#000000"> &#160;&#160;&#160;&#160;&#160;&#160;&#160;&#160;&#160;&#160;V&quot;functioncall&quot; +</text>
<text text-anchor="middle" x="2788" y="-299.8005" font-family="Inconsolata" font-size="14.00" fill="#000000"> &#160;&#160;&#160;&#160;&#160;&#160;&#160;&#160;&#160;&#160;_do * V&quot;block&quot; * _end +</text>
<text text-anchor="middle" x="2788" y="-284.4004" font-family="Inconsolata" font-size="14.00" fill="#000000"> &#160;&#160;&#160;&#160;&#160;&#160;&#160;&#160;&#160;&#160;P&quot;while&quot; * V&quot;exp&quot; * _do * V&quot;block&quot; * _end +</text>
<text text-anchor="middle" x="2788" y="-269.0004" font-family="Inconsolata" font-size="14.00" fill="#000000"> &#160;&#160;&#160;&#160;&#160;&#160;&#160;&#160;&#160;&#160;P&quot;repeat&quot; * V&quot;block&quot; * P&quot;until&quot; * _end +</text>
<text text-anchor="middle" x="2788" y="-253.6004" font-family="Inconsolata" font-size="14.00" fill="#000000"> &#160;&#160;&#160;&#160;&#160;&#160;&#160;&#160;&#160;&#160;P&quot;if&quot; * V&quot;exp&quot; * _then * V&quot;block&quot; *</text>
<text text-anchor="middle" x="2788" y="-238.2003" font-family="Inconsolata" font-size="14.00" fill="#000000"> &#160;&#160;&#160;&#160;&#160;&#160;&#160;&#160;&#160;&#160;&#160;&#160;&#160;( P&quot;elseif&quot; V&quot;exp&quot; * _then * V&quot;block&quot; )^0 *</text>
<text text-anchor="middle" x="2788" y="-222.8003" font-family="Inconsolata" font-size="14.00" fill="#000000"> &#160;&#160;&#160;&#160;&#160;&#160;&#160;&#160;&#160;&#160;&#160;&#160;&#160;( P&quot;else&quot; * V&quot;block&quot; )^&#45;1 * _end +</text>
<text text-anchor="middle" x="2788" y="-207.4003" font-family="Inconsolata" font-size="14.00" fill="#000000"> &#160;&#160;&#160;&#160;&#160;&#160;&#160;&#160;&#160;&#160;P&quot;for&quot; * V&quot;Name&quot; * P&quot;=&quot; * V&quot;exp&quot; * P&quot;,&quot; * V&quot;exp&quot; *</text>
<text text-anchor="middle" x="2788" y="-192.0002" font-family="Inconsolata" font-size="14.00" fill="#000000"> &#160;&#160;&#160;&#160;&#160;&#160;&#160;&#160;&#160;&#160;&#160;&#160;&#160;( P&quot;,&quot; * V&quot;exp&quot; )^&#45;1 * _do * V&quot;block&quot; * _end +</text>
<text text-anchor="middle" x="2788" y="-176.6002" font-family="Inconsolata" font-size="14.00" fill="#000000"> &#160;&#160;&#160;&#160;&#160;&#160;&#160;&#160;&#160;&#160;P&quot;for&quot; * V&quot;namelist&quot; * P&quot;in&quot; * V&quot;explist&quot; * _do *</text>
<text text-anchor="middle" x="2788" y="-161.2002" font-family="Inconsolata" font-size="14.00" fill="#000000"> &#160;&#160;&#160;&#160;&#160;&#160;&#160;&#160;&#160;&#160;&#160;&#160;&#160;V&quot;block&quot; * _end +</text>
<text text-anchor="middle" x="2788" y="-145.8002" font-family="Inconsolata" font-size="14.00" fill="#000000"> &#160;&#160;&#160;&#160;&#160;&#160;&#160;&#160;&#160;&#160;P&quot;function&quot; * V&quot;funcname&quot; * V&quot;funcbody&quot; +</text>
<text text-anchor="middle" x="2788" y="-130.4001" font-family="Inconsolata" font-size="14.00" fill="#000000"> &#160;&#160;&#160;&#160;&#160;&#160;&#160;&#160;&#160;&#160;P&quot;local&quot; * P&quot;function&quot; * V&quot;Name&quot; * V&quot;funcbody&quot; +</text>
<text text-anchor="middle" x="2788" y="-115.0001" font-family="Inconsolata" font-size="14.00" fill="#000000"> &#160;&#160;&#160;&#160;&#160;&#160;&#160;&#160;&#160;&#160;P&quot;local&quot; * V&quot;namelist&quot; * ( P&quot;=&quot; * V&quot;explist&quot;)^&#45;1</text>
<text text-anchor="middle" x="2788" y="-99.6001" font-family="Inconsolata" font-size="14.00" fill="#000000">end</text>
</g>
<!-- codeblock_32&#45;&gt;leaf_36 -->
<g id="edge36" class="edge">
<title>codeblock_32&#45;&gt;leaf_36</title>
<path fill="none" stroke="#000000" stroke-dasharray="5,2" d="M2725.5001,-539.5466C2728.2109,-528.6712 2731.9785,-513.5558 2736.3332,-496.0848"/>
<polygon fill="#000000" stroke="#000000" points="2739.7874,-496.6979 2738.8099,-486.1483 2732.9952,-495.0049 2739.7874,-496.6979"/>
</g>
<!-- leaf_35 -->
<g id="node36" class="node">
<title>leaf_35</title>
<polygon fill="none" stroke="#c0c0c0" points="2746,-55.6015 2296,-55.6015 2296,.2015 2746,.2015 2746,-55.6015"/>
<text text-anchor="middle" x="2521" y="-8.2" font-family="Inconsolata" font-size="14.00" fill="#000000">This is provided to the Grammar engine to create a Lua parser.</text>
</g>
<!-- raw_34&#45;&gt;leaf_35 -->
<g id="edge35" class="edge">
<title>raw_34&#45;&gt;leaf_35</title>
<path fill="none" stroke="#000000" stroke-dasharray="5,2" d="M2521,-270.4403C2521,-228.041 2521,-122.5944 2521,-65.6369"/>
<polygon fill="#000000" stroke="#000000" points="2524.5001,-65.592 2521,-55.592 2517.5001,-65.5921 2524.5001,-65.592"/>
</g>
</g>
</svg>
