<?xml version="1.0" encoding="UTF-8" standalone="no"?>
<!DOCTYPE svg PUBLIC "-//W3C//DTD SVG 1.1//EN"
 "http://www.w3.org/Graphics/SVG/1.1/DTD/svg11.dtd">
<!-- Generated by graphviz version 2.40.1 (20161225.0304)
 -->
<!-- Title: lpegNode Pages: 1 -->
<svg width="1584pt" height="1214pt"
 viewBox="0.00 0.00 1583.50 1213.80" xmlns="http://www.w3.org/2000/svg" xmlns:xlink="http://www.w3.org/1999/xlink">
<g id="graph0" class="graph" transform="scale(1 1) rotate(0) translate(4 1209.8012)">
<title>lpegNode</title>
<polygon fill="#ffffff" stroke="transparent" points="-4,4 -4,-1209.8012 1579.5,-1209.8012 1579.5,4 -4,4"/>
<!-- doc_0 -->
<g id="node1" class="node">
<title>doc_0</title>
<ellipse fill="none" stroke="#000000" cx="784" cy="-1187.8012" rx="42.1216" ry="18"/>
<text text-anchor="middle" x="784" y="-1183.6012" font-family="Helvetica,sans-Serif" font-size="14.00" fill="#000000">doc &#45; 69</text>
</g>
<!-- section_1 -->
<g id="node2" class="node">
<title>section_1</title>
<ellipse fill="none" stroke="#000000" cx="784" cy="-1115.8012" rx="60.9826" ry="18"/>
<text text-anchor="middle" x="784" y="-1111.6012" font-family="Helvetica,sans-Serif" font-size="14.00" fill="#000000">section: 1&#45;69</text>
</g>
<!-- doc_0&#45;&gt;section_1 -->
<g id="edge1" class="edge">
<title>doc_0&#45;&gt;section_1</title>
<path fill="none" stroke="#000000" stroke-dasharray="5,2" d="M784,-1169.6325C784,-1161.9321 784,-1152.7755 784,-1144.2178"/>
<polygon fill="#000000" stroke="#000000" points="787.5001,-1144.2144 784,-1134.2144 780.5001,-1144.2145 787.5001,-1144.2144"/>
</g>
<!-- header_2 -->
<g id="node3" class="node">
<title>header_2</title>
<ellipse fill="none" stroke="#000000" cx="552" cy="-1043.8012" rx="100.1143" ry="18"/>
<text text-anchor="middle" x="552" y="-1039.6012" font-family="Helvetica,sans-Serif" font-size="14.00" fill="#000000">1 : A Grammer For Lua</text>
</g>
<!-- section_1&#45;&gt;header_2 -->
<g id="edge2" class="edge">
<title>section_1&#45;&gt;header_2</title>
<path fill="none" stroke="#000000" stroke-dasharray="5,2" d="M741.9866,-1102.7625C705.7205,-1091.5075 652.8956,-1075.1136 612.1478,-1062.4677"/>
<polygon fill="#000000" stroke="#000000" points="613.1834,-1059.1245 602.5954,-1059.5032 611.1086,-1065.81 613.1834,-1059.1245"/>
</g>
<!-- prose_3 -->
<g id="node4" class="node">
<title>prose_3</title>
<ellipse fill="none" stroke="#000000" cx="702" cy="-1043.8012" rx="32.4585" ry="18"/>
<text text-anchor="middle" x="702" y="-1039.6012" font-family="Helvetica,sans-Serif" font-size="14.00" fill="#000000">prose</text>
</g>
<!-- section_1&#45;&gt;prose_3 -->
<g id="edge3" class="edge">
<title>section_1&#45;&gt;prose_3</title>
<path fill="none" stroke="#000000" stroke-dasharray="5,2" d="M764.5671,-1098.7382C753.3006,-1088.8455 738.9965,-1076.2859 726.9098,-1065.6732"/>
<polygon fill="#000000" stroke="#000000" points="729.1653,-1062.9959 719.3415,-1059.0279 724.5466,-1068.256 729.1653,-1062.9959"/>
</g>
<!-- prose_4 -->
<g id="node5" class="node">
<title>prose_4</title>
<ellipse fill="none" stroke="#000000" cx="784" cy="-1043.8012" rx="32.4585" ry="18"/>
<text text-anchor="middle" x="784" y="-1039.6012" font-family="Helvetica,sans-Serif" font-size="14.00" fill="#000000">prose</text>
</g>
<!-- section_1&#45;&gt;prose_4 -->
<g id="edge4" class="edge">
<title>section_1&#45;&gt;prose_4</title>
<path fill="none" stroke="#000000" stroke-dasharray="5,2" d="M784,-1097.6325C784,-1089.9321 784,-1080.7755 784,-1072.2178"/>
<polygon fill="#000000" stroke="#000000" points="787.5001,-1072.2144 784,-1062.2144 780.5001,-1072.2145 787.5001,-1072.2144"/>
</g>
<!-- prose_5 -->
<g id="node6" class="node">
<title>prose_5</title>
<ellipse fill="none" stroke="#000000" cx="866" cy="-1043.8012" rx="32.4585" ry="18"/>
<text text-anchor="middle" x="866" y="-1039.6012" font-family="Helvetica,sans-Serif" font-size="14.00" fill="#000000">prose</text>
</g>
<!-- section_1&#45;&gt;prose_5 -->
<g id="edge5" class="edge">
<title>section_1&#45;&gt;prose_5</title>
<path fill="none" stroke="#000000" stroke-dasharray="5,2" d="M803.4329,-1098.7382C814.6994,-1088.8455 829.0035,-1076.2859 841.0902,-1065.6732"/>
<polygon fill="#000000" stroke="#000000" points="843.4534,-1068.256 848.6585,-1059.0279 838.8347,-1062.9959 843.4534,-1068.256"/>
</g>
<!-- codeblock_6 -->
<g id="node7" class="node">
<title>codeblock_6</title>
<ellipse fill="none" stroke="#000000" cx="1077" cy="-1043.8012" rx="77.4211" ry="18"/>
<text text-anchor="middle" x="1077" y="-1039.6012" font-family="Helvetica,sans-Serif" font-size="14.00" fill="#000000">code block 12&#45;69</text>
</g>
<!-- section_1&#45;&gt;codeblock_6 -->
<g id="edge6" class="edge">
<title>section_1&#45;&gt;codeblock_6</title>
<path fill="none" stroke="#000000" stroke-dasharray="5,2" d="M831.0755,-1104.2331C880.569,-1092.0709 958.7285,-1072.8645 1013.6201,-1059.3757"/>
<polygon fill="#000000" stroke="#000000" points="1014.7108,-1062.7119 1023.5867,-1056.9266 1013.0403,-1055.9141 1014.7108,-1062.7119"/>
</g>
<!-- leaf_7 -->
<g id="node8" class="node">
<title>leaf_7</title>
<polygon fill="none" stroke="#c0c0c0" points="626.5,-566.3006 477.5,-566.3006 477.5,-530.3006 626.5,-530.3006 626.5,-566.3006"/>
<text text-anchor="middle" x="552" y="-544.8006" font-family="Inconsolata" font-size="14.00" fill="#000000">* A Grammer For Lua</text>
</g>
<!-- header_2&#45;&gt;leaf_7 -->
<g id="edge7" class="edge">
<title>header_2&#45;&gt;leaf_7</title>
<path fill="none" stroke="#000000" stroke-dasharray="5,2" d="M552,-1025.5784C552,-950.8328 552,-667.4111 552,-576.5287"/>
<polygon fill="#000000" stroke="#000000" points="555.5001,-576.4269 552,-566.4269 548.5001,-576.427 555.5001,-576.4269"/>
</g>
<!-- raw_8 -->
<g id="node9" class="node">
<title>raw_8</title>
<ellipse fill="none" stroke="#000000" cx="687" cy="-548.3006" rx="27" ry="18"/>
<text text-anchor="middle" x="687" y="-544.1006" font-family="Helvetica,sans-Serif" font-size="14.00" fill="#000000">raw</text>
</g>
<!-- prose_3&#45;&gt;raw_8 -->
<g id="edge8" class="edge">
<title>prose_3&#45;&gt;raw_8</title>
<path fill="none" stroke="#000000" stroke-dasharray="5,2" d="M701.4484,-1025.5784C699.1856,-950.8328 690.6058,-667.4111 687.8545,-576.5287"/>
<polygon fill="#000000" stroke="#000000" points="691.3498,-576.3164 687.5487,-566.4269 684.353,-576.5283 691.3498,-576.3164"/>
</g>
<!-- raw_10 -->
<g id="node11" class="node">
<title>raw_10</title>
<ellipse fill="none" stroke="#000000" cx="784" cy="-548.3006" rx="27" ry="18"/>
<text text-anchor="middle" x="784" y="-544.1006" font-family="Helvetica,sans-Serif" font-size="14.00" fill="#000000">raw</text>
</g>
<!-- prose_4&#45;&gt;raw_10 -->
<g id="edge10" class="edge">
<title>prose_4&#45;&gt;raw_10</title>
<path fill="none" stroke="#000000" stroke-dasharray="5,2" d="M784,-1025.5784C784,-950.8328 784,-667.4111 784,-576.5287"/>
<polygon fill="#000000" stroke="#000000" points="787.5001,-576.4269 784,-566.4269 780.5001,-576.427 787.5001,-576.4269"/>
</g>
<!-- raw_12 -->
<g id="node13" class="node">
<title>raw_12</title>
<ellipse fill="none" stroke="#000000" cx="866" cy="-548.3006" rx="27" ry="18"/>
<text text-anchor="middle" x="866" y="-544.1006" font-family="Helvetica,sans-Serif" font-size="14.00" fill="#000000">raw</text>
</g>
<!-- prose_5&#45;&gt;raw_12 -->
<g id="edge12" class="edge">
<title>prose_5&#45;&gt;raw_12</title>
<path fill="none" stroke="#000000" stroke-dasharray="5,2" d="M866,-1025.5784C866,-950.8328 866,-667.4111 866,-576.5287"/>
<polygon fill="#000000" stroke="#000000" points="869.5001,-576.4269 866,-566.4269 862.5001,-576.427 869.5001,-576.4269"/>
</g>
<!-- leaf_14 -->
<g id="node15" class="node">
<title>leaf_14</title>
<polygon fill="none" stroke="#c0c0c0" points="1410.5,-989.8017 911.5,-989.8017 911.5,-106.7995 1410.5,-106.7995 1410.5,-989.8017"/>
<text text-anchor="middle" x="1161" y="-974.6012" font-family="Inconsolata" font-size="14.00" fill="#000000">chunk ::= {stat [`;´]} [laststat [`;´]]</text>
<text text-anchor="middle" x="1161" y="-943.2011" font-family="Inconsolata" font-size="14.00" fill="#000000"> &#160;&#160;block ::= chunk</text>
<text text-anchor="middle" x="1161" y="-911.8011" font-family="Inconsolata" font-size="14.00" fill="#000000"> &#160;&#160;stat ::= &#160;varlist `=´ explist |</text>
<text text-anchor="middle" x="1161" y="-896.4011" font-family="Inconsolata" font-size="14.00" fill="#000000"> &#160;&#160;&#160;&#160;&#160;&#160;functioncall |</text>
<text text-anchor="middle" x="1161" y="-881.001" font-family="Inconsolata" font-size="14.00" fill="#000000"> &#160;&#160;&#160;&#160;&#160;&#160;do block end |</text>
<text text-anchor="middle" x="1161" y="-865.601" font-family="Inconsolata" font-size="14.00" fill="#000000"> &#160;&#160;&#160;&#160;&#160;&#160;while exp do block end |</text>
<text text-anchor="middle" x="1161" y="-850.201" font-family="Inconsolata" font-size="14.00" fill="#000000"> &#160;&#160;&#160;&#160;&#160;&#160;repeat block until exp |</text>
<text text-anchor="middle" x="1161" y="-834.8009" font-family="Inconsolata" font-size="14.00" fill="#000000"> &#160;&#160;&#160;&#160;&#160;&#160;if exp then block {elseif exp then block} [else block] end |</text>
<text text-anchor="middle" x="1161" y="-819.4009" font-family="Inconsolata" font-size="14.00" fill="#000000"> &#160;&#160;&#160;&#160;&#160;&#160;for Name `=´ exp `,´ exp [`,´ exp] do block end |</text>
<text text-anchor="middle" x="1161" y="-804.0009" font-family="Inconsolata" font-size="14.00" fill="#000000"> &#160;&#160;&#160;&#160;&#160;&#160;for namelist in explist do block end |</text>
<text text-anchor="middle" x="1161" y="-788.6008" font-family="Inconsolata" font-size="14.00" fill="#000000"> &#160;&#160;&#160;&#160;&#160;&#160;function funcname funcbody |</text>
<text text-anchor="middle" x="1161" y="-773.2008" font-family="Inconsolata" font-size="14.00" fill="#000000"> &#160;&#160;&#160;&#160;&#160;&#160;local function Name funcbody |</text>
<text text-anchor="middle" x="1161" y="-757.8008" font-family="Inconsolata" font-size="14.00" fill="#000000"> &#160;&#160;&#160;&#160;&#160;&#160;local namelist [`=´ explist]</text>
<text text-anchor="middle" x="1161" y="-726.4007" font-family="Inconsolata" font-size="14.00" fill="#000000"> &#160;&#160;laststat ::= return [explist] | break</text>
<text text-anchor="middle" x="1161" y="-695.0007" font-family="Inconsolata" font-size="14.00" fill="#000000"> &#160;&#160;funcname ::= Name {`.´ Name} [`:´ Name]</text>
<text text-anchor="middle" x="1161" y="-663.6007" font-family="Inconsolata" font-size="14.00" fill="#000000"> &#160;&#160;varlist ::= var {`,´ var}</text>
<text text-anchor="middle" x="1161" y="-632.2007" font-family="Inconsolata" font-size="14.00" fill="#000000"> &#160;&#160;var ::= &#160;Name | prefixexp `[´ exp `]´ | prefixexp `.´ Name</text>
<text text-anchor="middle" x="1161" y="-600.8006" font-family="Inconsolata" font-size="14.00" fill="#000000"> &#160;&#160;namelist ::= Name {`,´ Name}</text>
<text text-anchor="middle" x="1161" y="-569.4006" font-family="Inconsolata" font-size="14.00" fill="#000000"> &#160;&#160;explist ::= {exp `,´} exp</text>
<text text-anchor="middle" x="1161" y="-538.0006" font-family="Inconsolata" font-size="14.00" fill="#000000"> &#160;&#160;exp ::= &#160;nil | false | true | Number | String | `...´ | function |</text>
<text text-anchor="middle" x="1161" y="-522.6005" font-family="Inconsolata" font-size="14.00" fill="#000000"> &#160;&#160;&#160;&#160;&#160;&#160;prefixexp | tableconstructor | exp binop exp | unop exp</text>
<text text-anchor="middle" x="1161" y="-491.2005" font-family="Inconsolata" font-size="14.00" fill="#000000"> &#160;&#160;prefixexp ::= var | functioncall | `(´ exp `)´</text>
<text text-anchor="middle" x="1161" y="-459.8005" font-family="Inconsolata" font-size="14.00" fill="#000000"> &#160;&#160;functioncall ::= &#160;prefixexp args | prefixexp `:´ Name args</text>
<text text-anchor="middle" x="1161" y="-428.4004" font-family="Inconsolata" font-size="14.00" fill="#000000"> &#160;&#160;args ::= &#160;`(´ [explist] `)´ | tableconstructor | String</text>
<text text-anchor="middle" x="1161" y="-397.0004" font-family="Inconsolata" font-size="14.00" fill="#000000"> &#160;&#160;function ::= function funcbody</text>
<text text-anchor="middle" x="1161" y="-365.6004" font-family="Inconsolata" font-size="14.00" fill="#000000"> &#160;&#160;funcbody ::= `(´ [parlist] `)´ block end</text>
<text text-anchor="middle" x="1161" y="-334.2003" font-family="Inconsolata" font-size="14.00" fill="#000000"> &#160;&#160;parlist ::= namelist [`,´ `...´] | `...´</text>
<text text-anchor="middle" x="1161" y="-302.8003" font-family="Inconsolata" font-size="14.00" fill="#000000"> &#160;&#160;tableconstructor ::= `{´ [fieldlist] `}´</text>
<text text-anchor="middle" x="1161" y="-271.4003" font-family="Inconsolata" font-size="14.00" fill="#000000"> &#160;&#160;fieldlist ::= field {fieldsep field} [fieldsep]</text>
<text text-anchor="middle" x="1161" y="-240.0002" font-family="Inconsolata" font-size="14.00" fill="#000000"> &#160;&#160;field ::= `[´ exp `]´ `=´ exp | Name `=´ exp | exp</text>
<text text-anchor="middle" x="1161" y="-208.6002" font-family="Inconsolata" font-size="14.00" fill="#000000"> &#160;&#160;fieldsep ::= `,´ | `;´</text>
<text text-anchor="middle" x="1161" y="-177.2002" font-family="Inconsolata" font-size="14.00" fill="#000000"> &#160;&#160;binop ::= `+´ | `&#45;´ | `*´ | `/´ | `^´ | `%´ | `..´ |</text>
<text text-anchor="middle" x="1161" y="-161.8002" font-family="Inconsolata" font-size="14.00" fill="#000000"> &#160;&#160;&#160;&#160;&#160;&#160;`&lt;´ | `&lt;=´ | `&gt;´ | `&gt;=´ | `==´ | `~=´ |</text>
<text text-anchor="middle" x="1161" y="-146.4001" font-family="Inconsolata" font-size="14.00" fill="#000000"> &#160;&#160;&#160;&#160;&#160;&#160;and | or</text>
<text text-anchor="middle" x="1161" y="-115.0001" font-family="Inconsolata" font-size="14.00" fill="#000000"> &#160;&#160;unop ::= `&#45;´ | not | `#´</text>
</g>
<!-- codeblock_6&#45;&gt;leaf_14 -->
<g id="edge14" class="edge">
<title>codeblock_6&#45;&gt;leaf_14</title>
<path fill="none" stroke="#000000" stroke-dasharray="5,2" d="M1080.0892,-1025.5784C1081.2556,-1018.6981 1082.7217,-1010.0496 1084.4346,-999.946"/>
<polygon fill="#000000" stroke="#000000" points="1087.9299,-1000.2676 1086.1506,-989.8233 1081.0284,-999.0976 1087.9299,-1000.2676"/>
</g>
<!-- leaf_9 -->
<g id="node10" class="node">
<title>leaf_9</title>
<polygon fill="none" stroke="#c0c0c0" points="520,-70.7004 0,-70.7004 0,-.0997 520,-.0997 520,-70.7004"/>
<text text-anchor="middle" x="260" y="-23.6001" font-family="Inconsolata" font-size="14.00" fill="#000000">While the most important grammar for pegylator is pegylator itself, it&#39;s</text>
<text text-anchor="middle" x="260" y="-8.2" font-family="Inconsolata" font-size="14.00" fill="#000000">time to make a Lua language parser.</text>
</g>
<!-- raw_8&#45;&gt;leaf_9 -->
<g id="edge9" class="edge">
<title>raw_8&#45;&gt;leaf_9</title>
<path fill="none" stroke="#000000" stroke-dasharray="5,2" d="M691.4833,-530.1429C706.7537,-463.5074 749.6793,-229.9136 635,-106.8001 624.7705,-95.8183 574.83,-83.6687 514.5615,-72.5526"/>
<polygon fill="#000000" stroke="#000000" points="514.8699,-69.0514 504.4051,-70.7061 513.6178,-75.9385 514.8699,-69.0514"/>
</g>
<!-- leaf_11 -->
<g id="node12" class="node">
<title>leaf_11</title>
<polygon fill="none" stroke="#c0c0c0" points="1030,-62.7005 538,-62.7005 538,-8.0996 1030,-8.0996 1030,-62.7005"/>
<text text-anchor="middle" x="784" y="-31.6001" font-family="Inconsolata" font-size="14.00" fill="#000000">The hard work is done on this, it&#39;s a matter of translation into the</text>
<text text-anchor="middle" x="784" y="-16.2" font-family="Inconsolata" font-size="14.00" fill="#000000">Pegylator paradigm.</text>
</g>
<!-- raw_10&#45;&gt;leaf_11 -->
<g id="edge11" class="edge">
<title>raw_10&#45;&gt;leaf_11</title>
<path fill="none" stroke="#000000" stroke-dasharray="5,2" d="M784,-530.0462C784,-455.762 784,-175.302 784,-73.0207"/>
<polygon fill="#000000" stroke="#000000" points="787.5001,-72.8482 784,-62.8482 780.5001,-72.8483 787.5001,-72.8482"/>
</g>
<!-- leaf_13 -->
<g id="node14" class="node">
<title>leaf_13</title>
<polygon fill="none" stroke="#c0c0c0" points="1575.5,-62.7005 1048.5,-62.7005 1048.5,-8.0996 1575.5,-8.0996 1575.5,-62.7005"/>
<text text-anchor="middle" x="1312" y="-31.6001" font-family="Inconsolata" font-size="14.00" fill="#000000">While this a hell of a lot of work, the complete BNF of Lua is available,</text>
<text text-anchor="middle" x="1312" y="-16.2" font-family="Inconsolata" font-size="14.00" fill="#000000">and reproduced here.</text>
</g>
<!-- raw_12&#45;&gt;leaf_13 -->
<g id="edge13" class="edge">
<title>raw_12&#45;&gt;leaf_13</title>
<path fill="none" stroke="#000000" stroke-dasharray="5,2" d="M860.7235,-530.1842C842.5738,-463.6928 789.8369,-230.5384 903,-106.8001 910.8561,-98.2098 1014.9551,-80.1046 1116.1526,-64.2763"/>
<polygon fill="#000000" stroke="#000000" points="1116.907,-67.7011 1126.2488,-62.7031 1115.8292,-60.7846 1116.907,-67.7011"/>
</g>
</g>
</svg>
