<?xml version="1.0" encoding="UTF-8" standalone="no"?>
<!DOCTYPE svg PUBLIC "-//W3C//DTD SVG 1.1//EN"
 "http://www.w3.org/Graphics/SVG/1.1/DTD/svg11.dtd">
<!-- Generated by graphviz version 2.40.1 (20161225.0304)
 -->
<!-- Title: lpegNode Pages: 1 -->
<svg width="3032pt" height="1799pt"
 viewBox="0.00 0.00 3031.50 1798.80" xmlns="http://www.w3.org/2000/svg" xmlns:xlink="http://www.w3.org/1999/xlink">
<g id="graph0" class="graph" transform="scale(1 1) rotate(0) translate(4 1794.8019)">
<title>lpegNode</title>
<polygon fill="#ffffff" stroke="transparent" points="-4,4 -4,-1794.8019 3027.5,-1794.8019 3027.5,4 -4,4"/>
<!-- doc_0 -->
<g id="node1" class="node">
<title>doc_0</title>
<ellipse fill="none" stroke="#000000" cx="906" cy="-1772.8019" rx="46.9581" ry="18"/>
<text text-anchor="middle" x="906" y="-1768.6019" font-family="Helvetica,sans-Serif" font-size="14.00" fill="#000000">doc &#45; 142</text>
</g>
<!-- section_1 -->
<g id="node2" class="node">
<title>section_1</title>
<ellipse fill="none" stroke="#000000" cx="906" cy="-1700.8019" rx="60.9826" ry="18"/>
<text text-anchor="middle" x="906" y="-1696.6019" font-family="Helvetica,sans-Serif" font-size="14.00" fill="#000000">section: 1&#45;71</text>
</g>
<!-- doc_0&#45;&gt;section_1 -->
<g id="edge1" class="edge">
<title>doc_0&#45;&gt;section_1</title>
<path fill="none" stroke="#000000" stroke-dasharray="5,2" d="M906,-1754.6333C906,-1746.9329 906,-1737.7763 906,-1729.2186"/>
<polygon fill="#000000" stroke="#000000" points="909.5001,-1729.2152 906,-1719.2152 902.5001,-1729.2152 909.5001,-1729.2152"/>
</g>
<!-- header_2 -->
<g id="node3" class="node">
<title>header_2</title>
<ellipse fill="none" stroke="#000000" cx="633" cy="-1628.8019" rx="100.1143" ry="18"/>
<text text-anchor="middle" x="633" y="-1624.6019" font-family="Helvetica,sans-Serif" font-size="14.00" fill="#000000">1 : A Grammar For Lua</text>
</g>
<!-- section_1&#45;&gt;header_2 -->
<g id="edge2" class="edge">
<title>section_1&#45;&gt;header_2</title>
<path fill="none" stroke="#000000" stroke-dasharray="5,2" d="M860.6131,-1688.8318C816.549,-1677.2105 749.1718,-1659.4407 699.1453,-1646.2468"/>
<polygon fill="#000000" stroke="#000000" points="699.9453,-1642.8382 689.3834,-1643.6723 698.1602,-1649.6068 699.9453,-1642.8382"/>
</g>
<!-- prose_3 -->
<g id="node4" class="node">
<title>prose_3</title>
<ellipse fill="none" stroke="#000000" cx="783" cy="-1628.8019" rx="32.4585" ry="18"/>
<text text-anchor="middle" x="783" y="-1624.6019" font-family="Helvetica,sans-Serif" font-size="14.00" fill="#000000">prose</text>
</g>
<!-- section_1&#45;&gt;prose_3 -->
<g id="edge3" class="edge">
<title>section_1&#45;&gt;prose_3</title>
<path fill="none" stroke="#000000" stroke-dasharray="5,2" d="M878.3964,-1684.6437C859.3555,-1673.4979 834.0105,-1658.6618 814.2307,-1647.0833"/>
<polygon fill="#000000" stroke="#000000" points="815.9752,-1644.049 805.5769,-1642.0177 812.4389,-1650.0901 815.9752,-1644.049"/>
</g>
<!-- prose_4 -->
<g id="node5" class="node">
<title>prose_4</title>
<ellipse fill="none" stroke="#000000" cx="865" cy="-1628.8019" rx="32.4585" ry="18"/>
<text text-anchor="middle" x="865" y="-1624.6019" font-family="Helvetica,sans-Serif" font-size="14.00" fill="#000000">prose</text>
</g>
<!-- section_1&#45;&gt;prose_4 -->
<g id="edge4" class="edge">
<title>section_1&#45;&gt;prose_4</title>
<path fill="none" stroke="#000000" stroke-dasharray="5,2" d="M895.8652,-1683.0042C891.0632,-1674.5715 885.2315,-1664.3305 879.9358,-1655.0307"/>
<polygon fill="#000000" stroke="#000000" points="882.8667,-1653.1044 874.8768,-1646.1465 876.7838,-1656.5683 882.8667,-1653.1044"/>
</g>
<!-- prose_5 -->
<g id="node6" class="node">
<title>prose_5</title>
<ellipse fill="none" stroke="#000000" cx="947" cy="-1628.8019" rx="32.4585" ry="18"/>
<text text-anchor="middle" x="947" y="-1624.6019" font-family="Helvetica,sans-Serif" font-size="14.00" fill="#000000">prose</text>
</g>
<!-- section_1&#45;&gt;prose_5 -->
<g id="edge5" class="edge">
<title>section_1&#45;&gt;prose_5</title>
<path fill="none" stroke="#000000" stroke-dasharray="5,2" d="M916.1348,-1683.0042C920.9368,-1674.5715 926.7685,-1664.3305 932.0642,-1655.0307"/>
<polygon fill="#000000" stroke="#000000" points="935.2162,-1656.5683 937.1232,-1646.1465 929.1333,-1653.1044 935.2162,-1656.5683"/>
</g>
<!-- codeblock_6 -->
<g id="node7" class="node">
<title>codeblock_6</title>
<ellipse fill="none" stroke="#000000" cx="1159" cy="-1628.8019" rx="77.4211" ry="18"/>
<text text-anchor="middle" x="1159" y="-1624.6019" font-family="Helvetica,sans-Serif" font-size="14.00" fill="#000000">code block 12&#45;69</text>
</g>
<!-- section_1&#45;&gt;codeblock_6 -->
<g id="edge6" class="edge">
<title>section_1&#45;&gt;codeblock_6</title>
<path fill="none" stroke="#000000" stroke-dasharray="5,2" d="M950.0692,-1688.2605C991.6167,-1676.4367 1054.1765,-1658.6331 1100.0114,-1645.5892"/>
<polygon fill="#000000" stroke="#000000" points="1101.1557,-1648.9026 1109.8158,-1642.799 1099.2397,-1642.1699 1101.1557,-1648.9026"/>
</g>
<!-- section_7 -->
<g id="node8" class="node">
<title>section_7</title>
<ellipse fill="none" stroke="#000000" cx="1794" cy="-1628.8019" rx="65.8187" ry="18"/>
<text text-anchor="middle" x="1794" y="-1624.6019" font-family="Helvetica,sans-Serif" font-size="14.00" fill="#000000">section: 72&#45;87</text>
</g>
<!-- section_1&#45;&gt;section_7 -->
<g id="edge7" class="edge">
<title>section_1&#45;&gt;section_7</title>
<path fill="none" stroke="#000000" stroke-dasharray="5,2" d="M964.6076,-1696.05C1121.1589,-1683.3566 1548.8671,-1648.6776 1720.901,-1634.7289"/>
<polygon fill="#000000" stroke="#000000" points="1721.189,-1638.2171 1730.8734,-1633.9203 1720.6232,-1631.24 1721.189,-1638.2171"/>
</g>
<!-- leaf_8 -->
<g id="node9" class="node">
<title>leaf_8</title>
<polygon fill="none" stroke="#c0c0c0" points="707.5,-1151.3014 558.5,-1151.3014 558.5,-1115.3014 707.5,-1115.3014 707.5,-1151.3014"/>
<text text-anchor="middle" x="633" y="-1129.8014" font-family="Inconsolata" font-size="14.00" fill="#000000">* A Grammar For Lua</text>
</g>
<!-- header_2&#45;&gt;leaf_8 -->
<g id="edge8" class="edge">
<title>header_2&#45;&gt;leaf_8</title>
<path fill="none" stroke="#000000" stroke-dasharray="5,2" d="M633,-1610.5792C633,-1535.8336 633,-1252.4119 633,-1161.5295"/>
<polygon fill="#000000" stroke="#000000" points="636.5001,-1161.4277 633,-1151.4277 629.5001,-1161.4278 636.5001,-1161.4277"/>
</g>
<!-- raw_9 -->
<g id="node10" class="node">
<title>raw_9</title>
<ellipse fill="none" stroke="#000000" cx="768" cy="-1133.3014" rx="27" ry="18"/>
<text text-anchor="middle" x="768" y="-1129.1014" font-family="Helvetica,sans-Serif" font-size="14.00" fill="#000000">raw</text>
</g>
<!-- prose_3&#45;&gt;raw_9 -->
<g id="edge9" class="edge">
<title>prose_3&#45;&gt;raw_9</title>
<path fill="none" stroke="#000000" stroke-dasharray="5,2" d="M782.4484,-1610.5792C780.1856,-1535.8336 771.6058,-1252.4119 768.8545,-1161.5295"/>
<polygon fill="#000000" stroke="#000000" points="772.3498,-1161.3172 768.5487,-1151.4277 765.353,-1161.5291 772.3498,-1161.3172"/>
</g>
<!-- raw_11 -->
<g id="node12" class="node">
<title>raw_11</title>
<ellipse fill="none" stroke="#000000" cx="853" cy="-1133.3014" rx="27" ry="18"/>
<text text-anchor="middle" x="853" y="-1129.1014" font-family="Helvetica,sans-Serif" font-size="14.00" fill="#000000">raw</text>
</g>
<!-- prose_4&#45;&gt;raw_11 -->
<g id="edge11" class="edge">
<title>prose_4&#45;&gt;raw_11</title>
<path fill="none" stroke="#000000" stroke-dasharray="5,2" d="M864.5587,-1610.5792C862.7485,-1535.8336 855.8846,-1252.4119 853.6836,-1161.5295"/>
<polygon fill="#000000" stroke="#000000" points="857.1802,-1161.34 853.439,-1151.4277 850.1822,-1161.5096 857.1802,-1161.34"/>
</g>
<!-- raw_13 -->
<g id="node14" class="node">
<title>raw_13</title>
<ellipse fill="none" stroke="#000000" cx="947" cy="-1133.3014" rx="27" ry="18"/>
<text text-anchor="middle" x="947" y="-1129.1014" font-family="Helvetica,sans-Serif" font-size="14.00" fill="#000000">raw</text>
</g>
<!-- prose_5&#45;&gt;raw_13 -->
<g id="edge13" class="edge">
<title>prose_5&#45;&gt;raw_13</title>
<path fill="none" stroke="#000000" stroke-dasharray="5,2" d="M947,-1610.5792C947,-1535.8336 947,-1252.4119 947,-1161.5295"/>
<polygon fill="#000000" stroke="#000000" points="950.5001,-1161.4277 947,-1151.4277 943.5001,-1161.4278 950.5001,-1161.4277"/>
</g>
<!-- leaf_15 -->
<g id="node16" class="node">
<title>leaf_15</title>
<polygon fill="none" stroke="#c0c0c0" points="1491.5,-1574.8025 992.5,-1574.8025 992.5,-691.8003 1491.5,-691.8003 1491.5,-1574.8025"/>
<text text-anchor="middle" x="1242" y="-1559.6019" font-family="Inconsolata" font-size="14.00" fill="#000000">chunk ::= {stat [`;´]} [laststat [`;´]]</text>
<text text-anchor="middle" x="1242" y="-1528.2019" font-family="Inconsolata" font-size="14.00" fill="#000000"> &#160;&#160;block ::= chunk</text>
<text text-anchor="middle" x="1242" y="-1496.8019" font-family="Inconsolata" font-size="14.00" fill="#000000"> &#160;&#160;stat ::= &#160;varlist `=´ explist |</text>
<text text-anchor="middle" x="1242" y="-1481.4018" font-family="Inconsolata" font-size="14.00" fill="#000000"> &#160;&#160;&#160;&#160;&#160;&#160;functioncall |</text>
<text text-anchor="middle" x="1242" y="-1466.0018" font-family="Inconsolata" font-size="14.00" fill="#000000"> &#160;&#160;&#160;&#160;&#160;&#160;do block end |</text>
<text text-anchor="middle" x="1242" y="-1450.6018" font-family="Inconsolata" font-size="14.00" fill="#000000"> &#160;&#160;&#160;&#160;&#160;&#160;while exp do block end |</text>
<text text-anchor="middle" x="1242" y="-1435.2017" font-family="Inconsolata" font-size="14.00" fill="#000000"> &#160;&#160;&#160;&#160;&#160;&#160;repeat block until exp |</text>
<text text-anchor="middle" x="1242" y="-1419.8017" font-family="Inconsolata" font-size="14.00" fill="#000000"> &#160;&#160;&#160;&#160;&#160;&#160;if exp then block {elseif exp then block} [else block] end |</text>
<text text-anchor="middle" x="1242" y="-1404.4017" font-family="Inconsolata" font-size="14.00" fill="#000000"> &#160;&#160;&#160;&#160;&#160;&#160;for Name `=´ exp `,´ exp [`,´ exp] do block end |</text>
<text text-anchor="middle" x="1242" y="-1389.0017" font-family="Inconsolata" font-size="14.00" fill="#000000"> &#160;&#160;&#160;&#160;&#160;&#160;for namelist in explist do block end |</text>
<text text-anchor="middle" x="1242" y="-1373.6016" font-family="Inconsolata" font-size="14.00" fill="#000000"> &#160;&#160;&#160;&#160;&#160;&#160;function funcname funcbody |</text>
<text text-anchor="middle" x="1242" y="-1358.2016" font-family="Inconsolata" font-size="14.00" fill="#000000"> &#160;&#160;&#160;&#160;&#160;&#160;local function Name funcbody |</text>
<text text-anchor="middle" x="1242" y="-1342.8016" font-family="Inconsolata" font-size="14.00" fill="#000000"> &#160;&#160;&#160;&#160;&#160;&#160;local namelist [`=´ explist]</text>
<text text-anchor="middle" x="1242" y="-1311.4015" font-family="Inconsolata" font-size="14.00" fill="#000000"> &#160;&#160;laststat ::= return [explist] | break</text>
<text text-anchor="middle" x="1242" y="-1280.0015" font-family="Inconsolata" font-size="14.00" fill="#000000"> &#160;&#160;funcname ::= Name {`.´ Name} [`:´ Name]</text>
<text text-anchor="middle" x="1242" y="-1248.6015" font-family="Inconsolata" font-size="14.00" fill="#000000"> &#160;&#160;varlist ::= var {`,´ var}</text>
<text text-anchor="middle" x="1242" y="-1217.2014" font-family="Inconsolata" font-size="14.00" fill="#000000"> &#160;&#160;var ::= &#160;Name | prefixexp `[´ exp `]´ | prefixexp `.´ Name</text>
<text text-anchor="middle" x="1242" y="-1185.8014" font-family="Inconsolata" font-size="14.00" fill="#000000"> &#160;&#160;namelist ::= Name {`,´ Name}</text>
<text text-anchor="middle" x="1242" y="-1154.4014" font-family="Inconsolata" font-size="14.00" fill="#000000"> &#160;&#160;explist ::= {exp `,´} exp</text>
<text text-anchor="middle" x="1242" y="-1123.0013" font-family="Inconsolata" font-size="14.00" fill="#000000"> &#160;&#160;exp ::= &#160;nil | false | true | Number | String | `...´ | function |</text>
<text text-anchor="middle" x="1242" y="-1107.6013" font-family="Inconsolata" font-size="14.00" fill="#000000"> &#160;&#160;&#160;&#160;&#160;&#160;prefixexp | tableconstructor | exp binop exp | unop exp</text>
<text text-anchor="middle" x="1242" y="-1076.2013" font-family="Inconsolata" font-size="14.00" fill="#000000"> &#160;&#160;prefixexp ::= var | functioncall | `(´ exp `)´</text>
<text text-anchor="middle" x="1242" y="-1044.8012" font-family="Inconsolata" font-size="14.00" fill="#000000"> &#160;&#160;functioncall ::= &#160;prefixexp args | prefixexp `:´ Name args</text>
<text text-anchor="middle" x="1242" y="-1013.4012" font-family="Inconsolata" font-size="14.00" fill="#000000"> &#160;&#160;args ::= &#160;`(´ [explist] `)´ | tableconstructor | String</text>
<text text-anchor="middle" x="1242" y="-982.0012" font-family="Inconsolata" font-size="14.00" fill="#000000"> &#160;&#160;function ::= function funcbody</text>
<text text-anchor="middle" x="1242" y="-950.6012" font-family="Inconsolata" font-size="14.00" fill="#000000"> &#160;&#160;funcbody ::= `(´ [parlist] `)´ block end</text>
<text text-anchor="middle" x="1242" y="-919.2011" font-family="Inconsolata" font-size="14.00" fill="#000000"> &#160;&#160;parlist ::= namelist [`,´ `...´] | `...´</text>
<text text-anchor="middle" x="1242" y="-887.8011" font-family="Inconsolata" font-size="14.00" fill="#000000"> &#160;&#160;tableconstructor ::= `{´ [fieldlist] `}´</text>
<text text-anchor="middle" x="1242" y="-856.4011" font-family="Inconsolata" font-size="14.00" fill="#000000"> &#160;&#160;fieldlist ::= field {fieldsep field} [fieldsep]</text>
<text text-anchor="middle" x="1242" y="-825.001" font-family="Inconsolata" font-size="14.00" fill="#000000"> &#160;&#160;field ::= `[´ exp `]´ `=´ exp | Name `=´ exp | exp</text>
<text text-anchor="middle" x="1242" y="-793.601" font-family="Inconsolata" font-size="14.00" fill="#000000"> &#160;&#160;fieldsep ::= `,´ | `;´</text>
<text text-anchor="middle" x="1242" y="-762.201" font-family="Inconsolata" font-size="14.00" fill="#000000"> &#160;&#160;binop ::= `+´ | `&#45;´ | `*´ | `/´ | `^´ | `%´ | `..´ |</text>
<text text-anchor="middle" x="1242" y="-746.8009" font-family="Inconsolata" font-size="14.00" fill="#000000"> &#160;&#160;&#160;&#160;&#160;&#160;`&lt;´ | `&lt;=´ | `&gt;´ | `&gt;=´ | `==´ | `~=´ |</text>
<text text-anchor="middle" x="1242" y="-731.4009" font-family="Inconsolata" font-size="14.00" fill="#000000"> &#160;&#160;&#160;&#160;&#160;&#160;and | or</text>
<text text-anchor="middle" x="1242" y="-700.0009" font-family="Inconsolata" font-size="14.00" fill="#000000"> &#160;&#160;unop ::= `&#45;´ | not | `#´</text>
</g>
<!-- codeblock_6&#45;&gt;leaf_15 -->
<g id="edge15" class="edge">
<title>codeblock_6&#45;&gt;leaf_15</title>
<path fill="none" stroke="#000000" stroke-dasharray="5,2" d="M1162.0524,-1610.5792C1163.205,-1603.6989 1164.6536,-1595.0504 1166.3461,-1584.9467"/>
<polygon fill="#000000" stroke="#000000" points="1169.8415,-1585.2649 1168.0417,-1574.824 1162.9376,-1584.1084 1169.8415,-1585.2649"/>
</g>
<!-- header_16 -->
<g id="node17" class="node">
<title>header_16</title>
<ellipse fill="none" stroke="#000000" cx="1661" cy="-1133.3014" rx="82.7165" ry="18"/>
<text text-anchor="middle" x="1661" y="-1129.1014" font-family="Helvetica,sans-Serif" font-size="14.00" fill="#000000">2 : Implementation</text>
</g>
<!-- section_7&#45;&gt;header_16 -->
<g id="edge16" class="edge">
<title>section_7&#45;&gt;header_16</title>
<path fill="none" stroke="#000000" stroke-dasharray="5,2" d="M1777.3653,-1611.1313C1768.8589,-1601.1695 1759.0504,-1588.0849 1753,-1574.8019 1686.4734,-1428.7509 1667.4995,-1233.5336 1662.5789,-1161.5191"/>
<polygon fill="#000000" stroke="#000000" points="1666.0644,-1161.1798 1661.9277,-1151.4259 1659.0789,-1161.6305 1666.0644,-1161.1798"/>
</g>
<!-- prose_17 -->
<g id="node18" class="node">
<title>prose_17</title>
<ellipse fill="none" stroke="#000000" cx="1794" cy="-1133.3014" rx="32.4585" ry="18"/>
<text text-anchor="middle" x="1794" y="-1129.1014" font-family="Helvetica,sans-Serif" font-size="14.00" fill="#000000">prose</text>
</g>
<!-- section_7&#45;&gt;prose_17 -->
<g id="edge17" class="edge">
<title>section_7&#45;&gt;prose_17</title>
<path fill="none" stroke="#000000" stroke-dasharray="5,2" d="M1794,-1610.5792C1794,-1535.8336 1794,-1252.4119 1794,-1161.5295"/>
<polygon fill="#000000" stroke="#000000" points="1797.5001,-1161.4277 1794,-1151.4277 1790.5001,-1161.4278 1797.5001,-1161.4277"/>
</g>
<!-- section_18 -->
<g id="node19" class="node">
<title>section_18</title>
<ellipse fill="none" stroke="#000000" cx="1942" cy="-1133.3014" rx="65.8187" ry="18"/>
<text text-anchor="middle" x="1942" y="-1129.1014" font-family="Helvetica,sans-Serif" font-size="14.00" fill="#000000">section: 77&#45;87</text>
</g>
<!-- section_7&#45;&gt;section_18 -->
<g id="edge18" class="edge">
<title>section_7&#45;&gt;section_18</title>
<path fill="none" stroke="#000000" stroke-dasharray="5,2" d="M1810.4641,-1611.0519C1818.9205,-1601.0668 1828.7356,-1587.9854 1835,-1574.8019 1904.3824,-1428.7855 1931.2555,-1233.5474 1939.2114,-1161.5232"/>
<polygon fill="#000000" stroke="#000000" points="1942.7076,-1161.744 1940.2903,-1151.4286 1935.7473,-1161 1942.7076,-1161.744"/>
</g>
<!-- section_19 -->
<g id="node20" class="node">
<title>section_19</title>
<ellipse fill="none" stroke="#000000" cx="2474" cy="-1133.3014" rx="70.655" ry="18"/>
<text text-anchor="middle" x="2474" y="-1129.1014" font-family="Helvetica,sans-Serif" font-size="14.00" fill="#000000">section: 88&#45;142</text>
</g>
<!-- section_7&#45;&gt;section_19 -->
<g id="edge19" class="edge">
<title>section_7&#45;&gt;section_19</title>
<path fill="none" stroke="#000000" stroke-dasharray="5,2" d="M1855.8423,-1622.7121C1902.4637,-1616.0768 1966.7397,-1602.4465 2017,-1574.8019 2220.3668,-1462.9446 2398.1318,-1236.7451 2455.0173,-1159.6971"/>
<polygon fill="#000000" stroke="#000000" points="2457.9601,-1161.6027 2461.0503,-1151.4685 2452.3148,-1157.4637 2457.9601,-1161.6027"/>
</g>
<!-- leaf_10 -->
<g id="node11" class="node">
<title>leaf_10</title>
<polygon fill="none" stroke="#c0c0c0" points="520,-655.7012 0,-655.7012 0,-585.1005 520,-585.1005 520,-655.7012"/>
<text text-anchor="middle" x="260" y="-608.6008" font-family="Inconsolata" font-size="14.00" fill="#000000">While the most important grammar for pegylator is pegylator itself, it&#39;s</text>
<text text-anchor="middle" x="260" y="-593.2008" font-family="Inconsolata" font-size="14.00" fill="#000000">time to make a Lua language parser.</text>
</g>
<!-- raw_9&#45;&gt;leaf_10 -->
<g id="edge10" class="edge">
<title>raw_9&#45;&gt;leaf_10</title>
<path fill="none" stroke="#000000" stroke-dasharray="5,2" d="M772.5081,-1115.477C788.1448,-1049.0226 832.9523,-813.2934 716,-691.8008 708.4103,-683.9165 624.2385,-669.7566 530.2361,-656.1139"/>
<polygon fill="#000000" stroke="#000000" points="530.6197,-652.633 520.2221,-654.6677 529.6191,-659.5612 530.6197,-652.633"/>
</g>
<!-- leaf_12 -->
<g id="node13" class="node">
<title>leaf_12</title>
<polygon fill="none" stroke="#c0c0c0" points="1030,-647.7012 538,-647.7012 538,-593.1004 1030,-593.1004 1030,-647.7012"/>
<text text-anchor="middle" x="784" y="-616.6008" font-family="Inconsolata" font-size="14.00" fill="#000000">The hard work is done on this, it&#39;s a matter of translation into the</text>
<text text-anchor="middle" x="784" y="-601.2008" font-family="Inconsolata" font-size="14.00" fill="#000000">Pegylator paradigm.</text>
</g>
<!-- raw_11&#45;&gt;leaf_12 -->
<g id="edge12" class="edge">
<title>raw_11&#45;&gt;leaf_12</title>
<path fill="none" stroke="#000000" stroke-dasharray="5,2" d="M852.0408,-1115.0584C848.626,-1054.4104 835.5375,-854.1892 804,-691.8008 801.8204,-680.5777 798.7459,-668.5483 795.6599,-657.6228"/>
<polygon fill="#000000" stroke="#000000" points="799.0014,-656.579 792.8479,-647.9544 792.2799,-658.534 799.0014,-656.579"/>
</g>
<!-- leaf_14 -->
<g id="node15" class="node">
<title>leaf_14</title>
<polygon fill="none" stroke="#c0c0c0" points="1575.5,-647.7012 1048.5,-647.7012 1048.5,-593.1004 1575.5,-593.1004 1575.5,-647.7012"/>
<text text-anchor="middle" x="1312" y="-616.6008" font-family="Inconsolata" font-size="14.00" fill="#000000">While this a hell of a lot of work, the complete BNF of Lua is available,</text>
<text text-anchor="middle" x="1312" y="-601.2008" font-family="Inconsolata" font-size="14.00" fill="#000000">and reproduced here.</text>
</g>
<!-- raw_13&#45;&gt;leaf_14 -->
<g id="edge14" class="edge">
<title>raw_13&#45;&gt;leaf_14</title>
<path fill="none" stroke="#000000" stroke-dasharray="5,2" d="M941.8434,-1115.3428C924.105,-1049.4025 872.5518,-817.927 983,-691.8008 998.5926,-673.9949 1037.2478,-660.3091 1082.8125,-649.9187"/>
<polygon fill="#000000" stroke="#000000" points="1083.6238,-653.3239 1092.6346,-647.7512 1082.1153,-646.4884 1083.6238,-653.3239"/>
</g>
<!-- leaf_20 -->
<g id="node21" class="node">
<title>leaf_20</title>
<polygon fill="none" stroke="#c0c0c0" points="1728.5,-638.4008 1593.5,-638.4008 1593.5,-602.4008 1728.5,-602.4008 1728.5,-638.4008"/>
<text text-anchor="middle" x="1661" y="-616.9008" font-family="Inconsolata" font-size="14.00" fill="#000000">** Implementation</text>
</g>
<!-- header_16&#45;&gt;leaf_20 -->
<g id="edge20" class="edge">
<title>header_16&#45;&gt;leaf_20</title>
<path fill="none" stroke="#000000" stroke-dasharray="5,2" d="M1661,-1115.047C1661,-1038.3167 1661,-741.6091 1661,-648.511"/>
<polygon fill="#000000" stroke="#000000" points="1664.5001,-648.4364 1661,-638.4365 1657.5001,-648.4365 1664.5001,-648.4364"/>
</g>
<!-- raw_21 -->
<g id="node22" class="node">
<title>raw_21</title>
<ellipse fill="none" stroke="#000000" cx="1774" cy="-620.4008" rx="27" ry="18"/>
<text text-anchor="middle" x="1774" y="-616.2008" font-family="Helvetica,sans-Serif" font-size="14.00" fill="#000000">raw</text>
</g>
<!-- prose_17&#45;&gt;raw_21 -->
<g id="edge21" class="edge">
<title>prose_17&#45;&gt;raw_21</title>
<path fill="none" stroke="#000000" stroke-dasharray="5,2" d="M1793.2882,-1115.047C1790.2962,-1038.3167 1778.7264,-741.6091 1775.0961,-648.511"/>
<polygon fill="#000000" stroke="#000000" points="1778.5904,-648.2925 1774.7033,-638.4365 1771.5957,-648.5653 1778.5904,-648.2925"/>
</g>
<!-- header_23 -->
<g id="node24" class="node">
<title>header_23</title>
<ellipse fill="none" stroke="#000000" cx="1871" cy="-620.4008" rx="51.7605" ry="18"/>
<text text-anchor="middle" x="1871" y="-616.2008" font-family="Helvetica,sans-Serif" font-size="14.00" fill="#000000">3 : Imports</text>
</g>
<!-- section_18&#45;&gt;header_23 -->
<g id="edge23" class="edge">
<title>section_18&#45;&gt;header_23</title>
<path fill="none" stroke="#000000" stroke-dasharray="5,2" d="M1939.4731,-1115.047C1928.8514,-1038.3167 1887.7787,-741.6091 1874.8912,-648.511"/>
<polygon fill="#000000" stroke="#000000" points="1878.3349,-647.8621 1873.4966,-638.4365 1871.401,-648.822 1878.3349,-647.8621"/>
</g>
<!-- prose_24 -->
<g id="node25" class="node">
<title>prose_24</title>
<ellipse fill="none" stroke="#000000" cx="1973" cy="-620.4008" rx="32.4585" ry="18"/>
<text text-anchor="middle" x="1973" y="-616.2008" font-family="Helvetica,sans-Serif" font-size="14.00" fill="#000000">prose</text>
</g>
<!-- section_18&#45;&gt;prose_24 -->
<g id="edge24" class="edge">
<title>section_18&#45;&gt;prose_24</title>
<path fill="none" stroke="#000000" stroke-dasharray="5,2" d="M1943.1033,-1115.047C1947.7409,-1038.3167 1965.6741,-741.6091 1971.301,-648.511"/>
<polygon fill="#000000" stroke="#000000" points="1974.8001,-648.6295 1971.9099,-638.4365 1967.8129,-648.2071 1974.8001,-648.6295"/>
</g>
<!-- codeblock_25 -->
<g id="node26" class="node">
<title>codeblock_25</title>
<ellipse fill="none" stroke="#000000" cx="2145" cy="-620.4008" rx="77.4211" ry="18"/>
<text text-anchor="middle" x="2145" y="-616.2008" font-family="Helvetica,sans-Serif" font-size="14.00" fill="#000000">code block 79&#45;85</text>
</g>
<!-- section_18&#45;&gt;codeblock_25 -->
<g id="edge25" class="edge">
<title>section_18&#45;&gt;codeblock_25</title>
<path fill="none" stroke="#000000" stroke-dasharray="5,2" d="M1949.1058,-1115.3477C1979.3406,-1038.9565 2097.4076,-740.6479 2134.075,-648.004"/>
<polygon fill="#000000" stroke="#000000" points="2137.4208,-649.0609 2137.8466,-638.4746 2130.912,-646.4848 2137.4208,-649.0609"/>
</g>
<!-- header_30 -->
<g id="node31" class="node">
<title>header_30</title>
<ellipse fill="none" stroke="#000000" cx="2426" cy="-620.4008" rx="46.4822" ry="18"/>
<text text-anchor="middle" x="2426" y="-616.2008" font-family="Helvetica,sans-Serif" font-size="14.00" fill="#000000">3 : lua_fn</text>
</g>
<!-- section_19&#45;&gt;header_30 -->
<g id="edge30" class="edge">
<title>section_19&#45;&gt;header_30</title>
<path fill="none" stroke="#000000" stroke-dasharray="5,2" d="M2472.2917,-1115.047C2465.1108,-1038.3167 2437.3433,-741.6091 2428.6307,-648.511"/>
<polygon fill="#000000" stroke="#000000" points="2432.1045,-648.0668 2427.6879,-638.4365 2425.135,-648.7191 2432.1045,-648.0668"/>
</g>
<!-- prose_31 -->
<g id="node32" class="node">
<title>prose_31</title>
<ellipse fill="none" stroke="#000000" cx="2523" cy="-620.4008" rx="32.4585" ry="18"/>
<text text-anchor="middle" x="2523" y="-616.2008" font-family="Helvetica,sans-Serif" font-size="14.00" fill="#000000">prose</text>
</g>
<!-- section_19&#45;&gt;prose_31 -->
<g id="edge31" class="edge">
<title>section_19&#45;&gt;prose_31</title>
<path fill="none" stroke="#000000" stroke-dasharray="5,2" d="M2475.7439,-1115.047C2483.0744,-1038.3167 2511.4204,-741.6091 2520.3145,-648.511"/>
<polygon fill="#000000" stroke="#000000" points="2523.81,-648.724 2521.277,-638.4365 2516.8417,-648.0583 2523.81,-648.724"/>
</g>
<!-- codeblock_32 -->
<g id="node33" class="node">
<title>codeblock_32</title>
<ellipse fill="none" stroke="#000000" cx="2725" cy="-620.4008" rx="82.2579" ry="18"/>
<text text-anchor="middle" x="2725" y="-616.2008" font-family="Helvetica,sans-Serif" font-size="14.00" fill="#000000">code block 94&#45;124</text>
</g>
<!-- section_19&#45;&gt;codeblock_32 -->
<g id="edge32" class="edge">
<title>section_19&#45;&gt;codeblock_32</title>
<path fill="none" stroke="#000000" stroke-dasharray="5,2" d="M2482.786,-1115.3477C2520.2078,-1038.8791 2666.4502,-740.0432 2711.6292,-647.723"/>
<polygon fill="#000000" stroke="#000000" points="2714.9032,-648.9952 2716.1552,-638.4746 2708.6157,-645.9183 2714.9032,-648.9952"/>
</g>
<!-- leaf_22 -->
<g id="node23" class="node">
<title>leaf_22</title>
<polygon fill="none" stroke="#c0c0c0" points="1806.5,-356.1016 1699.5,-356.1016 1699.5,-284.2992 1806.5,-284.2992 1806.5,-356.1016"/>
<text text-anchor="middle" x="1753" y="-308.7004" font-family="Inconsolata" font-size="14.00" fill="#000000">Let&#39;s try it.</text>
</g>
<!-- raw_21&#45;&gt;leaf_22 -->
<g id="edge22" class="edge">
<title>raw_21&#45;&gt;leaf_22</title>
<path fill="none" stroke="#000000" stroke-dasharray="5,2" d="M1772.718,-602.0738C1769.489,-555.9144 1760.9439,-433.7605 1756.232,-366.4031"/>
<polygon fill="#000000" stroke="#000000" points="1759.6995,-365.8145 1755.5101,-356.0832 1752.7166,-366.3031 1759.6995,-365.8145"/>
</g>
<!-- leaf_26 -->
<g id="node27" class="node">
<title>leaf_26</title>
<polygon fill="none" stroke="#c0c0c0" points="1917.5,-338.2004 1824.5,-338.2004 1824.5,-302.2004 1917.5,-302.2004 1917.5,-338.2004"/>
<text text-anchor="middle" x="1871" y="-316.7004" font-family="Inconsolata" font-size="14.00" fill="#000000">*** Imports</text>
</g>
<!-- header_23&#45;&gt;leaf_26 -->
<g id="edge26" class="edge">
<title>header_23&#45;&gt;leaf_26</title>
<path fill="none" stroke="#000000" stroke-dasharray="5,2" d="M1871,-602.0738C1871,-551.3957 1871,-409.1162 1871,-348.3197"/>
<polygon fill="#000000" stroke="#000000" points="1874.5001,-348.2875 1871,-338.2875 1867.5001,-348.2876 1874.5001,-348.2875"/>
</g>
<!-- raw_27 -->
<g id="node28" class="node">
<title>raw_27</title>
<ellipse fill="none" stroke="#000000" cx="1963" cy="-320.2004" rx="27" ry="18"/>
<text text-anchor="middle" x="1963" y="-316.0004" font-family="Helvetica,sans-Serif" font-size="14.00" fill="#000000">raw</text>
</g>
<!-- prose_24&#45;&gt;raw_27 -->
<g id="edge27" class="edge">
<title>prose_24&#45;&gt;raw_27</title>
<path fill="none" stroke="#000000" stroke-dasharray="5,2" d="M1972.3895,-602.0738C1970.7014,-551.3957 1965.9619,-409.1162 1963.9367,-348.3197"/>
<polygon fill="#000000" stroke="#000000" points="1967.4336,-348.1654 1963.6025,-338.2875 1960.4375,-348.3985 1967.4336,-348.1654"/>
</g>
<!-- leaf_29 -->
<g id="node30" class="node">
<title>leaf_29</title>
<polygon fill="none" stroke="#c0c0c0" points="2367.5,-362.8015 2008.5,-362.8015 2008.5,-277.5994 2367.5,-277.5994 2367.5,-362.8015"/>
<text text-anchor="middle" x="2188" y="-347.8005" font-family="Inconsolata" font-size="14.00" fill="#000000">local Node &#160;&#160;&#160;= &#160;require &quot;espalier/node&quot;</text>
<text text-anchor="middle" x="2188" y="-332.4004" font-family="Inconsolata" font-size="14.00" fill="#000000">local Grammar = &#160;require &quot;espalier/grammar&quot;</text>
<text text-anchor="middle" x="2188" y="-317.0004" font-family="Inconsolata" font-size="14.00" fill="#000000">local L &#160;&#160;&#160;&#160;&#160;&#160;= &#160;require &quot;espalier/elpatt&quot;</text>
<text text-anchor="middle" x="2188" y="-285.6004" font-family="Inconsolata" font-size="14.00" fill="#000000">local P, R, E, V, S &#160;&#160;&#160;= &#160;L.P, L.R, L.E, L.V, L.S</text>
</g>
<!-- codeblock_25&#45;&gt;leaf_29 -->
<g id="edge29" class="edge">
<title>codeblock_25&#45;&gt;leaf_29</title>
<path fill="none" stroke="#000000" stroke-dasharray="5,2" d="M2147.6251,-602.0738C2154.025,-557.3935 2170.6238,-441.511 2180.431,-373.0428"/>
<polygon fill="#000000" stroke="#000000" points="2183.932,-373.2845 2181.8853,-362.8893 2177.0027,-372.2919 2183.932,-373.2845"/>
</g>
<!-- leaf_28 -->
<g id="node29" class="node">
<title>leaf_28</title>
<polygon fill="none" stroke="#c0c0c0" points="1990,-45.7 1936,-45.7 1936,-9.7 1990,-9.7 1990,-45.7"/>
</g>
<!-- raw_27&#45;&gt;leaf_28 -->
<g id="edge28" class="edge">
<title>raw_27&#45;&gt;leaf_28</title>
<path fill="none" stroke="#000000" stroke-dasharray="5,2" d="M1963,-301.9032C1963,-252.452 1963,-115.8525 1963,-56.1958"/>
<polygon fill="#000000" stroke="#000000" points="1966.5001,-55.9903 1963,-45.9903 1959.5001,-55.9903 1966.5001,-55.9903"/>
</g>
<!-- leaf_33 -->
<g id="node34" class="node">
<title>leaf_33</title>
<polygon fill="none" stroke="#c0c0c0" points="2472,-338.2004 2386,-338.2004 2386,-302.2004 2472,-302.2004 2472,-338.2004"/>
<text text-anchor="middle" x="2429" y="-316.7004" font-family="Inconsolata" font-size="14.00" fill="#000000">*** lua_fn</text>
</g>
<!-- header_30&#45;&gt;leaf_33 -->
<g id="edge33" class="edge">
<title>header_30&#45;&gt;leaf_33</title>
<path fill="none" stroke="#000000" stroke-dasharray="5,2" d="M2426.1831,-602.0738C2426.6896,-551.3957 2428.1114,-409.1162 2428.719,-348.3197"/>
<polygon fill="#000000" stroke="#000000" points="2432.219,-348.322 2428.8192,-338.2875 2425.2194,-348.252 2432.219,-348.322"/>
</g>
<!-- raw_34 -->
<g id="node35" class="node">
<title>raw_34</title>
<ellipse fill="none" stroke="#000000" cx="2521" cy="-320.2004" rx="27" ry="18"/>
<text text-anchor="middle" x="2521" y="-316.0004" font-family="Helvetica,sans-Serif" font-size="14.00" fill="#000000">raw</text>
</g>
<!-- prose_31&#45;&gt;raw_34 -->
<g id="edge34" class="edge">
<title>prose_31&#45;&gt;raw_34</title>
<path fill="none" stroke="#000000" stroke-dasharray="5,2" d="M2522.8779,-602.0738C2522.5403,-551.3957 2521.5924,-409.1162 2521.1873,-348.3197"/>
<polygon fill="#000000" stroke="#000000" points="2524.6871,-348.2639 2521.1205,-338.2875 2517.6873,-348.3106 2524.6871,-348.2639"/>
</g>
<!-- leaf_36 -->
<g id="node37" class="node">
<title>leaf_36</title>
<polygon fill="none" stroke="#c0c0c0" points="3023.5,-548.8013 2566.5,-548.8013 2566.5,-91.5995 3023.5,-91.5995 3023.5,-548.8013"/>
<text text-anchor="middle" x="2795" y="-517.8008" font-family="Inconsolata" font-size="14.00" fill="#000000">local _do, _end, _then = P&quot;do&quot;, P&quot;end&quot;, P&quot;then&quot;</text>
<text text-anchor="middle" x="2795" y="-486.4007" font-family="Inconsolata" font-size="14.00" fill="#000000">local function lua_fn(ENV)</text>
<text text-anchor="middle" x="2795" y="-471.0007" font-family="Inconsolata" font-size="14.00" fill="#000000"> &#160;&#160;START &quot;lua&quot;</text>
<text text-anchor="middle" x="2795" y="-455.6007" font-family="Inconsolata" font-size="14.00" fill="#000000"> &#160;&#160;lua &#160;&#160;= V&quot;chunk&quot;^1</text>
<text text-anchor="middle" x="2795" y="-440.2007" font-family="Inconsolata" font-size="14.00" fill="#000000"> &#160;&#160;chunk = (V&quot;stat&quot; * P&quot;;&quot;^0) * (V&quot;laststat&quot;^0 * P&quot;;&quot;^0)^&#45;1</text>
<text text-anchor="middle" x="2795" y="-424.8006" font-family="Inconsolata" font-size="14.00" fill="#000000"> &#160;&#160;block = V&quot;chunk&quot;</text>
<text text-anchor="middle" x="2795" y="-393.4006" font-family="Inconsolata" font-size="14.00" fill="#000000"> &#160;&#160;stat &#160;= V&quot;varlist&quot; * P&quot;=&quot; * V&quot;explist&quot; +</text>
<text text-anchor="middle" x="2795" y="-378.0006" font-family="Inconsolata" font-size="14.00" fill="#000000"> &#160;&#160;&#160;&#160;&#160;&#160;&#160;&#160;&#160;&#160;V&quot;functioncall&quot; +</text>
<text text-anchor="middle" x="2795" y="-362.6005" font-family="Inconsolata" font-size="14.00" fill="#000000"> &#160;&#160;&#160;&#160;&#160;&#160;&#160;&#160;&#160;&#160;_do * V&quot;block&quot; * _end +</text>
<text text-anchor="middle" x="2795" y="-347.2005" font-family="Inconsolata" font-size="14.00" fill="#000000"> &#160;&#160;&#160;&#160;&#160;&#160;&#160;&#160;&#160;&#160;P&quot;while&quot; * V&quot;exp&quot; * _do * V&quot;block&quot; * _end +</text>
<text text-anchor="middle" x="2795" y="-331.8005" font-family="Inconsolata" font-size="14.00" fill="#000000"> &#160;&#160;&#160;&#160;&#160;&#160;&#160;&#160;&#160;&#160;P&quot;repeat&quot; * V&quot;block&quot; * P&quot;until&quot; * _end +</text>
<text text-anchor="middle" x="2795" y="-316.4004" font-family="Inconsolata" font-size="14.00" fill="#000000"> &#160;&#160;&#160;&#160;&#160;&#160;&#160;&#160;&#160;&#160;P&quot;if&quot; * V&quot;exp&quot; * _then * V&quot;block&quot; *</text>
<text text-anchor="middle" x="2795" y="-301.0004" font-family="Inconsolata" font-size="14.00" fill="#000000"> &#160;&#160;&#160;&#160;&#160;&#160;&#160;&#160;&#160;&#160;&#160;&#160;&#160;( P&quot;elseif&quot; V&quot;exp&quot; * _then * V&quot;block&quot; )^0 *</text>
<text text-anchor="middle" x="2795" y="-285.6004" font-family="Inconsolata" font-size="14.00" fill="#000000"> &#160;&#160;&#160;&#160;&#160;&#160;&#160;&#160;&#160;&#160;&#160;&#160;&#160;( P&quot;else&quot; * V&quot;block&quot; )^&#45;1 * _end +</text>
<text text-anchor="middle" x="2795" y="-270.2003" font-family="Inconsolata" font-size="14.00" fill="#000000"> &#160;&#160;&#160;&#160;&#160;&#160;&#160;&#160;&#160;&#160;P&quot;for&quot; * V&quot;Name&quot; * P&quot;=&quot; * V&quot;exp&quot; * P&quot;,&quot; * V&quot;exp&quot; *</text>
<text text-anchor="middle" x="2795" y="-254.8003" font-family="Inconsolata" font-size="14.00" fill="#000000"> &#160;&#160;&#160;&#160;&#160;&#160;&#160;&#160;&#160;&#160;&#160;&#160;&#160;( P&quot;,&quot; * V&quot;exp&quot; )^&#45;1 * _do * V&quot;block&quot; * _end +</text>
<text text-anchor="middle" x="2795" y="-239.4003" font-family="Inconsolata" font-size="14.00" fill="#000000"> &#160;&#160;&#160;&#160;&#160;&#160;&#160;&#160;&#160;&#160;P&quot;for&quot; * V&quot;namelist&quot; * P&quot;in&quot; * V&quot;explist&quot; * _do *</text>
<text text-anchor="middle" x="2795" y="-224.0002" font-family="Inconsolata" font-size="14.00" fill="#000000"> &#160;&#160;&#160;&#160;&#160;&#160;&#160;&#160;&#160;&#160;&#160;&#160;&#160;V&quot;block&quot; * _end +</text>
<text text-anchor="middle" x="2795" y="-208.6002" font-family="Inconsolata" font-size="14.00" fill="#000000"> &#160;&#160;&#160;&#160;&#160;&#160;&#160;&#160;&#160;&#160;P&quot;function&quot; * V&quot;funcname&quot; * V&quot;funcbody&quot; +</text>
<text text-anchor="middle" x="2795" y="-193.2002" font-family="Inconsolata" font-size="14.00" fill="#000000"> &#160;&#160;&#160;&#160;&#160;&#160;&#160;&#160;&#160;&#160;P&quot;local&quot; * P&quot;function&quot; * V&quot;Name&quot; * V&quot;funcbody&quot; +</text>
<text text-anchor="middle" x="2795" y="-177.8002" font-family="Inconsolata" font-size="14.00" fill="#000000"> &#160;&#160;&#160;&#160;&#160;&#160;&#160;&#160;&#160;&#160;P&quot;local&quot; * V&quot;namelist&quot; * ( P&quot;=&quot; * V&quot;explist&quot; )^&#45;1</text>
<text text-anchor="middle" x="2795" y="-146.4001" font-family="Inconsolata" font-size="14.00" fill="#000000"> &#160;&#160;laststat = P&quot;return&quot; * V&quot;explist&quot;^&#45;1 + P&quot;break&quot;</text>
<text text-anchor="middle" x="2795" y="-115.0001" font-family="Inconsolata" font-size="14.00" fill="#000000"> &#160;&#160;funcname = V&quot;Name&quot; * ( P&quot;.&quot; * V&quot;Name&quot; )^0 * ( P&quot;:&quot; V&quot;Name&quot; )</text>
<text text-anchor="middle" x="2795" y="-99.6001" font-family="Inconsolata" font-size="14.00" fill="#000000">end</text>
</g>
<!-- codeblock_32&#45;&gt;leaf_36 -->
<g id="edge36" class="edge">
<title>codeblock_32&#45;&gt;leaf_36</title>
<path fill="none" stroke="#000000" stroke-dasharray="5,2" d="M2729.2734,-602.0738C2731.7905,-591.2791 2735.2767,-576.3284 2739.3419,-558.8943"/>
<polygon fill="#000000" stroke="#000000" points="2742.7951,-559.4974 2741.6575,-548.9638 2735.978,-557.9077 2742.7951,-559.4974"/>
</g>
<!-- leaf_35 -->
<g id="node36" class="node">
<title>leaf_35</title>
<polygon fill="none" stroke="#c0c0c0" points="2746,-55.6015 2296,-55.6015 2296,.2015 2746,.2015 2746,-55.6015"/>
<text text-anchor="middle" x="2521" y="-8.2" font-family="Inconsolata" font-size="14.00" fill="#000000">This is provided to the Grammar engine to create a Lua parser.</text>
</g>
<!-- raw_34&#45;&gt;leaf_35 -->
<g id="edge35" class="edge">
<title>raw_34&#45;&gt;leaf_35</title>
<path fill="none" stroke="#000000" stroke-dasharray="5,2" d="M2521,-301.9032C2521,-254.8691 2521,-128.9979 2521,-65.4759"/>
<polygon fill="#000000" stroke="#000000" points="2524.5001,-65.4711 2521,-55.4711 2517.5001,-65.4712 2524.5001,-65.4711"/>
</g>
</g>
</svg>
