<?xml version="1.0" encoding="UTF-8" standalone="no"?>
<!DOCTYPE svg PUBLIC "-//W3C//DTD SVG 1.1//EN"
 "http://www.w3.org/Graphics/SVG/1.1/DTD/svg11.dtd">
<!-- Generated by graphviz version 2.40.1 (20161225.0304)
 -->
<!-- Title: lpegNode Pages: 1 -->
<svg width="2772pt" height="1442pt"
 viewBox="0.00 0.00 2772.00 1442.20" xmlns="http://www.w3.org/2000/svg" xmlns:xlink="http://www.w3.org/1999/xlink">
<g id="graph0" class="graph" transform="scale(1 1) rotate(0) translate(4 1438.2013)">
<title>lpegNode</title>
<polygon fill="#ffffff" stroke="transparent" points="-4,4 -4,-1438.2013 2768,-1438.2013 2768,4 -4,4"/>
<!-- doc_0 -->
<g id="node1" class="node">
<title>doc_0</title>
<ellipse fill="none" stroke="#000000" cx="906" cy="-1416.2013" rx="46.1547" ry="18"/>
<text text-anchor="middle" x="906" y="-1412.0013" font-family="Helvetica,sans-Serif" font-size="14.00" fill="#000000">doc &#45; 115</text>
</g>
<!-- section_1 -->
<g id="node2" class="node">
<title>section_1</title>
<ellipse fill="none" stroke="#000000" cx="906" cy="-1344.2013" rx="60.9826" ry="18"/>
<text text-anchor="middle" x="906" y="-1340.0013" font-family="Helvetica,sans-Serif" font-size="14.00" fill="#000000">section: 1&#45;71</text>
</g>
<!-- doc_0&#45;&gt;section_1 -->
<g id="edge1" class="edge">
<title>doc_0&#45;&gt;section_1</title>
<path fill="none" stroke="#000000" stroke-dasharray="5,2" d="M906,-1398.0327C906,-1390.3323 906,-1381.1757 906,-1372.618"/>
<polygon fill="#000000" stroke="#000000" points="909.5001,-1372.6146 906,-1362.6146 902.5001,-1372.6146 909.5001,-1372.6146"/>
</g>
<!-- header_2 -->
<g id="node3" class="node">
<title>header_2</title>
<ellipse fill="none" stroke="#000000" cx="633" cy="-1272.2013" rx="100.1143" ry="18"/>
<text text-anchor="middle" x="633" y="-1268.0013" font-family="Helvetica,sans-Serif" font-size="14.00" fill="#000000">1 : A Grammar For Lua</text>
</g>
<!-- section_1&#45;&gt;header_2 -->
<g id="edge2" class="edge">
<title>section_1&#45;&gt;header_2</title>
<path fill="none" stroke="#000000" stroke-dasharray="5,2" d="M860.6131,-1332.2312C816.549,-1320.6099 749.1718,-1302.8401 699.1453,-1289.6463"/>
<polygon fill="#000000" stroke="#000000" points="699.9453,-1286.2376 689.3834,-1287.0717 698.1602,-1293.0062 699.9453,-1286.2376"/>
</g>
<!-- prose_3 -->
<g id="node4" class="node">
<title>prose_3</title>
<ellipse fill="none" stroke="#000000" cx="783" cy="-1272.2013" rx="32.4585" ry="18"/>
<text text-anchor="middle" x="783" y="-1268.0013" font-family="Helvetica,sans-Serif" font-size="14.00" fill="#000000">prose</text>
</g>
<!-- section_1&#45;&gt;prose_3 -->
<g id="edge3" class="edge">
<title>section_1&#45;&gt;prose_3</title>
<path fill="none" stroke="#000000" stroke-dasharray="5,2" d="M878.3964,-1328.0431C859.3555,-1316.8973 834.0105,-1302.0612 814.2307,-1290.4827"/>
<polygon fill="#000000" stroke="#000000" points="815.9752,-1287.4484 805.5769,-1285.4171 812.4389,-1293.4895 815.9752,-1287.4484"/>
</g>
<!-- prose_4 -->
<g id="node5" class="node">
<title>prose_4</title>
<ellipse fill="none" stroke="#000000" cx="865" cy="-1272.2013" rx="32.4585" ry="18"/>
<text text-anchor="middle" x="865" y="-1268.0013" font-family="Helvetica,sans-Serif" font-size="14.00" fill="#000000">prose</text>
</g>
<!-- section_1&#45;&gt;prose_4 -->
<g id="edge4" class="edge">
<title>section_1&#45;&gt;prose_4</title>
<path fill="none" stroke="#000000" stroke-dasharray="5,2" d="M895.8652,-1326.4036C891.0632,-1317.9709 885.2315,-1307.7299 879.9358,-1298.4301"/>
<polygon fill="#000000" stroke="#000000" points="882.8667,-1296.5038 874.8768,-1289.5459 876.7838,-1299.9677 882.8667,-1296.5038"/>
</g>
<!-- prose_5 -->
<g id="node6" class="node">
<title>prose_5</title>
<ellipse fill="none" stroke="#000000" cx="947" cy="-1272.2013" rx="32.4585" ry="18"/>
<text text-anchor="middle" x="947" y="-1268.0013" font-family="Helvetica,sans-Serif" font-size="14.00" fill="#000000">prose</text>
</g>
<!-- section_1&#45;&gt;prose_5 -->
<g id="edge5" class="edge">
<title>section_1&#45;&gt;prose_5</title>
<path fill="none" stroke="#000000" stroke-dasharray="5,2" d="M916.1348,-1326.4036C920.9368,-1317.9709 926.7685,-1307.7299 932.0642,-1298.4301"/>
<polygon fill="#000000" stroke="#000000" points="935.2162,-1299.9677 937.1232,-1289.5459 929.1333,-1296.5038 935.2162,-1299.9677"/>
</g>
<!-- codeblock_6 -->
<g id="node7" class="node">
<title>codeblock_6</title>
<ellipse fill="none" stroke="#000000" cx="1159" cy="-1272.2013" rx="77.4211" ry="18"/>
<text text-anchor="middle" x="1159" y="-1268.0013" font-family="Helvetica,sans-Serif" font-size="14.00" fill="#000000">code block 12&#45;69</text>
</g>
<!-- section_1&#45;&gt;codeblock_6 -->
<g id="edge6" class="edge">
<title>section_1&#45;&gt;codeblock_6</title>
<path fill="none" stroke="#000000" stroke-dasharray="5,2" d="M950.0692,-1331.6599C991.6167,-1319.8361 1054.1765,-1302.0325 1100.0114,-1288.9886"/>
<polygon fill="#000000" stroke="#000000" points="1101.1557,-1292.302 1109.8158,-1286.1984 1099.2397,-1285.5693 1101.1557,-1292.302"/>
</g>
<!-- section_7 -->
<g id="node8" class="node">
<title>section_7</title>
<ellipse fill="none" stroke="#000000" cx="1794" cy="-1272.2013" rx="65.8187" ry="18"/>
<text text-anchor="middle" x="1794" y="-1268.0013" font-family="Helvetica,sans-Serif" font-size="14.00" fill="#000000">section: 72&#45;87</text>
</g>
<!-- section_1&#45;&gt;section_7 -->
<g id="edge7" class="edge">
<title>section_1&#45;&gt;section_7</title>
<path fill="none" stroke="#000000" stroke-dasharray="5,2" d="M964.6076,-1339.4494C1121.1589,-1326.756 1548.8671,-1292.077 1720.901,-1278.1283"/>
<polygon fill="#000000" stroke="#000000" points="1721.189,-1281.6165 1730.8734,-1277.3197 1720.6232,-1274.6394 1721.189,-1281.6165"/>
</g>
<!-- leaf_8 -->
<g id="node9" class="node">
<title>leaf_8</title>
<polygon fill="none" stroke="#c0c0c0" points="707.5,-794.7008 558.5,-794.7008 558.5,-758.7008 707.5,-758.7008 707.5,-794.7008"/>
<text text-anchor="middle" x="633" y="-773.2008" font-family="Inconsolata" font-size="14.00" fill="#000000">* A Grammar For Lua</text>
</g>
<!-- header_2&#45;&gt;leaf_8 -->
<g id="edge8" class="edge">
<title>header_2&#45;&gt;leaf_8</title>
<path fill="none" stroke="#000000" stroke-dasharray="5,2" d="M633,-1253.9786C633,-1179.233 633,-895.8113 633,-804.9289"/>
<polygon fill="#000000" stroke="#000000" points="636.5001,-804.8271 633,-794.8271 629.5001,-804.8272 636.5001,-804.8271"/>
</g>
<!-- raw_9 -->
<g id="node10" class="node">
<title>raw_9</title>
<ellipse fill="none" stroke="#000000" cx="768" cy="-776.7008" rx="27" ry="18"/>
<text text-anchor="middle" x="768" y="-772.5008" font-family="Helvetica,sans-Serif" font-size="14.00" fill="#000000">raw</text>
</g>
<!-- prose_3&#45;&gt;raw_9 -->
<g id="edge9" class="edge">
<title>prose_3&#45;&gt;raw_9</title>
<path fill="none" stroke="#000000" stroke-dasharray="5,2" d="M782.4484,-1253.9786C780.1856,-1179.233 771.6058,-895.8113 768.8545,-804.9289"/>
<polygon fill="#000000" stroke="#000000" points="772.3498,-804.7166 768.5487,-794.8271 765.353,-804.9285 772.3498,-804.7166"/>
</g>
<!-- raw_11 -->
<g id="node12" class="node">
<title>raw_11</title>
<ellipse fill="none" stroke="#000000" cx="853" cy="-776.7008" rx="27" ry="18"/>
<text text-anchor="middle" x="853" y="-772.5008" font-family="Helvetica,sans-Serif" font-size="14.00" fill="#000000">raw</text>
</g>
<!-- prose_4&#45;&gt;raw_11 -->
<g id="edge11" class="edge">
<title>prose_4&#45;&gt;raw_11</title>
<path fill="none" stroke="#000000" stroke-dasharray="5,2" d="M864.5587,-1253.9786C862.7485,-1179.233 855.8846,-895.8113 853.6836,-804.9289"/>
<polygon fill="#000000" stroke="#000000" points="857.1802,-804.7394 853.439,-794.8271 850.1822,-804.909 857.1802,-804.7394"/>
</g>
<!-- raw_13 -->
<g id="node14" class="node">
<title>raw_13</title>
<ellipse fill="none" stroke="#000000" cx="947" cy="-776.7008" rx="27" ry="18"/>
<text text-anchor="middle" x="947" y="-772.5008" font-family="Helvetica,sans-Serif" font-size="14.00" fill="#000000">raw</text>
</g>
<!-- prose_5&#45;&gt;raw_13 -->
<g id="edge13" class="edge">
<title>prose_5&#45;&gt;raw_13</title>
<path fill="none" stroke="#000000" stroke-dasharray="5,2" d="M947,-1253.9786C947,-1179.233 947,-895.8113 947,-804.9289"/>
<polygon fill="#000000" stroke="#000000" points="950.5001,-804.8271 947,-794.8271 943.5001,-804.8272 950.5001,-804.8271"/>
</g>
<!-- leaf_15 -->
<g id="node16" class="node">
<title>leaf_15</title>
<polygon fill="none" stroke="#c0c0c0" points="1491.5,-1218.2019 992.5,-1218.2019 992.5,-335.1997 1491.5,-335.1997 1491.5,-1218.2019"/>
<text text-anchor="middle" x="1242" y="-1203.0013" font-family="Inconsolata" font-size="14.00" fill="#000000">chunk ::= {stat [`;´]} [laststat [`;´]]</text>
<text text-anchor="middle" x="1242" y="-1171.6013" font-family="Inconsolata" font-size="14.00" fill="#000000"> &#160;&#160;block ::= chunk</text>
<text text-anchor="middle" x="1242" y="-1140.2013" font-family="Inconsolata" font-size="14.00" fill="#000000"> &#160;&#160;stat ::= &#160;varlist `=´ explist |</text>
<text text-anchor="middle" x="1242" y="-1124.8012" font-family="Inconsolata" font-size="14.00" fill="#000000"> &#160;&#160;&#160;&#160;&#160;&#160;functioncall |</text>
<text text-anchor="middle" x="1242" y="-1109.4012" font-family="Inconsolata" font-size="14.00" fill="#000000"> &#160;&#160;&#160;&#160;&#160;&#160;do block end |</text>
<text text-anchor="middle" x="1242" y="-1094.0012" font-family="Inconsolata" font-size="14.00" fill="#000000"> &#160;&#160;&#160;&#160;&#160;&#160;while exp do block end |</text>
<text text-anchor="middle" x="1242" y="-1078.6012" font-family="Inconsolata" font-size="14.00" fill="#000000"> &#160;&#160;&#160;&#160;&#160;&#160;repeat block until exp |</text>
<text text-anchor="middle" x="1242" y="-1063.2011" font-family="Inconsolata" font-size="14.00" fill="#000000"> &#160;&#160;&#160;&#160;&#160;&#160;if exp then block {elseif exp then block} [else block] end |</text>
<text text-anchor="middle" x="1242" y="-1047.8011" font-family="Inconsolata" font-size="14.00" fill="#000000"> &#160;&#160;&#160;&#160;&#160;&#160;for Name `=´ exp `,´ exp [`,´ exp] do block end |</text>
<text text-anchor="middle" x="1242" y="-1032.4011" font-family="Inconsolata" font-size="14.00" fill="#000000"> &#160;&#160;&#160;&#160;&#160;&#160;for namelist in explist do block end |</text>
<text text-anchor="middle" x="1242" y="-1017.001" font-family="Inconsolata" font-size="14.00" fill="#000000"> &#160;&#160;&#160;&#160;&#160;&#160;function funcname funcbody |</text>
<text text-anchor="middle" x="1242" y="-1001.601" font-family="Inconsolata" font-size="14.00" fill="#000000"> &#160;&#160;&#160;&#160;&#160;&#160;local function Name funcbody |</text>
<text text-anchor="middle" x="1242" y="-986.201" font-family="Inconsolata" font-size="14.00" fill="#000000"> &#160;&#160;&#160;&#160;&#160;&#160;local namelist [`=´ explist]</text>
<text text-anchor="middle" x="1242" y="-954.8009" font-family="Inconsolata" font-size="14.00" fill="#000000"> &#160;&#160;laststat ::= return [explist] | break</text>
<text text-anchor="middle" x="1242" y="-923.4009" font-family="Inconsolata" font-size="14.00" fill="#000000"> &#160;&#160;funcname ::= Name {`.´ Name} [`:´ Name]</text>
<text text-anchor="middle" x="1242" y="-892.0009" font-family="Inconsolata" font-size="14.00" fill="#000000"> &#160;&#160;varlist ::= var {`,´ var}</text>
<text text-anchor="middle" x="1242" y="-860.6008" font-family="Inconsolata" font-size="14.00" fill="#000000"> &#160;&#160;var ::= &#160;Name | prefixexp `[´ exp `]´ | prefixexp `.´ Name</text>
<text text-anchor="middle" x="1242" y="-829.2008" font-family="Inconsolata" font-size="14.00" fill="#000000"> &#160;&#160;namelist ::= Name {`,´ Name}</text>
<text text-anchor="middle" x="1242" y="-797.8008" font-family="Inconsolata" font-size="14.00" fill="#000000"> &#160;&#160;explist ::= {exp `,´} exp</text>
<text text-anchor="middle" x="1242" y="-766.4007" font-family="Inconsolata" font-size="14.00" fill="#000000"> &#160;&#160;exp ::= &#160;nil | false | true | Number | String | `...´ | function |</text>
<text text-anchor="middle" x="1242" y="-751.0007" font-family="Inconsolata" font-size="14.00" fill="#000000"> &#160;&#160;&#160;&#160;&#160;&#160;prefixexp | tableconstructor | exp binop exp | unop exp</text>
<text text-anchor="middle" x="1242" y="-719.6007" font-family="Inconsolata" font-size="14.00" fill="#000000"> &#160;&#160;prefixexp ::= var | functioncall | `(´ exp `)´</text>
<text text-anchor="middle" x="1242" y="-688.2007" font-family="Inconsolata" font-size="14.00" fill="#000000"> &#160;&#160;functioncall ::= &#160;prefixexp args | prefixexp `:´ Name args</text>
<text text-anchor="middle" x="1242" y="-656.8006" font-family="Inconsolata" font-size="14.00" fill="#000000"> &#160;&#160;args ::= &#160;`(´ [explist] `)´ | tableconstructor | String</text>
<text text-anchor="middle" x="1242" y="-625.4006" font-family="Inconsolata" font-size="14.00" fill="#000000"> &#160;&#160;function ::= function funcbody</text>
<text text-anchor="middle" x="1242" y="-594.0006" font-family="Inconsolata" font-size="14.00" fill="#000000"> &#160;&#160;funcbody ::= `(´ [parlist] `)´ block end</text>
<text text-anchor="middle" x="1242" y="-562.6005" font-family="Inconsolata" font-size="14.00" fill="#000000"> &#160;&#160;parlist ::= namelist [`,´ `...´] | `...´</text>
<text text-anchor="middle" x="1242" y="-531.2005" font-family="Inconsolata" font-size="14.00" fill="#000000"> &#160;&#160;tableconstructor ::= `{´ [fieldlist] `}´</text>
<text text-anchor="middle" x="1242" y="-499.8005" font-family="Inconsolata" font-size="14.00" fill="#000000"> &#160;&#160;fieldlist ::= field {fieldsep field} [fieldsep]</text>
<text text-anchor="middle" x="1242" y="-468.4004" font-family="Inconsolata" font-size="14.00" fill="#000000"> &#160;&#160;field ::= `[´ exp `]´ `=´ exp | Name `=´ exp | exp</text>
<text text-anchor="middle" x="1242" y="-437.0004" font-family="Inconsolata" font-size="14.00" fill="#000000"> &#160;&#160;fieldsep ::= `,´ | `;´</text>
<text text-anchor="middle" x="1242" y="-405.6004" font-family="Inconsolata" font-size="14.00" fill="#000000"> &#160;&#160;binop ::= `+´ | `&#45;´ | `*´ | `/´ | `^´ | `%´ | `..´ |</text>
<text text-anchor="middle" x="1242" y="-390.2003" font-family="Inconsolata" font-size="14.00" fill="#000000"> &#160;&#160;&#160;&#160;&#160;&#160;`&lt;´ | `&lt;=´ | `&gt;´ | `&gt;=´ | `==´ | `~=´ |</text>
<text text-anchor="middle" x="1242" y="-374.8003" font-family="Inconsolata" font-size="14.00" fill="#000000"> &#160;&#160;&#160;&#160;&#160;&#160;and | or</text>
<text text-anchor="middle" x="1242" y="-343.4003" font-family="Inconsolata" font-size="14.00" fill="#000000"> &#160;&#160;unop ::= `&#45;´ | not | `#´</text>
</g>
<!-- codeblock_6&#45;&gt;leaf_15 -->
<g id="edge15" class="edge">
<title>codeblock_6&#45;&gt;leaf_15</title>
<path fill="none" stroke="#000000" stroke-dasharray="5,2" d="M1162.0524,-1253.9786C1163.205,-1247.0983 1164.6536,-1238.4498 1166.3461,-1228.3461"/>
<polygon fill="#000000" stroke="#000000" points="1169.8415,-1228.6643 1168.0417,-1218.2235 1162.9376,-1227.5078 1169.8415,-1228.6643"/>
</g>
<!-- header_16 -->
<g id="node17" class="node">
<title>header_16</title>
<ellipse fill="none" stroke="#000000" cx="1661" cy="-776.7008" rx="82.7165" ry="18"/>
<text text-anchor="middle" x="1661" y="-772.5008" font-family="Helvetica,sans-Serif" font-size="14.00" fill="#000000">2 : Implementation</text>
</g>
<!-- section_7&#45;&gt;header_16 -->
<g id="edge16" class="edge">
<title>section_7&#45;&gt;header_16</title>
<path fill="none" stroke="#000000" stroke-dasharray="5,2" d="M1777.3653,-1254.5307C1768.8589,-1244.5689 1759.0504,-1231.4843 1753,-1218.2013 1686.4734,-1072.1503 1667.4995,-876.933 1662.5789,-804.9185"/>
<polygon fill="#000000" stroke="#000000" points="1666.0644,-804.5792 1661.9277,-794.8253 1659.0789,-805.0299 1666.0644,-804.5792"/>
</g>
<!-- prose_17 -->
<g id="node18" class="node">
<title>prose_17</title>
<ellipse fill="none" stroke="#000000" cx="1794" cy="-776.7008" rx="32.4585" ry="18"/>
<text text-anchor="middle" x="1794" y="-772.5008" font-family="Helvetica,sans-Serif" font-size="14.00" fill="#000000">prose</text>
</g>
<!-- section_7&#45;&gt;prose_17 -->
<g id="edge17" class="edge">
<title>section_7&#45;&gt;prose_17</title>
<path fill="none" stroke="#000000" stroke-dasharray="5,2" d="M1794,-1253.9786C1794,-1179.233 1794,-895.8113 1794,-804.9289"/>
<polygon fill="#000000" stroke="#000000" points="1797.5001,-804.8271 1794,-794.8271 1790.5001,-804.8272 1797.5001,-804.8271"/>
</g>
<!-- section_18 -->
<g id="node19" class="node">
<title>section_18</title>
<ellipse fill="none" stroke="#000000" cx="1942" cy="-776.7008" rx="65.8187" ry="18"/>
<text text-anchor="middle" x="1942" y="-772.5008" font-family="Helvetica,sans-Serif" font-size="14.00" fill="#000000">section: 77&#45;87</text>
</g>
<!-- section_7&#45;&gt;section_18 -->
<g id="edge18" class="edge">
<title>section_7&#45;&gt;section_18</title>
<path fill="none" stroke="#000000" stroke-dasharray="5,2" d="M1810.4641,-1254.4514C1818.9205,-1244.4662 1828.7356,-1231.3848 1835,-1218.2013 1904.3824,-1072.1849 1931.2555,-876.9468 1939.2114,-804.9226"/>
<polygon fill="#000000" stroke="#000000" points="1942.7076,-805.1434 1940.2903,-794.828 1935.7473,-804.3994 1942.7076,-805.1434"/>
</g>
<!-- section_19 -->
<g id="node20" class="node">
<title>section_19</title>
<ellipse fill="none" stroke="#000000" cx="2474" cy="-776.7008" rx="69.851" ry="18"/>
<text text-anchor="middle" x="2474" y="-772.5008" font-family="Helvetica,sans-Serif" font-size="14.00" fill="#000000">section: 88&#45;115</text>
</g>
<!-- section_7&#45;&gt;section_19 -->
<g id="edge19" class="edge">
<title>section_7&#45;&gt;section_19</title>
<path fill="none" stroke="#000000" stroke-dasharray="5,2" d="M1855.8423,-1266.1115C1902.4637,-1259.4762 1966.7397,-1245.8459 2017,-1218.2013 2220.8321,-1106.0881 2398.9452,-879.1087 2455.406,-802.5699"/>
<polygon fill="#000000" stroke="#000000" points="2458.3002,-804.5415 2461.3863,-794.4061 2452.6533,-800.4048 2458.3002,-804.5415"/>
</g>
<!-- leaf_10 -->
<g id="node11" class="node">
<title>leaf_10</title>
<polygon fill="none" stroke="#c0c0c0" points="520,-299.1006 0,-299.1006 0,-228.4999 520,-228.4999 520,-299.1006"/>
<text text-anchor="middle" x="260" y="-252.0002" font-family="Inconsolata" font-size="14.00" fill="#000000">While the most important grammar for pegylator is pegylator itself, it&#39;s</text>
<text text-anchor="middle" x="260" y="-236.6002" font-family="Inconsolata" font-size="14.00" fill="#000000">time to make a Lua language parser.</text>
</g>
<!-- raw_9&#45;&gt;leaf_10 -->
<g id="edge10" class="edge">
<title>raw_9&#45;&gt;leaf_10</title>
<path fill="none" stroke="#000000" stroke-dasharray="5,2" d="M772.5081,-758.8764C788.1448,-692.422 832.9523,-456.6929 716,-335.2002 708.4103,-327.3159 624.2385,-313.156 530.2361,-299.5133"/>
<polygon fill="#000000" stroke="#000000" points="530.6197,-296.0325 520.2221,-298.0671 529.6191,-302.9606 530.6197,-296.0325"/>
</g>
<!-- leaf_12 -->
<g id="node13" class="node">
<title>leaf_12</title>
<polygon fill="none" stroke="#c0c0c0" points="1030,-291.1006 538,-291.1006 538,-236.4998 1030,-236.4998 1030,-291.1006"/>
<text text-anchor="middle" x="784" y="-260.0002" font-family="Inconsolata" font-size="14.00" fill="#000000">The hard work is done on this, it&#39;s a matter of translation into the</text>
<text text-anchor="middle" x="784" y="-244.6002" font-family="Inconsolata" font-size="14.00" fill="#000000">Pegylator paradigm.</text>
</g>
<!-- raw_11&#45;&gt;leaf_12 -->
<g id="edge12" class="edge">
<title>raw_11&#45;&gt;leaf_12</title>
<path fill="none" stroke="#000000" stroke-dasharray="5,2" d="M852.0408,-758.4578C848.626,-697.8098 835.5375,-497.5886 804,-335.2002 801.8204,-323.9771 798.7459,-311.9477 795.6599,-301.0222"/>
<polygon fill="#000000" stroke="#000000" points="799.0014,-299.9784 792.8479,-291.3538 792.2799,-301.9334 799.0014,-299.9784"/>
</g>
<!-- leaf_14 -->
<g id="node15" class="node">
<title>leaf_14</title>
<polygon fill="none" stroke="#c0c0c0" points="1575.5,-291.1006 1048.5,-291.1006 1048.5,-236.4998 1575.5,-236.4998 1575.5,-291.1006"/>
<text text-anchor="middle" x="1312" y="-260.0002" font-family="Inconsolata" font-size="14.00" fill="#000000">While this a hell of a lot of work, the complete BNF of Lua is available,</text>
<text text-anchor="middle" x="1312" y="-244.6002" font-family="Inconsolata" font-size="14.00" fill="#000000">and reproduced here.</text>
</g>
<!-- raw_13&#45;&gt;leaf_14 -->
<g id="edge14" class="edge">
<title>raw_13&#45;&gt;leaf_14</title>
<path fill="none" stroke="#000000" stroke-dasharray="5,2" d="M941.8434,-758.7422C924.105,-692.8019 872.5518,-461.3264 983,-335.2002 998.5926,-317.3943 1037.2478,-303.7085 1082.8125,-293.3181"/>
<polygon fill="#000000" stroke="#000000" points="1083.6238,-296.7233 1092.6346,-291.1506 1082.1153,-289.8878 1083.6238,-296.7233"/>
</g>
<!-- leaf_20 -->
<g id="node21" class="node">
<title>leaf_20</title>
<polygon fill="none" stroke="#c0c0c0" points="1728.5,-281.8002 1593.5,-281.8002 1593.5,-245.8002 1728.5,-245.8002 1728.5,-281.8002"/>
<text text-anchor="middle" x="1661" y="-260.3002" font-family="Inconsolata" font-size="14.00" fill="#000000">** Implementation</text>
</g>
<!-- header_16&#45;&gt;leaf_20 -->
<g id="edge20" class="edge">
<title>header_16&#45;&gt;leaf_20</title>
<path fill="none" stroke="#000000" stroke-dasharray="5,2" d="M1661,-758.4464C1661,-681.7161 1661,-385.0085 1661,-291.9104"/>
<polygon fill="#000000" stroke="#000000" points="1664.5001,-291.8359 1661,-281.8359 1657.5001,-291.8359 1664.5001,-291.8359"/>
</g>
<!-- raw_21 -->
<g id="node22" class="node">
<title>raw_21</title>
<ellipse fill="none" stroke="#000000" cx="1774" cy="-263.8002" rx="27" ry="18"/>
<text text-anchor="middle" x="1774" y="-259.6002" font-family="Helvetica,sans-Serif" font-size="14.00" fill="#000000">raw</text>
</g>
<!-- prose_17&#45;&gt;raw_21 -->
<g id="edge21" class="edge">
<title>prose_17&#45;&gt;raw_21</title>
<path fill="none" stroke="#000000" stroke-dasharray="5,2" d="M1793.2882,-758.4464C1790.2962,-681.7161 1778.7264,-385.0085 1775.0961,-291.9104"/>
<polygon fill="#000000" stroke="#000000" points="1778.5904,-291.6919 1774.7033,-281.8359 1771.5957,-291.9647 1778.5904,-291.6919"/>
</g>
<!-- header_23 -->
<g id="node24" class="node">
<title>header_23</title>
<ellipse fill="none" stroke="#000000" cx="1871" cy="-263.8002" rx="51.7605" ry="18"/>
<text text-anchor="middle" x="1871" y="-259.6002" font-family="Helvetica,sans-Serif" font-size="14.00" fill="#000000">3 : Imports</text>
</g>
<!-- section_18&#45;&gt;header_23 -->
<g id="edge23" class="edge">
<title>section_18&#45;&gt;header_23</title>
<path fill="none" stroke="#000000" stroke-dasharray="5,2" d="M1939.4731,-758.4464C1928.8514,-681.7161 1887.7787,-385.0085 1874.8912,-291.9104"/>
<polygon fill="#000000" stroke="#000000" points="1878.3349,-291.2615 1873.4966,-281.8359 1871.401,-292.2214 1878.3349,-291.2615"/>
</g>
<!-- prose_24 -->
<g id="node25" class="node">
<title>prose_24</title>
<ellipse fill="none" stroke="#000000" cx="1973" cy="-263.8002" rx="32.4585" ry="18"/>
<text text-anchor="middle" x="1973" y="-259.6002" font-family="Helvetica,sans-Serif" font-size="14.00" fill="#000000">prose</text>
</g>
<!-- section_18&#45;&gt;prose_24 -->
<g id="edge24" class="edge">
<title>section_18&#45;&gt;prose_24</title>
<path fill="none" stroke="#000000" stroke-dasharray="5,2" d="M1943.1033,-758.4464C1947.7409,-681.7161 1965.6741,-385.0085 1971.301,-291.9104"/>
<polygon fill="#000000" stroke="#000000" points="1974.8001,-292.0289 1971.9099,-281.8359 1967.8129,-291.6065 1974.8001,-292.0289"/>
</g>
<!-- codeblock_25 -->
<g id="node26" class="node">
<title>codeblock_25</title>
<ellipse fill="none" stroke="#000000" cx="2145" cy="-263.8002" rx="77.4211" ry="18"/>
<text text-anchor="middle" x="2145" y="-259.6002" font-family="Helvetica,sans-Serif" font-size="14.00" fill="#000000">code block 79&#45;85</text>
</g>
<!-- section_18&#45;&gt;codeblock_25 -->
<g id="edge25" class="edge">
<title>section_18&#45;&gt;codeblock_25</title>
<path fill="none" stroke="#000000" stroke-dasharray="5,2" d="M1949.1058,-758.7471C1979.3406,-682.3559 2097.4076,-384.0473 2134.075,-291.4034"/>
<polygon fill="#000000" stroke="#000000" points="2137.4208,-292.4603 2137.8466,-281.874 2130.912,-289.8842 2137.4208,-292.4603"/>
</g>
<!-- header_30 -->
<g id="node31" class="node">
<title>header_30</title>
<ellipse fill="none" stroke="#000000" cx="2426" cy="-263.8002" rx="46.4822" ry="18"/>
<text text-anchor="middle" x="2426" y="-259.6002" font-family="Helvetica,sans-Serif" font-size="14.00" fill="#000000">3 : lua_fn</text>
</g>
<!-- section_19&#45;&gt;header_30 -->
<g id="edge30" class="edge">
<title>section_19&#45;&gt;header_30</title>
<path fill="none" stroke="#000000" stroke-dasharray="5,2" d="M2472.2917,-758.4464C2465.1108,-681.7161 2437.3433,-385.0085 2428.6307,-291.9104"/>
<polygon fill="#000000" stroke="#000000" points="2432.1045,-291.4662 2427.6879,-281.8359 2425.135,-292.1185 2432.1045,-291.4662"/>
</g>
<!-- prose_31 -->
<g id="node32" class="node">
<title>prose_31</title>
<ellipse fill="none" stroke="#000000" cx="2523" cy="-263.8002" rx="32.4585" ry="18"/>
<text text-anchor="middle" x="2523" y="-259.6002" font-family="Helvetica,sans-Serif" font-size="14.00" fill="#000000">prose</text>
</g>
<!-- section_19&#45;&gt;prose_31 -->
<g id="edge31" class="edge">
<title>section_19&#45;&gt;prose_31</title>
<path fill="none" stroke="#000000" stroke-dasharray="5,2" d="M2475.7439,-758.4464C2483.0744,-681.7161 2511.4204,-385.0085 2520.3145,-291.9104"/>
<polygon fill="#000000" stroke="#000000" points="2523.81,-292.1235 2521.277,-281.8359 2516.8417,-291.4577 2523.81,-292.1235"/>
</g>
<!-- codeblock_32 -->
<g id="node33" class="node">
<title>codeblock_32</title>
<ellipse fill="none" stroke="#000000" cx="2657" cy="-263.8002" rx="77.4211" ry="18"/>
<text text-anchor="middle" x="2657" y="-259.6002" font-family="Helvetica,sans-Serif" font-size="14.00" fill="#000000">code block 92&#45;97</text>
</g>
<!-- section_19&#45;&gt;codeblock_32 -->
<g id="edge32" class="edge">
<title>section_19&#45;&gt;codeblock_32</title>
<path fill="none" stroke="#000000" stroke-dasharray="5,2" d="M2480.4058,-758.7471C2507.6617,-682.3559 2614.0965,-384.0473 2647.1514,-291.4034"/>
<polygon fill="#000000" stroke="#000000" points="2650.4873,-292.4687 2650.5514,-281.874 2643.8944,-290.1163 2650.4873,-292.4687"/>
</g>
<!-- leaf_22 -->
<g id="node23" class="node">
<title>leaf_22</title>
<polygon fill="none" stroke="#c0c0c0" points="1806.5,-185.5013 1699.5,-185.5013 1699.5,-113.699 1806.5,-113.699 1806.5,-185.5013"/>
<text text-anchor="middle" x="1753" y="-138.1001" font-family="Inconsolata" font-size="14.00" fill="#000000">Let&#39;s try it.</text>
</g>
<!-- raw_21&#45;&gt;leaf_22 -->
<g id="edge22" class="edge">
<title>raw_21&#45;&gt;leaf_22</title>
<path fill="none" stroke="#000000" stroke-dasharray="5,2" d="M1770.6725,-245.7049C1768.1975,-232.2457 1764.7041,-213.2483 1761.476,-195.6935"/>
<polygon fill="#000000" stroke="#000000" points="1764.8666,-194.7791 1759.6157,-185.577 1757.9821,-196.0451 1764.8666,-194.7791"/>
</g>
<!-- leaf_26 -->
<g id="node27" class="node">
<title>leaf_26</title>
<polygon fill="none" stroke="#c0c0c0" points="1917.5,-167.6001 1824.5,-167.6001 1824.5,-131.6001 1917.5,-131.6001 1917.5,-167.6001"/>
<text text-anchor="middle" x="1871" y="-146.1001" font-family="Inconsolata" font-size="14.00" fill="#000000">*** Imports</text>
</g>
<!-- header_23&#45;&gt;leaf_26 -->
<g id="edge26" class="edge">
<title>header_23&#45;&gt;leaf_26</title>
<path fill="none" stroke="#000000" stroke-dasharray="5,2" d="M1871,-245.7049C1871,-227.4118 1871,-198.8878 1871,-177.6605"/>
<polygon fill="#000000" stroke="#000000" points="1874.5001,-177.6108 1871,-167.6108 1867.5001,-177.6108 1874.5001,-177.6108"/>
</g>
<!-- raw_27 -->
<g id="node28" class="node">
<title>raw_27</title>
<ellipse fill="none" stroke="#000000" cx="1963" cy="-149.6001" rx="27" ry="18"/>
<text text-anchor="middle" x="1963" y="-145.4001" font-family="Helvetica,sans-Serif" font-size="14.00" fill="#000000">raw</text>
</g>
<!-- prose_24&#45;&gt;raw_27 -->
<g id="edge27" class="edge">
<title>prose_24&#45;&gt;raw_27</title>
<path fill="none" stroke="#000000" stroke-dasharray="5,2" d="M1971.4155,-245.7049C1969.8136,-227.4118 1967.3159,-198.8878 1965.4571,-177.6605"/>
<polygon fill="#000000" stroke="#000000" points="1968.9362,-177.2673 1964.5771,-167.6108 1961.9629,-177.878 1968.9362,-177.2673"/>
</g>
<!-- leaf_29 -->
<g id="node30" class="node">
<title>leaf_29</title>
<polygon fill="none" stroke="#c0c0c0" points="2367.5,-192.2012 2008.5,-192.2012 2008.5,-106.9991 2367.5,-106.9991 2367.5,-192.2012"/>
<text text-anchor="middle" x="2188" y="-177.2002" font-family="Inconsolata" font-size="14.00" fill="#000000">local Node &#160;&#160;&#160;= &#160;require &quot;espalier/node&quot;</text>
<text text-anchor="middle" x="2188" y="-161.8002" font-family="Inconsolata" font-size="14.00" fill="#000000">local Grammar = &#160;require &quot;espalier/grammar&quot;</text>
<text text-anchor="middle" x="2188" y="-146.4001" font-family="Inconsolata" font-size="14.00" fill="#000000">local L &#160;&#160;&#160;&#160;&#160;&#160;= &#160;require &quot;espalier/elpatt&quot;</text>
<text text-anchor="middle" x="2188" y="-115.0001" font-family="Inconsolata" font-size="14.00" fill="#000000">local P, R, E, V, S &#160;&#160;&#160;= &#160;L.P, L.R, L.E, L.V, L.S</text>
</g>
<!-- codeblock_25&#45;&gt;leaf_29 -->
<g id="edge29" class="edge">
<title>codeblock_25&#45;&gt;leaf_29</title>
<path fill="none" stroke="#000000" stroke-dasharray="5,2" d="M2151.8135,-245.7049C2156.2848,-233.8298 2162.3795,-217.6435 2168.2921,-201.9406"/>
<polygon fill="#000000" stroke="#000000" points="2171.6856,-202.8606 2171.9339,-192.2687 2165.1346,-200.3939 2171.6856,-202.8606"/>
</g>
<!-- leaf_28 -->
<g id="node29" class="node">
<title>leaf_28</title>
<polygon fill="none" stroke="#c0c0c0" points="1990,-53.4 1936,-53.4 1936,-17.4 1990,-17.4 1990,-53.4"/>
</g>
<!-- raw_27&#45;&gt;leaf_28 -->
<g id="edge28" class="edge">
<title>raw_27&#45;&gt;leaf_28</title>
<path fill="none" stroke="#000000" stroke-dasharray="5,2" d="M1963,-131.5048C1963,-113.2117 1963,-84.6877 1963,-63.4604"/>
<polygon fill="#000000" stroke="#000000" points="1966.5001,-63.4107 1963,-53.4107 1959.5001,-63.4108 1966.5001,-63.4107"/>
</g>
<!-- leaf_33 -->
<g id="node34" class="node">
<title>leaf_33</title>
<polygon fill="none" stroke="#c0c0c0" points="2472,-167.6001 2386,-167.6001 2386,-131.6001 2472,-131.6001 2472,-167.6001"/>
<text text-anchor="middle" x="2429" y="-146.1001" font-family="Inconsolata" font-size="14.00" fill="#000000">*** lua_fn</text>
</g>
<!-- header_30&#45;&gt;leaf_33 -->
<g id="edge33" class="edge">
<title>header_30&#45;&gt;leaf_33</title>
<path fill="none" stroke="#000000" stroke-dasharray="5,2" d="M2426.4754,-245.7049C2426.9559,-227.4118 2427.7052,-198.8878 2428.2629,-177.6605"/>
<polygon fill="#000000" stroke="#000000" points="2431.763,-177.6993 2428.5269,-167.6108 2424.7654,-177.5154 2431.763,-177.6993"/>
</g>
<!-- raw_34 -->
<g id="node35" class="node">
<title>raw_34</title>
<ellipse fill="none" stroke="#000000" cx="2521" cy="-149.6001" rx="27" ry="18"/>
<text text-anchor="middle" x="2521" y="-145.4001" font-family="Helvetica,sans-Serif" font-size="14.00" fill="#000000">raw</text>
</g>
<!-- prose_31&#45;&gt;raw_34 -->
<g id="edge34" class="edge">
<title>prose_31&#45;&gt;raw_34</title>
<path fill="none" stroke="#000000" stroke-dasharray="5,2" d="M2522.6831,-245.7049C2522.3627,-227.4118 2521.8632,-198.8878 2521.4914,-177.6605"/>
<polygon fill="#000000" stroke="#000000" points="2524.9901,-177.548 2521.3154,-167.6108 2517.9912,-177.6706 2524.9901,-177.548"/>
</g>
<!-- leaf_36 -->
<g id="node37" class="node">
<title>leaf_36</title>
<polygon fill="none" stroke="#c0c0c0" points="2764,-184.2014 2566,-184.2014 2566,-114.9989 2764,-114.9989 2764,-184.2014"/>
<text text-anchor="middle" x="2665" y="-169.2002" font-family="Inconsolata" font-size="14.00" fill="#000000">local function lua_fn(ENV)</text>
<text text-anchor="middle" x="2665" y="-153.8002" font-family="Inconsolata" font-size="14.00" fill="#000000"> &#160;&#160;START &quot;lua&quot;</text>
<text text-anchor="middle" x="2665" y="-138.4001" font-family="Inconsolata" font-size="14.00" fill="#000000"> &#160;&#160;lua = V&quot;chunk&quot;^1</text>
<text text-anchor="middle" x="2665" y="-123.0001" font-family="Inconsolata" font-size="14.00" fill="#000000">end</text>
</g>
<!-- codeblock_32&#45;&gt;leaf_36 -->
<g id="edge36" class="edge">
<title>codeblock_32&#45;&gt;leaf_36</title>
<path fill="none" stroke="#000000" stroke-dasharray="5,2" d="M2658.2676,-245.7049C2659.2252,-232.0354 2660.583,-212.6533 2661.8286,-194.8717"/>
<polygon fill="#000000" stroke="#000000" points="2665.3377,-194.8626 2662.5452,-184.6424 2658.3549,-194.3734 2665.3377,-194.8626"/>
</g>
<!-- leaf_35 -->
<g id="node36" class="node">
<title>leaf_35</title>
<polygon fill="none" stroke="#c0c0c0" points="2746,-70.7004 2296,-70.7004 2296,-.0997 2746,-.0997 2746,-70.7004"/>
<text text-anchor="middle" x="2521" y="-23.6001" font-family="Inconsolata" font-size="14.00" fill="#000000">This is provided to the Grammar engine to create a Lua parser.</text>
<text text-anchor="middle" x="2521" y="-8.2" font-family="Inconsolata" font-size="14.00" fill="#000000">yes</text>
</g>
<!-- raw_34&#45;&gt;leaf_35 -->
<g id="edge35" class="edge">
<title>raw_34&#45;&gt;leaf_35</title>
<path fill="none" stroke="#000000" stroke-dasharray="5,2" d="M2521,-131.5048C2521,-117.9405 2521,-98.751 2521,-81.0822"/>
<polygon fill="#000000" stroke="#000000" points="2524.5001,-80.9088 2521,-70.9089 2517.5001,-80.9089 2524.5001,-80.9088"/>
</g>
</g>
</svg>
