<?xml version="1.0" encoding="UTF-8" standalone="no"?>
<!DOCTYPE svg PUBLIC "-//W3C//DTD SVG 1.1//EN"
 "http://www.w3.org/Graphics/SVG/1.1/DTD/svg11.dtd">
<!-- Generated by graphviz version 2.40.1 (20161225.0304)
 -->
<!-- Title: lpegNode Pages: 1 -->
<svg width="3987pt" height="1861pt"
 viewBox="0.00 0.00 3986.50 1861.00" xmlns="http://www.w3.org/2000/svg" xmlns:xlink="http://www.w3.org/1999/xlink">
<g id="graph0" class="graph" transform="scale(1 1) rotate(0) translate(4 1857.002)">
<title>lpegNode</title>
<polygon fill="#ffffff" stroke="transparent" points="-4,4 -4,-1857.002 3982.5,-1857.002 3982.5,4 -4,4"/>
<!-- doc_0 -->
<g id="node1" class="node">
<title>doc_0</title>
<ellipse fill="none" stroke="#000000" cx="906" cy="-1835.002" rx="46.9581" ry="18"/>
<text text-anchor="middle" x="906" y="-1830.802" font-family="Helvetica,sans-Serif" font-size="14.00" fill="#000000">doc &#45; 150</text>
</g>
<!-- section_1 -->
<g id="node2" class="node">
<title>section_1</title>
<ellipse fill="none" stroke="#000000" cx="906" cy="-1763.002" rx="60.9826" ry="18"/>
<text text-anchor="middle" x="906" y="-1758.802" font-family="Helvetica,sans-Serif" font-size="14.00" fill="#000000">section: 1&#45;71</text>
</g>
<!-- doc_0&#45;&gt;section_1 -->
<g id="edge1" class="edge">
<title>doc_0&#45;&gt;section_1</title>
<path fill="none" stroke="#000000" stroke-dasharray="5,2" d="M906,-1816.8334C906,-1809.133 906,-1799.9764 906,-1791.4187"/>
<polygon fill="#000000" stroke="#000000" points="909.5001,-1791.4153 906,-1781.4153 902.5001,-1791.4153 909.5001,-1791.4153"/>
</g>
<!-- header_2 -->
<g id="node3" class="node">
<title>header_2</title>
<ellipse fill="none" stroke="#000000" cx="633" cy="-1691.002" rx="100.1143" ry="18"/>
<text text-anchor="middle" x="633" y="-1686.802" font-family="Helvetica,sans-Serif" font-size="14.00" fill="#000000">1 : A Grammar For Lua</text>
</g>
<!-- section_1&#45;&gt;header_2 -->
<g id="edge2" class="edge">
<title>section_1&#45;&gt;header_2</title>
<path fill="none" stroke="#000000" stroke-dasharray="5,2" d="M860.6131,-1751.0319C816.549,-1739.4106 749.1718,-1721.6408 699.1453,-1708.4469"/>
<polygon fill="#000000" stroke="#000000" points="699.9453,-1705.0383 689.3834,-1705.8724 698.1602,-1711.8069 699.9453,-1705.0383"/>
</g>
<!-- prose_3 -->
<g id="node4" class="node">
<title>prose_3</title>
<ellipse fill="none" stroke="#000000" cx="783" cy="-1691.002" rx="32.4585" ry="18"/>
<text text-anchor="middle" x="783" y="-1686.802" font-family="Helvetica,sans-Serif" font-size="14.00" fill="#000000">prose</text>
</g>
<!-- section_1&#45;&gt;prose_3 -->
<g id="edge3" class="edge">
<title>section_1&#45;&gt;prose_3</title>
<path fill="none" stroke="#000000" stroke-dasharray="5,2" d="M878.3964,-1746.8438C859.3555,-1735.698 834.0105,-1720.8619 814.2307,-1709.2834"/>
<polygon fill="#000000" stroke="#000000" points="815.9752,-1706.249 805.5769,-1704.2178 812.4389,-1712.2902 815.9752,-1706.249"/>
</g>
<!-- prose_4 -->
<g id="node5" class="node">
<title>prose_4</title>
<ellipse fill="none" stroke="#000000" cx="865" cy="-1691.002" rx="32.4585" ry="18"/>
<text text-anchor="middle" x="865" y="-1686.802" font-family="Helvetica,sans-Serif" font-size="14.00" fill="#000000">prose</text>
</g>
<!-- section_1&#45;&gt;prose_4 -->
<g id="edge4" class="edge">
<title>section_1&#45;&gt;prose_4</title>
<path fill="none" stroke="#000000" stroke-dasharray="5,2" d="M895.8652,-1745.2043C891.0632,-1736.7715 885.2315,-1726.5306 879.9358,-1717.2308"/>
<polygon fill="#000000" stroke="#000000" points="882.8667,-1715.3045 874.8768,-1708.3466 876.7838,-1718.7684 882.8667,-1715.3045"/>
</g>
<!-- prose_5 -->
<g id="node6" class="node">
<title>prose_5</title>
<ellipse fill="none" stroke="#000000" cx="947" cy="-1691.002" rx="32.4585" ry="18"/>
<text text-anchor="middle" x="947" y="-1686.802" font-family="Helvetica,sans-Serif" font-size="14.00" fill="#000000">prose</text>
</g>
<!-- section_1&#45;&gt;prose_5 -->
<g id="edge5" class="edge">
<title>section_1&#45;&gt;prose_5</title>
<path fill="none" stroke="#000000" stroke-dasharray="5,2" d="M916.1348,-1745.2043C920.9368,-1736.7715 926.7685,-1726.5306 932.0642,-1717.2308"/>
<polygon fill="#000000" stroke="#000000" points="935.2162,-1718.7684 937.1232,-1708.3466 929.1333,-1715.3045 935.2162,-1718.7684"/>
</g>
<!-- codeblock_6 -->
<g id="node7" class="node">
<title>codeblock_6</title>
<ellipse fill="none" stroke="#000000" cx="1159" cy="-1691.002" rx="77.4211" ry="18"/>
<text text-anchor="middle" x="1159" y="-1686.802" font-family="Helvetica,sans-Serif" font-size="14.00" fill="#000000">code block 12&#45;69</text>
</g>
<!-- section_1&#45;&gt;codeblock_6 -->
<g id="edge6" class="edge">
<title>section_1&#45;&gt;codeblock_6</title>
<path fill="none" stroke="#000000" stroke-dasharray="5,2" d="M950.0692,-1750.4606C991.6167,-1738.6368 1054.1765,-1720.8332 1100.0114,-1707.7893"/>
<polygon fill="#000000" stroke="#000000" points="1101.1557,-1711.1027 1109.8158,-1704.9991 1099.2397,-1704.37 1101.1557,-1711.1027"/>
</g>
<!-- section_7 -->
<g id="node8" class="node">
<title>section_7</title>
<ellipse fill="none" stroke="#000000" cx="1794" cy="-1691.002" rx="65.8187" ry="18"/>
<text text-anchor="middle" x="1794" y="-1686.802" font-family="Helvetica,sans-Serif" font-size="14.00" fill="#000000">section: 72&#45;87</text>
</g>
<!-- section_1&#45;&gt;section_7 -->
<g id="edge7" class="edge">
<title>section_1&#45;&gt;section_7</title>
<path fill="none" stroke="#000000" stroke-dasharray="5,2" d="M964.6076,-1758.2501C1121.1589,-1745.5567 1548.8671,-1710.8777 1720.901,-1696.929"/>
<polygon fill="#000000" stroke="#000000" points="1721.189,-1700.4172 1730.8734,-1696.1204 1720.6232,-1693.4401 1721.189,-1700.4172"/>
</g>
<!-- leaf_8 -->
<g id="node9" class="node">
<title>leaf_8</title>
<polygon fill="none" stroke="#c0c0c0" points="707.5,-1213.5015 558.5,-1213.5015 558.5,-1177.5015 707.5,-1177.5015 707.5,-1213.5015"/>
<text text-anchor="middle" x="633" y="-1192.0015" font-family="Inconsolata" font-size="14.00" fill="#000000">* A Grammar For Lua</text>
</g>
<!-- header_2&#45;&gt;leaf_8 -->
<g id="edge8" class="edge">
<title>header_2&#45;&gt;leaf_8</title>
<path fill="none" stroke="#000000" stroke-dasharray="5,2" d="M633,-1672.7793C633,-1598.0337 633,-1314.612 633,-1223.7296"/>
<polygon fill="#000000" stroke="#000000" points="636.5001,-1223.6278 633,-1213.6278 629.5001,-1223.6279 636.5001,-1223.6278"/>
</g>
<!-- raw_9 -->
<g id="node10" class="node">
<title>raw_9</title>
<ellipse fill="none" stroke="#000000" cx="768" cy="-1195.5015" rx="27" ry="18"/>
<text text-anchor="middle" x="768" y="-1191.3015" font-family="Helvetica,sans-Serif" font-size="14.00" fill="#000000">raw</text>
</g>
<!-- prose_3&#45;&gt;raw_9 -->
<g id="edge9" class="edge">
<title>prose_3&#45;&gt;raw_9</title>
<path fill="none" stroke="#000000" stroke-dasharray="5,2" d="M782.4484,-1672.7793C780.1856,-1598.0337 771.6058,-1314.612 768.8545,-1223.7296"/>
<polygon fill="#000000" stroke="#000000" points="772.3498,-1223.5173 768.5487,-1213.6278 765.353,-1223.7292 772.3498,-1223.5173"/>
</g>
<!-- raw_11 -->
<g id="node12" class="node">
<title>raw_11</title>
<ellipse fill="none" stroke="#000000" cx="853" cy="-1195.5015" rx="27" ry="18"/>
<text text-anchor="middle" x="853" y="-1191.3015" font-family="Helvetica,sans-Serif" font-size="14.00" fill="#000000">raw</text>
</g>
<!-- prose_4&#45;&gt;raw_11 -->
<g id="edge11" class="edge">
<title>prose_4&#45;&gt;raw_11</title>
<path fill="none" stroke="#000000" stroke-dasharray="5,2" d="M864.5587,-1672.7793C862.7485,-1598.0337 855.8846,-1314.612 853.6836,-1223.7296"/>
<polygon fill="#000000" stroke="#000000" points="857.1802,-1223.5401 853.439,-1213.6278 850.1822,-1223.7097 857.1802,-1223.5401"/>
</g>
<!-- raw_13 -->
<g id="node14" class="node">
<title>raw_13</title>
<ellipse fill="none" stroke="#000000" cx="947" cy="-1195.5015" rx="27" ry="18"/>
<text text-anchor="middle" x="947" y="-1191.3015" font-family="Helvetica,sans-Serif" font-size="14.00" fill="#000000">raw</text>
</g>
<!-- prose_5&#45;&gt;raw_13 -->
<g id="edge13" class="edge">
<title>prose_5&#45;&gt;raw_13</title>
<path fill="none" stroke="#000000" stroke-dasharray="5,2" d="M947,-1672.7793C947,-1598.0337 947,-1314.612 947,-1223.7296"/>
<polygon fill="#000000" stroke="#000000" points="950.5001,-1223.6278 947,-1213.6278 943.5001,-1223.6279 950.5001,-1223.6278"/>
</g>
<!-- leaf_15 -->
<g id="node16" class="node">
<title>leaf_15</title>
<polygon fill="none" stroke="#c0c0c0" points="1491.5,-1637.0026 992.5,-1637.0026 992.5,-754.0004 1491.5,-754.0004 1491.5,-1637.0026"/>
<text text-anchor="middle" x="1242" y="-1621.802" font-family="Inconsolata" font-size="14.00" fill="#000000">chunk ::= {stat [`;´]} [laststat [`;´]]</text>
<text text-anchor="middle" x="1242" y="-1590.402" font-family="Inconsolata" font-size="14.00" fill="#000000"> &#160;&#160;block ::= chunk</text>
<text text-anchor="middle" x="1242" y="-1559.002" font-family="Inconsolata" font-size="14.00" fill="#000000"> &#160;&#160;stat ::= &#160;varlist `=´ explist |</text>
<text text-anchor="middle" x="1242" y="-1543.6019" font-family="Inconsolata" font-size="14.00" fill="#000000"> &#160;&#160;&#160;&#160;&#160;&#160;functioncall |</text>
<text text-anchor="middle" x="1242" y="-1528.2019" font-family="Inconsolata" font-size="14.00" fill="#000000"> &#160;&#160;&#160;&#160;&#160;&#160;do block end |</text>
<text text-anchor="middle" x="1242" y="-1512.8019" font-family="Inconsolata" font-size="14.00" fill="#000000"> &#160;&#160;&#160;&#160;&#160;&#160;while exp do block end |</text>
<text text-anchor="middle" x="1242" y="-1497.4018" font-family="Inconsolata" font-size="14.00" fill="#000000"> &#160;&#160;&#160;&#160;&#160;&#160;repeat block until exp |</text>
<text text-anchor="middle" x="1242" y="-1482.0018" font-family="Inconsolata" font-size="14.00" fill="#000000"> &#160;&#160;&#160;&#160;&#160;&#160;if exp then block {elseif exp then block} [else block] end |</text>
<text text-anchor="middle" x="1242" y="-1466.6018" font-family="Inconsolata" font-size="14.00" fill="#000000"> &#160;&#160;&#160;&#160;&#160;&#160;for Name `=´ exp `,´ exp [`,´ exp] do block end |</text>
<text text-anchor="middle" x="1242" y="-1451.2017" font-family="Inconsolata" font-size="14.00" fill="#000000"> &#160;&#160;&#160;&#160;&#160;&#160;for namelist in explist do block end |</text>
<text text-anchor="middle" x="1242" y="-1435.8017" font-family="Inconsolata" font-size="14.00" fill="#000000"> &#160;&#160;&#160;&#160;&#160;&#160;function funcname funcbody |</text>
<text text-anchor="middle" x="1242" y="-1420.4017" font-family="Inconsolata" font-size="14.00" fill="#000000"> &#160;&#160;&#160;&#160;&#160;&#160;local function Name funcbody |</text>
<text text-anchor="middle" x="1242" y="-1405.0017" font-family="Inconsolata" font-size="14.00" fill="#000000"> &#160;&#160;&#160;&#160;&#160;&#160;local namelist [`=´ explist]</text>
<text text-anchor="middle" x="1242" y="-1373.6016" font-family="Inconsolata" font-size="14.00" fill="#000000"> &#160;&#160;laststat ::= return [explist] | break</text>
<text text-anchor="middle" x="1242" y="-1342.2016" font-family="Inconsolata" font-size="14.00" fill="#000000"> &#160;&#160;funcname ::= Name {`.´ Name} [`:´ Name]</text>
<text text-anchor="middle" x="1242" y="-1310.8016" font-family="Inconsolata" font-size="14.00" fill="#000000"> &#160;&#160;varlist ::= var {`,´ var}</text>
<text text-anchor="middle" x="1242" y="-1279.4015" font-family="Inconsolata" font-size="14.00" fill="#000000"> &#160;&#160;var ::= &#160;Name | prefixexp `[´ exp `]´ | prefixexp `.´ Name</text>
<text text-anchor="middle" x="1242" y="-1248.0015" font-family="Inconsolata" font-size="14.00" fill="#000000"> &#160;&#160;namelist ::= Name {`,´ Name}</text>
<text text-anchor="middle" x="1242" y="-1216.6015" font-family="Inconsolata" font-size="14.00" fill="#000000"> &#160;&#160;explist ::= {exp `,´} exp</text>
<text text-anchor="middle" x="1242" y="-1185.2014" font-family="Inconsolata" font-size="14.00" fill="#000000"> &#160;&#160;exp ::= &#160;nil | false | true | Number | String | `...´ | function |</text>
<text text-anchor="middle" x="1242" y="-1169.8014" font-family="Inconsolata" font-size="14.00" fill="#000000"> &#160;&#160;&#160;&#160;&#160;&#160;prefixexp | tableconstructor | exp binop exp | unop exp</text>
<text text-anchor="middle" x="1242" y="-1138.4014" font-family="Inconsolata" font-size="14.00" fill="#000000"> &#160;&#160;prefixexp ::= var | functioncall | `(´ exp `)´</text>
<text text-anchor="middle" x="1242" y="-1107.0013" font-family="Inconsolata" font-size="14.00" fill="#000000"> &#160;&#160;functioncall ::= &#160;prefixexp args | prefixexp `:´ Name args</text>
<text text-anchor="middle" x="1242" y="-1075.6013" font-family="Inconsolata" font-size="14.00" fill="#000000"> &#160;&#160;args ::= &#160;`(´ [explist] `)´ | tableconstructor | String</text>
<text text-anchor="middle" x="1242" y="-1044.2013" font-family="Inconsolata" font-size="14.00" fill="#000000"> &#160;&#160;function ::= function funcbody</text>
<text text-anchor="middle" x="1242" y="-1012.8012" font-family="Inconsolata" font-size="14.00" fill="#000000"> &#160;&#160;funcbody ::= `(´ [parlist] `)´ block end</text>
<text text-anchor="middle" x="1242" y="-981.4012" font-family="Inconsolata" font-size="14.00" fill="#000000"> &#160;&#160;parlist ::= namelist [`,´ `...´] | `...´</text>
<text text-anchor="middle" x="1242" y="-950.0012" font-family="Inconsolata" font-size="14.00" fill="#000000"> &#160;&#160;tableconstructor ::= `{´ [fieldlist] `}´</text>
<text text-anchor="middle" x="1242" y="-918.6012" font-family="Inconsolata" font-size="14.00" fill="#000000"> &#160;&#160;fieldlist ::= field {fieldsep field} [fieldsep]</text>
<text text-anchor="middle" x="1242" y="-887.2011" font-family="Inconsolata" font-size="14.00" fill="#000000"> &#160;&#160;field ::= `[´ exp `]´ `=´ exp | Name `=´ exp | exp</text>
<text text-anchor="middle" x="1242" y="-855.8011" font-family="Inconsolata" font-size="14.00" fill="#000000"> &#160;&#160;fieldsep ::= `,´ | `;´</text>
<text text-anchor="middle" x="1242" y="-824.4011" font-family="Inconsolata" font-size="14.00" fill="#000000"> &#160;&#160;binop ::= `+´ | `&#45;´ | `*´ | `/´ | `^´ | `%´ | `..´ |</text>
<text text-anchor="middle" x="1242" y="-809.001" font-family="Inconsolata" font-size="14.00" fill="#000000"> &#160;&#160;&#160;&#160;&#160;&#160;`&lt;´ | `&lt;=´ | `&gt;´ | `&gt;=´ | `==´ | `~=´ |</text>
<text text-anchor="middle" x="1242" y="-793.601" font-family="Inconsolata" font-size="14.00" fill="#000000"> &#160;&#160;&#160;&#160;&#160;&#160;and | or</text>
<text text-anchor="middle" x="1242" y="-762.201" font-family="Inconsolata" font-size="14.00" fill="#000000"> &#160;&#160;unop ::= `&#45;´ | not | `#´</text>
</g>
<!-- codeblock_6&#45;&gt;leaf_15 -->
<g id="edge15" class="edge">
<title>codeblock_6&#45;&gt;leaf_15</title>
<path fill="none" stroke="#000000" stroke-dasharray="5,2" d="M1162.0524,-1672.7793C1163.205,-1665.8989 1164.6536,-1657.2505 1166.3461,-1647.1468"/>
<polygon fill="#000000" stroke="#000000" points="1169.8415,-1647.465 1168.0417,-1637.0241 1162.9376,-1646.3085 1169.8415,-1647.465"/>
</g>
<!-- header_16 -->
<g id="node17" class="node">
<title>header_16</title>
<ellipse fill="none" stroke="#000000" cx="1661" cy="-1195.5015" rx="82.7165" ry="18"/>
<text text-anchor="middle" x="1661" y="-1191.3015" font-family="Helvetica,sans-Serif" font-size="14.00" fill="#000000">2 : Implementation</text>
</g>
<!-- section_7&#45;&gt;header_16 -->
<g id="edge16" class="edge">
<title>section_7&#45;&gt;header_16</title>
<path fill="none" stroke="#000000" stroke-dasharray="5,2" d="M1777.3653,-1673.3314C1768.8589,-1663.3696 1759.0504,-1650.285 1753,-1637.002 1686.4734,-1490.951 1667.4995,-1295.7337 1662.5789,-1223.7192"/>
<polygon fill="#000000" stroke="#000000" points="1666.0644,-1223.3799 1661.9277,-1213.626 1659.0789,-1223.8306 1666.0644,-1223.3799"/>
</g>
<!-- prose_17 -->
<g id="node18" class="node">
<title>prose_17</title>
<ellipse fill="none" stroke="#000000" cx="1794" cy="-1195.5015" rx="32.4585" ry="18"/>
<text text-anchor="middle" x="1794" y="-1191.3015" font-family="Helvetica,sans-Serif" font-size="14.00" fill="#000000">prose</text>
</g>
<!-- section_7&#45;&gt;prose_17 -->
<g id="edge17" class="edge">
<title>section_7&#45;&gt;prose_17</title>
<path fill="none" stroke="#000000" stroke-dasharray="5,2" d="M1794,-1672.7793C1794,-1598.0337 1794,-1314.612 1794,-1223.7296"/>
<polygon fill="#000000" stroke="#000000" points="1797.5001,-1223.6278 1794,-1213.6278 1790.5001,-1223.6279 1797.5001,-1223.6278"/>
</g>
<!-- section_18 -->
<g id="node19" class="node">
<title>section_18</title>
<ellipse fill="none" stroke="#000000" cx="1942" cy="-1195.5015" rx="65.8187" ry="18"/>
<text text-anchor="middle" x="1942" y="-1191.3015" font-family="Helvetica,sans-Serif" font-size="14.00" fill="#000000">section: 77&#45;87</text>
</g>
<!-- section_7&#45;&gt;section_18 -->
<g id="edge18" class="edge">
<title>section_7&#45;&gt;section_18</title>
<path fill="none" stroke="#000000" stroke-dasharray="5,2" d="M1810.4641,-1673.252C1818.9205,-1663.2669 1828.7356,-1650.1855 1835,-1637.002 1904.3824,-1490.9856 1931.2555,-1295.7475 1939.2114,-1223.7233"/>
<polygon fill="#000000" stroke="#000000" points="1942.7076,-1223.9441 1940.2903,-1213.6287 1935.7473,-1223.2001 1942.7076,-1223.9441"/>
</g>
<!-- section_19 -->
<g id="node20" class="node">
<title>section_19</title>
<ellipse fill="none" stroke="#000000" cx="2664" cy="-1195.5015" rx="70.655" ry="18"/>
<text text-anchor="middle" x="2664" y="-1191.3015" font-family="Helvetica,sans-Serif" font-size="14.00" fill="#000000">section: 88&#45;150</text>
</g>
<!-- section_7&#45;&gt;section_19 -->
<g id="edge19" class="edge">
<title>section_7&#45;&gt;section_19</title>
<path fill="none" stroke="#000000" stroke-dasharray="5,2" d="M1852.6982,-1682.7419C1898.7953,-1674.8629 1963.8538,-1660.6204 2017,-1637.002 2280.6422,-1519.8382 2551.6663,-1293.6464 2636.7669,-1219.6057"/>
<polygon fill="#000000" stroke="#000000" points="2639.187,-1222.139 2644.4155,-1212.9242 2634.5817,-1216.8672 2639.187,-1222.139"/>
</g>
<!-- leaf_10 -->
<g id="node11" class="node">
<title>leaf_10</title>
<polygon fill="none" stroke="#c0c0c0" points="520,-717.9012 0,-717.9012 0,-647.3006 520,-647.3006 520,-717.9012"/>
<text text-anchor="middle" x="260" y="-670.8009" font-family="Inconsolata" font-size="14.00" fill="#000000">While the most important grammar for pegylator is pegylator itself, it&#39;s</text>
<text text-anchor="middle" x="260" y="-655.4009" font-family="Inconsolata" font-size="14.00" fill="#000000">time to make a Lua language parser.</text>
</g>
<!-- raw_9&#45;&gt;leaf_10 -->
<g id="edge10" class="edge">
<title>raw_9&#45;&gt;leaf_10</title>
<path fill="none" stroke="#000000" stroke-dasharray="5,2" d="M772.5081,-1177.6771C788.1448,-1111.2227 832.9523,-875.4935 716,-754.0009 708.4103,-746.1166 624.2385,-731.9567 530.2361,-718.314"/>
<polygon fill="#000000" stroke="#000000" points="530.6197,-714.8331 520.2221,-716.8678 529.6191,-721.7613 530.6197,-714.8331"/>
</g>
<!-- leaf_12 -->
<g id="node13" class="node">
<title>leaf_12</title>
<polygon fill="none" stroke="#c0c0c0" points="1030,-709.9013 538,-709.9013 538,-655.3005 1030,-655.3005 1030,-709.9013"/>
<text text-anchor="middle" x="784" y="-678.8009" font-family="Inconsolata" font-size="14.00" fill="#000000">The hard work is done on this, it&#39;s a matter of translation into the</text>
<text text-anchor="middle" x="784" y="-663.4009" font-family="Inconsolata" font-size="14.00" fill="#000000">Pegylator paradigm.</text>
</g>
<!-- raw_11&#45;&gt;leaf_12 -->
<g id="edge12" class="edge">
<title>raw_11&#45;&gt;leaf_12</title>
<path fill="none" stroke="#000000" stroke-dasharray="5,2" d="M852.0408,-1177.2585C848.626,-1116.6105 835.5375,-916.3893 804,-754.0009 801.8204,-742.7778 798.7459,-730.7484 795.6599,-719.8229"/>
<polygon fill="#000000" stroke="#000000" points="799.0014,-718.7791 792.8479,-710.1545 792.2799,-720.7341 799.0014,-718.7791"/>
</g>
<!-- leaf_14 -->
<g id="node15" class="node">
<title>leaf_14</title>
<polygon fill="none" stroke="#c0c0c0" points="1575.5,-709.9013 1048.5,-709.9013 1048.5,-655.3005 1575.5,-655.3005 1575.5,-709.9013"/>
<text text-anchor="middle" x="1312" y="-678.8009" font-family="Inconsolata" font-size="14.00" fill="#000000">While this a hell of a lot of work, the complete BNF of Lua is available,</text>
<text text-anchor="middle" x="1312" y="-663.4009" font-family="Inconsolata" font-size="14.00" fill="#000000">and reproduced here.</text>
</g>
<!-- raw_13&#45;&gt;leaf_14 -->
<g id="edge14" class="edge">
<title>raw_13&#45;&gt;leaf_14</title>
<path fill="none" stroke="#000000" stroke-dasharray="5,2" d="M941.8434,-1177.5429C924.105,-1111.6026 872.5518,-880.1271 983,-754.0009 998.5926,-736.195 1037.2478,-722.5092 1082.8125,-712.1188"/>
<polygon fill="#000000" stroke="#000000" points="1083.6238,-715.524 1092.6346,-709.9513 1082.1153,-708.6885 1083.6238,-715.524"/>
</g>
<!-- leaf_20 -->
<g id="node21" class="node">
<title>leaf_20</title>
<polygon fill="none" stroke="#c0c0c0" points="1728.5,-700.6009 1593.5,-700.6009 1593.5,-664.6009 1728.5,-664.6009 1728.5,-700.6009"/>
<text text-anchor="middle" x="1661" y="-679.1009" font-family="Inconsolata" font-size="14.00" fill="#000000">** Implementation</text>
</g>
<!-- header_16&#45;&gt;leaf_20 -->
<g id="edge20" class="edge">
<title>header_16&#45;&gt;leaf_20</title>
<path fill="none" stroke="#000000" stroke-dasharray="5,2" d="M1661,-1177.2471C1661,-1100.5168 1661,-803.8092 1661,-710.7111"/>
<polygon fill="#000000" stroke="#000000" points="1664.5001,-710.6365 1661,-700.6366 1657.5001,-710.6366 1664.5001,-710.6365"/>
</g>
<!-- raw_21 -->
<g id="node22" class="node">
<title>raw_21</title>
<ellipse fill="none" stroke="#000000" cx="1774" cy="-682.6009" rx="27" ry="18"/>
<text text-anchor="middle" x="1774" y="-678.4009" font-family="Helvetica,sans-Serif" font-size="14.00" fill="#000000">raw</text>
</g>
<!-- prose_17&#45;&gt;raw_21 -->
<g id="edge21" class="edge">
<title>prose_17&#45;&gt;raw_21</title>
<path fill="none" stroke="#000000" stroke-dasharray="5,2" d="M1793.2882,-1177.2471C1790.2962,-1100.5168 1778.7264,-803.8092 1775.0961,-710.7111"/>
<polygon fill="#000000" stroke="#000000" points="1778.5904,-710.4926 1774.7033,-700.6366 1771.5957,-710.7654 1778.5904,-710.4926"/>
</g>
<!-- header_23 -->
<g id="node24" class="node">
<title>header_23</title>
<ellipse fill="none" stroke="#000000" cx="1871" cy="-682.6009" rx="51.7605" ry="18"/>
<text text-anchor="middle" x="1871" y="-678.4009" font-family="Helvetica,sans-Serif" font-size="14.00" fill="#000000">3 : Imports</text>
</g>
<!-- section_18&#45;&gt;header_23 -->
<g id="edge23" class="edge">
<title>section_18&#45;&gt;header_23</title>
<path fill="none" stroke="#000000" stroke-dasharray="5,2" d="M1939.4731,-1177.2471C1928.8514,-1100.5168 1887.7787,-803.8092 1874.8912,-710.7111"/>
<polygon fill="#000000" stroke="#000000" points="1878.3349,-710.0622 1873.4966,-700.6366 1871.401,-711.0221 1878.3349,-710.0622"/>
</g>
<!-- prose_24 -->
<g id="node25" class="node">
<title>prose_24</title>
<ellipse fill="none" stroke="#000000" cx="1973" cy="-682.6009" rx="32.4585" ry="18"/>
<text text-anchor="middle" x="1973" y="-678.4009" font-family="Helvetica,sans-Serif" font-size="14.00" fill="#000000">prose</text>
</g>
<!-- section_18&#45;&gt;prose_24 -->
<g id="edge24" class="edge">
<title>section_18&#45;&gt;prose_24</title>
<path fill="none" stroke="#000000" stroke-dasharray="5,2" d="M1943.1033,-1177.2471C1947.7409,-1100.5168 1965.6741,-803.8092 1971.301,-710.7111"/>
<polygon fill="#000000" stroke="#000000" points="1974.8001,-710.8295 1971.9099,-700.6366 1967.8129,-710.4072 1974.8001,-710.8295"/>
</g>
<!-- codeblock_25 -->
<g id="node26" class="node">
<title>codeblock_25</title>
<ellipse fill="none" stroke="#000000" cx="2145" cy="-682.6009" rx="77.4211" ry="18"/>
<text text-anchor="middle" x="2145" y="-678.4009" font-family="Helvetica,sans-Serif" font-size="14.00" fill="#000000">code block 79&#45;85</text>
</g>
<!-- section_18&#45;&gt;codeblock_25 -->
<g id="edge25" class="edge">
<title>section_18&#45;&gt;codeblock_25</title>
<path fill="none" stroke="#000000" stroke-dasharray="5,2" d="M1949.1058,-1177.5478C1979.3406,-1101.1566 2097.4076,-802.848 2134.075,-710.204"/>
<polygon fill="#000000" stroke="#000000" points="2137.4208,-711.261 2137.8466,-700.6747 2130.912,-708.6849 2137.4208,-711.261"/>
</g>
<!-- header_30 -->
<g id="node31" class="node">
<title>header_30</title>
<ellipse fill="none" stroke="#000000" cx="2485" cy="-682.6009" rx="46.4822" ry="18"/>
<text text-anchor="middle" x="2485" y="-678.4009" font-family="Helvetica,sans-Serif" font-size="14.00" fill="#000000">3 : lua_fn</text>
</g>
<!-- section_19&#45;&gt;header_30 -->
<g id="edge30" class="edge">
<title>section_19&#45;&gt;header_30</title>
<path fill="none" stroke="#000000" stroke-dasharray="5,2" d="M2657.7343,-1177.5478C2631.074,-1101.1566 2526.9657,-802.848 2494.6334,-710.204"/>
<polygon fill="#000000" stroke="#000000" points="2497.9073,-708.963 2491.3077,-700.6747 2491.2983,-711.2695 2497.9073,-708.963"/>
</g>
<!-- prose_31 -->
<g id="node32" class="node">
<title>prose_31</title>
<ellipse fill="none" stroke="#000000" cx="2582" cy="-682.6009" rx="32.4585" ry="18"/>
<text text-anchor="middle" x="2582" y="-678.4009" font-family="Helvetica,sans-Serif" font-size="14.00" fill="#000000">prose</text>
</g>
<!-- section_19&#45;&gt;prose_31 -->
<g id="edge31" class="edge">
<title>section_19&#45;&gt;prose_31</title>
<path fill="none" stroke="#000000" stroke-dasharray="5,2" d="M2661.0816,-1177.2471C2648.8143,-1100.5168 2601.3782,-803.8092 2586.4941,-710.7111"/>
<polygon fill="#000000" stroke="#000000" points="2589.9183,-709.9586 2584.8835,-700.6366 2583.0061,-711.0638 2589.9183,-709.9586"/>
</g>
<!-- prose_32 -->
<g id="node33" class="node">
<title>prose_32</title>
<ellipse fill="none" stroke="#000000" cx="2664" cy="-682.6009" rx="32.4585" ry="18"/>
<text text-anchor="middle" x="2664" y="-678.4009" font-family="Helvetica,sans-Serif" font-size="14.00" fill="#000000">prose</text>
</g>
<!-- section_19&#45;&gt;prose_32 -->
<g id="edge32" class="edge">
<title>section_19&#45;&gt;prose_32</title>
<path fill="none" stroke="#000000" stroke-dasharray="5,2" d="M2664,-1177.2471C2664,-1100.5168 2664,-803.8092 2664,-710.7111"/>
<polygon fill="#000000" stroke="#000000" points="2667.5001,-710.6365 2664,-700.6366 2660.5001,-710.6366 2667.5001,-710.6365"/>
</g>
<!-- prose_33 -->
<g id="node34" class="node">
<title>prose_33</title>
<ellipse fill="none" stroke="#000000" cx="2872" cy="-682.6009" rx="32.4585" ry="18"/>
<text text-anchor="middle" x="2872" y="-678.4009" font-family="Helvetica,sans-Serif" font-size="14.00" fill="#000000">prose</text>
</g>
<!-- section_19&#45;&gt;prose_33 -->
<g id="edge33" class="edge">
<title>section_19&#45;&gt;prose_33</title>
<path fill="none" stroke="#000000" stroke-dasharray="5,2" d="M2671.2809,-1177.5478C2702.295,-1101.0711 2823.5061,-802.1804 2860.9317,-709.8939"/>
<polygon fill="#000000" stroke="#000000" points="2864.2635,-710.9912 2864.7782,-700.4088 2857.7766,-708.3605 2864.2635,-710.9912"/>
</g>
<!-- prose_34 -->
<g id="node35" class="node">
<title>prose_34</title>
<ellipse fill="none" stroke="#000000" cx="3304" cy="-682.6009" rx="32.4585" ry="18"/>
<text text-anchor="middle" x="3304" y="-678.4009" font-family="Helvetica,sans-Serif" font-size="14.00" fill="#000000">prose</text>
</g>
<!-- section_19&#45;&gt;prose_34 -->
<g id="edge34" class="edge">
<title>section_19&#45;&gt;prose_34</title>
<path fill="none" stroke="#000000" stroke-dasharray="5,2" d="M2685.6607,-1178.1425C2782.0719,-1100.8778 3172.0621,-788.3369 3277.5713,-703.7811"/>
<polygon fill="#000000" stroke="#000000" points="3279.8913,-706.4071 3285.5058,-697.4223 3275.5137,-700.9448 3279.8913,-706.4071"/>
</g>
<!-- codeblock_35 -->
<g id="node36" class="node">
<title>codeblock_35</title>
<ellipse fill="none" stroke="#000000" cx="3594" cy="-682.6009" rx="82.2579" ry="18"/>
<text text-anchor="middle" x="3594" y="-678.4009" font-family="Helvetica,sans-Serif" font-size="14.00" fill="#000000">code block 98&#45;132</text>
</g>
<!-- section_19&#45;&gt;codeblock_35 -->
<g id="edge35" class="edge">
<title>section_19&#45;&gt;codeblock_35</title>
<path fill="none" stroke="#000000" stroke-dasharray="5,2" d="M2693.6287,-1179.1611C2830.1776,-1103.8535 3398.7758,-790.2682 3554.4468,-704.4147"/>
<polygon fill="#000000" stroke="#000000" points="3556.1853,-707.453 3563.2516,-699.5588 3552.8047,-701.3234 3556.1853,-707.453"/>
</g>
<!-- leaf_22 -->
<g id="node23" class="node">
<title>leaf_22</title>
<polygon fill="none" stroke="#c0c0c0" points="1806.5,-387.2016 1699.5,-387.2016 1699.5,-315.3993 1806.5,-315.3993 1806.5,-387.2016"/>
<text text-anchor="middle" x="1753" y="-339.8005" font-family="Inconsolata" font-size="14.00" fill="#000000">Let&#39;s try it.</text>
</g>
<!-- raw_21&#45;&gt;leaf_22 -->
<g id="edge22" class="edge">
<title>raw_21&#45;&gt;leaf_22</title>
<path fill="none" stroke="#000000" stroke-dasharray="5,2" d="M1772.841,-664.3168C1769.6448,-613.8927 1760.6315,-471.6963 1755.9323,-397.5617"/>
<polygon fill="#000000" stroke="#000000" points="1759.3972,-396.8953 1755.2715,-387.1367 1752.4112,-397.3381 1759.3972,-396.8953"/>
</g>
<!-- leaf_26 -->
<g id="node27" class="node">
<title>leaf_26</title>
<polygon fill="none" stroke="#c0c0c0" points="1917.5,-369.3005 1824.5,-369.3005 1824.5,-333.3005 1917.5,-333.3005 1917.5,-369.3005"/>
<text text-anchor="middle" x="1871" y="-347.8005" font-family="Inconsolata" font-size="14.00" fill="#000000">*** Imports</text>
</g>
<!-- header_23&#45;&gt;leaf_26 -->
<g id="edge26" class="edge">
<title>header_23&#45;&gt;leaf_26</title>
<path fill="none" stroke="#000000" stroke-dasharray="5,2" d="M1871,-664.3168C1871,-609.4483 1871,-445.9167 1871,-379.6546"/>
<polygon fill="#000000" stroke="#000000" points="1874.5001,-379.528 1871,-369.528 1867.5001,-379.528 1874.5001,-379.528"/>
</g>
<!-- raw_27 -->
<g id="node28" class="node">
<title>raw_27</title>
<ellipse fill="none" stroke="#000000" cx="1963" cy="-351.3005" rx="27" ry="18"/>
<text text-anchor="middle" x="1963" y="-347.1005" font-family="Helvetica,sans-Serif" font-size="14.00" fill="#000000">raw</text>
</g>
<!-- prose_24&#45;&gt;raw_27 -->
<g id="edge27" class="edge">
<title>prose_24&#45;&gt;raw_27</title>
<path fill="none" stroke="#000000" stroke-dasharray="5,2" d="M1972.4481,-664.3168C1970.792,-609.4483 1965.8559,-445.9167 1963.8558,-379.6546"/>
<polygon fill="#000000" stroke="#000000" points="1967.3504,-379.4178 1963.5502,-369.528 1960.3536,-379.6291 1967.3504,-379.4178"/>
</g>
<!-- leaf_29 -->
<g id="node30" class="node">
<title>leaf_29</title>
<polygon fill="none" stroke="#c0c0c0" points="2367.5,-393.9015 2008.5,-393.9015 2008.5,-308.6994 2367.5,-308.6994 2367.5,-393.9015"/>
<text text-anchor="middle" x="2188" y="-378.9005" font-family="Inconsolata" font-size="14.00" fill="#000000">local Node &#160;&#160;&#160;= &#160;require &quot;espalier/node&quot;</text>
<text text-anchor="middle" x="2188" y="-363.5005" font-family="Inconsolata" font-size="14.00" fill="#000000">local Grammar = &#160;require &quot;espalier/grammar&quot;</text>
<text text-anchor="middle" x="2188" y="-348.1005" font-family="Inconsolata" font-size="14.00" fill="#000000">local L &#160;&#160;&#160;&#160;&#160;&#160;= &#160;require &quot;espalier/elpatt&quot;</text>
<text text-anchor="middle" x="2188" y="-316.7004" font-family="Inconsolata" font-size="14.00" fill="#000000">local P, R, E, V, S &#160;&#160;&#160;= &#160;L.P, L.R, L.E, L.V, L.S</text>
</g>
<!-- codeblock_25&#45;&gt;leaf_29 -->
<g id="edge29" class="edge">
<title>codeblock_25&#45;&gt;leaf_29</title>
<path fill="none" stroke="#000000" stroke-dasharray="5,2" d="M2147.3731,-664.3168C2153.721,-615.4088 2171.2745,-480.1644 2181.1043,-404.4292"/>
<polygon fill="#000000" stroke="#000000" points="2184.6218,-404.5201 2182.4381,-394.1527 2177.68,-403.619 2184.6218,-404.5201"/>
</g>
<!-- leaf_28 -->
<g id="node29" class="node">
<title>leaf_28</title>
<polygon fill="none" stroke="#c0c0c0" points="1882,-45.7 1828,-45.7 1828,-9.7 1882,-9.7 1882,-45.7"/>
</g>
<!-- raw_27&#45;&gt;leaf_28 -->
<g id="edge28" class="edge">
<title>raw_27&#45;&gt;leaf_28</title>
<path fill="none" stroke="#000000" stroke-dasharray="5,2" d="M1964.4822,-333.3144C1967.2995,-289.1879 1969.6887,-173.2141 1926,-91.4 1920.9722,-81.9848 1903.0056,-65.9001 1886.4054,-52.25"/>
<polygon fill="#000000" stroke="#000000" points="1888.4011,-49.3622 1878.4286,-45.7844 1883.9933,-54.8002 1888.4011,-49.3622"/>
</g>
<!-- leaf_36 -->
<g id="node37" class="node">
<title>leaf_36</title>
<polygon fill="none" stroke="#c0c0c0" points="2528,-369.3005 2442,-369.3005 2442,-333.3005 2528,-333.3005 2528,-369.3005"/>
<text text-anchor="middle" x="2485" y="-347.8005" font-family="Inconsolata" font-size="14.00" fill="#000000">*** lua_fn</text>
</g>
<!-- header_30&#45;&gt;leaf_36 -->
<g id="edge36" class="edge">
<title>header_30&#45;&gt;leaf_36</title>
<path fill="none" stroke="#000000" stroke-dasharray="5,2" d="M2485,-664.3168C2485,-609.4483 2485,-445.9167 2485,-379.6546"/>
<polygon fill="#000000" stroke="#000000" points="2488.5001,-379.528 2485,-369.528 2481.5001,-379.528 2488.5001,-379.528"/>
</g>
<!-- raw_37 -->
<g id="node38" class="node">
<title>raw_37</title>
<ellipse fill="none" stroke="#000000" cx="2577" cy="-351.3005" rx="27" ry="18"/>
<text text-anchor="middle" x="2577" y="-347.1005" font-family="Helvetica,sans-Serif" font-size="14.00" fill="#000000">raw</text>
</g>
<!-- prose_31&#45;&gt;raw_37 -->
<g id="edge37" class="edge">
<title>prose_31&#45;&gt;raw_37</title>
<path fill="none" stroke="#000000" stroke-dasharray="5,2" d="M2581.7241,-664.3168C2580.896,-609.4483 2578.428,-445.9167 2577.4279,-379.6546"/>
<polygon fill="#000000" stroke="#000000" points="2580.9257,-379.474 2577.2751,-369.528 2573.9265,-379.5797 2580.9257,-379.474"/>
</g>
<!-- raw_39 -->
<g id="node40" class="node">
<title>raw_39</title>
<ellipse fill="none" stroke="#000000" cx="2656" cy="-351.3005" rx="27" ry="18"/>
<text text-anchor="middle" x="2656" y="-347.1005" font-family="Helvetica,sans-Serif" font-size="14.00" fill="#000000">raw</text>
</g>
<!-- prose_32&#45;&gt;raw_39 -->
<g id="edge39" class="edge">
<title>prose_32&#45;&gt;raw_39</title>
<path fill="none" stroke="#000000" stroke-dasharray="5,2" d="M2663.5585,-664.3168C2662.2336,-609.4483 2658.2847,-445.9167 2656.6847,-379.6546"/>
<polygon fill="#000000" stroke="#000000" points="2660.1806,-379.4406 2656.4401,-369.528 2653.1827,-379.6096 2660.1806,-379.4406"/>
</g>
<!-- raw_41 -->
<g id="node42" class="node">
<title>raw_41</title>
<ellipse fill="none" stroke="#000000" cx="2903" cy="-351.3005" rx="27" ry="18"/>
<text text-anchor="middle" x="2903" y="-347.1005" font-family="Helvetica,sans-Serif" font-size="14.00" fill="#000000">raw</text>
</g>
<!-- prose_33&#45;&gt;raw_41 -->
<g id="edge41" class="edge">
<title>prose_33&#45;&gt;raw_41</title>
<path fill="none" stroke="#000000" stroke-dasharray="5,2" d="M2873.7109,-664.3168C2878.8449,-609.4483 2894.1467,-445.9167 2900.3469,-379.6546"/>
<polygon fill="#000000" stroke="#000000" points="2903.8475,-379.8106 2901.2944,-369.528 2896.8779,-379.1584 2903.8475,-379.8106"/>
</g>
<!-- raw_43 -->
<g id="node44" class="node">
<title>raw_43</title>
<ellipse fill="none" stroke="#000000" cx="3188" cy="-351.3005" rx="27" ry="18"/>
<text text-anchor="middle" x="3188" y="-347.1005" font-family="Helvetica,sans-Serif" font-size="14.00" fill="#000000">raw</text>
</g>
<!-- prose_34&#45;&gt;raw_43 -->
<g id="edge43" class="edge">
<title>prose_34&#45;&gt;raw_43</title>
<path fill="none" stroke="#000000" stroke-dasharray="5,2" d="M3288.4495,-666.6446C3275.9939,-652.9925 3259.0032,-632.2601 3249,-611.2009 3211.5623,-532.3855 3196.1984,-428.9348 3190.6889,-379.7064"/>
<polygon fill="#000000" stroke="#000000" points="3194.1416,-379.0748 3189.6027,-369.5015 3187.1809,-379.8158 3194.1416,-379.0748"/>
</g>
<!-- prespace_44 -->
<g id="node45" class="node">
<title>prespace_44</title>
<ellipse fill="none" stroke="#000000" cx="3304" cy="-351.3005" rx="46.4736" ry="18"/>
<text text-anchor="middle" x="3304" y="-347.1005" font-family="Helvetica,sans-Serif" font-size="14.00" fill="#000000">prespace</text>
</g>
<!-- prose_34&#45;&gt;prespace_44 -->
<g id="edge44" class="edge">
<title>prose_34&#45;&gt;prespace_44</title>
<path fill="none" stroke="#000000" stroke-dasharray="5,2" d="M3304,-664.3168C3304,-609.4483 3304,-445.9167 3304,-379.6546"/>
<polygon fill="#000000" stroke="#000000" points="3307.5001,-379.528 3304,-369.528 3300.5001,-379.528 3307.5001,-379.528"/>
</g>
<!-- literal_45 -->
<g id="node46" class="node">
<title>literal_45</title>
<ellipse fill="none" stroke="#000000" cx="3400" cy="-351.3005" rx="31.481" ry="18"/>
<text text-anchor="middle" x="3400" y="-347.1005" font-family="Helvetica,sans-Serif" font-size="14.00" fill="#000000">literal</text>
</g>
<!-- prose_34&#45;&gt;literal_45 -->
<g id="edge45" class="edge">
<title>prose_34&#45;&gt;literal_45</title>
<path fill="none" stroke="#000000" stroke-dasharray="5,2" d="M3319.9628,-666.8311C3332.6637,-653.2901 3349.7834,-632.616 3359,-611.2009 3392.9965,-532.2088 3399.1643,-428.8413 3400.0481,-379.6693"/>
<polygon fill="#000000" stroke="#000000" points="3403.55,-379.517 3400.1677,-369.4765 3396.5505,-379.4348 3403.55,-379.517"/>
</g>
<!-- raw_46 -->
<g id="node47" class="node">
<title>raw_46</title>
<ellipse fill="none" stroke="#000000" cx="3476" cy="-351.3005" rx="27" ry="18"/>
<text text-anchor="middle" x="3476" y="-347.1005" font-family="Helvetica,sans-Serif" font-size="14.00" fill="#000000">raw</text>
</g>
<!-- prose_34&#45;&gt;raw_46 -->
<g id="edge46" class="edge">
<title>prose_34&#45;&gt;raw_46</title>
<path fill="none" stroke="#000000" stroke-dasharray="5,2" d="M3333.7476,-675.5966C3365.5185,-666.4573 3414.7034,-647.2032 3440,-611.2009 3489.9991,-540.0417 3485.4443,-430.467 3479.8971,-379.3539"/>
<polygon fill="#000000" stroke="#000000" points="3483.3667,-378.8895 3478.7176,-369.3691 3476.415,-379.7107 3483.3667,-378.8895"/>
</g>
<!-- leaf_51 -->
<g id="node52" class="node">
<title>leaf_51</title>
<polygon fill="none" stroke="#c0c0c0" points="3978.5,-611.1013 3521.5,-611.1013 3521.5,-91.4996 3978.5,-91.4996 3978.5,-611.1013"/>
<text text-anchor="middle" x="3750" y="-596.0009" font-family="Inconsolata" font-size="14.00" fill="#000000">local _do, _end, _then = P&quot;do&quot;, P&quot;end&quot;, P&quot;then&quot;</text>
<text text-anchor="middle" x="3750" y="-564.6008" font-family="Inconsolata" font-size="14.00" fill="#000000">local function lua_fn(ENV)</text>
<text text-anchor="middle" x="3750" y="-549.2008" font-family="Inconsolata" font-size="14.00" fill="#000000"> &#160;&#160;START &quot;lua&quot;</text>
<text text-anchor="middle" x="3750" y="-533.8008" font-family="Inconsolata" font-size="14.00" fill="#000000"> &#160;&#160;lua &#160;&#160;= V&quot;chunk&quot;^1</text>
<text text-anchor="middle" x="3750" y="-518.4007" font-family="Inconsolata" font-size="14.00" fill="#000000"> &#160;&#160;chunk = (V&quot;stat&quot; * P&quot;;&quot;^0) * (V&quot;laststat&quot;^0 * P&quot;;&quot;^0)^&#45;1</text>
<text text-anchor="middle" x="3750" y="-503.0007" font-family="Inconsolata" font-size="14.00" fill="#000000"> &#160;&#160;block = V&quot;chunk&quot;</text>
<text text-anchor="middle" x="3750" y="-471.6007" font-family="Inconsolata" font-size="14.00" fill="#000000"> &#160;&#160;stat &#160;= V&quot;varlist&quot; * P&quot;=&quot; * V&quot;explist&quot; +</text>
<text text-anchor="middle" x="3750" y="-456.2007" font-family="Inconsolata" font-size="14.00" fill="#000000"> &#160;&#160;&#160;&#160;&#160;&#160;&#160;&#160;&#160;&#160;V&quot;functioncall&quot; +</text>
<text text-anchor="middle" x="3750" y="-440.8006" font-family="Inconsolata" font-size="14.00" fill="#000000"> &#160;&#160;&#160;&#160;&#160;&#160;&#160;&#160;&#160;&#160;_do * V&quot;block&quot; * _end +</text>
<text text-anchor="middle" x="3750" y="-425.4006" font-family="Inconsolata" font-size="14.00" fill="#000000"> &#160;&#160;&#160;&#160;&#160;&#160;&#160;&#160;&#160;&#160;P&quot;while&quot; * V&quot;exp&quot; * _do * V&quot;block&quot; * _end +</text>
<text text-anchor="middle" x="3750" y="-410.0006" font-family="Inconsolata" font-size="14.00" fill="#000000"> &#160;&#160;&#160;&#160;&#160;&#160;&#160;&#160;&#160;&#160;P&quot;repeat&quot; * V&quot;block&quot; * P&quot;until&quot; * _end +</text>
<text text-anchor="middle" x="3750" y="-394.6005" font-family="Inconsolata" font-size="14.00" fill="#000000"> &#160;&#160;&#160;&#160;&#160;&#160;&#160;&#160;&#160;&#160;P&quot;if&quot; * V&quot;exp&quot; * _then * V&quot;block&quot; *</text>
<text text-anchor="middle" x="3750" y="-379.2005" font-family="Inconsolata" font-size="14.00" fill="#000000"> &#160;&#160;&#160;&#160;&#160;&#160;&#160;&#160;&#160;&#160;&#160;&#160;&#160;( P&quot;elseif&quot; V&quot;exp&quot; * _then * V&quot;block&quot; )^0 *</text>
<text text-anchor="middle" x="3750" y="-363.8005" font-family="Inconsolata" font-size="14.00" fill="#000000"> &#160;&#160;&#160;&#160;&#160;&#160;&#160;&#160;&#160;&#160;&#160;&#160;&#160;( P&quot;else&quot; * V&quot;block&quot; )^&#45;1 * _end +</text>
<text text-anchor="middle" x="3750" y="-348.4004" font-family="Inconsolata" font-size="14.00" fill="#000000"> &#160;&#160;&#160;&#160;&#160;&#160;&#160;&#160;&#160;&#160;P&quot;for&quot; * V&quot;Name&quot; * P&quot;=&quot; * V&quot;exp&quot; * P&quot;,&quot; * V&quot;exp&quot; *</text>
<text text-anchor="middle" x="3750" y="-333.0004" font-family="Inconsolata" font-size="14.00" fill="#000000"> &#160;&#160;&#160;&#160;&#160;&#160;&#160;&#160;&#160;&#160;&#160;&#160;&#160;( P&quot;,&quot; * V&quot;exp&quot; )^&#45;1 * _do * V&quot;block&quot; * _end +</text>
<text text-anchor="middle" x="3750" y="-317.6004" font-family="Inconsolata" font-size="14.00" fill="#000000"> &#160;&#160;&#160;&#160;&#160;&#160;&#160;&#160;&#160;&#160;P&quot;for&quot; * V&quot;namelist&quot; * P&quot;in&quot; * V&quot;explist&quot; * _do *</text>
<text text-anchor="middle" x="3750" y="-302.2003" font-family="Inconsolata" font-size="14.00" fill="#000000"> &#160;&#160;&#160;&#160;&#160;&#160;&#160;&#160;&#160;&#160;&#160;&#160;&#160;V&quot;block&quot; * _end +</text>
<text text-anchor="middle" x="3750" y="-286.8003" font-family="Inconsolata" font-size="14.00" fill="#000000"> &#160;&#160;&#160;&#160;&#160;&#160;&#160;&#160;&#160;&#160;P&quot;function&quot; * V&quot;funcname&quot; * V&quot;funcbody&quot; +</text>
<text text-anchor="middle" x="3750" y="-271.4003" font-family="Inconsolata" font-size="14.00" fill="#000000"> &#160;&#160;&#160;&#160;&#160;&#160;&#160;&#160;&#160;&#160;P&quot;local&quot; * P&quot;function&quot; * V&quot;Name&quot; * V&quot;funcbody&quot; +</text>
<text text-anchor="middle" x="3750" y="-256.0002" font-family="Inconsolata" font-size="14.00" fill="#000000"> &#160;&#160;&#160;&#160;&#160;&#160;&#160;&#160;&#160;&#160;P&quot;local&quot; * V&quot;namelist&quot; * ( P&quot;=&quot; * V&quot;explist&quot; )^&#45;1</text>
<text text-anchor="middle" x="3750" y="-224.6002" font-family="Inconsolata" font-size="14.00" fill="#000000"> &#160;&#160;laststat = P&quot;return&quot; * V&quot;explist&quot;^&#45;1 + P&quot;break&quot;</text>
<text text-anchor="middle" x="3750" y="-193.2002" font-family="Inconsolata" font-size="14.00" fill="#000000"> &#160;&#160;funcname = V&quot;Name&quot; * ( P&quot;.&quot; * V&quot;Name&quot; )^0 * ( P&quot;:&quot; V&quot;Name&quot; )</text>
<text text-anchor="middle" x="3750" y="-161.8002" font-family="Inconsolata" font-size="14.00" fill="#000000"> &#160;&#160;varlist &#160;= V&quot;var&quot; * ( P&quot;,&quot; V&quot;var&quot;)^0</text>
<text text-anchor="middle" x="3750" y="-130.4001" font-family="Inconsolata" font-size="14.00" fill="#000000"> &#160;&#160;var &#160;&#160;&#160;&#160;&#160;= V&quot;Name&quot; + V&quot;prefixexp&quot; * P&quot;[&quot; * V&quot;exp&quot; * P&quot;]&quot; +</text>
<text text-anchor="middle" x="3750" y="-115.0001" font-family="Inconsolata" font-size="14.00" fill="#000000"> &#160;&#160;&#160;&#160;&#160;&#160;&#160;&#160;&#160;&#160;&#160;&#160;&#160;&#160;&#160;&#160;V&quot;prefixexp&quot; * &quot;.&quot; * V&quot;Name&quot;</text>
<text text-anchor="middle" x="3750" y="-99.6001" font-family="Inconsolata" font-size="14.00" fill="#000000">end</text>
</g>
<!-- codeblock_35&#45;&gt;leaf_51 -->
<g id="edge51" class="edge">
<title>codeblock_35&#45;&gt;leaf_51</title>
<path fill="none" stroke="#000000" stroke-dasharray="5,2" d="M3602.6094,-664.3168C3607.6952,-653.5161 3614.7636,-638.5049 3623.0749,-620.8538"/>
<polygon fill="#000000" stroke="#000000" points="3626.437,-621.9294 3627.5306,-611.3912 3620.104,-618.9473 3626.437,-621.9294"/>
</g>
<!-- leaf_38 -->
<g id="node39" class="node">
<title>leaf_38</title>
<polygon fill="none" stroke="#c0c0c0" points="2350,-55.6015 1900,-55.6015 1900,.2015 2350,.2015 2350,-55.6015"/>
<text text-anchor="middle" x="2125" y="-8.2" font-family="Inconsolata" font-size="14.00" fill="#000000">This is provided to the Grammar engine to create a Lua parser.</text>
</g>
<!-- raw_37&#45;&gt;leaf_38 -->
<g id="edge38" class="edge">
<title>raw_37&#45;&gt;leaf_38</title>
<path fill="none" stroke="#000000" stroke-dasharray="5,2" d="M2580.5662,-333.3864C2588.797,-286.2972 2603.6382,-158.0842 2537,-91.4 2529.4799,-83.8748 2441.9402,-69.8227 2349.4795,-56.8275"/>
<polygon fill="#000000" stroke="#000000" points="2349.7449,-53.3307 2339.3565,-55.4116 2348.7752,-60.2632 2349.7449,-53.3307"/>
</g>
<!-- leaf_40 -->
<g id="node41" class="node">
<title>leaf_40</title>
<polygon fill="none" stroke="#c0c0c0" points="2818,-47.6021 2368,-47.6021 2368,-7.7979 2818,-7.7979 2818,-47.6021"/>
<text text-anchor="middle" x="2593" y="-16.2" font-family="Inconsolata" font-size="14.00" fill="#000000">&#45; #Todo this being a 5.1 grammar, need to add goto statements.</text>
</g>
<!-- raw_39&#45;&gt;leaf_40 -->
<g id="edge40" class="edge">
<title>raw_39&#45;&gt;leaf_40</title>
<path fill="none" stroke="#000000" stroke-dasharray="5,2" d="M2653.8897,-333.1664C2648.7421,-290.5871 2634.3767,-181.0425 2613,-91.4 2610.3104,-80.1214 2606.6691,-67.931 2603.2304,-57.2634"/>
<polygon fill="#000000" stroke="#000000" points="2606.4926,-55.98 2600.0333,-47.5819 2599.8456,-58.1751 2606.4926,-55.98"/>
</g>
<!-- leaf_42 -->
<g id="node43" class="node">
<title>leaf_42</title>
<polygon fill="none" stroke="#c0c0c0" points="3034,-47.6021 2836,-47.6021 2836,-7.7979 3034,-7.7979 3034,-47.6021"/>
<text text-anchor="middle" x="2935" y="-16.2" font-family="Inconsolata" font-size="14.00" fill="#000000">&#45; #Todo add the whitespace</text>
</g>
<!-- raw_41&#45;&gt;leaf_42 -->
<g id="edge42" class="edge">
<title>raw_41&#45;&gt;leaf_42</title>
<path fill="none" stroke="#000000" stroke-dasharray="5,2" d="M2904.8121,-332.9751C2910.0974,-279.5281 2925.5315,-123.4504 2932.0452,-57.5807"/>
<polygon fill="#000000" stroke="#000000" points="2935.5457,-57.7477 2933.0468,-47.4518 2928.5796,-57.0588 2935.5457,-57.7477"/>
</g>
<!-- leaf_47 -->
<g id="node48" class="node">
<title>leaf_47</title>
<polygon fill="none" stroke="#c0c0c0" points="3299.5,-47.6021 3052.5,-47.6021 3052.5,-7.7979 3299.5,-7.7979 3299.5,-47.6021"/>
<text text-anchor="middle" x="3176" y="-16.2" font-family="Inconsolata" font-size="14.00" fill="#000000">&#45; #Todo add precedence parsing of</text>
</g>
<!-- raw_43&#45;&gt;leaf_47 -->
<g id="edge47" class="edge">
<title>raw_43&#45;&gt;leaf_47</title>
<path fill="none" stroke="#000000" stroke-dasharray="5,2" d="M3187.3204,-332.9751C3185.3385,-279.5281 3179.5507,-123.4504 3177.1081,-57.5807"/>
<polygon fill="#000000" stroke="#000000" points="3180.6007,-57.3152 3176.7324,-47.4518 3173.6055,-57.5746 3180.6007,-57.3152"/>
</g>
<!-- leaf_48 -->
<g id="node49" class="node">
<title>leaf_48</title>
<polygon fill="none" stroke="#c0c0c0" points="3372,-45.7 3318,-45.7 3318,-9.7 3372,-9.7 3372,-45.7"/>
<text text-anchor="middle" x="3345" y="-24.2" font-family="Inconsolata" font-size="14.00" fill="#000000"> </text>
</g>
<!-- prespace_44&#45;&gt;leaf_48 -->
<g id="edge48" class="edge">
<title>prespace_44&#45;&gt;leaf_48</title>
<path fill="none" stroke="#000000" stroke-dasharray="5,2" d="M3306.3218,-332.9751C3313.1436,-279.1327 3333.1618,-121.1357 3341.3975,-56.1338"/>
<polygon fill="#000000" stroke="#000000" points="3344.9189,-56.185 3342.7037,-45.8244 3337.9744,-55.3051 3344.9189,-56.185"/>
</g>
<!-- leaf_49 -->
<g id="node50" class="node">
<title>leaf_49</title>
<polygon fill="none" stroke="#c0c0c0" points="3444,-45.7 3390,-45.7 3390,-9.7 3444,-9.7 3444,-45.7"/>
<text text-anchor="middle" x="3417" y="-24.2" font-family="Inconsolata" font-size="14.00" fill="#000000">exp</text>
</g>
<!-- literal_45&#45;&gt;leaf_49 -->
<g id="edge49" class="edge">
<title>literal_45&#45;&gt;leaf_49</title>
<path fill="none" stroke="#000000" stroke-dasharray="5,2" d="M3400.9627,-332.9751C3403.7913,-279.1327 3412.0915,-121.1357 3415.5063,-56.1338"/>
<polygon fill="#000000" stroke="#000000" points="3419.0183,-55.9943 3416.0479,-45.8244 3412.028,-55.627 3419.0183,-55.9943"/>
</g>
<!-- leaf_50 -->
<g id="node51" class="node">
<title>leaf_50</title>
<polygon fill="none" stroke="#c0c0c0" points="3516,-45.7 3462,-45.7 3462,-9.7 3516,-9.7 3516,-45.7"/>
</g>
<!-- raw_46&#45;&gt;leaf_50 -->
<g id="edge50" class="edge">
<title>raw_46&#45;&gt;leaf_50</title>
<path fill="none" stroke="#000000" stroke-dasharray="5,2" d="M3476.7362,-332.9751C3478.8992,-279.1327 3485.2464,-121.1357 3487.8577,-56.1338"/>
<polygon fill="#000000" stroke="#000000" points="3491.3676,-55.9568 3488.2719,-45.8244 3484.3732,-55.6758 3491.3676,-55.9568"/>
</g>
</g>
</svg>
