<?xml version="1.0" encoding="UTF-8" standalone="no"?>
<!DOCTYPE svg PUBLIC "-//W3C//DTD SVG 1.1//EN"
 "http://www.w3.org/Graphics/SVG/1.1/DTD/svg11.dtd">
<!-- Generated by graphviz version 2.40.1 (20161225.0304)
 -->
<!-- Title: lpegNode Pages: 1 -->
<svg width="3018pt" height="1751pt"
 viewBox="0.00 0.00 3017.50 1751.40" xmlns="http://www.w3.org/2000/svg" xmlns:xlink="http://www.w3.org/1999/xlink">
<g id="graph0" class="graph" transform="scale(1 1) rotate(0) translate(4 1747.4019)">
<title>lpegNode</title>
<polygon fill="#ffffff" stroke="transparent" points="-4,4 -4,-1747.4019 3013.5,-1747.4019 3013.5,4 -4,4"/>
<!-- doc_0 -->
<g id="node1" class="node">
<title>doc_0</title>
<ellipse fill="none" stroke="#000000" cx="906" cy="-1725.4019" rx="46.9581" ry="18"/>
<text text-anchor="middle" x="906" y="-1721.2019" font-family="Helvetica,sans-Serif" font-size="14.00" fill="#000000">doc &#45; 136</text>
</g>
<!-- section_1 -->
<g id="node2" class="node">
<title>section_1</title>
<ellipse fill="none" stroke="#000000" cx="906" cy="-1653.4019" rx="60.9826" ry="18"/>
<text text-anchor="middle" x="906" y="-1649.2019" font-family="Helvetica,sans-Serif" font-size="14.00" fill="#000000">section: 1&#45;71</text>
</g>
<!-- doc_0&#45;&gt;section_1 -->
<g id="edge1" class="edge">
<title>doc_0&#45;&gt;section_1</title>
<path fill="none" stroke="#000000" stroke-dasharray="5,2" d="M906,-1707.2333C906,-1699.5329 906,-1690.3763 906,-1681.8185"/>
<polygon fill="#000000" stroke="#000000" points="909.5001,-1681.8151 906,-1671.8152 902.5001,-1681.8152 909.5001,-1681.8151"/>
</g>
<!-- header_2 -->
<g id="node3" class="node">
<title>header_2</title>
<ellipse fill="none" stroke="#000000" cx="633" cy="-1581.4019" rx="100.1143" ry="18"/>
<text text-anchor="middle" x="633" y="-1577.2019" font-family="Helvetica,sans-Serif" font-size="14.00" fill="#000000">1 : A Grammar For Lua</text>
</g>
<!-- section_1&#45;&gt;header_2 -->
<g id="edge2" class="edge">
<title>section_1&#45;&gt;header_2</title>
<path fill="none" stroke="#000000" stroke-dasharray="5,2" d="M860.6131,-1641.4317C816.549,-1629.8104 749.1718,-1612.0406 699.1453,-1598.8468"/>
<polygon fill="#000000" stroke="#000000" points="699.9453,-1595.4382 689.3834,-1596.2722 698.1602,-1602.2068 699.9453,-1595.4382"/>
</g>
<!-- prose_3 -->
<g id="node4" class="node">
<title>prose_3</title>
<ellipse fill="none" stroke="#000000" cx="783" cy="-1581.4019" rx="32.4585" ry="18"/>
<text text-anchor="middle" x="783" y="-1577.2019" font-family="Helvetica,sans-Serif" font-size="14.00" fill="#000000">prose</text>
</g>
<!-- section_1&#45;&gt;prose_3 -->
<g id="edge3" class="edge">
<title>section_1&#45;&gt;prose_3</title>
<path fill="none" stroke="#000000" stroke-dasharray="5,2" d="M878.3964,-1637.2437C859.3555,-1626.0978 834.0105,-1611.2617 814.2307,-1599.6833"/>
<polygon fill="#000000" stroke="#000000" points="815.9752,-1596.6489 805.5769,-1594.6176 812.4389,-1602.69 815.9752,-1596.6489"/>
</g>
<!-- prose_4 -->
<g id="node5" class="node">
<title>prose_4</title>
<ellipse fill="none" stroke="#000000" cx="865" cy="-1581.4019" rx="32.4585" ry="18"/>
<text text-anchor="middle" x="865" y="-1577.2019" font-family="Helvetica,sans-Serif" font-size="14.00" fill="#000000">prose</text>
</g>
<!-- section_1&#45;&gt;prose_4 -->
<g id="edge4" class="edge">
<title>section_1&#45;&gt;prose_4</title>
<path fill="none" stroke="#000000" stroke-dasharray="5,2" d="M895.8652,-1635.6041C891.0632,-1627.1714 885.2315,-1616.9304 879.9358,-1607.6307"/>
<polygon fill="#000000" stroke="#000000" points="882.8667,-1605.7044 874.8768,-1598.7465 876.7838,-1609.1683 882.8667,-1605.7044"/>
</g>
<!-- prose_5 -->
<g id="node6" class="node">
<title>prose_5</title>
<ellipse fill="none" stroke="#000000" cx="947" cy="-1581.4019" rx="32.4585" ry="18"/>
<text text-anchor="middle" x="947" y="-1577.2019" font-family="Helvetica,sans-Serif" font-size="14.00" fill="#000000">prose</text>
</g>
<!-- section_1&#45;&gt;prose_5 -->
<g id="edge5" class="edge">
<title>section_1&#45;&gt;prose_5</title>
<path fill="none" stroke="#000000" stroke-dasharray="5,2" d="M916.1348,-1635.6041C920.9368,-1627.1714 926.7685,-1616.9304 932.0642,-1607.6307"/>
<polygon fill="#000000" stroke="#000000" points="935.2162,-1609.1683 937.1232,-1598.7465 929.1333,-1605.7044 935.2162,-1609.1683"/>
</g>
<!-- codeblock_6 -->
<g id="node7" class="node">
<title>codeblock_6</title>
<ellipse fill="none" stroke="#000000" cx="1159" cy="-1581.4019" rx="77.4211" ry="18"/>
<text text-anchor="middle" x="1159" y="-1577.2019" font-family="Helvetica,sans-Serif" font-size="14.00" fill="#000000">code block 12&#45;69</text>
</g>
<!-- section_1&#45;&gt;codeblock_6 -->
<g id="edge6" class="edge">
<title>section_1&#45;&gt;codeblock_6</title>
<path fill="none" stroke="#000000" stroke-dasharray="5,2" d="M950.0692,-1640.8605C991.6167,-1629.0367 1054.1765,-1611.2331 1100.0114,-1598.1892"/>
<polygon fill="#000000" stroke="#000000" points="1101.1557,-1601.5026 1109.8158,-1595.399 1099.2397,-1594.7699 1101.1557,-1601.5026"/>
</g>
<!-- section_7 -->
<g id="node8" class="node">
<title>section_7</title>
<ellipse fill="none" stroke="#000000" cx="1794" cy="-1581.4019" rx="65.8187" ry="18"/>
<text text-anchor="middle" x="1794" y="-1577.2019" font-family="Helvetica,sans-Serif" font-size="14.00" fill="#000000">section: 72&#45;87</text>
</g>
<!-- section_1&#45;&gt;section_7 -->
<g id="edge7" class="edge">
<title>section_1&#45;&gt;section_7</title>
<path fill="none" stroke="#000000" stroke-dasharray="5,2" d="M964.6076,-1648.6499C1121.1589,-1635.9566 1548.8671,-1601.2775 1720.901,-1587.3288"/>
<polygon fill="#000000" stroke="#000000" points="1721.189,-1590.8171 1730.8734,-1586.5203 1720.6232,-1583.84 1721.189,-1590.8171"/>
</g>
<!-- leaf_8 -->
<g id="node9" class="node">
<title>leaf_8</title>
<polygon fill="none" stroke="#c0c0c0" points="707.5,-1103.9014 558.5,-1103.9014 558.5,-1067.9014 707.5,-1067.9014 707.5,-1103.9014"/>
<text text-anchor="middle" x="633" y="-1082.4014" font-family="Inconsolata" font-size="14.00" fill="#000000">* A Grammar For Lua</text>
</g>
<!-- header_2&#45;&gt;leaf_8 -->
<g id="edge8" class="edge">
<title>header_2&#45;&gt;leaf_8</title>
<path fill="none" stroke="#000000" stroke-dasharray="5,2" d="M633,-1563.1791C633,-1488.4335 633,-1205.0119 633,-1114.1295"/>
<polygon fill="#000000" stroke="#000000" points="636.5001,-1114.0277 633,-1104.0277 629.5001,-1114.0277 636.5001,-1114.0277"/>
</g>
<!-- raw_9 -->
<g id="node10" class="node">
<title>raw_9</title>
<ellipse fill="none" stroke="#000000" cx="768" cy="-1085.9014" rx="27" ry="18"/>
<text text-anchor="middle" x="768" y="-1081.7014" font-family="Helvetica,sans-Serif" font-size="14.00" fill="#000000">raw</text>
</g>
<!-- prose_3&#45;&gt;raw_9 -->
<g id="edge9" class="edge">
<title>prose_3&#45;&gt;raw_9</title>
<path fill="none" stroke="#000000" stroke-dasharray="5,2" d="M782.4484,-1563.1791C780.1856,-1488.4335 771.6058,-1205.0119 768.8545,-1114.1295"/>
<polygon fill="#000000" stroke="#000000" points="772.3498,-1113.9172 768.5487,-1104.0277 765.353,-1114.1291 772.3498,-1113.9172"/>
</g>
<!-- raw_11 -->
<g id="node12" class="node">
<title>raw_11</title>
<ellipse fill="none" stroke="#000000" cx="853" cy="-1085.9014" rx="27" ry="18"/>
<text text-anchor="middle" x="853" y="-1081.7014" font-family="Helvetica,sans-Serif" font-size="14.00" fill="#000000">raw</text>
</g>
<!-- prose_4&#45;&gt;raw_11 -->
<g id="edge11" class="edge">
<title>prose_4&#45;&gt;raw_11</title>
<path fill="none" stroke="#000000" stroke-dasharray="5,2" d="M864.5587,-1563.1791C862.7485,-1488.4335 855.8846,-1205.0119 853.6836,-1114.1295"/>
<polygon fill="#000000" stroke="#000000" points="857.1802,-1113.94 853.439,-1104.0277 850.1822,-1114.1095 857.1802,-1113.94"/>
</g>
<!-- raw_13 -->
<g id="node14" class="node">
<title>raw_13</title>
<ellipse fill="none" stroke="#000000" cx="947" cy="-1085.9014" rx="27" ry="18"/>
<text text-anchor="middle" x="947" y="-1081.7014" font-family="Helvetica,sans-Serif" font-size="14.00" fill="#000000">raw</text>
</g>
<!-- prose_5&#45;&gt;raw_13 -->
<g id="edge13" class="edge">
<title>prose_5&#45;&gt;raw_13</title>
<path fill="none" stroke="#000000" stroke-dasharray="5,2" d="M947,-1563.1791C947,-1488.4335 947,-1205.0119 947,-1114.1295"/>
<polygon fill="#000000" stroke="#000000" points="950.5001,-1114.0277 947,-1104.0277 943.5001,-1114.0277 950.5001,-1114.0277"/>
</g>
<!-- leaf_15 -->
<g id="node16" class="node">
<title>leaf_15</title>
<polygon fill="none" stroke="#c0c0c0" points="1491.5,-1527.4024 992.5,-1527.4024 992.5,-644.4003 1491.5,-644.4003 1491.5,-1527.4024"/>
<text text-anchor="middle" x="1242" y="-1512.2019" font-family="Inconsolata" font-size="14.00" fill="#000000">chunk ::= {stat [`;´]} [laststat [`;´]]</text>
<text text-anchor="middle" x="1242" y="-1480.8019" font-family="Inconsolata" font-size="14.00" fill="#000000"> &#160;&#160;block ::= chunk</text>
<text text-anchor="middle" x="1242" y="-1449.4018" font-family="Inconsolata" font-size="14.00" fill="#000000"> &#160;&#160;stat ::= &#160;varlist `=´ explist |</text>
<text text-anchor="middle" x="1242" y="-1434.0018" font-family="Inconsolata" font-size="14.00" fill="#000000"> &#160;&#160;&#160;&#160;&#160;&#160;functioncall |</text>
<text text-anchor="middle" x="1242" y="-1418.6018" font-family="Inconsolata" font-size="14.00" fill="#000000"> &#160;&#160;&#160;&#160;&#160;&#160;do block end |</text>
<text text-anchor="middle" x="1242" y="-1403.2017" font-family="Inconsolata" font-size="14.00" fill="#000000"> &#160;&#160;&#160;&#160;&#160;&#160;while exp do block end |</text>
<text text-anchor="middle" x="1242" y="-1387.8017" font-family="Inconsolata" font-size="14.00" fill="#000000"> &#160;&#160;&#160;&#160;&#160;&#160;repeat block until exp |</text>
<text text-anchor="middle" x="1242" y="-1372.4017" font-family="Inconsolata" font-size="14.00" fill="#000000"> &#160;&#160;&#160;&#160;&#160;&#160;if exp then block {elseif exp then block} [else block] end |</text>
<text text-anchor="middle" x="1242" y="-1357.0017" font-family="Inconsolata" font-size="14.00" fill="#000000"> &#160;&#160;&#160;&#160;&#160;&#160;for Name `=´ exp `,´ exp [`,´ exp] do block end |</text>
<text text-anchor="middle" x="1242" y="-1341.6016" font-family="Inconsolata" font-size="14.00" fill="#000000"> &#160;&#160;&#160;&#160;&#160;&#160;for namelist in explist do block end |</text>
<text text-anchor="middle" x="1242" y="-1326.2016" font-family="Inconsolata" font-size="14.00" fill="#000000"> &#160;&#160;&#160;&#160;&#160;&#160;function funcname funcbody |</text>
<text text-anchor="middle" x="1242" y="-1310.8016" font-family="Inconsolata" font-size="14.00" fill="#000000"> &#160;&#160;&#160;&#160;&#160;&#160;local function Name funcbody |</text>
<text text-anchor="middle" x="1242" y="-1295.4015" font-family="Inconsolata" font-size="14.00" fill="#000000"> &#160;&#160;&#160;&#160;&#160;&#160;local namelist [`=´ explist]</text>
<text text-anchor="middle" x="1242" y="-1264.0015" font-family="Inconsolata" font-size="14.00" fill="#000000"> &#160;&#160;laststat ::= return [explist] | break</text>
<text text-anchor="middle" x="1242" y="-1232.6015" font-family="Inconsolata" font-size="14.00" fill="#000000"> &#160;&#160;funcname ::= Name {`.´ Name} [`:´ Name]</text>
<text text-anchor="middle" x="1242" y="-1201.2014" font-family="Inconsolata" font-size="14.00" fill="#000000"> &#160;&#160;varlist ::= var {`,´ var}</text>
<text text-anchor="middle" x="1242" y="-1169.8014" font-family="Inconsolata" font-size="14.00" fill="#000000"> &#160;&#160;var ::= &#160;Name | prefixexp `[´ exp `]´ | prefixexp `.´ Name</text>
<text text-anchor="middle" x="1242" y="-1138.4014" font-family="Inconsolata" font-size="14.00" fill="#000000"> &#160;&#160;namelist ::= Name {`,´ Name}</text>
<text text-anchor="middle" x="1242" y="-1107.0013" font-family="Inconsolata" font-size="14.00" fill="#000000"> &#160;&#160;explist ::= {exp `,´} exp</text>
<text text-anchor="middle" x="1242" y="-1075.6013" font-family="Inconsolata" font-size="14.00" fill="#000000"> &#160;&#160;exp ::= &#160;nil | false | true | Number | String | `...´ | function |</text>
<text text-anchor="middle" x="1242" y="-1060.2013" font-family="Inconsolata" font-size="14.00" fill="#000000"> &#160;&#160;&#160;&#160;&#160;&#160;prefixexp | tableconstructor | exp binop exp | unop exp</text>
<text text-anchor="middle" x="1242" y="-1028.8012" font-family="Inconsolata" font-size="14.00" fill="#000000"> &#160;&#160;prefixexp ::= var | functioncall | `(´ exp `)´</text>
<text text-anchor="middle" x="1242" y="-997.4012" font-family="Inconsolata" font-size="14.00" fill="#000000"> &#160;&#160;functioncall ::= &#160;prefixexp args | prefixexp `:´ Name args</text>
<text text-anchor="middle" x="1242" y="-966.0012" font-family="Inconsolata" font-size="14.00" fill="#000000"> &#160;&#160;args ::= &#160;`(´ [explist] `)´ | tableconstructor | String</text>
<text text-anchor="middle" x="1242" y="-934.6012" font-family="Inconsolata" font-size="14.00" fill="#000000"> &#160;&#160;function ::= function funcbody</text>
<text text-anchor="middle" x="1242" y="-903.2011" font-family="Inconsolata" font-size="14.00" fill="#000000"> &#160;&#160;funcbody ::= `(´ [parlist] `)´ block end</text>
<text text-anchor="middle" x="1242" y="-871.8011" font-family="Inconsolata" font-size="14.00" fill="#000000"> &#160;&#160;parlist ::= namelist [`,´ `...´] | `...´</text>
<text text-anchor="middle" x="1242" y="-840.4011" font-family="Inconsolata" font-size="14.00" fill="#000000"> &#160;&#160;tableconstructor ::= `{´ [fieldlist] `}´</text>
<text text-anchor="middle" x="1242" y="-809.001" font-family="Inconsolata" font-size="14.00" fill="#000000"> &#160;&#160;fieldlist ::= field {fieldsep field} [fieldsep]</text>
<text text-anchor="middle" x="1242" y="-777.601" font-family="Inconsolata" font-size="14.00" fill="#000000"> &#160;&#160;field ::= `[´ exp `]´ `=´ exp | Name `=´ exp | exp</text>
<text text-anchor="middle" x="1242" y="-746.201" font-family="Inconsolata" font-size="14.00" fill="#000000"> &#160;&#160;fieldsep ::= `,´ | `;´</text>
<text text-anchor="middle" x="1242" y="-714.8009" font-family="Inconsolata" font-size="14.00" fill="#000000"> &#160;&#160;binop ::= `+´ | `&#45;´ | `*´ | `/´ | `^´ | `%´ | `..´ |</text>
<text text-anchor="middle" x="1242" y="-699.4009" font-family="Inconsolata" font-size="14.00" fill="#000000"> &#160;&#160;&#160;&#160;&#160;&#160;`&lt;´ | `&lt;=´ | `&gt;´ | `&gt;=´ | `==´ | `~=´ |</text>
<text text-anchor="middle" x="1242" y="-684.0009" font-family="Inconsolata" font-size="14.00" fill="#000000"> &#160;&#160;&#160;&#160;&#160;&#160;and | or</text>
<text text-anchor="middle" x="1242" y="-652.6008" font-family="Inconsolata" font-size="14.00" fill="#000000"> &#160;&#160;unop ::= `&#45;´ | not | `#´</text>
</g>
<!-- codeblock_6&#45;&gt;leaf_15 -->
<g id="edge15" class="edge">
<title>codeblock_6&#45;&gt;leaf_15</title>
<path fill="none" stroke="#000000" stroke-dasharray="5,2" d="M1162.0524,-1563.1791C1163.205,-1556.2988 1164.6536,-1547.6504 1166.3461,-1537.5467"/>
<polygon fill="#000000" stroke="#000000" points="1169.8415,-1537.8649 1168.0417,-1527.424 1162.9376,-1536.7084 1169.8415,-1537.8649"/>
</g>
<!-- header_16 -->
<g id="node17" class="node">
<title>header_16</title>
<ellipse fill="none" stroke="#000000" cx="1661" cy="-1085.9014" rx="82.7165" ry="18"/>
<text text-anchor="middle" x="1661" y="-1081.7014" font-family="Helvetica,sans-Serif" font-size="14.00" fill="#000000">2 : Implementation</text>
</g>
<!-- section_7&#45;&gt;header_16 -->
<g id="edge16" class="edge">
<title>section_7&#45;&gt;header_16</title>
<path fill="none" stroke="#000000" stroke-dasharray="5,2" d="M1777.3653,-1563.7313C1768.8589,-1553.7694 1759.0504,-1540.6849 1753,-1527.4019 1686.4734,-1381.3509 1667.4995,-1186.1336 1662.5789,-1114.1191"/>
<polygon fill="#000000" stroke="#000000" points="1666.0644,-1113.7797 1661.9277,-1104.0259 1659.0789,-1114.2305 1666.0644,-1113.7797"/>
</g>
<!-- prose_17 -->
<g id="node18" class="node">
<title>prose_17</title>
<ellipse fill="none" stroke="#000000" cx="1794" cy="-1085.9014" rx="32.4585" ry="18"/>
<text text-anchor="middle" x="1794" y="-1081.7014" font-family="Helvetica,sans-Serif" font-size="14.00" fill="#000000">prose</text>
</g>
<!-- section_7&#45;&gt;prose_17 -->
<g id="edge17" class="edge">
<title>section_7&#45;&gt;prose_17</title>
<path fill="none" stroke="#000000" stroke-dasharray="5,2" d="M1794,-1563.1791C1794,-1488.4335 1794,-1205.0119 1794,-1114.1295"/>
<polygon fill="#000000" stroke="#000000" points="1797.5001,-1114.0277 1794,-1104.0277 1790.5001,-1114.0277 1797.5001,-1114.0277"/>
</g>
<!-- section_18 -->
<g id="node19" class="node">
<title>section_18</title>
<ellipse fill="none" stroke="#000000" cx="1942" cy="-1085.9014" rx="65.8187" ry="18"/>
<text text-anchor="middle" x="1942" y="-1081.7014" font-family="Helvetica,sans-Serif" font-size="14.00" fill="#000000">section: 77&#45;87</text>
</g>
<!-- section_7&#45;&gt;section_18 -->
<g id="edge18" class="edge">
<title>section_7&#45;&gt;section_18</title>
<path fill="none" stroke="#000000" stroke-dasharray="5,2" d="M1810.4641,-1563.6519C1818.9205,-1553.6668 1828.7356,-1540.5854 1835,-1527.4019 1904.3824,-1381.3855 1931.2555,-1186.1474 1939.2114,-1114.1232"/>
<polygon fill="#000000" stroke="#000000" points="1942.7076,-1114.3439 1940.2903,-1104.0286 1935.7473,-1113.6 1942.7076,-1114.3439"/>
</g>
<!-- section_19 -->
<g id="node20" class="node">
<title>section_19</title>
<ellipse fill="none" stroke="#000000" cx="2474" cy="-1085.9014" rx="70.655" ry="18"/>
<text text-anchor="middle" x="2474" y="-1081.7014" font-family="Helvetica,sans-Serif" font-size="14.00" fill="#000000">section: 88&#45;136</text>
</g>
<!-- section_7&#45;&gt;section_19 -->
<g id="edge19" class="edge">
<title>section_7&#45;&gt;section_19</title>
<path fill="none" stroke="#000000" stroke-dasharray="5,2" d="M1855.8423,-1575.312C1902.4637,-1568.6768 1966.7397,-1555.0464 2017,-1527.4019 2220.3668,-1415.5446 2398.1318,-1189.3451 2455.0173,-1112.297"/>
<polygon fill="#000000" stroke="#000000" points="2457.9601,-1114.2027 2461.0503,-1104.0685 2452.3148,-1110.0637 2457.9601,-1114.2027"/>
</g>
<!-- leaf_10 -->
<g id="node11" class="node">
<title>leaf_10</title>
<polygon fill="none" stroke="#c0c0c0" points="520,-608.3011 0,-608.3011 0,-537.7004 520,-537.7004 520,-608.3011"/>
<text text-anchor="middle" x="260" y="-561.2008" font-family="Inconsolata" font-size="14.00" fill="#000000">While the most important grammar for pegylator is pegylator itself, it&#39;s</text>
<text text-anchor="middle" x="260" y="-545.8008" font-family="Inconsolata" font-size="14.00" fill="#000000">time to make a Lua language parser.</text>
</g>
<!-- raw_9&#45;&gt;leaf_10 -->
<g id="edge10" class="edge">
<title>raw_9&#45;&gt;leaf_10</title>
<path fill="none" stroke="#000000" stroke-dasharray="5,2" d="M772.5081,-1068.0769C788.1448,-1001.6226 832.9523,-765.8934 716,-644.4008 708.4103,-636.5165 624.2385,-622.3565 530.2361,-608.7138"/>
<polygon fill="#000000" stroke="#000000" points="530.6197,-605.233 520.2221,-607.2677 529.6191,-612.1611 530.6197,-605.233"/>
</g>
<!-- leaf_12 -->
<g id="node13" class="node">
<title>leaf_12</title>
<polygon fill="none" stroke="#c0c0c0" points="1030,-600.3012 538,-600.3012 538,-545.7004 1030,-545.7004 1030,-600.3012"/>
<text text-anchor="middle" x="784" y="-569.2008" font-family="Inconsolata" font-size="14.00" fill="#000000">The hard work is done on this, it&#39;s a matter of translation into the</text>
<text text-anchor="middle" x="784" y="-553.8008" font-family="Inconsolata" font-size="14.00" fill="#000000">Pegylator paradigm.</text>
</g>
<!-- raw_11&#45;&gt;leaf_12 -->
<g id="edge12" class="edge">
<title>raw_11&#45;&gt;leaf_12</title>
<path fill="none" stroke="#000000" stroke-dasharray="5,2" d="M852.0408,-1067.6583C848.626,-1007.0103 835.5375,-806.7892 804,-644.4008 801.8204,-633.1777 798.7459,-621.1483 795.6599,-610.2228"/>
<polygon fill="#000000" stroke="#000000" points="799.0014,-609.179 792.8479,-600.5543 792.2799,-611.1339 799.0014,-609.179"/>
</g>
<!-- leaf_14 -->
<g id="node15" class="node">
<title>leaf_14</title>
<polygon fill="none" stroke="#c0c0c0" points="1575.5,-600.3012 1048.5,-600.3012 1048.5,-545.7004 1575.5,-545.7004 1575.5,-600.3012"/>
<text text-anchor="middle" x="1312" y="-569.2008" font-family="Inconsolata" font-size="14.00" fill="#000000">While this a hell of a lot of work, the complete BNF of Lua is available,</text>
<text text-anchor="middle" x="1312" y="-553.8008" font-family="Inconsolata" font-size="14.00" fill="#000000">and reproduced here.</text>
</g>
<!-- raw_13&#45;&gt;leaf_14 -->
<g id="edge14" class="edge">
<title>raw_13&#45;&gt;leaf_14</title>
<path fill="none" stroke="#000000" stroke-dasharray="5,2" d="M941.8434,-1067.9427C924.105,-1002.0025 872.5518,-770.5269 983,-644.4008 998.5926,-626.5949 1037.2478,-612.9091 1082.8125,-602.5186"/>
<polygon fill="#000000" stroke="#000000" points="1083.6238,-605.9239 1092.6346,-600.3511 1082.1153,-599.0884 1083.6238,-605.9239"/>
</g>
<!-- leaf_20 -->
<g id="node21" class="node">
<title>leaf_20</title>
<polygon fill="none" stroke="#c0c0c0" points="1728.5,-591.0008 1593.5,-591.0008 1593.5,-555.0008 1728.5,-555.0008 1728.5,-591.0008"/>
<text text-anchor="middle" x="1661" y="-569.5008" font-family="Inconsolata" font-size="14.00" fill="#000000">** Implementation</text>
</g>
<!-- header_16&#45;&gt;leaf_20 -->
<g id="edge20" class="edge">
<title>header_16&#45;&gt;leaf_20</title>
<path fill="none" stroke="#000000" stroke-dasharray="5,2" d="M1661,-1067.647C1661,-990.9167 1661,-694.2091 1661,-601.1109"/>
<polygon fill="#000000" stroke="#000000" points="1664.5001,-601.0364 1661,-591.0365 1657.5001,-601.0365 1664.5001,-601.0364"/>
</g>
<!-- raw_21 -->
<g id="node22" class="node">
<title>raw_21</title>
<ellipse fill="none" stroke="#000000" cx="1774" cy="-573.0008" rx="27" ry="18"/>
<text text-anchor="middle" x="1774" y="-568.8008" font-family="Helvetica,sans-Serif" font-size="14.00" fill="#000000">raw</text>
</g>
<!-- prose_17&#45;&gt;raw_21 -->
<g id="edge21" class="edge">
<title>prose_17&#45;&gt;raw_21</title>
<path fill="none" stroke="#000000" stroke-dasharray="5,2" d="M1793.2882,-1067.647C1790.2962,-990.9167 1778.7264,-694.2091 1775.0961,-601.1109"/>
<polygon fill="#000000" stroke="#000000" points="1778.5904,-600.8924 1774.7033,-591.0365 1771.5957,-601.1653 1778.5904,-600.8924"/>
</g>
<!-- header_23 -->
<g id="node24" class="node">
<title>header_23</title>
<ellipse fill="none" stroke="#000000" cx="1871" cy="-573.0008" rx="51.7605" ry="18"/>
<text text-anchor="middle" x="1871" y="-568.8008" font-family="Helvetica,sans-Serif" font-size="14.00" fill="#000000">3 : Imports</text>
</g>
<!-- section_18&#45;&gt;header_23 -->
<g id="edge23" class="edge">
<title>section_18&#45;&gt;header_23</title>
<path fill="none" stroke="#000000" stroke-dasharray="5,2" d="M1939.4731,-1067.647C1928.8514,-990.9167 1887.7787,-694.2091 1874.8912,-601.1109"/>
<polygon fill="#000000" stroke="#000000" points="1878.3349,-600.462 1873.4966,-591.0365 1871.401,-601.4219 1878.3349,-600.462"/>
</g>
<!-- prose_24 -->
<g id="node25" class="node">
<title>prose_24</title>
<ellipse fill="none" stroke="#000000" cx="1973" cy="-573.0008" rx="32.4585" ry="18"/>
<text text-anchor="middle" x="1973" y="-568.8008" font-family="Helvetica,sans-Serif" font-size="14.00" fill="#000000">prose</text>
</g>
<!-- section_18&#45;&gt;prose_24 -->
<g id="edge24" class="edge">
<title>section_18&#45;&gt;prose_24</title>
<path fill="none" stroke="#000000" stroke-dasharray="5,2" d="M1943.1033,-1067.647C1947.7409,-990.9167 1965.6741,-694.2091 1971.301,-601.1109"/>
<polygon fill="#000000" stroke="#000000" points="1974.8001,-601.2294 1971.9099,-591.0365 1967.8129,-600.807 1974.8001,-601.2294"/>
</g>
<!-- codeblock_25 -->
<g id="node26" class="node">
<title>codeblock_25</title>
<ellipse fill="none" stroke="#000000" cx="2145" cy="-573.0008" rx="77.4211" ry="18"/>
<text text-anchor="middle" x="2145" y="-568.8008" font-family="Helvetica,sans-Serif" font-size="14.00" fill="#000000">code block 79&#45;85</text>
</g>
<!-- section_18&#45;&gt;codeblock_25 -->
<g id="edge25" class="edge">
<title>section_18&#45;&gt;codeblock_25</title>
<path fill="none" stroke="#000000" stroke-dasharray="5,2" d="M1949.1058,-1067.9477C1979.3406,-991.5564 2097.4076,-693.2479 2134.075,-600.6039"/>
<polygon fill="#000000" stroke="#000000" points="2137.4208,-601.6609 2137.8466,-591.0746 2130.912,-599.0847 2137.4208,-601.6609"/>
</g>
<!-- header_30 -->
<g id="node31" class="node">
<title>header_30</title>
<ellipse fill="none" stroke="#000000" cx="2426" cy="-573.0008" rx="46.4822" ry="18"/>
<text text-anchor="middle" x="2426" y="-568.8008" font-family="Helvetica,sans-Serif" font-size="14.00" fill="#000000">3 : lua_fn</text>
</g>
<!-- section_19&#45;&gt;header_30 -->
<g id="edge30" class="edge">
<title>section_19&#45;&gt;header_30</title>
<path fill="none" stroke="#000000" stroke-dasharray="5,2" d="M2472.2917,-1067.647C2465.1108,-990.9167 2437.3433,-694.2091 2428.6307,-601.1109"/>
<polygon fill="#000000" stroke="#000000" points="2432.1045,-600.6668 2427.6879,-591.0365 2425.135,-601.3191 2432.1045,-600.6668"/>
</g>
<!-- prose_31 -->
<g id="node32" class="node">
<title>prose_31</title>
<ellipse fill="none" stroke="#000000" cx="2523" cy="-573.0008" rx="32.4585" ry="18"/>
<text text-anchor="middle" x="2523" y="-568.8008" font-family="Helvetica,sans-Serif" font-size="14.00" fill="#000000">prose</text>
</g>
<!-- section_19&#45;&gt;prose_31 -->
<g id="edge31" class="edge">
<title>section_19&#45;&gt;prose_31</title>
<path fill="none" stroke="#000000" stroke-dasharray="5,2" d="M2475.7439,-1067.647C2483.0744,-990.9167 2511.4204,-694.2091 2520.3145,-601.1109"/>
<polygon fill="#000000" stroke="#000000" points="2523.81,-601.324 2521.277,-591.0365 2516.8417,-600.6582 2523.81,-601.324"/>
</g>
<!-- codeblock_32 -->
<g id="node33" class="node">
<title>codeblock_32</title>
<ellipse fill="none" stroke="#000000" cx="2721" cy="-573.0008" rx="81.9542" ry="18"/>
<text text-anchor="middle" x="2721" y="-568.8008" font-family="Helvetica,sans-Serif" font-size="14.00" fill="#000000">code block 92&#45;118</text>
</g>
<!-- section_19&#45;&gt;codeblock_32 -->
<g id="edge32" class="edge">
<title>section_19&#45;&gt;codeblock_32</title>
<path fill="none" stroke="#000000" stroke-dasharray="5,2" d="M2482.646,-1067.9477C2519.4714,-991.479 2663.3832,-692.6432 2707.8423,-600.323"/>
<polygon fill="#000000" stroke="#000000" points="2711.1106,-601.6029 2712.2961,-591.0746 2704.8038,-598.5657 2711.1106,-601.6029"/>
</g>
<!-- leaf_22 -->
<g id="node23" class="node">
<title>leaf_22</title>
<polygon fill="none" stroke="#c0c0c0" points="1806.5,-340.1016 1699.5,-340.1016 1699.5,-268.2992 1806.5,-268.2992 1806.5,-340.1016"/>
<text text-anchor="middle" x="1753" y="-292.7004" font-family="Inconsolata" font-size="14.00" fill="#000000">Let&#39;s try it.</text>
</g>
<!-- raw_21&#45;&gt;leaf_22 -->
<g id="edge22" class="edge">
<title>raw_21&#45;&gt;leaf_22</title>
<path fill="none" stroke="#000000" stroke-dasharray="5,2" d="M1772.5895,-554.9466C1769.3469,-513.4413 1761.2797,-410.1811 1756.571,-349.909"/>
<polygon fill="#000000" stroke="#000000" points="1760.0574,-349.5974 1755.7891,-339.9004 1753.0787,-350.1427 1760.0574,-349.5974"/>
</g>
<!-- leaf_26 -->
<g id="node27" class="node">
<title>leaf_26</title>
<polygon fill="none" stroke="#c0c0c0" points="1917.5,-322.2004 1824.5,-322.2004 1824.5,-286.2004 1917.5,-286.2004 1917.5,-322.2004"/>
<text text-anchor="middle" x="1871" y="-300.7004" font-family="Inconsolata" font-size="14.00" fill="#000000">*** Imports</text>
</g>
<!-- header_23&#45;&gt;leaf_26 -->
<g id="edge26" class="edge">
<title>header_23&#45;&gt;leaf_26</title>
<path fill="none" stroke="#000000" stroke-dasharray="5,2" d="M1871,-554.9466C1871,-509.1494 1871,-388.1655 1871,-332.7064"/>
<polygon fill="#000000" stroke="#000000" points="1874.5001,-332.5299 1871,-322.5299 1867.5001,-332.53 1874.5001,-332.5299"/>
</g>
<!-- raw_27 -->
<g id="node28" class="node">
<title>raw_27</title>
<ellipse fill="none" stroke="#000000" cx="1963" cy="-304.2004" rx="27" ry="18"/>
<text text-anchor="middle" x="1963" y="-300.0004" font-family="Helvetica,sans-Serif" font-size="14.00" fill="#000000">raw</text>
</g>
<!-- prose_24&#45;&gt;raw_27 -->
<g id="edge27" class="edge">
<title>prose_24&#45;&gt;raw_27</title>
<path fill="none" stroke="#000000" stroke-dasharray="5,2" d="M1972.3283,-554.9466C1970.6246,-509.1494 1966.1237,-388.1655 1964.0605,-332.7064"/>
<polygon fill="#000000" stroke="#000000" points="1967.5513,-332.3929 1963.6819,-322.5299 1960.5562,-332.6532 1967.5513,-332.3929"/>
</g>
<!-- leaf_29 -->
<g id="node30" class="node">
<title>leaf_29</title>
<polygon fill="none" stroke="#c0c0c0" points="2367.5,-346.8015 2008.5,-346.8015 2008.5,-261.5994 2367.5,-261.5994 2367.5,-346.8015"/>
<text text-anchor="middle" x="2188" y="-331.8005" font-family="Inconsolata" font-size="14.00" fill="#000000">local Node &#160;&#160;&#160;= &#160;require &quot;espalier/node&quot;</text>
<text text-anchor="middle" x="2188" y="-316.4004" font-family="Inconsolata" font-size="14.00" fill="#000000">local Grammar = &#160;require &quot;espalier/grammar&quot;</text>
<text text-anchor="middle" x="2188" y="-301.0004" font-family="Inconsolata" font-size="14.00" fill="#000000">local L &#160;&#160;&#160;&#160;&#160;&#160;= &#160;require &quot;espalier/elpatt&quot;</text>
<text text-anchor="middle" x="2188" y="-269.6004" font-family="Inconsolata" font-size="14.00" fill="#000000">local P, R, E, V, S &#160;&#160;&#160;= &#160;L.P, L.R, L.E, L.V, L.S</text>
</g>
<!-- codeblock_25&#45;&gt;leaf_29 -->
<g id="edge29" class="edge">
<title>codeblock_25&#45;&gt;leaf_29</title>
<path fill="none" stroke="#000000" stroke-dasharray="5,2" d="M2147.8881,-554.9466C2154.2696,-515.0548 2169.7769,-418.1161 2179.5334,-357.1268"/>
<polygon fill="#000000" stroke="#000000" points="2183.0424,-357.3482 2181.166,-346.9208 2176.1303,-356.2424 2183.0424,-357.3482"/>
</g>
<!-- leaf_28 -->
<g id="node29" class="node">
<title>leaf_28</title>
<polygon fill="none" stroke="#c0c0c0" points="1990,-53.4 1936,-53.4 1936,-17.4 1990,-17.4 1990,-53.4"/>
</g>
<!-- raw_27&#45;&gt;leaf_28 -->
<g id="edge28" class="edge">
<title>raw_27&#45;&gt;leaf_28</title>
<path fill="none" stroke="#000000" stroke-dasharray="5,2" d="M1963,-286.1463C1963,-240.3491 1963,-119.3651 1963,-63.906"/>
<polygon fill="#000000" stroke="#000000" points="1966.5001,-63.7295 1963,-53.7295 1959.5001,-63.7296 1966.5001,-63.7295"/>
</g>
<!-- leaf_33 -->
<g id="node34" class="node">
<title>leaf_33</title>
<polygon fill="none" stroke="#c0c0c0" points="2472,-322.2004 2386,-322.2004 2386,-286.2004 2472,-286.2004 2472,-322.2004"/>
<text text-anchor="middle" x="2429" y="-300.7004" font-family="Inconsolata" font-size="14.00" fill="#000000">*** lua_fn</text>
</g>
<!-- header_30&#45;&gt;leaf_33 -->
<g id="edge33" class="edge">
<title>header_30&#45;&gt;leaf_33</title>
<path fill="none" stroke="#000000" stroke-dasharray="5,2" d="M2426.2015,-554.9466C2426.7126,-509.1494 2428.0629,-388.1655 2428.6819,-332.7064"/>
<polygon fill="#000000" stroke="#000000" points="2432.1835,-332.5684 2428.7954,-322.5299 2425.184,-332.4902 2432.1835,-332.5684"/>
</g>
<!-- raw_34 -->
<g id="node35" class="node">
<title>raw_34</title>
<ellipse fill="none" stroke="#000000" cx="2521" cy="-304.2004" rx="27" ry="18"/>
<text text-anchor="middle" x="2521" y="-300.0004" font-family="Helvetica,sans-Serif" font-size="14.00" fill="#000000">raw</text>
</g>
<!-- prose_31&#45;&gt;raw_34 -->
<g id="edge34" class="edge">
<title>prose_31&#45;&gt;raw_34</title>
<path fill="none" stroke="#000000" stroke-dasharray="5,2" d="M2522.8657,-554.9466C2522.5249,-509.1494 2521.6247,-388.1655 2521.2121,-332.7064"/>
<polygon fill="#000000" stroke="#000000" points="2524.7108,-332.5036 2521.1364,-322.5299 2517.711,-332.5557 2524.7108,-332.5036"/>
</g>
<!-- leaf_36 -->
<g id="node37" class="node">
<title>leaf_36</title>
<polygon fill="none" stroke="#c0c0c0" points="3009.5,-501.5011 2566.5,-501.5011 2566.5,-106.8997 3009.5,-106.8997 3009.5,-501.5011"/>
<text text-anchor="middle" x="2788" y="-470.4007" font-family="Inconsolata" font-size="14.00" fill="#000000">local _do, _end, _then = P&quot;do&quot;, P&quot;end&quot;, P&quot;then&quot;</text>
<text text-anchor="middle" x="2788" y="-439.0007" font-family="Inconsolata" font-size="14.00" fill="#000000">local function lua_fn(ENV)</text>
<text text-anchor="middle" x="2788" y="-423.6007" font-family="Inconsolata" font-size="14.00" fill="#000000"> &#160;&#160;START &quot;lua&quot;</text>
<text text-anchor="middle" x="2788" y="-408.2007" font-family="Inconsolata" font-size="14.00" fill="#000000"> &#160;&#160;lua &#160;&#160;= V&quot;chunk&quot;^1</text>
<text text-anchor="middle" x="2788" y="-392.8006" font-family="Inconsolata" font-size="14.00" fill="#000000"> &#160;&#160;chunk = (V&quot;stat&quot; * P&quot;;&quot;^0) * (V&quot;laststat&quot;^0 * P&quot;;&quot;^0)</text>
<text text-anchor="middle" x="2788" y="-377.4006" font-family="Inconsolata" font-size="14.00" fill="#000000"> &#160;&#160;block = V&quot;chunk&quot;</text>
<text text-anchor="middle" x="2788" y="-346.0006" font-family="Inconsolata" font-size="14.00" fill="#000000"> &#160;&#160;stat &#160;= V&quot;varlist&quot; * P&quot;=&quot; * V&quot;explist&quot; +</text>
<text text-anchor="middle" x="2788" y="-330.6005" font-family="Inconsolata" font-size="14.00" fill="#000000"> &#160;&#160;&#160;&#160;&#160;&#160;&#160;&#160;&#160;&#160;V&quot;functioncall&quot; +</text>
<text text-anchor="middle" x="2788" y="-315.2005" font-family="Inconsolata" font-size="14.00" fill="#000000"> &#160;&#160;&#160;&#160;&#160;&#160;&#160;&#160;&#160;&#160;_do * V&quot;block&quot; * _end +</text>
<text text-anchor="middle" x="2788" y="-299.8005" font-family="Inconsolata" font-size="14.00" fill="#000000"> &#160;&#160;&#160;&#160;&#160;&#160;&#160;&#160;&#160;&#160;P&quot;while&quot; * V&quot;exp&quot; * _do * V&quot;block&quot; * _end +</text>
<text text-anchor="middle" x="2788" y="-284.4004" font-family="Inconsolata" font-size="14.00" fill="#000000"> &#160;&#160;&#160;&#160;&#160;&#160;&#160;&#160;&#160;&#160;P&quot;repeat&quot; * V&quot;block&quot; * P&quot;until&quot; * _end +</text>
<text text-anchor="middle" x="2788" y="-269.0004" font-family="Inconsolata" font-size="14.00" fill="#000000"> &#160;&#160;&#160;&#160;&#160;&#160;&#160;&#160;&#160;&#160;P&quot;if&quot; * V&quot;exp&quot; * _then * V&quot;block&quot; *</text>
<text text-anchor="middle" x="2788" y="-253.6004" font-family="Inconsolata" font-size="14.00" fill="#000000"> &#160;&#160;&#160;&#160;&#160;&#160;&#160;&#160;&#160;&#160;&#160;&#160;&#160;( P&quot;elseif&quot; V&quot;exp&quot; * _then * V&quot;block&quot; )^0 *</text>
<text text-anchor="middle" x="2788" y="-238.2003" font-family="Inconsolata" font-size="14.00" fill="#000000"> &#160;&#160;&#160;&#160;&#160;&#160;&#160;&#160;&#160;&#160;&#160;&#160;&#160;( P&quot;else&quot; * V&quot;block&quot; )^&#45;1 * _end +</text>
<text text-anchor="middle" x="2788" y="-222.8003" font-family="Inconsolata" font-size="14.00" fill="#000000"> &#160;&#160;&#160;&#160;&#160;&#160;&#160;&#160;&#160;&#160;P&quot;for&quot; * V&quot;Name&quot; * P&quot;=&quot; * V&quot;exp&quot; * P&quot;,&quot; * V&quot;exp&quot; *</text>
<text text-anchor="middle" x="2788" y="-207.4003" font-family="Inconsolata" font-size="14.00" fill="#000000"> &#160;&#160;&#160;&#160;&#160;&#160;&#160;&#160;&#160;&#160;&#160;&#160;&#160;( P&quot;,&quot; * V&quot;exp&quot; )^&#45;1 * _do * V&quot;block&quot; * _end +</text>
<text text-anchor="middle" x="2788" y="-192.0002" font-family="Inconsolata" font-size="14.00" fill="#000000"> &#160;&#160;&#160;&#160;&#160;&#160;&#160;&#160;&#160;&#160;P&quot;for&quot; * V&quot;namelist&quot; * P&quot;in&quot; * V&quot;explist&quot; * _do *</text>
<text text-anchor="middle" x="2788" y="-176.6002" font-family="Inconsolata" font-size="14.00" fill="#000000"> &#160;&#160;&#160;&#160;&#160;&#160;&#160;&#160;&#160;&#160;&#160;&#160;&#160;V&quot;block&quot; * _end +</text>
<text text-anchor="middle" x="2788" y="-161.2002" font-family="Inconsolata" font-size="14.00" fill="#000000"> &#160;&#160;&#160;&#160;&#160;&#160;&#160;&#160;&#160;&#160;P&quot;function&quot; * V&quot;funcname&quot; * V&quot;funcbody&quot; +</text>
<text text-anchor="middle" x="2788" y="-145.8002" font-family="Inconsolata" font-size="14.00" fill="#000000"> &#160;&#160;&#160;&#160;&#160;&#160;&#160;&#160;&#160;&#160;P&quot;local&quot; * P&quot;function&quot; * V&quot;Name&quot; * V&quot;funcbody&quot; +</text>
<text text-anchor="middle" x="2788" y="-130.4001" font-family="Inconsolata" font-size="14.00" fill="#000000"> &#160;&#160;&#160;&#160;&#160;&#160;&#160;&#160;&#160;&#160;P&quot;local&quot; * V&quot;namelist&quot; * ( P&quot;=&quot; * V&quot;explist&quot;)^&#45;1</text>
<text text-anchor="middle" x="2788" y="-115.0001" font-family="Inconsolata" font-size="14.00" fill="#000000">end</text>
</g>
<!-- codeblock_32&#45;&gt;leaf_36 -->
<g id="edge36" class="edge">
<title>codeblock_32&#45;&gt;leaf_36</title>
<path fill="none" stroke="#000000" stroke-dasharray="5,2" d="M2725.5001,-554.9466C2728.2109,-544.0712 2731.9785,-528.9558 2736.3332,-511.4848"/>
<polygon fill="#000000" stroke="#000000" points="2739.7874,-512.098 2738.8099,-501.5483 2732.9952,-510.4049 2739.7874,-512.098"/>
</g>
<!-- leaf_35 -->
<g id="node36" class="node">
<title>leaf_35</title>
<polygon fill="none" stroke="#c0c0c0" points="2746,-70.7004 2296,-70.7004 2296,-.0997 2746,-.0997 2746,-70.7004"/>
<text text-anchor="middle" x="2521" y="-23.6001" font-family="Inconsolata" font-size="14.00" fill="#000000">This is provided to the Grammar engine to create a Lua parser.</text>
<text text-anchor="middle" x="2521" y="-8.2" font-family="Inconsolata" font-size="14.00" fill="#000000">yes</text>
</g>
<!-- raw_34&#45;&gt;leaf_35 -->
<g id="edge35" class="edge">
<title>raw_34&#45;&gt;leaf_35</title>
<path fill="none" stroke="#000000" stroke-dasharray="5,2" d="M2521,-286.1463C2521,-244.6409 2521,-141.3808 2521,-81.1086"/>
<polygon fill="#000000" stroke="#000000" points="2524.5001,-81.1 2521,-71.1001 2517.5001,-81.1001 2524.5001,-81.1"/>
</g>
</g>
</svg>
