<?xml version="1.0" encoding="UTF-8" standalone="no"?>
<!DOCTYPE svg PUBLIC "-//W3C//DTD SVG 1.1//EN"
 "http://www.w3.org/Graphics/SVG/1.1/DTD/svg11.dtd">
<!-- Generated by graphviz version 2.40.1 (20161225.0304)
 -->
<!-- Title: lpegNode Pages: 1 -->
<svg width="1291pt" height="618pt"
 viewBox="0.00 0.00 1291.00 617.80" xmlns="http://www.w3.org/2000/svg" xmlns:xlink="http://www.w3.org/1999/xlink">
<g id="graph0" class="graph" transform="scale(1 1) rotate(0) translate(4 613.8005)">
<title>lpegNode</title>
<polygon fill="#ffffff" stroke="transparent" points="-4,4 -4,-613.8005 1287,-613.8005 1287,4 -4,4"/>
<!-- doc_0 -->
<g id="node1" class="node">
<title>doc_0</title>
<ellipse fill="none" stroke="#000000" cx="626" cy="-591.8005" rx="42.1216" ry="18"/>
<text text-anchor="middle" x="626" y="-587.6005" font-family="Helvetica,sans-Serif" font-size="14.00" fill="#000000">doc &#45; 29</text>
</g>
<!-- section_1 -->
<g id="node2" class="node">
<title>section_1</title>
<ellipse fill="none" stroke="#000000" cx="626" cy="-519.8005" rx="60.9826" ry="18"/>
<text text-anchor="middle" x="626" y="-515.6005" font-family="Helvetica,sans-Serif" font-size="14.00" fill="#000000">section: 1&#45;29</text>
</g>
<!-- doc_0&#45;&gt;section_1 -->
<g id="edge1" class="edge">
<title>doc_0&#45;&gt;section_1</title>
<path fill="none" stroke="#000000" stroke-dasharray="5,2" d="M626,-573.6319C626,-565.9315 626,-556.7749 626,-548.2172"/>
<polygon fill="#000000" stroke="#000000" points="629.5001,-548.2138 626,-538.2138 622.5001,-548.2138 629.5001,-548.2138"/>
</g>
<!-- header_2 -->
<g id="node3" class="node">
<title>header_2</title>
<ellipse fill="none" stroke="#000000" cx="146" cy="-447.8005" rx="54.1919" ry="18"/>
<text text-anchor="middle" x="146" y="-443.6005" font-family="Helvetica,sans-Serif" font-size="14.00" fill="#000000">1 : Espalier</text>
</g>
<!-- section_1&#45;&gt;header_2 -->
<g id="edge2" class="edge">
<title>section_1&#45;&gt;header_2</title>
<path fill="none" stroke="#000000" stroke-dasharray="5,2" d="M571.4052,-511.6113C480.7223,-498.0089 299.7448,-470.8623 205.7579,-456.7642"/>
<polygon fill="#000000" stroke="#000000" points="206.2477,-453.2986 195.8391,-455.2764 205.2092,-460.2212 206.2477,-453.2986"/>
</g>
<!-- prose_3 -->
<g id="node4" class="node">
<title>prose_3</title>
<ellipse fill="none" stroke="#000000" cx="336" cy="-447.8005" rx="32.4585" ry="18"/>
<text text-anchor="middle" x="336" y="-443.6005" font-family="Helvetica,sans-Serif" font-size="14.00" fill="#000000">prose</text>
</g>
<!-- section_1&#45;&gt;prose_3 -->
<g id="edge3" class="edge">
<title>section_1&#45;&gt;prose_3</title>
<path fill="none" stroke="#000000" stroke-dasharray="5,2" d="M579.4065,-508.2325C522.8502,-494.1909 428.4756,-470.76 375.3847,-457.5788"/>
<polygon fill="#000000" stroke="#000000" points="376.2041,-454.176 365.6554,-455.1632 374.5173,-460.9698 376.2041,-454.176"/>
</g>
<!-- prose_4 -->
<g id="node5" class="node">
<title>prose_4</title>
<ellipse fill="none" stroke="#000000" cx="626" cy="-447.8005" rx="32.4585" ry="18"/>
<text text-anchor="middle" x="626" y="-443.6005" font-family="Helvetica,sans-Serif" font-size="14.00" fill="#000000">prose</text>
</g>
<!-- section_1&#45;&gt;prose_4 -->
<g id="edge4" class="edge">
<title>section_1&#45;&gt;prose_4</title>
<path fill="none" stroke="#000000" stroke-dasharray="5,2" d="M626,-501.6319C626,-493.9315 626,-484.7749 626,-476.2172"/>
<polygon fill="#000000" stroke="#000000" points="629.5001,-476.2138 626,-466.2138 622.5001,-476.2138 629.5001,-476.2138"/>
</g>
<!-- prose_5 -->
<g id="node6" class="node">
<title>prose_5</title>
<ellipse fill="none" stroke="#000000" cx="789" cy="-447.8005" rx="32.4585" ry="18"/>
<text text-anchor="middle" x="789" y="-443.6005" font-family="Helvetica,sans-Serif" font-size="14.00" fill="#000000">prose</text>
</g>
<!-- section_1&#45;&gt;prose_5 -->
<g id="edge5" class="edge">
<title>section_1&#45;&gt;prose_5</title>
<path fill="none" stroke="#000000" stroke-dasharray="5,2" d="M660.1701,-504.707C687.8111,-492.4975 726.5672,-475.3782 754.3387,-463.111"/>
<polygon fill="#000000" stroke="#000000" points="755.9344,-466.2325 763.6675,-458.9903 753.106,-459.8294 755.9344,-466.2325"/>
</g>
<!-- codeblock_6 -->
<g id="node7" class="node">
<title>codeblock_6</title>
<ellipse fill="none" stroke="#000000" cx="1015" cy="-447.8005" rx="72.5844" ry="18"/>
<text text-anchor="middle" x="1015" y="-443.6005" font-family="Helvetica,sans-Serif" font-size="14.00" fill="#000000">code block 9&#45;29</text>
</g>
<!-- section_1&#45;&gt;codeblock_6 -->
<g id="edge6" class="edge">
<title>section_1&#45;&gt;codeblock_6</title>
<path fill="none" stroke="#000000" stroke-dasharray="5,2" d="M677.6562,-510.2395C746.883,-497.4263 869.9153,-474.6543 946.7224,-460.438"/>
<polygon fill="#000000" stroke="#000000" points="947.5832,-463.8382 956.7792,-458.5766 946.3092,-456.9551 947.5832,-463.8382"/>
</g>
<!-- leaf_7 -->
<g id="node8" class="node">
<title>leaf_7</title>
<polygon fill="none" stroke="#c0c0c0" points="104,-260.6003 18,-260.6003 18,-224.6003 104,-224.6003 104,-260.6003"/>
<text text-anchor="middle" x="61" y="-239.1003" font-family="Inconsolata" font-size="14.00" fill="#000000">* Espalier</text>
</g>
<!-- header_2&#45;&gt;leaf_7 -->
<g id="edge7" class="edge">
<title>header_2&#45;&gt;leaf_7</title>
<path fill="none" stroke="#000000" stroke-dasharray="5,2" d="M133.674,-429.8579C126.9816,-419.6033 118.8952,-406.3262 113,-393.8005 93.4583,-352.2802 77.471,-301.3337 68.5964,-270.4488"/>
<polygon fill="#000000" stroke="#000000" points="71.9533,-269.457 65.8646,-260.7864 65.2173,-271.3615 71.9533,-269.457"/>
</g>
<!-- raw_8 -->
<g id="node9" class="node">
<title>raw_8</title>
<ellipse fill="none" stroke="#000000" cx="149" cy="-242.6003" rx="27" ry="18"/>
<text text-anchor="middle" x="149" y="-238.4003" font-family="Helvetica,sans-Serif" font-size="14.00" fill="#000000">raw</text>
</g>
<!-- prose_3&#45;&gt;raw_8 -->
<g id="edge8" class="edge">
<title>prose_3&#45;&gt;raw_8</title>
<path fill="none" stroke="#000000" stroke-dasharray="5,2" d="M303.9444,-445.1515C269.5211,-440.558 215.6534,-428.0155 185,-393.8005 154.455,-359.7065 148.5836,-304.4033 148.0983,-270.9711"/>
<polygon fill="#000000" stroke="#000000" points="151.5982,-270.9422 148.1055,-260.9396 144.5982,-270.9371 151.5982,-270.9422"/>
</g>
<!-- prespace_9 -->
<g id="node10" class="node">
<title>prespace_9</title>
<ellipse fill="none" stroke="#000000" cx="240" cy="-242.6003" rx="46.4736" ry="18"/>
<text text-anchor="middle" x="240" y="-238.4003" font-family="Helvetica,sans-Serif" font-size="14.00" fill="#000000">prespace</text>
</g>
<!-- prose_3&#45;&gt;prespace_9 -->
<g id="edge9" class="edge">
<title>prose_3&#45;&gt;prespace_9</title>
<path fill="none" stroke="#000000" stroke-dasharray="5,2" d="M321.7157,-431.1268C313.4219,-420.8556 303.2198,-407.1388 296,-393.8005 273.8522,-352.8833 256.8575,-301.361 247.6608,-270.2529"/>
<polygon fill="#000000" stroke="#000000" points="250.9887,-269.1619 244.8446,-260.5305 244.2651,-271.1095 250.9887,-269.1619"/>
</g>
<!-- literal_10 -->
<g id="node11" class="node">
<title>literal_10</title>
<ellipse fill="none" stroke="#000000" cx="336" cy="-242.6003" rx="31.481" ry="18"/>
<text text-anchor="middle" x="336" y="-238.4003" font-family="Helvetica,sans-Serif" font-size="14.00" fill="#000000">literal</text>
</g>
<!-- prose_3&#45;&gt;literal_10 -->
<g id="edge10" class="edge">
<title>prose_3&#45;&gt;literal_10</title>
<path fill="none" stroke="#000000" stroke-dasharray="5,2" d="M336,-429.5904C336,-393.6923 336,-313.571 336,-270.7916"/>
<polygon fill="#000000" stroke="#000000" points="339.5001,-270.7696 336,-260.7696 332.5001,-270.7697 339.5001,-270.7696"/>
</g>
<!-- raw_11 -->
<g id="node12" class="node">
<title>raw_11</title>
<ellipse fill="none" stroke="#000000" cx="412" cy="-242.6003" rx="27" ry="18"/>
<text text-anchor="middle" x="412" y="-238.4003" font-family="Helvetica,sans-Serif" font-size="14.00" fill="#000000">raw</text>
</g>
<!-- prose_3&#45;&gt;raw_11 -->
<g id="edge11" class="edge">
<title>prose_3&#45;&gt;raw_11</title>
<path fill="none" stroke="#000000" stroke-dasharray="5,2" d="M350.8798,-431.4263C359.3847,-421.2612 369.5996,-407.5508 376,-393.8005 394.8443,-353.3163 404.369,-301.9892 408.7485,-270.7554"/>
<polygon fill="#000000" stroke="#000000" points="412.2507,-270.9685 410.0899,-260.5963 405.3109,-270.0521 412.2507,-270.9685"/>
</g>
<!-- raw_16 -->
<g id="node17" class="node">
<title>raw_16</title>
<ellipse fill="none" stroke="#000000" cx="495" cy="-242.6003" rx="27" ry="18"/>
<text text-anchor="middle" x="495" y="-238.4003" font-family="Helvetica,sans-Serif" font-size="14.00" fill="#000000">raw</text>
</g>
<!-- prose_4&#45;&gt;raw_16 -->
<g id="edge16" class="edge">
<title>prose_4&#45;&gt;raw_16</title>
<path fill="none" stroke="#000000" stroke-dasharray="5,2" d="M597.6626,-438.7287C576.1875,-430.4021 547.6262,-415.9536 531,-393.8005 503.787,-357.5416 496.7874,-303.7521 495.1906,-271.0589"/>
<polygon fill="#000000" stroke="#000000" points="498.6806,-270.7084 494.8348,-260.8362 491.6849,-270.9519 498.6806,-270.7084"/>
</g>
<!-- prespace_17 -->
<g id="node18" class="node">
<title>prespace_17</title>
<ellipse fill="none" stroke="#000000" cx="586" cy="-242.6003" rx="46.4736" ry="18"/>
<text text-anchor="middle" x="586" y="-238.4003" font-family="Helvetica,sans-Serif" font-size="14.00" fill="#000000">prespace</text>
</g>
<!-- prose_4&#45;&gt;prespace_17 -->
<g id="edge17" class="edge">
<title>prose_4&#45;&gt;prespace_17</title>
<path fill="none" stroke="#000000" stroke-dasharray="5,2" d="M622.4503,-429.5904C615.4526,-393.6923 599.8344,-313.571 591.4954,-270.7916"/>
<polygon fill="#000000" stroke="#000000" points="594.8905,-269.9152 589.5418,-260.7696 588.0198,-271.2546 594.8905,-269.9152"/>
</g>
<!-- literal_18 -->
<g id="node19" class="node">
<title>literal_18</title>
<ellipse fill="none" stroke="#000000" cx="682" cy="-242.6003" rx="31.481" ry="18"/>
<text text-anchor="middle" x="682" y="-238.4003" font-family="Helvetica,sans-Serif" font-size="14.00" fill="#000000">literal</text>
</g>
<!-- prose_4&#45;&gt;literal_18 -->
<g id="edge18" class="edge">
<title>prose_4&#45;&gt;literal_18</title>
<path fill="none" stroke="#000000" stroke-dasharray="5,2" d="M631.0277,-429.8082C633.9536,-419.3107 637.7036,-405.8107 641,-393.8005 652.7843,-350.8655 666.2624,-301.0148 674.4496,-270.6489"/>
<polygon fill="#000000" stroke="#000000" points="677.8907,-271.3303 677.1133,-260.764 671.1318,-269.5089 677.8907,-271.3303"/>
</g>
<!-- raw_19 -->
<g id="node20" class="node">
<title>raw_19</title>
<ellipse fill="none" stroke="#000000" cx="758" cy="-242.6003" rx="27" ry="18"/>
<text text-anchor="middle" x="758" y="-238.4003" font-family="Helvetica,sans-Serif" font-size="14.00" fill="#000000">raw</text>
</g>
<!-- prose_4&#45;&gt;raw_19 -->
<g id="edge19" class="edge">
<title>prose_4&#45;&gt;raw_19</title>
<path fill="none" stroke="#000000" stroke-dasharray="5,2" d="M654.1866,-438.975C675.9345,-430.7187 705.0762,-416.2451 722,-393.8005 749.2942,-357.6027 756.2685,-303.7942 757.8382,-271.0806"/>
<polygon fill="#000000" stroke="#000000" points="761.3441,-270.9639 758.1849,-260.8511 754.3481,-270.7267 761.3441,-270.9639"/>
</g>
<!-- raw_24 -->
<g id="node25" class="node">
<title>raw_24</title>
<ellipse fill="none" stroke="#000000" cx="830" cy="-242.6003" rx="27" ry="18"/>
<text text-anchor="middle" x="830" y="-238.4003" font-family="Helvetica,sans-Serif" font-size="14.00" fill="#000000">raw</text>
</g>
<!-- prose_5&#45;&gt;raw_24 -->
<g id="edge24" class="edge">
<title>prose_5&#45;&gt;raw_24</title>
<path fill="none" stroke="#000000" stroke-dasharray="5,2" d="M792.6385,-429.5904C799.8291,-393.6019 815.9004,-313.1671 824.4317,-270.469"/>
<polygon fill="#000000" stroke="#000000" points="827.901,-270.9686 826.4282,-260.4766 821.0367,-269.597 827.901,-270.9686"/>
</g>
<!-- leaf_26 -->
<g id="node27" class="node">
<title>leaf_26</title>
<polygon fill="none" stroke="#c0c0c0" points="1283,-394.001 875,-394.001 875,-91.1995 1283,-91.1995 1283,-394.001"/>
<text text-anchor="middle" x="1079" y="-378.6005" font-family="Inconsolata" font-size="14.00" fill="#000000">local ss &#160;&#160;&#160;&#160;&#160;= require &quot;singletons&quot;</text>
<text text-anchor="middle" x="1079" y="-363.2005" font-family="Inconsolata" font-size="14.00" fill="#000000">local dot &#160;&#160;&#160;&#160;= require &quot;espalier/dot&quot;</text>
<text text-anchor="middle" x="1079" y="-347.8005" font-family="Inconsolata" font-size="14.00" fill="#000000">local elpatt &#160;= require &quot;espalier/elpatt&quot;</text>
<text text-anchor="middle" x="1079" y="-332.4004" font-family="Inconsolata" font-size="14.00" fill="#000000">local Node &#160;&#160;&#160;= require &quot;espalier/node&quot;</text>
<text text-anchor="middle" x="1079" y="-317.0004" font-family="Inconsolata" font-size="14.00" fill="#000000">&#45;&#45; local Spec &#160;&#160;&#160;= require &quot;espalier/spec&quot;</text>
<text text-anchor="middle" x="1079" y="-301.6004" font-family="Inconsolata" font-size="14.00" fill="#000000">local Grammar = require &quot;espalier/grammar&quot;</text>
<text text-anchor="middle" x="1079" y="-270.2003" font-family="Inconsolata" font-size="14.00" fill="#000000">local ortho8600 = require &quot;espalier/grammars/ortho&#45;8600&quot;</text>
<text text-anchor="middle" x="1079" y="-238.8003" font-family="Inconsolata" font-size="14.00" fill="#000000">local grammars = {ortho8600 = ortho8600}</text>
<text text-anchor="middle" x="1079" y="-207.4003" font-family="Inconsolata" font-size="14.00" fill="#000000">return { dot &#160;&#160;&#160;&#160;&#160;= dot,</text>
<text text-anchor="middle" x="1079" y="-192.0002" font-family="Inconsolata" font-size="14.00" fill="#000000"> &#160;&#160;&#160;&#160;&#160;&#160;&#160;&#160;elpatt &#160;&#160;= elpatt,</text>
<text text-anchor="middle" x="1079" y="-176.6002" font-family="Inconsolata" font-size="14.00" fill="#000000"> &#160;&#160;&#160;&#160;&#160;&#160;&#160;&#160;node &#160;&#160;&#160;&#160;= Node,</text>
<text text-anchor="middle" x="1079" y="-161.2002" font-family="Inconsolata" font-size="14.00" fill="#000000"> &#45;&#45; &#160;&#160;&#160;&#160;&#160;&#160;&#160;spec &#160;&#160;&#160;= Spec,</text>
<text text-anchor="middle" x="1079" y="-145.8002" font-family="Inconsolata" font-size="14.00" fill="#000000"> &#160;&#160;&#160;&#160;&#160;&#160;&#160;&#160;phrase &#160;&#160;= ss.Phrase,</text>
<text text-anchor="middle" x="1079" y="-130.4001" font-family="Inconsolata" font-size="14.00" fill="#000000"> &#160;&#160;&#160;&#160;&#160;&#160;&#160;&#160;grammar &#160;= Grammar,</text>
<text text-anchor="middle" x="1079" y="-115.0001" font-family="Inconsolata" font-size="14.00" fill="#000000"> &#160;&#160;&#160;&#160;&#160;&#160;&#160;&#160;grammars = grammars,</text>
<text text-anchor="middle" x="1079" y="-99.6001" font-family="Inconsolata" font-size="14.00" fill="#000000"> &#160;&#160;&#160;&#160;&#160;&#160;&#160;&#160;stator &#160;&#160;= ss.Stator }</text>
</g>
<!-- codeblock_6&#45;&gt;leaf_26 -->
<g id="edge26" class="edge">
<title>codeblock_6&#45;&gt;leaf_26</title>
<path fill="none" stroke="#000000" stroke-dasharray="5,2" d="M1020.6796,-429.5904C1022.882,-422.5289 1025.6181,-413.7563 1028.6942,-403.8933"/>
<polygon fill="#000000" stroke="#000000" points="1032.1052,-404.7118 1031.7414,-394.1232 1025.4227,-402.6275 1032.1052,-404.7118"/>
</g>
<!-- leaf_12 -->
<g id="node13" class="node">
<title>leaf_12</title>
<polygon fill="none" stroke="#c0c0c0" points="198,-55.6015 0,-55.6015 0,.2015 198,.2015 198,-55.6015"/>
<text text-anchor="middle" x="99" y="-8.2" font-family="Inconsolata" font-size="14.00" fill="#000000">This library is now called</text>
</g>
<!-- raw_8&#45;&gt;leaf_12 -->
<g id="edge12" class="edge">
<title>raw_8&#45;&gt;leaf_12</title>
<path fill="none" stroke="#000000" stroke-dasharray="5,2" d="M144.823,-224.6476C136.6888,-189.6866 118.5711,-111.8166 107.7124,-65.1461"/>
<polygon fill="#000000" stroke="#000000" points="111.1214,-64.3526 105.4462,-55.4059 104.3035,-65.939 111.1214,-64.3526"/>
</g>
<!-- leaf_13 -->
<g id="node14" class="node">
<title>leaf_13</title>
<polygon fill="none" stroke="#c0c0c0" points="270,-45.7 216,-45.7 216,-9.7 270,-9.7 270,-45.7"/>
<text text-anchor="middle" x="243" y="-24.2" font-family="Inconsolata" font-size="14.00" fill="#000000"> </text>
</g>
<!-- prespace_9&#45;&gt;leaf_13 -->
<g id="edge13" class="edge">
<title>prespace_9&#45;&gt;leaf_13</title>
<path fill="none" stroke="#000000" stroke-dasharray="5,2" d="M240.2558,-224.278C240.7794,-186.7699 241.9767,-101.0047 242.6024,-56.1789"/>
<polygon fill="#000000" stroke="#000000" points="246.1048,-56.0238 242.7449,-45.9759 239.1055,-55.9261 246.1048,-56.0238"/>
</g>
<!-- leaf_14 -->
<g id="node15" class="node">
<title>leaf_14</title>
<polygon fill="none" stroke="#c0c0c0" points="365,-45.7 293,-45.7 293,-9.7 365,-9.7 365,-45.7"/>
<text text-anchor="middle" x="329" y="-24.2" font-family="Inconsolata" font-size="14.00" fill="#000000">espalier</text>
</g>
<!-- literal_10&#45;&gt;leaf_14 -->
<g id="edge14" class="edge">
<title>literal_10&#45;&gt;leaf_14</title>
<path fill="none" stroke="#000000" stroke-dasharray="5,2" d="M335.4032,-224.278C334.1814,-186.7699 331.3878,-101.0047 329.9277,-56.1789"/>
<polygon fill="#000000" stroke="#000000" points="333.4191,-55.8566 329.5953,-45.9759 326.4228,-56.0846 333.4191,-55.8566"/>
</g>
<!-- leaf_15 -->
<g id="node16" class="node">
<title>leaf_15</title>
<polygon fill="none" stroke="#c0c0c0" points="437,-45.7 383,-45.7 383,-9.7 437,-9.7 437,-45.7"/>
<text text-anchor="middle" x="410" y="-24.2" font-family="Inconsolata" font-size="14.00" fill="#000000">.</text>
</g>
<!-- raw_11&#45;&gt;leaf_15 -->
<g id="edge15" class="edge">
<title>raw_11&#45;&gt;leaf_15</title>
<path fill="none" stroke="#000000" stroke-dasharray="5,2" d="M411.8295,-224.278C411.4804,-186.7699 410.6822,-101.0047 410.265,-56.1789"/>
<polygon fill="#000000" stroke="#000000" points="413.7631,-55.9429 410.1701,-45.9759 406.7634,-56.0081 413.7631,-55.9429"/>
</g>
<!-- leaf_20 -->
<g id="node21" class="node">
<title>leaf_20</title>
<polygon fill="none" stroke="#c0c0c0" points="541,-47.6021 455,-47.6021 455,-7.7979 541,-7.7979 541,-47.6021"/>
<text text-anchor="middle" x="498" y="-16.2" font-family="Inconsolata" font-size="14.00" fill="#000000">Because it</text>
</g>
<!-- raw_16&#45;&gt;leaf_20 -->
<g id="edge20" class="edge">
<title>raw_16&#45;&gt;leaf_20</title>
<path fill="none" stroke="#000000" stroke-dasharray="5,2" d="M495.2558,-224.278C495.7739,-187.1605 496.9518,-102.7855 497.5827,-57.5924"/>
<polygon fill="#000000" stroke="#000000" points="501.0832,-57.571 497.7233,-47.5231 494.0839,-57.4733 501.0832,-57.571"/>
</g>
<!-- leaf_21 -->
<g id="node22" class="node">
<title>leaf_21</title>
<polygon fill="none" stroke="#c0c0c0" points="613,-45.7 559,-45.7 559,-9.7 613,-9.7 613,-45.7"/>
<text text-anchor="middle" x="586" y="-24.2" font-family="Inconsolata" font-size="14.00" fill="#000000"> </text>
</g>
<!-- prespace_17&#45;&gt;leaf_21 -->
<g id="edge21" class="edge">
<title>prespace_17&#45;&gt;leaf_21</title>
<path fill="none" stroke="#000000" stroke-dasharray="5,2" d="M586,-224.278C586,-186.7699 586,-101.0047 586,-56.1789"/>
<polygon fill="#000000" stroke="#000000" points="589.5001,-55.9759 586,-45.9759 582.5001,-55.9759 589.5001,-55.9759"/>
</g>
<!-- leaf_22 -->
<g id="node23" class="node">
<title>leaf_22</title>
<polygon fill="none" stroke="#c0c0c0" points="685,-45.7 631,-45.7 631,-9.7 685,-9.7 685,-45.7"/>
<text text-anchor="middle" x="658" y="-24.2" font-family="Inconsolata" font-size="14.00" fill="#000000">PEG</text>
</g>
<!-- literal_18&#45;&gt;leaf_22 -->
<g id="edge22" class="edge">
<title>literal_18&#45;&gt;leaf_22</title>
<path fill="none" stroke="#000000" stroke-dasharray="5,2" d="M679.9538,-224.278C675.7649,-186.7699 666.1866,-101.0047 661.1805,-56.1789"/>
<polygon fill="#000000" stroke="#000000" points="664.6294,-55.5256 660.041,-45.9759 657.6727,-56.3026 664.6294,-55.5256"/>
</g>
<!-- leaf_23 -->
<g id="node24" class="node">
<title>leaf_23</title>
<polygon fill="none" stroke="#c0c0c0" points="859,-45.7 703,-45.7 703,-9.7 859,-9.7 859,-45.7"/>
<text text-anchor="middle" x="781" y="-24.2" font-family="Inconsolata" font-size="14.00" fill="#000000">s trees to the wall.</text>
</g>
<!-- raw_19&#45;&gt;leaf_23 -->
<g id="edge23" class="edge">
<title>raw_19&#45;&gt;leaf_23</title>
<path fill="none" stroke="#000000" stroke-dasharray="5,2" d="M759.961,-224.278C763.9753,-186.7699 773.1545,-101.0047 777.952,-56.1789"/>
<polygon fill="#000000" stroke="#000000" points="781.4598,-56.2916 779.044,-45.9759 774.4996,-55.5466 781.4598,-56.2916"/>
</g>
<!-- leaf_25 -->
<g id="node26" class="node">
<title>leaf_25</title>
<polygon fill="none" stroke="#c0c0c0" points="931,-47.6021 877,-47.6021 877,-7.7979 931,-7.7979 931,-47.6021"/>
<text text-anchor="middle" x="904" y="-16.2" font-family="Inconsolata" font-size="14.00" fill="#000000">Heh.</text>
</g>
<!-- raw_24&#45;&gt;leaf_25 -->
<g id="edge25" class="edge">
<title>raw_24&#45;&gt;leaf_25</title>
<path fill="none" stroke="#000000" stroke-dasharray="5,2" d="M832.5074,-224.3635C836.8927,-195.3857 847.3162,-137.4007 866,-91.4 870.9216,-79.2828 877.919,-66.7542 884.5707,-56.0476"/>
<polygon fill="#000000" stroke="#000000" points="887.5786,-57.8407 890.0235,-47.5318 881.6835,-54.0659 887.5786,-57.8407"/>
</g>
</g>
</svg>
