<?xml version="1.0" encoding="UTF-8" standalone="no"?>
<!DOCTYPE svg PUBLIC "-//W3C//DTD SVG 1.1//EN"
 "http://www.w3.org/Graphics/SVG/1.1/DTD/svg11.dtd">
<!-- Generated by graphviz version 2.40.1 (20161225.0304)
 -->
<!-- Title: lpegNode Pages: 1 -->
<svg width="1193pt" height="540pt"
 viewBox="0.00 0.00 1193.00 539.60" xmlns="http://www.w3.org/2000/svg" xmlns:xlink="http://www.w3.org/1999/xlink">
<g id="graph0" class="graph" transform="scale(1 1) rotate(0) translate(4 535.6004)">
<title>lpegNode</title>
<polygon fill="#ffffff" stroke="transparent" points="-4,4 -4,-535.6004 1189,-535.6004 1189,4 -4,4"/>
<!-- doc_0 -->
<g id="node1" class="node">
<title>doc_0</title>
<ellipse fill="none" stroke="#000000" cx="625" cy="-513.6004" rx="42.1216" ry="18"/>
<text text-anchor="middle" x="625" y="-509.4004" font-family="Helvetica,sans-Serif" font-size="14.00" fill="#000000">doc &#45; 24</text>
</g>
<!-- section_1 -->
<g id="node2" class="node">
<title>section_1</title>
<ellipse fill="none" stroke="#000000" cx="625" cy="-441.6004" rx="60.9826" ry="18"/>
<text text-anchor="middle" x="625" y="-437.4004" font-family="Helvetica,sans-Serif" font-size="14.00" fill="#000000">section: 1&#45;24</text>
</g>
<!-- doc_0&#45;&gt;section_1 -->
<g id="edge1" class="edge">
<title>doc_0&#45;&gt;section_1</title>
<path fill="none" stroke="#000000" stroke-dasharray="5,2" d="M625,-495.4318C625,-487.7314 625,-478.5748 625,-470.0171"/>
<polygon fill="#000000" stroke="#000000" points="628.5001,-470.0137 625,-460.0137 621.5001,-470.0137 628.5001,-470.0137"/>
</g>
<!-- header_2 -->
<g id="node3" class="node">
<title>header_2</title>
<ellipse fill="none" stroke="#000000" cx="146" cy="-369.6004" rx="54.1919" ry="18"/>
<text text-anchor="middle" x="146" y="-365.4004" font-family="Helvetica,sans-Serif" font-size="14.00" fill="#000000">1 : Espalier</text>
</g>
<!-- section_1&#45;&gt;header_2 -->
<g id="edge2" class="edge">
<title>section_1&#45;&gt;header_2</title>
<path fill="none" stroke="#000000" stroke-dasharray="5,2" d="M570.519,-433.4112C480.025,-419.8088 299.4245,-392.6622 205.6334,-378.5641"/>
<polygon fill="#000000" stroke="#000000" points="206.1444,-375.1017 195.7352,-377.0763 205.1039,-382.0239 206.1444,-375.1017"/>
</g>
<!-- prose_3 -->
<g id="node4" class="node">
<title>prose_3</title>
<ellipse fill="none" stroke="#000000" cx="336" cy="-369.6004" rx="32.4585" ry="18"/>
<text text-anchor="middle" x="336" y="-365.4004" font-family="Helvetica,sans-Serif" font-size="14.00" fill="#000000">prose</text>
</g>
<!-- section_1&#45;&gt;prose_3 -->
<g id="edge3" class="edge">
<title>section_1&#45;&gt;prose_3</title>
<path fill="none" stroke="#000000" stroke-dasharray="5,2" d="M578.246,-429.9524C521.9332,-415.9229 428.3359,-392.6045 375.4854,-379.4376"/>
<polygon fill="#000000" stroke="#000000" points="376.0312,-375.9667 365.4817,-376.9453 374.3389,-382.7591 376.0312,-375.9667"/>
</g>
<!-- prose_4 -->
<g id="node5" class="node">
<title>prose_4</title>
<ellipse fill="none" stroke="#000000" cx="625" cy="-369.6004" rx="32.4585" ry="18"/>
<text text-anchor="middle" x="625" y="-365.4004" font-family="Helvetica,sans-Serif" font-size="14.00" fill="#000000">prose</text>
</g>
<!-- section_1&#45;&gt;prose_4 -->
<g id="edge4" class="edge">
<title>section_1&#45;&gt;prose_4</title>
<path fill="none" stroke="#000000" stroke-dasharray="5,2" d="M625,-423.4318C625,-415.7314 625,-406.5748 625,-398.0171"/>
<polygon fill="#000000" stroke="#000000" points="628.5001,-398.0137 625,-388.0137 621.5001,-398.0137 628.5001,-398.0137"/>
</g>
<!-- prose_5 -->
<g id="node6" class="node">
<title>prose_5</title>
<ellipse fill="none" stroke="#000000" cx="788" cy="-369.6004" rx="32.4585" ry="18"/>
<text text-anchor="middle" x="788" y="-365.4004" font-family="Helvetica,sans-Serif" font-size="14.00" fill="#000000">prose</text>
</g>
<!-- section_1&#45;&gt;prose_5 -->
<g id="edge5" class="edge">
<title>section_1&#45;&gt;prose_5</title>
<path fill="none" stroke="#000000" stroke-dasharray="5,2" d="M659.1701,-426.5069C686.8111,-414.2974 725.5672,-397.1781 753.3387,-384.9109"/>
<polygon fill="#000000" stroke="#000000" points="754.9344,-388.0324 762.6675,-380.7902 752.106,-381.6293 754.9344,-388.0324"/>
</g>
<!-- codeblock_6 -->
<g id="node7" class="node">
<title>codeblock_6</title>
<ellipse fill="none" stroke="#000000" cx="990" cy="-369.6004" rx="72.5844" ry="18"/>
<text text-anchor="middle" x="990" y="-365.4004" font-family="Helvetica,sans-Serif" font-size="14.00" fill="#000000">code block 9&#45;24</text>
</g>
<!-- section_1&#45;&gt;codeblock_6 -->
<g id="edge6" class="edge">
<title>section_1&#45;&gt;codeblock_6</title>
<path fill="none" stroke="#000000" stroke-dasharray="5,2" d="M675.7517,-431.5891C740.1635,-418.8833 851.459,-396.9291 922.8485,-382.8468"/>
<polygon fill="#000000" stroke="#000000" points="923.9479,-386.1974 933.0815,-380.8282 922.5932,-379.3298 923.9479,-386.1974"/>
</g>
<!-- leaf_7 -->
<g id="node8" class="node">
<title>leaf_7</title>
<polygon fill="none" stroke="#c0c0c0" points="104,-221.5002 18,-221.5002 18,-185.5002 104,-185.5002 104,-221.5002"/>
<text text-anchor="middle" x="61" y="-200.0002" font-family="Inconsolata" font-size="14.00" fill="#000000">* Espalier</text>
</g>
<!-- header_2&#45;&gt;leaf_7 -->
<g id="edge7" class="edge">
<title>header_2&#45;&gt;leaf_7</title>
<path fill="none" stroke="#000000" stroke-dasharray="5,2" d="M134.4773,-351.8997C127.8864,-341.4995 119.6364,-327.9995 113,-315.6004 97.9197,-287.4255 82.7834,-254.0853 72.7619,-231.1298"/>
<polygon fill="#000000" stroke="#000000" points="75.8516,-229.4569 68.6656,-221.6714 69.4281,-232.2388 75.8516,-229.4569"/>
</g>
<!-- raw_8 -->
<g id="node9" class="node">
<title>raw_8</title>
<ellipse fill="none" stroke="#000000" cx="149" cy="-203.5002" rx="27" ry="18"/>
<text text-anchor="middle" x="149" y="-199.3002" font-family="Helvetica,sans-Serif" font-size="14.00" fill="#000000">raw</text>
</g>
<!-- prose_3&#45;&gt;raw_8 -->
<g id="edge8" class="edge">
<title>prose_3&#45;&gt;raw_8</title>
<path fill="none" stroke="#000000" stroke-dasharray="5,2" d="M304.1255,-366.449C270.1172,-361.4228 216.8507,-348.5103 185,-315.6004 162.9837,-292.852 154.4302,-256.5995 151.1081,-231.5082"/>
<polygon fill="#000000" stroke="#000000" points="154.5792,-231.0549 149.9806,-221.5101 147.6233,-231.8393 154.5792,-231.0549"/>
</g>
<!-- prespace_9 -->
<g id="node10" class="node">
<title>prespace_9</title>
<ellipse fill="none" stroke="#000000" cx="240" cy="-203.5002" rx="46.4736" ry="18"/>
<text text-anchor="middle" x="240" y="-199.3002" font-family="Helvetica,sans-Serif" font-size="14.00" fill="#000000">prespace</text>
</g>
<!-- prose_3&#45;&gt;prespace_9 -->
<g id="edge9" class="edge">
<title>prose_3&#45;&gt;prespace_9</title>
<path fill="none" stroke="#000000" stroke-dasharray="5,2" d="M322.6068,-353.1043C314.4381,-342.6729 304.055,-328.7262 296,-315.6004 278.8748,-287.6947 262.5306,-253.8565 251.9679,-230.7057"/>
<polygon fill="#000000" stroke="#000000" points="255.1118,-229.1632 247.8095,-221.4867 248.7308,-232.0414 255.1118,-229.1632"/>
</g>
<!-- literal_10 -->
<g id="node11" class="node">
<title>literal_10</title>
<ellipse fill="none" stroke="#000000" cx="336" cy="-203.5002" rx="31.481" ry="18"/>
<text text-anchor="middle" x="336" y="-199.3002" font-family="Helvetica,sans-Serif" font-size="14.00" fill="#000000">literal</text>
</g>
<!-- prose_3&#45;&gt;literal_10 -->
<g id="edge10" class="edge">
<title>prose_3&#45;&gt;literal_10</title>
<path fill="none" stroke="#000000" stroke-dasharray="5,2" d="M336,-351.5086C336,-322.678 336,-266.0805 336,-231.8383"/>
<polygon fill="#000000" stroke="#000000" points="339.5001,-231.5697 336,-221.5698 332.5001,-231.5698 339.5001,-231.5697"/>
</g>
<!-- raw_11 -->
<g id="node12" class="node">
<title>raw_11</title>
<ellipse fill="none" stroke="#000000" cx="412" cy="-203.5002" rx="27" ry="18"/>
<text text-anchor="middle" x="412" y="-199.3002" font-family="Helvetica,sans-Serif" font-size="14.00" fill="#000000">raw</text>
</g>
<!-- prose_3&#45;&gt;raw_11 -->
<g id="edge11" class="edge">
<title>prose_3&#45;&gt;raw_11</title>
<path fill="none" stroke="#000000" stroke-dasharray="5,2" d="M350.4987,-353.0397C358.8684,-342.8086 369.0751,-329.0942 376,-315.6004 389.9204,-288.4751 399.8406,-254.9037 405.6963,-231.6059"/>
<polygon fill="#000000" stroke="#000000" points="409.1469,-232.2276 408.1006,-221.6846 402.3438,-230.579 409.1469,-232.2276"/>
</g>
<!-- raw_16 -->
<g id="node17" class="node">
<title>raw_16</title>
<ellipse fill="none" stroke="#000000" cx="495" cy="-203.5002" rx="27" ry="18"/>
<text text-anchor="middle" x="495" y="-199.3002" font-family="Helvetica,sans-Serif" font-size="14.00" fill="#000000">raw</text>
</g>
<!-- prose_4&#45;&gt;raw_16 -->
<g id="edge16" class="edge">
<title>prose_4&#45;&gt;raw_16</title>
<path fill="none" stroke="#000000" stroke-dasharray="5,2" d="M597.4195,-360.0923C576.4233,-351.5251 548.2791,-336.9658 531,-315.6004 511.4055,-291.3721 502.3818,-256.2489 498.2876,-231.7972"/>
<polygon fill="#000000" stroke="#000000" points="501.7198,-231.0833 496.7756,-221.7129 494.7972,-232.1213 501.7198,-231.0833"/>
</g>
<!-- prespace_17 -->
<g id="node18" class="node">
<title>prespace_17</title>
<ellipse fill="none" stroke="#000000" cx="586" cy="-203.5002" rx="46.4736" ry="18"/>
<text text-anchor="middle" x="586" y="-199.3002" font-family="Helvetica,sans-Serif" font-size="14.00" fill="#000000">prespace</text>
</g>
<!-- prose_4&#45;&gt;prespace_17 -->
<g id="edge17" class="edge">
<title>prose_4&#45;&gt;prespace_17</title>
<path fill="none" stroke="#000000" stroke-dasharray="5,2" d="M620.7521,-351.5086C613.9534,-322.5532 600.5785,-265.5899 592.5496,-231.3948"/>
<polygon fill="#000000" stroke="#000000" points="595.9359,-230.5049 590.2427,-221.5698 589.1212,-232.1051 595.9359,-230.5049"/>
</g>
<!-- literal_18 -->
<g id="node19" class="node">
<title>literal_18</title>
<ellipse fill="none" stroke="#000000" cx="682" cy="-203.5002" rx="31.481" ry="18"/>
<text text-anchor="middle" x="682" y="-199.3002" font-family="Helvetica,sans-Serif" font-size="14.00" fill="#000000">literal</text>
</g>
<!-- prose_4&#45;&gt;literal_18 -->
<g id="edge18" class="edge">
<title>prose_4&#45;&gt;literal_18</title>
<path fill="none" stroke="#000000" stroke-dasharray="5,2" d="M631.1,-351.8248C641.0163,-322.9282 660.7065,-265.5502 672.4782,-231.247"/>
<polygon fill="#000000" stroke="#000000" points="675.9223,-231.9938 675.8577,-221.3991 669.3013,-229.7216 675.9223,-231.9938"/>
</g>
<!-- raw_19 -->
<g id="node20" class="node">
<title>raw_19</title>
<ellipse fill="none" stroke="#000000" cx="758" cy="-203.5002" rx="27" ry="18"/>
<text text-anchor="middle" x="758" y="-199.3002" font-family="Helvetica,sans-Serif" font-size="14.00" fill="#000000">raw</text>
</g>
<!-- prose_4&#45;&gt;raw_19 -->
<g id="edge19" class="edge">
<title>prose_4&#45;&gt;raw_19</title>
<path fill="none" stroke="#000000" stroke-dasharray="5,2" d="M653.0102,-360.4839C674.7187,-352.063 704.0356,-337.5099 722,-315.6004 741.7572,-291.5045 750.7498,-256.356 754.7922,-231.8622"/>
<polygon fill="#000000" stroke="#000000" points="758.2857,-232.1619 756.2804,-221.7585 751.3605,-231.1417 758.2857,-232.1619"/>
</g>
<!-- raw_24 -->
<g id="node25" class="node">
<title>raw_24</title>
<ellipse fill="none" stroke="#000000" cx="830" cy="-203.5002" rx="27" ry="18"/>
<text text-anchor="middle" x="830" y="-199.3002" font-family="Helvetica,sans-Serif" font-size="14.00" fill="#000000">raw</text>
</g>
<!-- prose_5&#45;&gt;raw_24 -->
<g id="edge24" class="edge">
<title>prose_5&#45;&gt;raw_24</title>
<path fill="none" stroke="#000000" stroke-dasharray="5,2" d="M792.5747,-351.5086C799.9156,-322.477 814.3759,-265.2899 823.0147,-231.1254"/>
<polygon fill="#000000" stroke="#000000" points="826.4362,-231.8712 825.4945,-221.3183 819.6498,-230.1552 826.4362,-231.8712"/>
</g>
<!-- leaf_26 -->
<g id="node27" class="node">
<title>leaf_26</title>
<polygon fill="none" stroke="#c0c0c0" points="1185,-315.7007 875,-315.7007 875,-91.2997 1185,-91.2997 1185,-315.7007"/>
<text text-anchor="middle" x="1030" y="-300.4004" font-family="Inconsolata" font-size="14.00" fill="#000000">local ss &#160;&#160;&#160;&#160;&#160;= require &quot;singletons&quot;</text>
<text text-anchor="middle" x="1030" y="-285.0004" font-family="Inconsolata" font-size="14.00" fill="#000000">local dot &#160;&#160;&#160;&#160;= require &quot;espalier/dot&quot;</text>
<text text-anchor="middle" x="1030" y="-269.6004" font-family="Inconsolata" font-size="14.00" fill="#000000">local elpatt &#160;= require &quot;espalier/elpatt&quot;</text>
<text text-anchor="middle" x="1030" y="-254.2003" font-family="Inconsolata" font-size="14.00" fill="#000000">local Node &#160;&#160;&#160;= require &quot;espalier/node&quot;</text>
<text text-anchor="middle" x="1030" y="-238.8003" font-family="Inconsolata" font-size="14.00" fill="#000000">&#45;&#45; local Spec &#160;&#160;&#160;= require &quot;espalier/spec&quot;</text>
<text text-anchor="middle" x="1030" y="-223.4003" font-family="Inconsolata" font-size="14.00" fill="#000000">local Grammar = require &quot;espalier/grammar&quot;</text>
<text text-anchor="middle" x="1030" y="-192.0002" font-family="Inconsolata" font-size="14.00" fill="#000000">return { dot &#160;&#160;&#160;&#160;= dot,</text>
<text text-anchor="middle" x="1030" y="-176.6002" font-family="Inconsolata" font-size="14.00" fill="#000000"> &#160;&#160;&#160;&#160;&#160;&#160;&#160;&#160;elpatt &#160;= elpatt,</text>
<text text-anchor="middle" x="1030" y="-161.2002" font-family="Inconsolata" font-size="14.00" fill="#000000"> &#160;&#160;&#160;&#160;&#160;&#160;&#160;&#160;node &#160;&#160;&#160;= Node,</text>
<text text-anchor="middle" x="1030" y="-145.8002" font-family="Inconsolata" font-size="14.00" fill="#000000"> &#45;&#45; &#160;&#160;&#160;&#160;&#160;&#160;&#160;spec &#160;&#160;&#160;= Spec,</text>
<text text-anchor="middle" x="1030" y="-130.4001" font-family="Inconsolata" font-size="14.00" fill="#000000"> &#160;&#160;&#160;&#160;&#160;&#160;&#160;&#160;phrase &#160;= ss.Phrase,</text>
<text text-anchor="middle" x="1030" y="-115.0001" font-family="Inconsolata" font-size="14.00" fill="#000000"> &#160;&#160;&#160;&#160;&#160;&#160;&#160;&#160;grammar = Grammar,</text>
<text text-anchor="middle" x="1030" y="-99.6001" font-family="Inconsolata" font-size="14.00" fill="#000000"> &#160;&#160;&#160;&#160;&#160;&#160;&#160;&#160;stator &#160;= ss.Stator }</text>
</g>
<!-- codeblock_6&#45;&gt;leaf_26 -->
<g id="edge26" class="edge">
<title>codeblock_6&#45;&gt;leaf_26</title>
<path fill="none" stroke="#000000" stroke-dasharray="5,2" d="M994.3568,-351.5086C996.0908,-344.3085 998.2417,-335.3766 1000.6217,-325.4936"/>
<polygon fill="#000000" stroke="#000000" points="1004.029,-326.2938 1002.9676,-315.7522 997.2236,-324.6548 1004.029,-326.2938"/>
</g>
<!-- leaf_12 -->
<g id="node13" class="node">
<title>leaf_12</title>
<polygon fill="none" stroke="#c0c0c0" points="198,-55.6015 0,-55.6015 0,.2015 198,.2015 198,-55.6015"/>
<text text-anchor="middle" x="99" y="-8.2" font-family="Inconsolata" font-size="14.00" fill="#000000">This library is now called</text>
</g>
<!-- raw_8&#45;&gt;leaf_12 -->
<g id="edge12" class="edge">
<title>raw_8&#45;&gt;leaf_12</title>
<path fill="none" stroke="#000000" stroke-dasharray="5,2" d="M143.9306,-185.6761C135.9652,-157.6697 120.3397,-102.7305 109.782,-65.6097"/>
<polygon fill="#000000" stroke="#000000" points="113.0514,-64.3105 106.9492,-55.6494 106.3184,-66.2255 113.0514,-64.3105"/>
</g>
<!-- leaf_13 -->
<g id="node14" class="node">
<title>leaf_13</title>
<polygon fill="none" stroke="#c0c0c0" points="270,-45.7 216,-45.7 216,-9.7 270,-9.7 270,-45.7"/>
<text text-anchor="middle" x="243" y="-24.2" font-family="Inconsolata" font-size="14.00" fill="#000000"> </text>
</g>
<!-- prespace_9&#45;&gt;leaf_13 -->
<g id="edge13" class="edge">
<title>prespace_9&#45;&gt;leaf_13</title>
<path fill="none" stroke="#000000" stroke-dasharray="5,2" d="M240.3098,-185.3487C240.8321,-154.7399 241.8918,-92.6387 242.514,-56.1808"/>
<polygon fill="#000000" stroke="#000000" points="246.0207,-55.8111 242.6919,-45.7528 239.0217,-55.6916 246.0207,-55.8111"/>
</g>
<!-- leaf_14 -->
<g id="node15" class="node">
<title>leaf_14</title>
<polygon fill="none" stroke="#c0c0c0" points="365,-45.7 293,-45.7 293,-9.7 365,-9.7 365,-45.7"/>
<text text-anchor="middle" x="329" y="-24.2" font-family="Inconsolata" font-size="14.00" fill="#000000">espalier</text>
</g>
<!-- literal_10&#45;&gt;leaf_14 -->
<g id="edge14" class="edge">
<title>literal_10&#45;&gt;leaf_14</title>
<path fill="none" stroke="#000000" stroke-dasharray="5,2" d="M335.2772,-185.3487C334.0585,-154.7399 331.5857,-92.6387 330.134,-56.1808"/>
<polygon fill="#000000" stroke="#000000" points="333.614,-55.6056 329.7188,-45.7528 326.6196,-55.8842 333.614,-55.6056"/>
</g>
<!-- leaf_15 -->
<g id="node16" class="node">
<title>leaf_15</title>
<polygon fill="none" stroke="#c0c0c0" points="437,-45.7 383,-45.7 383,-9.7 437,-9.7 437,-45.7"/>
<text text-anchor="middle" x="410" y="-24.2" font-family="Inconsolata" font-size="14.00" fill="#000000">.</text>
</g>
<!-- raw_11&#45;&gt;leaf_15 -->
<g id="edge15" class="edge">
<title>raw_11&#45;&gt;leaf_15</title>
<path fill="none" stroke="#000000" stroke-dasharray="5,2" d="M411.7935,-185.3487C411.4453,-154.7399 410.7388,-92.6387 410.324,-56.1808"/>
<polygon fill="#000000" stroke="#000000" points="413.819,-55.7123 410.2054,-45.7528 406.8195,-55.792 413.819,-55.7123"/>
</g>
<!-- leaf_20 -->
<g id="node21" class="node">
<title>leaf_20</title>
<polygon fill="none" stroke="#c0c0c0" points="541,-47.6021 455,-47.6021 455,-7.7979 541,-7.7979 541,-47.6021"/>
<text text-anchor="middle" x="498" y="-16.2" font-family="Inconsolata" font-size="14.00" fill="#000000">Because it</text>
</g>
<!-- raw_16&#45;&gt;leaf_20 -->
<g id="edge20" class="edge">
<title>raw_16&#45;&gt;leaf_20</title>
<path fill="none" stroke="#000000" stroke-dasharray="5,2" d="M495.3098,-185.3487C495.8248,-155.1669 496.8624,-94.3652 497.4877,-57.7214"/>
<polygon fill="#000000" stroke="#000000" points="500.9887,-57.687 497.6599,-47.6287 493.9897,-57.5675 500.9887,-57.687"/>
</g>
<!-- leaf_21 -->
<g id="node22" class="node">
<title>leaf_21</title>
<polygon fill="none" stroke="#c0c0c0" points="613,-45.7 559,-45.7 559,-9.7 613,-9.7 613,-45.7"/>
<text text-anchor="middle" x="586" y="-24.2" font-family="Inconsolata" font-size="14.00" fill="#000000"> </text>
</g>
<!-- prespace_17&#45;&gt;leaf_21 -->
<g id="edge21" class="edge">
<title>prespace_17&#45;&gt;leaf_21</title>
<path fill="none" stroke="#000000" stroke-dasharray="5,2" d="M586,-185.3487C586,-154.7399 586,-92.6387 586,-56.1808"/>
<polygon fill="#000000" stroke="#000000" points="589.5001,-55.7528 586,-45.7528 582.5001,-55.7529 589.5001,-55.7528"/>
</g>
<!-- leaf_22 -->
<g id="node23" class="node">
<title>leaf_22</title>
<polygon fill="none" stroke="#c0c0c0" points="685,-45.7 631,-45.7 631,-9.7 685,-9.7 685,-45.7"/>
<text text-anchor="middle" x="658" y="-24.2" font-family="Inconsolata" font-size="14.00" fill="#000000">PEG</text>
</g>
<!-- literal_18&#45;&gt;leaf_22 -->
<g id="edge22" class="edge">
<title>literal_18&#45;&gt;leaf_22</title>
<path fill="none" stroke="#000000" stroke-dasharray="5,2" d="M679.522,-185.3487C675.3253,-154.6079 666.7922,-92.1028 661.824,-55.7108"/>
<polygon fill="#000000" stroke="#000000" points="665.2851,-55.1875 660.4645,-45.7528 658.3494,-56.1344 665.2851,-55.1875"/>
</g>
<!-- leaf_23 -->
<g id="node24" class="node">
<title>leaf_23</title>
<polygon fill="none" stroke="#c0c0c0" points="859,-45.7 703,-45.7 703,-9.7 859,-9.7 859,-45.7"/>
<text text-anchor="middle" x="781" y="-24.2" font-family="Inconsolata" font-size="14.00" fill="#000000">s trees to the wall.</text>
</g>
<!-- raw_19&#45;&gt;leaf_23 -->
<g id="edge23" class="edge">
<title>raw_19&#45;&gt;leaf_23</title>
<path fill="none" stroke="#000000" stroke-dasharray="5,2" d="M760.3748,-185.3487C764.3966,-154.6079 772.5742,-92.1028 777.3353,-55.7108"/>
<polygon fill="#000000" stroke="#000000" points="780.8112,-56.1224 778.6381,-45.7528 773.8704,-55.2143 780.8112,-56.1224"/>
</g>
<!-- leaf_25 -->
<g id="node26" class="node">
<title>leaf_25</title>
<polygon fill="none" stroke="#c0c0c0" points="931,-47.6021 877,-47.6021 877,-7.7979 931,-7.7979 931,-47.6021"/>
<text text-anchor="middle" x="904" y="-16.2" font-family="Inconsolata" font-size="14.00" fill="#000000">Heh.</text>
</g>
<!-- raw_24&#45;&gt;leaf_25 -->
<g id="edge25" class="edge">
<title>raw_24&#45;&gt;leaf_25</title>
<path fill="none" stroke="#000000" stroke-dasharray="5,2" d="M834.4092,-185.5616C840.2503,-163.0304 851.5258,-123.4405 866,-91.4 871.4257,-79.3896 878.5866,-66.8014 885.228,-56.017"/>
<polygon fill="#000000" stroke="#000000" points="888.2659,-57.7611 890.6352,-47.4346 882.3433,-54.0297 888.2659,-57.7611"/>
</g>
</g>
</svg>
