<?xml version="1.0" encoding="UTF-8" standalone="no"?>
<!DOCTYPE svg PUBLIC "-//W3C//DTD SVG 1.1//EN"
 "http://www.w3.org/Graphics/SVG/1.1/DTD/svg11.dtd">
<!-- Generated by graphviz version 2.40.1 (20161225.0304)
 -->
<!-- Title: lpegNode Pages: 1 -->
<svg width="1291pt" height="665pt"
 viewBox="0.00 0.00 1291.00 664.60" xmlns="http://www.w3.org/2000/svg" xmlns:xlink="http://www.w3.org/1999/xlink">
<g id="graph0" class="graph" transform="scale(1 1) rotate(0) translate(4 660.6006)">
<title>lpegNode</title>
<polygon fill="#ffffff" stroke="transparent" points="-4,4 -4,-660.6006 1287,-660.6006 1287,4 -4,4"/>
<!-- doc_0 -->
<g id="node1" class="node">
<title>doc_0</title>
<ellipse fill="none" stroke="#000000" cx="626" cy="-638.6006" rx="42.1216" ry="18"/>
<text text-anchor="middle" x="626" y="-634.4006" font-family="Helvetica,sans-Serif" font-size="14.00" fill="#000000">doc &#45; 32</text>
</g>
<!-- section_1 -->
<g id="node2" class="node">
<title>section_1</title>
<ellipse fill="none" stroke="#000000" cx="626" cy="-566.6006" rx="60.9826" ry="18"/>
<text text-anchor="middle" x="626" y="-562.4006" font-family="Helvetica,sans-Serif" font-size="14.00" fill="#000000">section: 1&#45;32</text>
</g>
<!-- doc_0&#45;&gt;section_1 -->
<g id="edge1" class="edge">
<title>doc_0&#45;&gt;section_1</title>
<path fill="none" stroke="#000000" stroke-dasharray="5,2" d="M626,-620.432C626,-612.7315 626,-603.5749 626,-595.0172"/>
<polygon fill="#000000" stroke="#000000" points="629.5001,-595.0138 626,-585.0139 622.5001,-595.0139 629.5001,-595.0138"/>
</g>
<!-- header_2 -->
<g id="node3" class="node">
<title>header_2</title>
<ellipse fill="none" stroke="#000000" cx="146" cy="-494.6006" rx="54.1919" ry="18"/>
<text text-anchor="middle" x="146" y="-490.4006" font-family="Helvetica,sans-Serif" font-size="14.00" fill="#000000">1 : Espalier</text>
</g>
<!-- section_1&#45;&gt;header_2 -->
<g id="edge2" class="edge">
<title>section_1&#45;&gt;header_2</title>
<path fill="none" stroke="#000000" stroke-dasharray="5,2" d="M571.4052,-558.4114C480.7223,-544.8089 299.7448,-517.6623 205.7579,-503.5643"/>
<polygon fill="#000000" stroke="#000000" points="206.2477,-500.0987 195.8391,-502.0765 205.2092,-507.0212 206.2477,-500.0987"/>
</g>
<!-- prose_3 -->
<g id="node4" class="node">
<title>prose_3</title>
<ellipse fill="none" stroke="#000000" cx="336" cy="-494.6006" rx="32.4585" ry="18"/>
<text text-anchor="middle" x="336" y="-490.4006" font-family="Helvetica,sans-Serif" font-size="14.00" fill="#000000">prose</text>
</g>
<!-- section_1&#45;&gt;prose_3 -->
<g id="edge3" class="edge">
<title>section_1&#45;&gt;prose_3</title>
<path fill="none" stroke="#000000" stroke-dasharray="5,2" d="M579.4065,-555.0325C522.8502,-540.991 428.4756,-517.56 375.3847,-504.3789"/>
<polygon fill="#000000" stroke="#000000" points="376.2041,-500.9761 365.6554,-501.9633 374.5173,-507.7699 376.2041,-500.9761"/>
</g>
<!-- prose_4 -->
<g id="node5" class="node">
<title>prose_4</title>
<ellipse fill="none" stroke="#000000" cx="626" cy="-494.6006" rx="32.4585" ry="18"/>
<text text-anchor="middle" x="626" y="-490.4006" font-family="Helvetica,sans-Serif" font-size="14.00" fill="#000000">prose</text>
</g>
<!-- section_1&#45;&gt;prose_4 -->
<g id="edge4" class="edge">
<title>section_1&#45;&gt;prose_4</title>
<path fill="none" stroke="#000000" stroke-dasharray="5,2" d="M626,-548.432C626,-540.7315 626,-531.5749 626,-523.0172"/>
<polygon fill="#000000" stroke="#000000" points="629.5001,-523.0138 626,-513.0139 622.5001,-523.0139 629.5001,-523.0138"/>
</g>
<!-- prose_5 -->
<g id="node6" class="node">
<title>prose_5</title>
<ellipse fill="none" stroke="#000000" cx="789" cy="-494.6006" rx="32.4585" ry="18"/>
<text text-anchor="middle" x="789" y="-490.4006" font-family="Helvetica,sans-Serif" font-size="14.00" fill="#000000">prose</text>
</g>
<!-- section_1&#45;&gt;prose_5 -->
<g id="edge5" class="edge">
<title>section_1&#45;&gt;prose_5</title>
<path fill="none" stroke="#000000" stroke-dasharray="5,2" d="M660.1701,-551.507C687.8111,-539.2975 726.5672,-522.1783 754.3387,-509.9111"/>
<polygon fill="#000000" stroke="#000000" points="755.9344,-513.0326 763.6675,-505.7904 753.106,-506.6294 755.9344,-513.0326"/>
</g>
<!-- codeblock_6 -->
<g id="node7" class="node">
<title>codeblock_6</title>
<ellipse fill="none" stroke="#000000" cx="1015" cy="-494.6006" rx="72.5844" ry="18"/>
<text text-anchor="middle" x="1015" y="-490.4006" font-family="Helvetica,sans-Serif" font-size="14.00" fill="#000000">code block 9&#45;32</text>
</g>
<!-- section_1&#45;&gt;codeblock_6 -->
<g id="edge6" class="edge">
<title>section_1&#45;&gt;codeblock_6</title>
<path fill="none" stroke="#000000" stroke-dasharray="5,2" d="M677.6562,-557.0395C746.883,-544.2264 869.9153,-521.4543 946.7224,-507.2381"/>
<polygon fill="#000000" stroke="#000000" points="947.5832,-510.6383 956.7792,-505.3767 946.3092,-503.7552 947.5832,-510.6383"/>
</g>
<!-- leaf_7 -->
<g id="node8" class="node">
<title>leaf_7</title>
<polygon fill="none" stroke="#c0c0c0" points="104,-284.0003 18,-284.0003 18,-248.0003 104,-248.0003 104,-284.0003"/>
<text text-anchor="middle" x="61" y="-262.5003" font-family="Inconsolata" font-size="14.00" fill="#000000">* Espalier</text>
</g>
<!-- header_2&#45;&gt;leaf_7 -->
<g id="edge7" class="edge">
<title>header_2&#45;&gt;leaf_7</title>
<path fill="none" stroke="#000000" stroke-dasharray="5,2" d="M133.4706,-476.7511C126.7145,-466.5257 118.6323,-453.2467 113,-440.6006 90.9012,-390.9826 75.0506,-329.3617 67.0101,-294.1711"/>
<polygon fill="#000000" stroke="#000000" points="70.3652,-293.1362 64.7673,-284.141 63.5339,-294.6638 70.3652,-293.1362"/>
</g>
<!-- raw_8 -->
<g id="node9" class="node">
<title>raw_8</title>
<ellipse fill="none" stroke="#000000" cx="149" cy="-266.0003" rx="27" ry="18"/>
<text text-anchor="middle" x="149" y="-261.8003" font-family="Helvetica,sans-Serif" font-size="14.00" fill="#000000">raw</text>
</g>
<!-- prose_3&#45;&gt;raw_8 -->
<g id="edge8" class="edge">
<title>prose_3&#45;&gt;raw_8</title>
<path fill="none" stroke="#000000" stroke-dasharray="5,2" d="M304.0599,-492.1669C269.4764,-487.7615 215.221,-475.3827 185,-440.6006 149.2495,-399.4543 145.6502,-332.2872 146.8851,-294.3748"/>
<polygon fill="#000000" stroke="#000000" points="150.3966,-294.208 147.3658,-284.0559 143.4042,-293.8822 150.3966,-294.208"/>
</g>
<!-- prespace_9 -->
<g id="node10" class="node">
<title>prespace_9</title>
<ellipse fill="none" stroke="#000000" cx="240" cy="-266.0003" rx="46.4736" ry="18"/>
<text text-anchor="middle" x="240" y="-261.8003" font-family="Helvetica,sans-Serif" font-size="14.00" fill="#000000">prespace</text>
</g>
<!-- prose_3&#45;&gt;prespace_9 -->
<g id="edge9" class="edge">
<title>prose_3&#45;&gt;prespace_9</title>
<path fill="none" stroke="#000000" stroke-dasharray="5,2" d="M321.4995,-478.0408C313.1291,-467.81 302.9224,-454.0957 296,-440.6006 270.9826,-391.8294 254.2845,-329.6767 246.0324,-294.2075"/>
<polygon fill="#000000" stroke="#000000" points="249.3658,-293.0804 243.7427,-284.1009 242.5388,-294.6271 249.3658,-293.0804"/>
</g>
<!-- literal_10 -->
<g id="node11" class="node">
<title>literal_10</title>
<ellipse fill="none" stroke="#000000" cx="336" cy="-266.0003" rx="31.481" ry="18"/>
<text text-anchor="middle" x="336" y="-261.8003" font-family="Helvetica,sans-Serif" font-size="14.00" fill="#000000">literal</text>
</g>
<!-- prose_3&#45;&gt;literal_10 -->
<g id="edge10" class="edge">
<title>prose_3&#45;&gt;literal_10</title>
<path fill="none" stroke="#000000" stroke-dasharray="5,2" d="M336,-476.2797C336,-436.4712 336,-341.8461 336,-294.2974"/>
<polygon fill="#000000" stroke="#000000" points="339.5001,-294.0911 336,-284.0911 332.5001,-294.0912 339.5001,-294.0911"/>
</g>
<!-- raw_11 -->
<g id="node12" class="node">
<title>raw_11</title>
<ellipse fill="none" stroke="#000000" cx="412" cy="-266.0003" rx="27" ry="18"/>
<text text-anchor="middle" x="412" y="-261.8003" font-family="Helvetica,sans-Serif" font-size="14.00" fill="#000000">raw</text>
</g>
<!-- prose_3&#45;&gt;raw_11 -->
<g id="edge11" class="edge">
<title>prose_3&#45;&gt;raw_11</title>
<path fill="none" stroke="#000000" stroke-dasharray="5,2" d="M351.0323,-478.2959C359.5912,-468.1554 369.8094,-454.4466 376,-440.6006 397.752,-391.9496 406.5293,-329.7553 409.9451,-294.2462"/>
<polygon fill="#000000" stroke="#000000" points="413.4453,-294.3972 410.8414,-284.1273 406.4726,-293.7795 413.4453,-294.3972"/>
</g>
<!-- raw_16 -->
<g id="node17" class="node">
<title>raw_16</title>
<ellipse fill="none" stroke="#000000" cx="495" cy="-266.0003" rx="27" ry="18"/>
<text text-anchor="middle" x="495" y="-261.8003" font-family="Helvetica,sans-Serif" font-size="14.00" fill="#000000">raw</text>
</g>
<!-- prose_4&#45;&gt;raw_16 -->
<g id="edge16" class="edge">
<title>prose_4&#45;&gt;raw_16</title>
<path fill="none" stroke="#000000" stroke-dasharray="5,2" d="M597.475,-485.6674C575.8964,-477.4172 547.2875,-463.0038 531,-440.6006 499.113,-396.7405 494.0103,-331.1335 493.9656,-294.0905"/>
<polygon fill="#000000" stroke="#000000" points="497.4663,-294.0429 494.0794,-284.004 490.4667,-293.9639 497.4663,-294.0429"/>
</g>
<!-- prespace_17 -->
<g id="node18" class="node">
<title>prespace_17</title>
<ellipse fill="none" stroke="#000000" cx="586" cy="-266.0003" rx="46.4736" ry="18"/>
<text text-anchor="middle" x="586" y="-261.8003" font-family="Helvetica,sans-Serif" font-size="14.00" fill="#000000">prespace</text>
</g>
<!-- prose_4&#45;&gt;prespace_17 -->
<g id="edge17" class="edge">
<title>prose_4&#45;&gt;prespace_17</title>
<path fill="none" stroke="#000000" stroke-dasharray="5,2" d="M622.8613,-476.6627C615.9267,-437.0319 599.2566,-341.7617 590.9201,-294.1189"/>
<polygon fill="#000000" stroke="#000000" points="594.3508,-293.4182 589.1795,-284.1712 587.4556,-294.6248 594.3508,-293.4182"/>
</g>
<!-- literal_18 -->
<g id="node19" class="node">
<title>literal_18</title>
<ellipse fill="none" stroke="#000000" cx="682" cy="-266.0003" rx="31.481" ry="18"/>
<text text-anchor="middle" x="682" y="-261.8003" font-family="Helvetica,sans-Serif" font-size="14.00" fill="#000000">literal</text>
</g>
<!-- prose_4&#45;&gt;literal_18 -->
<g id="edge18" class="edge">
<title>prose_4&#45;&gt;literal_18</title>
<path fill="none" stroke="#000000" stroke-dasharray="5,2" d="M631.1819,-476.6491C634.1591,-466.1653 637.9091,-452.6653 641,-440.6006 654.2356,-388.9371 668.1139,-328.2463 675.8499,-293.7352"/>
<polygon fill="#000000" stroke="#000000" points="679.2816,-294.4268 678.0461,-283.9043 672.45,-292.9007 679.2816,-294.4268"/>
</g>
<!-- raw_19 -->
<g id="node20" class="node">
<title>raw_19</title>
<ellipse fill="none" stroke="#000000" cx="758" cy="-266.0003" rx="27" ry="18"/>
<text text-anchor="middle" x="758" y="-261.8003" font-family="Helvetica,sans-Serif" font-size="14.00" fill="#000000">raw</text>
</g>
<!-- prose_4&#45;&gt;raw_19 -->
<g id="edge19" class="edge">
<title>prose_4&#45;&gt;raw_19</title>
<path fill="none" stroke="#000000" stroke-dasharray="5,2" d="M654.3733,-485.9136C676.2267,-477.7357 705.4193,-463.2998 722,-440.6006 753.9853,-396.8121 759.0517,-331.1787 759.0637,-294.1119"/>
<polygon fill="#000000" stroke="#000000" points="762.5624,-293.9751 758.9406,-284.0186 755.563,-294.0606 762.5624,-293.9751"/>
</g>
<!-- raw_24 -->
<g id="node25" class="node">
<title>raw_24</title>
<ellipse fill="none" stroke="#000000" cx="830" cy="-266.0003" rx="27" ry="18"/>
<text text-anchor="middle" x="830" y="-261.8003" font-family="Helvetica,sans-Serif" font-size="14.00" fill="#000000">raw</text>
</g>
<!-- prose_5&#45;&gt;raw_24 -->
<g id="edge24" class="edge">
<title>prose_5&#45;&gt;raw_24</title>
<path fill="none" stroke="#000000" stroke-dasharray="5,2" d="M792.2172,-476.6627C799.3251,-437.0319 816.412,-341.7617 824.9569,-294.1189"/>
<polygon fill="#000000" stroke="#000000" points="828.4206,-294.632 826.741,-284.1712 821.5305,-293.3962 828.4206,-294.632"/>
</g>
<!-- leaf_26 -->
<g id="node27" class="node">
<title>leaf_26</title>
<polygon fill="none" stroke="#c0c0c0" points="1283,-440.7009 875,-440.7009 875,-91.2997 1283,-91.2997 1283,-440.7009"/>
<text text-anchor="middle" x="1079" y="-425.4006" font-family="Inconsolata" font-size="14.00" fill="#000000">local ss &#160;&#160;&#160;&#160;&#160;= require &quot;singletons&quot;</text>
<text text-anchor="middle" x="1079" y="-410.0006" font-family="Inconsolata" font-size="14.00" fill="#000000">local dot &#160;&#160;&#160;&#160;= require &quot;espalier/dot&quot;</text>
<text text-anchor="middle" x="1079" y="-394.6005" font-family="Inconsolata" font-size="14.00" fill="#000000">local elpatt &#160;= require &quot;espalier/elpatt&quot;</text>
<text text-anchor="middle" x="1079" y="-379.2005" font-family="Inconsolata" font-size="14.00" fill="#000000">local Node &#160;&#160;&#160;= require &quot;espalier/node&quot;</text>
<text text-anchor="middle" x="1079" y="-363.8005" font-family="Inconsolata" font-size="14.00" fill="#000000">&#45;&#45; local Spec &#160;&#160;&#160;= require &quot;espalier/spec&quot;</text>
<text text-anchor="middle" x="1079" y="-348.4004" font-family="Inconsolata" font-size="14.00" fill="#000000">local Grammar = require &quot;espalier/grammar&quot;</text>
<text text-anchor="middle" x="1079" y="-317.0004" font-family="Inconsolata" font-size="14.00" fill="#000000">local ortho8600 = require &quot;espalier/grammars/ortho&#45;8600&quot;</text>
<text text-anchor="middle" x="1079" y="-285.6004" font-family="Inconsolata" font-size="14.00" fill="#000000">local dot_grammar &#160;= require &quot;espalier/grammars/dot&quot;</text>
<text text-anchor="middle" x="1079" y="-254.2003" font-family="Inconsolata" font-size="14.00" fill="#000000">local grammars = {ortho8600 = ortho8600,</text>
<text text-anchor="middle" x="1079" y="-238.8003" font-family="Inconsolata" font-size="14.00" fill="#000000"> &#160;&#160;&#160;&#160;&#160;&#160;&#160;&#160;&#160;&#160;&#160;&#160;&#160;&#160;&#160;&#160;&#160;dot &#160;&#160;&#160;&#160;&#160;&#160;= dot_grammar}</text>
<text text-anchor="middle" x="1079" y="-207.4003" font-family="Inconsolata" font-size="14.00" fill="#000000">return { dot &#160;&#160;&#160;&#160;&#160;= dot,</text>
<text text-anchor="middle" x="1079" y="-192.0002" font-family="Inconsolata" font-size="14.00" fill="#000000"> &#160;&#160;&#160;&#160;&#160;&#160;&#160;&#160;elpatt &#160;&#160;= elpatt,</text>
<text text-anchor="middle" x="1079" y="-176.6002" font-family="Inconsolata" font-size="14.00" fill="#000000"> &#160;&#160;&#160;&#160;&#160;&#160;&#160;&#160;node &#160;&#160;&#160;&#160;= Node,</text>
<text text-anchor="middle" x="1079" y="-161.2002" font-family="Inconsolata" font-size="14.00" fill="#000000"> &#45;&#45; &#160;&#160;&#160;&#160;&#160;&#160;&#160;spec &#160;&#160;&#160;= Spec,</text>
<text text-anchor="middle" x="1079" y="-145.8002" font-family="Inconsolata" font-size="14.00" fill="#000000"> &#160;&#160;&#160;&#160;&#160;&#160;&#160;&#160;phrase &#160;&#160;= ss.Phrase,</text>
<text text-anchor="middle" x="1079" y="-130.4001" font-family="Inconsolata" font-size="14.00" fill="#000000"> &#160;&#160;&#160;&#160;&#160;&#160;&#160;&#160;grammar &#160;= Grammar,</text>
<text text-anchor="middle" x="1079" y="-115.0001" font-family="Inconsolata" font-size="14.00" fill="#000000"> &#160;&#160;&#160;&#160;&#160;&#160;&#160;&#160;grammars = grammars,</text>
<text text-anchor="middle" x="1079" y="-99.6001" font-family="Inconsolata" font-size="14.00" fill="#000000"> &#160;&#160;&#160;&#160;&#160;&#160;&#160;&#160;stator &#160;&#160;= ss.Stator }</text>
</g>
<!-- codeblock_6&#45;&gt;leaf_26 -->
<g id="edge26" class="edge">
<title>codeblock_6&#45;&gt;leaf_26</title>
<path fill="none" stroke="#000000" stroke-dasharray="5,2" d="M1020.1292,-476.2797C1022.0848,-469.2945 1024.5129,-460.6215 1027.2595,-450.8113"/>
<polygon fill="#000000" stroke="#000000" points="1030.6596,-451.6484 1029.9853,-441.075 1023.9188,-449.7611 1030.6596,-451.6484"/>
</g>
<!-- leaf_12 -->
<g id="node13" class="node">
<title>leaf_12</title>
<polygon fill="none" stroke="#c0c0c0" points="198,-55.6015 0,-55.6015 0,.2015 198,.2015 198,-55.6015"/>
<text text-anchor="middle" x="99" y="-8.2" font-family="Inconsolata" font-size="14.00" fill="#000000">This library is now called</text>
</g>
<!-- raw_8&#45;&gt;leaf_12 -->
<g id="edge12" class="edge">
<title>raw_8&#45;&gt;leaf_12</title>
<path fill="none" stroke="#000000" stroke-dasharray="5,2" d="M145.3969,-248.1384C139.0001,-216.5148 125.1848,-148.6127 113,-91.4 111.2226,-83.0543 109.2784,-74.1021 107.4197,-65.6238"/>
<polygon fill="#000000" stroke="#000000" points="110.7791,-64.6038 105.2119,-55.5896 103.9427,-66.1082 110.7791,-64.6038"/>
</g>
<!-- leaf_13 -->
<g id="node14" class="node">
<title>leaf_13</title>
<polygon fill="none" stroke="#c0c0c0" points="270,-45.7 216,-45.7 216,-9.7 270,-9.7 270,-45.7"/>
<text text-anchor="middle" x="243" y="-24.2" font-family="Inconsolata" font-size="14.00" fill="#000000"> </text>
</g>
<!-- prespace_9&#45;&gt;leaf_13 -->
<g id="edge13" class="edge">
<title>prespace_9&#45;&gt;leaf_13</title>
<path fill="none" stroke="#000000" stroke-dasharray="5,2" d="M240.2304,-247.697C240.7509,-206.3571 242.0203,-105.5246 242.6432,-56.0384"/>
<polygon fill="#000000" stroke="#000000" points="246.1466,-55.7828 242.7729,-45.7395 239.1472,-55.6946 246.1466,-55.7828"/>
</g>
<!-- leaf_14 -->
<g id="node15" class="node">
<title>leaf_14</title>
<polygon fill="none" stroke="#c0c0c0" points="365,-45.7 293,-45.7 293,-9.7 365,-9.7 365,-45.7"/>
<text text-anchor="middle" x="329" y="-24.2" font-family="Inconsolata" font-size="14.00" fill="#000000">espalier</text>
</g>
<!-- literal_10&#45;&gt;leaf_14 -->
<g id="edge14" class="edge">
<title>literal_10&#45;&gt;leaf_14</title>
<path fill="none" stroke="#000000" stroke-dasharray="5,2" d="M335.4623,-247.697C334.248,-206.3571 331.2861,-105.5246 329.8324,-56.0384"/>
<polygon fill="#000000" stroke="#000000" points="333.3221,-55.6324 329.5299,-45.7395 326.3251,-55.838 333.3221,-55.6324"/>
</g>
<!-- leaf_15 -->
<g id="node16" class="node">
<title>leaf_15</title>
<polygon fill="none" stroke="#c0c0c0" points="437,-45.7 383,-45.7 383,-9.7 437,-9.7 437,-45.7"/>
<text text-anchor="middle" x="410" y="-24.2" font-family="Inconsolata" font-size="14.00" fill="#000000">.</text>
</g>
<!-- raw_11&#45;&gt;leaf_15 -->
<g id="edge15" class="edge">
<title>raw_11&#45;&gt;leaf_15</title>
<path fill="none" stroke="#000000" stroke-dasharray="5,2" d="M411.8464,-247.697C411.4994,-206.3571 410.6532,-105.5246 410.2378,-56.0384"/>
<polygon fill="#000000" stroke="#000000" points="413.7353,-55.7098 410.1514,-45.7395 406.7355,-55.7686 413.7353,-55.7098"/>
</g>
<!-- leaf_20 -->
<g id="node21" class="node">
<title>leaf_20</title>
<polygon fill="none" stroke="#c0c0c0" points="541,-47.6021 455,-47.6021 455,-7.7979 541,-7.7979 541,-47.6021"/>
<text text-anchor="middle" x="498" y="-16.2" font-family="Inconsolata" font-size="14.00" fill="#000000">Because it</text>
</g>
<!-- raw_16&#45;&gt;leaf_20 -->
<g id="edge20" class="edge">
<title>raw_16&#45;&gt;leaf_20</title>
<path fill="none" stroke="#000000" stroke-dasharray="5,2" d="M495.2304,-247.697C495.7443,-206.8795 496.9883,-108.0633 497.6193,-57.9387"/>
<polygon fill="#000000" stroke="#000000" points="501.1215,-57.7769 497.7478,-47.7336 494.1221,-57.6887 501.1215,-57.7769"/>
</g>
<!-- leaf_21 -->
<g id="node22" class="node">
<title>leaf_21</title>
<polygon fill="none" stroke="#c0c0c0" points="613,-45.7 559,-45.7 559,-9.7 613,-9.7 613,-45.7"/>
<text text-anchor="middle" x="586" y="-24.2" font-family="Inconsolata" font-size="14.00" fill="#000000"> </text>
</g>
<!-- prespace_17&#45;&gt;leaf_21 -->
<g id="edge21" class="edge">
<title>prespace_17&#45;&gt;leaf_21</title>
<path fill="none" stroke="#000000" stroke-dasharray="5,2" d="M586,-247.697C586,-206.3571 586,-105.5246 586,-56.0384"/>
<polygon fill="#000000" stroke="#000000" points="589.5001,-55.7395 586,-45.7395 582.5001,-55.7396 589.5001,-55.7395"/>
</g>
<!-- leaf_22 -->
<g id="node23" class="node">
<title>leaf_22</title>
<polygon fill="none" stroke="#c0c0c0" points="685,-45.7 631,-45.7 631,-9.7 685,-9.7 685,-45.7"/>
<text text-anchor="middle" x="658" y="-24.2" font-family="Inconsolata" font-size="14.00" fill="#000000">PEG</text>
</g>
<!-- literal_18&#45;&gt;leaf_22 -->
<g id="edge22" class="edge">
<title>literal_18&#45;&gt;leaf_22</title>
<path fill="none" stroke="#000000" stroke-dasharray="5,2" d="M680.1566,-247.697C675.9844,-206.2703 665.7953,-105.1006 660.8227,-55.7272"/>
<polygon fill="#000000" stroke="#000000" points="664.3014,-55.3384 659.8168,-45.7395 657.3366,-56.0399 664.3014,-55.3384"/>
</g>
<!-- leaf_23 -->
<g id="node24" class="node">
<title>leaf_23</title>
<polygon fill="none" stroke="#c0c0c0" points="859,-45.7 703,-45.7 703,-9.7 859,-9.7 859,-45.7"/>
<text text-anchor="middle" x="781" y="-24.2" font-family="Inconsolata" font-size="14.00" fill="#000000">s trees to the wall.</text>
</g>
<!-- raw_19&#45;&gt;leaf_23 -->
<g id="edge23" class="edge">
<title>raw_19&#45;&gt;leaf_23</title>
<path fill="none" stroke="#000000" stroke-dasharray="5,2" d="M759.7666,-247.697C763.765,-206.2703 773.5295,-105.1006 778.2949,-55.7272"/>
<polygon fill="#000000" stroke="#000000" points="781.7819,-56.0295 779.2589,-45.7395 774.8143,-55.357 781.7819,-56.0295"/>
</g>
<!-- leaf_25 -->
<g id="node26" class="node">
<title>leaf_25</title>
<polygon fill="none" stroke="#c0c0c0" points="931,-47.6021 877,-47.6021 877,-7.7979 931,-7.7979 931,-47.6021"/>
<text text-anchor="middle" x="904" y="-16.2" font-family="Inconsolata" font-size="14.00" fill="#000000">Heh.</text>
</g>
<!-- raw_24&#45;&gt;leaf_25 -->
<g id="edge25" class="edge">
<title>raw_24&#45;&gt;leaf_25</title>
<path fill="none" stroke="#000000" stroke-dasharray="5,2" d="M831.7255,-247.843C835.238,-215.4738 844.7579,-146.0687 866,-91.4 870.7368,-79.2094 877.6961,-66.6656 884.3689,-55.9675"/>
<polygon fill="#000000" stroke="#000000" points="887.3745,-57.7647 889.8516,-47.4635 881.4913,-53.9716 887.3745,-57.7647"/>
</g>
</g>
</svg>
