<?xml version="1.0" encoding="UTF-8" standalone="no"?>
<!DOCTYPE svg PUBLIC "-//W3C//DTD SVG 1.1//EN"
 "http://www.w3.org/Graphics/SVG/1.1/DTD/svg11.dtd">
<!-- Generated by graphviz version 2.40.1 (20161225.0304)
 -->
<!-- Title: lpegNode Pages: 1 -->
<svg width="1291pt" height="758pt"
 viewBox="0.00 0.00 1291.00 758.20" xmlns="http://www.w3.org/2000/svg" xmlns:xlink="http://www.w3.org/1999/xlink">
<g id="graph0" class="graph" transform="scale(1 1) rotate(0) translate(4 754.2007)">
<title>lpegNode</title>
<polygon fill="#ffffff" stroke="transparent" points="-4,4 -4,-754.2007 1287,-754.2007 1287,4 -4,4"/>
<!-- doc_0 -->
<g id="node1" class="node">
<title>doc_0</title>
<ellipse fill="none" stroke="#000000" cx="626" cy="-732.2007" rx="42.1216" ry="18"/>
<text text-anchor="middle" x="626" y="-728.0007" font-family="Helvetica,sans-Serif" font-size="14.00" fill="#000000">doc &#45; 38</text>
</g>
<!-- section_1 -->
<g id="node2" class="node">
<title>section_1</title>
<ellipse fill="none" stroke="#000000" cx="626" cy="-660.2007" rx="60.9826" ry="18"/>
<text text-anchor="middle" x="626" y="-656.0007" font-family="Helvetica,sans-Serif" font-size="14.00" fill="#000000">section: 1&#45;38</text>
</g>
<!-- doc_0&#45;&gt;section_1 -->
<g id="edge1" class="edge">
<title>doc_0&#45;&gt;section_1</title>
<path fill="none" stroke="#000000" stroke-dasharray="5,2" d="M626,-714.0321C626,-706.3317 626,-697.1751 626,-688.6174"/>
<polygon fill="#000000" stroke="#000000" points="629.5001,-688.6139 626,-678.614 622.5001,-688.614 629.5001,-688.6139"/>
</g>
<!-- header_2 -->
<g id="node3" class="node">
<title>header_2</title>
<ellipse fill="none" stroke="#000000" cx="146" cy="-588.2007" rx="54.1919" ry="18"/>
<text text-anchor="middle" x="146" y="-584.0007" font-family="Helvetica,sans-Serif" font-size="14.00" fill="#000000">1 : Espalier</text>
</g>
<!-- section_1&#45;&gt;header_2 -->
<g id="edge2" class="edge">
<title>section_1&#45;&gt;header_2</title>
<path fill="none" stroke="#000000" stroke-dasharray="5,2" d="M571.4052,-652.0115C480.7223,-638.4091 299.7448,-611.2624 205.7579,-597.1644"/>
<polygon fill="#000000" stroke="#000000" points="206.2477,-593.6988 195.8391,-595.6766 205.2092,-600.6213 206.2477,-593.6988"/>
</g>
<!-- prose_3 -->
<g id="node4" class="node">
<title>prose_3</title>
<ellipse fill="none" stroke="#000000" cx="336" cy="-588.2007" rx="32.4585" ry="18"/>
<text text-anchor="middle" x="336" y="-584.0007" font-family="Helvetica,sans-Serif" font-size="14.00" fill="#000000">prose</text>
</g>
<!-- section_1&#45;&gt;prose_3 -->
<g id="edge3" class="edge">
<title>section_1&#45;&gt;prose_3</title>
<path fill="none" stroke="#000000" stroke-dasharray="5,2" d="M579.4065,-648.6327C522.8502,-634.5911 428.4756,-611.1602 375.3847,-597.979"/>
<polygon fill="#000000" stroke="#000000" points="376.2041,-594.5762 365.6554,-595.5634 374.5173,-601.37 376.2041,-594.5762"/>
</g>
<!-- prose_4 -->
<g id="node5" class="node">
<title>prose_4</title>
<ellipse fill="none" stroke="#000000" cx="626" cy="-588.2007" rx="32.4585" ry="18"/>
<text text-anchor="middle" x="626" y="-584.0007" font-family="Helvetica,sans-Serif" font-size="14.00" fill="#000000">prose</text>
</g>
<!-- section_1&#45;&gt;prose_4 -->
<g id="edge4" class="edge">
<title>section_1&#45;&gt;prose_4</title>
<path fill="none" stroke="#000000" stroke-dasharray="5,2" d="M626,-642.0321C626,-634.3317 626,-625.1751 626,-616.6174"/>
<polygon fill="#000000" stroke="#000000" points="629.5001,-616.6139 626,-606.614 622.5001,-616.614 629.5001,-616.6139"/>
</g>
<!-- prose_5 -->
<g id="node6" class="node">
<title>prose_5</title>
<ellipse fill="none" stroke="#000000" cx="789" cy="-588.2007" rx="32.4585" ry="18"/>
<text text-anchor="middle" x="789" y="-584.0007" font-family="Helvetica,sans-Serif" font-size="14.00" fill="#000000">prose</text>
</g>
<!-- section_1&#45;&gt;prose_5 -->
<g id="edge5" class="edge">
<title>section_1&#45;&gt;prose_5</title>
<path fill="none" stroke="#000000" stroke-dasharray="5,2" d="M660.1701,-645.1072C687.8111,-632.8977 726.5672,-615.7784 754.3387,-603.5112"/>
<polygon fill="#000000" stroke="#000000" points="755.9344,-606.6327 763.6675,-599.3905 753.106,-600.2296 755.9344,-606.6327"/>
</g>
<!-- codeblock_6 -->
<g id="node7" class="node">
<title>codeblock_6</title>
<ellipse fill="none" stroke="#000000" cx="1015" cy="-588.2007" rx="72.5844" ry="18"/>
<text text-anchor="middle" x="1015" y="-584.0007" font-family="Helvetica,sans-Serif" font-size="14.00" fill="#000000">code block 9&#45;38</text>
</g>
<!-- section_1&#45;&gt;codeblock_6 -->
<g id="edge6" class="edge">
<title>section_1&#45;&gt;codeblock_6</title>
<path fill="none" stroke="#000000" stroke-dasharray="5,2" d="M677.6562,-650.6397C746.883,-637.8265 869.9153,-615.0544 946.7224,-600.8382"/>
<polygon fill="#000000" stroke="#000000" points="947.5832,-604.2384 956.7792,-598.9768 946.3092,-597.3553 947.5832,-604.2384"/>
</g>
<!-- leaf_7 -->
<g id="node8" class="node">
<title>leaf_7</title>
<polygon fill="none" stroke="#c0c0c0" points="104,-330.8004 18,-330.8004 18,-294.8004 104,-294.8004 104,-330.8004"/>
<text text-anchor="middle" x="61" y="-309.3004" font-family="Inconsolata" font-size="14.00" fill="#000000">* Espalier</text>
</g>
<!-- header_2&#45;&gt;leaf_7 -->
<g id="edge7" class="edge">
<title>header_2&#45;&gt;leaf_7</title>
<path fill="none" stroke="#000000" stroke-dasharray="5,2" d="M133.1812,-570.475C126.3347,-560.2883 118.2583,-547.0068 113,-534.2007 85.6945,-467.7007 70.9262,-383.8026 64.6737,-340.8911"/>
<polygon fill="#000000" stroke="#000000" points="68.1269,-340.3134 63.2651,-330.9 61.1955,-341.2907 68.1269,-340.3134"/>
</g>
<!-- raw_8 -->
<g id="node9" class="node">
<title>raw_8</title>
<ellipse fill="none" stroke="#000000" cx="149" cy="-312.8004" rx="27" ry="18"/>
<text text-anchor="middle" x="149" y="-308.6004" font-family="Helvetica,sans-Serif" font-size="14.00" fill="#000000">raw</text>
</g>
<!-- prose_3&#45;&gt;raw_8 -->
<g id="edge8" class="edge">
<title>prose_3&#45;&gt;raw_8</title>
<path fill="none" stroke="#000000" stroke-dasharray="5,2" d="M305.9058,-581.2751C266.541,-571.5971 200.7204,-553.0831 185,-534.2007 138.6352,-478.5101 140.653,-386.8018 145.2137,-340.8617"/>
<polygon fill="#000000" stroke="#000000" points="148.7129,-341.0622 146.336,-330.7374 141.7555,-340.2909 148.7129,-341.0622"/>
</g>
<!-- prespace_9 -->
<g id="node10" class="node">
<title>prespace_9</title>
<ellipse fill="none" stroke="#000000" cx="240" cy="-312.8004" rx="46.4736" ry="18"/>
<text text-anchor="middle" x="240" y="-308.6004" font-family="Helvetica,sans-Serif" font-size="14.00" fill="#000000">prespace</text>
</g>
<!-- prose_3&#45;&gt;prespace_9 -->
<g id="edge9" class="edge">
<title>prose_3&#45;&gt;prespace_9</title>
<path fill="none" stroke="#000000" stroke-dasharray="5,2" d="M321.19,-571.7937C312.7099,-561.6169 302.4965,-547.9059 296,-534.2007 265.0017,-468.8055 249.7381,-384.1084 243.5302,-340.8805"/>
<polygon fill="#000000" stroke="#000000" points="246.9763,-340.249 242.143,-330.8209 240.042,-341.2053 246.9763,-340.249"/>
</g>
<!-- literal_10 -->
<g id="node11" class="node">
<title>literal_10</title>
<ellipse fill="none" stroke="#000000" cx="336" cy="-312.8004" rx="31.481" ry="18"/>
<text text-anchor="middle" x="336" y="-308.6004" font-family="Helvetica,sans-Serif" font-size="14.00" fill="#000000">literal</text>
</g>
<!-- prose_3&#45;&gt;literal_10 -->
<g id="edge10" class="edge">
<title>prose_3&#45;&gt;literal_10</title>
<path fill="none" stroke="#000000" stroke-dasharray="5,2" d="M336,-570.1309C336,-523.2514 336,-397.4591 336,-340.9579"/>
<polygon fill="#000000" stroke="#000000" points="339.5001,-340.9367 336,-330.9367 332.5001,-340.9367 339.5001,-340.9367"/>
</g>
<!-- raw_11 -->
<g id="node12" class="node">
<title>raw_11</title>
<ellipse fill="none" stroke="#000000" cx="412" cy="-312.8004" rx="27" ry="18"/>
<text text-anchor="middle" x="412" y="-308.6004" font-family="Helvetica,sans-Serif" font-size="14.00" fill="#000000">raw</text>
</g>
<!-- prose_3&#45;&gt;raw_11 -->
<g id="edge11" class="edge">
<title>prose_3&#45;&gt;raw_11</title>
<path fill="none" stroke="#000000" stroke-dasharray="5,2" d="M351.2453,-571.9886C359.8797,-561.8809 370.1025,-548.1741 376,-534.2007 403.6394,-468.7124 410.1662,-384.055 411.6361,-340.8575"/>
<polygon fill="#000000" stroke="#000000" points="415.1362,-340.8972 411.9106,-330.8053 408.1388,-340.706 415.1362,-340.8972"/>
</g>
<!-- raw_16 -->
<g id="node17" class="node">
<title>raw_16</title>
<ellipse fill="none" stroke="#000000" cx="495" cy="-312.8004" rx="27" ry="18"/>
<text text-anchor="middle" x="495" y="-308.6004" font-family="Helvetica,sans-Serif" font-size="14.00" fill="#000000">raw</text>
</g>
<!-- prose_4&#45;&gt;raw_16 -->
<g id="edge16" class="edge">
<title>prose_4&#45;&gt;raw_16</title>
<path fill="none" stroke="#000000" stroke-dasharray="5,2" d="M597.657,-579.6214C575.8811,-571.5044 546.9201,-557.0979 531,-534.2007 489.9253,-475.1247 489.3884,-385.9942 492.27,-340.9656"/>
<polygon fill="#000000" stroke="#000000" points="495.777,-341.0015 493.0317,-330.7685 488.7964,-340.48 495.777,-341.0015"/>
</g>
<!-- prespace_17 -->
<g id="node18" class="node">
<title>prespace_17</title>
<ellipse fill="none" stroke="#000000" cx="586" cy="-312.8004" rx="46.4736" ry="18"/>
<text text-anchor="middle" x="586" y="-308.6004" font-family="Helvetica,sans-Serif" font-size="14.00" fill="#000000">prespace</text>
</g>
<!-- prose_4&#45;&gt;prespace_17 -->
<g id="edge17" class="edge">
<title>prose_4&#45;&gt;prespace_17</title>
<path fill="none" stroke="#000000" stroke-dasharray="5,2" d="M623.3755,-570.1309C616.5666,-523.2514 598.2961,-397.4591 590.0897,-340.9579"/>
<polygon fill="#000000" stroke="#000000" points="593.5353,-340.3298 588.6342,-330.9367 586.608,-341.336 593.5353,-340.3298"/>
</g>
<!-- literal_18 -->
<g id="node19" class="node">
<title>literal_18</title>
<ellipse fill="none" stroke="#000000" cx="682" cy="-312.8004" rx="31.481" ry="18"/>
<text text-anchor="middle" x="682" y="-308.6004" font-family="Helvetica,sans-Serif" font-size="14.00" fill="#000000">literal</text>
</g>
<!-- prose_4&#45;&gt;literal_18 -->
<g id="edge18" class="edge">
<title>prose_4&#45;&gt;literal_18</title>
<path fill="none" stroke="#000000" stroke-dasharray="5,2" d="M631.3975,-570.3018C634.4467,-559.8355 638.1967,-546.3355 641,-534.2007 656.905,-465.3511 670.791,-383.3437 677.579,-341.0882"/>
<polygon fill="#000000" stroke="#000000" points="681.0706,-341.418 679.187,-330.9919 674.1577,-340.3169 681.0706,-341.418"/>
</g>
<!-- raw_19 -->
<g id="node20" class="node">
<title>raw_19</title>
<ellipse fill="none" stroke="#000000" cx="758" cy="-312.8004" rx="27" ry="18"/>
<text text-anchor="middle" x="758" y="-308.6004" font-family="Helvetica,sans-Serif" font-size="14.00" fill="#000000">raw</text>
</g>
<!-- prose_4&#45;&gt;raw_19 -->
<g id="edge19" class="edge">
<title>prose_4&#45;&gt;raw_19</title>
<path fill="none" stroke="#000000" stroke-dasharray="5,2" d="M654.6354,-579.701C676.6372,-571.629 705.9013,-557.2443 722,-534.2007 763.2072,-475.217 763.6853,-386.0456 760.7608,-340.9871"/>
<polygon fill="#000000" stroke="#000000" points="764.2333,-340.4903 759.9889,-330.7829 757.2533,-341.0184 764.2333,-340.4903"/>
</g>
<!-- raw_24 -->
<g id="node25" class="node">
<title>raw_24</title>
<ellipse fill="none" stroke="#000000" cx="830" cy="-312.8004" rx="27" ry="18"/>
<text text-anchor="middle" x="830" y="-308.6004" font-family="Helvetica,sans-Serif" font-size="14.00" fill="#000000">raw</text>
</g>
<!-- prose_5&#45;&gt;raw_24 -->
<g id="edge24" class="edge">
<title>prose_5&#45;&gt;raw_24</title>
<path fill="none" stroke="#000000" stroke-dasharray="5,2" d="M791.6901,-570.1309C798.6693,-523.2514 817.3965,-397.4591 825.8081,-340.9579"/>
<polygon fill="#000000" stroke="#000000" points="829.2892,-341.3431 827.3,-330.9367 822.3655,-340.3123 829.2892,-341.3431"/>
</g>
<!-- leaf_26 -->
<g id="node27" class="node">
<title>leaf_26</title>
<polygon fill="none" stroke="#c0c0c0" points="1283,-534.1011 875,-534.1011 875,-91.4996 1283,-91.4996 1283,-534.1011"/>
<text text-anchor="middle" x="1079" y="-519.0007" font-family="Inconsolata" font-size="14.00" fill="#000000">local ss &#160;&#160;&#160;&#160;&#160;= require &quot;singletons&quot;</text>
<text text-anchor="middle" x="1079" y="-503.6007" font-family="Inconsolata" font-size="14.00" fill="#000000">local dot &#160;&#160;&#160;&#160;= require &quot;espalier/dot&quot;</text>
<text text-anchor="middle" x="1079" y="-488.2007" font-family="Inconsolata" font-size="14.00" fill="#000000">local elpatt &#160;= require &quot;espalier/elpatt&quot;</text>
<text text-anchor="middle" x="1079" y="-472.8006" font-family="Inconsolata" font-size="14.00" fill="#000000">local Node &#160;&#160;&#160;= require &quot;espalier/node&quot;</text>
<text text-anchor="middle" x="1079" y="-457.4006" font-family="Inconsolata" font-size="14.00" fill="#000000">&#45;&#45; local Spec &#160;&#160;&#160;= require &quot;espalier/spec&quot;</text>
<text text-anchor="middle" x="1079" y="-442.0006" font-family="Inconsolata" font-size="14.00" fill="#000000">local Grammar = require &quot;espalier/grammar&quot;</text>
<text text-anchor="middle" x="1079" y="-410.6005" font-family="Inconsolata" font-size="14.00" fill="#000000">local ortho8600 = require &quot;espalier/grammars/ortho&#45;8600&quot;</text>
<text text-anchor="middle" x="1079" y="-379.2005" font-family="Inconsolata" font-size="14.00" fill="#000000">local dot_grammar &#160;= require &quot;espalier/grammars/dot&quot;</text>
<text text-anchor="middle" x="1079" y="-347.8005" font-family="Inconsolata" font-size="14.00" fill="#000000">local lua_grammar &#160;= require &quot;espalier/grammars/lua&quot;</text>
<text text-anchor="middle" x="1079" y="-316.4004" font-family="Inconsolata" font-size="14.00" fill="#000000">local lexemes = require &quot;espalier/lexemes&quot;</text>
<text text-anchor="middle" x="1079" y="-285.0004" font-family="Inconsolata" font-size="14.00" fill="#000000">local grammars = { ortho8600 = ortho8600,</text>
<text text-anchor="middle" x="1079" y="-269.6004" font-family="Inconsolata" font-size="14.00" fill="#000000"> &#160;&#160;&#160;&#160;&#160;&#160;&#160;&#160;&#160;&#160;&#160;&#160;&#160;&#160;&#160;&#160;&#160;&#160;dot &#160;&#160;&#160;&#160;&#160;&#160;= dot_grammar,</text>
<text text-anchor="middle" x="1079" y="-254.2003" font-family="Inconsolata" font-size="14.00" fill="#000000"> &#160;&#160;&#160;&#160;&#160;&#160;&#160;&#160;&#160;&#160;&#160;&#160;&#160;&#160;&#160;&#160;&#160;&#160;lua &#160;&#160;&#160;&#160;&#160;&#160;= lua_grammar }</text>
<text text-anchor="middle" x="1079" y="-222.8003" font-family="Inconsolata" font-size="14.00" fill="#000000">return { dot &#160;&#160;&#160;&#160;&#160;= dot,</text>
<text text-anchor="middle" x="1079" y="-207.4003" font-family="Inconsolata" font-size="14.00" fill="#000000"> &#160;&#160;&#160;&#160;&#160;&#160;&#160;&#160;elpatt &#160;&#160;= elpatt,</text>
<text text-anchor="middle" x="1079" y="-192.0002" font-family="Inconsolata" font-size="14.00" fill="#000000"> &#160;&#160;&#160;&#160;&#160;&#160;&#160;&#160;node &#160;&#160;&#160;&#160;= Node,</text>
<text text-anchor="middle" x="1079" y="-176.6002" font-family="Inconsolata" font-size="14.00" fill="#000000"> &#160;&#160;&#160;&#160;&#160;&#160;&#160;&#160;lex &#160;&#160;&#160;&#160;&#160;= lexemes,</text>
<text text-anchor="middle" x="1079" y="-161.2002" font-family="Inconsolata" font-size="14.00" fill="#000000"> &#45;&#45; &#160;&#160;&#160;&#160;&#160;&#160;&#160;spec &#160;&#160;&#160;= Spec,</text>
<text text-anchor="middle" x="1079" y="-145.8002" font-family="Inconsolata" font-size="14.00" fill="#000000"> &#160;&#160;&#160;&#160;&#160;&#160;&#160;&#160;phrase &#160;&#160;= ss.Phrase,</text>
<text text-anchor="middle" x="1079" y="-130.4001" font-family="Inconsolata" font-size="14.00" fill="#000000"> &#160;&#160;&#160;&#160;&#160;&#160;&#160;&#160;grammar &#160;= Grammar,</text>
<text text-anchor="middle" x="1079" y="-115.0001" font-family="Inconsolata" font-size="14.00" fill="#000000"> &#160;&#160;&#160;&#160;&#160;&#160;&#160;&#160;grammars = grammars,</text>
<text text-anchor="middle" x="1079" y="-99.6001" font-family="Inconsolata" font-size="14.00" fill="#000000"> &#160;&#160;&#160;&#160;&#160;&#160;&#160;&#160;stator &#160;&#160;= ss.Stator }</text>
</g>
<!-- codeblock_6&#45;&gt;leaf_26 -->
<g id="edge26" class="edge">
<title>codeblock_6&#45;&gt;leaf_26</title>
<path fill="none" stroke="#000000" stroke-dasharray="5,2" d="M1019.1992,-570.1309C1020.8325,-563.1029 1022.8779,-554.3012 1025.2194,-544.2254"/>
<polygon fill="#000000" stroke="#000000" points="1028.6968,-544.7236 1027.5513,-534.1909 1021.8785,-543.139 1028.6968,-544.7236"/>
</g>
<!-- leaf_12 -->
<g id="node13" class="node">
<title>leaf_12</title>
<polygon fill="none" stroke="#c0c0c0" points="198,-55.6015 0,-55.6015 0,.2015 198,.2015 198,-55.6015"/>
<text text-anchor="middle" x="99" y="-8.2" font-family="Inconsolata" font-size="14.00" fill="#000000">This library is now called</text>
</g>
<!-- raw_8&#45;&gt;leaf_12 -->
<g id="edge12" class="edge">
<title>raw_8&#45;&gt;leaf_12</title>
<path fill="none" stroke="#000000" stroke-dasharray="5,2" d="M146.3969,-294.6606C140.8851,-256.7826 127.359,-166.5625 113,-91.4 111.3988,-83.0187 109.5272,-74.0519 107.683,-65.5706"/>
<polygon fill="#000000" stroke="#000000" points="111.0416,-64.5479 105.4672,-55.538 104.2063,-66.0576 111.0416,-64.5479"/>
</g>
<!-- leaf_13 -->
<g id="node14" class="node">
<title>leaf_13</title>
<polygon fill="none" stroke="#c0c0c0" points="270,-45.7 216,-45.7 216,-9.7 270,-9.7 270,-45.7"/>
<text text-anchor="middle" x="243" y="-24.2" font-family="Inconsolata" font-size="14.00" fill="#000000"> </text>
</g>
<!-- prespace_9&#45;&gt;leaf_13 -->
<g id="edge13" class="edge">
<title>prespace_9&#45;&gt;leaf_13</title>
<path fill="none" stroke="#000000" stroke-dasharray="5,2" d="M240.1922,-294.5324C240.7013,-246.1553 242.0872,-114.4474 242.7008,-56.1341"/>
<polygon fill="#000000" stroke="#000000" points="246.2039,-55.8522 242.8094,-45.8159 239.2043,-55.7785 246.2039,-55.8522"/>
</g>
<!-- leaf_14 -->
<g id="node15" class="node">
<title>leaf_14</title>
<polygon fill="none" stroke="#c0c0c0" points="365,-45.7 293,-45.7 293,-9.7 365,-9.7 365,-45.7"/>
<text text-anchor="middle" x="329" y="-24.2" font-family="Inconsolata" font-size="14.00" fill="#000000">espalier</text>
</g>
<!-- literal_10&#45;&gt;leaf_14 -->
<g id="edge14" class="edge">
<title>literal_10&#45;&gt;leaf_14</title>
<path fill="none" stroke="#000000" stroke-dasharray="5,2" d="M335.5515,-294.5324C334.3637,-246.1553 331.1299,-114.4474 329.6981,-56.1341"/>
<polygon fill="#000000" stroke="#000000" points="333.1893,-55.7269 329.4448,-45.8159 326.1914,-55.8988 333.1893,-55.7269"/>
</g>
<!-- leaf_15 -->
<g id="node16" class="node">
<title>leaf_15</title>
<polygon fill="none" stroke="#c0c0c0" points="437,-45.7 383,-45.7 383,-9.7 437,-9.7 437,-45.7"/>
<text text-anchor="middle" x="410" y="-24.2" font-family="Inconsolata" font-size="14.00" fill="#000000">.</text>
</g>
<!-- raw_11&#45;&gt;leaf_15 -->
<g id="edge15" class="edge">
<title>raw_11&#45;&gt;leaf_15</title>
<path fill="none" stroke="#000000" stroke-dasharray="5,2" d="M411.8718,-294.5324C411.5325,-246.1553 410.6085,-114.4474 410.1995,-56.1341"/>
<polygon fill="#000000" stroke="#000000" points="413.6972,-55.7911 410.1271,-45.8159 406.6974,-55.8402 413.6972,-55.7911"/>
</g>
<!-- leaf_20 -->
<g id="node21" class="node">
<title>leaf_20</title>
<polygon fill="none" stroke="#c0c0c0" points="541,-47.6021 455,-47.6021 455,-7.7979 541,-7.7979 541,-47.6021"/>
<text text-anchor="middle" x="498" y="-16.2" font-family="Inconsolata" font-size="14.00" fill="#000000">Because it</text>
</g>
<!-- raw_16&#45;&gt;leaf_20 -->
<g id="edge20" class="edge">
<title>raw_16&#45;&gt;leaf_20</title>
<path fill="none" stroke="#000000" stroke-dasharray="5,2" d="M495.1922,-294.5324C495.6963,-246.6332 497.0599,-117.0415 497.6824,-57.8836"/>
<polygon fill="#000000" stroke="#000000" points="501.1841,-57.7291 497.7896,-47.6928 494.1845,-57.6554 501.1841,-57.7291"/>
</g>
<!-- leaf_21 -->
<g id="node22" class="node">
<title>leaf_21</title>
<polygon fill="none" stroke="#c0c0c0" points="613,-45.7 559,-45.7 559,-9.7 613,-9.7 613,-45.7"/>
<text text-anchor="middle" x="586" y="-24.2" font-family="Inconsolata" font-size="14.00" fill="#000000"> </text>
</g>
<!-- prespace_17&#45;&gt;leaf_21 -->
<g id="edge21" class="edge">
<title>prespace_17&#45;&gt;leaf_21</title>
<path fill="none" stroke="#000000" stroke-dasharray="5,2" d="M586,-294.5324C586,-246.1553 586,-114.4474 586,-56.1341"/>
<polygon fill="#000000" stroke="#000000" points="589.5001,-55.8159 586,-45.8159 582.5001,-55.8159 589.5001,-55.8159"/>
</g>
<!-- leaf_22 -->
<g id="node23" class="node">
<title>leaf_22</title>
<polygon fill="none" stroke="#c0c0c0" points="685,-45.7 631,-45.7 631,-9.7 685,-9.7 685,-45.7"/>
<text text-anchor="middle" x="658" y="-24.2" font-family="Inconsolata" font-size="14.00" fill="#000000">PEG</text>
</g>
<!-- literal_18&#45;&gt;leaf_22 -->
<g id="edge22" class="edge">
<title>literal_18&#45;&gt;leaf_22</title>
<path fill="none" stroke="#000000" stroke-dasharray="5,2" d="M680.4622,-294.5324C676.3898,-246.1553 665.3025,-114.4474 660.3936,-56.1341"/>
<polygon fill="#000000" stroke="#000000" points="663.8516,-55.487 659.525,-45.8159 656.8763,-56.0743 663.8516,-55.487"/>
</g>
<!-- leaf_23 -->
<g id="node24" class="node">
<title>leaf_23</title>
<polygon fill="none" stroke="#c0c0c0" points="859,-45.7 703,-45.7 703,-9.7 859,-9.7 859,-45.7"/>
<text text-anchor="middle" x="781" y="-24.2" font-family="Inconsolata" font-size="14.00" fill="#000000">s trees to the wall.</text>
</g>
<!-- raw_19&#45;&gt;leaf_23 -->
<g id="edge23" class="edge">
<title>raw_19&#45;&gt;leaf_23</title>
<path fill="none" stroke="#000000" stroke-dasharray="5,2" d="M759.4737,-294.5324C763.3765,-246.1553 774.0018,-114.4474 778.7061,-56.1341"/>
<polygon fill="#000000" stroke="#000000" points="782.223,-56.065 779.5385,-45.8159 775.2457,-55.502 782.223,-56.065"/>
</g>
<!-- leaf_25 -->
<g id="node26" class="node">
<title>leaf_25</title>
<polygon fill="none" stroke="#c0c0c0" points="931,-47.6021 877,-47.6021 877,-7.7979 931,-7.7979 931,-47.6021"/>
<text text-anchor="middle" x="904" y="-16.2" font-family="Inconsolata" font-size="14.00" fill="#000000">Heh.</text>
</g>
<!-- raw_24&#45;&gt;leaf_25 -->
<g id="edge25" class="edge">
<title>raw_24&#45;&gt;leaf_25</title>
<path fill="none" stroke="#000000" stroke-dasharray="5,2" d="M830.6543,-294.7203C832.5355,-256.2002 839.661,-163.6606 866,-91.4 870.4444,-79.2068 877.2788,-66.7417 883.9326,-56.1084"/>
<polygon fill="#000000" stroke="#000000" points="886.9121,-57.9466 889.4229,-47.6535 881.0413,-54.1343 886.9121,-57.9466"/>
</g>
</g>
</svg>
