<?xml version="1.0" encoding="UTF-8" standalone="no"?>
<!DOCTYPE svg PUBLIC "-//W3C//DTD SVG 1.1//EN"
 "http://www.w3.org/Graphics/SVG/1.1/DTD/svg11.dtd">
<!-- Generated by graphviz version 2.40.1 (20161225.0304)
 -->
<!-- Title: lpegNode Pages: 1 -->
<svg width="939pt" height="351pt"
 viewBox="0.00 0.00 939.00 351.40" xmlns="http://www.w3.org/2000/svg" xmlns:xlink="http://www.w3.org/1999/xlink">
<g id="graph0" class="graph" transform="scale(1 1) rotate(0) translate(4 347.4)">
<title>lpegNode</title>
<polygon fill="#ffffff" stroke="transparent" points="-4,4 -4,-347.4 935,-347.4 935,4 -4,4"/>
<!-- doc_0 -->
<g id="node1" class="node">
<title>doc_0</title>
<ellipse fill="none" stroke="#000000" cx="460" cy="-325.4" rx="37.2854" ry="18"/>
<text text-anchor="middle" x="460" y="-321.2" font-family="Helvetica,sans-Serif" font-size="14.00" fill="#000000">doc &#45; 7</text>
</g>
<!-- section_1 -->
<g id="node2" class="node">
<title>section_1</title>
<ellipse fill="none" stroke="#000000" cx="460" cy="-253.4" rx="55.6456" ry="18"/>
<text text-anchor="middle" x="460" y="-249.2" font-family="Helvetica,sans-Serif" font-size="14.00" fill="#000000">section: 1&#45;7</text>
</g>
<!-- doc_0&#45;&gt;section_1 -->
<g id="edge1" class="edge">
<title>doc_0&#45;&gt;section_1</title>
<path fill="none" stroke="#000000" stroke-dasharray="5,2" d="M460,-307.2314C460,-299.531 460,-290.3744 460,-281.8167"/>
<polygon fill="#000000" stroke="#000000" points="463.5001,-281.8133 460,-271.8133 456.5001,-281.8133 463.5001,-281.8133"/>
</g>
<!-- header_2 -->
<g id="node3" class="node">
<title>header_2</title>
<ellipse fill="none" stroke="#000000" cx="147" cy="-181.4" rx="54.1919" ry="18"/>
<text text-anchor="middle" x="147" y="-177.2" font-family="Helvetica,sans-Serif" font-size="14.00" fill="#000000">1 : Espalier</text>
</g>
<!-- section_1&#45;&gt;header_2 -->
<g id="edge2" class="edge">
<title>section_1&#45;&gt;header_2</title>
<path fill="none" stroke="#000000" stroke-dasharray="5,2" d="M414.4871,-242.9306C358.1494,-229.9711 262.2771,-207.9174 201.9124,-194.0316"/>
<polygon fill="#000000" stroke="#000000" points="202.337,-190.538 191.8069,-191.7071 200.7678,-197.3598 202.337,-190.538"/>
</g>
<!-- prose_3 -->
<g id="node4" class="node">
<title>prose_3</title>
<ellipse fill="none" stroke="#000000" cx="337" cy="-181.4" rx="32.4585" ry="18"/>
<text text-anchor="middle" x="337" y="-177.2" font-family="Helvetica,sans-Serif" font-size="14.00" fill="#000000">prose</text>
</g>
<!-- section_1&#45;&gt;prose_3 -->
<g id="edge3" class="edge">
<title>section_1&#45;&gt;prose_3</title>
<path fill="none" stroke="#000000" stroke-dasharray="5,2" d="M433.0071,-237.5993C413.8738,-226.3993 388.1521,-211.3427 368.1481,-199.6331"/>
<polygon fill="#000000" stroke="#000000" points="369.802,-196.5457 359.4037,-194.5144 366.2657,-202.5868 369.802,-196.5457"/>
</g>
<!-- prose_4 -->
<g id="node5" class="node">
<title>prose_4</title>
<ellipse fill="none" stroke="#000000" cx="586" cy="-181.4" rx="32.4585" ry="18"/>
<text text-anchor="middle" x="586" y="-177.2" font-family="Helvetica,sans-Serif" font-size="14.00" fill="#000000">prose</text>
</g>
<!-- section_1&#45;&gt;prose_4 -->
<g id="edge4" class="edge">
<title>section_1&#45;&gt;prose_4</title>
<path fill="none" stroke="#000000" stroke-dasharray="5,2" d="M487.6512,-237.5993C507.4657,-226.2767 534.1779,-211.0127 554.7628,-199.2499"/>
<polygon fill="#000000" stroke="#000000" points="556.5107,-202.2822 563.4567,-194.2819 553.0377,-196.2045 556.5107,-202.2822"/>
</g>
<!-- prose_5 -->
<g id="node6" class="node">
<title>prose_5</title>
<ellipse fill="none" stroke="#000000" cx="786" cy="-181.4" rx="32.4585" ry="18"/>
<text text-anchor="middle" x="786" y="-177.2" font-family="Helvetica,sans-Serif" font-size="14.00" fill="#000000">prose</text>
</g>
<!-- section_1&#45;&gt;prose_5 -->
<g id="edge5" class="edge">
<title>section_1&#45;&gt;prose_5</title>
<path fill="none" stroke="#000000" stroke-dasharray="5,2" d="M506.3616,-243.1607C570.5046,-228.9941 685.2518,-203.6512 745.8956,-190.2574"/>
<polygon fill="#000000" stroke="#000000" points="746.8472,-193.6317 755.857,-188.0574 745.3375,-186.7964 746.8472,-193.6317"/>
</g>
<!-- leaf_6 -->
<g id="node7" class="node">
<title>leaf_6</title>
<polygon fill="none" stroke="#c0c0c0" points="105,-127.4 19,-127.4 19,-91.4 105,-91.4 105,-127.4"/>
<text text-anchor="middle" x="62" y="-105.9" font-family="Inconsolata" font-size="14.00" fill="#000000">* Espalier</text>
</g>
<!-- header_2&#45;&gt;leaf_6 -->
<g id="edge6" class="edge">
<title>header_2&#45;&gt;leaf_6</title>
<path fill="none" stroke="#000000" stroke-dasharray="5,2" d="M126.8562,-164.337C116.2459,-155.3495 103.0369,-144.1607 91.3137,-134.2304"/>
<polygon fill="#000000" stroke="#000000" points="93.3778,-131.392 83.4851,-127.5992 88.8534,-136.7333 93.3778,-131.392"/>
</g>
<!-- raw_7 -->
<g id="node8" class="node">
<title>raw_7</title>
<ellipse fill="none" stroke="#000000" cx="150" cy="-109.4" rx="27" ry="18"/>
<text text-anchor="middle" x="150" y="-105.2" font-family="Helvetica,sans-Serif" font-size="14.00" fill="#000000">raw</text>
</g>
<!-- prose_3&#45;&gt;raw_7 -->
<g id="edge7" class="edge">
<title>prose_3&#45;&gt;raw_7</title>
<path fill="none" stroke="#000000" stroke-dasharray="5,2" d="M308.7815,-172.4372C278.1521,-162.4486 227.9919,-145.3297 186,-127.4 184.2167,-126.6386 182.3969,-125.8307 180.5697,-124.9954"/>
<polygon fill="#000000" stroke="#000000" points="182.0375,-121.8178 171.504,-120.6786 179.028,-128.1379 182.0375,-121.8178"/>
</g>
<!-- prespace_8 -->
<g id="node9" class="node">
<title>prespace_8</title>
<ellipse fill="none" stroke="#000000" cx="241" cy="-109.4" rx="46.4736" ry="18"/>
<text text-anchor="middle" x="241" y="-105.2" font-family="Helvetica,sans-Serif" font-size="14.00" fill="#000000">prespace</text>
</g>
<!-- prose_3&#45;&gt;prespace_8 -->
<g id="edge8" class="edge">
<title>prose_3&#45;&gt;prespace_8</title>
<path fill="none" stroke="#000000" stroke-dasharray="5,2" d="M317.573,-166.8298C304.0746,-156.706 285.8362,-143.0272 270.5453,-131.559"/>
<polygon fill="#000000" stroke="#000000" points="272.5024,-128.6519 262.4024,-125.4518 268.3024,-134.2519 272.5024,-128.6519"/>
</g>
<!-- literal_9 -->
<g id="node10" class="node">
<title>literal_9</title>
<ellipse fill="none" stroke="#000000" cx="337" cy="-109.4" rx="31.481" ry="18"/>
<text text-anchor="middle" x="337" y="-105.2" font-family="Helvetica,sans-Serif" font-size="14.00" fill="#000000">literal</text>
</g>
<!-- prose_3&#45;&gt;literal_9 -->
<g id="edge9" class="edge">
<title>prose_3&#45;&gt;literal_9</title>
<path fill="none" stroke="#000000" stroke-dasharray="5,2" d="M337,-163.2314C337,-155.531 337,-146.3744 337,-137.8167"/>
<polygon fill="#000000" stroke="#000000" points="340.5001,-137.8133 337,-127.8133 333.5001,-137.8133 340.5001,-137.8133"/>
</g>
<!-- raw_10 -->
<g id="node11" class="node">
<title>raw_10</title>
<ellipse fill="none" stroke="#000000" cx="413" cy="-109.4" rx="27" ry="18"/>
<text text-anchor="middle" x="413" y="-105.2" font-family="Helvetica,sans-Serif" font-size="14.00" fill="#000000">raw</text>
</g>
<!-- prose_3&#45;&gt;raw_10 -->
<g id="edge10" class="edge">
<title>prose_3&#45;&gt;raw_10</title>
<path fill="none" stroke="#000000" stroke-dasharray="5,2" d="M353.4909,-165.7771C364.1629,-155.6668 378.2097,-142.3593 389.976,-131.2122"/>
<polygon fill="#000000" stroke="#000000" points="392.468,-133.6727 397.3204,-124.2543 387.6538,-128.591 392.468,-133.6727"/>
</g>
<!-- raw_15 -->
<g id="node16" class="node">
<title>raw_15</title>
<ellipse fill="none" stroke="#000000" cx="495" cy="-109.4" rx="27" ry="18"/>
<text text-anchor="middle" x="495" y="-105.2" font-family="Helvetica,sans-Serif" font-size="14.00" fill="#000000">raw</text>
</g>
<!-- prose_4&#45;&gt;raw_15 -->
<g id="edge15" class="edge">
<title>prose_4&#45;&gt;raw_15</title>
<path fill="none" stroke="#000000" stroke-dasharray="5,2" d="M567.1447,-166.4816C553.741,-155.8765 535.5742,-141.5027 520.8242,-129.8324"/>
<polygon fill="#000000" stroke="#000000" points="522.6102,-126.7824 512.5963,-123.3224 518.2668,-132.272 522.6102,-126.7824"/>
</g>
<!-- prespace_16 -->
<g id="node17" class="node">
<title>prespace_16</title>
<ellipse fill="none" stroke="#000000" cx="586" cy="-109.4" rx="46.4736" ry="18"/>
<text text-anchor="middle" x="586" y="-105.2" font-family="Helvetica,sans-Serif" font-size="14.00" fill="#000000">prespace</text>
</g>
<!-- prose_4&#45;&gt;prespace_16 -->
<g id="edge16" class="edge">
<title>prose_4&#45;&gt;prespace_16</title>
<path fill="none" stroke="#000000" stroke-dasharray="5,2" d="M586,-163.2314C586,-155.531 586,-146.3744 586,-137.8167"/>
<polygon fill="#000000" stroke="#000000" points="589.5001,-137.8133 586,-127.8133 582.5001,-137.8133 589.5001,-137.8133"/>
</g>
<!-- literal_17 -->
<g id="node18" class="node">
<title>literal_17</title>
<ellipse fill="none" stroke="#000000" cx="682" cy="-109.4" rx="31.481" ry="18"/>
<text text-anchor="middle" x="682" y="-105.2" font-family="Helvetica,sans-Serif" font-size="14.00" fill="#000000">literal</text>
</g>
<!-- prose_4&#45;&gt;literal_17 -->
<g id="edge17" class="edge">
<title>prose_4&#45;&gt;literal_17</title>
<path fill="none" stroke="#000000" stroke-dasharray="5,2" d="M605.427,-166.8298C619.5726,-156.2206 638.9235,-141.7074 654.6329,-129.9254"/>
<polygon fill="#000000" stroke="#000000" points="657.0295,-132.503 662.9295,-123.7029 652.8294,-126.903 657.0295,-132.503"/>
</g>
<!-- raw_18 -->
<g id="node19" class="node">
<title>raw_18</title>
<ellipse fill="none" stroke="#000000" cx="770" cy="-109.4" rx="27" ry="18"/>
<text text-anchor="middle" x="770" y="-105.2" font-family="Helvetica,sans-Serif" font-size="14.00" fill="#000000">raw</text>
</g>
<!-- prose_4&#45;&gt;raw_18 -->
<g id="edge18" class="edge">
<title>prose_4&#45;&gt;raw_18</title>
<path fill="none" stroke="#000000" stroke-dasharray="5,2" d="M612.7552,-170.9306C645.7356,-158.0252 701.7633,-136.1014 737.2739,-122.2059"/>
<polygon fill="#000000" stroke="#000000" points="738.6724,-125.4172 746.7094,-118.5137 736.1215,-118.8985 738.6724,-125.4172"/>
</g>
<!-- raw_23 -->
<g id="node24" class="node">
<title>raw_23</title>
<ellipse fill="none" stroke="#000000" cx="879" cy="-109.4" rx="27" ry="18"/>
<text text-anchor="middle" x="879" y="-105.2" font-family="Helvetica,sans-Serif" font-size="14.00" fill="#000000">raw</text>
</g>
<!-- prose_5&#45;&gt;raw_23 -->
<g id="edge23" class="edge">
<title>prose_5&#45;&gt;raw_23</title>
<path fill="none" stroke="#000000" stroke-dasharray="5,2" d="M805.2697,-166.4816C819.1857,-155.7078 838.1257,-141.0447 853.3246,-129.2778"/>
<polygon fill="#000000" stroke="#000000" points="855.5633,-131.971 861.3279,-123.0816 851.278,-126.4359 855.5633,-131.971"/>
</g>
<!-- leaf_11 -->
<g id="node12" class="node">
<title>leaf_11</title>
<polygon fill="none" stroke="#c0c0c0" points="198,-55.6015 0,-55.6015 0,.2015 198,.2015 198,-55.6015"/>
<text text-anchor="middle" x="99" y="-8.2" font-family="Inconsolata" font-size="14.00" fill="#000000">This library is now called</text>
</g>
<!-- raw_7&#45;&gt;leaf_11 -->
<g id="edge11" class="edge">
<title>raw_7&#45;&gt;leaf_11</title>
<path fill="none" stroke="#000000" stroke-dasharray="5,2" d="M139.4328,-92.4717C134.2877,-84.2296 127.8904,-73.9814 121.7138,-64.0867"/>
<polygon fill="#000000" stroke="#000000" points="124.6441,-62.1712 116.3797,-55.5417 118.7061,-65.8779 124.6441,-62.1712"/>
</g>
<!-- leaf_12 -->
<g id="node13" class="node">
<title>leaf_12</title>
<polygon fill="none" stroke="#c0c0c0" points="270,-45.7 216,-45.7 216,-9.7 270,-9.7 270,-45.7"/>
<text text-anchor="middle" x="243" y="-24.2" font-family="Inconsolata" font-size="14.00" fill="#000000"> </text>
</g>
<!-- prespace_8&#45;&gt;leaf_12 -->
<g id="edge12" class="edge">
<title>prespace_8&#45;&gt;leaf_12</title>
<path fill="none" stroke="#000000" stroke-dasharray="5,2" d="M241.4439,-91.2681C241.6976,-80.9023 242.0214,-67.6748 242.3079,-55.973"/>
<polygon fill="#000000" stroke="#000000" points="245.8115,-55.8639 242.5574,-45.7812 238.8136,-55.6925 245.8115,-55.8639"/>
</g>
<!-- leaf_13 -->
<g id="node14" class="node">
<title>leaf_13</title>
<polygon fill="none" stroke="#c0c0c0" points="365,-45.7 293,-45.7 293,-9.7 365,-9.7 365,-45.7"/>
<text text-anchor="middle" x="329" y="-24.2" font-family="Inconsolata" font-size="14.00" fill="#000000">espalier</text>
</g>
<!-- literal_9&#45;&gt;leaf_13 -->
<g id="edge13" class="edge">
<title>literal_9&#45;&gt;leaf_13</title>
<path fill="none" stroke="#000000" stroke-dasharray="5,2" d="M335.2245,-91.2681C334.2095,-80.9023 332.9143,-67.6748 331.7685,-55.973"/>
<polygon fill="#000000" stroke="#000000" points="335.2285,-55.3925 330.7705,-45.7812 328.2618,-56.0747 335.2285,-55.3925"/>
</g>
<!-- leaf_14 -->
<g id="node15" class="node">
<title>leaf_14</title>
<polygon fill="none" stroke="#c0c0c0" points="437,-45.7 383,-45.7 383,-9.7 437,-9.7 437,-45.7"/>
<text text-anchor="middle" x="410" y="-24.2" font-family="Inconsolata" font-size="14.00" fill="#000000">.</text>
</g>
<!-- raw_10&#45;&gt;leaf_14 -->
<g id="edge14" class="edge">
<title>raw_10&#45;&gt;leaf_14</title>
<path fill="none" stroke="#000000" stroke-dasharray="5,2" d="M412.3342,-91.2681C411.9536,-80.9023 411.4679,-67.6748 411.0382,-55.973"/>
<polygon fill="#000000" stroke="#000000" points="414.5286,-55.646 410.6639,-45.7812 407.5333,-55.9029 414.5286,-55.646"/>
</g>
<!-- leaf_19 -->
<g id="node20" class="node">
<title>leaf_19</title>
<polygon fill="none" stroke="#c0c0c0" points="541,-47.6021 455,-47.6021 455,-7.7979 541,-7.7979 541,-47.6021"/>
<text text-anchor="middle" x="498" y="-16.2" font-family="Inconsolata" font-size="14.00" fill="#000000">Because it</text>
</g>
<!-- raw_15&#45;&gt;leaf_19 -->
<g id="edge19" class="edge">
<title>raw_15&#45;&gt;leaf_19</title>
<path fill="none" stroke="#000000" stroke-dasharray="5,2" d="M495.6658,-91.2681C496.0268,-81.4356 496.4824,-69.0282 496.8951,-57.7905"/>
<polygon fill="#000000" stroke="#000000" points="500.4037,-57.6186 497.2731,-47.4969 493.4084,-57.3617 500.4037,-57.6186"/>
</g>
<!-- leaf_20 -->
<g id="node21" class="node">
<title>leaf_20</title>
<polygon fill="none" stroke="#c0c0c0" points="613,-45.7 559,-45.7 559,-9.7 613,-9.7 613,-45.7"/>
<text text-anchor="middle" x="586" y="-24.2" font-family="Inconsolata" font-size="14.00" fill="#000000"> </text>
</g>
<!-- prespace_16&#45;&gt;leaf_20 -->
<g id="edge20" class="edge">
<title>prespace_16&#45;&gt;leaf_20</title>
<path fill="none" stroke="#000000" stroke-dasharray="5,2" d="M586,-91.2681C586,-80.9023 586,-67.6748 586,-55.973"/>
<polygon fill="#000000" stroke="#000000" points="589.5001,-55.7812 586,-45.7812 582.5001,-55.7812 589.5001,-55.7812"/>
</g>
<!-- leaf_21 -->
<g id="node22" class="node">
<title>leaf_21</title>
<polygon fill="none" stroke="#c0c0c0" points="685,-45.7 631,-45.7 631,-9.7 685,-9.7 685,-45.7"/>
<text text-anchor="middle" x="658" y="-24.2" font-family="Inconsolata" font-size="14.00" fill="#000000">PEG</text>
</g>
<!-- literal_17&#45;&gt;leaf_21 -->
<g id="edge21" class="edge">
<title>literal_17&#45;&gt;leaf_21</title>
<path fill="none" stroke="#000000" stroke-dasharray="5,2" d="M676.6736,-91.2681C673.5975,-80.7965 669.6635,-67.4045 666.2003,-55.6152"/>
<polygon fill="#000000" stroke="#000000" points="669.4882,-54.3893 663.3115,-45.7812 662.7719,-56.3623 669.4882,-54.3893"/>
</g>
<!-- leaf_22 -->
<g id="node23" class="node">
<title>leaf_22</title>
<polygon fill="none" stroke="#c0c0c0" points="859,-45.7 703,-45.7 703,-9.7 859,-9.7 859,-45.7"/>
<text text-anchor="middle" x="781" y="-24.2" font-family="Inconsolata" font-size="14.00" fill="#000000">s trees to the wall.</text>
</g>
<!-- raw_18&#45;&gt;leaf_22 -->
<g id="edge22" class="edge">
<title>raw_18&#45;&gt;leaf_22</title>
<path fill="none" stroke="#000000" stroke-dasharray="5,2" d="M772.4413,-91.2681C773.8369,-80.9023 775.6178,-67.6748 777.1934,-55.973"/>
<polygon fill="#000000" stroke="#000000" points="780.6998,-56.1588 778.5656,-45.7812 773.7624,-55.2247 780.6998,-56.1588"/>
</g>
<!-- leaf_24 -->
<g id="node25" class="node">
<title>leaf_24</title>
<polygon fill="none" stroke="#c0c0c0" points="931,-47.6021 877,-47.6021 877,-7.7979 931,-7.7979 931,-47.6021"/>
<text text-anchor="middle" x="904" y="-16.2" font-family="Inconsolata" font-size="14.00" fill="#000000">Heh.</text>
</g>
<!-- raw_23&#45;&gt;leaf_24 -->
<g id="edge24" class="edge">
<title>raw_23&#45;&gt;leaf_24</title>
<path fill="none" stroke="#000000" stroke-dasharray="5,2" d="M884.4246,-91.6723C887.4902,-81.6541 891.4023,-68.8692 894.9222,-57.3663"/>
<polygon fill="#000000" stroke="#000000" points="898.304,-58.2758 897.8833,-47.6894 891.6104,-56.2276 898.304,-58.2758"/>
</g>
</g>
</svg>
