<?xml version="1.0" encoding="UTF-8" standalone="no"?>
<!DOCTYPE svg PUBLIC "-//W3C//DTD SVG 1.1//EN"
 "http://www.w3.org/Graphics/SVG/1.1/DTD/svg11.dtd">
<!-- Generated by graphviz version 2.40.1 (20161225.0304)
 -->
<!-- Title: lpegNode Pages: 1 -->
<svg width="1193pt" height="555pt"
 viewBox="0.00 0.00 1193.00 555.00" xmlns="http://www.w3.org/2000/svg" xmlns:xlink="http://www.w3.org/1999/xlink">
<g id="graph0" class="graph" transform="scale(1 1) rotate(0) translate(4 551.0005)">
<title>lpegNode</title>
<polygon fill="#ffffff" stroke="transparent" points="-4,4 -4,-551.0005 1189,-551.0005 1189,4 -4,4"/>
<!-- doc_0 -->
<g id="node1" class="node">
<title>doc_0</title>
<ellipse fill="none" stroke="#000000" cx="625" cy="-529.0005" rx="42.1216" ry="18"/>
<text text-anchor="middle" x="625" y="-524.8005" font-family="Helvetica,sans-Serif" font-size="14.00" fill="#000000">doc &#45; 25</text>
</g>
<!-- section_1 -->
<g id="node2" class="node">
<title>section_1</title>
<ellipse fill="none" stroke="#000000" cx="625" cy="-457.0005" rx="60.9826" ry="18"/>
<text text-anchor="middle" x="625" y="-452.8005" font-family="Helvetica,sans-Serif" font-size="14.00" fill="#000000">section: 1&#45;25</text>
</g>
<!-- doc_0&#45;&gt;section_1 -->
<g id="edge1" class="edge">
<title>doc_0&#45;&gt;section_1</title>
<path fill="none" stroke="#000000" stroke-dasharray="5,2" d="M625,-510.8318C625,-503.1314 625,-493.9748 625,-485.4171"/>
<polygon fill="#000000" stroke="#000000" points="628.5001,-485.4137 625,-475.4137 621.5001,-485.4138 628.5001,-485.4137"/>
</g>
<!-- header_2 -->
<g id="node3" class="node">
<title>header_2</title>
<ellipse fill="none" stroke="#000000" cx="146" cy="-385.0005" rx="54.1919" ry="18"/>
<text text-anchor="middle" x="146" y="-380.8005" font-family="Helvetica,sans-Serif" font-size="14.00" fill="#000000">1 : Espalier</text>
</g>
<!-- section_1&#45;&gt;header_2 -->
<g id="edge2" class="edge">
<title>section_1&#45;&gt;header_2</title>
<path fill="none" stroke="#000000" stroke-dasharray="5,2" d="M570.519,-448.8113C480.025,-435.2088 299.4245,-408.0622 205.6334,-393.9642"/>
<polygon fill="#000000" stroke="#000000" points="206.1444,-390.5017 195.7352,-392.4763 205.1039,-397.424 206.1444,-390.5017"/>
</g>
<!-- prose_3 -->
<g id="node4" class="node">
<title>prose_3</title>
<ellipse fill="none" stroke="#000000" cx="336" cy="-385.0005" rx="32.4585" ry="18"/>
<text text-anchor="middle" x="336" y="-380.8005" font-family="Helvetica,sans-Serif" font-size="14.00" fill="#000000">prose</text>
</g>
<!-- section_1&#45;&gt;prose_3 -->
<g id="edge3" class="edge">
<title>section_1&#45;&gt;prose_3</title>
<path fill="none" stroke="#000000" stroke-dasharray="5,2" d="M578.246,-445.3524C521.9332,-431.3229 428.3359,-408.0046 375.4854,-394.8377"/>
<polygon fill="#000000" stroke="#000000" points="376.0312,-391.3667 365.4817,-392.3454 374.3389,-398.1591 376.0312,-391.3667"/>
</g>
<!-- prose_4 -->
<g id="node5" class="node">
<title>prose_4</title>
<ellipse fill="none" stroke="#000000" cx="625" cy="-385.0005" rx="32.4585" ry="18"/>
<text text-anchor="middle" x="625" y="-380.8005" font-family="Helvetica,sans-Serif" font-size="14.00" fill="#000000">prose</text>
</g>
<!-- section_1&#45;&gt;prose_4 -->
<g id="edge4" class="edge">
<title>section_1&#45;&gt;prose_4</title>
<path fill="none" stroke="#000000" stroke-dasharray="5,2" d="M625,-438.8318C625,-431.1314 625,-421.9748 625,-413.4171"/>
<polygon fill="#000000" stroke="#000000" points="628.5001,-413.4137 625,-403.4137 621.5001,-413.4138 628.5001,-413.4137"/>
</g>
<!-- prose_5 -->
<g id="node6" class="node">
<title>prose_5</title>
<ellipse fill="none" stroke="#000000" cx="788" cy="-385.0005" rx="32.4585" ry="18"/>
<text text-anchor="middle" x="788" y="-380.8005" font-family="Helvetica,sans-Serif" font-size="14.00" fill="#000000">prose</text>
</g>
<!-- section_1&#45;&gt;prose_5 -->
<g id="edge5" class="edge">
<title>section_1&#45;&gt;prose_5</title>
<path fill="none" stroke="#000000" stroke-dasharray="5,2" d="M659.1701,-441.9069C686.8111,-429.6974 725.5672,-412.5781 753.3387,-400.311"/>
<polygon fill="#000000" stroke="#000000" points="754.9344,-403.4325 762.6675,-396.1903 752.106,-397.0293 754.9344,-403.4325"/>
</g>
<!-- codeblock_6 -->
<g id="node7" class="node">
<title>codeblock_6</title>
<ellipse fill="none" stroke="#000000" cx="990" cy="-385.0005" rx="72.5844" ry="18"/>
<text text-anchor="middle" x="990" y="-380.8005" font-family="Helvetica,sans-Serif" font-size="14.00" fill="#000000">code block 9&#45;25</text>
</g>
<!-- section_1&#45;&gt;codeblock_6 -->
<g id="edge6" class="edge">
<title>section_1&#45;&gt;codeblock_6</title>
<path fill="none" stroke="#000000" stroke-dasharray="5,2" d="M675.7517,-446.9892C740.1635,-434.2833 851.459,-412.3291 922.8485,-398.2468"/>
<polygon fill="#000000" stroke="#000000" points="923.9479,-401.5974 933.0815,-396.2282 922.5932,-394.7298 923.9479,-401.5974"/>
</g>
<!-- leaf_7 -->
<g id="node8" class="node">
<title>leaf_7</title>
<polygon fill="none" stroke="#c0c0c0" points="104,-229.2002 18,-229.2002 18,-193.2002 104,-193.2002 104,-229.2002"/>
<text text-anchor="middle" x="61" y="-207.7003" font-family="Inconsolata" font-size="14.00" fill="#000000">* Espalier</text>
</g>
<!-- header_2&#45;&gt;leaf_7 -->
<g id="edge7" class="edge">
<title>header_2&#45;&gt;leaf_7</title>
<path fill="none" stroke="#000000" stroke-dasharray="5,2" d="M134.3616,-367.3608C127.7321,-356.9809 119.4821,-343.4809 113,-331.0005 97.0178,-300.229 81.5736,-263.4696 71.7281,-238.8578"/>
<polygon fill="#000000" stroke="#000000" points="74.9279,-237.4319 67.9907,-229.4241 68.42,-240.0102 74.9279,-237.4319"/>
</g>
<!-- raw_8 -->
<g id="node9" class="node">
<title>raw_8</title>
<ellipse fill="none" stroke="#000000" cx="149" cy="-211.2002" rx="27" ry="18"/>
<text text-anchor="middle" x="149" y="-207.0002" font-family="Helvetica,sans-Serif" font-size="14.00" fill="#000000">raw</text>
</g>
<!-- prose_3&#45;&gt;raw_8 -->
<g id="edge8" class="edge">
<title>prose_3&#45;&gt;raw_8</title>
<path fill="none" stroke="#000000" stroke-dasharray="5,2" d="M304.0062,-381.9633C269.8948,-377.036 216.5396,-364.2086 185,-331.0005 161.4708,-306.2266 153.2652,-266.6573 150.4352,-239.834"/>
<polygon fill="#000000" stroke="#000000" points="153.8941,-239.2062 149.5456,-229.5449 146.9201,-239.8092 153.8941,-239.2062"/>
</g>
<!-- prespace_9 -->
<g id="node10" class="node">
<title>prespace_9</title>
<ellipse fill="none" stroke="#000000" cx="240" cy="-211.2002" rx="46.4736" ry="18"/>
<text text-anchor="middle" x="240" y="-207.0002" font-family="Helvetica,sans-Serif" font-size="14.00" fill="#000000">prespace</text>
</g>
<!-- prose_3&#45;&gt;prespace_9 -->
<g id="edge9" class="edge">
<title>prose_3&#45;&gt;prespace_9</title>
<path fill="none" stroke="#000000" stroke-dasharray="5,2" d="M322.4861,-368.5773C314.272,-358.1734 303.8836,-344.2299 296,-331.0005 277.9231,-300.6656 261.3532,-263.5367 251.0047,-238.7279"/>
<polygon fill="#000000" stroke="#000000" points="254.1364,-237.1407 247.094,-229.2252 247.6631,-239.8048 254.1364,-237.1407"/>
</g>
<!-- literal_10 -->
<g id="node11" class="node">
<title>literal_10</title>
<ellipse fill="none" stroke="#000000" cx="336" cy="-211.2002" rx="31.481" ry="18"/>
<text text-anchor="middle" x="336" y="-207.0002" font-family="Helvetica,sans-Serif" font-size="14.00" fill="#000000">literal</text>
</g>
<!-- prose_3&#45;&gt;literal_10 -->
<g id="edge10" class="edge">
<title>prose_3&#45;&gt;literal_10</title>
<path fill="none" stroke="#000000" stroke-dasharray="5,2" d="M336,-366.7293C336,-336.3999 336,-275.449 336,-239.5141"/>
<polygon fill="#000000" stroke="#000000" points="339.5001,-239.2266 336,-229.2266 332.5001,-239.2267 339.5001,-239.2266"/>
</g>
<!-- raw_11 -->
<g id="node12" class="node">
<title>raw_11</title>
<ellipse fill="none" stroke="#000000" cx="412" cy="-211.2002" rx="27" ry="18"/>
<text text-anchor="middle" x="412" y="-207.0002" font-family="Helvetica,sans-Serif" font-size="14.00" fill="#000000">raw</text>
</g>
<!-- prose_3&#45;&gt;raw_11 -->
<g id="edge11" class="edge">
<title>prose_3&#45;&gt;raw_11</title>
<path fill="none" stroke="#000000" stroke-dasharray="5,2" d="M350.5912,-368.4867C358.9937,-358.2721 369.2024,-344.5588 376,-331.0005 390.9043,-301.2726 400.8587,-264.2461 406.4523,-239.2882"/>
<polygon fill="#000000" stroke="#000000" points="409.9007,-239.9 408.5843,-229.3873 403.0576,-238.4264 409.9007,-239.9"/>
</g>
<!-- raw_16 -->
<g id="node17" class="node">
<title>raw_16</title>
<ellipse fill="none" stroke="#000000" cx="495" cy="-211.2002" rx="27" ry="18"/>
<text text-anchor="middle" x="495" y="-207.0002" font-family="Helvetica,sans-Serif" font-size="14.00" fill="#000000">raw</text>
</g>
<!-- prose_4&#45;&gt;raw_16 -->
<g id="edge16" class="edge">
<title>prose_4&#45;&gt;raw_16</title>
<path fill="none" stroke="#000000" stroke-dasharray="5,2" d="M597.3077,-375.5819C576.2499,-367.0641 548.0773,-352.5275 531,-331.0005 509.8844,-304.3829 501.1323,-265.5574 497.5186,-239.3855"/>
<polygon fill="#000000" stroke="#000000" points="500.9802,-238.8577 496.2986,-229.3534 494.0314,-239.7028 500.9802,-238.8577"/>
</g>
<!-- prespace_17 -->
<g id="node18" class="node">
<title>prespace_17</title>
<ellipse fill="none" stroke="#000000" cx="586" cy="-211.2002" rx="46.4736" ry="18"/>
<text text-anchor="middle" x="586" y="-207.0002" font-family="Helvetica,sans-Serif" font-size="14.00" fill="#000000">prespace</text>
</g>
<!-- prose_4&#45;&gt;prespace_17 -->
<g id="edge17" class="edge">
<title>prose_4&#45;&gt;prespace_17</title>
<path fill="none" stroke="#000000" stroke-dasharray="5,2" d="M620.9732,-367.0554C614.1713,-336.7433 600.3593,-275.1911 592.277,-239.1733"/>
<polygon fill="#000000" stroke="#000000" points="595.668,-238.2991 590.0633,-229.3081 588.8378,-239.8318 595.668,-238.2991"/>
</g>
<!-- literal_18 -->
<g id="node19" class="node">
<title>literal_18</title>
<ellipse fill="none" stroke="#000000" cx="682" cy="-211.2002" rx="31.481" ry="18"/>
<text text-anchor="middle" x="682" y="-207.0002" font-family="Helvetica,sans-Serif" font-size="14.00" fill="#000000">literal</text>
</g>
<!-- prose_4&#45;&gt;literal_18 -->
<g id="edge18" class="edge">
<title>prose_4&#45;&gt;literal_18</title>
<path fill="none" stroke="#000000" stroke-dasharray="5,2" d="M630.8853,-367.0554C640.8524,-336.6644 661.1186,-274.8703 672.918,-238.8924"/>
<polygon fill="#000000" stroke="#000000" points="676.356,-239.6405 676.1467,-229.0477 669.7046,-237.459 676.356,-239.6405"/>
</g>
<!-- raw_19 -->
<g id="node20" class="node">
<title>raw_19</title>
<ellipse fill="none" stroke="#000000" cx="758" cy="-211.2002" rx="27" ry="18"/>
<text text-anchor="middle" x="758" y="-207.0002" font-family="Helvetica,sans-Serif" font-size="14.00" fill="#000000">raw</text>
</g>
<!-- prose_4&#45;&gt;raw_19 -->
<g id="edge19" class="edge">
<title>prose_4&#45;&gt;raw_19</title>
<path fill="none" stroke="#000000" stroke-dasharray="5,2" d="M653.1228,-375.9753C674.8949,-367.6061 704.2426,-353.078 722,-331.0005 743.2942,-304.5256 752.0066,-265.6684 755.5625,-239.4502"/>
<polygon fill="#000000" stroke="#000000" points="759.0524,-239.742 756.758,-229.3986 752.1014,-238.9152 759.0524,-239.742"/>
</g>
<!-- raw_24 -->
<g id="node25" class="node">
<title>raw_24</title>
<ellipse fill="none" stroke="#000000" cx="830" cy="-211.2002" rx="27" ry="18"/>
<text text-anchor="middle" x="830" y="-207.0002" font-family="Helvetica,sans-Serif" font-size="14.00" fill="#000000">raw</text>
</g>
<!-- prose_5&#45;&gt;raw_24 -->
<g id="edge24" class="edge">
<title>prose_5&#45;&gt;raw_24</title>
<path fill="none" stroke="#000000" stroke-dasharray="5,2" d="M792.3365,-367.0554C799.6807,-336.6644 814.6137,-274.8703 823.308,-238.8924"/>
<polygon fill="#000000" stroke="#000000" points="826.7401,-239.5901 825.687,-229.0477 819.9359,-237.9457 826.7401,-239.5901"/>
</g>
<!-- leaf_26 -->
<g id="node27" class="node">
<title>leaf_26</title>
<polygon fill="none" stroke="#c0c0c0" points="1185,-330.801 875,-330.801 875,-91.5995 1185,-91.5995 1185,-330.801"/>
<text text-anchor="middle" x="1030" y="-315.8005" font-family="Inconsolata" font-size="14.00" fill="#000000">local dot &#160;&#160;&#160;&#160;= require &quot;espalier/dot&quot;</text>
<text text-anchor="middle" x="1030" y="-300.4004" font-family="Inconsolata" font-size="14.00" fill="#000000">local elpatt &#160;= require &quot;espalier/elpatt&quot;</text>
<text text-anchor="middle" x="1030" y="-285.0004" font-family="Inconsolata" font-size="14.00" fill="#000000">local Node &#160;&#160;&#160;= require &quot;espalier/node&quot;</text>
<text text-anchor="middle" x="1030" y="-269.6004" font-family="Inconsolata" font-size="14.00" fill="#000000">&#45;&#45;local Spec &#160;&#160;&#160;= require &quot;espalier/spec&quot;</text>
<text text-anchor="middle" x="1030" y="-254.2003" font-family="Inconsolata" font-size="14.00" fill="#000000">local Phrase &#160;= require &quot;espalier/phrase&quot;</text>
<text text-anchor="middle" x="1030" y="-238.8003" font-family="Inconsolata" font-size="14.00" fill="#000000">local Grammar = require &quot;espalier/grammar&quot;</text>
<text text-anchor="middle" x="1030" y="-223.4003" font-family="Inconsolata" font-size="14.00" fill="#000000">local Stator &#160;= require &quot;espalier/stator&quot;</text>
<text text-anchor="middle" x="1030" y="-192.0002" font-family="Inconsolata" font-size="14.00" fill="#000000">return { dot &#160;&#160;&#160;&#160;= dot,</text>
<text text-anchor="middle" x="1030" y="-176.6002" font-family="Inconsolata" font-size="14.00" fill="#000000"> &#160;&#160;&#160;&#160;&#160;&#160;&#160;&#160;elpatt &#160;= elpatt,</text>
<text text-anchor="middle" x="1030" y="-161.2002" font-family="Inconsolata" font-size="14.00" fill="#000000"> &#160;&#160;&#160;&#160;&#160;&#160;&#160;&#160;node &#160;&#160;&#160;= Node,</text>
<text text-anchor="middle" x="1030" y="-145.8002" font-family="Inconsolata" font-size="14.00" fill="#000000"> &#45;&#45; &#160;&#160;&#160;&#160;&#160;&#160;&#160;spec &#160;&#160;&#160;= Spec,</text>
<text text-anchor="middle" x="1030" y="-130.4001" font-family="Inconsolata" font-size="14.00" fill="#000000"> &#160;&#160;&#160;&#160;&#160;&#160;&#160;&#160;phrase &#160;= Phrase,</text>
<text text-anchor="middle" x="1030" y="-115.0001" font-family="Inconsolata" font-size="14.00" fill="#000000"> &#160;&#160;&#160;&#160;&#160;&#160;&#160;&#160;grammar = Grammar,</text>
<text text-anchor="middle" x="1030" y="-99.6001" font-family="Inconsolata" font-size="14.00" fill="#000000"> &#160;&#160;&#160;&#160;&#160;&#160;&#160;&#160;stator &#160;= Stator }</text>
</g>
<!-- codeblock_6&#45;&gt;leaf_26 -->
<g id="edge26" class="edge">
<title>codeblock_6&#45;&gt;leaf_26</title>
<path fill="none" stroke="#000000" stroke-dasharray="5,2" d="M994.2051,-366.7293C995.8619,-359.5303 997.9159,-350.6061 1000.1956,-340.7006"/>
<polygon fill="#000000" stroke="#000000" points="1003.6128,-341.4576 1002.4449,-330.9273 996.7911,-339.8876 1003.6128,-341.4576"/>
</g>
<!-- leaf_12 -->
<g id="node13" class="node">
<title>leaf_12</title>
<polygon fill="none" stroke="#c0c0c0" points="198,-55.6015 0,-55.6015 0,.2015 198,.2015 198,-55.6015"/>
<text text-anchor="middle" x="99" y="-8.2" font-family="Inconsolata" font-size="14.00" fill="#000000">This library is now called</text>
</g>
<!-- raw_8&#45;&gt;leaf_12 -->
<g id="edge12" class="edge">
<title>raw_8&#45;&gt;leaf_12</title>
<path fill="none" stroke="#000000" stroke-dasharray="5,2" d="M144.1148,-193.2714C136.0844,-163.8 119.9257,-104.4974 109.2864,-65.451"/>
<polygon fill="#000000" stroke="#000000" points="112.582,-64.2324 106.5761,-55.5043 105.8282,-66.0727 112.582,-64.2324"/>
</g>
<!-- leaf_13 -->
<g id="node14" class="node">
<title>leaf_13</title>
<polygon fill="none" stroke="#c0c0c0" points="270,-45.7 216,-45.7 216,-9.7 270,-9.7 270,-45.7"/>
<text text-anchor="middle" x="243" y="-24.2" font-family="Inconsolata" font-size="14.00" fill="#000000"> </text>
</g>
<!-- prespace_9&#45;&gt;leaf_13 -->
<g id="edge13" class="edge">
<title>prespace_9&#45;&gt;leaf_13</title>
<path fill="none" stroke="#000000" stroke-dasharray="5,2" d="M240.2986,-192.9347C240.822,-160.9215 241.9085,-94.4629 242.5324,-56.3043"/>
<polygon fill="#000000" stroke="#000000" points="246.0386,-55.9476 242.7026,-45.8917 239.0395,-55.8331 246.0386,-55.9476"/>
</g>
<!-- leaf_14 -->
<g id="node15" class="node">
<title>leaf_14</title>
<polygon fill="none" stroke="#c0c0c0" points="365,-45.7 293,-45.7 293,-9.7 365,-9.7 365,-45.7"/>
<text text-anchor="middle" x="329" y="-24.2" font-family="Inconsolata" font-size="14.00" fill="#000000">espalier</text>
</g>
<!-- literal_10&#45;&gt;leaf_14 -->
<g id="edge14" class="edge">
<title>literal_10&#45;&gt;leaf_14</title>
<path fill="none" stroke="#000000" stroke-dasharray="5,2" d="M335.3032,-192.9347C334.082,-160.9215 331.5468,-94.4629 330.0912,-56.3043"/>
<polygon fill="#000000" stroke="#000000" points="333.5727,-55.751 329.694,-45.8917 326.5778,-56.0179 333.5727,-55.751"/>
</g>
<!-- leaf_15 -->
<g id="node16" class="node">
<title>leaf_15</title>
<polygon fill="none" stroke="#c0c0c0" points="437,-45.7 383,-45.7 383,-9.7 437,-9.7 437,-45.7"/>
<text text-anchor="middle" x="410" y="-24.2" font-family="Inconsolata" font-size="14.00" fill="#000000">.</text>
</g>
<!-- raw_11&#45;&gt;leaf_15 -->
<g id="edge15" class="edge">
<title>raw_11&#45;&gt;leaf_15</title>
<path fill="none" stroke="#000000" stroke-dasharray="5,2" d="M411.8009,-192.9347C411.452,-160.9215 410.7277,-94.4629 410.3118,-56.3043"/>
<polygon fill="#000000" stroke="#000000" points="413.8071,-55.8529 410.1983,-45.8917 406.8076,-55.9293 413.8071,-55.8529"/>
</g>
<!-- leaf_20 -->
<g id="node21" class="node">
<title>leaf_20</title>
<polygon fill="none" stroke="#c0c0c0" points="541,-47.6021 455,-47.6021 455,-7.7979 541,-7.7979 541,-47.6021"/>
<text text-anchor="middle" x="498" y="-16.2" font-family="Inconsolata" font-size="14.00" fill="#000000">Because it</text>
</g>
<!-- raw_16&#45;&gt;leaf_20 -->
<g id="edge20" class="edge">
<title>raw_16&#45;&gt;leaf_20</title>
<path fill="none" stroke="#000000" stroke-dasharray="5,2" d="M495.2986,-192.9347C495.8161,-161.2813 496.8842,-95.9523 497.5111,-57.6014"/>
<polygon fill="#000000" stroke="#000000" points="501.0114,-57.6062 497.6755,-47.5503 494.0124,-57.4917 501.0114,-57.6062"/>
</g>
<!-- leaf_21 -->
<g id="node22" class="node">
<title>leaf_21</title>
<polygon fill="none" stroke="#c0c0c0" points="613,-45.7 559,-45.7 559,-9.7 613,-9.7 613,-45.7"/>
<text text-anchor="middle" x="586" y="-24.2" font-family="Inconsolata" font-size="14.00" fill="#000000"> </text>
</g>
<!-- prespace_17&#45;&gt;leaf_21 -->
<g id="edge21" class="edge">
<title>prespace_17&#45;&gt;leaf_21</title>
<path fill="none" stroke="#000000" stroke-dasharray="5,2" d="M586,-192.9347C586,-160.9215 586,-94.4629 586,-56.3043"/>
<polygon fill="#000000" stroke="#000000" points="589.5001,-55.8917 586,-45.8917 582.5001,-55.8917 589.5001,-55.8917"/>
</g>
<!-- leaf_22 -->
<g id="node23" class="node">
<title>leaf_22</title>
<polygon fill="none" stroke="#c0c0c0" points="685,-45.7 631,-45.7 631,-9.7 685,-9.7 685,-45.7"/>
<text text-anchor="middle" x="658" y="-24.2" font-family="Inconsolata" font-size="14.00" fill="#000000">PEG</text>
</g>
<!-- literal_18&#45;&gt;leaf_22 -->
<g id="edge22" class="edge">
<title>literal_18&#45;&gt;leaf_22</title>
<path fill="none" stroke="#000000" stroke-dasharray="5,2" d="M679.611,-192.9347C675.4061,-160.7841 666.6572,-93.8918 661.6771,-55.8145"/>
<polygon fill="#000000" stroke="#000000" points="665.1467,-55.3533 660.3793,-45.8917 658.2058,-56.2612 665.1467,-55.3533"/>
</g>
<!-- leaf_23 -->
<g id="node24" class="node">
<title>leaf_23</title>
<polygon fill="none" stroke="#c0c0c0" points="859,-45.7 703,-45.7 703,-9.7 859,-9.7 859,-45.7"/>
<text text-anchor="middle" x="781" y="-24.2" font-family="Inconsolata" font-size="14.00" fill="#000000">s trees to the wall.</text>
</g>
<!-- raw_19&#45;&gt;leaf_23 -->
<g id="edge23" class="edge">
<title>raw_19&#45;&gt;leaf_23</title>
<path fill="none" stroke="#000000" stroke-dasharray="5,2" d="M760.2894,-192.9347C764.3192,-160.7841 772.7035,-93.8918 777.4761,-55.8145"/>
<polygon fill="#000000" stroke="#000000" points="780.9489,-56.2494 778.7198,-45.8917 774.0033,-55.3788 780.9489,-56.2494"/>
</g>
<!-- leaf_25 -->
<g id="node26" class="node">
<title>leaf_25</title>
<polygon fill="none" stroke="#c0c0c0" points="931,-47.6021 877,-47.6021 877,-7.7979 931,-7.7979 931,-47.6021"/>
<text text-anchor="middle" x="904" y="-16.2" font-family="Inconsolata" font-size="14.00" fill="#000000">Heh.</text>
</g>
<!-- raw_24&#45;&gt;leaf_25 -->
<g id="edge25" class="edge">
<title>raw_24&#45;&gt;leaf_25</title>
<path fill="none" stroke="#000000" stroke-dasharray="5,2" d="M833.9304,-193.2554C839.4826,-169.3926 850.6802,-126.1811 866,-91.4 871.2719,-79.4311 878.3417,-66.933 884.9531,-56.2095"/>
<polygon fill="#000000" stroke="#000000" points="887.9663,-57.9931 890.3494,-47.6697 882.0487,-54.2537 887.9663,-57.9931"/>
</g>
</g>
</svg>
