<?xml version="1.0" encoding="UTF-8" standalone="no"?>
<!DOCTYPE svg PUBLIC "-//W3C//DTD SVG 1.1//EN"
 "http://www.w3.org/Graphics/SVG/1.1/DTD/svg11.dtd">
<!-- Generated by graphviz version 2.40.1 (20161225.0304)
 -->
<!-- Title: lpegNode Pages: 1 -->
<svg width="1291pt" height="711pt"
 viewBox="0.00 0.00 1291.00 711.40" xmlns="http://www.w3.org/2000/svg" xmlns:xlink="http://www.w3.org/1999/xlink">
<g id="graph0" class="graph" transform="scale(1 1) rotate(0) translate(4 707.4007)">
<title>lpegNode</title>
<polygon fill="#ffffff" stroke="transparent" points="-4,4 -4,-707.4007 1287,-707.4007 1287,4 -4,4"/>
<!-- doc_0 -->
<g id="node1" class="node">
<title>doc_0</title>
<ellipse fill="none" stroke="#000000" cx="626" cy="-685.4007" rx="42.1216" ry="18"/>
<text text-anchor="middle" x="626" y="-681.2007" font-family="Helvetica,sans-Serif" font-size="14.00" fill="#000000">doc &#45; 35</text>
</g>
<!-- section_1 -->
<g id="node2" class="node">
<title>section_1</title>
<ellipse fill="none" stroke="#000000" cx="626" cy="-613.4007" rx="60.9826" ry="18"/>
<text text-anchor="middle" x="626" y="-609.2007" font-family="Helvetica,sans-Serif" font-size="14.00" fill="#000000">section: 1&#45;35</text>
</g>
<!-- doc_0&#45;&gt;section_1 -->
<g id="edge1" class="edge">
<title>doc_0&#45;&gt;section_1</title>
<path fill="none" stroke="#000000" stroke-dasharray="5,2" d="M626,-667.232C626,-659.5316 626,-650.375 626,-641.8173"/>
<polygon fill="#000000" stroke="#000000" points="629.5001,-641.8139 626,-631.8139 622.5001,-641.814 629.5001,-641.8139"/>
</g>
<!-- header_2 -->
<g id="node3" class="node">
<title>header_2</title>
<ellipse fill="none" stroke="#000000" cx="146" cy="-541.4007" rx="54.1919" ry="18"/>
<text text-anchor="middle" x="146" y="-537.2007" font-family="Helvetica,sans-Serif" font-size="14.00" fill="#000000">1 : Espalier</text>
</g>
<!-- section_1&#45;&gt;header_2 -->
<g id="edge2" class="edge">
<title>section_1&#45;&gt;header_2</title>
<path fill="none" stroke="#000000" stroke-dasharray="5,2" d="M571.4052,-605.2114C480.7223,-591.609 299.7448,-564.4624 205.7579,-550.3643"/>
<polygon fill="#000000" stroke="#000000" points="206.2477,-546.8987 195.8391,-548.8765 205.2092,-553.8213 206.2477,-546.8987"/>
</g>
<!-- prose_3 -->
<g id="node4" class="node">
<title>prose_3</title>
<ellipse fill="none" stroke="#000000" cx="336" cy="-541.4007" rx="32.4585" ry="18"/>
<text text-anchor="middle" x="336" y="-537.2007" font-family="Helvetica,sans-Serif" font-size="14.00" fill="#000000">prose</text>
</g>
<!-- section_1&#45;&gt;prose_3 -->
<g id="edge3" class="edge">
<title>section_1&#45;&gt;prose_3</title>
<path fill="none" stroke="#000000" stroke-dasharray="5,2" d="M579.4065,-601.8326C522.8502,-587.791 428.4756,-564.3601 375.3847,-551.1789"/>
<polygon fill="#000000" stroke="#000000" points="376.2041,-547.7762 365.6554,-548.7634 374.5173,-554.5699 376.2041,-547.7762"/>
</g>
<!-- prose_4 -->
<g id="node5" class="node">
<title>prose_4</title>
<ellipse fill="none" stroke="#000000" cx="626" cy="-541.4007" rx="32.4585" ry="18"/>
<text text-anchor="middle" x="626" y="-537.2007" font-family="Helvetica,sans-Serif" font-size="14.00" fill="#000000">prose</text>
</g>
<!-- section_1&#45;&gt;prose_4 -->
<g id="edge4" class="edge">
<title>section_1&#45;&gt;prose_4</title>
<path fill="none" stroke="#000000" stroke-dasharray="5,2" d="M626,-595.232C626,-587.5316 626,-578.375 626,-569.8173"/>
<polygon fill="#000000" stroke="#000000" points="629.5001,-569.8139 626,-559.8139 622.5001,-569.814 629.5001,-569.8139"/>
</g>
<!-- prose_5 -->
<g id="node6" class="node">
<title>prose_5</title>
<ellipse fill="none" stroke="#000000" cx="789" cy="-541.4007" rx="32.4585" ry="18"/>
<text text-anchor="middle" x="789" y="-537.2007" font-family="Helvetica,sans-Serif" font-size="14.00" fill="#000000">prose</text>
</g>
<!-- section_1&#45;&gt;prose_5 -->
<g id="edge5" class="edge">
<title>section_1&#45;&gt;prose_5</title>
<path fill="none" stroke="#000000" stroke-dasharray="5,2" d="M660.1701,-598.3071C687.8111,-586.0976 726.5672,-568.9783 754.3387,-556.7112"/>
<polygon fill="#000000" stroke="#000000" points="755.9344,-559.8326 763.6675,-552.5905 753.106,-553.4295 755.9344,-559.8326"/>
</g>
<!-- codeblock_6 -->
<g id="node7" class="node">
<title>codeblock_6</title>
<ellipse fill="none" stroke="#000000" cx="1015" cy="-541.4007" rx="72.5844" ry="18"/>
<text text-anchor="middle" x="1015" y="-537.2007" font-family="Helvetica,sans-Serif" font-size="14.00" fill="#000000">code block 9&#45;35</text>
</g>
<!-- section_1&#45;&gt;codeblock_6 -->
<g id="edge6" class="edge">
<title>section_1&#45;&gt;codeblock_6</title>
<path fill="none" stroke="#000000" stroke-dasharray="5,2" d="M677.6562,-603.8396C746.883,-591.0264 869.9153,-568.2544 946.7224,-554.0382"/>
<polygon fill="#000000" stroke="#000000" points="947.5832,-557.4384 956.7792,-552.1767 946.3092,-550.5553 947.5832,-557.4384"/>
</g>
<!-- leaf_7 -->
<g id="node8" class="node">
<title>leaf_7</title>
<polygon fill="none" stroke="#c0c0c0" points="104,-307.4003 18,-307.4003 18,-271.4003 104,-271.4003 104,-307.4003"/>
<text text-anchor="middle" x="61" y="-285.9004" font-family="Inconsolata" font-size="14.00" fill="#000000">* Espalier</text>
</g>
<!-- header_2&#45;&gt;leaf_7 -->
<g id="edge7" class="edge">
<title>header_2&#45;&gt;leaf_7</title>
<path fill="none" stroke="#000000" stroke-dasharray="5,2" d="M133.3104,-523.6209C126.5042,-513.4174 118.4252,-500.1369 113,-487.4007 88.2487,-429.2942 72.8033,-356.4488 65.671,-317.3267"/>
<polygon fill="#000000" stroke="#000000" points="69.1124,-316.688 63.9181,-307.4539 62.2202,-317.9118 69.1124,-316.688"/>
</g>
<!-- raw_8 -->
<g id="node9" class="node">
<title>raw_8</title>
<ellipse fill="none" stroke="#000000" cx="149" cy="-289.4003" rx="27" ry="18"/>
<text text-anchor="middle" x="149" y="-285.2003" font-family="Helvetica,sans-Serif" font-size="14.00" fill="#000000">raw</text>
</g>
<!-- prose_3&#45;&gt;raw_8 -->
<g id="edge8" class="edge">
<title>prose_3&#45;&gt;raw_8</title>
<path fill="none" stroke="#000000" stroke-dasharray="5,2" d="M305.9565,-534.4323C266.6501,-524.7054 200.8959,-506.1356 185,-487.4007 143.9316,-438.9976 143.0236,-359.5692 145.9573,-317.5329"/>
<polygon fill="#000000" stroke="#000000" points="149.455,-317.7038 146.7868,-307.4505 142.4785,-317.1298 149.455,-317.7038"/>
</g>
<!-- prespace_9 -->
<g id="node10" class="node">
<title>prespace_9</title>
<ellipse fill="none" stroke="#000000" cx="240" cy="-289.4003" rx="46.4736" ry="18"/>
<text text-anchor="middle" x="240" y="-285.2003" font-family="Helvetica,sans-Serif" font-size="14.00" fill="#000000">prespace</text>
</g>
<!-- prose_3&#45;&gt;prespace_9 -->
<g id="edge9" class="edge">
<title>prose_3&#45;&gt;prespace_9</title>
<path fill="none" stroke="#000000" stroke-dasharray="5,2" d="M321.3284,-524.9268C312.8974,-514.7264 302.6869,-501.0139 296,-487.4007 267.9389,-430.2738 251.8125,-356.7599 244.6003,-317.3381"/>
<polygon fill="#000000" stroke="#000000" points="248.0294,-316.63 242.839,-307.3936 241.1367,-317.8508 248.0294,-316.63"/>
</g>
<!-- literal_10 -->
<g id="node11" class="node">
<title>literal_10</title>
<ellipse fill="none" stroke="#000000" cx="336" cy="-289.4003" rx="31.481" ry="18"/>
<text text-anchor="middle" x="336" y="-285.2003" font-family="Helvetica,sans-Serif" font-size="14.00" fill="#000000">literal</text>
</g>
<!-- prose_3&#45;&gt;literal_10 -->
<g id="edge10" class="edge">
<title>prose_3&#45;&gt;literal_10</title>
<path fill="none" stroke="#000000" stroke-dasharray="5,2" d="M336,-523.2774C336,-479.9744 336,-370.2212 336,-317.9378"/>
<polygon fill="#000000" stroke="#000000" points="339.5001,-317.6979 336,-307.698 332.5001,-317.698 339.5001,-317.6979"/>
</g>
<!-- raw_11 -->
<g id="node12" class="node">
<title>raw_11</title>
<ellipse fill="none" stroke="#000000" cx="412" cy="-289.4003" rx="27" ry="18"/>
<text text-anchor="middle" x="412" y="-285.2003" font-family="Helvetica,sans-Serif" font-size="14.00" fill="#000000">raw</text>
</g>
<!-- prose_3&#45;&gt;raw_11 -->
<g id="edge11" class="edge">
<title>prose_3&#45;&gt;raw_11</title>
<path fill="none" stroke="#000000" stroke-dasharray="5,2" d="M351.1508,-525.1481C359.7516,-515.0261 369.9724,-501.3184 376,-487.4007 400.6224,-430.5475 408.4069,-357.4535 410.8661,-317.8974"/>
<polygon fill="#000000" stroke="#000000" points="414.374,-317.8483 411.4281,-307.6713 407.3846,-317.4641 414.374,-317.8483"/>
</g>
<!-- raw_16 -->
<g id="node17" class="node">
<title>raw_16</title>
<ellipse fill="none" stroke="#000000" cx="495" cy="-289.4003" rx="27" ry="18"/>
<text text-anchor="middle" x="495" y="-285.2003" font-family="Helvetica,sans-Serif" font-size="14.00" fill="#000000">raw</text>
</g>
<!-- prose_4&#45;&gt;raw_16 -->
<g id="edge16" class="edge">
<title>prose_4&#45;&gt;raw_16</title>
<path fill="none" stroke="#000000" stroke-dasharray="5,2" d="M597.3287,-532.5725C575.6694,-524.3803 547.0233,-509.9936 531,-487.4007 494.5415,-435.9942 491.588,-358.728 493.0243,-317.5665"/>
<polygon fill="#000000" stroke="#000000" points="496.5268,-317.5923 493.4937,-307.4409 489.5343,-317.268 496.5268,-317.5923"/>
</g>
<!-- prespace_17 -->
<g id="node18" class="node">
<title>prespace_17</title>
<ellipse fill="none" stroke="#000000" cx="586" cy="-289.4003" rx="46.4736" ry="18"/>
<text text-anchor="middle" x="586" y="-285.2003" font-family="Helvetica,sans-Serif" font-size="14.00" fill="#000000">prespace</text>
</g>
<!-- prose_4&#45;&gt;prespace_17 -->
<g id="edge17" class="edge">
<title>prose_4&#45;&gt;prespace_17</title>
<path fill="none" stroke="#000000" stroke-dasharray="5,2" d="M623.1233,-523.2774C616.2354,-479.8838 598.7557,-369.7617 590.4778,-317.6104"/>
<polygon fill="#000000" stroke="#000000" points="593.9289,-317.0256 588.9044,-307.698 587.0154,-318.123 593.9289,-317.0256"/>
</g>
<!-- literal_18 -->
<g id="node19" class="node">
<title>literal_18</title>
<ellipse fill="none" stroke="#000000" cx="682" cy="-289.4003" rx="31.481" ry="18"/>
<text text-anchor="middle" x="682" y="-285.2003" font-family="Helvetica,sans-Serif" font-size="14.00" fill="#000000">literal</text>
</g>
<!-- prose_4&#45;&gt;literal_18 -->
<g id="edge18" class="edge">
<title>prose_4&#45;&gt;literal_18</title>
<path fill="none" stroke="#000000" stroke-dasharray="5,2" d="M631.3018,-523.4791C634.319,-513.0052 638.069,-499.5052 641,-487.4007 655.5742,-427.2111 669.5319,-355.9499 676.8018,-317.4594"/>
<polygon fill="#000000" stroke="#000000" points="680.2646,-317.9827 678.6699,-307.5086 673.3848,-316.6911 680.2646,-317.9827"/>
</g>
<!-- raw_19 -->
<g id="node20" class="node">
<title>raw_19</title>
<ellipse fill="none" stroke="#000000" cx="758" cy="-289.4003" rx="27" ry="18"/>
<text text-anchor="middle" x="758" y="-285.2003" font-family="Helvetica,sans-Serif" font-size="14.00" fill="#000000">raw</text>
</g>
<!-- prose_4&#45;&gt;raw_19 -->
<g id="edge19" class="edge">
<title>prose_4&#45;&gt;raw_19</title>
<path fill="none" stroke="#000000" stroke-dasharray="5,2" d="M654.5189,-532.8187C676.4547,-524.7002 705.687,-510.293 722,-487.4007 758.5737,-436.0761 761.4801,-358.7764 760.0059,-317.588"/>
<polygon fill="#000000" stroke="#000000" points="763.4953,-317.2788 759.5266,-307.4554 756.5031,-317.6096 763.4953,-317.2788"/>
</g>
<!-- raw_24 -->
<g id="node25" class="node">
<title>raw_24</title>
<ellipse fill="none" stroke="#000000" cx="830" cy="-289.4003" rx="27" ry="18"/>
<text text-anchor="middle" x="830" y="-285.2003" font-family="Helvetica,sans-Serif" font-size="14.00" fill="#000000">raw</text>
</g>
<!-- prose_5&#45;&gt;raw_24 -->
<g id="edge24" class="edge">
<title>prose_5&#45;&gt;raw_24</title>
<path fill="none" stroke="#000000" stroke-dasharray="5,2" d="M791.9486,-523.2774C799.0259,-479.7783 817.0126,-369.2254 825.472,-317.2308"/>
<polygon fill="#000000" stroke="#000000" points="828.9267,-317.7917 827.0781,-307.3594 822.0176,-316.6675 828.9267,-317.7917"/>
</g>
<!-- leaf_26 -->
<g id="node27" class="node">
<title>leaf_26</title>
<polygon fill="none" stroke="#c0c0c0" points="1283,-487.401 875,-487.401 875,-91.3997 1283,-91.3997 1283,-487.401"/>
<text text-anchor="middle" x="1079" y="-472.2007" font-family="Inconsolata" font-size="14.00" fill="#000000">local ss &#160;&#160;&#160;&#160;&#160;= require &quot;singletons&quot;</text>
<text text-anchor="middle" x="1079" y="-456.8006" font-family="Inconsolata" font-size="14.00" fill="#000000">local dot &#160;&#160;&#160;&#160;= require &quot;espalier/dot&quot;</text>
<text text-anchor="middle" x="1079" y="-441.4006" font-family="Inconsolata" font-size="14.00" fill="#000000">local elpatt &#160;= require &quot;espalier/elpatt&quot;</text>
<text text-anchor="middle" x="1079" y="-426.0006" font-family="Inconsolata" font-size="14.00" fill="#000000">local Node &#160;&#160;&#160;= require &quot;espalier/node&quot;</text>
<text text-anchor="middle" x="1079" y="-410.6005" font-family="Inconsolata" font-size="14.00" fill="#000000">&#45;&#45; local Spec &#160;&#160;&#160;= require &quot;espalier/spec&quot;</text>
<text text-anchor="middle" x="1079" y="-395.2005" font-family="Inconsolata" font-size="14.00" fill="#000000">local Grammar = require &quot;espalier/grammar&quot;</text>
<text text-anchor="middle" x="1079" y="-363.8005" font-family="Inconsolata" font-size="14.00" fill="#000000">local ortho8600 = require &quot;espalier/grammars/ortho&#45;8600&quot;</text>
<text text-anchor="middle" x="1079" y="-332.4004" font-family="Inconsolata" font-size="14.00" fill="#000000">local dot_grammar &#160;= require &quot;espalier/grammars/dot&quot;</text>
<text text-anchor="middle" x="1079" y="-301.0004" font-family="Inconsolata" font-size="14.00" fill="#000000">local lua_grammar &#160;= require &quot;espalier/grammars/lua&quot;</text>
<text text-anchor="middle" x="1079" y="-269.6004" font-family="Inconsolata" font-size="14.00" fill="#000000">local grammars = { ortho8600 = ortho8600,</text>
<text text-anchor="middle" x="1079" y="-254.2003" font-family="Inconsolata" font-size="14.00" fill="#000000"> &#160;&#160;&#160;&#160;&#160;&#160;&#160;&#160;&#160;&#160;&#160;&#160;&#160;&#160;&#160;&#160;&#160;&#160;dot &#160;&#160;&#160;&#160;&#160;&#160;= dot_grammar,</text>
<text text-anchor="middle" x="1079" y="-238.8003" font-family="Inconsolata" font-size="14.00" fill="#000000"> &#160;&#160;&#160;&#160;&#160;&#160;&#160;&#160;&#160;&#160;&#160;&#160;&#160;&#160;&#160;&#160;&#160;&#160;lua &#160;&#160;&#160;&#160;&#160;&#160;= lua_grammar }</text>
<text text-anchor="middle" x="1079" y="-207.4003" font-family="Inconsolata" font-size="14.00" fill="#000000">return { dot &#160;&#160;&#160;&#160;&#160;= dot,</text>
<text text-anchor="middle" x="1079" y="-192.0002" font-family="Inconsolata" font-size="14.00" fill="#000000"> &#160;&#160;&#160;&#160;&#160;&#160;&#160;&#160;elpatt &#160;&#160;= elpatt,</text>
<text text-anchor="middle" x="1079" y="-176.6002" font-family="Inconsolata" font-size="14.00" fill="#000000"> &#160;&#160;&#160;&#160;&#160;&#160;&#160;&#160;node &#160;&#160;&#160;&#160;= Node,</text>
<text text-anchor="middle" x="1079" y="-161.2002" font-family="Inconsolata" font-size="14.00" fill="#000000"> &#45;&#45; &#160;&#160;&#160;&#160;&#160;&#160;&#160;spec &#160;&#160;&#160;= Spec,</text>
<text text-anchor="middle" x="1079" y="-145.8002" font-family="Inconsolata" font-size="14.00" fill="#000000"> &#160;&#160;&#160;&#160;&#160;&#160;&#160;&#160;phrase &#160;&#160;= ss.Phrase,</text>
<text text-anchor="middle" x="1079" y="-130.4001" font-family="Inconsolata" font-size="14.00" fill="#000000"> &#160;&#160;&#160;&#160;&#160;&#160;&#160;&#160;grammar &#160;= Grammar,</text>
<text text-anchor="middle" x="1079" y="-115.0001" font-family="Inconsolata" font-size="14.00" fill="#000000"> &#160;&#160;&#160;&#160;&#160;&#160;&#160;&#160;grammars = grammars,</text>
<text text-anchor="middle" x="1079" y="-99.6001" font-family="Inconsolata" font-size="14.00" fill="#000000"> &#160;&#160;&#160;&#160;&#160;&#160;&#160;&#160;stator &#160;&#160;= ss.Stator }</text>
</g>
<!-- codeblock_6&#45;&gt;leaf_26 -->
<g id="edge26" class="edge">
<title>codeblock_6&#45;&gt;leaf_26</title>
<path fill="none" stroke="#000000" stroke-dasharray="5,2" d="M1019.6027,-523.2774C1021.3838,-516.2646 1023.6074,-507.5089 1026.14,-497.5368"/>
<polygon fill="#000000" stroke="#000000" points="1029.5892,-498.1743 1028.6585,-487.6204 1022.8045,-496.4512 1029.5892,-498.1743"/>
</g>
<!-- leaf_12 -->
<g id="node13" class="node">
<title>leaf_12</title>
<polygon fill="none" stroke="#c0c0c0" points="198,-55.6015 0,-55.6015 0,.2015 198,.2015 198,-55.6015"/>
<text text-anchor="middle" x="99" y="-8.2" font-family="Inconsolata" font-size="14.00" fill="#000000">This library is now called</text>
</g>
<!-- raw_8&#45;&gt;leaf_12 -->
<g id="edge12" class="edge">
<title>raw_8&#45;&gt;leaf_12</title>
<path fill="none" stroke="#000000" stroke-dasharray="5,2" d="M145.9435,-271.3401C139.9932,-236.4783 126.2708,-157.5128 113,-91.4 111.3207,-83.034 109.4169,-74.0735 107.5663,-65.5934"/>
<polygon fill="#000000" stroke="#000000" points="110.9252,-64.572 105.354,-55.5602 104.0894,-66.0793 110.9252,-64.572"/>
</g>
<!-- leaf_13 -->
<g id="node14" class="node">
<title>leaf_13</title>
<polygon fill="none" stroke="#c0c0c0" points="270,-45.7 216,-45.7 216,-9.7 270,-9.7 270,-45.7"/>
<text text-anchor="middle" x="243" y="-24.2" font-family="Inconsolata" font-size="14.00" fill="#000000"> </text>
</g>
<!-- prespace_9&#45;&gt;leaf_13 -->
<g id="edge13" class="edge">
<title>prespace_9&#45;&gt;leaf_13</title>
<path fill="none" stroke="#000000" stroke-dasharray="5,2" d="M240.211,-270.9981C240.7275,-225.9358 242.0586,-109.8215 242.6763,-55.9408"/>
<polygon fill="#000000" stroke="#000000" points="246.1783,-55.774 242.7933,-45.7345 239.1788,-55.6937 246.1783,-55.774"/>
</g>
<!-- leaf_14 -->
<g id="node15" class="node">
<title>leaf_14</title>
<polygon fill="none" stroke="#c0c0c0" points="365,-45.7 293,-45.7 293,-9.7 365,-9.7 365,-45.7"/>
<text text-anchor="middle" x="329" y="-24.2" font-family="Inconsolata" font-size="14.00" fill="#000000">espalier</text>
</g>
<!-- literal_10&#45;&gt;leaf_14 -->
<g id="edge14" class="edge">
<title>literal_10&#45;&gt;leaf_14</title>
<path fill="none" stroke="#000000" stroke-dasharray="5,2" d="M335.5078,-270.9981C334.3024,-225.9358 331.1966,-109.8215 329.7554,-55.9408"/>
<polygon fill="#000000" stroke="#000000" points="333.2486,-55.6373 329.4824,-45.7345 326.2511,-55.8245 333.2486,-55.6373"/>
</g>
<!-- leaf_15 -->
<g id="node16" class="node">
<title>leaf_15</title>
<polygon fill="none" stroke="#c0c0c0" points="437,-45.7 383,-45.7 383,-9.7 437,-9.7 437,-45.7"/>
<text text-anchor="middle" x="410" y="-24.2" font-family="Inconsolata" font-size="14.00" fill="#000000">.</text>
</g>
<!-- raw_11&#45;&gt;leaf_15 -->
<g id="edge15" class="edge">
<title>raw_11&#45;&gt;leaf_15</title>
<path fill="none" stroke="#000000" stroke-dasharray="5,2" d="M411.8594,-270.9981C411.515,-225.9358 410.6276,-109.8215 410.2158,-55.9408"/>
<polygon fill="#000000" stroke="#000000" points="413.7142,-55.7074 410.1378,-45.7345 406.7144,-55.761 413.7142,-55.7074"/>
</g>
<!-- leaf_20 -->
<g id="node21" class="node">
<title>leaf_20</title>
<polygon fill="none" stroke="#c0c0c0" points="541,-47.6021 455,-47.6021 455,-7.7979 541,-7.7979 541,-47.6021"/>
<text text-anchor="middle" x="498" y="-16.2" font-family="Inconsolata" font-size="14.00" fill="#000000">Because it</text>
</g>
<!-- raw_16&#45;&gt;leaf_20 -->
<g id="edge20" class="edge">
<title>raw_16&#45;&gt;leaf_20</title>
<path fill="none" stroke="#000000" stroke-dasharray="5,2" d="M495.211,-270.9981C495.7224,-226.3871 497.032,-112.1401 497.6575,-57.5783"/>
<polygon fill="#000000" stroke="#000000" points="501.1581,-57.5395 497.773,-47.5 494.1585,-57.4592 501.1581,-57.5395"/>
</g>
<!-- leaf_21 -->
<g id="node22" class="node">
<title>leaf_21</title>
<polygon fill="none" stroke="#c0c0c0" points="613,-45.7 559,-45.7 559,-9.7 613,-9.7 613,-45.7"/>
<text text-anchor="middle" x="586" y="-24.2" font-family="Inconsolata" font-size="14.00" fill="#000000"> </text>
</g>
<!-- prespace_17&#45;&gt;leaf_21 -->
<g id="edge21" class="edge">
<title>prespace_17&#45;&gt;leaf_21</title>
<path fill="none" stroke="#000000" stroke-dasharray="5,2" d="M586,-270.9981C586,-225.9358 586,-109.8215 586,-55.9408"/>
<polygon fill="#000000" stroke="#000000" points="589.5001,-55.7345 586,-45.7345 582.5001,-55.7345 589.5001,-55.7345"/>
</g>
<!-- leaf_22 -->
<g id="node23" class="node">
<title>leaf_22</title>
<polygon fill="none" stroke="#c0c0c0" points="685,-45.7 631,-45.7 631,-9.7 685,-9.7 685,-45.7"/>
<text text-anchor="middle" x="658" y="-24.2" font-family="Inconsolata" font-size="14.00" fill="#000000">PEG</text>
</g>
<!-- literal_18&#45;&gt;leaf_22 -->
<g id="edge22" class="edge">
<title>literal_18&#45;&gt;leaf_22</title>
<path fill="none" stroke="#000000" stroke-dasharray="5,2" d="M680.3504,-271.4126C676.2485,-226.6855 665.5624,-110.162 660.601,-56.0622"/>
<polygon fill="#000000" stroke="#000000" points="664.0599,-55.4522 659.6612,-45.8136 657.0891,-56.0915 664.0599,-55.4522"/>
</g>
<!-- leaf_23 -->
<g id="node24" class="node">
<title>leaf_23</title>
<polygon fill="none" stroke="#c0c0c0" points="859,-45.7 703,-45.7 703,-9.7 859,-9.7 859,-45.7"/>
<text text-anchor="middle" x="781" y="-24.2" font-family="Inconsolata" font-size="14.00" fill="#000000">s trees to the wall.</text>
</g>
<!-- raw_19&#45;&gt;leaf_23 -->
<g id="edge23" class="edge">
<title>raw_19&#45;&gt;leaf_23</title>
<path fill="none" stroke="#000000" stroke-dasharray="5,2" d="M759.5809,-271.4126C763.5118,-226.6855 773.7527,-110.162 778.5073,-56.0622"/>
<polygon fill="#000000" stroke="#000000" points="782.019,-56.0817 779.4081,-45.8136 775.0459,-55.4688 782.019,-56.0817"/>
</g>
<!-- leaf_25 -->
<g id="node26" class="node">
<title>leaf_25</title>
<polygon fill="none" stroke="#c0c0c0" points="931,-47.6021 877,-47.6021 877,-7.7979 931,-7.7979 931,-47.6021"/>
<text text-anchor="middle" x="904" y="-16.2" font-family="Inconsolata" font-size="14.00" fill="#000000">Heh.</text>
</g>
<!-- raw_24&#45;&gt;leaf_25 -->
<g id="edge25" class="edge">
<title>raw_24&#45;&gt;leaf_25</title>
<path fill="none" stroke="#000000" stroke-dasharray="5,2" d="M831.123,-271.3519C833.7952,-235.8475 842.1946,-154.863 866,-91.4 870.5933,-79.1547 877.523,-66.5995 884.2123,-55.9077"/>
<polygon fill="#000000" stroke="#000000" points="887.2164,-57.7078 889.7181,-47.4125 881.3422,-53.9006 887.2164,-57.7078"/>
</g>
</g>
</svg>
