<?xml version="1.0" encoding="UTF-8" standalone="no"?>
<!DOCTYPE svg PUBLIC "-//W3C//DTD SVG 1.1//EN"
 "http://www.w3.org/Graphics/SVG/1.1/DTD/svg11.dtd">
<!-- Generated by graphviz version 2.40.1 (20161225.0304)
 -->
<!-- Title: hierarchy Pages: 1 -->
<svg width="506pt" height="479pt"
 viewBox="0.00 0.00 505.79 478.60" xmlns="http://www.w3.org/2000/svg" xmlns:xlink="http://www.w3.org/1999/xlink">
<g id="graph0" class="graph" transform="scale(1 1) rotate(0) translate(4 474.6003)">
<title>hierarchy</title>
<polygon fill="#ffffff" stroke="transparent" points="-4,4 -4,-474.6003 501.7891,-474.6003 501.7891,4 -4,4"/>
<!-- doc_0 -->
<g id="node1" class="node">
<title>doc_0</title>
<ellipse fill="none" stroke="#000000" cx="167.7891" cy="-452.6003" rx="42.1216" ry="18"/>
<text text-anchor="middle" x="167.7891" y="-448.4003" font-family="Helvetica,sans-Serif" font-size="14.00" fill="#000000">doc &#45; 16</text>
</g>
<!-- section_1 -->
<g id="node2" class="node">
<title>section_1</title>
<ellipse fill="none" stroke="#000000" cx="167.7891" cy="-380.6003" rx="60.9826" ry="18"/>
<text text-anchor="middle" x="167.7891" y="-376.4003" font-family="Helvetica,sans-Serif" font-size="14.00" fill="#000000">section: 1&#45;16</text>
</g>
<!-- doc_0&#45;&gt;section_1 -->
<g id="edge1" class="edge">
<title>doc_0&#45;&gt;section_1</title>
<path fill="none" stroke="#000000" stroke-dasharray="5,2" d="M167.7891,-434.4316C167.7891,-426.7312 167.7891,-417.5746 167.7891,-409.0169"/>
<polygon fill="#000000" stroke="#000000" points="171.2892,-409.0135 167.7891,-399.0135 164.2892,-409.0136 171.2892,-409.0135"/>
</g>
<!-- header_2 -->
<g id="node3" class="node">
<title>header_2</title>
<ellipse fill="none" stroke="#000000" cx="58.7891" cy="-308.6003" rx="58.5789" ry="18"/>
<text text-anchor="middle" x="58.7891" y="-304.4003" font-family="Helvetica,sans-Serif" font-size="14.00" fill="#000000">1 : lpegnode</text>
</g>
<!-- section_1&#45;&gt;header_2 -->
<g id="edge2" class="edge">
<title>section_1&#45;&gt;header_2</title>
<path fill="none" stroke="#000000" stroke-dasharray="5,2" d="M142.7823,-364.082C127.8273,-354.2035 108.6324,-341.5243 92.3682,-330.781"/>
<polygon fill="#000000" stroke="#000000" points="93.9526,-327.6329 83.6795,-325.0417 90.0944,-333.4737 93.9526,-327.6329"/>
</g>
<!-- prose_3 -->
<g id="node4" class="node">
<title>prose_3</title>
<ellipse fill="none" stroke="#000000" cx="167.7891" cy="-308.6003" rx="32.4585" ry="18"/>
<text text-anchor="middle" x="167.7891" y="-304.4003" font-family="Helvetica,sans-Serif" font-size="14.00" fill="#000000">prose</text>
</g>
<!-- section_1&#45;&gt;prose_3 -->
<g id="edge3" class="edge">
<title>section_1&#45;&gt;prose_3</title>
<path fill="none" stroke="#000000" stroke-dasharray="5,2" d="M167.7891,-362.4316C167.7891,-354.7312 167.7891,-345.5746 167.7891,-337.0169"/>
<polygon fill="#000000" stroke="#000000" points="171.2892,-337.0135 167.7891,-327.0135 164.2892,-337.0136 171.2892,-337.0135"/>
</g>
<!-- codeblock_4 -->
<g id="node5" class="node">
<title>codeblock_4</title>
<ellipse fill="none" stroke="#000000" cx="314.7891" cy="-308.6003" rx="72.5844" ry="18"/>
<text text-anchor="middle" x="314.7891" y="-304.4003" font-family="Helvetica,sans-Serif" font-size="14.00" fill="#000000">code block 5&#45;16</text>
</g>
<!-- section_1&#45;&gt;codeblock_4 -->
<g id="edge4" class="edge">
<title>section_1&#45;&gt;codeblock_4</title>
<path fill="none" stroke="#000000" stroke-dasharray="5,2" d="M199.3243,-365.1545C220.7733,-354.6488 249.3929,-340.6311 272.7722,-329.18"/>
<polygon fill="#000000" stroke="#000000" points="274.3354,-332.3117 281.7765,-324.7697 271.2563,-326.0252 274.3354,-332.3117"/>
</g>
<!-- leaf_5 -->
<g id="node6" class="node">
<title>leaf_5</title>
<polygon fill="none" stroke="#c0c0c0" points="101.7891,-191.0002 15.7891,-191.0002 15.7891,-155.0002 101.7891,-155.0002 101.7891,-191.0002"/>
<text text-anchor="middle" x="58.7891" y="-169.5002" font-family="Inconsolata" font-size="14.00" fill="#000000">* lpegnode</text>
</g>
<!-- header_2&#45;&gt;leaf_5 -->
<g id="edge5" class="edge">
<title>header_2&#45;&gt;leaf_5</title>
<path fill="none" stroke="#000000" stroke-dasharray="5,2" d="M58.7891,-290.5936C58.7891,-267.7989 58.7891,-228.2686 58.7891,-201.3925"/>
<polygon fill="#000000" stroke="#000000" points="62.2892,-201.0812 58.7891,-191.0813 55.2892,-201.0813 62.2892,-201.0812"/>
</g>
<!-- raw_6 -->
<g id="node7" class="node">
<title>raw_6</title>
<ellipse fill="none" stroke="#000000" cx="156.7891" cy="-173.0002" rx="27" ry="18"/>
<text text-anchor="middle" x="156.7891" y="-168.8002" font-family="Helvetica,sans-Serif" font-size="14.00" fill="#000000">raw</text>
</g>
<!-- prose_3&#45;&gt;raw_6 -->
<g id="edge6" class="edge">
<title>prose_3&#45;&gt;raw_6</title>
<path fill="none" stroke="#000000" stroke-dasharray="5,2" d="M166.3283,-290.5936C164.4792,-267.7989 161.2725,-228.2686 159.0923,-201.3925"/>
<polygon fill="#000000" stroke="#000000" points="162.553,-200.7655 158.2558,-191.0813 155.5759,-201.3316 162.553,-200.7655"/>
</g>
<!-- leaf_8 -->
<g id="node9" class="node">
<title>leaf_8</title>
<polygon fill="none" stroke="#c0c0c0" points="497.7891,-254.7005 201.7891,-254.7005 201.7891,-91.2998 497.7891,-91.2998 497.7891,-254.7005"/>
<text text-anchor="middle" x="349.7891" y="-239.4003" font-family="Inconsolata" font-size="14.00" fill="#000000">local dot = require &quot;lpegnode/dot&quot;</text>
<text text-anchor="middle" x="349.7891" y="-224.0002" font-family="Inconsolata" font-size="14.00" fill="#000000">local elpatt = require &quot;lpegnode/elpatt&quot;</text>
<text text-anchor="middle" x="349.7891" y="-208.6002" font-family="Inconsolata" font-size="14.00" fill="#000000">local node = require &quot;lpegnode/node&quot;</text>
<text text-anchor="middle" x="349.7891" y="-193.2002" font-family="Inconsolata" font-size="14.00" fill="#000000">local spec = require &quot;lpegnode/spec&quot;</text>
<text text-anchor="middle" x="349.7891" y="-145.8002" font-family="Inconsolata" font-size="14.00" fill="#000000">return { dot = dot,</text>
<text text-anchor="middle" x="349.7891" y="-130.4001" font-family="Inconsolata" font-size="14.00" fill="#000000"> &#160;&#160;&#160;&#160;elpatt = elpatt,</text>
<text text-anchor="middle" x="349.7891" y="-115.0001" font-family="Inconsolata" font-size="14.00" fill="#000000"> &#160;&#160;&#160;&#160;node = node,</text>
<text text-anchor="middle" x="349.7891" y="-99.6001" font-family="Inconsolata" font-size="14.00" fill="#000000"> &#160;&#160;&#160;&#160;spec = spec }</text>
</g>
<!-- codeblock_4&#45;&gt;leaf_8 -->
<g id="edge8" class="edge">
<title>codeblock_4&#45;&gt;leaf_8</title>
<path fill="none" stroke="#000000" stroke-dasharray="5,2" d="M319.4368,-290.5936C321.3056,-283.3533 323.6102,-274.4246 326.1075,-264.7493"/>
<polygon fill="#000000" stroke="#000000" points="329.5497,-265.4174 328.6601,-254.8599 322.7719,-263.6679 329.5497,-265.4174"/>
</g>
<!-- leaf_7 -->
<g id="node8" class="node">
<title>leaf_7</title>
<polygon fill="none" stroke="#c0c0c0" points="255.7891,-55.6015 57.7891,-55.6015 57.7891,.2015 255.7891,.2015 255.7891,-55.6015"/>
<text text-anchor="middle" x="156.7891" y="-8.2" font-family="Inconsolata" font-size="14.00" fill="#000000">Master module for library.</text>
</g>
<!-- raw_6&#45;&gt;leaf_7 -->
<g id="edge7" class="edge">
<title>raw_6&#45;&gt;leaf_7</title>
<path fill="none" stroke="#000000" stroke-dasharray="5,2" d="M156.7891,-154.8916C156.7891,-132.6682 156.7891,-94.399 156.7891,-65.6284"/>
<polygon fill="#000000" stroke="#000000" points="160.2892,-65.5058 156.7891,-55.5059 153.2892,-65.5059 160.2892,-65.5058"/>
</g>
</g>
</svg>