<?xml version="1.0" encoding="UTF-8" standalone="no"?>
<!DOCTYPE svg PUBLIC "-//W3C//DTD SVG 1.1//EN"
 "http://www.w3.org/Graphics/SVG/1.1/DTD/svg11.dtd">
<!-- Generated by graphviz version 2.40.1 (20161225.0304)
 -->
<!-- Title: hierarchy Pages: 1 -->
<svg width="506pt" height="463pt"
 viewBox="0.00 0.00 505.79 462.60" xmlns="http://www.w3.org/2000/svg" xmlns:xlink="http://www.w3.org/1999/xlink">
<g id="graph0" class="graph" transform="scale(1 1) rotate(0) translate(4 458.6003)">
<title>hierarchy</title>
<polygon fill="#ffffff" stroke="transparent" points="-4,4 -4,-458.6003 501.7891,-458.6003 501.7891,4 -4,4"/>
<!-- doc_0 -->
<g id="node1" class="node">
<title>doc_0</title>
<ellipse fill="none" stroke="#000000" cx="167.7891" cy="-436.6003" rx="42.1216" ry="18"/>
<text text-anchor="middle" x="167.7891" y="-432.4003" font-family="Helvetica,sans-Serif" font-size="14.00" fill="#000000">doc &#45; 15</text>
</g>
<!-- section_1 -->
<g id="node2" class="node">
<title>section_1</title>
<ellipse fill="none" stroke="#000000" cx="167.7891" cy="-364.6003" rx="60.9826" ry="18"/>
<text text-anchor="middle" x="167.7891" y="-360.4003" font-family="Helvetica,sans-Serif" font-size="14.00" fill="#000000">section: 1&#45;15</text>
</g>
<!-- doc_0&#45;&gt;section_1 -->
<g id="edge1" class="edge">
<title>doc_0&#45;&gt;section_1</title>
<path fill="none" stroke="#000000" stroke-dasharray="5,2" d="M167.7891,-418.4316C167.7891,-410.7312 167.7891,-401.5746 167.7891,-393.0169"/>
<polygon fill="#000000" stroke="#000000" points="171.2892,-393.0135 167.7891,-383.0135 164.2892,-393.0136 171.2892,-393.0135"/>
</g>
<!-- header_2 -->
<g id="node3" class="node">
<title>header_2</title>
<ellipse fill="none" stroke="#000000" cx="58.7891" cy="-292.6003" rx="58.5789" ry="18"/>
<text text-anchor="middle" x="58.7891" y="-288.4003" font-family="Helvetica,sans-Serif" font-size="14.00" fill="#000000">1 : lpegnode</text>
</g>
<!-- section_1&#45;&gt;header_2 -->
<g id="edge2" class="edge">
<title>section_1&#45;&gt;header_2</title>
<path fill="none" stroke="#000000" stroke-dasharray="5,2" d="M142.7823,-348.082C127.8273,-338.2035 108.6324,-325.5243 92.3682,-314.781"/>
<polygon fill="#000000" stroke="#000000" points="93.9526,-311.6329 83.6795,-309.0417 90.0944,-317.4737 93.9526,-311.6329"/>
</g>
<!-- prose_3 -->
<g id="node4" class="node">
<title>prose_3</title>
<ellipse fill="none" stroke="#000000" cx="167.7891" cy="-292.6003" rx="32.4585" ry="18"/>
<text text-anchor="middle" x="167.7891" y="-288.4003" font-family="Helvetica,sans-Serif" font-size="14.00" fill="#000000">prose</text>
</g>
<!-- section_1&#45;&gt;prose_3 -->
<g id="edge3" class="edge">
<title>section_1&#45;&gt;prose_3</title>
<path fill="none" stroke="#000000" stroke-dasharray="5,2" d="M167.7891,-346.4316C167.7891,-338.7312 167.7891,-329.5746 167.7891,-321.0169"/>
<polygon fill="#000000" stroke="#000000" points="171.2892,-321.0135 167.7891,-311.0135 164.2892,-321.0136 171.2892,-321.0135"/>
</g>
<!-- codeblock_4 -->
<g id="node5" class="node">
<title>codeblock_4</title>
<ellipse fill="none" stroke="#000000" cx="314.7891" cy="-292.6003" rx="72.5844" ry="18"/>
<text text-anchor="middle" x="314.7891" y="-288.4003" font-family="Helvetica,sans-Serif" font-size="14.00" fill="#000000">code block 5&#45;15</text>
</g>
<!-- section_1&#45;&gt;codeblock_4 -->
<g id="edge4" class="edge">
<title>section_1&#45;&gt;codeblock_4</title>
<path fill="none" stroke="#000000" stroke-dasharray="5,2" d="M199.3243,-349.1545C220.7733,-338.6488 249.3929,-324.6311 272.7722,-313.18"/>
<polygon fill="#000000" stroke="#000000" points="274.3354,-316.3117 281.7765,-308.7697 271.2563,-310.0252 274.3354,-316.3117"/>
</g>
<!-- leaf_5 -->
<g id="node6" class="node">
<title>leaf_5</title>
<polygon fill="none" stroke="#c0c0c0" points="101.7891,-183.0002 15.7891,-183.0002 15.7891,-147.0002 101.7891,-147.0002 101.7891,-183.0002"/>
<text text-anchor="middle" x="58.7891" y="-161.5002" font-family="Inconsolata" font-size="14.00" fill="#000000">* lpegnode</text>
</g>
<!-- header_2&#45;&gt;leaf_5 -->
<g id="edge5" class="edge">
<title>header_2&#45;&gt;leaf_5</title>
<path fill="none" stroke="#000000" stroke-dasharray="5,2" d="M58.7891,-274.5889C58.7891,-253.5246 58.7891,-218.3857 58.7891,-193.585"/>
<polygon fill="#000000" stroke="#000000" points="62.2892,-193.333 58.7891,-183.3331 55.2892,-193.3331 62.2892,-193.333"/>
</g>
<!-- raw_6 -->
<g id="node7" class="node">
<title>raw_6</title>
<ellipse fill="none" stroke="#000000" cx="156.7891" cy="-165.0002" rx="27" ry="18"/>
<text text-anchor="middle" x="156.7891" y="-160.8002" font-family="Helvetica,sans-Serif" font-size="14.00" fill="#000000">raw</text>
</g>
<!-- prose_3&#45;&gt;raw_6 -->
<g id="edge6" class="edge">
<title>prose_3&#45;&gt;raw_6</title>
<path fill="none" stroke="#000000" stroke-dasharray="5,2" d="M166.2364,-274.5889C164.4205,-253.5246 161.3913,-218.3857 159.2533,-193.585"/>
<polygon fill="#000000" stroke="#000000" points="162.7155,-192.9955 158.3695,-183.3331 155.7414,-193.5967 162.7155,-192.9955"/>
</g>
<!-- leaf_8 -->
<g id="node9" class="node">
<title>leaf_8</title>
<polygon fill="none" stroke="#c0c0c0" points="497.7891,-238.7005 201.7891,-238.7005 201.7891,-91.2998 497.7891,-91.2998 497.7891,-238.7005"/>
<text text-anchor="middle" x="349.7891" y="-223.4003" font-family="Inconsolata" font-size="14.00" fill="#000000">local dot = require &quot;lpegnode/dot&quot;</text>
<text text-anchor="middle" x="349.7891" y="-208.0002" font-family="Inconsolata" font-size="14.00" fill="#000000">local elpatt = require &quot;lpegnode/elpatt&quot;</text>
<text text-anchor="middle" x="349.7891" y="-192.6002" font-family="Inconsolata" font-size="14.00" fill="#000000">local node = require &quot;lpegnode/node&quot;</text>
<text text-anchor="middle" x="349.7891" y="-177.2002" font-family="Inconsolata" font-size="14.00" fill="#000000">local spec = require &quot;lpegnode/spec&quot;</text>
<text text-anchor="middle" x="349.7891" y="-145.8002" font-family="Inconsolata" font-size="14.00" fill="#000000">return { dot = dot,</text>
<text text-anchor="middle" x="349.7891" y="-130.4001" font-family="Inconsolata" font-size="14.00" fill="#000000"> &#160;&#160;&#160;&#160;elpatt = elpatt,</text>
<text text-anchor="middle" x="349.7891" y="-115.0001" font-family="Inconsolata" font-size="14.00" fill="#000000"> &#160;&#160;&#160;&#160;node = node,</text>
<text text-anchor="middle" x="349.7891" y="-99.6001" font-family="Inconsolata" font-size="14.00" fill="#000000"> &#160;&#160;&#160;&#160;spec = spec }</text>
</g>
<!-- codeblock_4&#45;&gt;leaf_8 -->
<g id="edge8" class="edge">
<title>codeblock_4&#45;&gt;leaf_8</title>
<path fill="none" stroke="#000000" stroke-dasharray="5,2" d="M319.7295,-274.5889C321.7363,-267.2727 324.2088,-258.2585 326.8665,-248.5693"/>
<polygon fill="#000000" stroke="#000000" points="330.3056,-249.2626 329.5755,-238.693 323.5549,-247.4109 330.3056,-249.2626"/>
</g>
<!-- leaf_7 -->
<g id="node8" class="node">
<title>leaf_7</title>
<polygon fill="none" stroke="#c0c0c0" points="255.7891,-55.6015 57.7891,-55.6015 57.7891,.2015 255.7891,.2015 255.7891,-55.6015"/>
<text text-anchor="middle" x="156.7891" y="-8.2" font-family="Inconsolata" font-size="14.00" fill="#000000">Master module for library.</text>
</g>
<!-- raw_6&#45;&gt;leaf_7 -->
<g id="edge7" class="edge">
<title>raw_6&#45;&gt;leaf_7</title>
<path fill="none" stroke="#000000" stroke-dasharray="5,2" d="M156.7891,-146.7678C156.7891,-126.1605 156.7891,-92.0451 156.7891,-65.6016"/>
<polygon fill="#000000" stroke="#000000" points="160.2892,-65.5261 156.7891,-55.5261 153.2892,-65.5261 160.2892,-65.5261"/>
</g>
</g>
</svg>