<?xml version="1.0" encoding="UTF-8" standalone="no"?>
<!DOCTYPE svg PUBLIC "-//W3C//DTD SVG 1.1//EN"
 "http://www.w3.org/Graphics/SVG/1.1/DTD/svg11.dtd">
<!-- Generated by graphviz version 2.40.1 (20161225.0304)
 -->
<!-- Title: lpegNode Pages: 1 -->
<svg width="520pt" height="509pt"
 viewBox="0.00 0.00 519.79 508.80" xmlns="http://www.w3.org/2000/svg" xmlns:xlink="http://www.w3.org/1999/xlink">
<g id="graph0" class="graph" transform="scale(1 1) rotate(0) translate(4 504.8004)">
<title>lpegNode</title>
<polygon fill="#ffffff" stroke="transparent" points="-4,4 -4,-504.8004 515.7891,-504.8004 515.7891,4 -4,4"/>
<!-- doc_0 -->
<g id="node1" class="node">
<title>doc_0</title>
<ellipse fill="none" stroke="#000000" cx="167.7891" cy="-482.8004" rx="42.1216" ry="18"/>
<text text-anchor="middle" x="167.7891" y="-478.6004" font-family="Helvetica,sans-Serif" font-size="14.00" fill="#000000">doc &#45; 18</text>
</g>
<!-- section_1 -->
<g id="node2" class="node">
<title>section_1</title>
<ellipse fill="none" stroke="#000000" cx="167.7891" cy="-410.8004" rx="60.9826" ry="18"/>
<text text-anchor="middle" x="167.7891" y="-406.6004" font-family="Helvetica,sans-Serif" font-size="14.00" fill="#000000">section: 1&#45;18</text>
</g>
<!-- doc_0&#45;&gt;section_1 -->
<g id="edge1" class="edge">
<title>doc_0&#45;&gt;section_1</title>
<path fill="none" stroke="#000000" stroke-dasharray="5,2" d="M167.7891,-464.6317C167.7891,-456.9313 167.7891,-447.7747 167.7891,-439.217"/>
<polygon fill="#000000" stroke="#000000" points="171.2892,-439.2136 167.7891,-429.2136 164.2892,-439.2137 171.2892,-439.2136"/>
</g>
<!-- header_2 -->
<g id="node3" class="node">
<title>header_2</title>
<ellipse fill="none" stroke="#000000" cx="58.7891" cy="-338.8004" rx="58.5789" ry="18"/>
<text text-anchor="middle" x="58.7891" y="-334.6004" font-family="Helvetica,sans-Serif" font-size="14.00" fill="#000000">1 : lpegnode</text>
</g>
<!-- section_1&#45;&gt;header_2 -->
<g id="edge2" class="edge">
<title>section_1&#45;&gt;header_2</title>
<path fill="none" stroke="#000000" stroke-dasharray="5,2" d="M142.7823,-394.2821C127.8273,-384.4036 108.6324,-371.7244 92.3682,-360.9811"/>
<polygon fill="#000000" stroke="#000000" points="93.9526,-357.833 83.6795,-355.2418 90.0944,-363.6738 93.9526,-357.833"/>
</g>
<!-- prose_3 -->
<g id="node4" class="node">
<title>prose_3</title>
<ellipse fill="none" stroke="#000000" cx="167.7891" cy="-338.8004" rx="32.4585" ry="18"/>
<text text-anchor="middle" x="167.7891" y="-334.6004" font-family="Helvetica,sans-Serif" font-size="14.00" fill="#000000">prose</text>
</g>
<!-- section_1&#45;&gt;prose_3 -->
<g id="edge3" class="edge">
<title>section_1&#45;&gt;prose_3</title>
<path fill="none" stroke="#000000" stroke-dasharray="5,2" d="M167.7891,-392.6317C167.7891,-384.9313 167.7891,-375.7747 167.7891,-367.217"/>
<polygon fill="#000000" stroke="#000000" points="171.2892,-367.2136 167.7891,-357.2136 164.2892,-367.2137 171.2892,-367.2136"/>
</g>
<!-- codeblock_4 -->
<g id="node5" class="node">
<title>codeblock_4</title>
<ellipse fill="none" stroke="#000000" cx="318.7891" cy="-338.8004" rx="72.5844" ry="18"/>
<text text-anchor="middle" x="318.7891" y="-334.6004" font-family="Helvetica,sans-Serif" font-size="14.00" fill="#000000">code block 5&#45;18</text>
</g>
<!-- section_1&#45;&gt;codeblock_4 -->
<g id="edge4" class="edge">
<title>section_1&#45;&gt;codeblock_4</title>
<path fill="none" stroke="#000000" stroke-dasharray="5,2" d="M200.1824,-395.3546C222.2916,-384.8124 251.8176,-370.7338 275.8788,-359.2609"/>
<polygon fill="#000000" stroke="#000000" points="277.6217,-362.3074 285.1417,-354.8441 274.6089,-355.9889 277.6217,-362.3074"/>
</g>
<!-- leaf_5 -->
<g id="node6" class="node">
<title>leaf_5</title>
<polygon fill="none" stroke="#c0c0c0" points="101.7891,-206.1002 15.7891,-206.1002 15.7891,-170.1002 101.7891,-170.1002 101.7891,-206.1002"/>
<text text-anchor="middle" x="58.7891" y="-184.6002" font-family="Inconsolata" font-size="14.00" fill="#000000">* lpegnode</text>
</g>
<!-- header_2&#45;&gt;leaf_5 -->
<g id="edge5" class="edge">
<title>header_2&#45;&gt;leaf_5</title>
<path fill="none" stroke="#000000" stroke-dasharray="5,2" d="M58.7891,-320.6224C58.7891,-294.7121 58.7891,-246.9219 58.7891,-216.3673"/>
<polygon fill="#000000" stroke="#000000" points="62.2892,-216.3426 58.7891,-206.3426 55.2892,-216.3427 62.2892,-216.3426"/>
</g>
<!-- raw_6 -->
<g id="node7" class="node">
<title>raw_6</title>
<ellipse fill="none" stroke="#000000" cx="156.7891" cy="-188.1002" rx="27" ry="18"/>
<text text-anchor="middle" x="156.7891" y="-183.9002" font-family="Helvetica,sans-Serif" font-size="14.00" fill="#000000">raw</text>
</g>
<!-- prose_3&#45;&gt;raw_6 -->
<g id="edge6" class="edge">
<title>prose_3&#45;&gt;raw_6</title>
<path fill="none" stroke="#000000" stroke-dasharray="5,2" d="M166.4622,-320.6224C164.5709,-294.7121 161.0826,-246.9219 158.8524,-216.3673"/>
<polygon fill="#000000" stroke="#000000" points="162.3394,-216.0613 158.1206,-206.3426 155.358,-216.5709 162.3394,-216.0613"/>
</g>
<!-- leaf_8 -->
<g id="node9" class="node">
<title>leaf_8</title>
<polygon fill="none" stroke="#c0c0c0" points="511.7891,-285.001 201.7891,-285.001 201.7891,-91.1994 511.7891,-91.1994 511.7891,-285.001"/>
<text text-anchor="middle" x="356.7891" y="-269.6004" font-family="Inconsolata" font-size="14.00" fill="#000000">local dot &#160;&#160;&#160;= &#160;require &quot;espalier/dot&quot;</text>
<text text-anchor="middle" x="356.7891" y="-254.2003" font-family="Inconsolata" font-size="14.00" fill="#000000">local elpatt = &#160;require &quot;espalier/elpatt&quot;</text>
<text text-anchor="middle" x="356.7891" y="-238.8003" font-family="Inconsolata" font-size="14.00" fill="#000000">local Node &#160;&#160;= &#160;require &quot;espalier/node&quot;</text>
<text text-anchor="middle" x="356.7891" y="-223.4003" font-family="Inconsolata" font-size="14.00" fill="#000000">local Spec &#160;&#160;= &#160;require &quot;espalier/spec&quot;</text>
<text text-anchor="middle" x="356.7891" y="-208.0002" font-family="Inconsolata" font-size="14.00" fill="#000000">local Phrase = &#160;require &quot;espalier/phrase&quot;</text>
<text text-anchor="middle" x="356.7891" y="-192.6002" font-family="Inconsolata" font-size="14.00" fill="#000000">local Grammar = require &quot;espalier/grammar&quot;</text>
<text text-anchor="middle" x="356.7891" y="-177.2002" font-family="Inconsolata" font-size="14.00" fill="#000000">local Stator = &#160;require &quot;espalier/stator&quot;</text>
<text text-anchor="middle" x="356.7891" y="-145.8002" font-family="Inconsolata" font-size="14.00" fill="#000000">return { dot &#160;&#160;&#160;= &#160;dot,</text>
<text text-anchor="middle" x="356.7891" y="-130.4001" font-family="Inconsolata" font-size="14.00" fill="#000000"> &#160;&#160;&#160;&#160;&#160;&#160;elpatt = &#160;elpatt,</text>
<text text-anchor="middle" x="356.7891" y="-115.0001" font-family="Inconsolata" font-size="14.00" fill="#000000"> &#160;&#160;&#160;&#160;&#160;&#160;node &#160;&#160;= &#160;Node,</text>
<text text-anchor="middle" x="356.7891" y="-99.6001" font-family="Inconsolata" font-size="14.00" fill="#000000"> &#160;&#160;&#160;&#160;&#160;&#160;spec &#160;&#160;= &#160;Spec }</text>
</g>
<!-- codeblock_4&#45;&gt;leaf_8 -->
<g id="edge8" class="edge">
<title>codeblock_4&#45;&gt;leaf_8</title>
<path fill="none" stroke="#000000" stroke-dasharray="5,2" d="M323.3728,-320.6224C325.179,-313.4594 327.4068,-304.6241 329.8479,-294.9431"/>
<polygon fill="#000000" stroke="#000000" points="333.3011,-295.5631 332.3524,-285.0108 326.5136,-293.8515 333.3011,-295.5631"/>
</g>
<!-- leaf_7 -->
<g id="node8" class="node">
<title>leaf_7</title>
<polygon fill="none" stroke="#c0c0c0" points="255.7891,-55.6015 57.7891,-55.6015 57.7891,.2015 255.7891,.2015 255.7891,-55.6015"/>
<text text-anchor="middle" x="156.7891" y="-8.2" font-family="Inconsolata" font-size="14.00" fill="#000000">Master module for library.</text>
</g>
<!-- raw_6&#45;&gt;leaf_7 -->
<g id="edge7" class="edge">
<title>raw_6&#45;&gt;leaf_7</title>
<path fill="none" stroke="#000000" stroke-dasharray="5,2" d="M156.7891,-170.0121C156.7891,-144.8759 156.7891,-98.7655 156.7891,-65.8423"/>
<polygon fill="#000000" stroke="#000000" points="160.2892,-65.6596 156.7891,-55.6597 153.2892,-65.6597 160.2892,-65.6596"/>
</g>
</g>
</svg>
