<?xml version="1.0" encoding="UTF-8" standalone="no"?>
<!DOCTYPE svg PUBLIC "-//W3C//DTD SVG 1.1//EN"
 "http://www.w3.org/Graphics/SVG/1.1/DTD/svg11.dtd">
<!-- Generated by graphviz version 2.40.1 (20161225.0304)
 -->
<!-- Title: lpegNode Pages: 1 -->
<svg width="275pt" height="367pt"
 viewBox="0.00 0.00 274.79 367.40" xmlns="http://www.w3.org/2000/svg" xmlns:xlink="http://www.w3.org/1999/xlink">
<g id="graph0" class="graph" transform="scale(1 1) rotate(0) translate(4 363.4)">
<title>lpegNode</title>
<polygon fill="#ffffff" stroke="transparent" points="-4,4 -4,-363.4 270.7891,-363.4 270.7891,4 -4,4"/>
<!-- doc_0 -->
<g id="node1" class="node">
<title>doc_0</title>
<ellipse fill="none" stroke="#000000" cx="112.7891" cy="-341.4" rx="37.2854" ry="18"/>
<text text-anchor="middle" x="112.7891" y="-337.2" font-family="Helvetica,sans-Serif" font-size="14.00" fill="#000000">doc &#45; 5</text>
</g>
<!-- section_1 -->
<g id="node2" class="node">
<title>section_1</title>
<ellipse fill="none" stroke="#000000" cx="112.7891" cy="-269.4" rx="55.6456" ry="18"/>
<text text-anchor="middle" x="112.7891" y="-265.2" font-family="Helvetica,sans-Serif" font-size="14.00" fill="#000000">section: 1&#45;5</text>
</g>
<!-- doc_0&#45;&gt;section_1 -->
<g id="edge1" class="edge">
<title>doc_0&#45;&gt;section_1</title>
<path fill="none" stroke="#000000" stroke-dasharray="5,2" d="M112.7891,-323.2314C112.7891,-315.531 112.7891,-306.3744 112.7891,-297.8167"/>
<polygon fill="#000000" stroke="#000000" points="116.2892,-297.8133 112.7891,-287.8133 109.2892,-297.8133 116.2892,-297.8133"/>
</g>
<!-- header_2 -->
<g id="node3" class="node">
<title>header_2</title>
<ellipse fill="none" stroke="#000000" cx="58.7891" cy="-197.4" rx="58.5789" ry="18"/>
<text text-anchor="middle" x="58.7891" y="-193.2" font-family="Helvetica,sans-Serif" font-size="14.00" fill="#000000">1 : lpegnode</text>
</g>
<!-- section_1&#45;&gt;header_2 -->
<g id="edge2" class="edge">
<title>section_1&#45;&gt;header_2</title>
<path fill="none" stroke="#000000" stroke-dasharray="5,2" d="M99.4407,-251.6023C93.0323,-243.0576 85.2314,-232.6564 78.1833,-223.259"/>
<polygon fill="#000000" stroke="#000000" points="80.7839,-220.8931 71.9838,-214.9931 75.1839,-225.0931 80.7839,-220.8931"/>
</g>
<!-- prose_3 -->
<g id="node4" class="node">
<title>prose_3</title>
<ellipse fill="none" stroke="#000000" cx="167.7891" cy="-197.4" rx="32.4585" ry="18"/>
<text text-anchor="middle" x="167.7891" y="-193.2" font-family="Helvetica,sans-Serif" font-size="14.00" fill="#000000">prose</text>
</g>
<!-- section_1&#45;&gt;prose_3 -->
<g id="edge3" class="edge">
<title>section_1&#45;&gt;prose_3</title>
<path fill="none" stroke="#000000" stroke-dasharray="5,2" d="M126.3846,-251.6023C133.1752,-242.7128 141.5007,-231.8138 148.9009,-222.1263"/>
<polygon fill="#000000" stroke="#000000" points="151.815,-224.0772 155.1041,-214.0059 146.2523,-219.8279 151.815,-224.0772"/>
</g>
<!-- leaf_4 -->
<g id="node5" class="node">
<title>leaf_4</title>
<polygon fill="none" stroke="#c0c0c0" points="101.7891,-143.4 15.7891,-143.4 15.7891,-107.4 101.7891,-107.4 101.7891,-143.4"/>
<text text-anchor="middle" x="58.7891" y="-121.9" font-family="Inconsolata" font-size="14.00" fill="#000000">* lpegnode</text>
</g>
<!-- header_2&#45;&gt;leaf_4 -->
<g id="edge4" class="edge">
<title>header_2&#45;&gt;leaf_4</title>
<path fill="none" stroke="#000000" stroke-dasharray="5,2" d="M58.7891,-179.2314C58.7891,-171.531 58.7891,-162.3744 58.7891,-153.8167"/>
<polygon fill="#000000" stroke="#000000" points="62.2892,-153.8133 58.7891,-143.8133 55.2892,-153.8133 62.2892,-153.8133"/>
</g>
<!-- raw_5 -->
<g id="node6" class="node">
<title>raw_5</title>
<ellipse fill="none" stroke="#000000" cx="167.7891" cy="-125.4" rx="27" ry="18"/>
<text text-anchor="middle" x="167.7891" y="-121.2" font-family="Helvetica,sans-Serif" font-size="14.00" fill="#000000">raw</text>
</g>
<!-- prose_3&#45;&gt;raw_5 -->
<g id="edge5" class="edge">
<title>prose_3&#45;&gt;raw_5</title>
<path fill="none" stroke="#000000" stroke-dasharray="5,2" d="M167.7891,-179.2314C167.7891,-171.531 167.7891,-162.3744 167.7891,-153.8167"/>
<polygon fill="#000000" stroke="#000000" points="171.2892,-153.8133 167.7891,-143.8133 164.2892,-153.8133 171.2892,-153.8133"/>
</g>
<!-- leaf_6 -->
<g id="node7" class="node">
<title>leaf_6</title>
<polygon fill="none" stroke="#c0c0c0" points="266.7891,-71.6012 68.7891,-71.6012 68.7891,.2011 266.7891,.2011 266.7891,-71.6012"/>
<text text-anchor="middle" x="167.7891" y="-24.2" font-family="Inconsolata" font-size="14.00" fill="#000000">Master module for library.</text>
</g>
<!-- raw_5&#45;&gt;leaf_6 -->
<g id="edge6" class="edge">
<title>raw_5&#45;&gt;leaf_6</title>
<path fill="none" stroke="#000000" stroke-dasharray="5,2" d="M167.7891,-107.2479C167.7891,-99.809 167.7891,-90.8294 167.7891,-81.7829"/>
<polygon fill="#000000" stroke="#000000" points="171.2892,-81.6192 167.7891,-71.6192 164.2892,-81.6192 171.2892,-81.6192"/>
</g>
</g>
</svg>
