<?xml version="1.0" encoding="UTF-8" standalone="no"?>
<!DOCTYPE svg PUBLIC "-//W3C//DTD SVG 1.1//EN"
 "http://www.w3.org/Graphics/SVG/1.1/DTD/svg11.dtd">
<!-- Generated by graphviz version 2.40.1 (20161225.0304)
 -->
<!-- Title: lpegNode Pages: 1 -->
<svg width="3772pt" height="565pt"
 viewBox="0.00 0.00 3772.00 565.40" xmlns="http://www.w3.org/2000/svg" xmlns:xlink="http://www.w3.org/1999/xlink">
<g id="graph0" class="graph" transform="scale(1 1) rotate(0) translate(4 561.4003)">
<title>lpegNode</title>
<polygon fill="#ffffff" stroke="transparent" points="-4,4 -4,-561.4003 3768,-561.4003 3768,4 -4,4"/>
<!-- doc_0 -->
<g id="node1" class="node">
<title>doc_0</title>
<ellipse fill="none" stroke="#000000" cx="1450.5" cy="-539.4003" rx="42.1216" ry="18"/>
<text text-anchor="middle" x="1450.5" y="-535.2003" font-family="Helvetica,sans-Serif" font-size="14.00" fill="#000000">doc &#45; 82</text>
</g>
<!-- section_1 -->
<g id="node2" class="node">
<title>section_1</title>
<ellipse fill="none" stroke="#000000" cx="1450.5" cy="-467.4003" rx="60.9826" ry="18"/>
<text text-anchor="middle" x="1450.5" y="-463.2003" font-family="Helvetica,sans-Serif" font-size="14.00" fill="#000000">section: 1&#45;65</text>
</g>
<!-- doc_0&#45;&gt;section_1 -->
<g id="edge1" class="edge">
<title>doc_0&#45;&gt;section_1</title>
<path fill="none" stroke="#000000" stroke-dasharray="5,2" d="M1450.5,-521.2317C1450.5,-513.5313 1450.5,-504.3747 1450.5,-495.817"/>
<polygon fill="#000000" stroke="#000000" points="1454.0001,-495.8136 1450.5,-485.8136 1447.0001,-495.8136 1454.0001,-495.8136"/>
</g>
<!-- header_2 -->
<g id="node3" class="node">
<title>header_2</title>
<ellipse fill="none" stroke="#000000" cx="271.5" cy="-395.4003" rx="50.3327" ry="18"/>
<text text-anchor="middle" x="271.5" y="-391.2003" font-family="Helvetica,sans-Serif" font-size="14.00" fill="#000000">1 : Phrase</text>
</g>
<!-- section_1&#45;&gt;header_2 -->
<g id="edge2" class="edge">
<title>section_1&#45;&gt;header_2</title>
<path fill="none" stroke="#000000" stroke-dasharray="5,2" d="M1390.3677,-464.3996C1240.5291,-456.829 838.4771,-435.9433 503.5,-413.4003 444.7307,-409.4453 377.6495,-404.1567 330.7874,-400.3364"/>
<polygon fill="#000000" stroke="#000000" points="331.0617,-396.8472 320.8097,-399.5202 330.491,-403.8239 331.0617,-396.8472"/>
</g>
<!-- prose_3 -->
<g id="node4" class="node">
<title>prose_3</title>
<ellipse fill="none" stroke="#000000" cx="544.5" cy="-395.4003" rx="32.4585" ry="18"/>
<text text-anchor="middle" x="544.5" y="-391.2003" font-family="Helvetica,sans-Serif" font-size="14.00" fill="#000000">prose</text>
</g>
<!-- section_1&#45;&gt;prose_3 -->
<g id="edge3" class="edge">
<title>section_1&#45;&gt;prose_3</title>
<path fill="none" stroke="#000000" stroke-dasharray="5,2" d="M1390.2632,-464.6966C1259.27,-458.494 938.7825,-441.5691 671.5,-413.4003 642.7236,-410.3676 610.4408,-405.7763 585.6245,-401.9898"/>
<polygon fill="#000000" stroke="#000000" points="585.8951,-398.4902 575.4781,-400.4232 584.8269,-405.4082 585.8951,-398.4902"/>
</g>
<!-- prose_4 -->
<g id="node5" class="node">
<title>prose_4</title>
<ellipse fill="none" stroke="#000000" cx="712.5" cy="-395.4003" rx="32.4585" ry="18"/>
<text text-anchor="middle" x="712.5" y="-391.2003" font-family="Helvetica,sans-Serif" font-size="14.00" fill="#000000">prose</text>
</g>
<!-- section_1&#45;&gt;prose_4 -->
<g id="edge4" class="edge">
<title>section_1&#45;&gt;prose_4</title>
<path fill="none" stroke="#000000" stroke-dasharray="5,2" d="M1392.5904,-461.7506C1249.1294,-447.7544 879.8271,-411.7249 754.689,-399.5163"/>
<polygon fill="#000000" stroke="#000000" points="754.6737,-395.9983 744.3811,-398.5107 753.994,-402.9652 754.6737,-395.9983"/>
</g>
<!-- prose_5 -->
<g id="node6" class="node">
<title>prose_5</title>
<ellipse fill="none" stroke="#000000" cx="1270.5" cy="-395.4003" rx="32.4585" ry="18"/>
<text text-anchor="middle" x="1270.5" y="-391.2003" font-family="Helvetica,sans-Serif" font-size="14.00" fill="#000000">prose</text>
</g>
<!-- section_1&#45;&gt;prose_5 -->
<g id="edge5" class="edge">
<title>section_1&#45;&gt;prose_5</title>
<path fill="none" stroke="#000000" stroke-dasharray="5,2" d="M1414.0743,-452.8301C1382.7432,-440.2976 1337.7927,-422.3174 1306.5663,-409.8269"/>
<polygon fill="#000000" stroke="#000000" points="1307.5294,-406.4426 1296.9448,-405.9783 1304.9297,-412.9419 1307.5294,-406.4426"/>
</g>
<!-- codeblock_6 -->
<g id="node7" class="node">
<title>codeblock_6</title>
<ellipse fill="none" stroke="#000000" cx="1450.5" cy="-395.4003" rx="77.4211" ry="18"/>
<text text-anchor="middle" x="1450.5" y="-391.2003" font-family="Helvetica,sans-Serif" font-size="14.00" fill="#000000">code block 12&#45;14</text>
</g>
<!-- section_1&#45;&gt;codeblock_6 -->
<g id="edge6" class="edge">
<title>section_1&#45;&gt;codeblock_6</title>
<path fill="none" stroke="#000000" stroke-dasharray="5,2" d="M1450.5,-449.2317C1450.5,-441.5313 1450.5,-432.3747 1450.5,-423.817"/>
<polygon fill="#000000" stroke="#000000" points="1454.0001,-423.8136 1450.5,-413.8136 1447.0001,-423.8136 1454.0001,-423.8136"/>
</g>
<!-- section_7 -->
<g id="node8" class="node">
<title>section_7</title>
<ellipse fill="none" stroke="#000000" cx="1721.5" cy="-395.4003" rx="65.8187" ry="18"/>
<text text-anchor="middle" x="1721.5" y="-391.2003" font-family="Helvetica,sans-Serif" font-size="14.00" fill="#000000">section: 17&#45;34</text>
</g>
<!-- section_1&#45;&gt;section_7 -->
<g id="edge7" class="edge">
<title>section_1&#45;&gt;section_7</title>
<path fill="none" stroke="#000000" stroke-dasharray="5,2" d="M1495.8593,-455.3492C1542.1928,-443.0392 1614.2611,-423.8918 1664.4398,-410.5603"/>
<polygon fill="#000000" stroke="#000000" points="1665.4035,-413.9257 1674.1695,-407.9752 1663.6061,-407.1604 1665.4035,-413.9257"/>
</g>
<!-- section_8 -->
<g id="node9" class="node">
<title>section_8</title>
<ellipse fill="none" stroke="#000000" cx="2113.5" cy="-395.4003" rx="65.8187" ry="18"/>
<text text-anchor="middle" x="2113.5" y="-391.2003" font-family="Helvetica,sans-Serif" font-size="14.00" fill="#000000">section: 35&#45;50</text>
</g>
<!-- section_1&#45;&gt;section_8 -->
<g id="edge8" class="edge">
<title>section_1&#45;&gt;section_8</title>
<path fill="none" stroke="#000000" stroke-dasharray="5,2" d="M1507.6008,-461.1993C1628.3675,-448.0844 1909.433,-417.5615 2041.944,-403.1711"/>
<polygon fill="#000000" stroke="#000000" points="2042.429,-406.6391 2051.9927,-402.0799 2041.6732,-399.68 2042.429,-406.6391"/>
</g>
<!-- section_9 -->
<g id="node10" class="node">
<title>section_9</title>
<ellipse fill="none" stroke="#000000" cx="2532.5" cy="-395.4003" rx="65.8187" ry="18"/>
<text text-anchor="middle" x="2532.5" y="-391.2003" font-family="Helvetica,sans-Serif" font-size="14.00" fill="#000000">section: 51&#45;65</text>
</g>
<!-- section_1&#45;&gt;section_9 -->
<g id="edge9" class="edge">
<title>section_1&#45;&gt;section_9</title>
<path fill="none" stroke="#000000" stroke-dasharray="5,2" d="M1509.8273,-463.4525C1693.9288,-451.2018 2255.2741,-413.8479 2458.2603,-400.3405"/>
<polygon fill="#000000" stroke="#000000" points="2458.7739,-403.8142 2468.5194,-399.6578 2458.3091,-396.8296 2458.7739,-403.8142"/>
</g>
<!-- section_10 -->
<g id="node11" class="node">
<title>section_10</title>
<ellipse fill="none" stroke="#000000" cx="3071.5" cy="-395.4003" rx="65.8187" ry="18"/>
<text text-anchor="middle" x="3071.5" y="-391.2003" font-family="Helvetica,sans-Serif" font-size="14.00" fill="#000000">section: 66&#45;82</text>
</g>
<!-- section_1&#45;&gt;section_10 -->
<g id="edge10" class="edge">
<title>section_1&#45;&gt;section_10</title>
<path fill="none" stroke="#000000" stroke-dasharray="5,2" d="M1510.5998,-464.7309C1760.7826,-453.6185 2719.4541,-411.0372 2996.2593,-398.7423"/>
<polygon fill="#000000" stroke="#000000" points="2996.7612,-402.2236 3006.5961,-398.2832 2996.4506,-395.2305 2996.7612,-402.2236"/>
</g>
<!-- leaf_11 -->
<g id="node12" class="node">
<title>leaf_11</title>
<polygon fill="none" stroke="#c0c0c0" points="296.5,-341.4003 224.5,-341.4003 224.5,-305.4003 296.5,-305.4003 296.5,-341.4003"/>
<text text-anchor="middle" x="260.5" y="-319.9004" font-family="Inconsolata" font-size="14.00" fill="#000000">* Phrase</text>
</g>
<!-- header_2&#45;&gt;leaf_11 -->
<g id="edge11" class="edge">
<title>header_2&#45;&gt;leaf_11</title>
<path fill="none" stroke="#000000" stroke-dasharray="5,2" d="M268.7242,-377.2317C267.5478,-369.5313 266.1489,-360.3747 264.8414,-351.817"/>
<polygon fill="#000000" stroke="#000000" points="268.2833,-351.1703 263.3131,-341.8136 261.3636,-352.2275 268.2833,-351.1703"/>
</g>
<!-- raw_12 -->
<g id="node13" class="node">
<title>raw_12</title>
<ellipse fill="none" stroke="#000000" cx="341.5" cy="-323.4003" rx="27" ry="18"/>
<text text-anchor="middle" x="341.5" y="-319.2003" font-family="Helvetica,sans-Serif" font-size="14.00" fill="#000000">raw</text>
</g>
<!-- prose_3&#45;&gt;raw_12 -->
<g id="edge12" class="edge">
<title>prose_3&#45;&gt;raw_12</title>
<path fill="none" stroke="#000000" stroke-dasharray="5,2" d="M515.362,-387.4282C481.6565,-377.8754 424.7415,-360.7196 377.5,-341.4003 375.7052,-340.6664 373.8765,-339.88 372.0423,-339.0612"/>
<polygon fill="#000000" stroke="#000000" points="373.4965,-335.8774 362.9576,-334.79 370.5181,-342.2122 373.4965,-335.8774"/>
</g>
<!-- raw_14 -->
<g id="node15" class="node">
<title>raw_14</title>
<ellipse fill="none" stroke="#000000" cx="413.5" cy="-323.4003" rx="27" ry="18"/>
<text text-anchor="middle" x="413.5" y="-319.2003" font-family="Helvetica,sans-Serif" font-size="14.00" fill="#000000">raw</text>
</g>
<!-- prose_4&#45;&gt;raw_14 -->
<g id="edge14" class="edge">
<title>prose_4&#45;&gt;raw_14</title>
<path fill="none" stroke="#000000" stroke-dasharray="5,2" d="M680.6159,-391.5892C630.4129,-384.9852 530.3326,-369.3658 449.5,-341.4003 447.618,-340.7492 445.7088,-340.02 443.8018,-339.2381"/>
<polygon fill="#000000" stroke="#000000" points="444.9765,-335.9284 434.4217,-335.0077 442.0986,-342.3095 444.9765,-335.9284"/>
</g>
<!-- link_15 -->
<g id="node16" class="node">
<title>link_15</title>
<ellipse fill="none" stroke="#000000" cx="485.5" cy="-323.4003" rx="27" ry="18"/>
<text text-anchor="middle" x="485.5" y="-319.2003" font-family="Helvetica,sans-Serif" font-size="14.00" fill="#000000">link</text>
</g>
<!-- prose_4&#45;&gt;link_15 -->
<g id="edge15" class="edge">
<title>prose_4&#45;&gt;link_15</title>
<path fill="none" stroke="#000000" stroke-dasharray="5,2" d="M684.2093,-386.4271C642.4427,-373.1795 564.3979,-348.4252 519.552,-334.201"/>
<polygon fill="#000000" stroke="#000000" points="520.5668,-330.8511 509.9766,-331.1638 518.4504,-337.5235 520.5668,-330.8511"/>
</g>
<!-- raw_16 -->
<g id="node17" class="node">
<title>raw_16</title>
<ellipse fill="none" stroke="#000000" cx="733.5" cy="-323.4003" rx="27" ry="18"/>
<text text-anchor="middle" x="733.5" y="-319.2003" font-family="Helvetica,sans-Serif" font-size="14.00" fill="#000000">raw</text>
</g>
<!-- prose_4&#45;&gt;raw_16 -->
<g id="edge16" class="edge">
<title>prose_4&#45;&gt;raw_16</title>
<path fill="none" stroke="#000000" stroke-dasharray="5,2" d="M717.691,-377.6026C720.0384,-369.5544 722.8662,-359.8591 725.4772,-350.907"/>
<polygon fill="#000000" stroke="#000000" points="728.8559,-351.8229 728.2959,-341.2429 722.1359,-349.8629 728.8559,-351.8229"/>
</g>
<!-- raw_23 -->
<g id="node24" class="node">
<title>raw_23</title>
<ellipse fill="none" stroke="#000000" cx="1218.5" cy="-323.4003" rx="27" ry="18"/>
<text text-anchor="middle" x="1218.5" y="-319.2003" font-family="Helvetica,sans-Serif" font-size="14.00" fill="#000000">raw</text>
</g>
<!-- prose_5&#45;&gt;raw_23 -->
<g id="edge23" class="edge">
<title>prose_5&#45;&gt;raw_23</title>
<path fill="none" stroke="#000000" stroke-dasharray="5,2" d="M1258.4395,-378.7011C1251.942,-369.7047 1243.7956,-358.4251 1236.5577,-348.4033"/>
<polygon fill="#000000" stroke="#000000" points="1239.1875,-346.0666 1230.4951,-340.009 1233.5127,-350.165 1239.1875,-346.0666"/>
</g>
<!-- leaf_25 -->
<g id="node26" class="node">
<title>leaf_25</title>
<polygon fill="none" stroke="#c0c0c0" points="1637,-341.4003 1264,-341.4003 1264,-305.4003 1637,-305.4003 1637,-341.4003"/>
<text text-anchor="middle" x="1450.5" y="-319.9004" font-family="Inconsolata" font-size="14.00" fill="#000000">local Phrase = setmetatable({}, {__index = phrase})</text>
</g>
<!-- codeblock_6&#45;&gt;leaf_25 -->
<g id="edge25" class="edge">
<title>codeblock_6&#45;&gt;leaf_25</title>
<path fill="none" stroke="#000000" stroke-dasharray="5,2" d="M1450.5,-377.2317C1450.5,-369.5313 1450.5,-360.3747 1450.5,-351.817"/>
<polygon fill="#000000" stroke="#000000" points="1454.0001,-351.8136 1450.5,-341.8136 1447.0001,-351.8136 1454.0001,-351.8136"/>
</g>
<!-- header_26 -->
<g id="node27" class="node">
<title>header_26</title>
<ellipse fill="none" stroke="#000000" cx="1682.5" cy="-323.4003" rx="27.1216" ry="18"/>
<text text-anchor="middle" x="1682.5" y="-319.2003" font-family="Helvetica,sans-Serif" font-size="14.00" fill="#000000">2 : ..</text>
</g>
<!-- section_7&#45;&gt;header_26 -->
<g id="edge26" class="edge">
<title>section_7&#45;&gt;header_26</title>
<path fill="none" stroke="#000000" stroke-dasharray="5,2" d="M1711.6587,-377.2317C1707.1703,-368.9455 1701.7685,-358.973 1696.8405,-349.8751"/>
<polygon fill="#000000" stroke="#000000" points="1699.775,-347.944 1691.9346,-340.8181 1693.62,-351.278 1699.775,-347.944"/>
</g>
<!-- prose_27 -->
<g id="node28" class="node">
<title>prose_27</title>
<ellipse fill="none" stroke="#000000" cx="1760.5" cy="-323.4003" rx="32.4585" ry="18"/>
<text text-anchor="middle" x="1760.5" y="-319.2003" font-family="Helvetica,sans-Serif" font-size="14.00" fill="#000000">prose</text>
</g>
<!-- section_7&#45;&gt;prose_27 -->
<g id="edge27" class="edge">
<title>section_7&#45;&gt;prose_27</title>
<path fill="none" stroke="#000000" stroke-dasharray="5,2" d="M1731.3413,-377.2317C1735.8297,-368.9455 1741.2315,-358.973 1746.1595,-349.8751"/>
<polygon fill="#000000" stroke="#000000" points="1749.38,-351.278 1751.0654,-340.8181 1743.225,-347.944 1749.38,-351.278"/>
</g>
<!-- codeblock_28 -->
<g id="node29" class="node">
<title>codeblock_28</title>
<ellipse fill="none" stroke="#000000" cx="1895.5" cy="-323.4003" rx="77.4211" ry="18"/>
<text text-anchor="middle" x="1895.5" y="-319.2003" font-family="Helvetica,sans-Serif" font-size="14.00" fill="#000000">code block 23&#45;32</text>
</g>
<!-- section_7&#45;&gt;codeblock_28 -->
<g id="edge28" class="edge">
<title>section_7&#45;&gt;codeblock_28</title>
<path fill="none" stroke="#000000" stroke-dasharray="5,2" d="M1757.9761,-380.3068C1784.209,-369.4518 1819.8206,-354.7159 1848.2324,-342.9594"/>
<polygon fill="#000000" stroke="#000000" points="1849.6658,-346.1541 1857.5677,-339.0965 1846.9893,-339.686 1849.6658,-346.1541"/>
</g>
<!-- header_33 -->
<g id="node34" class="node">
<title>header_33</title>
<ellipse fill="none" stroke="#000000" cx="2058.5" cy="-323.4003" rx="61.4671" ry="18"/>
<text text-anchor="middle" x="2058.5" y="-319.2003" font-family="Helvetica,sans-Serif" font-size="14.00" fill="#000000">2 : __tostring</text>
</g>
<!-- section_8&#45;&gt;header_33 -->
<g id="edge33" class="edge">
<title>section_8&#45;&gt;header_33</title>
<path fill="none" stroke="#000000" stroke-dasharray="5,2" d="M2099.9045,-377.6026C2093.3107,-368.9708 2085.2697,-358.4443 2078.0339,-348.972"/>
<polygon fill="#000000" stroke="#000000" points="2080.7909,-346.8154 2071.9391,-340.9934 2075.2282,-351.0648 2080.7909,-346.8154"/>
</g>
<!-- prose_34 -->
<g id="node35" class="node">
<title>prose_34</title>
<ellipse fill="none" stroke="#000000" cx="2169.5" cy="-323.4003" rx="32.4585" ry="18"/>
<text text-anchor="middle" x="2169.5" y="-319.2003" font-family="Helvetica,sans-Serif" font-size="14.00" fill="#000000">prose</text>
</g>
<!-- section_8&#45;&gt;prose_34 -->
<g id="edge34" class="edge">
<title>section_8&#45;&gt;prose_34</title>
<path fill="none" stroke="#000000" stroke-dasharray="5,2" d="M2127.3427,-377.6026C2134.2568,-368.7131 2142.7337,-357.8141 2150.2684,-348.1266"/>
<polygon fill="#000000" stroke="#000000" points="2153.2076,-350.0485 2156.5844,-340.0062 2147.6822,-345.7509 2153.2076,-350.0485"/>
</g>
<!-- codeblock_35 -->
<g id="node36" class="node">
<title>codeblock_35</title>
<ellipse fill="none" stroke="#000000" cx="2301.5" cy="-323.4003" rx="77.4211" ry="18"/>
<text text-anchor="middle" x="2301.5" y="-319.2003" font-family="Helvetica,sans-Serif" font-size="14.00" fill="#000000">code block 39&#45;48</text>
</g>
<!-- section_8&#45;&gt;codeblock_35 -->
<g id="edge35" class="edge">
<title>section_8&#45;&gt;codeblock_35</title>
<path fill="none" stroke="#000000" stroke-dasharray="5,2" d="M2151.9983,-380.6563C2180.8152,-369.6201 2220.4742,-354.4315 2251.7042,-342.4711"/>
<polygon fill="#000000" stroke="#000000" points="2253.0176,-345.7161 2261.1044,-338.871 2250.514,-339.1791 2253.0176,-345.7161"/>
</g>
<!-- header_40 -->
<g id="node41" class="node">
<title>header_40</title>
<ellipse fill="none" stroke="#000000" cx="2473.5" cy="-323.4003" rx="68.2066" ry="18"/>
<text text-anchor="middle" x="2473.5" y="-319.2003" font-family="Helvetica,sans-Serif" font-size="14.00" fill="#000000">2 : Constructor</text>
</g>
<!-- section_9&#45;&gt;header_40 -->
<g id="edge40" class="edge">
<title>section_9&#45;&gt;header_40</title>
<path fill="none" stroke="#000000" stroke-dasharray="5,2" d="M2517.9157,-377.6026C2510.8424,-368.9708 2502.2166,-358.4443 2494.4546,-348.972"/>
<polygon fill="#000000" stroke="#000000" points="2496.962,-346.5098 2487.9165,-340.9934 2491.5476,-350.9466 2496.962,-346.5098"/>
</g>
<!-- prose_41 -->
<g id="node42" class="node">
<title>prose_41</title>
<ellipse fill="none" stroke="#000000" cx="2591.5" cy="-323.4003" rx="32.4585" ry="18"/>
<text text-anchor="middle" x="2591.5" y="-319.2003" font-family="Helvetica,sans-Serif" font-size="14.00" fill="#000000">prose</text>
</g>
<!-- section_9&#45;&gt;prose_41 -->
<g id="edge41" class="edge">
<title>section_9&#45;&gt;prose_41</title>
<path fill="none" stroke="#000000" stroke-dasharray="5,2" d="M2547.0843,-377.6026C2554.4423,-368.6233 2563.4804,-357.5938 2571.4784,-347.8334"/>
<polygon fill="#000000" stroke="#000000" points="2574.2614,-349.9594 2577.8924,-340.0062 2568.847,-345.5226 2574.2614,-349.9594"/>
</g>
<!-- codeblock_42 -->
<g id="node43" class="node">
<title>codeblock_42</title>
<ellipse fill="none" stroke="#000000" cx="2739.5" cy="-323.4003" rx="77.4211" ry="18"/>
<text text-anchor="middle" x="2739.5" y="-319.2003" font-family="Helvetica,sans-Serif" font-size="14.00" fill="#000000">code block 53&#45;63</text>
</g>
<!-- section_9&#45;&gt;codeblock_42 -->
<g id="edge42" class="edge">
<title>section_9&#45;&gt;codeblock_42</title>
<path fill="none" stroke="#000000" stroke-dasharray="5,2" d="M2573.3965,-381.1755C2605.8139,-369.8998 2651.356,-354.0591 2686.5562,-341.8156"/>
<polygon fill="#000000" stroke="#000000" points="2687.8956,-345.0555 2696.1907,-338.4644 2685.5959,-338.444 2687.8956,-345.0555"/>
</g>
<!-- header_47 -->
<g id="node48" class="node">
<title>header_47</title>
<ellipse fill="none" stroke="#000000" cx="2974.5" cy="-323.4003" rx="46.465" ry="18"/>
<text text-anchor="middle" x="2974.5" y="-319.2003" font-family="Helvetica,sans-Serif" font-size="14.00" fill="#000000">2 : inherit</text>
</g>
<!-- section_10&#45;&gt;header_47 -->
<g id="edge47" class="edge">
<title>section_10&#45;&gt;header_47</title>
<path fill="none" stroke="#000000" stroke-dasharray="5,2" d="M3048.5124,-378.3373C3035.3056,-368.5344 3018.5706,-356.1125 3004.3559,-345.5614"/>
<polygon fill="#000000" stroke="#000000" points="3006.4393,-342.749 2996.3235,-339.5992 3002.2671,-348.3698 3006.4393,-342.749"/>
</g>
<!-- prose_48 -->
<g id="node49" class="node">
<title>prose_48</title>
<ellipse fill="none" stroke="#000000" cx="3071.5" cy="-323.4003" rx="32.4585" ry="18"/>
<text text-anchor="middle" x="3071.5" y="-319.2003" font-family="Helvetica,sans-Serif" font-size="14.00" fill="#000000">prose</text>
</g>
<!-- section_10&#45;&gt;prose_48 -->
<g id="edge48" class="edge">
<title>section_10&#45;&gt;prose_48</title>
<path fill="none" stroke="#000000" stroke-dasharray="5,2" d="M3071.5,-377.2317C3071.5,-369.5313 3071.5,-360.3747 3071.5,-351.817"/>
<polygon fill="#000000" stroke="#000000" points="3075.0001,-351.8136 3071.5,-341.8136 3068.0001,-351.8136 3075.0001,-351.8136"/>
</g>
<!-- codeblock_49 -->
<g id="node50" class="node">
<title>codeblock_49</title>
<ellipse fill="none" stroke="#000000" cx="3241.5" cy="-323.4003" rx="77.4211" ry="18"/>
<text text-anchor="middle" x="3241.5" y="-319.2003" font-family="Helvetica,sans-Serif" font-size="14.00" fill="#000000">code block 68&#45;78</text>
</g>
<!-- section_10&#45;&gt;codeblock_49 -->
<g id="edge49" class="edge">
<title>section_10&#45;&gt;codeblock_49</title>
<path fill="none" stroke="#000000" stroke-dasharray="5,2" d="M3107.5526,-380.131C3132.9235,-369.3857 3167.1201,-354.9024 3194.61,-343.2596"/>
<polygon fill="#000000" stroke="#000000" points="3196.1852,-346.3935 3204.0284,-339.2707 3193.4552,-339.9478 3196.1852,-346.3935"/>
</g>
<!-- codeblock_50 -->
<g id="node51" class="node">
<title>codeblock_50</title>
<ellipse fill="none" stroke="#000000" cx="3516.5" cy="-323.4003" rx="77.4211" ry="18"/>
<text text-anchor="middle" x="3516.5" y="-319.2003" font-family="Helvetica,sans-Serif" font-size="14.00" fill="#000000">code block 80&#45;82</text>
</g>
<!-- section_10&#45;&gt;codeblock_50 -->
<g id="edge50" class="edge">
<title>section_10&#45;&gt;codeblock_50</title>
<path fill="none" stroke="#000000" stroke-dasharray="5,2" d="M3128.3116,-386.2084C3208.4047,-373.2495 3354.5796,-349.5987 3442.9001,-335.3086"/>
<polygon fill="#000000" stroke="#000000" points="3443.5342,-338.7517 3452.8468,-333.6993 3442.4161,-331.8415 3443.5342,-338.7517"/>
</g>
<!-- leaf_13 -->
<g id="node14" class="node">
<title>leaf_13</title>
<polygon fill="none" stroke="#c0c0c0" points="233,-231.7014 0,-231.7014 0,-159.8991 233,-159.8991 233,-231.7014"/>
<text text-anchor="middle" x="116.5" y="-168.3002" font-family="Inconsolata" font-size="14.00" fill="#000000">This is a string builder class.</text>
</g>
<!-- raw_12&#45;&gt;leaf_13 -->
<g id="edge13" class="edge">
<title>raw_12&#45;&gt;leaf_13</title>
<path fill="none" stroke="#000000" stroke-dasharray="5,2" d="M320.1574,-311.9924C300.04,-301.1842 269.0952,-284.4168 242.5,-269.4003 223.9321,-258.9164 203.9532,-247.3701 185.4984,-236.5934"/>
<polygon fill="#000000" stroke="#000000" points="187.2555,-233.5664 176.8566,-231.5384 183.7211,-239.6087 187.2555,-233.5664"/>
</g>
<!-- leaf_17 -->
<g id="node18" class="node">
<title>leaf_17</title>
<polygon fill="none" stroke="#c0c0c0" points="309.5,-215.7023 251.5,-215.7023 251.5,-175.8981 309.5,-175.8981 309.5,-215.7023"/>
<text text-anchor="middle" x="280.5" y="-184.3002" font-family="Inconsolata" font-size="14.00" fill="#000000">It is </text>
</g>
<!-- raw_14&#45;&gt;leaf_17 -->
<g id="edge17" class="edge">
<title>raw_14&#45;&gt;leaf_17</title>
<path fill="none" stroke="#000000" stroke-dasharray="5,2" d="M392.2628,-312.1604C366.0499,-298.1598 324.2167,-275.3521 318.5,-269.4003 306.4401,-256.8448 297.2884,-239.7047 290.9913,-225.1241"/>
<polygon fill="#000000" stroke="#000000" points="294.0972,-223.4706 287.0871,-215.5265 287.6131,-226.1082 294.0972,-223.4706"/>
</g>
<!-- anchortext_18 -->
<g id="node19" class="node">
<title>anchortext_18</title>
<ellipse fill="none" stroke="#000000" cx="378.5" cy="-195.8002" rx="51.3018" ry="18"/>
<text text-anchor="middle" x="378.5" y="-191.6002" font-family="Helvetica,sans-Serif" font-size="14.00" fill="#000000">anchortext</text>
</g>
<!-- link_15&#45;&gt;anchortext_18 -->
<g id="edge18" class="edge">
<title>link_15&#45;&gt;anchortext_18</title>
<path fill="none" stroke="#000000" stroke-dasharray="5,2" d="M471.3788,-307.4497C461.9742,-296.7599 449.3902,-282.3276 438.5,-269.4003 425.093,-253.4855 410.32,-235.3713 398.7876,-221.0958"/>
<polygon fill="#000000" stroke="#000000" points="401.4076,-218.769 392.4068,-213.1799 395.9576,-223.162 401.4076,-218.769"/>
</g>
<!-- url_19 -->
<g id="node20" class="node">
<title>url_19</title>
<ellipse fill="none" stroke="#000000" cx="474.5" cy="-195.8002" rx="27" ry="18"/>
<text text-anchor="middle" x="474.5" y="-191.6002" font-family="Helvetica,sans-Serif" font-size="14.00" fill="#000000">url</text>
</g>
<!-- link_15&#45;&gt;url_19 -->
<g id="edge19" class="edge">
<title>link_15&#45;&gt;url_19</title>
<path fill="none" stroke="#000000" stroke-dasharray="5,2" d="M483.9473,-305.389C482.1314,-284.3247 479.1022,-249.1858 476.9642,-224.385"/>
<polygon fill="#000000" stroke="#000000" points="480.4265,-223.7955 476.0804,-214.1331 473.4523,-224.3968 480.4265,-223.7955"/>
</g>
<!-- leaf_22 -->
<g id="node23" class="node">
<title>leaf_22</title>
<polygon fill="none" stroke="#c0c0c0" points="1033,-215.1008 520,-215.1008 520,-176.4996 1033,-176.4996 1033,-215.1008"/>
<text text-anchor="middle" x="776.5" y="-200.0002" font-family="Inconsolata" font-size="14.00" fill="#000000">, may be concatenated with either a string or itself,</text>
<text text-anchor="middle" x="776.5" y="-184.6002" font-family="Inconsolata" font-size="14.00" fill="#000000">and will eventually implement the full string library as method calls. </text>
</g>
<!-- raw_16&#45;&gt;leaf_22 -->
<g id="edge22" class="edge">
<title>raw_16&#45;&gt;leaf_22</title>
<path fill="none" stroke="#000000" stroke-dasharray="5,2" d="M739.479,-305.6581C746.4966,-284.8337 758.2381,-249.9914 766.6163,-225.1294"/>
<polygon fill="#000000" stroke="#000000" points="769.9899,-226.0784 769.8667,-215.4843 763.3564,-223.8429 769.9899,-226.0784"/>
</g>
<!-- leaf_20 -->
<g id="node21" class="node">
<title>leaf_20</title>
<polygon fill="none" stroke="#c0c0c0" points="418,-61.1 339,-61.1 339,-25.1 418,-25.1 418,-61.1"/>
<text text-anchor="middle" x="378.5" y="-39.6001" font-family="Inconsolata" font-size="14.00" fill="#000000">heritable</text>
</g>
<!-- anchortext_18&#45;&gt;leaf_20 -->
<g id="edge20" class="edge">
<title>anchortext_18&#45;&gt;leaf_20</title>
<path fill="none" stroke="#000000" stroke-dasharray="5,2" d="M378.5,-177.6839C378.5,-151.3949 378.5,-102.4282 378.5,-71.3665"/>
<polygon fill="#000000" stroke="#000000" points="382.0001,-71.1928 378.5,-61.1928 375.0001,-71.1929 382.0001,-71.1928"/>
</g>
<!-- leaf_21 -->
<g id="node22" class="node">
<title>leaf_21</title>
<polygon fill="none" stroke="#c0c0c0" points="507,-61.1 442,-61.1 442,-25.1 507,-25.1 507,-61.1"/>
<text text-anchor="middle" x="474.5" y="-39.6001" font-family="Inconsolata" font-size="14.00" fill="#000000">httk://</text>
</g>
<!-- url_19&#45;&gt;leaf_21 -->
<g id="edge21" class="edge">
<title>url_19&#45;&gt;leaf_21</title>
<path fill="none" stroke="#000000" stroke-dasharray="5,2" d="M474.5,-177.6839C474.5,-151.3949 474.5,-102.4282 474.5,-71.3665"/>
<polygon fill="#000000" stroke="#000000" points="478.0001,-71.1928 474.5,-61.1928 471.0001,-71.1929 478.0001,-71.1928"/>
</g>
<!-- leaf_24 -->
<g id="node25" class="node">
<title>leaf_24</title>
<polygon fill="none" stroke="#c0c0c0" points="1634,-223.1006 1051,-223.1006 1051,-168.4998 1634,-168.4998 1634,-223.1006"/>
<text text-anchor="middle" x="1342.5" y="-192.0002" font-family="Inconsolata" font-size="14.00" fill="#000000">I use a definite string building paradigm for which the Phrase class is a drop&#45;in</text>
<text text-anchor="middle" x="1342.5" y="-176.6002" font-family="Inconsolata" font-size="14.00" fill="#000000">replacement. </text>
</g>
<!-- raw_23&#45;&gt;leaf_24 -->
<g id="edge24" class="edge">
<title>raw_23&#45;&gt;leaf_24</title>
<path fill="none" stroke="#000000" stroke-dasharray="5,2" d="M1233.2114,-308.2619C1251.6624,-289.2752 1283.87,-256.1324 1308.5569,-230.7288"/>
<polygon fill="#000000" stroke="#000000" points="1311.1681,-233.0639 1315.6273,-223.4532 1306.148,-228.1855 1311.1681,-233.0639"/>
</g>
<!-- leaf_29 -->
<g id="node30" class="node">
<title>leaf_29</title>
<polygon fill="none" stroke="#c0c0c0" points="1706.5,-213.8002 1652.5,-213.8002 1652.5,-177.8002 1706.5,-177.8002 1706.5,-213.8002"/>
<text text-anchor="middle" x="1679.5" y="-192.3002" font-family="Inconsolata" font-size="14.00" fill="#000000">** ..</text>
</g>
<!-- header_26&#45;&gt;leaf_29 -->
<g id="edge29" class="edge">
<title>header_26&#45;&gt;leaf_29</title>
<path fill="none" stroke="#000000" stroke-dasharray="5,2" d="M1682.0765,-305.389C1681.5813,-284.3247 1680.7551,-249.1858 1680.1721,-224.385"/>
<polygon fill="#000000" stroke="#000000" points="1683.6652,-224.0481 1679.931,-214.1331 1676.6671,-224.2127 1683.6652,-224.0481"/>
</g>
<!-- raw_30 -->
<g id="node31" class="node">
<title>raw_30</title>
<ellipse fill="none" stroke="#000000" cx="1751.5" cy="-195.8002" rx="27" ry="18"/>
<text text-anchor="middle" x="1751.5" y="-191.6002" font-family="Helvetica,sans-Serif" font-size="14.00" fill="#000000">raw</text>
</g>
<!-- prose_27&#45;&gt;raw_30 -->
<g id="edge30" class="edge">
<title>prose_27&#45;&gt;raw_30</title>
<path fill="none" stroke="#000000" stroke-dasharray="5,2" d="M1759.2296,-305.389C1757.7439,-284.3247 1755.2654,-249.1858 1753.5162,-224.385"/>
<polygon fill="#000000" stroke="#000000" points="1756.9881,-223.8621 1752.7931,-214.1331 1750.0054,-224.3546 1756.9881,-223.8621"/>
</g>
<!-- leaf_32 -->
<g id="node33" class="node">
<title>leaf_32</title>
<polygon fill="none" stroke="#c0c0c0" points="2036.5,-261.5006 1796.5,-261.5006 1796.5,-130.0998 2036.5,-130.0998 2036.5,-261.5006"/>
<text text-anchor="middle" x="1916.5" y="-246.2003" font-family="Inconsolata" font-size="14.00" fill="#000000">local function cat(phrase, tail)</text>
<text text-anchor="middle" x="1916.5" y="-230.8003" font-family="Inconsolata" font-size="14.00" fill="#000000"> &#160;if type(tail) == &#39;string&#39; then</text>
<text text-anchor="middle" x="1916.5" y="-215.4003" font-family="Inconsolata" font-size="14.00" fill="#000000"> &#160;&#160;&#160;return tail</text>
<text text-anchor="middle" x="1916.5" y="-200.0002" font-family="Inconsolata" font-size="14.00" fill="#000000"> &#160;end</text>
<text text-anchor="middle" x="1916.5" y="-184.6002" font-family="Inconsolata" font-size="14.00" fill="#000000"> &#160;phrase[#phrase + 1] = tail</text>
<text text-anchor="middle" x="1916.5" y="-169.2002" font-family="Inconsolata" font-size="14.00" fill="#000000"> &#160;return phrase</text>
<text text-anchor="middle" x="1916.5" y="-153.8002" font-family="Inconsolata" font-size="14.00" fill="#000000">end</text>
<text text-anchor="middle" x="1916.5" y="-138.4001" font-family="Inconsolata" font-size="14.00" fill="#000000">Phrase.__concat = cat</text>
</g>
<!-- codeblock_28&#45;&gt;leaf_32 -->
<g id="edge32" class="edge">
<title>codeblock_28&#45;&gt;leaf_32</title>
<path fill="none" stroke="#000000" stroke-dasharray="5,2" d="M1898.4642,-305.389C1899.9808,-296.1739 1901.9407,-284.2651 1904.0076,-271.7067"/>
<polygon fill="#000000" stroke="#000000" points="1907.5112,-271.9705 1905.6816,-261.5349 1900.6041,-270.8337 1907.5112,-271.9705"/>
</g>
<!-- leaf_31 -->
<g id="node32" class="node">
<title>leaf_31</title>
<polygon fill="none" stroke="#c0c0c0" points="2012,-86.3004 1457,-86.3004 1457,.1003 2012,.1003 2012,-86.3004"/>
<text text-anchor="middle" x="1734.5" y="-39.0001" font-family="Inconsolata" font-size="14.00" fill="#000000"> &#160;Concatenation is the frequent operation in working with Nodes. &#160;By default,</text>
<text text-anchor="middle" x="1734.5" y="-23.6001" font-family="Inconsolata" font-size="14.00" fill="#000000">all a Node is in a position to do is yield a string. &#160;Phrase allows us to</text>
<text text-anchor="middle" x="1734.5" y="-8.2" font-family="Inconsolata" font-size="14.00" fill="#000000">enhance that with various table&#45;assisted superpowers. </text>
</g>
<!-- raw_30&#45;&gt;leaf_31 -->
<g id="edge31" class="edge">
<title>raw_30&#45;&gt;leaf_31</title>
<path fill="none" stroke="#000000" stroke-dasharray="5,2" d="M1749.4831,-177.6839C1747.2663,-157.7718 1743.6011,-124.8495 1740.4507,-96.5517"/>
<polygon fill="#000000" stroke="#000000" points="1743.9021,-95.9194 1739.317,-86.3681 1736.945,-96.694 1743.9021,-95.9194"/>
</g>
<!-- leaf_36 -->
<g id="node37" class="node">
<title>leaf_36</title>
<polygon fill="none" stroke="#c0c0c0" points="2120,-223.1006 2055,-223.1006 2055,-168.4998 2120,-168.4998 2120,-223.1006"/>
<text text-anchor="middle" x="2087.5" y="-208.0002" font-family="Inconsolata" font-size="14.00" fill="#000000">ostring</text>
<text text-anchor="middle" x="2087.5" y="-176.6002" font-family="Inconsolata" font-size="14.00" fill="#000000">We wa</text>
</g>
<!-- header_33&#45;&gt;leaf_36 -->
<g id="edge36" class="edge">
<title>header_33&#45;&gt;leaf_36</title>
<path fill="none" stroke="#000000" stroke-dasharray="5,2" d="M2062.5935,-305.389C2066.8285,-286.7548 2073.5668,-257.1063 2078.9673,-233.3441"/>
<polygon fill="#000000" stroke="#000000" points="2082.3854,-234.0969 2081.1887,-223.5699 2075.5595,-232.5455 2082.3854,-234.0969"/>
</g>
<!-- raw_37 -->
<g id="node38" class="node">
<title>raw_37</title>
<ellipse fill="none" stroke="#000000" cx="2165.5" cy="-195.8002" rx="27" ry="18"/>
<text text-anchor="middle" x="2165.5" y="-191.6002" font-family="Helvetica,sans-Serif" font-size="14.00" fill="#000000">raw</text>
</g>
<!-- prose_34&#45;&gt;raw_37 -->
<g id="edge37" class="edge">
<title>prose_34&#45;&gt;raw_37</title>
<path fill="none" stroke="#000000" stroke-dasharray="5,2" d="M2168.9354,-305.389C2168.2751,-284.3247 2167.1735,-249.1858 2166.3961,-224.385"/>
<polygon fill="#000000" stroke="#000000" points="2169.8864,-224.0185 2166.0747,-214.1331 2162.8898,-224.2379 2169.8864,-224.0185"/>
</g>
<!-- leaf_39 -->
<g id="node40" class="node">
<title>leaf_39</title>
<polygon fill="none" stroke="#c0c0c0" points="2444,-261.6006 2211,-261.6006 2211,-129.9998 2444,-129.9998 2444,-261.6006"/>
<text text-anchor="middle" x="2327.5" y="-246.5003" font-family="Inconsolata" font-size="14.00" fill="#000000">local function toString(phrase)</text>
<text text-anchor="middle" x="2327.5" y="-231.1003" font-family="Inconsolata" font-size="14.00" fill="#000000"> &#160;local str = &quot;&quot;</text>
<text text-anchor="middle" x="2327.5" y="-215.7003" font-family="Inconsolata" font-size="14.00" fill="#000000"> &#160;for i,v in ipairs(phrase) do</text>
<text text-anchor="middle" x="2327.5" y="-200.3002" font-family="Inconsolata" font-size="14.00" fill="#000000"> &#160;&#160;&#160;str = str .. tostring(v)</text>
<text text-anchor="middle" x="2327.5" y="-184.9002" font-family="Inconsolata" font-size="14.00" fill="#000000"> &#160;end</text>
<text text-anchor="middle" x="2327.5" y="-153.5002" font-family="Inconsolata" font-size="14.00" fill="#000000"> &#160;return str</text>
<text text-anchor="middle" x="2327.5" y="-138.1001" font-family="Inconsolata" font-size="14.00" fill="#000000">end</text>
</g>
<!-- codeblock_35&#45;&gt;leaf_39 -->
<g id="edge39" class="edge">
<title>codeblock_35&#45;&gt;leaf_39</title>
<path fill="none" stroke="#000000" stroke-dasharray="5,2" d="M2305.17,-305.389C2307.0367,-296.2281 2309.4457,-284.4051 2311.988,-271.9283"/>
<polygon fill="#000000" stroke="#000000" points="2315.4805,-272.3177 2314.0477,-261.8202 2308.6215,-270.92 2315.4805,-272.3177"/>
</g>
<!-- leaf_38 -->
<g id="node39" class="node">
<title>leaf_38</title>
<polygon fill="none" stroke="#c0c0c0" points="2333,-71.0015 2030,-71.0015 2030,-15.1986 2333,-15.1986 2333,-71.0015"/>
<text text-anchor="middle" x="2181.5" y="-23.6001" font-family="Inconsolata" font-size="14.00" fill="#000000">We want to behave like a string whenever </text>
</g>
<!-- raw_37&#45;&gt;leaf_38 -->
<g id="edge38" class="edge">
<title>raw_37&#45;&gt;leaf_38</title>
<path fill="none" stroke="#000000" stroke-dasharray="5,2" d="M2167.3982,-177.6839C2169.8822,-153.9773 2174.2985,-111.8293 2177.5288,-80.9999"/>
<polygon fill="#000000" stroke="#000000" points="2181.0131,-81.3319 2178.5744,-71.0216 2174.0512,-80.6023 2181.0131,-81.3319"/>
</g>
<!-- leaf_43 -->
<g id="node44" class="node">
<title>leaf_43</title>
<polygon fill="none" stroke="#c0c0c0" points="2516.5,-231.0006 2462.5,-231.0006 2462.5,-160.5998 2516.5,-160.5998 2516.5,-231.0006"/>
<text text-anchor="middle" x="2489.5" y="-215.7003" font-family="Inconsolata" font-size="14.00" fill="#000000">or</text>
<text text-anchor="middle" x="2489.5" y="-184.3002" font-family="Inconsolata" font-size="14.00" fill="#000000">#!lua</text>
<text text-anchor="middle" x="2489.5" y="-168.9002" font-family="Inconsolata" font-size="14.00" fill="#000000">local</text>
</g>
<!-- header_40&#45;&gt;leaf_43 -->
<g id="edge43" class="edge">
<title>header_40&#45;&gt;leaf_43</title>
<path fill="none" stroke="#000000" stroke-dasharray="5,2" d="M2475.7585,-305.389C2477.8501,-288.7084 2481.0484,-263.2019 2483.8333,-240.9923"/>
<polygon fill="#000000" stroke="#000000" points="2487.3068,-241.4212 2485.0783,-231.0634 2480.3612,-240.5502 2487.3068,-241.4212"/>
</g>
<!-- raw_44 -->
<g id="node45" class="node">
<title>raw_44</title>
<ellipse fill="none" stroke="#000000" cx="2561.5" cy="-195.8002" rx="27" ry="18"/>
<text text-anchor="middle" x="2561.5" y="-191.6002" font-family="Helvetica,sans-Serif" font-size="14.00" fill="#000000">raw</text>
</g>
<!-- prose_41&#45;&gt;raw_44 -->
<g id="edge44" class="edge">
<title>prose_41&#45;&gt;raw_44</title>
<path fill="none" stroke="#000000" stroke-dasharray="5,2" d="M2587.2654,-305.389C2582.2625,-284.11 2573.8827,-248.4681 2568.043,-223.63"/>
<polygon fill="#000000" stroke="#000000" points="2571.409,-222.6534 2565.7131,-213.7199 2564.5948,-224.2556 2571.409,-222.6534"/>
</g>
<!-- leaf_46 -->
<g id="node47" class="node">
<title>leaf_46</title>
<polygon fill="none" stroke="#c0c0c0" points="2910,-269.5006 2607,-269.5006 2607,-122.0998 2910,-122.0998 2910,-269.5006"/>
<text text-anchor="middle" x="2758.5" y="-254.2003" font-family="Inconsolata" font-size="14.00" fill="#000000">local function new(_, str)</text>
<text text-anchor="middle" x="2758.5" y="-238.8003" font-family="Inconsolata" font-size="14.00" fill="#000000"> &#160;local phrase = setmetatable({}, Phrase)</text>
<text text-anchor="middle" x="2758.5" y="-223.4003" font-family="Inconsolata" font-size="14.00" fill="#000000"> &#160;if str then</text>
<text text-anchor="middle" x="2758.5" y="-208.0002" font-family="Inconsolata" font-size="14.00" fill="#000000"> &#160;&#160;&#160;phrase[1] = str</text>
<text text-anchor="middle" x="2758.5" y="-192.6002" font-family="Inconsolata" font-size="14.00" fill="#000000"> &#160;end</text>
<text text-anchor="middle" x="2758.5" y="-177.2002" font-family="Inconsolata" font-size="14.00" fill="#000000"> &#160;return phrase</text>
<text text-anchor="middle" x="2758.5" y="-161.8002" font-family="Inconsolata" font-size="14.00" fill="#000000">end</text>
<text text-anchor="middle" x="2758.5" y="-130.4001" font-family="Inconsolata" font-size="14.00" fill="#000000">Phrase.__call = new</text>
</g>
<!-- codeblock_42&#45;&gt;leaf_46 -->
<g id="edge46" class="edge">
<title>codeblock_42&#45;&gt;leaf_46</title>
<path fill="none" stroke="#000000" stroke-dasharray="5,2" d="M2742.1819,-305.389C2743.26,-298.1489 2744.5857,-289.2461 2746.0113,-279.6719"/>
<polygon fill="#000000" stroke="#000000" points="2749.5159,-279.8995 2747.5269,-269.493 2742.5922,-278.8685 2749.5159,-279.8995"/>
</g>
<!-- leaf_45 -->
<g id="node46" class="node">
<title>leaf_45</title>
<polygon fill="none" stroke="#c0c0c0" points="2588.5,-61.1 2534.5,-61.1 2534.5,-25.1 2588.5,-25.1 2588.5,-61.1"/>
</g>
<!-- raw_44&#45;&gt;leaf_45 -->
<g id="edge45" class="edge">
<title>raw_44&#45;&gt;leaf_45</title>
<path fill="none" stroke="#000000" stroke-dasharray="5,2" d="M2561.5,-177.6839C2561.5,-151.3949 2561.5,-102.4282 2561.5,-71.3665"/>
<polygon fill="#000000" stroke="#000000" points="2565.0001,-71.1928 2561.5,-61.1928 2558.0001,-71.1929 2565.0001,-71.1928"/>
</g>
<!-- leaf_51 -->
<g id="node52" class="node">
<title>leaf_51</title>
<polygon fill="none" stroke="#c0c0c0" points="3021,-213.8002 2928,-213.8002 2928,-177.8002 3021,-177.8002 3021,-213.8002"/>
<text text-anchor="middle" x="2974.5" y="-192.3002" font-family="Inconsolata" font-size="14.00" fill="#000000">function Ph</text>
</g>
<!-- header_47&#45;&gt;leaf_51 -->
<g id="edge51" class="edge">
<title>header_47&#45;&gt;leaf_51</title>
<path fill="none" stroke="#000000" stroke-dasharray="5,2" d="M2974.5,-305.389C2974.5,-284.3247 2974.5,-249.1858 2974.5,-224.385"/>
<polygon fill="#000000" stroke="#000000" points="2978.0001,-224.1331 2974.5,-214.1331 2971.0001,-224.1332 2978.0001,-224.1331"/>
</g>
<!-- raw_52 -->
<g id="node53" class="node">
<title>raw_52</title>
<ellipse fill="none" stroke="#000000" cx="3066.5" cy="-195.8002" rx="27" ry="18"/>
<text text-anchor="middle" x="3066.5" y="-191.6002" font-family="Helvetica,sans-Serif" font-size="14.00" fill="#000000">raw</text>
</g>
<!-- prose_48&#45;&gt;raw_52 -->
<g id="edge52" class="edge">
<title>prose_48&#45;&gt;raw_52</title>
<path fill="none" stroke="#000000" stroke-dasharray="5,2" d="M3070.7942,-305.389C3069.9688,-284.3247 3068.5919,-249.1858 3067.6201,-224.385"/>
<polygon fill="#000000" stroke="#000000" points="3071.1073,-223.9884 3067.2184,-214.1331 3064.1127,-224.2625 3071.1073,-223.9884"/>
</g>
<!-- leaf_54 -->
<g id="node55" class="node">
<title>leaf_54</title>
<polygon fill="none" stroke="#c0c0c0" points="3457,-268.901 3112,-268.901 3112,-122.6994 3457,-122.6994 3457,-268.901"/>
<text text-anchor="middle" x="3284.5" y="-253.9004" font-family="Inconsolata" font-size="14.00" fill="#000000">function Phrase.inherit(phrase)</text>
<text text-anchor="middle" x="3284.5" y="-238.5003" font-family="Inconsolata" font-size="14.00" fill="#000000"> &#160;local Meta = setmetatable({}, phrase)</text>
<text text-anchor="middle" x="3284.5" y="-223.1003" font-family="Inconsolata" font-size="14.00" fill="#000000"> &#160;Meta.__index = Meta</text>
<text text-anchor="middle" x="3284.5" y="-207.7003" font-family="Inconsolata" font-size="14.00" fill="#000000"> &#160;Meta.__call &#160;= getmetatable(phrase).__call</text>
<text text-anchor="middle" x="3284.5" y="-192.3002" font-family="Inconsolata" font-size="14.00" fill="#000000"> &#160;Meta.__concat = getmetatable(phrase).__concat</text>
<text text-anchor="middle" x="3284.5" y="-176.9002" font-family="Inconsolata" font-size="14.00" fill="#000000"> &#160;local meta = setmetatable({}, Meta)</text>
<text text-anchor="middle" x="3284.5" y="-161.5002" font-family="Inconsolata" font-size="14.00" fill="#000000"> &#160;meta.__index = meta</text>
<text text-anchor="middle" x="3284.5" y="-146.1001" font-family="Inconsolata" font-size="14.00" fill="#000000"> &#160;return Meta, meta</text>
<text text-anchor="middle" x="3284.5" y="-130.7001" font-family="Inconsolata" font-size="14.00" fill="#000000">end</text>
</g>
<!-- codeblock_49&#45;&gt;leaf_54 -->
<g id="edge54" class="edge">
<title>codeblock_49&#45;&gt;leaf_54</title>
<path fill="none" stroke="#000000" stroke-dasharray="5,2" d="M3247.5696,-305.389C3250.0959,-297.8924 3253.2229,-288.6131 3256.5799,-278.6517"/>
<polygon fill="#000000" stroke="#000000" points="3259.9799,-279.522 3259.8567,-268.9279 3253.3464,-277.2865 3259.9799,-279.522"/>
</g>
<!-- leaf_55 -->
<g id="node56" class="node">
<title>leaf_55</title>
<polygon fill="none" stroke="#c0c0c0" points="3764,-213.8002 3475,-213.8002 3475,-177.8002 3764,-177.8002 3764,-213.8002"/>
<text text-anchor="middle" x="3619.5" y="-192.3002" font-family="Inconsolata" font-size="14.00" fill="#000000">return setmetatable({}, {__call = new})</text>
</g>
<!-- codeblock_50&#45;&gt;leaf_55 -->
<g id="edge55" class="edge">
<title>codeblock_50&#45;&gt;leaf_55</title>
<path fill="none" stroke="#000000" stroke-dasharray="5,2" d="M3530.8217,-305.6581C3548.4022,-283.8787 3578.3596,-246.7664 3598.5334,-221.7744"/>
<polygon fill="#000000" stroke="#000000" points="3601.4102,-223.7828 3604.9679,-213.8031 3595.9633,-219.386 3601.4102,-223.7828"/>
</g>
<!-- leaf_53 -->
<g id="node54" class="node">
<title>leaf_53</title>
<polygon fill="none" stroke="#c0c0c0" points="3093.5,-61.1 3039.5,-61.1 3039.5,-25.1 3093.5,-25.1 3093.5,-61.1"/>
</g>
<!-- raw_52&#45;&gt;leaf_53 -->
<g id="edge53" class="edge">
<title>raw_52&#45;&gt;leaf_53</title>
<path fill="none" stroke="#000000" stroke-dasharray="5,2" d="M3066.5,-177.6839C3066.5,-151.3949 3066.5,-102.4282 3066.5,-71.3665"/>
<polygon fill="#000000" stroke="#000000" points="3070.0001,-71.1928 3066.5,-61.1928 3063.0001,-71.1929 3070.0001,-71.1928"/>
</g>
</g>
</svg>