<?xml version="1.0" encoding="UTF-8" standalone="no"?>
<!DOCTYPE svg PUBLIC "-//W3C//DTD SVG 1.1//EN"
 "http://www.w3.org/Graphics/SVG/1.1/DTD/svg11.dtd">
<!-- Generated by graphviz version 2.40.1 (20161225.0304)
 -->
<!-- Title: lpegNode Pages: 1 -->
<svg width="3772pt" height="568pt"
 viewBox="0.00 0.00 3772.00 568.20" xmlns="http://www.w3.org/2000/svg" xmlns:xlink="http://www.w3.org/1999/xlink">
<g id="graph0" class="graph" transform="scale(1 1) rotate(0) translate(4 564.2004)">
<title>lpegNode</title>
<polygon fill="#ffffff" stroke="transparent" points="-4,4 -4,-564.2004 3768,-564.2004 3768,4 -4,4"/>
<!-- doc_0 -->
<g id="node1" class="node">
<title>doc_0</title>
<ellipse fill="none" stroke="#000000" cx="1450.5" cy="-542.2004" rx="42.1216" ry="18"/>
<text text-anchor="middle" x="1450.5" y="-538.0004" font-family="Helvetica,sans-Serif" font-size="14.00" fill="#000000">doc &#45; 83</text>
</g>
<!-- section_1 -->
<g id="node2" class="node">
<title>section_1</title>
<ellipse fill="none" stroke="#000000" cx="1450.5" cy="-470.2004" rx="60.9826" ry="18"/>
<text text-anchor="middle" x="1450.5" y="-466.0004" font-family="Helvetica,sans-Serif" font-size="14.00" fill="#000000">section: 1&#45;66</text>
</g>
<!-- doc_0&#45;&gt;section_1 -->
<g id="edge1" class="edge">
<title>doc_0&#45;&gt;section_1</title>
<path fill="none" stroke="#000000" stroke-dasharray="5,2" d="M1450.5,-524.0318C1450.5,-516.3314 1450.5,-507.1748 1450.5,-498.617"/>
<polygon fill="#000000" stroke="#000000" points="1454.0001,-498.6136 1450.5,-488.6137 1447.0001,-498.6137 1454.0001,-498.6136"/>
</g>
<!-- header_2 -->
<g id="node3" class="node">
<title>header_2</title>
<ellipse fill="none" stroke="#000000" cx="271.5" cy="-398.2004" rx="50.3327" ry="18"/>
<text text-anchor="middle" x="271.5" y="-394.0004" font-family="Helvetica,sans-Serif" font-size="14.00" fill="#000000">1 : Phrase</text>
</g>
<!-- section_1&#45;&gt;header_2 -->
<g id="edge2" class="edge">
<title>section_1&#45;&gt;header_2</title>
<path fill="none" stroke="#000000" stroke-dasharray="5,2" d="M1390.3677,-467.1996C1240.5291,-459.629 838.4771,-438.7434 503.5,-416.2004 444.7307,-412.2454 377.6495,-406.9567 330.7874,-403.1364"/>
<polygon fill="#000000" stroke="#000000" points="331.0617,-399.6473 320.8097,-402.3203 330.491,-406.624 331.0617,-399.6473"/>
</g>
<!-- prose_3 -->
<g id="node4" class="node">
<title>prose_3</title>
<ellipse fill="none" stroke="#000000" cx="544.5" cy="-398.2004" rx="32.4585" ry="18"/>
<text text-anchor="middle" x="544.5" y="-394.0004" font-family="Helvetica,sans-Serif" font-size="14.00" fill="#000000">prose</text>
</g>
<!-- section_1&#45;&gt;prose_3 -->
<g id="edge3" class="edge">
<title>section_1&#45;&gt;prose_3</title>
<path fill="none" stroke="#000000" stroke-dasharray="5,2" d="M1390.2632,-467.4966C1259.27,-461.2941 938.7825,-444.3691 671.5,-416.2004 642.7236,-413.1677 610.4408,-408.5763 585.6245,-404.7899"/>
<polygon fill="#000000" stroke="#000000" points="585.8951,-401.2903 575.4781,-403.2233 584.8269,-408.2083 585.8951,-401.2903"/>
</g>
<!-- prose_4 -->
<g id="node5" class="node">
<title>prose_4</title>
<ellipse fill="none" stroke="#000000" cx="712.5" cy="-398.2004" rx="32.4585" ry="18"/>
<text text-anchor="middle" x="712.5" y="-394.0004" font-family="Helvetica,sans-Serif" font-size="14.00" fill="#000000">prose</text>
</g>
<!-- section_1&#45;&gt;prose_4 -->
<g id="edge4" class="edge">
<title>section_1&#45;&gt;prose_4</title>
<path fill="none" stroke="#000000" stroke-dasharray="5,2" d="M1392.5904,-464.5507C1249.1294,-450.5545 879.8271,-414.525 754.689,-402.3164"/>
<polygon fill="#000000" stroke="#000000" points="754.6737,-398.7984 744.3811,-401.3108 753.994,-405.7653 754.6737,-398.7984"/>
</g>
<!-- prose_5 -->
<g id="node6" class="node">
<title>prose_5</title>
<ellipse fill="none" stroke="#000000" cx="1270.5" cy="-398.2004" rx="32.4585" ry="18"/>
<text text-anchor="middle" x="1270.5" y="-394.0004" font-family="Helvetica,sans-Serif" font-size="14.00" fill="#000000">prose</text>
</g>
<!-- section_1&#45;&gt;prose_5 -->
<g id="edge5" class="edge">
<title>section_1&#45;&gt;prose_5</title>
<path fill="none" stroke="#000000" stroke-dasharray="5,2" d="M1414.0743,-455.6301C1382.7432,-443.0977 1337.7927,-425.1175 1306.5663,-412.6269"/>
<polygon fill="#000000" stroke="#000000" points="1307.5294,-409.2426 1296.9448,-408.7783 1304.9297,-415.742 1307.5294,-409.2426"/>
</g>
<!-- codeblock_6 -->
<g id="node7" class="node">
<title>codeblock_6</title>
<ellipse fill="none" stroke="#000000" cx="1450.5" cy="-398.2004" rx="77.4211" ry="18"/>
<text text-anchor="middle" x="1450.5" y="-394.0004" font-family="Helvetica,sans-Serif" font-size="14.00" fill="#000000">code block 12&#45;15</text>
</g>
<!-- section_1&#45;&gt;codeblock_6 -->
<g id="edge6" class="edge">
<title>section_1&#45;&gt;codeblock_6</title>
<path fill="none" stroke="#000000" stroke-dasharray="5,2" d="M1450.5,-452.0318C1450.5,-444.3314 1450.5,-435.1748 1450.5,-426.617"/>
<polygon fill="#000000" stroke="#000000" points="1454.0001,-426.6136 1450.5,-416.6137 1447.0001,-426.6137 1454.0001,-426.6136"/>
</g>
<!-- section_7 -->
<g id="node8" class="node">
<title>section_7</title>
<ellipse fill="none" stroke="#000000" cx="1721.5" cy="-398.2004" rx="65.8187" ry="18"/>
<text text-anchor="middle" x="1721.5" y="-394.0004" font-family="Helvetica,sans-Serif" font-size="14.00" fill="#000000">section: 18&#45;35</text>
</g>
<!-- section_1&#45;&gt;section_7 -->
<g id="edge7" class="edge">
<title>section_1&#45;&gt;section_7</title>
<path fill="none" stroke="#000000" stroke-dasharray="5,2" d="M1495.8593,-458.1492C1542.1928,-445.8392 1614.2611,-426.6919 1664.4398,-413.3603"/>
<polygon fill="#000000" stroke="#000000" points="1665.4035,-416.7258 1674.1695,-410.7753 1663.6061,-409.9605 1665.4035,-416.7258"/>
</g>
<!-- section_8 -->
<g id="node9" class="node">
<title>section_8</title>
<ellipse fill="none" stroke="#000000" cx="2113.5" cy="-398.2004" rx="65.8187" ry="18"/>
<text text-anchor="middle" x="2113.5" y="-394.0004" font-family="Helvetica,sans-Serif" font-size="14.00" fill="#000000">section: 36&#45;51</text>
</g>
<!-- section_1&#45;&gt;section_8 -->
<g id="edge8" class="edge">
<title>section_1&#45;&gt;section_8</title>
<path fill="none" stroke="#000000" stroke-dasharray="5,2" d="M1507.6008,-463.9994C1628.3675,-450.8845 1909.433,-420.3615 2041.944,-405.9712"/>
<polygon fill="#000000" stroke="#000000" points="2042.429,-409.4392 2051.9927,-404.8799 2041.6732,-402.4801 2042.429,-409.4392"/>
</g>
<!-- section_9 -->
<g id="node10" class="node">
<title>section_9</title>
<ellipse fill="none" stroke="#000000" cx="2532.5" cy="-398.2004" rx="65.8187" ry="18"/>
<text text-anchor="middle" x="2532.5" y="-394.0004" font-family="Helvetica,sans-Serif" font-size="14.00" fill="#000000">section: 52&#45;66</text>
</g>
<!-- section_1&#45;&gt;section_9 -->
<g id="edge9" class="edge">
<title>section_1&#45;&gt;section_9</title>
<path fill="none" stroke="#000000" stroke-dasharray="5,2" d="M1509.8273,-466.2526C1693.9288,-454.0018 2255.2741,-416.648 2458.2603,-403.1406"/>
<polygon fill="#000000" stroke="#000000" points="2458.7739,-406.6142 2468.5194,-402.4579 2458.3091,-399.6297 2458.7739,-406.6142"/>
</g>
<!-- section_10 -->
<g id="node11" class="node">
<title>section_10</title>
<ellipse fill="none" stroke="#000000" cx="3071.5" cy="-398.2004" rx="65.8187" ry="18"/>
<text text-anchor="middle" x="3071.5" y="-394.0004" font-family="Helvetica,sans-Serif" font-size="14.00" fill="#000000">section: 67&#45;83</text>
</g>
<!-- section_1&#45;&gt;section_10 -->
<g id="edge10" class="edge">
<title>section_1&#45;&gt;section_10</title>
<path fill="none" stroke="#000000" stroke-dasharray="5,2" d="M1510.5998,-467.531C1760.7826,-456.4186 2719.4541,-413.8372 2996.2593,-401.5424"/>
<polygon fill="#000000" stroke="#000000" points="2996.7612,-405.0236 3006.5961,-401.0832 2996.4506,-398.0305 2996.7612,-405.0236"/>
</g>
<!-- leaf_11 -->
<g id="node12" class="node">
<title>leaf_11</title>
<polygon fill="none" stroke="#c0c0c0" points="296.5,-342.8004 224.5,-342.8004 224.5,-306.8004 296.5,-306.8004 296.5,-342.8004"/>
<text text-anchor="middle" x="260.5" y="-321.3004" font-family="Inconsolata" font-size="14.00" fill="#000000">* Phrase</text>
</g>
<!-- header_2&#45;&gt;leaf_11 -->
<g id="edge11" class="edge">
<title>header_2&#45;&gt;leaf_11</title>
<path fill="none" stroke="#000000" stroke-dasharray="5,2" d="M268.7809,-380.0566C267.5645,-371.9401 266.1019,-362.1805 264.7466,-353.1365"/>
<polygon fill="#000000" stroke="#000000" points="268.1695,-352.3607 263.2259,-342.9899 261.2468,-353.3982 268.1695,-352.3607"/>
</g>
<!-- raw_12 -->
<g id="node13" class="node">
<title>raw_12</title>
<ellipse fill="none" stroke="#000000" cx="341.5" cy="-324.8004" rx="27" ry="18"/>
<text text-anchor="middle" x="341.5" y="-320.6004" font-family="Helvetica,sans-Serif" font-size="14.00" fill="#000000">raw</text>
</g>
<!-- prose_3&#45;&gt;raw_12 -->
<g id="edge12" class="edge">
<title>prose_3&#45;&gt;raw_12</title>
<path fill="none" stroke="#000000" stroke-dasharray="5,2" d="M515.254,-390.4868C481.4481,-381.174 424.4401,-364.2407 377.5,-344.2004 375.4309,-343.3171 373.3225,-342.3552 371.2162,-341.3477"/>
<polygon fill="#000000" stroke="#000000" points="372.6259,-338.1384 362.1236,-336.7412 369.4624,-344.3827 372.6259,-338.1384"/>
</g>
<!-- raw_14 -->
<g id="node15" class="node">
<title>raw_14</title>
<ellipse fill="none" stroke="#000000" cx="413.5" cy="-324.8004" rx="27" ry="18"/>
<text text-anchor="middle" x="413.5" y="-320.6004" font-family="Helvetica,sans-Serif" font-size="14.00" fill="#000000">raw</text>
</g>
<!-- prose_4&#45;&gt;raw_14 -->
<g id="edge14" class="edge">
<title>prose_4&#45;&gt;raw_14</title>
<path fill="none" stroke="#000000" stroke-dasharray="5,2" d="M680.5106,-394.6863C630.165,-388.4845 529.8949,-373.4003 449.5,-344.2004 447.2478,-343.3824 444.9637,-342.4429 442.6953,-341.4281"/>
<polygon fill="#000000" stroke="#000000" points="444.0993,-338.2183 433.5805,-336.9514 441.0134,-344.5015 444.0993,-338.2183"/>
</g>
<!-- link_15 -->
<g id="node16" class="node">
<title>link_15</title>
<ellipse fill="none" stroke="#000000" cx="485.5" cy="-324.8004" rx="27" ry="18"/>
<text text-anchor="middle" x="485.5" y="-320.6004" font-family="Helvetica,sans-Serif" font-size="14.00" fill="#000000">link</text>
</g>
<!-- prose_4&#45;&gt;link_15 -->
<g id="edge15" class="edge">
<title>prose_4&#45;&gt;link_15</title>
<path fill="none" stroke="#000000" stroke-dasharray="5,2" d="M684.2093,-389.0527C642.4427,-375.5475 564.3979,-350.3119 519.552,-335.811"/>
<polygon fill="#000000" stroke="#000000" points="520.5684,-332.4613 509.9766,-332.7148 518.4147,-339.1218 520.5684,-332.4613"/>
</g>
<!-- raw_16 -->
<g id="node17" class="node">
<title>raw_16</title>
<ellipse fill="none" stroke="#000000" cx="733.5" cy="-324.8004" rx="27" ry="18"/>
<text text-anchor="middle" x="733.5" y="-320.6004" font-family="Helvetica,sans-Serif" font-size="14.00" fill="#000000">raw</text>
</g>
<!-- prose_4&#45;&gt;raw_16 -->
<g id="edge16" class="edge">
<title>prose_4&#45;&gt;raw_16</title>
<path fill="none" stroke="#000000" stroke-dasharray="5,2" d="M717.691,-380.0566C720.0993,-371.639 723.0133,-361.454 725.6801,-352.1329"/>
<polygon fill="#000000" stroke="#000000" points="729.0554,-353.0592 728.4412,-342.4822 722.3254,-351.1337 729.0554,-353.0592"/>
</g>
<!-- raw_23 -->
<g id="node24" class="node">
<title>raw_23</title>
<ellipse fill="none" stroke="#000000" cx="1218.5" cy="-324.8004" rx="27" ry="18"/>
<text text-anchor="middle" x="1218.5" y="-320.6004" font-family="Helvetica,sans-Serif" font-size="14.00" fill="#000000">raw</text>
</g>
<!-- prose_5&#45;&gt;raw_23 -->
<g id="edge23" class="edge">
<title>prose_5&#45;&gt;raw_23</title>
<path fill="none" stroke="#000000" stroke-dasharray="5,2" d="M1258.4395,-381.1765C1251.7826,-371.7801 1243.395,-359.9406 1236.0267,-349.54"/>
<polygon fill="#000000" stroke="#000000" points="1238.7742,-347.3636 1230.1374,-341.2271 1233.0623,-351.4102 1238.7742,-347.3636"/>
</g>
<!-- leaf_25 -->
<g id="node26" class="node">
<title>leaf_25</title>
<polygon fill="none" stroke="#c0c0c0" points="1637,-344.1009 1264,-344.1009 1264,-305.4998 1637,-305.4998 1637,-344.1009"/>
<text text-anchor="middle" x="1450.5" y="-329.0004" font-family="Inconsolata" font-size="14.00" fill="#000000">local Phrase = setmetatable({}, {__index = phrase})</text>
<text text-anchor="middle" x="1450.5" y="-313.6004" font-family="Inconsolata" font-size="14.00" fill="#000000">Phrase.isPhrase = Phrase</text>
</g>
<!-- codeblock_6&#45;&gt;leaf_25 -->
<g id="edge25" class="edge">
<title>codeblock_6&#45;&gt;leaf_25</title>
<path fill="none" stroke="#000000" stroke-dasharray="5,2" d="M1450.5,-380.0566C1450.5,-372.3302 1450.5,-363.1147 1450.5,-354.4451"/>
<polygon fill="#000000" stroke="#000000" points="1454.0001,-354.2775 1450.5,-344.2775 1447.0001,-354.2776 1454.0001,-354.2775"/>
</g>
<!-- header_26 -->
<g id="node27" class="node">
<title>header_26</title>
<ellipse fill="none" stroke="#000000" cx="1682.5" cy="-324.8004" rx="27.1216" ry="18"/>
<text text-anchor="middle" x="1682.5" y="-320.6004" font-family="Helvetica,sans-Serif" font-size="14.00" fill="#000000">2 : ..</text>
</g>
<!-- section_7&#45;&gt;header_26 -->
<g id="edge26" class="edge">
<title>section_7&#45;&gt;header_26</title>
<path fill="none" stroke="#000000" stroke-dasharray="5,2" d="M1711.8595,-380.0566C1707.258,-371.3962 1701.6624,-360.865 1696.5954,-351.3287"/>
<polygon fill="#000000" stroke="#000000" points="1699.544,-349.4186 1691.761,-342.2301 1693.3624,-352.7032 1699.544,-349.4186"/>
</g>
<!-- prose_27 -->
<g id="node28" class="node">
<title>prose_27</title>
<ellipse fill="none" stroke="#000000" cx="1760.5" cy="-324.8004" rx="32.4585" ry="18"/>
<text text-anchor="middle" x="1760.5" y="-320.6004" font-family="Helvetica,sans-Serif" font-size="14.00" fill="#000000">prose</text>
</g>
<!-- section_7&#45;&gt;prose_27 -->
<g id="edge27" class="edge">
<title>section_7&#45;&gt;prose_27</title>
<path fill="none" stroke="#000000" stroke-dasharray="5,2" d="M1731.1405,-380.0566C1735.742,-371.3962 1741.3376,-360.865 1746.4046,-351.3287"/>
<polygon fill="#000000" stroke="#000000" points="1749.6376,-352.7032 1751.239,-342.2301 1743.456,-349.4186 1749.6376,-352.7032"/>
</g>
<!-- codeblock_28 -->
<g id="node29" class="node">
<title>codeblock_28</title>
<ellipse fill="none" stroke="#000000" cx="1895.5" cy="-324.8004" rx="77.4211" ry="18"/>
<text text-anchor="middle" x="1895.5" y="-320.6004" font-family="Helvetica,sans-Serif" font-size="14.00" fill="#000000">code block 24&#45;33</text>
</g>
<!-- section_7&#45;&gt;codeblock_28 -->
<g id="edge28" class="edge">
<title>section_7&#45;&gt;codeblock_28</title>
<path fill="none" stroke="#000000" stroke-dasharray="5,2" d="M1757.5529,-382.9919C1783.9355,-371.8627 1819.9691,-356.6623 1848.5923,-344.5879"/>
<polygon fill="#000000" stroke="#000000" points="1850.1372,-347.7349 1857.9906,-340.6233 1847.4164,-341.2853 1850.1372,-347.7349"/>
</g>
<!-- header_33 -->
<g id="node34" class="node">
<title>header_33</title>
<ellipse fill="none" stroke="#000000" cx="2058.5" cy="-324.8004" rx="61.4671" ry="18"/>
<text text-anchor="middle" x="2058.5" y="-320.6004" font-family="Helvetica,sans-Serif" font-size="14.00" fill="#000000">2 : __tostring</text>
</g>
<!-- section_8&#45;&gt;header_33 -->
<g id="edge33" class="edge">
<title>section_8&#45;&gt;header_33</title>
<path fill="none" stroke="#000000" stroke-dasharray="5,2" d="M2100.186,-380.4323C2093.4978,-371.5066 2085.268,-360.5235 2077.8926,-350.6807"/>
<polygon fill="#000000" stroke="#000000" points="2080.4888,-348.3087 2071.6914,-342.4048 2074.887,-352.5063 2080.4888,-348.3087"/>
</g>
<!-- prose_34 -->
<g id="node35" class="node">
<title>prose_34</title>
<ellipse fill="none" stroke="#000000" cx="2169.5" cy="-324.8004" rx="32.4585" ry="18"/>
<text text-anchor="middle" x="2169.5" y="-320.6004" font-family="Helvetica,sans-Serif" font-size="14.00" fill="#000000">prose</text>
</g>
<!-- section_8&#45;&gt;prose_34 -->
<g id="edge34" class="edge">
<title>section_8&#45;&gt;prose_34</title>
<path fill="none" stroke="#000000" stroke-dasharray="5,2" d="M2127.056,-380.4323C2134.1369,-371.1513 2142.915,-359.6458 2150.6474,-349.5108"/>
<polygon fill="#000000" stroke="#000000" points="2153.5534,-351.472 2156.8365,-341.3987 2147.9882,-347.226 2153.5534,-351.472"/>
</g>
<!-- codeblock_35 -->
<g id="node36" class="node">
<title>codeblock_35</title>
<ellipse fill="none" stroke="#000000" cx="2301.5" cy="-324.8004" rx="77.4211" ry="18"/>
<text text-anchor="middle" x="2301.5" y="-320.6004" font-family="Helvetica,sans-Serif" font-size="14.00" fill="#000000">code block 40&#45;49</text>
</g>
<!-- section_8&#45;&gt;codeblock_35 -->
<g id="edge35" class="edge">
<title>section_8&#45;&gt;codeblock_35</title>
<path fill="none" stroke="#000000" stroke-dasharray="5,2" d="M2151.5446,-383.3468C2180.5205,-372.0339 2220.6494,-356.3665 2252.104,-344.0858"/>
<polygon fill="#000000" stroke="#000000" points="2253.5231,-347.2892 2261.5653,-340.3919 2250.9772,-340.7685 2253.5231,-347.2892"/>
</g>
<!-- header_40 -->
<g id="node41" class="node">
<title>header_40</title>
<ellipse fill="none" stroke="#000000" cx="2473.5" cy="-324.8004" rx="68.2066" ry="18"/>
<text text-anchor="middle" x="2473.5" y="-320.6004" font-family="Helvetica,sans-Serif" font-size="14.00" fill="#000000">2 : Constructor</text>
</g>
<!-- section_9&#45;&gt;header_40 -->
<g id="edge40" class="edge">
<title>section_9&#45;&gt;header_40</title>
<path fill="none" stroke="#000000" stroke-dasharray="5,2" d="M2518.2177,-380.4323C2511.0239,-371.4827 2502.1676,-360.4648 2494.2395,-350.6018"/>
<polygon fill="#000000" stroke="#000000" points="2496.8483,-348.2607 2487.8552,-342.6593 2491.3924,-352.6462 2496.8483,-348.2607"/>
</g>
<!-- prose_41 -->
<g id="node42" class="node">
<title>prose_41</title>
<ellipse fill="none" stroke="#000000" cx="2591.5" cy="-324.8004" rx="32.4585" ry="18"/>
<text text-anchor="middle" x="2591.5" y="-320.6004" font-family="Helvetica,sans-Serif" font-size="14.00" fill="#000000">prose</text>
</g>
<!-- section_9&#45;&gt;prose_41 -->
<g id="edge41" class="edge">
<title>section_9&#45;&gt;prose_41</title>
<path fill="none" stroke="#000000" stroke-dasharray="5,2" d="M2546.7823,-380.4323C2554.3171,-371.0585 2563.6759,-359.4155 2571.8815,-349.2072"/>
<polygon fill="#000000" stroke="#000000" points="2574.6209,-351.3856 2578.1581,-341.3987 2569.165,-347.0001 2574.6209,-351.3856"/>
</g>
<!-- codeblock_42 -->
<g id="node43" class="node">
<title>codeblock_42</title>
<ellipse fill="none" stroke="#000000" cx="2739.5" cy="-324.8004" rx="77.4211" ry="18"/>
<text text-anchor="middle" x="2739.5" y="-320.6004" font-family="Helvetica,sans-Serif" font-size="14.00" fill="#000000">code block 54&#45;64</text>
</g>
<!-- section_9&#45;&gt;codeblock_42 -->
<g id="edge42" class="edge">
<title>section_9&#45;&gt;codeblock_42</title>
<path fill="none" stroke="#000000" stroke-dasharray="5,2" d="M2572.9031,-383.8739C2605.4897,-372.319 2651.5704,-355.9793 2687.0108,-343.4125"/>
<polygon fill="#000000" stroke="#000000" points="2688.4493,-346.616 2696.7046,-339.9752 2686.1099,-340.0185 2688.4493,-346.616"/>
</g>
<!-- header_47 -->
<g id="node48" class="node">
<title>header_47</title>
<ellipse fill="none" stroke="#000000" cx="2974.5" cy="-324.8004" rx="46.465" ry="18"/>
<text text-anchor="middle" x="2974.5" y="-320.6004" font-family="Helvetica,sans-Serif" font-size="14.00" fill="#000000">2 : inherit</text>
</g>
<!-- section_10&#45;&gt;header_47 -->
<g id="edge47" class="edge">
<title>section_10&#45;&gt;header_47</title>
<path fill="none" stroke="#000000" stroke-dasharray="5,2" d="M3049.0024,-381.1765C3035.6221,-371.0516 3018.493,-358.0899 3004.0336,-347.1485"/>
<polygon fill="#000000" stroke="#000000" points="3005.9634,-344.2196 2995.8771,-340.9765 3001.7394,-349.8016 3005.9634,-344.2196"/>
</g>
<!-- prose_48 -->
<g id="node49" class="node">
<title>prose_48</title>
<ellipse fill="none" stroke="#000000" cx="3071.5" cy="-324.8004" rx="32.4585" ry="18"/>
<text text-anchor="middle" x="3071.5" y="-320.6004" font-family="Helvetica,sans-Serif" font-size="14.00" fill="#000000">prose</text>
</g>
<!-- section_10&#45;&gt;prose_48 -->
<g id="edge48" class="edge">
<title>section_10&#45;&gt;prose_48</title>
<path fill="none" stroke="#000000" stroke-dasharray="5,2" d="M3071.5,-380.0566C3071.5,-371.9401 3071.5,-362.1805 3071.5,-353.1365"/>
<polygon fill="#000000" stroke="#000000" points="3075.0001,-352.9898 3071.5,-342.9899 3068.0001,-352.9899 3075.0001,-352.9898"/>
</g>
<!-- codeblock_49 -->
<g id="node50" class="node">
<title>codeblock_49</title>
<ellipse fill="none" stroke="#000000" cx="3241.5" cy="-324.8004" rx="77.4211" ry="18"/>
<text text-anchor="middle" x="3241.5" y="-320.6004" font-family="Helvetica,sans-Serif" font-size="14.00" fill="#000000">code block 69&#45;79</text>
</g>
<!-- section_10&#45;&gt;codeblock_49 -->
<g id="edge49" class="edge">
<title>section_10&#45;&gt;codeblock_49</title>
<path fill="none" stroke="#000000" stroke-dasharray="5,2" d="M3106.7241,-382.9919C3132.3012,-371.9486 3167.1623,-356.8968 3195.0214,-344.8682"/>
<polygon fill="#000000" stroke="#000000" points="3196.7635,-347.9284 3204.5569,-340.7511 3193.9887,-341.5018 3196.7635,-347.9284"/>
</g>
<!-- codeblock_50 -->
<g id="node51" class="node">
<title>codeblock_50</title>
<ellipse fill="none" stroke="#000000" cx="3516.5" cy="-324.8004" rx="77.4211" ry="18"/>
<text text-anchor="middle" x="3516.5" y="-320.6004" font-family="Helvetica,sans-Serif" font-size="14.00" fill="#000000">code block 81&#45;83</text>
</g>
<!-- section_10&#45;&gt;codeblock_50 -->
<g id="edge50" class="edge">
<title>section_10&#45;&gt;codeblock_50</title>
<path fill="none" stroke="#000000" stroke-dasharray="5,2" d="M3127.8596,-388.9042C3207.9163,-375.6994 3354.6426,-351.4978 3443.1078,-336.906"/>
<polygon fill="#000000" stroke="#000000" points="3443.7722,-340.3438 3453.0692,-335.2629 3442.6329,-333.4371 3443.7722,-340.3438"/>
</g>
<!-- leaf_13 -->
<g id="node14" class="node">
<title>leaf_13</title>
<polygon fill="none" stroke="#c0c0c0" points="233,-231.7014 0,-231.7014 0,-159.8991 233,-159.8991 233,-231.7014"/>
<text text-anchor="middle" x="116.5" y="-168.3002" font-family="Inconsolata" font-size="14.00" fill="#000000">This is a string builder class.</text>
</g>
<!-- raw_12&#45;&gt;leaf_13 -->
<g id="edge13" class="edge">
<title>raw_12&#45;&gt;leaf_13</title>
<path fill="none" stroke="#000000" stroke-dasharray="5,2" d="M320.5779,-313.2394C300.4972,-302.1087 269.3437,-284.7495 242.5,-269.4003 224.1675,-258.9178 204.4141,-247.4582 186.1091,-236.7692"/>
<polygon fill="#000000" stroke="#000000" points="187.6513,-233.6167 177.2518,-231.5915 184.1186,-239.6599 187.6513,-233.6167"/>
</g>
<!-- leaf_17 -->
<g id="node18" class="node">
<title>leaf_17</title>
<polygon fill="none" stroke="#c0c0c0" points="309.5,-215.7023 251.5,-215.7023 251.5,-175.8981 309.5,-175.8981 309.5,-215.7023"/>
<text text-anchor="middle" x="280.5" y="-184.3002" font-family="Inconsolata" font-size="14.00" fill="#000000">It is </text>
</g>
<!-- raw_14&#45;&gt;leaf_17 -->
<g id="edge17" class="edge">
<title>raw_14&#45;&gt;leaf_17</title>
<path fill="none" stroke="#000000" stroke-dasharray="5,2" d="M392.2638,-313.243C366.052,-298.8513 324.2201,-275.4219 318.5,-269.4003 306.5903,-256.8629 297.4848,-239.8645 291.1768,-225.3622"/>
<polygon fill="#000000" stroke="#000000" points="294.2903,-223.7298 287.2566,-215.8065 287.814,-226.3867 294.2903,-223.7298"/>
</g>
<!-- anchortext_18 -->
<g id="node19" class="node">
<title>anchortext_18</title>
<ellipse fill="none" stroke="#000000" cx="378.5" cy="-195.8002" rx="51.3018" ry="18"/>
<text text-anchor="middle" x="378.5" y="-191.6002" font-family="Helvetica,sans-Serif" font-size="14.00" fill="#000000">anchortext</text>
</g>
<!-- link_15&#45;&gt;anchortext_18 -->
<g id="edge18" class="edge">
<title>link_15&#45;&gt;anchortext_18</title>
<path fill="none" stroke="#000000" stroke-dasharray="5,2" d="M471.8423,-308.8698C462.4179,-297.8361 449.6298,-282.783 438.5,-269.4003 425.194,-253.401 410.4224,-235.2856 398.8655,-221.0307"/>
<polygon fill="#000000" stroke="#000000" points="401.4806,-218.6985 392.4678,-213.1289 396.0402,-223.1033 401.4806,-218.6985"/>
</g>
<!-- url_19 -->
<g id="node20" class="node">
<title>url_19</title>
<ellipse fill="none" stroke="#000000" cx="474.5" cy="-195.8002" rx="27" ry="18"/>
<text text-anchor="middle" x="474.5" y="-191.6002" font-family="Helvetica,sans-Serif" font-size="14.00" fill="#000000">url</text>
</g>
<!-- link_15&#45;&gt;url_19 -->
<g id="edge19" class="edge">
<title>link_15&#45;&gt;url_19</title>
<path fill="none" stroke="#000000" stroke-dasharray="5,2" d="M483.9473,-306.5914C482.1129,-285.0789 479.0403,-249.046 476.8991,-223.9354"/>
<polygon fill="#000000" stroke="#000000" points="480.3819,-223.583 476.0448,-213.9166 473.4072,-224.1778 480.3819,-223.583"/>
</g>
<!-- leaf_22 -->
<g id="node23" class="node">
<title>leaf_22</title>
<polygon fill="none" stroke="#c0c0c0" points="1033,-215.1008 520,-215.1008 520,-176.4996 1033,-176.4996 1033,-215.1008"/>
<text text-anchor="middle" x="776.5" y="-200.0002" font-family="Inconsolata" font-size="14.00" fill="#000000">, may be concatenated with either a string or itself,</text>
<text text-anchor="middle" x="776.5" y="-184.6002" font-family="Inconsolata" font-size="14.00" fill="#000000">and will eventually implement the full string library as method calls. </text>
</g>
<!-- raw_16&#45;&gt;leaf_22 -->
<g id="edge22" class="edge">
<title>raw_16&#45;&gt;leaf_22</title>
<path fill="none" stroke="#000000" stroke-dasharray="5,2" d="M739.3888,-307.1339C746.4239,-286.0285 758.2974,-250.408 766.718,-225.1463"/>
<polygon fill="#000000" stroke="#000000" points="770.1382,-225.9534 769.9802,-215.3597 763.4974,-223.7397 770.1382,-225.9534"/>
</g>
<!-- leaf_20 -->
<g id="node21" class="node">
<title>leaf_20</title>
<polygon fill="none" stroke="#c0c0c0" points="418,-61.1 339,-61.1 339,-25.1 418,-25.1 418,-61.1"/>
<text text-anchor="middle" x="378.5" y="-39.6001" font-family="Inconsolata" font-size="14.00" fill="#000000">heritable</text>
</g>
<!-- anchortext_18&#45;&gt;leaf_20 -->
<g id="edge20" class="edge">
<title>anchortext_18&#45;&gt;leaf_20</title>
<path fill="none" stroke="#000000" stroke-dasharray="5,2" d="M378.5,-177.6839C378.5,-151.3949 378.5,-102.4282 378.5,-71.3665"/>
<polygon fill="#000000" stroke="#000000" points="382.0001,-71.1928 378.5,-61.1928 375.0001,-71.1929 382.0001,-71.1928"/>
</g>
<!-- leaf_21 -->
<g id="node22" class="node">
<title>leaf_21</title>
<polygon fill="none" stroke="#c0c0c0" points="507,-61.1 442,-61.1 442,-25.1 507,-25.1 507,-61.1"/>
<text text-anchor="middle" x="474.5" y="-39.6001" font-family="Inconsolata" font-size="14.00" fill="#000000">httk://</text>
</g>
<!-- url_19&#45;&gt;leaf_21 -->
<g id="edge21" class="edge">
<title>url_19&#45;&gt;leaf_21</title>
<path fill="none" stroke="#000000" stroke-dasharray="5,2" d="M474.5,-177.6839C474.5,-151.3949 474.5,-102.4282 474.5,-71.3665"/>
<polygon fill="#000000" stroke="#000000" points="478.0001,-71.1928 474.5,-61.1928 471.0001,-71.1929 478.0001,-71.1928"/>
</g>
<!-- leaf_24 -->
<g id="node25" class="node">
<title>leaf_24</title>
<polygon fill="none" stroke="#c0c0c0" points="1634,-223.1006 1051,-223.1006 1051,-168.4998 1634,-168.4998 1634,-223.1006"/>
<text text-anchor="middle" x="1342.5" y="-192.0002" font-family="Inconsolata" font-size="14.00" fill="#000000">I use a definite string building paradigm for which the Phrase class is a drop&#45;in</text>
<text text-anchor="middle" x="1342.5" y="-176.6002" font-family="Inconsolata" font-size="14.00" fill="#000000">replacement. </text>
</g>
<!-- raw_23&#45;&gt;leaf_24 -->
<g id="edge24" class="edge">
<title>raw_23&#45;&gt;leaf_24</title>
<path fill="none" stroke="#000000" stroke-dasharray="5,2" d="M1233.2114,-309.4958C1251.7791,-290.1793 1284.2782,-256.3697 1309.0247,-230.6254"/>
<polygon fill="#000000" stroke="#000000" points="1311.6989,-232.8939 1316.1056,-223.259 1306.6523,-228.0429 1311.6989,-232.8939"/>
</g>
<!-- leaf_29 -->
<g id="node30" class="node">
<title>leaf_29</title>
<polygon fill="none" stroke="#c0c0c0" points="1706.5,-213.8002 1652.5,-213.8002 1652.5,-177.8002 1706.5,-177.8002 1706.5,-213.8002"/>
<text text-anchor="middle" x="1679.5" y="-192.3002" font-family="Inconsolata" font-size="14.00" fill="#000000">** ..</text>
</g>
<!-- header_26&#45;&gt;leaf_29 -->
<g id="edge29" class="edge">
<title>header_26&#45;&gt;leaf_29</title>
<path fill="none" stroke="#000000" stroke-dasharray="5,2" d="M1682.0765,-306.5914C1681.5762,-285.0789 1680.7383,-249.046 1680.1543,-223.9354"/>
<polygon fill="#000000" stroke="#000000" points="1683.653,-223.8324 1679.9213,-213.9166 1676.6548,-223.9953 1683.653,-223.8324"/>
</g>
<!-- raw_30 -->
<g id="node31" class="node">
<title>raw_30</title>
<ellipse fill="none" stroke="#000000" cx="1751.5" cy="-195.8002" rx="27" ry="18"/>
<text text-anchor="middle" x="1751.5" y="-191.6002" font-family="Helvetica,sans-Serif" font-size="14.00" fill="#000000">raw</text>
</g>
<!-- prose_27&#45;&gt;raw_30 -->
<g id="edge30" class="edge">
<title>prose_27&#45;&gt;raw_30</title>
<path fill="none" stroke="#000000" stroke-dasharray="5,2" d="M1759.2296,-306.5914C1757.7287,-285.0789 1755.2148,-249.046 1753.4629,-223.9354"/>
<polygon fill="#000000" stroke="#000000" points="1756.9515,-223.6487 1752.7639,-213.9166 1749.9685,-224.1359 1756.9515,-223.6487"/>
</g>
<!-- leaf_32 -->
<g id="node33" class="node">
<title>leaf_32</title>
<polygon fill="none" stroke="#c0c0c0" points="2036.5,-261.5006 1796.5,-261.5006 1796.5,-130.0998 2036.5,-130.0998 2036.5,-261.5006"/>
<text text-anchor="middle" x="1916.5" y="-246.2003" font-family="Inconsolata" font-size="14.00" fill="#000000">local function cat(phrase, tail)</text>
<text text-anchor="middle" x="1916.5" y="-230.8003" font-family="Inconsolata" font-size="14.00" fill="#000000"> &#160;if type(tail) == &#39;string&#39; then</text>
<text text-anchor="middle" x="1916.5" y="-215.4003" font-family="Inconsolata" font-size="14.00" fill="#000000"> &#160;&#160;&#160;return tail</text>
<text text-anchor="middle" x="1916.5" y="-200.0002" font-family="Inconsolata" font-size="14.00" fill="#000000"> &#160;end</text>
<text text-anchor="middle" x="1916.5" y="-184.6002" font-family="Inconsolata" font-size="14.00" fill="#000000"> &#160;phrase[#phrase + 1] = tail</text>
<text text-anchor="middle" x="1916.5" y="-169.2002" font-family="Inconsolata" font-size="14.00" fill="#000000"> &#160;return phrase</text>
<text text-anchor="middle" x="1916.5" y="-153.8002" font-family="Inconsolata" font-size="14.00" fill="#000000">end</text>
<text text-anchor="middle" x="1916.5" y="-138.4001" font-family="Inconsolata" font-size="14.00" fill="#000000">Phrase.__concat = cat</text>
</g>
<!-- codeblock_28&#45;&gt;leaf_32 -->
<g id="edge32" class="edge">
<title>codeblock_28&#45;&gt;leaf_32</title>
<path fill="none" stroke="#000000" stroke-dasharray="5,2" d="M1898.4642,-306.5914C1900.0139,-297.0723 1902.0263,-284.71 1904.1428,-271.709"/>
<polygon fill="#000000" stroke="#000000" points="1907.6232,-272.1115 1905.7756,-261.6791 1900.7142,-270.9867 1907.6232,-272.1115"/>
</g>
<!-- leaf_31 -->
<g id="node32" class="node">
<title>leaf_31</title>
<polygon fill="none" stroke="#c0c0c0" points="2012,-86.3004 1457,-86.3004 1457,.1003 2012,.1003 2012,-86.3004"/>
<text text-anchor="middle" x="1734.5" y="-39.0001" font-family="Inconsolata" font-size="14.00" fill="#000000"> &#160;Concatenation is the frequent operation in working with Nodes. &#160;By default,</text>
<text text-anchor="middle" x="1734.5" y="-23.6001" font-family="Inconsolata" font-size="14.00" fill="#000000">all a Node is in a position to do is yield a string. &#160;Phrase allows us to</text>
<text text-anchor="middle" x="1734.5" y="-8.2" font-family="Inconsolata" font-size="14.00" fill="#000000">enhance that with various table&#45;assisted superpowers. </text>
</g>
<!-- raw_30&#45;&gt;leaf_31 -->
<g id="edge31" class="edge">
<title>raw_30&#45;&gt;leaf_31</title>
<path fill="none" stroke="#000000" stroke-dasharray="5,2" d="M1749.4831,-177.6839C1747.2663,-157.7718 1743.6011,-124.8495 1740.4507,-96.5517"/>
<polygon fill="#000000" stroke="#000000" points="1743.9021,-95.9194 1739.317,-86.3681 1736.945,-96.694 1743.9021,-95.9194"/>
</g>
<!-- leaf_36 -->
<g id="node37" class="node">
<title>leaf_36</title>
<polygon fill="none" stroke="#c0c0c0" points="2120,-223.1006 2055,-223.1006 2055,-168.4998 2120,-168.4998 2120,-223.1006"/>
<text text-anchor="middle" x="2087.5" y="-208.0002" font-family="Inconsolata" font-size="14.00" fill="#000000">ostring</text>
<text text-anchor="middle" x="2087.5" y="-176.6002" font-family="Inconsolata" font-size="14.00" fill="#000000">We wa</text>
</g>
<!-- header_33&#45;&gt;leaf_36 -->
<g id="edge36" class="edge">
<title>header_33&#45;&gt;leaf_36</title>
<path fill="none" stroke="#000000" stroke-dasharray="5,2" d="M2062.5935,-306.5914C2066.8558,-287.6312 2073.6539,-257.3918 2079.0717,-233.2918"/>
<polygon fill="#000000" stroke="#000000" points="2082.5191,-233.9141 2081.2977,-223.3899 2075.6895,-232.3787 2082.5191,-233.9141"/>
</g>
<!-- raw_37 -->
<g id="node38" class="node">
<title>raw_37</title>
<ellipse fill="none" stroke="#000000" cx="2165.5" cy="-195.8002" rx="27" ry="18"/>
<text text-anchor="middle" x="2165.5" y="-191.6002" font-family="Helvetica,sans-Serif" font-size="14.00" fill="#000000">raw</text>
</g>
<!-- prose_34&#45;&gt;raw_37 -->
<g id="edge37" class="edge">
<title>prose_34&#45;&gt;raw_37</title>
<path fill="none" stroke="#000000" stroke-dasharray="5,2" d="M2168.9354,-306.5914C2168.2683,-285.0789 2167.151,-249.046 2166.3724,-223.9354"/>
<polygon fill="#000000" stroke="#000000" points="2169.8701,-223.8032 2166.0617,-213.9166 2162.8735,-224.0203 2169.8701,-223.8032"/>
</g>
<!-- leaf_39 -->
<g id="node40" class="node">
<title>leaf_39</title>
<polygon fill="none" stroke="#c0c0c0" points="2444,-261.6006 2211,-261.6006 2211,-129.9998 2444,-129.9998 2444,-261.6006"/>
<text text-anchor="middle" x="2327.5" y="-246.5003" font-family="Inconsolata" font-size="14.00" fill="#000000">local function toString(phrase)</text>
<text text-anchor="middle" x="2327.5" y="-231.1003" font-family="Inconsolata" font-size="14.00" fill="#000000"> &#160;local str = &quot;&quot;</text>
<text text-anchor="middle" x="2327.5" y="-215.7003" font-family="Inconsolata" font-size="14.00" fill="#000000"> &#160;for i,v in ipairs(phrase) do</text>
<text text-anchor="middle" x="2327.5" y="-200.3002" font-family="Inconsolata" font-size="14.00" fill="#000000"> &#160;&#160;&#160;str = str .. tostring(v)</text>
<text text-anchor="middle" x="2327.5" y="-184.9002" font-family="Inconsolata" font-size="14.00" fill="#000000"> &#160;end</text>
<text text-anchor="middle" x="2327.5" y="-153.5002" font-family="Inconsolata" font-size="14.00" fill="#000000"> &#160;return str</text>
<text text-anchor="middle" x="2327.5" y="-138.1001" font-family="Inconsolata" font-size="14.00" fill="#000000">end</text>
</g>
<!-- codeblock_35&#45;&gt;leaf_39 -->
<g id="edge39" class="edge">
<title>codeblock_35&#45;&gt;leaf_39</title>
<path fill="none" stroke="#000000" stroke-dasharray="5,2" d="M2305.17,-306.5914C2307.0886,-297.0723 2309.5802,-284.71 2312.2006,-271.709"/>
<polygon fill="#000000" stroke="#000000" points="2315.6773,-272.1735 2314.2221,-261.6791 2308.8153,-270.7904 2315.6773,-272.1735"/>
</g>
<!-- leaf_38 -->
<g id="node39" class="node">
<title>leaf_38</title>
<polygon fill="none" stroke="#c0c0c0" points="2333,-71.0015 2030,-71.0015 2030,-15.1986 2333,-15.1986 2333,-71.0015"/>
<text text-anchor="middle" x="2181.5" y="-23.6001" font-family="Inconsolata" font-size="14.00" fill="#000000">We want to behave like a string whenever </text>
</g>
<!-- raw_37&#45;&gt;leaf_38 -->
<g id="edge38" class="edge">
<title>raw_37&#45;&gt;leaf_38</title>
<path fill="none" stroke="#000000" stroke-dasharray="5,2" d="M2167.3982,-177.6839C2169.8822,-153.9773 2174.2985,-111.8293 2177.5288,-80.9999"/>
<polygon fill="#000000" stroke="#000000" points="2181.0131,-81.3319 2178.5744,-71.0216 2174.0512,-80.6023 2181.0131,-81.3319"/>
</g>
<!-- leaf_43 -->
<g id="node44" class="node">
<title>leaf_43</title>
<polygon fill="none" stroke="#c0c0c0" points="2516.5,-231.0006 2462.5,-231.0006 2462.5,-160.5998 2516.5,-160.5998 2516.5,-231.0006"/>
<text text-anchor="middle" x="2489.5" y="-215.7003" font-family="Inconsolata" font-size="14.00" fill="#000000">or</text>
<text text-anchor="middle" x="2489.5" y="-184.3002" font-family="Inconsolata" font-size="14.00" fill="#000000">#!lua</text>
<text text-anchor="middle" x="2489.5" y="-168.9002" font-family="Inconsolata" font-size="14.00" fill="#000000">local</text>
</g>
<!-- header_40&#45;&gt;leaf_43 -->
<g id="edge43" class="edge">
<title>header_40&#45;&gt;leaf_43</title>
<path fill="none" stroke="#000000" stroke-dasharray="5,2" d="M2475.7585,-306.5914C2477.865,-289.6073 2481.0941,-263.5726 2483.8929,-241.0075"/>
<polygon fill="#000000" stroke="#000000" points="2487.3854,-241.2837 2485.143,-230.9289 2480.4386,-240.422 2487.3854,-241.2837"/>
</g>
<!-- raw_44 -->
<g id="node45" class="node">
<title>raw_44</title>
<ellipse fill="none" stroke="#000000" cx="2561.5" cy="-195.8002" rx="27" ry="18"/>
<text text-anchor="middle" x="2561.5" y="-191.6002" font-family="Helvetica,sans-Serif" font-size="14.00" fill="#000000">raw</text>
</g>
<!-- prose_41&#45;&gt;raw_44 -->
<g id="edge44" class="edge">
<title>prose_41&#45;&gt;raw_44</title>
<path fill="none" stroke="#000000" stroke-dasharray="5,2" d="M2587.3286,-306.8635C2582.3417,-285.4195 2573.9354,-249.2726 2568.0723,-224.0613"/>
<polygon fill="#000000" stroke="#000000" points="2571.4069,-222.9479 2565.7327,-214.0007 2564.5888,-224.5336 2571.4069,-222.9479"/>
</g>
<!-- leaf_46 -->
<g id="node47" class="node">
<title>leaf_46</title>
<polygon fill="none" stroke="#c0c0c0" points="2910,-269.5006 2607,-269.5006 2607,-122.0998 2910,-122.0998 2910,-269.5006"/>
<text text-anchor="middle" x="2758.5" y="-254.2003" font-family="Inconsolata" font-size="14.00" fill="#000000">local function new(_, str)</text>
<text text-anchor="middle" x="2758.5" y="-238.8003" font-family="Inconsolata" font-size="14.00" fill="#000000"> &#160;local phrase = setmetatable({}, Phrase)</text>
<text text-anchor="middle" x="2758.5" y="-223.4003" font-family="Inconsolata" font-size="14.00" fill="#000000"> &#160;if str then</text>
<text text-anchor="middle" x="2758.5" y="-208.0002" font-family="Inconsolata" font-size="14.00" fill="#000000"> &#160;&#160;&#160;phrase[1] = str</text>
<text text-anchor="middle" x="2758.5" y="-192.6002" font-family="Inconsolata" font-size="14.00" fill="#000000"> &#160;end</text>
<text text-anchor="middle" x="2758.5" y="-177.2002" font-family="Inconsolata" font-size="14.00" fill="#000000"> &#160;return phrase</text>
<text text-anchor="middle" x="2758.5" y="-161.8002" font-family="Inconsolata" font-size="14.00" fill="#000000">end</text>
<text text-anchor="middle" x="2758.5" y="-130.4001" font-family="Inconsolata" font-size="14.00" fill="#000000">Phrase.__call = new</text>
</g>
<!-- codeblock_42&#45;&gt;leaf_46 -->
<g id="edge46" class="edge">
<title>codeblock_42&#45;&gt;leaf_46</title>
<path fill="none" stroke="#000000" stroke-dasharray="5,2" d="M2742.1819,-306.5914C2743.306,-298.9599 2744.6991,-289.5011 2746.1941,-279.3508"/>
<polygon fill="#000000" stroke="#000000" points="2749.6586,-279.8476 2747.6532,-269.4443 2742.7333,-278.8275 2749.6586,-279.8476"/>
</g>
<!-- leaf_45 -->
<g id="node46" class="node">
<title>leaf_45</title>
<polygon fill="none" stroke="#c0c0c0" points="2588.5,-61.1 2534.5,-61.1 2534.5,-25.1 2588.5,-25.1 2588.5,-61.1"/>
</g>
<!-- raw_44&#45;&gt;leaf_45 -->
<g id="edge45" class="edge">
<title>raw_44&#45;&gt;leaf_45</title>
<path fill="none" stroke="#000000" stroke-dasharray="5,2" d="M2561.5,-177.6839C2561.5,-151.3949 2561.5,-102.4282 2561.5,-71.3665"/>
<polygon fill="#000000" stroke="#000000" points="2565.0001,-71.1928 2561.5,-61.1928 2558.0001,-71.1929 2565.0001,-71.1928"/>
</g>
<!-- leaf_51 -->
<g id="node52" class="node">
<title>leaf_51</title>
<polygon fill="none" stroke="#c0c0c0" points="3021,-213.8002 2928,-213.8002 2928,-177.8002 3021,-177.8002 3021,-213.8002"/>
<text text-anchor="middle" x="2974.5" y="-192.3002" font-family="Inconsolata" font-size="14.00" fill="#000000">function Ph</text>
</g>
<!-- header_47&#45;&gt;leaf_51 -->
<g id="edge51" class="edge">
<title>header_47&#45;&gt;leaf_51</title>
<path fill="none" stroke="#000000" stroke-dasharray="5,2" d="M2974.5,-306.5914C2974.5,-285.0789 2974.5,-249.046 2974.5,-223.9354"/>
<polygon fill="#000000" stroke="#000000" points="2978.0001,-223.9165 2974.5,-213.9166 2971.0001,-223.9166 2978.0001,-223.9165"/>
</g>
<!-- raw_52 -->
<g id="node53" class="node">
<title>raw_52</title>
<ellipse fill="none" stroke="#000000" cx="3066.5" cy="-195.8002" rx="27" ry="18"/>
<text text-anchor="middle" x="3066.5" y="-191.6002" font-family="Helvetica,sans-Serif" font-size="14.00" fill="#000000">raw</text>
</g>
<!-- prose_48&#45;&gt;raw_52 -->
<g id="edge52" class="edge">
<title>prose_48&#45;&gt;raw_52</title>
<path fill="none" stroke="#000000" stroke-dasharray="5,2" d="M3070.7942,-306.5914C3069.9604,-285.0789 3068.5638,-249.046 3067.5905,-223.9354"/>
<polygon fill="#000000" stroke="#000000" points="3071.087,-223.7735 3067.2022,-213.9166 3064.0922,-224.0446 3071.087,-223.7735"/>
</g>
<!-- leaf_54 -->
<g id="node55" class="node">
<title>leaf_54</title>
<polygon fill="none" stroke="#c0c0c0" points="3457,-268.901 3112,-268.901 3112,-122.6994 3457,-122.6994 3457,-268.901"/>
<text text-anchor="middle" x="3284.5" y="-253.9004" font-family="Inconsolata" font-size="14.00" fill="#000000">function Phrase.inherit(phrase)</text>
<text text-anchor="middle" x="3284.5" y="-238.5003" font-family="Inconsolata" font-size="14.00" fill="#000000"> &#160;local Meta = setmetatable({}, phrase)</text>
<text text-anchor="middle" x="3284.5" y="-223.1003" font-family="Inconsolata" font-size="14.00" fill="#000000"> &#160;Meta.__index = Meta</text>
<text text-anchor="middle" x="3284.5" y="-207.7003" font-family="Inconsolata" font-size="14.00" fill="#000000"> &#160;Meta.__call &#160;= getmetatable(phrase).__call</text>
<text text-anchor="middle" x="3284.5" y="-192.3002" font-family="Inconsolata" font-size="14.00" fill="#000000"> &#160;Meta.__concat = getmetatable(phrase).__concat</text>
<text text-anchor="middle" x="3284.5" y="-176.9002" font-family="Inconsolata" font-size="14.00" fill="#000000"> &#160;local meta = setmetatable({}, Meta)</text>
<text text-anchor="middle" x="3284.5" y="-161.5002" font-family="Inconsolata" font-size="14.00" fill="#000000"> &#160;meta.__index = meta</text>
<text text-anchor="middle" x="3284.5" y="-146.1001" font-family="Inconsolata" font-size="14.00" fill="#000000"> &#160;return Meta, meta</text>
<text text-anchor="middle" x="3284.5" y="-130.7001" font-family="Inconsolata" font-size="14.00" fill="#000000">end</text>
</g>
<!-- codeblock_49&#45;&gt;leaf_54 -->
<g id="edge54" class="edge">
<title>codeblock_49&#45;&gt;leaf_54</title>
<path fill="none" stroke="#000000" stroke-dasharray="5,2" d="M3247.5696,-306.5914C3250.1574,-298.8281 3253.3755,-289.1737 3256.8254,-278.8241"/>
<polygon fill="#000000" stroke="#000000" points="3260.2054,-279.7518 3260.0474,-269.1582 3253.5646,-277.5382 3260.2054,-279.7518"/>
</g>
<!-- leaf_55 -->
<g id="node56" class="node">
<title>leaf_55</title>
<polygon fill="none" stroke="#c0c0c0" points="3764,-213.8002 3475,-213.8002 3475,-177.8002 3764,-177.8002 3764,-213.8002"/>
<text text-anchor="middle" x="3619.5" y="-192.3002" font-family="Inconsolata" font-size="14.00" fill="#000000">return setmetatable({}, {__call = new})</text>
</g>
<!-- codeblock_50&#45;&gt;leaf_55 -->
<g id="edge55" class="edge">
<title>codeblock_50&#45;&gt;leaf_55</title>
<path fill="none" stroke="#000000" stroke-dasharray="5,2" d="M3530.8217,-306.8635C3548.4022,-284.8451 3578.3596,-247.3256 3598.5334,-222.0594"/>
<polygon fill="#000000" stroke="#000000" points="3601.4634,-223.9991 3604.9679,-214.0007 3595.9932,-219.6314 3601.4634,-223.9991"/>
</g>
<!-- leaf_53 -->
<g id="node54" class="node">
<title>leaf_53</title>
<polygon fill="none" stroke="#c0c0c0" points="3093.5,-61.1 3039.5,-61.1 3039.5,-25.1 3093.5,-25.1 3093.5,-61.1"/>
</g>
<!-- raw_52&#45;&gt;leaf_53 -->
<g id="edge53" class="edge">
<title>raw_52&#45;&gt;leaf_53</title>
<path fill="none" stroke="#000000" stroke-dasharray="5,2" d="M3066.5,-177.6839C3066.5,-151.3949 3066.5,-102.4282 3066.5,-71.3665"/>
<polygon fill="#000000" stroke="#000000" points="3070.0001,-71.1928 3066.5,-61.1928 3063.0001,-71.1929 3070.0001,-71.1928"/>
</g>
</g>
</svg>