<?xml version="1.0" encoding="UTF-8" standalone="no"?>
<!DOCTYPE svg PUBLIC "-//W3C//DTD SVG 1.1//EN"
 "http://www.w3.org/Graphics/SVG/1.1/DTD/svg11.dtd">
<!-- Generated by graphviz version 2.40.1 (20161225.0304)
 -->
<!-- Title: lpegNode Pages: 1 -->
<svg width="3167pt" height="890pt"
 viewBox="0.00 0.00 3167.30 890.00" xmlns="http://www.w3.org/2000/svg" xmlns:xlink="http://www.w3.org/1999/xlink">
<g id="graph0" class="graph" transform="scale(1 1) rotate(0) translate(4 886.0009)">
<title>lpegNode</title>
<polygon fill="#ffffff" stroke="transparent" points="-4,4 -4,-886.0009 3163.2972,-886.0009 3163.2972,4 -4,4"/>
<!-- doc_0 -->
<g id="node1" class="node">
<title>doc_0</title>
<ellipse fill="none" stroke="#000000" cx="1113" cy="-864.0009" rx="46.9581" ry="18"/>
<text text-anchor="middle" x="1113" y="-859.8009" font-family="Helvetica,sans-Serif" font-size="14.00" fill="#000000">doc &#45; 102</text>
</g>
<!-- section_1 -->
<g id="node2" class="node">
<title>section_1</title>
<ellipse fill="none" stroke="#000000" cx="1113" cy="-792.0009" rx="60.9826" ry="18"/>
<text text-anchor="middle" x="1113" y="-787.8009" font-family="Helvetica,sans-Serif" font-size="14.00" fill="#000000">section: 1&#45;78</text>
</g>
<!-- doc_0&#45;&gt;section_1 -->
<g id="edge1" class="edge">
<title>doc_0&#45;&gt;section_1</title>
<path fill="none" stroke="#000000" stroke-dasharray="5,2" d="M1113,-845.8323C1113,-838.1319 1113,-828.9753 1113,-820.4176"/>
<polygon fill="#000000" stroke="#000000" points="1116.5001,-820.4142 1113,-810.4142 1109.5001,-820.4142 1116.5001,-820.4142"/>
</g>
<!-- header_2 -->
<g id="node3" class="node">
<title>header_2</title>
<ellipse fill="none" stroke="#000000" cx="438" cy="-720.0009" rx="42.6061" ry="18"/>
<text text-anchor="middle" x="438" y="-715.8009" font-family="Helvetica,sans-Serif" font-size="14.00" fill="#000000">1 : Spec</text>
</g>
<!-- section_1&#45;&gt;header_2 -->
<g id="edge2" class="edge">
<title>section_1&#45;&gt;header_2</title>
<path fill="none" stroke="#000000" stroke-dasharray="5,2" d="M1055.2016,-786.3488C958.6105,-776.8349 758.2911,-756.8129 589,-738.0009 555.6698,-734.2972 518.2394,-729.8374 488.9835,-726.2836"/>
<polygon fill="#000000" stroke="#000000" points="489.3463,-722.802 478.9964,-725.0671 488.4998,-729.7506 489.3463,-722.802"/>
</g>
<!-- prose_3 -->
<g id="node4" class="node">
<title>prose_3</title>
<ellipse fill="none" stroke="#000000" cx="630" cy="-720.0009" rx="32.4585" ry="18"/>
<text text-anchor="middle" x="630" y="-715.8009" font-family="Helvetica,sans-Serif" font-size="14.00" fill="#000000">prose</text>
</g>
<!-- section_1&#45;&gt;prose_3 -->
<g id="edge3" class="edge">
<title>section_1&#45;&gt;prose_3</title>
<path fill="none" stroke="#000000" stroke-dasharray="5,2" d="M1056.5414,-785.3389C980.0572,-776.064 839.3561,-758.1174 720,-738.0009 703.6304,-735.242 685.6792,-731.7476 670.1446,-728.5732"/>
<polygon fill="#000000" stroke="#000000" points="670.8275,-725.1404 660.3261,-726.5444 669.4109,-731.9956 670.8275,-725.1404"/>
</g>
<!-- section_4 -->
<g id="node5" class="node">
<title>section_4</title>
<ellipse fill="none" stroke="#000000" cx="790" cy="-720.0009" rx="60.9826" ry="18"/>
<text text-anchor="middle" x="790" y="-715.8009" font-family="Helvetica,sans-Serif" font-size="14.00" fill="#000000">section: 6&#45;29</text>
</g>
<!-- section_1&#45;&gt;section_4 -->
<g id="edge4" class="edge">
<title>section_1&#45;&gt;section_4</title>
<path fill="none" stroke="#000000" stroke-dasharray="5,2" d="M1064.2939,-781.1439C1006.5318,-768.2681 910.3204,-746.8216 848.5559,-733.0536"/>
<polygon fill="#000000" stroke="#000000" points="849.0954,-729.5881 838.5735,-730.8285 847.5724,-736.4204 849.0954,-729.5881"/>
</g>
<!-- section_5 -->
<g id="node6" class="node">
<title>section_5</title>
<ellipse fill="none" stroke="#000000" cx="1403" cy="-720.0009" rx="65.8187" ry="18"/>
<text text-anchor="middle" x="1403" y="-715.8009" font-family="Helvetica,sans-Serif" font-size="14.00" fill="#000000">section: 30&#45;70</text>
</g>
<!-- section_1&#45;&gt;section_5 -->
<g id="edge5" class="edge">
<title>section_1&#45;&gt;section_5</title>
<path fill="none" stroke="#000000" stroke-dasharray="5,2" d="M1159.5935,-780.4329C1209.7861,-767.9713 1289.7651,-748.1144 1344.2385,-734.59"/>
<polygon fill="#000000" stroke="#000000" points="1345.2381,-737.9481 1354.1001,-732.1416 1343.5514,-731.1544 1345.2381,-737.9481"/>
</g>
<!-- section_6 -->
<g id="node7" class="node">
<title>section_6</title>
<ellipse fill="none" stroke="#000000" cx="2006" cy="-720.0009" rx="65.8187" ry="18"/>
<text text-anchor="middle" x="2006" y="-715.8009" font-family="Helvetica,sans-Serif" font-size="14.00" fill="#000000">section: 71&#45;78</text>
</g>
<!-- section_1&#45;&gt;section_6 -->
<g id="edge6" class="edge">
<title>section_1&#45;&gt;section_6</title>
<path fill="none" stroke="#000000" stroke-dasharray="5,2" d="M1171.9376,-787.249C1329.4656,-774.5479 1760.0077,-739.8346 1932.8033,-725.9026"/>
<polygon fill="#000000" stroke="#000000" points="1933.1324,-729.3875 1942.8187,-725.0951 1932.5697,-722.4101 1933.1324,-729.3875"/>
</g>
<!-- section_7 -->
<g id="node8" class="node">
<title>section_7</title>
<ellipse fill="none" stroke="#000000" cx="2601" cy="-720.0009" rx="70.655" ry="18"/>
<text text-anchor="middle" x="2601" y="-715.8009" font-family="Helvetica,sans-Serif" font-size="14.00" fill="#000000">section: 79&#45;102</text>
</g>
<!-- section_1&#45;&gt;section_7 -->
<g id="edge7" class="edge">
<title>section_1&#45;&gt;section_7</title>
<path fill="none" stroke="#000000" stroke-dasharray="5,2" d="M1173.1743,-789.0893C1407.1079,-777.7699 2256.1555,-736.687 2521.3169,-723.8566"/>
<polygon fill="#000000" stroke="#000000" points="2521.8097,-727.3369 2531.6288,-723.3576 2521.4713,-720.3451 2521.8097,-727.3369"/>
</g>
<!-- leaf_8 -->
<g id="node9" class="node">
<title>leaf_8</title>
<polygon fill="none" stroke="#c0c0c0" points="417,-666.0009 359,-666.0009 359,-630.0009 417,-630.0009 417,-666.0009"/>
<text text-anchor="middle" x="388" y="-644.501" font-family="Inconsolata" font-size="14.00" fill="#000000">* Spec</text>
</g>
<!-- header_2&#45;&gt;leaf_8 -->
<g id="edge8" class="edge">
<title>header_2&#45;&gt;leaf_8</title>
<path fill="none" stroke="#000000" stroke-dasharray="5,2" d="M425.8964,-702.5717C420.0104,-694.0959 412.811,-683.7288 406.2744,-674.316"/>
<polygon fill="#000000" stroke="#000000" points="409.0931,-672.2388 400.5143,-666.0215 403.3435,-676.2316 409.0931,-672.2388"/>
</g>
<!-- raw_9 -->
<g id="node10" class="node">
<title>raw_9</title>
<ellipse fill="none" stroke="#000000" cx="462" cy="-648.0009" rx="27" ry="18"/>
<text text-anchor="middle" x="462" y="-643.8009" font-family="Helvetica,sans-Serif" font-size="14.00" fill="#000000">raw</text>
</g>
<!-- prose_3&#45;&gt;raw_9 -->
<g id="edge9" class="edge">
<title>prose_3&#45;&gt;raw_9</title>
<path fill="none" stroke="#000000" stroke-dasharray="5,2" d="M603.2018,-709.723C576.3535,-699.266 533.9631,-682.3198 498,-666.0009 496.2342,-665.1997 494.4282,-664.3606 492.6115,-663.5014"/>
<polygon fill="#000000" stroke="#000000" points="494.0999,-660.3334 483.5749,-659.1185 491.0451,-666.6317 494.0999,-660.3334"/>
</g>
<!-- header_11 -->
<g id="node12" class="node">
<title>header_11</title>
<ellipse fill="none" stroke="#000000" cx="562" cy="-648.0009" rx="54.6851" ry="18"/>
<text text-anchor="middle" x="562" y="-643.8009" font-family="Helvetica,sans-Serif" font-size="14.00" fill="#000000">3 : includes</text>
</g>
<!-- section_4&#45;&gt;header_11 -->
<g id="edge11" class="edge">
<title>section_4&#45;&gt;header_11</title>
<path fill="none" stroke="#000000" stroke-dasharray="5,2" d="M748.1813,-706.795C709.5825,-694.6059 652.2291,-676.4943 611.3905,-663.5979"/>
<polygon fill="#000000" stroke="#000000" points="612.2352,-660.1944 601.6454,-660.5205 610.1272,-666.8694 612.2352,-660.1944"/>
</g>
<!-- prose_12 -->
<g id="node13" class="node">
<title>prose_12</title>
<ellipse fill="none" stroke="#000000" cx="667" cy="-648.0009" rx="32.4585" ry="18"/>
<text text-anchor="middle" x="667" y="-643.8009" font-family="Helvetica,sans-Serif" font-size="14.00" fill="#000000">prose</text>
</g>
<!-- section_4&#45;&gt;prose_12 -->
<g id="edge12" class="edge">
<title>section_4&#45;&gt;prose_12</title>
<path fill="none" stroke="#000000" stroke-dasharray="5,2" d="M762.3964,-703.8427C743.3555,-692.6969 718.0105,-677.8608 698.2307,-666.2823"/>
<polygon fill="#000000" stroke="#000000" points="699.9752,-663.248 689.5769,-661.2167 696.4389,-669.2891 699.9752,-663.248"/>
</g>
<!-- codeblock_13 -->
<g id="node14" class="node">
<title>codeblock_13</title>
<ellipse fill="none" stroke="#000000" cx="790" cy="-648.0009" rx="72.5844" ry="18"/>
<text text-anchor="middle" x="790" y="-643.8009" font-family="Helvetica,sans-Serif" font-size="14.00" fill="#000000">code block 8&#45;22</text>
</g>
<!-- section_4&#45;&gt;codeblock_13 -->
<g id="edge13" class="edge">
<title>section_4&#45;&gt;codeblock_13</title>
<path fill="none" stroke="#000000" stroke-dasharray="5,2" d="M790,-701.8323C790,-694.1319 790,-684.9753 790,-676.4176"/>
<polygon fill="#000000" stroke="#000000" points="793.5001,-676.4142 790,-666.4142 786.5001,-676.4142 793.5001,-676.4142"/>
</g>
<!-- codeblock_14 -->
<g id="node15" class="node">
<title>codeblock_14</title>
<ellipse fill="none" stroke="#000000" cx="991" cy="-648.0009" rx="77.4211" ry="18"/>
<text text-anchor="middle" x="991" y="-643.8009" font-family="Helvetica,sans-Serif" font-size="14.00" fill="#000000">code block 24&#45;28</text>
</g>
<!-- section_4&#45;&gt;codeblock_14 -->
<g id="edge14" class="edge">
<title>section_4&#45;&gt;codeblock_14</title>
<path fill="none" stroke="#000000" stroke-dasharray="5,2" d="M828.7548,-706.1186C860.1416,-694.8756 904.6466,-678.9335 939.1077,-666.5892"/>
<polygon fill="#000000" stroke="#000000" points="940.308,-669.8771 948.542,-663.2098 937.9474,-663.2871 940.308,-669.8771"/>
</g>
<!-- header_20 -->
<g id="node21" class="node">
<title>header_20</title>
<ellipse fill="none" stroke="#000000" cx="1267" cy="-648.0009" rx="85.0876" ry="18"/>
<text text-anchor="middle" x="1267" y="-643.8009" font-family="Helvetica,sans-Serif" font-size="14.00" fill="#000000">2 : Trivial Grammar</text>
</g>
<!-- section_5&#45;&gt;header_20 -->
<g id="edge20" class="edge">
<title>section_5&#45;&gt;header_20</title>
<path fill="none" stroke="#000000" stroke-dasharray="5,2" d="M1372.4789,-703.8427C1353.3774,-693.7302 1328.5379,-680.5798 1307.7622,-669.5809"/>
<polygon fill="#000000" stroke="#000000" points="1309.3132,-666.4418 1298.8377,-664.8562 1306.0379,-672.6284 1309.3132,-666.4418"/>
</g>
<!-- prose_21 -->
<g id="node22" class="node">
<title>prose_21</title>
<ellipse fill="none" stroke="#000000" cx="1403" cy="-648.0009" rx="32.4585" ry="18"/>
<text text-anchor="middle" x="1403" y="-643.8009" font-family="Helvetica,sans-Serif" font-size="14.00" fill="#000000">prose</text>
</g>
<!-- section_5&#45;&gt;prose_21 -->
<g id="edge21" class="edge">
<title>section_5&#45;&gt;prose_21</title>
<path fill="none" stroke="#000000" stroke-dasharray="5,2" d="M1403,-701.8323C1403,-694.1319 1403,-684.9753 1403,-676.4176"/>
<polygon fill="#000000" stroke="#000000" points="1406.5001,-676.4142 1403,-666.4142 1399.5001,-676.4142 1406.5001,-676.4142"/>
</g>
<!-- prose_22 -->
<g id="node23" class="node">
<title>prose_22</title>
<ellipse fill="none" stroke="#000000" cx="1485" cy="-648.0009" rx="32.4585" ry="18"/>
<text text-anchor="middle" x="1485" y="-643.8009" font-family="Helvetica,sans-Serif" font-size="14.00" fill="#000000">prose</text>
</g>
<!-- section_5&#45;&gt;prose_22 -->
<g id="edge22" class="edge">
<title>section_5&#45;&gt;prose_22</title>
<path fill="none" stroke="#000000" stroke-dasharray="5,2" d="M1422.8499,-702.5717C1433.9412,-692.833 1447.8761,-680.5975 1459.7387,-670.1816"/>
<polygon fill="#000000" stroke="#000000" points="1462.3546,-672.5424 1467.5597,-663.3143 1457.736,-667.2823 1462.3546,-672.5424"/>
</g>
<!-- codeblock_23 -->
<g id="node24" class="node">
<title>codeblock_23</title>
<ellipse fill="none" stroke="#000000" cx="1658" cy="-648.0009" rx="77.4211" ry="18"/>
<text text-anchor="middle" x="1658" y="-643.8009" font-family="Helvetica,sans-Serif" font-size="14.00" fill="#000000">code block 36&#45;69</text>
</g>
<!-- section_5&#45;&gt;codeblock_23 -->
<g id="edge23" class="edge">
<title>section_5&#45;&gt;codeblock_23</title>
<path fill="none" stroke="#000000" stroke-dasharray="5,2" d="M1448.8834,-707.0456C1490.8303,-695.2018 1553.1098,-677.617 1598.7941,-664.7179"/>
<polygon fill="#000000" stroke="#000000" points="1599.8951,-668.044 1608.5677,-661.9583 1597.9929,-661.3073 1599.8951,-668.044"/>
</g>
<!-- header_30 -->
<g id="node31" class="node">
<title>header_30</title>
<ellipse fill="none" stroke="#000000" cx="1948" cy="-648.0009" rx="66.7704" ry="18"/>
<text text-anchor="middle" x="1948" y="-643.8009" font-family="Helvetica,sans-Serif" font-size="14.00" fill="#000000">2 : Easy mode</text>
</g>
<!-- section_6&#45;&gt;header_30 -->
<g id="edge30" class="edge">
<title>section_6&#45;&gt;header_30</title>
<path fill="none" stroke="#000000" stroke-dasharray="5,2" d="M1991.6629,-702.2032C1984.7095,-693.5713 1976.2298,-683.0449 1968.5994,-673.5726"/>
<polygon fill="#000000" stroke="#000000" points="1971.1711,-671.1859 1962.1722,-665.594 1965.7198,-675.5772 1971.1711,-671.1859"/>
</g>
<!-- prose_31 -->
<g id="node32" class="node">
<title>prose_31</title>
<ellipse fill="none" stroke="#000000" cx="2065" cy="-648.0009" rx="32.4585" ry="18"/>
<text text-anchor="middle" x="2065" y="-643.8009" font-family="Helvetica,sans-Serif" font-size="14.00" fill="#000000">prose</text>
</g>
<!-- section_6&#45;&gt;prose_31 -->
<g id="edge31" class="edge">
<title>section_6&#45;&gt;prose_31</title>
<path fill="none" stroke="#000000" stroke-dasharray="5,2" d="M2020.5843,-702.2032C2027.9423,-693.2239 2036.9804,-682.1944 2044.9784,-672.434"/>
<polygon fill="#000000" stroke="#000000" points="2047.7614,-674.56 2051.3924,-664.6068 2042.347,-670.1232 2047.7614,-674.56"/>
</g>
<!-- codeblock_32 -->
<g id="node33" class="node">
<title>codeblock_32</title>
<ellipse fill="none" stroke="#000000" cx="2202" cy="-648.0009" rx="77.4211" ry="18"/>
<text text-anchor="middle" x="2202" y="-643.8009" font-family="Helvetica,sans-Serif" font-size="14.00" fill="#000000">code block 73&#45;77</text>
</g>
<!-- section_6&#45;&gt;codeblock_32 -->
<g id="edge32" class="edge">
<title>section_6&#45;&gt;codeblock_32</title>
<path fill="none" stroke="#000000" stroke-dasharray="5,2" d="M2045.6635,-705.4307C2076.0026,-694.2857 2118.0698,-678.8324 2150.9256,-666.763"/>
<polygon fill="#000000" stroke="#000000" points="2152.1862,-670.0286 2160.366,-663.2951 2149.7724,-663.458 2152.1862,-670.0286"/>
</g>
<!-- header_37 -->
<g id="node38" class="node">
<title>header_37</title>
<ellipse fill="none" stroke="#000000" cx="2409" cy="-648.0009" rx="66.7444" ry="18"/>
<text text-anchor="middle" x="2409" y="-643.8009" font-family="Helvetica,sans-Serif" font-size="14.00" fill="#000000">2 : With metas</text>
</g>
<!-- section_7&#45;&gt;header_37 -->
<g id="edge37" class="edge">
<title>section_7&#45;&gt;header_37</title>
<path fill="none" stroke="#000000" stroke-dasharray="5,2" d="M2561.2175,-705.0825C2531.1557,-693.8093 2489.7382,-678.2778 2457.6951,-666.2616"/>
<polygon fill="#000000" stroke="#000000" points="2458.6669,-662.8881 2448.0746,-662.6539 2456.209,-669.4424 2458.6669,-662.8881"/>
</g>
<!-- prose_38 -->
<g id="node39" class="node">
<title>prose_38</title>
<ellipse fill="none" stroke="#000000" cx="2535" cy="-648.0009" rx="32.4585" ry="18"/>
<text text-anchor="middle" x="2535" y="-643.8009" font-family="Helvetica,sans-Serif" font-size="14.00" fill="#000000">prose</text>
</g>
<!-- section_7&#45;&gt;prose_38 -->
<g id="edge38" class="edge">
<title>section_7&#45;&gt;prose_38</title>
<path fill="none" stroke="#000000" stroke-dasharray="5,2" d="M2584.6854,-702.2032C2576.2516,-693.0027 2565.8446,-681.6496 2556.7379,-671.715"/>
<polygon fill="#000000" stroke="#000000" points="2559.1131,-669.1264 2549.7757,-664.1199 2553.953,-673.8565 2559.1131,-669.1264"/>
</g>
<!-- codeblock_39 -->
<g id="node40" class="node">
<title>codeblock_39</title>
<ellipse fill="none" stroke="#000000" cx="2668" cy="-648.0009" rx="77.4211" ry="18"/>
<text text-anchor="middle" x="2668" y="-643.8009" font-family="Helvetica,sans-Serif" font-size="14.00" fill="#000000">code block 81&#45;94</text>
</g>
<!-- section_7&#45;&gt;codeblock_39 -->
<g id="edge39" class="edge">
<title>section_7&#45;&gt;codeblock_39</title>
<path fill="none" stroke="#000000" stroke-dasharray="5,2" d="M2617.5618,-702.2032C2625.6953,-693.4627 2635.6366,-682.7795 2644.5366,-673.2154"/>
<polygon fill="#000000" stroke="#000000" points="2647.1464,-675.5485 2651.3965,-665.8435 2642.0219,-670.7799 2647.1464,-675.5485"/>
</g>
<!-- codeblock_40 -->
<g id="node41" class="node">
<title>codeblock_40</title>
<ellipse fill="none" stroke="#000000" cx="2873" cy="-648.0009" rx="77.4211" ry="18"/>
<text text-anchor="middle" x="2873" y="-643.8009" font-family="Helvetica,sans-Serif" font-size="14.00" fill="#000000">code block 96&#45;98</text>
</g>
<!-- section_7&#45;&gt;codeblock_40 -->
<g id="edge40" class="edge">
<title>section_7&#45;&gt;codeblock_40</title>
<path fill="none" stroke="#000000" stroke-dasharray="5,2" d="M2650.2571,-706.9623C2695.6593,-694.9441 2763.1976,-677.0663 2811.9949,-664.1493"/>
<polygon fill="#000000" stroke="#000000" points="2813.0288,-667.4963 2821.8002,-661.5538 2811.2375,-660.7294 2813.0288,-667.4963"/>
</g>
<!-- codeblock_41 -->
<g id="node42" class="node">
<title>codeblock_41</title>
<ellipse fill="none" stroke="#000000" cx="3072" cy="-648.0009" rx="87.0948" ry="18"/>
<text text-anchor="middle" x="3072" y="-643.8009" font-family="Helvetica,sans-Serif" font-size="14.00" fill="#000000">code block 100&#45;102</text>
</g>
<!-- section_7&#45;&gt;codeblock_41 -->
<g id="edge41" class="edge">
<title>section_7&#45;&gt;codeblock_41</title>
<path fill="none" stroke="#000000" stroke-dasharray="5,2" d="M2662.1519,-710.9338C2733.4429,-700.327 2854.8045,-682.1577 2959,-666.0009 2970.0078,-664.294 2981.6149,-662.4713 2993.0306,-660.6653"/>
<polygon fill="#000000" stroke="#000000" points="2993.6648,-664.1086 3002.9934,-659.0859 2992.5687,-657.1949 2993.6648,-664.1086"/>
</g>
<!-- leaf_10 -->
<g id="node11" class="node">
<title>leaf_10</title>
<polygon fill="none" stroke="#c0c0c0" points="408,-378.6016 0,-378.6016 0,-306.7993 408,-306.7993 408,-378.6016"/>
<text text-anchor="middle" x="204" y="-315.2005" font-family="Inconsolata" font-size="14.00" fill="#000000"> &#160;A small test harness to exercise our fresh Node class.</text>
</g>
<!-- raw_9&#45;&gt;leaf_10 -->
<g id="edge10" class="edge">
<title>raw_9&#45;&gt;leaf_10</title>
<path fill="none" stroke="#000000" stroke-dasharray="5,2" d="M448.4921,-632.0165C410.0556,-586.5333 299.1048,-455.2413 240.7976,-386.2444"/>
<polygon fill="#000000" stroke="#000000" points="243.4259,-383.932 234.298,-378.5531 238.0793,-388.4502 243.4259,-383.932"/>
</g>
<!-- leaf_15 -->
<g id="node16" class="node">
<title>leaf_15</title>
<polygon fill="none" stroke="#c0c0c0" points="526,-360.7005 426,-360.7005 426,-324.7005 526,-324.7005 526,-360.7005"/>
<text text-anchor="middle" x="476" y="-339.2005" font-family="Inconsolata" font-size="14.00" fill="#000000">*** includes</text>
</g>
<!-- header_11&#45;&gt;leaf_15 -->
<g id="edge15" class="edge">
<title>header_11&#45;&gt;leaf_15</title>
<path fill="none" stroke="#000000" stroke-dasharray="5,2" d="M551.6594,-629.9758C546.1038,-619.6955 539.4929,-606.42 535,-594.0009 506.5704,-515.4171 488.2531,-417.9791 480.4007,-370.8502"/>
<polygon fill="#000000" stroke="#000000" points="483.823,-370.0902 478.7564,-360.7854 476.9146,-371.2189 483.823,-370.0902"/>
</g>
<!-- raw_16 -->
<g id="node17" class="node">
<title>raw_16</title>
<ellipse fill="none" stroke="#000000" cx="571" cy="-342.7005" rx="27" ry="18"/>
<text text-anchor="middle" x="571" y="-338.5005" font-family="Helvetica,sans-Serif" font-size="14.00" fill="#000000">raw</text>
</g>
<!-- prose_12&#45;&gt;raw_16 -->
<g id="edge16" class="edge">
<title>prose_12&#45;&gt;raw_16</title>
<path fill="none" stroke="#000000" stroke-dasharray="5,2" d="M645.4274,-634.4006C632.1045,-624.7968 615.9061,-610.6927 607,-594.0009 567.9403,-520.7952 566.8603,-419.3544 569.0235,-370.7969"/>
<polygon fill="#000000" stroke="#000000" points="572.5232,-370.8928 569.5549,-360.7223 565.5329,-370.524 572.5232,-370.8928"/>
</g>
<!-- leaf_18 -->
<g id="node19" class="node">
<title>leaf_18</title>
<polygon fill="none" stroke="#c0c0c0" points="898,-439.7008 616,-439.7008 616,-245.7002 898,-245.7002 898,-439.7008"/>
<text text-anchor="middle" x="757" y="-424.5006" font-family="Inconsolata" font-size="14.00" fill="#000000">local u = require &quot;util&quot;</text>
<text text-anchor="middle" x="757" y="-409.1006" font-family="Inconsolata" font-size="14.00" fill="#000000">local m = require &quot;Orbit/morphemes&quot;</text>
<text text-anchor="middle" x="757" y="-377.7006" font-family="Inconsolata" font-size="14.00" fill="#000000">local Grammar = require &quot;node/grammar&quot;</text>
<text text-anchor="middle" x="757" y="-362.3005" font-family="Inconsolata" font-size="14.00" fill="#000000">local Node = require &quot;node/node&quot;</text>
<text text-anchor="middle" x="757" y="-346.9005" font-family="Inconsolata" font-size="14.00" fill="#000000">local elpatt = require &quot;node/elpatt&quot;</text>
<text text-anchor="middle" x="757" y="-331.5005" font-family="Inconsolata" font-size="14.00" fill="#000000">local D = elpatt.D</text>
<text text-anchor="middle" x="757" y="-316.1005" font-family="Inconsolata" font-size="14.00" fill="#000000">local L = require &quot;lpeg&quot;</text>
<text text-anchor="middle" x="757" y="-300.7004" font-family="Inconsolata" font-size="14.00" fill="#000000">local P = L.P</text>
<text text-anchor="middle" x="757" y="-285.3004" font-family="Inconsolata" font-size="14.00" fill="#000000">local V = L.V</text>
<text text-anchor="middle" x="757" y="-269.9004" font-family="Inconsolata" font-size="14.00" fill="#000000">local C = L.C</text>
</g>
<!-- codeblock_13&#45;&gt;leaf_18 -->
<g id="edge18" class="edge">
<title>codeblock_13&#45;&gt;leaf_18</title>
<path fill="none" stroke="#000000" stroke-dasharray="5,2" d="M788.0345,-629.8173C784.2665,-594.9571 775.7651,-516.3061 768.6114,-450.1234"/>
<polygon fill="#000000" stroke="#000000" points="772.0756,-449.6031 767.5211,-440.0371 765.1161,-450.3554 772.0756,-449.6031"/>
</g>
<!-- leaf_19 -->
<g id="node20" class="node">
<title>leaf_19</title>
<polygon fill="none" stroke="#c0c0c0" points="1198,-369.9009 916,-369.9009 916,-315.5 1198,-315.5 1198,-369.9009"/>
<text text-anchor="middle" x="1057" y="-354.6005" font-family="Inconsolata" font-size="14.00" fill="#000000">local Spec = {}</text>
<text text-anchor="middle" x="1057" y="-339.2005" font-family="Inconsolata" font-size="14.00" fill="#000000">Spec.dot = require &quot;node/grammars/dot&quot;</text>
<text text-anchor="middle" x="1057" y="-323.8005" font-family="Inconsolata" font-size="14.00" fill="#000000">Spec.peg = require &quot;node/grammars/peg&quot;</text>
</g>
<!-- codeblock_14&#45;&gt;leaf_19 -->
<g id="edge19" class="edge">
<title>codeblock_14&#45;&gt;leaf_19</title>
<path fill="none" stroke="#000000" stroke-dasharray="5,2" d="M994.9309,-629.8173C1005.494,-580.9549 1034.6562,-446.0576 1048.9251,-380.0532"/>
<polygon fill="#000000" stroke="#000000" points="1052.39,-380.589 1051.0821,-370.0752 1045.5481,-379.1098 1052.39,-380.589"/>
</g>
<!-- leaf_17 -->
<g id="node18" class="node">
<title>leaf_17</title>
<polygon fill="none" stroke="#c0c0c0" points="598,-45.7 544,-45.7 544,-9.7 598,-9.7 598,-45.7"/>
</g>
<!-- raw_16&#45;&gt;leaf_17 -->
<g id="edge17" class="edge">
<title>raw_16&#45;&gt;leaf_17</title>
<path fill="none" stroke="#000000" stroke-dasharray="5,2" d="M571,-324.4032C571,-271.774 571,-119.7153 571,-56.1542"/>
<polygon fill="#000000" stroke="#000000" points="574.5001,-56.0478 571,-46.0478 567.5001,-56.0479 574.5001,-56.0478"/>
</g>
<!-- leaf_24 -->
<g id="node25" class="node">
<title>leaf_24</title>
<polygon fill="none" stroke="#c0c0c0" points="1358,-360.7005 1216,-360.7005 1216,-324.7005 1358,-324.7005 1358,-360.7005"/>
<text text-anchor="middle" x="1287" y="-339.2005" font-family="Inconsolata" font-size="14.00" fill="#000000">** Trivial Grammar</text>
</g>
<!-- header_20&#45;&gt;leaf_24 -->
<g id="edge24" class="edge">
<title>header_20&#45;&gt;leaf_24</title>
<path fill="none" stroke="#000000" stroke-dasharray="5,2" d="M1268.1912,-629.8173C1271.5469,-578.5923 1281.0969,-432.8116 1285.1474,-370.9797"/>
<polygon fill="#000000" stroke="#000000" points="1288.6538,-370.9963 1285.815,-360.7888 1281.6687,-370.5386 1288.6538,-370.9963"/>
</g>
<!-- raw_25 -->
<g id="node26" class="node">
<title>raw_25</title>
<ellipse fill="none" stroke="#000000" cx="1403" cy="-342.7005" rx="27" ry="18"/>
<text text-anchor="middle" x="1403" y="-338.5005" font-family="Helvetica,sans-Serif" font-size="14.00" fill="#000000">raw</text>
</g>
<!-- prose_21&#45;&gt;raw_25 -->
<g id="edge25" class="edge">
<title>prose_21&#45;&gt;raw_25</title>
<path fill="none" stroke="#000000" stroke-dasharray="5,2" d="M1403,-629.8173C1403,-578.5923 1403,-432.8116 1403,-370.9797"/>
<polygon fill="#000000" stroke="#000000" points="1406.5001,-370.7888 1403,-360.7888 1399.5001,-370.7889 1406.5001,-370.7888"/>
</g>
<!-- raw_27 -->
<g id="node28" class="node">
<title>raw_27</title>
<ellipse fill="none" stroke="#000000" cx="1475" cy="-342.7005" rx="27" ry="18"/>
<text text-anchor="middle" x="1475" y="-338.5005" font-family="Helvetica,sans-Serif" font-size="14.00" fill="#000000">raw</text>
</g>
<!-- prose_22&#45;&gt;raw_27 -->
<g id="edge27" class="edge">
<title>prose_22&#45;&gt;raw_27</title>
<path fill="none" stroke="#000000" stroke-dasharray="5,2" d="M1484.4044,-629.8173C1482.7265,-578.5923 1477.9516,-432.8116 1475.9263,-370.9797"/>
<polygon fill="#000000" stroke="#000000" points="1479.4181,-370.6689 1475.5925,-360.7888 1472.4218,-370.8981 1479.4181,-370.6689"/>
</g>
<!-- leaf_29 -->
<g id="node30" class="node">
<title>leaf_29</title>
<polygon fill="none" stroke="#c0c0c0" points="1886,-593.8015 1520,-593.8015 1520,-91.5994 1886,-91.5994 1886,-593.8015"/>
<text text-anchor="middle" x="1703" y="-578.8009" font-family="Inconsolata" font-size="14.00" fill="#000000">local function epsilon(_ENV)</text>
<text text-anchor="middle" x="1703" y="-563.4009" font-family="Inconsolata" font-size="14.00" fill="#000000"> &#160;START &quot;any&quot;</text>
<text text-anchor="middle" x="1703" y="-548.0009" font-family="Inconsolata" font-size="14.00" fill="#000000"> &#160;any = V&quot;anything&quot; + V&quot;other&quot;</text>
<text text-anchor="middle" x="1703" y="-532.6008" font-family="Inconsolata" font-size="14.00" fill="#000000"> &#160;anything = P(1)</text>
<text text-anchor="middle" x="1703" y="-517.2008" font-family="Inconsolata" font-size="14.00" fill="#000000"> &#160;other = P(1)^1</text>
<text text-anchor="middle" x="1703" y="-501.8008" font-family="Inconsolata" font-size="14.00" fill="#000000">end</text>
<text text-anchor="middle" x="1703" y="-470.4007" font-family="Inconsolata" font-size="14.00" fill="#000000">local function a(_ENV)</text>
<text text-anchor="middle" x="1703" y="-455.0007" font-family="Inconsolata" font-size="14.00" fill="#000000"> &#160;START &quot;A&quot;</text>
<text text-anchor="middle" x="1703" y="-439.6007" font-family="Inconsolata" font-size="14.00" fill="#000000"> &#160;A = P&quot;a&quot; + P&quot;A&quot;</text>
<text text-anchor="middle" x="1703" y="-424.2007" font-family="Inconsolata" font-size="14.00" fill="#000000">end</text>
<text text-anchor="middle" x="1703" y="-392.8006" font-family="Inconsolata" font-size="14.00" fill="#000000">local function ab(_ENV)</text>
<text text-anchor="middle" x="1703" y="-377.4006" font-family="Inconsolata" font-size="14.00" fill="#000000"> &#160;START &quot;AB&quot;</text>
<text text-anchor="middle" x="1703" y="-362.0006" font-family="Inconsolata" font-size="14.00" fill="#000000"> &#160;AB = V&quot;B&quot; + V&quot;A&quot;</text>
<text text-anchor="middle" x="1703" y="-346.6005" font-family="Inconsolata" font-size="14.00" fill="#000000"> &#160;A = P&quot;a&quot; + P&quot;A&quot;</text>
<text text-anchor="middle" x="1703" y="-331.2005" font-family="Inconsolata" font-size="14.00" fill="#000000"> &#160;B = V&quot;bmatch&quot; + (V&quot;A&quot; * V&quot;bmatch&quot;)</text>
<text text-anchor="middle" x="1703" y="-315.8005" font-family="Inconsolata" font-size="14.00" fill="#000000"> &#160;bmatch = P&quot;b&quot; + P&quot;B&quot;</text>
<text text-anchor="middle" x="1703" y="-300.4004" font-family="Inconsolata" font-size="14.00" fill="#000000">end</text>
<text text-anchor="middle" x="1703" y="-269.0004" font-family="Inconsolata" font-size="14.00" fill="#000000">local function clu_gm(_ENV)</text>
<text text-anchor="middle" x="1703" y="-253.6004" font-family="Inconsolata" font-size="14.00" fill="#000000"> &#160;local WS = D(P(m._ + m.NL)^0)</text>
<text text-anchor="middle" x="1703" y="-238.2003" font-family="Inconsolata" font-size="14.00" fill="#000000"> &#160;START &quot;clu&quot;</text>
<text text-anchor="middle" x="1703" y="-222.8003" font-family="Inconsolata" font-size="14.00" fill="#000000"> &#160;SUPPRESS &quot;form&quot;</text>
<text text-anchor="middle" x="1703" y="-207.4003" font-family="Inconsolata" font-size="14.00" fill="#000000"> &#160;clu = V&quot;form&quot;^1</text>
<text text-anchor="middle" x="1703" y="-192.0002" font-family="Inconsolata" font-size="14.00" fill="#000000"> &#160;form = D((V&quot;number&quot; * WS))</text>
<text text-anchor="middle" x="1703" y="-176.6002" font-family="Inconsolata" font-size="14.00" fill="#000000"> &#160;&#160;&#160;&#160;&#160;&#160;+ (V&quot;atom&quot; * WS)</text>
<text text-anchor="middle" x="1703" y="-161.2002" font-family="Inconsolata" font-size="14.00" fill="#000000"> &#160;&#160;&#160;&#160;&#160;&#160;+ (V&quot;expr&quot; * WS)</text>
<text text-anchor="middle" x="1703" y="-145.8002" font-family="Inconsolata" font-size="14.00" fill="#000000"> &#160;expr = D(m.pal) * WS * V&quot;form&quot;^0 * WS * D(m.par)</text>
<text text-anchor="middle" x="1703" y="-130.4001" font-family="Inconsolata" font-size="14.00" fill="#000000"> &#160;atom = m.symbol</text>
<text text-anchor="middle" x="1703" y="-115.0001" font-family="Inconsolata" font-size="14.00" fill="#000000"> &#160;number = m.number</text>
<text text-anchor="middle" x="1703" y="-99.6001" font-family="Inconsolata" font-size="14.00" fill="#000000">end</text>
</g>
<!-- codeblock_23&#45;&gt;leaf_29 -->
<g id="edge29" class="edge">
<title>codeblock_23&#45;&gt;leaf_29</title>
<path fill="none" stroke="#000000" stroke-dasharray="5,2" d="M1660.6802,-629.8173C1661.7126,-622.8131 1663.0055,-614.0411 1664.4918,-603.9575"/>
<polygon fill="#000000" stroke="#000000" points="1667.9781,-604.3064 1665.9738,-593.9028 1661.053,-603.2856 1667.9781,-604.3064"/>
</g>
<!-- leaf_26 -->
<g id="node27" class="node">
<title>leaf_26</title>
<polygon fill="none" stroke="#c0c0c0" points="1423,-55.6015 1099,-55.6015 1099,.2015 1423,.2015 1423,-55.6015"/>
<text text-anchor="middle" x="1261" y="-8.2" font-family="Inconsolata" font-size="14.00" fill="#000000">This should succeed under all circumstances.</text>
</g>
<!-- raw_25&#45;&gt;leaf_26 -->
<g id="edge26" class="edge">
<title>raw_25&#45;&gt;leaf_26</title>
<path fill="none" stroke="#000000" stroke-dasharray="5,2" d="M1405.337,-324.757C1410.0925,-280.8468 1416.6007,-166.1273 1367,-91.4 1359.0411,-79.4094 1347.9827,-69.3307 1335.9937,-60.9848"/>
<polygon fill="#000000" stroke="#000000" points="1337.8573,-58.0216 1327.5715,-55.4815 1334.0283,-63.8815 1337.8573,-58.0216"/>
</g>
<!-- leaf_28 -->
<g id="node29" class="node">
<title>leaf_28</title>
<polygon fill="none" stroke="#c0c0c0" points="1793,-47.6021 1441,-47.6021 1441,-7.7979 1793,-7.7979 1793,-47.6021"/>
<text text-anchor="middle" x="1617" y="-16.2" font-family="Inconsolata" font-size="14.00" fill="#000000">I&#39;d have to guess what it will return currently.</text>
</g>
<!-- raw_27&#45;&gt;leaf_28 -->
<g id="edge28" class="edge">
<title>raw_27&#45;&gt;leaf_28</title>
<path fill="none" stroke="#000000" stroke-dasharray="5,2" d="M1472.663,-324.757C1467.9075,-280.8468 1461.3993,-166.1273 1511,-91.4 1521.9704,-74.8723 1538.8296,-61.9773 1555.8979,-52.2456"/>
<polygon fill="#000000" stroke="#000000" points="1557.6692,-55.267 1564.8125,-47.4424 1554.3488,-49.1045 1557.6692,-55.267"/>
</g>
<!-- leaf_33 -->
<g id="node34" class="node">
<title>leaf_33</title>
<polygon fill="none" stroke="#c0c0c0" points="2011.5,-360.7005 1904.5,-360.7005 1904.5,-324.7005 2011.5,-324.7005 2011.5,-360.7005"/>
<text text-anchor="middle" x="1958" y="-339.2005" font-family="Inconsolata" font-size="14.00" fill="#000000">pec.trivial =</text>
</g>
<!-- header_30&#45;&gt;leaf_33 -->
<g id="edge33" class="edge">
<title>header_30&#45;&gt;leaf_33</title>
<path fill="none" stroke="#000000" stroke-dasharray="5,2" d="M1948.5956,-629.8173C1950.2735,-578.5923 1955.0484,-432.8116 1957.0737,-370.9797"/>
<polygon fill="#000000" stroke="#000000" points="1960.5782,-370.8981 1957.4075,-360.7888 1953.5819,-370.6689 1960.5782,-370.8981"/>
</g>
<!-- raw_34 -->
<g id="node35" class="node">
<title>raw_34</title>
<ellipse fill="none" stroke="#000000" cx="2057" cy="-342.7005" rx="27" ry="18"/>
<text text-anchor="middle" x="2057" y="-338.5005" font-family="Helvetica,sans-Serif" font-size="14.00" fill="#000000">raw</text>
</g>
<!-- prose_31&#45;&gt;raw_34 -->
<g id="edge34" class="edge">
<title>prose_31&#45;&gt;raw_34</title>
<path fill="none" stroke="#000000" stroke-dasharray="5,2" d="M2064.5235,-629.8173C2063.1812,-578.5923 2059.3612,-432.8116 2057.741,-370.9797"/>
<polygon fill="#000000" stroke="#000000" points="2061.2348,-370.6937 2057.474,-360.7888 2054.2372,-370.8771 2061.2348,-370.6937"/>
</g>
<!-- leaf_36 -->
<g id="node37" class="node">
<title>leaf_36</title>
<polygon fill="none" stroke="#c0c0c0" points="2335.5,-369.9009 2102.5,-369.9009 2102.5,-315.5 2335.5,-315.5 2335.5,-369.9009"/>
<text text-anchor="middle" x="2219" y="-354.6005" font-family="Inconsolata" font-size="14.00" fill="#000000">Spec.trivial = Grammar(epsilon)</text>
<text text-anchor="middle" x="2219" y="-339.2005" font-family="Inconsolata" font-size="14.00" fill="#000000">Spec.a = Grammar(a)</text>
<text text-anchor="middle" x="2219" y="-323.8005" font-family="Inconsolata" font-size="14.00" fill="#000000">Spec.clu = Grammar(clu_gm)</text>
</g>
<!-- codeblock_32&#45;&gt;leaf_36 -->
<g id="edge36" class="edge">
<title>codeblock_32&#45;&gt;leaf_36</title>
<path fill="none" stroke="#000000" stroke-dasharray="5,2" d="M2203.0125,-629.8173C2205.7277,-581.0554 2213.2139,-446.6124 2216.8974,-380.4615"/>
<polygon fill="#000000" stroke="#000000" points="2220.4142,-380.2543 2217.4757,-370.0752 2213.4251,-379.8651 2220.4142,-380.2543"/>
</g>
<!-- leaf_35 -->
<g id="node36" class="node">
<title>leaf_35</title>
<polygon fill="none" stroke="#c0c0c0" points="2084,-45.7 2030,-45.7 2030,-9.7 2084,-9.7 2084,-45.7"/>
</g>
<!-- raw_34&#45;&gt;leaf_35 -->
<g id="edge35" class="edge">
<title>raw_34&#45;&gt;leaf_35</title>
<path fill="none" stroke="#000000" stroke-dasharray="5,2" d="M2057,-324.4032C2057,-271.774 2057,-119.7153 2057,-56.1542"/>
<polygon fill="#000000" stroke="#000000" points="2060.5001,-56.0478 2057,-46.0478 2053.5001,-56.0479 2060.5001,-56.0478"/>
</g>
<!-- leaf_42 -->
<g id="node43" class="node">
<title>leaf_42</title>
<polygon fill="none" stroke="#c0c0c0" points="2460.5,-362.6026 2353.5,-362.6026 2353.5,-322.7984 2460.5,-322.7984 2460.5,-362.6026"/>
<text text-anchor="middle" x="2407" y="-331.2005" font-family="Inconsolata" font-size="14.00" fill="#000000">local metas =</text>
</g>
<!-- header_37&#45;&gt;leaf_42 -->
<g id="edge42" class="edge">
<title>header_37&#45;&gt;leaf_42</title>
<path fill="none" stroke="#000000" stroke-dasharray="5,2" d="M2408.8809,-629.8173C2408.5486,-579.093 2407.6089,-435.6524 2407.1973,-372.8167"/>
<polygon fill="#000000" stroke="#000000" points="2410.6969,-372.731 2407.1314,-362.7542 2403.6971,-372.777 2410.6969,-372.731"/>
</g>
<!-- raw_43 -->
<g id="node44" class="node">
<title>raw_43</title>
<ellipse fill="none" stroke="#000000" cx="2506" cy="-342.7005" rx="27" ry="18"/>
<text text-anchor="middle" x="2506" y="-338.5005" font-family="Helvetica,sans-Serif" font-size="14.00" fill="#000000">raw</text>
</g>
<!-- prose_38&#45;&gt;raw_43 -->
<g id="edge43" class="edge">
<title>prose_38&#45;&gt;raw_43</title>
<path fill="none" stroke="#000000" stroke-dasharray="5,2" d="M2533.2728,-629.8173C2528.407,-578.5923 2514.5595,-432.8116 2508.6862,-370.9797"/>
<polygon fill="#000000" stroke="#000000" points="2512.1482,-370.413 2507.7182,-360.7888 2505.1796,-371.075 2512.1482,-370.413"/>
</g>
<!-- leaf_45 -->
<g id="node46" class="node">
<title>leaf_45</title>
<polygon fill="none" stroke="#c0c0c0" points="2791,-440.4008 2551,-440.4008 2551,-245.0001 2791,-245.0001 2791,-440.4008"/>
<text text-anchor="middle" x="2671" y="-409.1006" font-family="Inconsolata" font-size="14.00" fill="#000000">local metas = {}</text>
<text text-anchor="middle" x="2671" y="-377.7006" font-family="Inconsolata" font-size="14.00" fill="#000000">local AMt, amt = u.inherit(Node)</text>
<text text-anchor="middle" x="2671" y="-346.3005" font-family="Inconsolata" font-size="14.00" fill="#000000">local function Anew(A, t, str)</text>
<text text-anchor="middle" x="2671" y="-330.9005" font-family="Inconsolata" font-size="14.00" fill="#000000"> &#160;local a = setmetatable(t, AMt)</text>
<text text-anchor="middle" x="2671" y="-315.5005" font-family="Inconsolata" font-size="14.00" fill="#000000"> &#160;a.id = &quot;A&quot;</text>
<text text-anchor="middle" x="2671" y="-300.1005" font-family="Inconsolata" font-size="14.00" fill="#000000"> &#160;return a</text>
<text text-anchor="middle" x="2671" y="-284.7004" font-family="Inconsolata" font-size="14.00" fill="#000000">end</text>
<text text-anchor="middle" x="2671" y="-253.3004" font-family="Inconsolata" font-size="14.00" fill="#000000">metas[&quot;A&quot;] = u.export(amt, Anew)</text>
</g>
<!-- codeblock_39&#45;&gt;leaf_45 -->
<g id="edge45" class="edge">
<title>codeblock_39&#45;&gt;leaf_45</title>
<path fill="none" stroke="#000000" stroke-dasharray="5,2" d="M2668.1787,-629.8173C2668.5206,-595.0182 2669.2914,-516.5815 2669.941,-450.4712"/>
<polygon fill="#000000" stroke="#000000" points="2673.4415,-450.4289 2670.04,-440.395 2666.4418,-450.36 2673.4415,-450.4289"/>
</g>
<!-- leaf_46 -->
<g id="node47" class="node">
<title>leaf_46</title>
<polygon fill="none" stroke="#c0c0c0" points="3021,-360.7005 2809,-360.7005 2809,-324.7005 3021,-324.7005 3021,-360.7005"/>
<text text-anchor="middle" x="2915" y="-339.2005" font-family="Inconsolata" font-size="14.00" fill="#000000">Spec.ab = Grammar(ab, metas)</text>
</g>
<!-- codeblock_40&#45;&gt;leaf_46 -->
<g id="edge46" class="edge">
<title>codeblock_40&#45;&gt;leaf_46</title>
<path fill="none" stroke="#000000" stroke-dasharray="5,2" d="M2875.5015,-629.8173C2882.5485,-578.5923 2902.6035,-432.8116 2911.1096,-370.9797"/>
<polygon fill="#000000" stroke="#000000" points="2914.616,-371.1726 2912.5116,-360.7888 2907.6813,-370.2185 2914.616,-371.1726"/>
</g>
<!-- leaf_47 -->
<g id="node48" class="node">
<title>leaf_47</title>
<polygon fill="none" stroke="#c0c0c0" points="3132.5,-360.7005 3039.5,-360.7005 3039.5,-324.7005 3132.5,-324.7005 3132.5,-360.7005"/>
<text text-anchor="middle" x="3086" y="-339.2005" font-family="Inconsolata" font-size="14.00" fill="#000000">return Spec</text>
</g>
<!-- codeblock_41&#45;&gt;leaf_47 -->
<g id="edge47" class="edge">
<title>codeblock_41&#45;&gt;leaf_47</title>
<path fill="none" stroke="#000000" stroke-dasharray="5,2" d="M3072.8338,-629.8173C3075.1828,-578.5923 3081.8678,-432.8116 3084.7032,-370.9797"/>
<polygon fill="#000000" stroke="#000000" points="3088.2087,-370.9387 3085.1705,-360.7888 3081.216,-370.618 3088.2087,-370.9387"/>
</g>
<!-- leaf_44 -->
<g id="node45" class="node">
<title>leaf_44</title>
<polygon fill="none" stroke="#c0c0c0" points="2533,-45.7 2479,-45.7 2479,-9.7 2533,-9.7 2533,-45.7"/>
</g>
<!-- raw_43&#45;&gt;leaf_44 -->
<g id="edge44" class="edge">
<title>raw_43&#45;&gt;leaf_44</title>
<path fill="none" stroke="#000000" stroke-dasharray="5,2" d="M2506,-324.4032C2506,-271.774 2506,-119.7153 2506,-56.1542"/>
<polygon fill="#000000" stroke="#000000" points="2509.5001,-56.0478 2506,-46.0478 2502.5001,-56.0479 2509.5001,-56.0478"/>
</g>
</g>
</svg>