<?xml version="1.0" encoding="UTF-8" standalone="no"?>
<!DOCTYPE svg PUBLIC "-//W3C//DTD SVG 1.1//EN"
 "http://www.w3.org/Graphics/SVG/1.1/DTD/svg11.dtd">
<!-- Generated by graphviz version 2.40.1 (20161225.0304)
 -->
<!-- Title: lpegNode Pages: 1 -->
<svg width="3223pt" height="890pt"
 viewBox="0.00 0.00 3223.30 890.00" xmlns="http://www.w3.org/2000/svg" xmlns:xlink="http://www.w3.org/1999/xlink">
<g id="graph0" class="graph" transform="scale(1 1) rotate(0) translate(4 886.0009)">
<title>lpegNode</title>
<polygon fill="#ffffff" stroke="transparent" points="-4,4 -4,-886.0009 3219.2972,-886.0009 3219.2972,4 -4,4"/>
<!-- doc_0 -->
<g id="node1" class="node">
<title>doc_0</title>
<ellipse fill="none" stroke="#000000" cx="1155" cy="-864.0009" rx="46.9581" ry="18"/>
<text text-anchor="middle" x="1155" y="-859.8009" font-family="Helvetica,sans-Serif" font-size="14.00" fill="#000000">doc &#45; 102</text>
</g>
<!-- section_1 -->
<g id="node2" class="node">
<title>section_1</title>
<ellipse fill="none" stroke="#000000" cx="1155" cy="-792.0009" rx="60.9826" ry="18"/>
<text text-anchor="middle" x="1155" y="-787.8009" font-family="Helvetica,sans-Serif" font-size="14.00" fill="#000000">section: 1&#45;78</text>
</g>
<!-- doc_0&#45;&gt;section_1 -->
<g id="edge1" class="edge">
<title>doc_0&#45;&gt;section_1</title>
<path fill="none" stroke="#000000" stroke-dasharray="5,2" d="M1155,-845.8323C1155,-838.1319 1155,-828.9753 1155,-820.4176"/>
<polygon fill="#000000" stroke="#000000" points="1158.5001,-820.4142 1155,-810.4142 1151.5001,-820.4142 1158.5001,-820.4142"/>
</g>
<!-- header_2 -->
<g id="node3" class="node">
<title>header_2</title>
<ellipse fill="none" stroke="#000000" cx="459" cy="-720.0009" rx="42.6061" ry="18"/>
<text text-anchor="middle" x="459" y="-715.8009" font-family="Helvetica,sans-Serif" font-size="14.00" fill="#000000">1 : Spec</text>
</g>
<!-- section_1&#45;&gt;header_2 -->
<g id="edge2" class="edge">
<title>section_1&#45;&gt;header_2</title>
<path fill="none" stroke="#000000" stroke-dasharray="5,2" d="M1096.8864,-786.6255C997.204,-777.3193 787.2253,-757.3421 610,-738.0009 576.6626,-734.3627 539.2321,-729.9034 509.978,-726.3335"/>
<polygon fill="#000000" stroke="#000000" points="510.3429,-722.8521 499.9916,-725.1107 509.492,-729.8002 510.3429,-722.8521"/>
</g>
<!-- prose_3 -->
<g id="node4" class="node">
<title>prose_3</title>
<ellipse fill="none" stroke="#000000" cx="651" cy="-720.0009" rx="32.4585" ry="18"/>
<text text-anchor="middle" x="651" y="-715.8009" font-family="Helvetica,sans-Serif" font-size="14.00" fill="#000000">prose</text>
</g>
<!-- section_1&#45;&gt;prose_3 -->
<g id="edge3" class="edge">
<title>section_1&#45;&gt;prose_3</title>
<path fill="none" stroke="#000000" stroke-dasharray="5,2" d="M1097.8988,-785.7915C1017.8805,-776.8085 867.9419,-758.9493 741,-738.0009 724.6211,-735.298 706.6681,-731.8141 691.1348,-728.6324"/>
<polygon fill="#000000" stroke="#000000" points="691.8198,-725.2 681.3174,-726.5964 690.3983,-732.0542 691.8198,-725.2"/>
</g>
<!-- section_4 -->
<g id="node5" class="node">
<title>section_4</title>
<ellipse fill="none" stroke="#000000" cx="811" cy="-720.0009" rx="60.9826" ry="18"/>
<text text-anchor="middle" x="811" y="-715.8009" font-family="Helvetica,sans-Serif" font-size="14.00" fill="#000000">section: 6&#45;29</text>
</g>
<!-- section_1&#45;&gt;section_4 -->
<g id="edge4" class="edge">
<title>section_1&#45;&gt;section_4</title>
<path fill="none" stroke="#000000" stroke-dasharray="5,2" d="M1105.3468,-781.6084C1043.2276,-768.6067 936.9649,-746.3657 870.5413,-732.4631"/>
<polygon fill="#000000" stroke="#000000" points="871.1431,-729.0133 860.6381,-730.3903 869.709,-735.8648 871.1431,-729.0133"/>
</g>
<!-- section_5 -->
<g id="node6" class="node">
<title>section_5</title>
<ellipse fill="none" stroke="#000000" cx="1459" cy="-720.0009" rx="65.8187" ry="18"/>
<text text-anchor="middle" x="1459" y="-715.8009" font-family="Helvetica,sans-Serif" font-size="14.00" fill="#000000">section: 30&#45;70</text>
</g>
<!-- section_1&#45;&gt;section_5 -->
<g id="edge5" class="edge">
<title>section_1&#45;&gt;section_5</title>
<path fill="none" stroke="#000000" stroke-dasharray="5,2" d="M1202.5,-780.7509C1255.5888,-768.1773 1341.6417,-747.7963 1399.2543,-734.1512"/>
<polygon fill="#000000" stroke="#000000" points="1400.3867,-737.4799 1409.3109,-731.7694 1398.7734,-730.6684 1400.3867,-737.4799"/>
</g>
<!-- section_6 -->
<g id="node7" class="node">
<title>section_6</title>
<ellipse fill="none" stroke="#000000" cx="2062" cy="-720.0009" rx="65.8187" ry="18"/>
<text text-anchor="middle" x="2062" y="-715.8009" font-family="Helvetica,sans-Serif" font-size="14.00" fill="#000000">section: 71&#45;78</text>
</g>
<!-- section_1&#45;&gt;section_6 -->
<g id="edge6" class="edge">
<title>section_1&#45;&gt;section_6</title>
<path fill="none" stroke="#000000" stroke-dasharray="5,2" d="M1213.812,-787.3323C1373.2504,-774.6757 1813.4888,-739.7284 1988.6879,-725.8206"/>
<polygon fill="#000000" stroke="#000000" points="1989.1465,-729.2953 1998.8381,-725.0149 1988.5925,-722.3173 1989.1465,-729.2953"/>
</g>
<!-- section_7 -->
<g id="node8" class="node">
<title>section_7</title>
<ellipse fill="none" stroke="#000000" cx="2657" cy="-720.0009" rx="70.655" ry="18"/>
<text text-anchor="middle" x="2657" y="-715.8009" font-family="Helvetica,sans-Serif" font-size="14.00" fill="#000000">section: 79&#45;102</text>
</g>
<!-- section_1&#45;&gt;section_7 -->
<g id="edge7" class="edge">
<title>section_1&#45;&gt;section_7</title>
<path fill="none" stroke="#000000" stroke-dasharray="5,2" d="M1215.2729,-789.1117C1450.9684,-777.8134 2310.3869,-736.6162 2577.3392,-723.8196"/>
<polygon fill="#000000" stroke="#000000" points="2577.5197,-727.315 2587.3406,-723.3401 2577.1844,-720.3231 2577.5197,-727.315"/>
</g>
<!-- leaf_8 -->
<g id="node9" class="node">
<title>leaf_8</title>
<polygon fill="none" stroke="#c0c0c0" points="438,-666.0009 380,-666.0009 380,-630.0009 438,-630.0009 438,-666.0009"/>
<text text-anchor="middle" x="409" y="-644.501" font-family="Inconsolata" font-size="14.00" fill="#000000">* Spec</text>
</g>
<!-- header_2&#45;&gt;leaf_8 -->
<g id="edge8" class="edge">
<title>header_2&#45;&gt;leaf_8</title>
<path fill="none" stroke="#000000" stroke-dasharray="5,2" d="M446.8964,-702.5717C441.0104,-694.0959 433.811,-683.7288 427.2744,-674.316"/>
<polygon fill="#000000" stroke="#000000" points="430.0931,-672.2388 421.5143,-666.0215 424.3435,-676.2316 430.0931,-672.2388"/>
</g>
<!-- raw_9 -->
<g id="node10" class="node">
<title>raw_9</title>
<ellipse fill="none" stroke="#000000" cx="483" cy="-648.0009" rx="27" ry="18"/>
<text text-anchor="middle" x="483" y="-643.8009" font-family="Helvetica,sans-Serif" font-size="14.00" fill="#000000">raw</text>
</g>
<!-- prose_3&#45;&gt;raw_9 -->
<g id="edge9" class="edge">
<title>prose_3&#45;&gt;raw_9</title>
<path fill="none" stroke="#000000" stroke-dasharray="5,2" d="M624.2018,-709.723C597.3535,-699.266 554.9631,-682.3198 519,-666.0009 517.2342,-665.1997 515.4282,-664.3606 513.6115,-663.5014"/>
<polygon fill="#000000" stroke="#000000" points="515.0999,-660.3334 504.5749,-659.1185 512.0451,-666.6317 515.0999,-660.3334"/>
</g>
<!-- header_11 -->
<g id="node12" class="node">
<title>header_11</title>
<ellipse fill="none" stroke="#000000" cx="583" cy="-648.0009" rx="54.6851" ry="18"/>
<text text-anchor="middle" x="583" y="-643.8009" font-family="Helvetica,sans-Serif" font-size="14.00" fill="#000000">3 : includes</text>
</g>
<!-- section_4&#45;&gt;header_11 -->
<g id="edge11" class="edge">
<title>section_4&#45;&gt;header_11</title>
<path fill="none" stroke="#000000" stroke-dasharray="5,2" d="M769.1813,-706.795C730.5825,-694.6059 673.2291,-676.4943 632.3905,-663.5979"/>
<polygon fill="#000000" stroke="#000000" points="633.2352,-660.1944 622.6454,-660.5205 631.1272,-666.8694 633.2352,-660.1944"/>
</g>
<!-- prose_12 -->
<g id="node13" class="node">
<title>prose_12</title>
<ellipse fill="none" stroke="#000000" cx="688" cy="-648.0009" rx="32.4585" ry="18"/>
<text text-anchor="middle" x="688" y="-643.8009" font-family="Helvetica,sans-Serif" font-size="14.00" fill="#000000">prose</text>
</g>
<!-- section_4&#45;&gt;prose_12 -->
<g id="edge12" class="edge">
<title>section_4&#45;&gt;prose_12</title>
<path fill="none" stroke="#000000" stroke-dasharray="5,2" d="M783.3964,-703.8427C764.3555,-692.6969 739.0105,-677.8608 719.2307,-666.2823"/>
<polygon fill="#000000" stroke="#000000" points="720.9752,-663.248 710.5769,-661.2167 717.4389,-669.2891 720.9752,-663.248"/>
</g>
<!-- codeblock_13 -->
<g id="node14" class="node">
<title>codeblock_13</title>
<ellipse fill="none" stroke="#000000" cx="811" cy="-648.0009" rx="72.5844" ry="18"/>
<text text-anchor="middle" x="811" y="-643.8009" font-family="Helvetica,sans-Serif" font-size="14.00" fill="#000000">code block 8&#45;22</text>
</g>
<!-- section_4&#45;&gt;codeblock_13 -->
<g id="edge13" class="edge">
<title>section_4&#45;&gt;codeblock_13</title>
<path fill="none" stroke="#000000" stroke-dasharray="5,2" d="M811,-701.8323C811,-694.1319 811,-684.9753 811,-676.4176"/>
<polygon fill="#000000" stroke="#000000" points="814.5001,-676.4142 811,-666.4142 807.5001,-676.4142 814.5001,-676.4142"/>
</g>
<!-- codeblock_14 -->
<g id="node15" class="node">
<title>codeblock_14</title>
<ellipse fill="none" stroke="#000000" cx="1019" cy="-648.0009" rx="77.4211" ry="18"/>
<text text-anchor="middle" x="1019" y="-643.8009" font-family="Helvetica,sans-Serif" font-size="14.00" fill="#000000">code block 24&#45;28</text>
</g>
<!-- section_4&#45;&gt;codeblock_14 -->
<g id="edge14" class="edge">
<title>section_4&#45;&gt;codeblock_14</title>
<path fill="none" stroke="#000000" stroke-dasharray="5,2" d="M850.6128,-706.2888C883.2581,-694.9885 929.8578,-678.8578 965.7625,-666.4293"/>
<polygon fill="#000000" stroke="#000000" points="967.2804,-669.6077 975.5853,-663.0291 964.9906,-662.9928 967.2804,-669.6077"/>
</g>
<!-- header_20 -->
<g id="node21" class="node">
<title>header_20</title>
<ellipse fill="none" stroke="#000000" cx="1323" cy="-648.0009" rx="85.0876" ry="18"/>
<text text-anchor="middle" x="1323" y="-643.8009" font-family="Helvetica,sans-Serif" font-size="14.00" fill="#000000">2 : Trivial Grammar</text>
</g>
<!-- section_5&#45;&gt;header_20 -->
<g id="edge20" class="edge">
<title>section_5&#45;&gt;header_20</title>
<path fill="none" stroke="#000000" stroke-dasharray="5,2" d="M1428.4789,-703.8427C1409.3774,-693.7302 1384.5379,-680.5798 1363.7622,-669.5809"/>
<polygon fill="#000000" stroke="#000000" points="1365.3132,-666.4418 1354.8377,-664.8562 1362.0379,-672.6284 1365.3132,-666.4418"/>
</g>
<!-- prose_21 -->
<g id="node22" class="node">
<title>prose_21</title>
<ellipse fill="none" stroke="#000000" cx="1459" cy="-648.0009" rx="32.4585" ry="18"/>
<text text-anchor="middle" x="1459" y="-643.8009" font-family="Helvetica,sans-Serif" font-size="14.00" fill="#000000">prose</text>
</g>
<!-- section_5&#45;&gt;prose_21 -->
<g id="edge21" class="edge">
<title>section_5&#45;&gt;prose_21</title>
<path fill="none" stroke="#000000" stroke-dasharray="5,2" d="M1459,-701.8323C1459,-694.1319 1459,-684.9753 1459,-676.4176"/>
<polygon fill="#000000" stroke="#000000" points="1462.5001,-676.4142 1459,-666.4142 1455.5001,-676.4142 1462.5001,-676.4142"/>
</g>
<!-- prose_22 -->
<g id="node23" class="node">
<title>prose_22</title>
<ellipse fill="none" stroke="#000000" cx="1541" cy="-648.0009" rx="32.4585" ry="18"/>
<text text-anchor="middle" x="1541" y="-643.8009" font-family="Helvetica,sans-Serif" font-size="14.00" fill="#000000">prose</text>
</g>
<!-- section_5&#45;&gt;prose_22 -->
<g id="edge22" class="edge">
<title>section_5&#45;&gt;prose_22</title>
<path fill="none" stroke="#000000" stroke-dasharray="5,2" d="M1478.8499,-702.5717C1489.9412,-692.833 1503.8761,-680.5975 1515.7387,-670.1816"/>
<polygon fill="#000000" stroke="#000000" points="1518.3546,-672.5424 1523.5597,-663.3143 1513.736,-667.2823 1518.3546,-672.5424"/>
</g>
<!-- codeblock_23 -->
<g id="node24" class="node">
<title>codeblock_23</title>
<ellipse fill="none" stroke="#000000" cx="1714" cy="-648.0009" rx="77.4211" ry="18"/>
<text text-anchor="middle" x="1714" y="-643.8009" font-family="Helvetica,sans-Serif" font-size="14.00" fill="#000000">code block 36&#45;69</text>
</g>
<!-- section_5&#45;&gt;codeblock_23 -->
<g id="edge23" class="edge">
<title>section_5&#45;&gt;codeblock_23</title>
<path fill="none" stroke="#000000" stroke-dasharray="5,2" d="M1504.8834,-707.0456C1546.8303,-695.2018 1609.1098,-677.617 1654.7941,-664.7179"/>
<polygon fill="#000000" stroke="#000000" points="1655.8951,-668.044 1664.5677,-661.9583 1653.9929,-661.3073 1655.8951,-668.044"/>
</g>
<!-- header_30 -->
<g id="node31" class="node">
<title>header_30</title>
<ellipse fill="none" stroke="#000000" cx="2004" cy="-648.0009" rx="66.7704" ry="18"/>
<text text-anchor="middle" x="2004" y="-643.8009" font-family="Helvetica,sans-Serif" font-size="14.00" fill="#000000">2 : Easy mode</text>
</g>
<!-- section_6&#45;&gt;header_30 -->
<g id="edge30" class="edge">
<title>section_6&#45;&gt;header_30</title>
<path fill="none" stroke="#000000" stroke-dasharray="5,2" d="M2047.6629,-702.2032C2040.7095,-693.5713 2032.2298,-683.0449 2024.5994,-673.5726"/>
<polygon fill="#000000" stroke="#000000" points="2027.1711,-671.1859 2018.1722,-665.594 2021.7198,-675.5772 2027.1711,-671.1859"/>
</g>
<!-- prose_31 -->
<g id="node32" class="node">
<title>prose_31</title>
<ellipse fill="none" stroke="#000000" cx="2121" cy="-648.0009" rx="32.4585" ry="18"/>
<text text-anchor="middle" x="2121" y="-643.8009" font-family="Helvetica,sans-Serif" font-size="14.00" fill="#000000">prose</text>
</g>
<!-- section_6&#45;&gt;prose_31 -->
<g id="edge31" class="edge">
<title>section_6&#45;&gt;prose_31</title>
<path fill="none" stroke="#000000" stroke-dasharray="5,2" d="M2076.5843,-702.2032C2083.9423,-693.2239 2092.9804,-682.1944 2100.9784,-672.434"/>
<polygon fill="#000000" stroke="#000000" points="2103.7614,-674.56 2107.3924,-664.6068 2098.347,-670.1232 2103.7614,-674.56"/>
</g>
<!-- codeblock_32 -->
<g id="node33" class="node">
<title>codeblock_32</title>
<ellipse fill="none" stroke="#000000" cx="2258" cy="-648.0009" rx="77.4211" ry="18"/>
<text text-anchor="middle" x="2258" y="-643.8009" font-family="Helvetica,sans-Serif" font-size="14.00" fill="#000000">code block 73&#45;77</text>
</g>
<!-- section_6&#45;&gt;codeblock_32 -->
<g id="edge32" class="edge">
<title>section_6&#45;&gt;codeblock_32</title>
<path fill="none" stroke="#000000" stroke-dasharray="5,2" d="M2101.6635,-705.4307C2132.0026,-694.2857 2174.0698,-678.8324 2206.9256,-666.763"/>
<polygon fill="#000000" stroke="#000000" points="2208.1862,-670.0286 2216.366,-663.2951 2205.7724,-663.458 2208.1862,-670.0286"/>
</g>
<!-- header_37 -->
<g id="node38" class="node">
<title>header_37</title>
<ellipse fill="none" stroke="#000000" cx="2465" cy="-648.0009" rx="66.7444" ry="18"/>
<text text-anchor="middle" x="2465" y="-643.8009" font-family="Helvetica,sans-Serif" font-size="14.00" fill="#000000">2 : With metas</text>
</g>
<!-- section_7&#45;&gt;header_37 -->
<g id="edge37" class="edge">
<title>section_7&#45;&gt;header_37</title>
<path fill="none" stroke="#000000" stroke-dasharray="5,2" d="M2617.2175,-705.0825C2587.1557,-693.8093 2545.7382,-678.2778 2513.6951,-666.2616"/>
<polygon fill="#000000" stroke="#000000" points="2514.6669,-662.8881 2504.0746,-662.6539 2512.209,-669.4424 2514.6669,-662.8881"/>
</g>
<!-- prose_38 -->
<g id="node39" class="node">
<title>prose_38</title>
<ellipse fill="none" stroke="#000000" cx="2591" cy="-648.0009" rx="32.4585" ry="18"/>
<text text-anchor="middle" x="2591" y="-643.8009" font-family="Helvetica,sans-Serif" font-size="14.00" fill="#000000">prose</text>
</g>
<!-- section_7&#45;&gt;prose_38 -->
<g id="edge38" class="edge">
<title>section_7&#45;&gt;prose_38</title>
<path fill="none" stroke="#000000" stroke-dasharray="5,2" d="M2640.6854,-702.2032C2632.2516,-693.0027 2621.8446,-681.6496 2612.7379,-671.715"/>
<polygon fill="#000000" stroke="#000000" points="2615.1131,-669.1264 2605.7757,-664.1199 2609.953,-673.8565 2615.1131,-669.1264"/>
</g>
<!-- codeblock_39 -->
<g id="node40" class="node">
<title>codeblock_39</title>
<ellipse fill="none" stroke="#000000" cx="2724" cy="-648.0009" rx="77.4211" ry="18"/>
<text text-anchor="middle" x="2724" y="-643.8009" font-family="Helvetica,sans-Serif" font-size="14.00" fill="#000000">code block 81&#45;94</text>
</g>
<!-- section_7&#45;&gt;codeblock_39 -->
<g id="edge39" class="edge">
<title>section_7&#45;&gt;codeblock_39</title>
<path fill="none" stroke="#000000" stroke-dasharray="5,2" d="M2673.5618,-702.2032C2681.6953,-693.4627 2691.6366,-682.7795 2700.5366,-673.2154"/>
<polygon fill="#000000" stroke="#000000" points="2703.1464,-675.5485 2707.3965,-665.8435 2698.0219,-670.7799 2703.1464,-675.5485"/>
</g>
<!-- codeblock_40 -->
<g id="node41" class="node">
<title>codeblock_40</title>
<ellipse fill="none" stroke="#000000" cx="2929" cy="-648.0009" rx="77.4211" ry="18"/>
<text text-anchor="middle" x="2929" y="-643.8009" font-family="Helvetica,sans-Serif" font-size="14.00" fill="#000000">code block 96&#45;98</text>
</g>
<!-- section_7&#45;&gt;codeblock_40 -->
<g id="edge40" class="edge">
<title>section_7&#45;&gt;codeblock_40</title>
<path fill="none" stroke="#000000" stroke-dasharray="5,2" d="M2706.2571,-706.9623C2751.6593,-694.9441 2819.1976,-677.0663 2867.9949,-664.1493"/>
<polygon fill="#000000" stroke="#000000" points="2869.0288,-667.4963 2877.8002,-661.5538 2867.2375,-660.7294 2869.0288,-667.4963"/>
</g>
<!-- codeblock_41 -->
<g id="node42" class="node">
<title>codeblock_41</title>
<ellipse fill="none" stroke="#000000" cx="3128" cy="-648.0009" rx="87.0948" ry="18"/>
<text text-anchor="middle" x="3128" y="-643.8009" font-family="Helvetica,sans-Serif" font-size="14.00" fill="#000000">code block 100&#45;102</text>
</g>
<!-- section_7&#45;&gt;codeblock_41 -->
<g id="edge41" class="edge">
<title>section_7&#45;&gt;codeblock_41</title>
<path fill="none" stroke="#000000" stroke-dasharray="5,2" d="M2718.1519,-710.9338C2789.4429,-700.327 2910.8045,-682.1577 3015,-666.0009 3026.0078,-664.294 3037.6149,-662.4713 3049.0306,-660.6653"/>
<polygon fill="#000000" stroke="#000000" points="3049.6648,-664.1086 3058.9934,-659.0859 3048.5687,-657.1949 3049.6648,-664.1086"/>
</g>
<!-- leaf_10 -->
<g id="node11" class="node">
<title>leaf_10</title>
<polygon fill="none" stroke="#c0c0c0" points="408,-378.6016 0,-378.6016 0,-306.7993 408,-306.7993 408,-378.6016"/>
<text text-anchor="middle" x="204" y="-315.2005" font-family="Inconsolata" font-size="14.00" fill="#000000"> &#160;A small test harness to exercise our fresh Node class.</text>
</g>
<!-- raw_9&#45;&gt;leaf_10 -->
<g id="edge10" class="edge">
<title>raw_9&#45;&gt;leaf_10</title>
<path fill="none" stroke="#000000" stroke-dasharray="5,2" d="M464.8863,-634.6178C451.1873,-624.1623 432.2051,-608.9443 417,-594.0009 348.0803,-526.2677 277.3513,-438.4751 237.223,-386.6066"/>
<polygon fill="#000000" stroke="#000000" points="239.9276,-384.3823 231.0504,-378.5991 234.3835,-388.6559 239.9276,-384.3823"/>
</g>
<!-- leaf_15 -->
<g id="node16" class="node">
<title>leaf_15</title>
<polygon fill="none" stroke="#c0c0c0" points="526,-360.7005 426,-360.7005 426,-324.7005 526,-324.7005 526,-360.7005"/>
<text text-anchor="middle" x="476" y="-339.2005" font-family="Inconsolata" font-size="14.00" fill="#000000">*** includes</text>
</g>
<!-- header_11&#45;&gt;leaf_15 -->
<g id="edge15" class="edge">
<title>header_11&#45;&gt;leaf_15</title>
<path fill="none" stroke="#000000" stroke-dasharray="5,2" d="M563.5889,-630.7475C553.6489,-620.9078 542.1634,-607.8069 535,-594.0009 496.2391,-519.2972 482.5964,-418.9607 478.0783,-370.8001"/>
<polygon fill="#000000" stroke="#000000" points="481.5618,-370.4585 477.2028,-360.8019 474.5885,-371.0691 481.5618,-370.4585"/>
</g>
<!-- raw_16 -->
<g id="node17" class="node">
<title>raw_16</title>
<ellipse fill="none" stroke="#000000" cx="571" cy="-342.7005" rx="27" ry="18"/>
<text text-anchor="middle" x="571" y="-338.5005" font-family="Helvetica,sans-Serif" font-size="14.00" fill="#000000">raw</text>
</g>
<!-- prose_12&#45;&gt;raw_16 -->
<g id="edge16" class="edge">
<title>prose_12&#45;&gt;raw_16</title>
<path fill="none" stroke="#000000" stroke-dasharray="5,2" d="M661.7328,-637.4903C643.3217,-628.6963 619.7998,-614.3021 607,-594.0009 562.6375,-523.6394 564.1188,-420.4432 567.9609,-371.0649"/>
<polygon fill="#000000" stroke="#000000" points="571.472,-371.0888 568.8544,-360.8224 564.4985,-370.4804 571.472,-371.0888"/>
</g>
<!-- leaf_18 -->
<g id="node19" class="node">
<title>leaf_18</title>
<polygon fill="none" stroke="#c0c0c0" points="926,-439.7008 616,-439.7008 616,-245.7002 926,-245.7002 926,-439.7008"/>
<text text-anchor="middle" x="771" y="-424.5006" font-family="Inconsolata" font-size="14.00" fill="#000000">local u = require &quot;util&quot;</text>
<text text-anchor="middle" x="771" y="-409.1006" font-family="Inconsolata" font-size="14.00" fill="#000000">local m = require &quot;Orbit/morphemes&quot;</text>
<text text-anchor="middle" x="771" y="-377.7006" font-family="Inconsolata" font-size="14.00" fill="#000000">local Grammar = require &quot;espalier/grammar&quot;</text>
<text text-anchor="middle" x="771" y="-362.3005" font-family="Inconsolata" font-size="14.00" fill="#000000">local Node = require &quot;espalier/node&quot;</text>
<text text-anchor="middle" x="771" y="-346.9005" font-family="Inconsolata" font-size="14.00" fill="#000000">local elpatt = require &quot;espalier/elpatt&quot;</text>
<text text-anchor="middle" x="771" y="-331.5005" font-family="Inconsolata" font-size="14.00" fill="#000000">local D = elpatt.D</text>
<text text-anchor="middle" x="771" y="-316.1005" font-family="Inconsolata" font-size="14.00" fill="#000000">local L = require &quot;lpeg&quot;</text>
<text text-anchor="middle" x="771" y="-300.7004" font-family="Inconsolata" font-size="14.00" fill="#000000">local P = L.P</text>
<text text-anchor="middle" x="771" y="-285.3004" font-family="Inconsolata" font-size="14.00" fill="#000000">local V = L.V</text>
<text text-anchor="middle" x="771" y="-269.9004" font-family="Inconsolata" font-size="14.00" fill="#000000">local C = L.C</text>
</g>
<!-- codeblock_13&#45;&gt;leaf_18 -->
<g id="edge18" class="edge">
<title>codeblock_13&#45;&gt;leaf_18</title>
<path fill="none" stroke="#000000" stroke-dasharray="5,2" d="M808.6176,-629.8173C804.0503,-594.9571 793.7455,-516.3061 785.0744,-450.1234"/>
<polygon fill="#000000" stroke="#000000" points="788.5224,-449.4977 783.7529,-440.0371 781.5817,-450.4071 788.5224,-449.4977"/>
</g>
<!-- leaf_19 -->
<g id="node20" class="node">
<title>leaf_19</title>
<polygon fill="none" stroke="#c0c0c0" points="1254,-369.9009 944,-369.9009 944,-315.5 1254,-315.5 1254,-369.9009"/>
<text text-anchor="middle" x="1099" y="-354.6005" font-family="Inconsolata" font-size="14.00" fill="#000000">local Spec = {}</text>
<text text-anchor="middle" x="1099" y="-339.2005" font-family="Inconsolata" font-size="14.00" fill="#000000">Spec.dot = require &quot;espalier/grammars/dot&quot;</text>
<text text-anchor="middle" x="1099" y="-323.8005" font-family="Inconsolata" font-size="14.00" fill="#000000">Spec.peg = require &quot;espalier/grammars/peg&quot;</text>
</g>
<!-- codeblock_14&#45;&gt;leaf_19 -->
<g id="edge19" class="edge">
<title>codeblock_14&#45;&gt;leaf_19</title>
<path fill="none" stroke="#000000" stroke-dasharray="5,2" d="M1023.7648,-629.8173C1036.5685,-580.9549 1071.9166,-446.0576 1089.2122,-380.0532"/>
<polygon fill="#000000" stroke="#000000" points="1092.6777,-380.6358 1091.8268,-370.0752 1085.9063,-378.8614 1092.6777,-380.6358"/>
</g>
<!-- leaf_17 -->
<g id="node18" class="node">
<title>leaf_17</title>
<polygon fill="none" stroke="#c0c0c0" points="598,-45.7 544,-45.7 544,-9.7 598,-9.7 598,-45.7"/>
</g>
<!-- raw_16&#45;&gt;leaf_17 -->
<g id="edge17" class="edge">
<title>raw_16&#45;&gt;leaf_17</title>
<path fill="none" stroke="#000000" stroke-dasharray="5,2" d="M571,-324.4032C571,-271.774 571,-119.7153 571,-56.1542"/>
<polygon fill="#000000" stroke="#000000" points="574.5001,-56.0478 571,-46.0478 567.5001,-56.0479 574.5001,-56.0478"/>
</g>
<!-- leaf_24 -->
<g id="node25" class="node">
<title>leaf_24</title>
<polygon fill="none" stroke="#c0c0c0" points="1414,-360.7005 1272,-360.7005 1272,-324.7005 1414,-324.7005 1414,-360.7005"/>
<text text-anchor="middle" x="1343" y="-339.2005" font-family="Inconsolata" font-size="14.00" fill="#000000">** Trivial Grammar</text>
</g>
<!-- header_20&#45;&gt;leaf_24 -->
<g id="edge24" class="edge">
<title>header_20&#45;&gt;leaf_24</title>
<path fill="none" stroke="#000000" stroke-dasharray="5,2" d="M1324.1912,-629.8173C1327.5469,-578.5923 1337.0969,-432.8116 1341.1474,-370.9797"/>
<polygon fill="#000000" stroke="#000000" points="1344.6538,-370.9963 1341.815,-360.7888 1337.6687,-370.5386 1344.6538,-370.9963"/>
</g>
<!-- raw_25 -->
<g id="node26" class="node">
<title>raw_25</title>
<ellipse fill="none" stroke="#000000" cx="1459" cy="-342.7005" rx="27" ry="18"/>
<text text-anchor="middle" x="1459" y="-338.5005" font-family="Helvetica,sans-Serif" font-size="14.00" fill="#000000">raw</text>
</g>
<!-- prose_21&#45;&gt;raw_25 -->
<g id="edge25" class="edge">
<title>prose_21&#45;&gt;raw_25</title>
<path fill="none" stroke="#000000" stroke-dasharray="5,2" d="M1459,-629.8173C1459,-578.5923 1459,-432.8116 1459,-370.9797"/>
<polygon fill="#000000" stroke="#000000" points="1462.5001,-370.7888 1459,-360.7888 1455.5001,-370.7889 1462.5001,-370.7888"/>
</g>
<!-- raw_27 -->
<g id="node28" class="node">
<title>raw_27</title>
<ellipse fill="none" stroke="#000000" cx="1531" cy="-342.7005" rx="27" ry="18"/>
<text text-anchor="middle" x="1531" y="-338.5005" font-family="Helvetica,sans-Serif" font-size="14.00" fill="#000000">raw</text>
</g>
<!-- prose_22&#45;&gt;raw_27 -->
<g id="edge27" class="edge">
<title>prose_22&#45;&gt;raw_27</title>
<path fill="none" stroke="#000000" stroke-dasharray="5,2" d="M1540.4044,-629.8173C1538.7265,-578.5923 1533.9516,-432.8116 1531.9263,-370.9797"/>
<polygon fill="#000000" stroke="#000000" points="1535.4181,-370.6689 1531.5925,-360.7888 1528.4218,-370.8981 1535.4181,-370.6689"/>
</g>
<!-- leaf_29 -->
<g id="node30" class="node">
<title>leaf_29</title>
<polygon fill="none" stroke="#c0c0c0" points="1942,-593.8015 1576,-593.8015 1576,-91.5994 1942,-91.5994 1942,-593.8015"/>
<text text-anchor="middle" x="1759" y="-578.8009" font-family="Inconsolata" font-size="14.00" fill="#000000">local function epsilon(_ENV)</text>
<text text-anchor="middle" x="1759" y="-563.4009" font-family="Inconsolata" font-size="14.00" fill="#000000"> &#160;START &quot;any&quot;</text>
<text text-anchor="middle" x="1759" y="-548.0009" font-family="Inconsolata" font-size="14.00" fill="#000000"> &#160;any = V&quot;anything&quot; + V&quot;other&quot;</text>
<text text-anchor="middle" x="1759" y="-532.6008" font-family="Inconsolata" font-size="14.00" fill="#000000"> &#160;anything = P(1)</text>
<text text-anchor="middle" x="1759" y="-517.2008" font-family="Inconsolata" font-size="14.00" fill="#000000"> &#160;other = P(1)^0</text>
<text text-anchor="middle" x="1759" y="-501.8008" font-family="Inconsolata" font-size="14.00" fill="#000000">end</text>
<text text-anchor="middle" x="1759" y="-470.4007" font-family="Inconsolata" font-size="14.00" fill="#000000">local function a(_ENV)</text>
<text text-anchor="middle" x="1759" y="-455.0007" font-family="Inconsolata" font-size="14.00" fill="#000000"> &#160;START &quot;A&quot;</text>
<text text-anchor="middle" x="1759" y="-439.6007" font-family="Inconsolata" font-size="14.00" fill="#000000"> &#160;A = P&quot;a&quot; + P&quot;A&quot;</text>
<text text-anchor="middle" x="1759" y="-424.2007" font-family="Inconsolata" font-size="14.00" fill="#000000">end</text>
<text text-anchor="middle" x="1759" y="-392.8006" font-family="Inconsolata" font-size="14.00" fill="#000000">local function ab(_ENV)</text>
<text text-anchor="middle" x="1759" y="-377.4006" font-family="Inconsolata" font-size="14.00" fill="#000000"> &#160;START &quot;AB&quot;</text>
<text text-anchor="middle" x="1759" y="-362.0006" font-family="Inconsolata" font-size="14.00" fill="#000000"> &#160;AB = V&quot;B&quot; + V&quot;A&quot;</text>
<text text-anchor="middle" x="1759" y="-346.6005" font-family="Inconsolata" font-size="14.00" fill="#000000"> &#160;A = P&quot;a&quot; + P&quot;A&quot;</text>
<text text-anchor="middle" x="1759" y="-331.2005" font-family="Inconsolata" font-size="14.00" fill="#000000"> &#160;B = V&quot;bmatch&quot; + (V&quot;A&quot; * V&quot;bmatch&quot;)</text>
<text text-anchor="middle" x="1759" y="-315.8005" font-family="Inconsolata" font-size="14.00" fill="#000000"> &#160;bmatch = P&quot;b&quot; + P&quot;B&quot;</text>
<text text-anchor="middle" x="1759" y="-300.4004" font-family="Inconsolata" font-size="14.00" fill="#000000">end</text>
<text text-anchor="middle" x="1759" y="-269.0004" font-family="Inconsolata" font-size="14.00" fill="#000000">local function clu_gm(_ENV)</text>
<text text-anchor="middle" x="1759" y="-253.6004" font-family="Inconsolata" font-size="14.00" fill="#000000"> &#160;local WS = D(P(m._ + m.NL)^0)</text>
<text text-anchor="middle" x="1759" y="-238.2003" font-family="Inconsolata" font-size="14.00" fill="#000000"> &#160;START &quot;clu&quot;</text>
<text text-anchor="middle" x="1759" y="-222.8003" font-family="Inconsolata" font-size="14.00" fill="#000000"> &#160;SUPPRESS &quot;form&quot;</text>
<text text-anchor="middle" x="1759" y="-207.4003" font-family="Inconsolata" font-size="14.00" fill="#000000"> &#160;clu = V&quot;form&quot;^1</text>
<text text-anchor="middle" x="1759" y="-192.0002" font-family="Inconsolata" font-size="14.00" fill="#000000"> &#160;form = D((V&quot;number&quot; * WS))</text>
<text text-anchor="middle" x="1759" y="-176.6002" font-family="Inconsolata" font-size="14.00" fill="#000000"> &#160;&#160;&#160;&#160;&#160;&#160;+ (V&quot;atom&quot; * WS)</text>
<text text-anchor="middle" x="1759" y="-161.2002" font-family="Inconsolata" font-size="14.00" fill="#000000"> &#160;&#160;&#160;&#160;&#160;&#160;+ (V&quot;expr&quot; * WS)</text>
<text text-anchor="middle" x="1759" y="-145.8002" font-family="Inconsolata" font-size="14.00" fill="#000000"> &#160;expr = D(m.pal) * WS * V&quot;form&quot;^0 * WS * D(m.par)</text>
<text text-anchor="middle" x="1759" y="-130.4001" font-family="Inconsolata" font-size="14.00" fill="#000000"> &#160;atom = m.symbol</text>
<text text-anchor="middle" x="1759" y="-115.0001" font-family="Inconsolata" font-size="14.00" fill="#000000"> &#160;number = m.number</text>
<text text-anchor="middle" x="1759" y="-99.6001" font-family="Inconsolata" font-size="14.00" fill="#000000">end</text>
</g>
<!-- codeblock_23&#45;&gt;leaf_29 -->
<g id="edge29" class="edge">
<title>codeblock_23&#45;&gt;leaf_29</title>
<path fill="none" stroke="#000000" stroke-dasharray="5,2" d="M1716.6802,-629.8173C1717.7126,-622.8131 1719.0055,-614.0411 1720.4918,-603.9575"/>
<polygon fill="#000000" stroke="#000000" points="1723.9781,-604.3064 1721.9738,-593.9028 1717.053,-603.2856 1723.9781,-604.3064"/>
</g>
<!-- leaf_26 -->
<g id="node27" class="node">
<title>leaf_26</title>
<polygon fill="none" stroke="#c0c0c0" points="1423,-55.6015 1099,-55.6015 1099,.2015 1423,.2015 1423,-55.6015"/>
<text text-anchor="middle" x="1261" y="-8.2" font-family="Inconsolata" font-size="14.00" fill="#000000">This should succeed under all circumstances.</text>
</g>
<!-- raw_25&#45;&gt;leaf_26 -->
<g id="edge26" class="edge">
<title>raw_25&#45;&gt;leaf_26</title>
<path fill="none" stroke="#000000" stroke-dasharray="5,2" d="M1462.0516,-324.5355C1468.5204,-279.626 1478.7785,-161.9175 1423,-91.4 1412.908,-78.6414 1399.8978,-68.4318 1385.6426,-60.2635"/>
<polygon fill="#000000" stroke="#000000" points="1387.0893,-57.0682 1376.6208,-55.4369 1383.7872,-63.2404 1387.0893,-57.0682"/>
</g>
<!-- leaf_28 -->
<g id="node29" class="node">
<title>leaf_28</title>
<polygon fill="none" stroke="#c0c0c0" points="1919,-47.6021 1441,-47.6021 1441,-7.7979 1919,-7.7979 1919,-47.6021"/>
<text text-anchor="middle" x="1680" y="-16.2" font-family="Inconsolata" font-size="14.00" fill="#000000">I think this is probably &quot;loop body may accept empty string&quot;. Hmm.</text>
</g>
<!-- raw_27&#45;&gt;leaf_28 -->
<g id="edge28" class="edge">
<title>raw_27&#45;&gt;leaf_28</title>
<path fill="none" stroke="#000000" stroke-dasharray="5,2" d="M1528.5325,-324.6691C1523.4835,-280.5611 1516.3655,-165.4306 1567,-91.4 1578.4221,-74.7003 1595.744,-61.8765 1613.4182,-52.265"/>
<polygon fill="#000000" stroke="#000000" points="1615.3595,-55.2031 1622.6633,-47.5282 1612.1675,-48.9732 1615.3595,-55.2031"/>
</g>
<!-- leaf_33 -->
<g id="node34" class="node">
<title>leaf_33</title>
<polygon fill="none" stroke="#c0c0c0" points="2067.5,-360.7005 1960.5,-360.7005 1960.5,-324.7005 2067.5,-324.7005 2067.5,-360.7005"/>
<text text-anchor="middle" x="2014" y="-339.2005" font-family="Inconsolata" font-size="14.00" fill="#000000">pec.trivial =</text>
</g>
<!-- header_30&#45;&gt;leaf_33 -->
<g id="edge33" class="edge">
<title>header_30&#45;&gt;leaf_33</title>
<path fill="none" stroke="#000000" stroke-dasharray="5,2" d="M2004.5956,-629.8173C2006.2735,-578.5923 2011.0484,-432.8116 2013.0737,-370.9797"/>
<polygon fill="#000000" stroke="#000000" points="2016.5782,-370.8981 2013.4075,-360.7888 2009.5819,-370.6689 2016.5782,-370.8981"/>
</g>
<!-- raw_34 -->
<g id="node35" class="node">
<title>raw_34</title>
<ellipse fill="none" stroke="#000000" cx="2113" cy="-342.7005" rx="27" ry="18"/>
<text text-anchor="middle" x="2113" y="-338.5005" font-family="Helvetica,sans-Serif" font-size="14.00" fill="#000000">raw</text>
</g>
<!-- prose_31&#45;&gt;raw_34 -->
<g id="edge34" class="edge">
<title>prose_31&#45;&gt;raw_34</title>
<path fill="none" stroke="#000000" stroke-dasharray="5,2" d="M2120.5235,-629.8173C2119.1812,-578.5923 2115.3612,-432.8116 2113.741,-370.9797"/>
<polygon fill="#000000" stroke="#000000" points="2117.2348,-370.6937 2113.474,-360.7888 2110.2372,-370.8771 2117.2348,-370.6937"/>
</g>
<!-- leaf_36 -->
<g id="node37" class="node">
<title>leaf_36</title>
<polygon fill="none" stroke="#c0c0c0" points="2391.5,-369.9009 2158.5,-369.9009 2158.5,-315.5 2391.5,-315.5 2391.5,-369.9009"/>
<text text-anchor="middle" x="2275" y="-354.6005" font-family="Inconsolata" font-size="14.00" fill="#000000">Spec.trivial = Grammar(epsilon)</text>
<text text-anchor="middle" x="2275" y="-339.2005" font-family="Inconsolata" font-size="14.00" fill="#000000">Spec.a = Grammar(a)</text>
<text text-anchor="middle" x="2275" y="-323.8005" font-family="Inconsolata" font-size="14.00" fill="#000000">Spec.clu = Grammar(clu_gm)</text>
</g>
<!-- codeblock_32&#45;&gt;leaf_36 -->
<g id="edge36" class="edge">
<title>codeblock_32&#45;&gt;leaf_36</title>
<path fill="none" stroke="#000000" stroke-dasharray="5,2" d="M2259.0125,-629.8173C2261.7277,-581.0554 2269.2139,-446.6124 2272.8974,-380.4615"/>
<polygon fill="#000000" stroke="#000000" points="2276.4142,-380.2543 2273.4757,-370.0752 2269.4251,-379.8651 2276.4142,-380.2543"/>
</g>
<!-- leaf_35 -->
<g id="node36" class="node">
<title>leaf_35</title>
<polygon fill="none" stroke="#c0c0c0" points="2140,-45.7 2086,-45.7 2086,-9.7 2140,-9.7 2140,-45.7"/>
</g>
<!-- raw_34&#45;&gt;leaf_35 -->
<g id="edge35" class="edge">
<title>raw_34&#45;&gt;leaf_35</title>
<path fill="none" stroke="#000000" stroke-dasharray="5,2" d="M2113,-324.4032C2113,-271.774 2113,-119.7153 2113,-56.1542"/>
<polygon fill="#000000" stroke="#000000" points="2116.5001,-56.0478 2113,-46.0478 2109.5001,-56.0479 2116.5001,-56.0478"/>
</g>
<!-- leaf_42 -->
<g id="node43" class="node">
<title>leaf_42</title>
<polygon fill="none" stroke="#c0c0c0" points="2516.5,-362.6026 2409.5,-362.6026 2409.5,-322.7984 2516.5,-322.7984 2516.5,-362.6026"/>
<text text-anchor="middle" x="2463" y="-331.2005" font-family="Inconsolata" font-size="14.00" fill="#000000">local metas =</text>
</g>
<!-- header_37&#45;&gt;leaf_42 -->
<g id="edge42" class="edge">
<title>header_37&#45;&gt;leaf_42</title>
<path fill="none" stroke="#000000" stroke-dasharray="5,2" d="M2464.8809,-629.8173C2464.5486,-579.093 2463.6089,-435.6524 2463.1973,-372.8167"/>
<polygon fill="#000000" stroke="#000000" points="2466.6969,-372.731 2463.1314,-362.7542 2459.6971,-372.777 2466.6969,-372.731"/>
</g>
<!-- raw_43 -->
<g id="node44" class="node">
<title>raw_43</title>
<ellipse fill="none" stroke="#000000" cx="2562" cy="-342.7005" rx="27" ry="18"/>
<text text-anchor="middle" x="2562" y="-338.5005" font-family="Helvetica,sans-Serif" font-size="14.00" fill="#000000">raw</text>
</g>
<!-- prose_38&#45;&gt;raw_43 -->
<g id="edge43" class="edge">
<title>prose_38&#45;&gt;raw_43</title>
<path fill="none" stroke="#000000" stroke-dasharray="5,2" d="M2589.2728,-629.8173C2584.407,-578.5923 2570.5595,-432.8116 2564.6862,-370.9797"/>
<polygon fill="#000000" stroke="#000000" points="2568.1482,-370.413 2563.7182,-360.7888 2561.1796,-371.075 2568.1482,-370.413"/>
</g>
<!-- leaf_45 -->
<g id="node46" class="node">
<title>leaf_45</title>
<polygon fill="none" stroke="#c0c0c0" points="2847,-440.4008 2607,-440.4008 2607,-245.0001 2847,-245.0001 2847,-440.4008"/>
<text text-anchor="middle" x="2727" y="-409.1006" font-family="Inconsolata" font-size="14.00" fill="#000000">local metas = {}</text>
<text text-anchor="middle" x="2727" y="-377.7006" font-family="Inconsolata" font-size="14.00" fill="#000000">local AMt, amt = u.inherit(Node)</text>
<text text-anchor="middle" x="2727" y="-346.3005" font-family="Inconsolata" font-size="14.00" fill="#000000">local function Anew(A, t, str)</text>
<text text-anchor="middle" x="2727" y="-330.9005" font-family="Inconsolata" font-size="14.00" fill="#000000"> &#160;local a = setmetatable(t, AMt)</text>
<text text-anchor="middle" x="2727" y="-315.5005" font-family="Inconsolata" font-size="14.00" fill="#000000"> &#160;a.id = &quot;A&quot;</text>
<text text-anchor="middle" x="2727" y="-300.1005" font-family="Inconsolata" font-size="14.00" fill="#000000"> &#160;return a</text>
<text text-anchor="middle" x="2727" y="-284.7004" font-family="Inconsolata" font-size="14.00" fill="#000000">end</text>
<text text-anchor="middle" x="2727" y="-253.3004" font-family="Inconsolata" font-size="14.00" fill="#000000">metas[&quot;A&quot;] = u.export(amt, Anew)</text>
</g>
<!-- codeblock_39&#45;&gt;leaf_45 -->
<g id="edge45" class="edge">
<title>codeblock_39&#45;&gt;leaf_45</title>
<path fill="none" stroke="#000000" stroke-dasharray="5,2" d="M2724.1787,-629.8173C2724.5206,-595.0182 2725.2914,-516.5815 2725.941,-450.4712"/>
<polygon fill="#000000" stroke="#000000" points="2729.4415,-450.4289 2726.04,-440.395 2722.4418,-450.36 2729.4415,-450.4289"/>
</g>
<!-- leaf_46 -->
<g id="node47" class="node">
<title>leaf_46</title>
<polygon fill="none" stroke="#c0c0c0" points="3077,-360.7005 2865,-360.7005 2865,-324.7005 3077,-324.7005 3077,-360.7005"/>
<text text-anchor="middle" x="2971" y="-339.2005" font-family="Inconsolata" font-size="14.00" fill="#000000">Spec.ab = Grammar(ab, metas)</text>
</g>
<!-- codeblock_40&#45;&gt;leaf_46 -->
<g id="edge46" class="edge">
<title>codeblock_40&#45;&gt;leaf_46</title>
<path fill="none" stroke="#000000" stroke-dasharray="5,2" d="M2931.5015,-629.8173C2938.5485,-578.5923 2958.6035,-432.8116 2967.1096,-370.9797"/>
<polygon fill="#000000" stroke="#000000" points="2970.616,-371.1726 2968.5116,-360.7888 2963.6813,-370.2185 2970.616,-371.1726"/>
</g>
<!-- leaf_47 -->
<g id="node48" class="node">
<title>leaf_47</title>
<polygon fill="none" stroke="#c0c0c0" points="3188.5,-360.7005 3095.5,-360.7005 3095.5,-324.7005 3188.5,-324.7005 3188.5,-360.7005"/>
<text text-anchor="middle" x="3142" y="-339.2005" font-family="Inconsolata" font-size="14.00" fill="#000000">return Spec</text>
</g>
<!-- codeblock_41&#45;&gt;leaf_47 -->
<g id="edge47" class="edge">
<title>codeblock_41&#45;&gt;leaf_47</title>
<path fill="none" stroke="#000000" stroke-dasharray="5,2" d="M3128.8338,-629.8173C3131.1828,-578.5923 3137.8678,-432.8116 3140.7032,-370.9797"/>
<polygon fill="#000000" stroke="#000000" points="3144.2087,-370.9387 3141.1705,-360.7888 3137.216,-370.618 3144.2087,-370.9387"/>
</g>
<!-- leaf_44 -->
<g id="node45" class="node">
<title>leaf_44</title>
<polygon fill="none" stroke="#c0c0c0" points="2589,-45.7 2535,-45.7 2535,-9.7 2589,-9.7 2589,-45.7"/>
</g>
<!-- raw_43&#45;&gt;leaf_44 -->
<g id="edge44" class="edge">
<title>raw_43&#45;&gt;leaf_44</title>
<path fill="none" stroke="#000000" stroke-dasharray="5,2" d="M2562,-324.4032C2562,-271.774 2562,-119.7153 2562,-56.1542"/>
<polygon fill="#000000" stroke="#000000" points="2565.5001,-56.0478 2562,-46.0478 2558.5001,-56.0479 2565.5001,-56.0478"/>
</g>
</g>
</svg>
