<?xml version="1.0" encoding="UTF-8" standalone="no"?>
<!DOCTYPE svg PUBLIC "-//W3C//DTD SVG 1.1//EN"
 "http://www.w3.org/Graphics/SVG/1.1/DTD/svg11.dtd">
<!-- Generated by graphviz version 2.40.1 (20161225.0304)
 -->
<!-- Title: hierarchy Pages: 1 -->
<svg width="1808pt" height="416pt"
 viewBox="0.00 0.00 1807.50 416.40" xmlns="http://www.w3.org/2000/svg" xmlns:xlink="http://www.w3.org/1999/xlink">
<g id="graph0" class="graph" transform="scale(1 1) rotate(0) translate(4 412.4002)">
<title>hierarchy</title>
<polygon fill="#ffffff" stroke="transparent" points="-4,4 -4,-412.4002 1803.5,-412.4002 1803.5,4 -4,4"/>
<!-- doc_0 -->
<g id="node1" class="node">
<title>doc_0</title>
<ellipse fill="none" stroke="#000000" cx="735.5" cy="-390.4002" rx="42.1216" ry="18"/>
<text text-anchor="middle" x="735.5" y="-386.2002" font-family="Helvetica,sans-Serif" font-size="14.00" fill="#000000">doc &#45; 23</text>
</g>
<!-- section_1 -->
<g id="node2" class="node">
<title>section_1</title>
<ellipse fill="none" stroke="#000000" cx="735.5" cy="-318.4002" rx="60.9826" ry="18"/>
<text text-anchor="middle" x="735.5" y="-314.2002" font-family="Helvetica,sans-Serif" font-size="14.00" fill="#000000">section: 1&#45;23</text>
</g>
<!-- doc_0&#45;&gt;section_1 -->
<g id="edge1" class="edge">
<title>doc_0&#45;&gt;section_1</title>
<path fill="none" stroke="#000000" stroke-dasharray="5,2" d="M735.5,-372.2315C735.5,-364.5311 735.5,-355.3745 735.5,-346.8168"/>
<polygon fill="#000000" stroke="#000000" points="739.0001,-346.8134 735.5,-336.8135 732.0001,-346.8135 739.0001,-346.8134"/>
</g>
<!-- header_2 -->
<g id="node3" class="node">
<title>header_2</title>
<ellipse fill="none" stroke="#000000" cx="464.5" cy="-246.4002" rx="45.9804" ry="18"/>
<text text-anchor="middle" x="464.5" y="-242.2002" font-family="Helvetica,sans-Serif" font-size="14.00" fill="#000000">1 : Stator</text>
</g>
<!-- section_1&#45;&gt;header_2 -->
<g id="edge2" class="edge">
<title>section_1&#45;&gt;header_2</title>
<path fill="none" stroke="#000000" stroke-dasharray="5,2" d="M690.1407,-306.349C640.9435,-293.2782 562.7318,-272.4987 512.5181,-259.1578"/>
<polygon fill="#000000" stroke="#000000" points="513.1206,-255.6965 502.5572,-256.5113 511.3232,-262.4618 513.1206,-255.6965"/>
</g>
<!-- prose_3 -->
<g id="node4" class="node">
<title>prose_3</title>
<ellipse fill="none" stroke="#000000" cx="580.5" cy="-246.4002" rx="32.4585" ry="18"/>
<text text-anchor="middle" x="580.5" y="-242.2002" font-family="Helvetica,sans-Serif" font-size="14.00" fill="#000000">prose</text>
</g>
<!-- section_1&#45;&gt;prose_3 -->
<g id="edge3" class="edge">
<title>section_1&#45;&gt;prose_3</title>
<path fill="none" stroke="#000000" stroke-dasharray="5,2" d="M702.6285,-303.1308C676.8271,-291.1457 641.0148,-274.5103 614.8426,-262.3529"/>
<polygon fill="#000000" stroke="#000000" points="616.2166,-259.132 605.6728,-258.0934 613.2676,-265.4805 616.2166,-259.132"/>
</g>
<!-- prose_4 -->
<g id="node5" class="node">
<title>prose_4</title>
<ellipse fill="none" stroke="#000000" cx="672.5" cy="-246.4002" rx="32.4585" ry="18"/>
<text text-anchor="middle" x="672.5" y="-242.2002" font-family="Helvetica,sans-Serif" font-size="14.00" fill="#000000">prose</text>
</g>
<!-- section_1&#45;&gt;prose_4 -->
<g id="edge4" class="edge">
<title>section_1&#45;&gt;prose_4</title>
<path fill="none" stroke="#000000" stroke-dasharray="5,2" d="M720.2495,-300.971C712.2038,-291.7759 702.2105,-280.355 693.4486,-270.3414"/>
<polygon fill="#000000" stroke="#000000" points="695.9656,-267.9029 686.7465,-262.6819 690.6975,-272.5124 695.9656,-267.9029"/>
</g>
<!-- codeblock_5 -->
<g id="node6" class="node">
<title>codeblock_5</title>
<ellipse fill="none" stroke="#000000" cx="804.5" cy="-246.4002" rx="76.6175" ry="18"/>
<text text-anchor="middle" x="804.5" y="-242.2002" font-family="Helvetica,sans-Serif" font-size="14.00" fill="#000000">code block 11&#45;13</text>
</g>
<!-- section_1&#45;&gt;codeblock_5 -->
<g id="edge5" class="edge">
<title>section_1&#45;&gt;codeblock_5</title>
<path fill="none" stroke="#000000" stroke-dasharray="5,2" d="M752.203,-300.971C760.6373,-292.17 771.0257,-281.3299 780.3153,-271.6364"/>
<polygon fill="#000000" stroke="#000000" points="783.0794,-273.8107 787.4715,-264.1691 778.0254,-268.9673 783.0794,-273.8107"/>
</g>
<!-- codeblock_6 -->
<g id="node7" class="node">
<title>codeblock_6</title>
<ellipse fill="none" stroke="#000000" cx="1105.5" cy="-246.4002" rx="77.4211" ry="18"/>
<text text-anchor="middle" x="1105.5" y="-242.2002" font-family="Helvetica,sans-Serif" font-size="14.00" fill="#000000">code block 15&#45;19</text>
</g>
<!-- section_1&#45;&gt;codeblock_6 -->
<g id="edge6" class="edge">
<title>section_1&#45;&gt;codeblock_6</title>
<path fill="none" stroke="#000000" stroke-dasharray="5,2" d="M786.5585,-308.4645C851.4067,-295.8454 963.5803,-274.017 1036.1371,-259.8978"/>
<polygon fill="#000000" stroke="#000000" points="1036.9559,-263.3042 1046.1032,-257.9585 1035.6188,-256.4331 1036.9559,-263.3042"/>
</g>
<!-- codeblock_7 -->
<g id="node8" class="node">
<title>codeblock_7</title>
<ellipse fill="none" stroke="#000000" cx="1457.5" cy="-246.4002" rx="77.4211" ry="18"/>
<text text-anchor="middle" x="1457.5" y="-242.2002" font-family="Helvetica,sans-Serif" font-size="14.00" fill="#000000">code block 21&#45;23</text>
</g>
<!-- section_1&#45;&gt;codeblock_7 -->
<g id="edge7" class="edge">
<title>section_1&#45;&gt;codeblock_7</title>
<path fill="none" stroke="#000000" stroke-dasharray="5,2" d="M793.3638,-312.6298C921.299,-299.8718 1228.492,-269.2376 1375.8927,-254.5383"/>
<polygon fill="#000000" stroke="#000000" points="1376.6214,-257.9831 1386.2248,-253.508 1375.9268,-251.0176 1376.6214,-257.9831"/>
</g>
<!-- leaf_8 -->
<g id="node9" class="node">
<title>leaf_8</title>
<polygon fill="none" stroke="#c0c0c0" points="460.5,-183.3001 388.5,-183.3001 388.5,-147.3001 460.5,-147.3001 460.5,-183.3001"/>
<text text-anchor="middle" x="424.5" y="-161.8002" font-family="Inconsolata" font-size="14.00" fill="#000000">* Stator</text>
</g>
<!-- header_2&#45;&gt;leaf_8 -->
<g id="edge8" class="edge">
<title>header_2&#45;&gt;leaf_8</title>
<path fill="none" stroke="#000000" stroke-dasharray="5,2" d="M455.6227,-228.4015C450.4286,-217.8704 443.7669,-204.3638 437.9404,-192.5507"/>
<polygon fill="#000000" stroke="#000000" points="441.0532,-190.9493 433.4908,-183.529 434.7753,-194.0457 441.0532,-190.9493"/>
</g>
<!-- raw_9 -->
<g id="node10" class="node">
<title>raw_9</title>
<ellipse fill="none" stroke="#000000" cx="505.5" cy="-165.3001" rx="27" ry="18"/>
<text text-anchor="middle" x="505.5" y="-161.1001" font-family="Helvetica,sans-Serif" font-size="14.00" fill="#000000">raw</text>
</g>
<!-- prose_3&#45;&gt;raw_9 -->
<g id="edge9" class="edge">
<title>prose_3&#45;&gt;raw_9</title>
<path fill="none" stroke="#000000" stroke-dasharray="5,2" d="M565.6824,-230.3774C554.5483,-218.3378 539.141,-201.6773 526.7032,-188.2279"/>
<polygon fill="#000000" stroke="#000000" points="529.1372,-185.7048 519.7779,-180.7394 523.9979,-190.4575 529.1372,-185.7048"/>
</g>
<!-- raw_11 -->
<g id="node12" class="node">
<title>raw_11</title>
<ellipse fill="none" stroke="#000000" cx="577.5" cy="-165.3001" rx="27" ry="18"/>
<text text-anchor="middle" x="577.5" y="-161.1001" font-family="Helvetica,sans-Serif" font-size="14.00" fill="#000000">raw</text>
</g>
<!-- prose_4&#45;&gt;raw_11 -->
<g id="edge11" class="edge">
<title>prose_4&#45;&gt;raw_11</title>
<path fill="none" stroke="#000000" stroke-dasharray="5,2" d="M654.6312,-231.1459C639.758,-218.4489 618.4314,-200.2427 601.9716,-186.1912"/>
<polygon fill="#000000" stroke="#000000" points="604.21,-183.5001 594.3319,-179.6693 599.665,-188.824 604.21,-183.5001"/>
</g>
<!-- leaf_13 -->
<g id="node14" class="node">
<title>leaf_13</title>
<polygon fill="none" stroke="#c0c0c0" points="996,-183.3001 623,-183.3001 623,-147.3001 996,-147.3001 996,-183.3001"/>
<text text-anchor="middle" x="809.5" y="-161.8002" font-family="Inconsolata" font-size="14.00" fill="#000000">local Stator = setmetatable({}, {__index = Stator})</text>
</g>
<!-- codeblock_5&#45;&gt;leaf_13 -->
<g id="edge13" class="edge">
<title>codeblock_5&#45;&gt;leaf_13</title>
<path fill="none" stroke="#000000" stroke-dasharray="5,2" d="M805.6097,-228.4015C806.2396,-218.1832 807.0423,-205.1636 807.7548,-193.6077"/>
<polygon fill="#000000" stroke="#000000" points="811.2541,-193.7255 808.3762,-183.529 804.2673,-193.2946 811.2541,-193.7255"/>
</g>
<!-- leaf_14 -->
<g id="node15" class="node">
<title>leaf_14</title>
<polygon fill="none" stroke="#c0c0c0" points="1457,-192.5006 1014,-192.5006 1014,-138.0997 1457,-138.0997 1457,-192.5006"/>
<text text-anchor="middle" x="1235.5" y="-177.2002" font-family="Inconsolata" font-size="14.00" fill="#000000">function call(stator)</text>
<text text-anchor="middle" x="1235.5" y="-161.8002" font-family="Inconsolata" font-size="14.00" fill="#000000"> &#160;return setmetatable({}, {__index = stator, __call = call })</text>
<text text-anchor="middle" x="1235.5" y="-146.4001" font-family="Inconsolata" font-size="14.00" fill="#000000">end</text>
</g>
<!-- codeblock_6&#45;&gt;leaf_14 -->
<g id="edge14" class="edge">
<title>codeblock_6&#45;&gt;leaf_14</title>
<path fill="none" stroke="#000000" stroke-dasharray="5,2" d="M1132.7523,-229.399C1147.3347,-220.3018 1165.796,-208.7847 1183.0348,-198.0304"/>
<polygon fill="#000000" stroke="#000000" points="1185.2792,-200.7555 1191.911,-192.493 1181.5741,-194.8164 1185.2792,-200.7555"/>
</g>
<!-- leaf_15 -->
<g id="node16" class="node">
<title>leaf_15</title>
<polygon fill="none" stroke="#c0c0c0" points="1799.5,-183.3001 1475.5,-183.3001 1475.5,-147.3001 1799.5,-147.3001 1799.5,-183.3001"/>
<text text-anchor="middle" x="1637.5" y="-161.8002" font-family="Inconsolata" font-size="14.00" fill="#000000">return setmetatable(Stator, {__call = call})</text>
</g>
<!-- codeblock_7&#45;&gt;leaf_15 -->
<g id="edge15" class="edge">
<title>codeblock_7&#45;&gt;leaf_15</title>
<path fill="none" stroke="#000000" stroke-dasharray="5,2" d="M1493.0622,-230.3774C1520.1502,-218.1728 1557.7769,-201.2198 1587.8354,-187.6768"/>
<polygon fill="#000000" stroke="#000000" points="1589.6262,-190.7089 1597.3058,-183.4099 1586.7507,-184.3267 1589.6262,-190.7089"/>
</g>
<!-- leaf_10 -->
<g id="node11" class="node">
<title>leaf_10</title>
<polygon fill="none" stroke="#c0c0c0" points="541,-102.3003 0,-102.3003 0,.1002 541,.1002 541,-102.3003"/>
<text text-anchor="middle" x="270.5" y="-39.0001" font-family="Inconsolata" font-size="14.00" fill="#000000"> &#160;Having gotten about as far as I can with mere string concatenation, it&#39;s </text>
<text text-anchor="middle" x="270.5" y="-23.6001" font-family="Inconsolata" font-size="14.00" fill="#000000">time to put together a proper set of operations for transducing across a</text>
<text text-anchor="middle" x="270.5" y="-8.2" font-family="Inconsolata" font-size="14.00" fill="#000000">Node. </text>
</g>
<!-- raw_9&#45;&gt;leaf_10 -->
<g id="edge10" class="edge">
<title>raw_9&#45;&gt;leaf_10</title>
<path fill="none" stroke="#000000" stroke-dasharray="5,2" d="M488.4888,-151.2156C482.6672,-146.748 475.9838,-141.9897 469.5,-138.2001 450.2845,-126.9692 429.3526,-116.2875 408.5169,-106.4986"/>
<polygon fill="#000000" stroke="#000000" points="409.8235,-103.2465 399.2792,-102.2127 406.8774,-109.5964 409.8235,-103.2465"/>
</g>
<!-- leaf_12 -->
<g id="node13" class="node">
<title>leaf_12</title>
<polygon fill="none" stroke="#c0c0c0" points="1065.5,-78.4005 559.5,-78.4005 559.5,-23.7996 1065.5,-23.7996 1065.5,-78.4005"/>
<text text-anchor="middle" x="812.5" y="-47.3001" font-family="Inconsolata" font-size="14.00" fill="#000000">This isn&#39;t a great place to put theory, let&#39;s build the structure and </text>
<text text-anchor="middle" x="812.5" y="-31.9" font-family="Inconsolata" font-size="14.00" fill="#000000">flesh out from there.</text>
</g>
<!-- raw_11&#45;&gt;leaf_12 -->
<g id="edge12" class="edge">
<title>raw_11&#45;&gt;leaf_12</title>
<path fill="none" stroke="#000000" stroke-dasharray="5,2" d="M594.5112,-151.2156C600.3328,-146.748 607.0162,-141.9897 613.5,-138.2001 650.1136,-116.8005 692.9585,-97.3949 729.4958,-82.3606"/>
<polygon fill="#000000" stroke="#000000" points="731.1897,-85.45 739.1309,-78.4366 728.5493,-78.967 731.1897,-85.45"/>
</g>
</g>
</svg>