<?xml version="1.0" encoding="UTF-8" standalone="no"?>
<!DOCTYPE svg PUBLIC "-//W3C//DTD SVG 1.1//EN"
 "http://www.w3.org/Graphics/SVG/1.1/DTD/svg11.dtd">
<!-- Generated by graphviz version 2.40.1 (20161225.0304)
 -->
<!-- Title: lpegNode Pages: 1 -->
<svg width="3577pt" height="505pt"
 viewBox="0.00 0.00 3576.50 505.00" xmlns="http://www.w3.org/2000/svg" xmlns:xlink="http://www.w3.org/1999/xlink">
<g id="graph0" class="graph" transform="scale(1 1) rotate(0) translate(4 501.0002)">
<title>lpegNode</title>
<polygon fill="#ffffff" stroke="transparent" points="-4,4 -4,-501.0002 3572.5,-501.0002 3572.5,4 -4,4"/>
<!-- doc_0 -->
<g id="node1" class="node">
<title>doc_0</title>
<ellipse fill="none" stroke="#000000" cx="874" cy="-479.0002" rx="42.1216" ry="18"/>
<text text-anchor="middle" x="874" y="-474.8002" font-family="Helvetica,sans-Serif" font-size="14.00" fill="#000000">doc &#45; 49</text>
</g>
<!-- section_1 -->
<g id="node2" class="node">
<title>section_1</title>
<ellipse fill="none" stroke="#000000" cx="874" cy="-407.0002" rx="60.9826" ry="18"/>
<text text-anchor="middle" x="874" y="-402.8002" font-family="Helvetica,sans-Serif" font-size="14.00" fill="#000000">section: 1&#45;32</text>
</g>
<!-- doc_0&#45;&gt;section_1 -->
<g id="edge1" class="edge">
<title>doc_0&#45;&gt;section_1</title>
<path fill="none" stroke="#000000" stroke-dasharray="5,2" d="M874,-460.8315C874,-453.1311 874,-443.9745 874,-435.4168"/>
<polygon fill="#000000" stroke="#000000" points="877.5001,-435.4134 874,-425.4134 870.5001,-435.4135 877.5001,-435.4134"/>
</g>
<!-- header_2 -->
<g id="node3" class="node">
<title>header_2</title>
<ellipse fill="none" stroke="#000000" cx="632" cy="-335.0002" rx="45.9804" ry="18"/>
<text text-anchor="middle" x="632" y="-330.8002" font-family="Helvetica,sans-Serif" font-size="14.00" fill="#000000">1 : Stator</text>
</g>
<!-- section_1&#45;&gt;header_2 -->
<g id="edge2" class="edge">
<title>section_1&#45;&gt;header_2</title>
<path fill="none" stroke="#000000" stroke-dasharray="5,2" d="M829.6636,-394.6713C791.6909,-383.9988 735.6046,-367.9664 687,-353.0002 683.6828,-351.9787 680.2593,-350.9052 676.8185,-349.8122"/>
<polygon fill="#000000" stroke="#000000" points="677.7415,-346.4326 667.1503,-346.7075 675.6013,-353.0974 677.7415,-346.4326"/>
</g>
<!-- prose_3 -->
<g id="node4" class="node">
<title>prose_3</title>
<ellipse fill="none" stroke="#000000" cx="728" cy="-335.0002" rx="32.4585" ry="18"/>
<text text-anchor="middle" x="728" y="-330.8002" font-family="Helvetica,sans-Serif" font-size="14.00" fill="#000000">prose</text>
</g>
<!-- section_1&#45;&gt;prose_3 -->
<g id="edge3" class="edge">
<title>section_1&#45;&gt;prose_3</title>
<path fill="none" stroke="#000000" stroke-dasharray="5,2" d="M842.6793,-391.5543C818.8612,-379.8084 786.1407,-363.6723 761.7451,-351.6416"/>
<polygon fill="#000000" stroke="#000000" points="763.0272,-348.3714 752.5104,-347.0875 759.9311,-354.6495 763.0272,-348.3714"/>
</g>
<!-- prose_4 -->
<g id="node5" class="node">
<title>prose_4</title>
<ellipse fill="none" stroke="#000000" cx="810" cy="-335.0002" rx="32.4585" ry="18"/>
<text text-anchor="middle" x="810" y="-330.8002" font-family="Helvetica,sans-Serif" font-size="14.00" fill="#000000">prose</text>
</g>
<!-- section_1&#45;&gt;prose_4 -->
<g id="edge4" class="edge">
<title>section_1&#45;&gt;prose_4</title>
<path fill="none" stroke="#000000" stroke-dasharray="5,2" d="M858.5074,-389.571C850.334,-380.3759 840.1821,-368.955 831.2811,-358.9414"/>
<polygon fill="#000000" stroke="#000000" points="833.7322,-356.4307 824.4726,-351.2818 828.5003,-361.0812 833.7322,-356.4307"/>
</g>
<!-- codeblock_5 -->
<g id="node6" class="node">
<title>codeblock_5</title>
<ellipse fill="none" stroke="#000000" cx="938" cy="-335.0002" rx="77.4211" ry="18"/>
<text text-anchor="middle" x="938" y="-330.8002" font-family="Helvetica,sans-Serif" font-size="14.00" fill="#000000">code block 13&#45;15</text>
</g>
<!-- section_1&#45;&gt;codeblock_5 -->
<g id="edge5" class="edge">
<title>section_1&#45;&gt;codeblock_5</title>
<path fill="none" stroke="#000000" stroke-dasharray="5,2" d="M889.4926,-389.571C897.2383,-380.8571 906.7608,-370.1443 915.3116,-360.5246"/>
<polygon fill="#000000" stroke="#000000" points="918.1777,-362.5684 922.2054,-352.769 912.9458,-357.9179 918.1777,-362.5684"/>
</g>
<!-- section_6 -->
<g id="node7" class="node">
<title>section_6</title>
<ellipse fill="none" stroke="#000000" cx="1229" cy="-335.0002" rx="65.8187" ry="18"/>
<text text-anchor="middle" x="1229" y="-330.8002" font-family="Helvetica,sans-Serif" font-size="14.00" fill="#000000">section: 18&#45;32</text>
</g>
<!-- section_1&#45;&gt;section_6 -->
<g id="edge6" class="edge">
<title>section_1&#45;&gt;section_6</title>
<path fill="none" stroke="#000000" stroke-dasharray="5,2" d="M924.4858,-396.7608C988.0701,-383.8648 1097.3188,-361.7073 1166.2198,-347.733"/>
<polygon fill="#000000" stroke="#000000" points="1166.9778,-351.1507 1176.0825,-345.7327 1165.5863,-344.2903 1166.9778,-351.1507"/>
</g>
<!-- section_7 -->
<g id="node8" class="node">
<title>section_7</title>
<ellipse fill="none" stroke="#000000" cx="2393" cy="-335.0002" rx="65.8187" ry="18"/>
<text text-anchor="middle" x="2393" y="-330.8002" font-family="Helvetica,sans-Serif" font-size="14.00" fill="#000000">section: 33&#45;49</text>
</g>
<!-- section_1&#45;&gt;section_7 -->
<g id="edge7" class="edge">
<title>section_1&#45;&gt;section_7</title>
<path fill="none" stroke="#000000" stroke-dasharray="5,2" d="M934.0145,-404.1555C1172.6201,-392.8457 2053.88,-351.0743 2317.8221,-338.5636"/>
<polygon fill="#000000" stroke="#000000" points="2318.244,-342.0476 2328.0671,-338.078 2317.9126,-335.0554 2318.244,-342.0476"/>
</g>
<!-- leaf_8 -->
<g id="node9" class="node">
<title>leaf_8</title>
<polygon fill="none" stroke="#c0c0c0" points="668,-281.0002 596,-281.0002 596,-245.0002 668,-245.0002 668,-281.0002"/>
<text text-anchor="middle" x="632" y="-259.5002" font-family="Inconsolata" font-size="14.00" fill="#000000">* Stator</text>
</g>
<!-- header_2&#45;&gt;leaf_8 -->
<g id="edge8" class="edge">
<title>header_2&#45;&gt;leaf_8</title>
<path fill="none" stroke="#000000" stroke-dasharray="5,2" d="M632,-316.8315C632,-309.1311 632,-299.9745 632,-291.4168"/>
<polygon fill="#000000" stroke="#000000" points="635.5001,-291.4134 632,-281.4134 628.5001,-291.4135 635.5001,-291.4134"/>
</g>
<!-- raw_9 -->
<g id="node10" class="node">
<title>raw_9</title>
<ellipse fill="none" stroke="#000000" cx="721" cy="-263.0002" rx="27" ry="18"/>
<text text-anchor="middle" x="721" y="-258.8002" font-family="Helvetica,sans-Serif" font-size="14.00" fill="#000000">raw</text>
</g>
<!-- prose_3&#45;&gt;raw_9 -->
<g id="edge9" class="edge">
<title>prose_3&#45;&gt;raw_9</title>
<path fill="none" stroke="#000000" stroke-dasharray="5,2" d="M726.2336,-316.8315C725.485,-309.1311 724.5947,-299.9745 723.7627,-291.4168"/>
<polygon fill="#000000" stroke="#000000" points="727.2415,-291.0278 722.7902,-281.4134 720.2744,-291.7052 727.2415,-291.0278"/>
</g>
<!-- raw_11 -->
<g id="node12" class="node">
<title>raw_11</title>
<ellipse fill="none" stroke="#000000" cx="804" cy="-263.0002" rx="27" ry="18"/>
<text text-anchor="middle" x="804" y="-258.8002" font-family="Helvetica,sans-Serif" font-size="14.00" fill="#000000">raw</text>
</g>
<!-- prose_4&#45;&gt;raw_11 -->
<g id="edge11" class="edge">
<title>prose_4&#45;&gt;raw_11</title>
<path fill="none" stroke="#000000" stroke-dasharray="5,2" d="M808.4859,-316.8315C807.8442,-309.1311 807.0812,-299.9745 806.3681,-291.4168"/>
<polygon fill="#000000" stroke="#000000" points="809.8529,-291.0882 805.5344,-281.4134 802.8771,-291.6696 809.8529,-291.0882"/>
</g>
<!-- leaf_13 -->
<g id="node14" class="node">
<title>leaf_13</title>
<polygon fill="none" stroke="#c0c0c0" points="1023,-281.0002 853,-281.0002 853,-245.0002 1023,-245.0002 1023,-281.0002"/>
<text text-anchor="middle" x="938" y="-259.5002" font-family="Inconsolata" font-size="14.00" fill="#000000">local Stator = meta {}</text>
</g>
<!-- codeblock_5&#45;&gt;leaf_13 -->
<g id="edge13" class="edge">
<title>codeblock_5&#45;&gt;leaf_13</title>
<path fill="none" stroke="#000000" stroke-dasharray="5,2" d="M938,-316.8315C938,-309.1311 938,-299.9745 938,-291.4168"/>
<polygon fill="#000000" stroke="#000000" points="941.5001,-291.4134 938,-281.4134 934.5001,-291.4135 941.5001,-291.4134"/>
</g>
<!-- header_14 -->
<g id="node15" class="node">
<title>header_14</title>
<ellipse fill="none" stroke="#000000" cx="1111" cy="-263.0002" rx="68.2066" ry="18"/>
<text text-anchor="middle" x="1111" y="-258.8002" font-family="Helvetica,sans-Serif" font-size="14.00" fill="#000000">2 : Constructor</text>
</g>
<!-- section_6&#45;&gt;header_14 -->
<g id="edge14" class="edge">
<title>section_6&#45;&gt;header_14</title>
<path fill="none" stroke="#000000" stroke-dasharray="5,2" d="M1201.9284,-318.4819C1185.7046,-308.5826 1164.8715,-295.8709 1147.2407,-285.1131"/>
<polygon fill="#000000" stroke="#000000" points="1148.7137,-281.9118 1138.3542,-279.6909 1145.0676,-287.8873 1148.7137,-281.9118"/>
</g>
<!-- prose_15 -->
<g id="node16" class="node">
<title>prose_15</title>
<ellipse fill="none" stroke="#000000" cx="1229" cy="-263.0002" rx="32.4585" ry="18"/>
<text text-anchor="middle" x="1229" y="-258.8002" font-family="Helvetica,sans-Serif" font-size="14.00" fill="#000000">prose</text>
</g>
<!-- section_6&#45;&gt;prose_15 -->
<g id="edge15" class="edge">
<title>section_6&#45;&gt;prose_15</title>
<path fill="none" stroke="#000000" stroke-dasharray="5,2" d="M1229,-316.8315C1229,-309.1311 1229,-299.9745 1229,-291.4168"/>
<polygon fill="#000000" stroke="#000000" points="1232.5001,-291.4134 1229,-281.4134 1225.5001,-291.4135 1232.5001,-291.4134"/>
</g>
<!-- prose_16 -->
<g id="node17" class="node">
<title>prose_16</title>
<ellipse fill="none" stroke="#000000" cx="1311" cy="-263.0002" rx="32.4585" ry="18"/>
<text text-anchor="middle" x="1311" y="-258.8002" font-family="Helvetica,sans-Serif" font-size="14.00" fill="#000000">prose</text>
</g>
<!-- section_6&#45;&gt;prose_16 -->
<g id="edge16" class="edge">
<title>section_6&#45;&gt;prose_16</title>
<path fill="none" stroke="#000000" stroke-dasharray="5,2" d="M1248.8499,-317.571C1259.9412,-307.8323 1273.8761,-295.5967 1285.7387,-285.1808"/>
<polygon fill="#000000" stroke="#000000" points="1288.3546,-287.5416 1293.5597,-278.3136 1283.736,-282.2816 1288.3546,-287.5416"/>
</g>
<!-- codeblock_17 -->
<g id="node18" class="node">
<title>codeblock_17</title>
<ellipse fill="none" stroke="#000000" cx="1506" cy="-263.0002" rx="77.4211" ry="18"/>
<text text-anchor="middle" x="1506" y="-258.8002" font-family="Helvetica,sans-Serif" font-size="14.00" fill="#000000">code block 26&#45;30</text>
</g>
<!-- section_6&#45;&gt;codeblock_17 -->
<g id="edge17" class="edge">
<title>section_6&#45;&gt;codeblock_17</title>
<path fill="none" stroke="#000000" stroke-dasharray="5,2" d="M1276.9335,-322.5409C1323.242,-310.504 1393.6053,-292.2147 1444.1227,-279.0838"/>
<polygon fill="#000000" stroke="#000000" points="1445.1507,-282.433 1453.9486,-276.5298 1443.3897,-275.6581 1445.1507,-282.433"/>
</g>
<!-- header_24 -->
<g id="node25" class="node">
<title>header_24</title>
<ellipse fill="none" stroke="#000000" cx="2087" cy="-263.0002" rx="40.1749" ry="18"/>
<text text-anchor="middle" x="2087" y="-258.8002" font-family="Helvetica,sans-Serif" font-size="14.00" fill="#000000">2 : New</text>
</g>
<!-- section_7&#45;&gt;header_24 -->
<g id="edge24" class="edge">
<title>section_7&#45;&gt;header_24</title>
<path fill="none" stroke="#000000" stroke-dasharray="5,2" d="M2343.1548,-323.2719C2284.9628,-309.5796 2189.5059,-287.1192 2133.0122,-273.8266"/>
<polygon fill="#000000" stroke="#000000" points="2133.4707,-270.3389 2122.9348,-271.4554 2131.8673,-277.1528 2133.4707,-270.3389"/>
</g>
<!-- prose_25 -->
<g id="node26" class="node">
<title>prose_25</title>
<ellipse fill="none" stroke="#000000" cx="2393" cy="-263.0002" rx="32.4585" ry="18"/>
<text text-anchor="middle" x="2393" y="-258.8002" font-family="Helvetica,sans-Serif" font-size="14.00" fill="#000000">prose</text>
</g>
<!-- section_7&#45;&gt;prose_25 -->
<g id="edge25" class="edge">
<title>section_7&#45;&gt;prose_25</title>
<path fill="none" stroke="#000000" stroke-dasharray="5,2" d="M2393,-316.8315C2393,-309.1311 2393,-299.9745 2393,-291.4168"/>
<polygon fill="#000000" stroke="#000000" points="2396.5001,-291.4134 2393,-281.4134 2389.5001,-291.4135 2396.5001,-291.4134"/>
</g>
<!-- codeblock_26 -->
<g id="node27" class="node">
<title>codeblock_26</title>
<ellipse fill="none" stroke="#000000" cx="2799" cy="-263.0002" rx="77.4211" ry="18"/>
<text text-anchor="middle" x="2799" y="-258.8002" font-family="Helvetica,sans-Serif" font-size="14.00" fill="#000000">code block 38&#45;44</text>
</g>
<!-- section_7&#45;&gt;codeblock_26 -->
<g id="edge26" class="edge">
<title>section_7&#45;&gt;codeblock_26</title>
<path fill="none" stroke="#000000" stroke-dasharray="5,2" d="M2448.1775,-325.215C2520.5335,-312.3834 2647.6138,-289.847 2727.3379,-275.7087"/>
<polygon fill="#000000" stroke="#000000" points="2728.0642,-279.1346 2737.2994,-273.9421 2726.8419,-272.2421 2728.0642,-279.1346"/>
</g>
<!-- codeblock_27 -->
<g id="node28" class="node">
<title>codeblock_27</title>
<ellipse fill="none" stroke="#000000" cx="3215" cy="-263.0002" rx="77.4211" ry="18"/>
<text text-anchor="middle" x="3215" y="-258.8002" font-family="Helvetica,sans-Serif" font-size="14.00" fill="#000000">code block 47&#45;49</text>
</g>
<!-- section_7&#45;&gt;codeblock_27 -->
<g id="edge27" class="edge">
<title>section_7&#45;&gt;codeblock_27</title>
<path fill="none" stroke="#000000" stroke-dasharray="5,2" d="M2455.7968,-329.4997C2602.4711,-316.6523 2967.5778,-284.6722 3132.1915,-270.2535"/>
<polygon fill="#000000" stroke="#000000" points="3132.6072,-273.7305 3142.2637,-269.3712 3131.9964,-266.7572 3132.6072,-273.7305"/>
</g>
<!-- leaf_10 -->
<g id="node11" class="node">
<title>leaf_10</title>
<polygon fill="none" stroke="#c0c0c0" points="534,-209.1004 0,-209.1004 0,-106.6998 534,-106.6998 534,-209.1004"/>
<text text-anchor="middle" x="267" y="-145.8002" font-family="Inconsolata" font-size="14.00" fill="#000000"> &#160;Having gotten about as far as I can with mere string concatenation, it&#39;s</text>
<text text-anchor="middle" x="267" y="-130.4001" font-family="Inconsolata" font-size="14.00" fill="#000000">time to put together a proper set of operations for transducing across a</text>
<text text-anchor="middle" x="267" y="-115.0001" font-family="Inconsolata" font-size="14.00" fill="#000000">Node.</text>
</g>
<!-- raw_9&#45;&gt;leaf_10 -->
<g id="edge10" class="edge">
<title>raw_9&#45;&gt;leaf_10</title>
<path fill="none" stroke="#000000" stroke-dasharray="5,2" d="M698.4455,-252.8685C691.6446,-250.0609 684.0989,-247.1869 677,-245.0002 634.4814,-231.9024 588.8867,-220.0929 544.1102,-209.7033"/>
<polygon fill="#000000" stroke="#000000" points="544.7986,-206.2703 534.2684,-207.4393 543.2292,-213.0922 544.7986,-206.2703"/>
</g>
<!-- leaf_12 -->
<g id="node13" class="node">
<title>leaf_12</title>
<polygon fill="none" stroke="#c0c0c0" points="1051.5,-185.2005 552.5,-185.2005 552.5,-130.5997 1051.5,-130.5997 1051.5,-185.2005"/>
<text text-anchor="middle" x="802" y="-154.1001" font-family="Inconsolata" font-size="14.00" fill="#000000">This isn&#39;t a great place to put theory, let&#39;s build the structure and</text>
<text text-anchor="middle" x="802" y="-138.7001" font-family="Inconsolata" font-size="14.00" fill="#000000">flesh out from there.</text>
</g>
<!-- raw_11&#45;&gt;leaf_12 -->
<g id="edge12" class="edge">
<title>raw_11&#45;&gt;leaf_12</title>
<path fill="none" stroke="#000000" stroke-dasharray="5,2" d="M803.6516,-244.6931C803.394,-231.1534 803.0341,-212.2419 802.716,-195.5269"/>
<polygon fill="#000000" stroke="#000000" points="806.2144,-195.4026 802.5247,-185.471 799.2157,-195.5358 806.2144,-195.4026"/>
</g>
<!-- leaf_18 -->
<g id="node19" class="node">
<title>leaf_18</title>
<polygon fill="none" stroke="#c0c0c0" points="1184,-175.9001 1070,-175.9001 1070,-139.9001 1184,-139.9001 1184,-175.9001"/>
<text text-anchor="middle" x="1127" y="-154.4001" font-family="Inconsolata" font-size="14.00" fill="#000000">** Constructor</text>
</g>
<!-- header_14&#45;&gt;leaf_18 -->
<g id="edge18" class="edge">
<title>header_14&#45;&gt;leaf_18</title>
<path fill="none" stroke="#000000" stroke-dasharray="5,2" d="M1113.787,-244.6931C1116.2534,-228.4922 1119.8906,-204.6002 1122.7248,-185.9829"/>
<polygon fill="#000000" stroke="#000000" points="1126.2,-186.4102 1124.245,-175.9974 1119.2797,-185.3567 1126.2,-186.4102"/>
</g>
<!-- raw_19 -->
<g id="node20" class="node">
<title>raw_19</title>
<ellipse fill="none" stroke="#000000" cx="1229" cy="-157.9001" rx="27" ry="18"/>
<text text-anchor="middle" x="1229" y="-153.7001" font-family="Helvetica,sans-Serif" font-size="14.00" fill="#000000">raw</text>
</g>
<!-- prose_15&#45;&gt;raw_19 -->
<g id="edge19" class="edge">
<title>prose_15&#45;&gt;raw_19</title>
<path fill="none" stroke="#000000" stroke-dasharray="5,2" d="M1229,-244.6931C1229,-228.5675 1229,-204.8223 1229,-186.243"/>
<polygon fill="#000000" stroke="#000000" points="1232.5001,-185.9973 1229,-175.9974 1225.5001,-185.9974 1232.5001,-185.9973"/>
</g>
<!-- raw_21 -->
<g id="node22" class="node">
<title>raw_21</title>
<ellipse fill="none" stroke="#000000" cx="1306" cy="-157.9001" rx="27" ry="18"/>
<text text-anchor="middle" x="1306" y="-153.7001" font-family="Helvetica,sans-Serif" font-size="14.00" fill="#000000">raw</text>
</g>
<!-- prose_16&#45;&gt;raw_21 -->
<g id="edge21" class="edge">
<title>prose_16&#45;&gt;raw_21</title>
<path fill="none" stroke="#000000" stroke-dasharray="5,2" d="M1310.1291,-244.6931C1309.3619,-228.5675 1308.2323,-204.8223 1307.3484,-186.243"/>
<polygon fill="#000000" stroke="#000000" points="1310.8323,-185.8197 1306.861,-175.9974 1303.8402,-186.1524 1310.8323,-185.8197"/>
</g>
<!-- leaf_23 -->
<g id="node24" class="node">
<title>leaf_23</title>
<polygon fill="none" stroke="#c0c0c0" points="1794.5,-185.1006 1351.5,-185.1006 1351.5,-130.6996 1794.5,-130.6996 1794.5,-185.1006"/>
<text text-anchor="middle" x="1573" y="-169.8002" font-family="Inconsolata" font-size="14.00" fill="#000000">local function call(stator)</text>
<text text-anchor="middle" x="1573" y="-154.4001" font-family="Inconsolata" font-size="14.00" fill="#000000"> &#160;return setmetatable({}, {__index = stator, __call = call })</text>
<text text-anchor="middle" x="1573" y="-139.0001" font-family="Inconsolata" font-size="14.00" fill="#000000">end</text>
</g>
<!-- codeblock_17&#45;&gt;leaf_23 -->
<g id="edge23" class="edge">
<title>codeblock_17&#45;&gt;leaf_23</title>
<path fill="none" stroke="#000000" stroke-dasharray="5,2" d="M1517.3656,-245.1714C1526.2676,-231.2072 1538.944,-211.3222 1549.9488,-194.0596"/>
<polygon fill="#000000" stroke="#000000" points="1553.0981,-195.6304 1555.5223,-185.3166 1547.1954,-191.8675 1553.0981,-195.6304"/>
</g>
<!-- leaf_20 -->
<g id="node21" class="node">
<title>leaf_20</title>
<polygon fill="none" stroke="#c0c0c0" points="1048.5,-70.7004 535.5,-70.7004 535.5,-.0997 1048.5,-.0997 1048.5,-70.7004"/>
<text text-anchor="middle" x="792" y="-23.6001" font-family="Inconsolata" font-size="14.00" fill="#000000">We set up a new stator on each Node we&#39;re transducing, so we want it to</text>
<text text-anchor="middle" x="792" y="-8.2" font-family="Inconsolata" font-size="14.00" fill="#000000">be quick and cheap.</text>
</g>
<!-- raw_19&#45;&gt;leaf_20 -->
<g id="edge20" class="edge">
<title>raw_19&#45;&gt;leaf_20</title>
<path fill="none" stroke="#000000" stroke-dasharray="5,2" d="M1221.1587,-140.4621C1215.1093,-129.06 1205.6353,-114.839 1193,-106.8001 1178.2383,-97.4082 1114.9566,-84.6067 1042.8771,-72.4356"/>
<polygon fill="#000000" stroke="#000000" points="1043.0929,-68.923 1032.6521,-70.7228 1041.9364,-75.8268 1043.0929,-68.923"/>
</g>
<!-- leaf_22 -->
<g id="node23" class="node">
<title>leaf_22</title>
<polygon fill="none" stroke="#c0c0c0" points="1545,-62.7005 1067,-62.7005 1067,-8.0996 1545,-8.0996 1545,-62.7005"/>
<text text-anchor="middle" x="1306" y="-31.6001" font-family="Inconsolata" font-size="14.00" fill="#000000">I recommend either lifting this method or providing an override if</text>
<text text-anchor="middle" x="1306" y="-16.2" font-family="Inconsolata" font-size="14.00" fill="#000000">subclassing Stator.</text>
</g>
<!-- raw_21&#45;&gt;leaf_22 -->
<g id="edge22" class="edge">
<title>raw_21&#45;&gt;leaf_22</title>
<path fill="none" stroke="#000000" stroke-dasharray="5,2" d="M1306,-139.8248C1306,-122.3586 1306,-95.3622 1306,-73.1943"/>
<polygon fill="#000000" stroke="#000000" points="1309.5001,-73.0824 1306,-63.0824 1302.5001,-73.0824 1309.5001,-73.0824"/>
</g>
<!-- leaf_28 -->
<g id="node29" class="node">
<title>leaf_28</title>
<polygon fill="none" stroke="#c0c0c0" points="1946,-175.9001 1892,-175.9001 1892,-139.9001 1946,-139.9001 1946,-175.9001"/>
<text text-anchor="middle" x="1919" y="-154.4001" font-family="Inconsolata" font-size="14.00" fill="#000000">* New</text>
</g>
<!-- header_24&#45;&gt;leaf_28 -->
<g id="edge28" class="edge">
<title>header_24&#45;&gt;leaf_28</title>
<path fill="none" stroke="#000000" stroke-dasharray="5,2" d="M2051.6465,-254.4682C2023.3016,-246.314 1983.6619,-231.8333 1955,-209.0002 1946.6845,-202.3757 1939.4612,-193.3378 1933.7121,-184.7038"/>
<polygon fill="#000000" stroke="#000000" points="1936.5294,-182.6069 1928.2705,-175.9705 1930.5883,-186.3087 1936.5294,-182.6069"/>
</g>
<!-- raw_29 -->
<g id="node30" class="node">
<title>raw_29</title>
<ellipse fill="none" stroke="#000000" cx="1991" cy="-157.9001" rx="27" ry="18"/>
<text text-anchor="middle" x="1991" y="-153.7001" font-family="Helvetica,sans-Serif" font-size="14.00" fill="#000000">raw</text>
</g>
<!-- prose_25&#45;&gt;raw_29 -->
<g id="edge29" class="edge">
<title>prose_25&#45;&gt;raw_29</title>
<path fill="none" stroke="#000000" stroke-dasharray="5,2" d="M2360.7374,-261.4721C2282.079,-257.2422 2082.7917,-243.3424 2027,-209.0002 2017.3353,-203.0511 2009.5592,-193.435 2003.7415,-184.1407"/>
<polygon fill="#000000" stroke="#000000" points="2006.7749,-182.3945 1998.766,-175.4584 2000.7014,-185.875 2006.7749,-182.3945"/>
</g>
<!-- prespace_30 -->
<g id="node31" class="node">
<title>prespace_30</title>
<ellipse fill="none" stroke="#000000" cx="2082" cy="-157.9001" rx="46.4736" ry="18"/>
<text text-anchor="middle" x="2082" y="-153.7001" font-family="Helvetica,sans-Serif" font-size="14.00" fill="#000000">prespace</text>
</g>
<!-- prose_25&#45;&gt;prespace_30 -->
<g id="edge30" class="edge">
<title>prose_25&#45;&gt;prespace_30</title>
<path fill="none" stroke="#000000" stroke-dasharray="5,2" d="M2360.5927,-261.5556C2310.3234,-258.1594 2211.6753,-246.813 2138,-209.0002 2125.2496,-202.4562 2113.2142,-192.2339 2103.5924,-182.6464"/>
<polygon fill="#000000" stroke="#000000" points="2105.8744,-179.9694 2096.4259,-175.176 2100.8229,-184.8153 2105.8744,-179.9694"/>
</g>
<!-- literal_31 -->
<g id="node32" class="node">
<title>literal_31</title>
<ellipse fill="none" stroke="#000000" cx="2178" cy="-157.9001" rx="31.481" ry="18"/>
<text text-anchor="middle" x="2178" y="-153.7001" font-family="Helvetica,sans-Serif" font-size="14.00" fill="#000000">literal</text>
</g>
<!-- prose_25&#45;&gt;literal_31 -->
<g id="edge31" class="edge">
<title>prose_25&#45;&gt;literal_31</title>
<path fill="none" stroke="#000000" stroke-dasharray="5,2" d="M2361.4379,-259.0873C2324.348,-253.2454 2262.2585,-239.4726 2218,-209.0002 2208.4363,-202.4154 2200.09,-192.8504 2193.5309,-183.772"/>
<polygon fill="#000000" stroke="#000000" points="2196.3167,-181.6439 2187.8085,-175.3303 2190.5224,-185.5716 2196.3167,-181.6439"/>
</g>
<!-- raw_32 -->
<g id="node33" class="node">
<title>raw_32</title>
<ellipse fill="none" stroke="#000000" cx="2254" cy="-157.9001" rx="27" ry="18"/>
<text text-anchor="middle" x="2254" y="-153.7001" font-family="Helvetica,sans-Serif" font-size="14.00" fill="#000000">raw</text>
</g>
<!-- prose_25&#45;&gt;raw_32 -->
<g id="edge32" class="edge">
<title>prose_25&#45;&gt;raw_32</title>
<path fill="none" stroke="#000000" stroke-dasharray="5,2" d="M2365.914,-252.981C2343.7994,-243.8749 2312.6178,-228.8362 2290,-209.0002 2281.8003,-201.809 2274.4905,-192.3886 2268.6355,-183.5976"/>
<polygon fill="#000000" stroke="#000000" points="2271.5834,-181.7107 2263.2863,-175.1222 2265.6638,-185.4468 2271.5834,-181.7107"/>
</g>
<!-- prespace_33 -->
<g id="node34" class="node">
<title>prespace_33</title>
<ellipse fill="none" stroke="#000000" cx="2345" cy="-157.9001" rx="46.4736" ry="18"/>
<text text-anchor="middle" x="2345" y="-153.7001" font-family="Helvetica,sans-Serif" font-size="14.00" fill="#000000">prespace</text>
</g>
<!-- prose_25&#45;&gt;prespace_33 -->
<g id="edge33" class="edge">
<title>prose_25&#45;&gt;prespace_33</title>
<path fill="none" stroke="#000000" stroke-dasharray="5,2" d="M2384.8575,-245.1714C2377.341,-228.7136 2366.0686,-204.0317 2357.4275,-185.1113"/>
<polygon fill="#000000" stroke="#000000" points="2360.5206,-183.4586 2353.1825,-175.8164 2354.1532,-186.3666 2360.5206,-183.4586"/>
</g>
<!-- literal_34 -->
<g id="node35" class="node">
<title>literal_34</title>
<ellipse fill="none" stroke="#000000" cx="2441" cy="-157.9001" rx="31.481" ry="18"/>
<text text-anchor="middle" x="2441" y="-153.7001" font-family="Helvetica,sans-Serif" font-size="14.00" fill="#000000">literal</text>
</g>
<!-- prose_25&#45;&gt;literal_34 -->
<g id="edge34" class="edge">
<title>prose_25&#45;&gt;literal_34</title>
<path fill="none" stroke="#000000" stroke-dasharray="5,2" d="M2401.1425,-245.1714C2408.7045,-228.6138 2420.0681,-203.7322 2428.7293,-184.7679"/>
<polygon fill="#000000" stroke="#000000" points="2432.007,-186.0159 2432.9777,-175.4656 2425.6396,-183.1078 2432.007,-186.0159"/>
</g>
<!-- raw_35 -->
<g id="node36" class="node">
<title>raw_35</title>
<ellipse fill="none" stroke="#000000" cx="2517" cy="-157.9001" rx="27" ry="18"/>
<text text-anchor="middle" x="2517" y="-153.7001" font-family="Helvetica,sans-Serif" font-size="14.00" fill="#000000">raw</text>
</g>
<!-- prose_25&#45;&gt;raw_35 -->
<g id="edge35" class="edge">
<title>prose_25&#45;&gt;raw_35</title>
<path fill="none" stroke="#000000" stroke-dasharray="5,2" d="M2417.9858,-251.1796C2436.6882,-241.5425 2462.1794,-226.6646 2481,-209.0002 2488.9523,-201.5364 2496.209,-192.0574 2502.0907,-183.2958"/>
<polygon fill="#000000" stroke="#000000" points="2505.0389,-185.1822 2507.4889,-174.8745 2499.1457,-181.4045 2505.0389,-185.1822"/>
</g>
<!-- prespace_36 -->
<g id="node37" class="node">
<title>prespace_36</title>
<ellipse fill="none" stroke="#000000" cx="2608" cy="-157.9001" rx="46.4736" ry="18"/>
<text text-anchor="middle" x="2608" y="-153.7001" font-family="Helvetica,sans-Serif" font-size="14.00" fill="#000000">prespace</text>
</g>
<!-- prose_25&#45;&gt;prespace_36 -->
<g id="edge36" class="edge">
<title>prose_25&#45;&gt;prespace_36</title>
<path fill="none" stroke="#000000" stroke-dasharray="5,2" d="M2423.5233,-256.7628C2456.9842,-249.0279 2511.4373,-233.7492 2553,-209.0002 2565.0177,-201.8441 2576.6246,-191.7082 2586.0533,-182.3482"/>
<polygon fill="#000000" stroke="#000000" points="2588.6568,-184.6913 2593.1143,-175.0798 2583.6358,-179.8137 2588.6568,-184.6913"/>
</g>
<!-- literal_37 -->
<g id="node38" class="node">
<title>literal_37</title>
<ellipse fill="none" stroke="#000000" cx="2704" cy="-157.9001" rx="31.481" ry="18"/>
<text text-anchor="middle" x="2704" y="-153.7001" font-family="Helvetica,sans-Serif" font-size="14.00" fill="#000000">literal</text>
</g>
<!-- prose_25&#45;&gt;literal_37 -->
<g id="edge37" class="edge">
<title>prose_25&#45;&gt;literal_37</title>
<path fill="none" stroke="#000000" stroke-dasharray="5,2" d="M2424.8998,-259.3858C2487.3596,-251.8659 2623.1685,-233.203 2663,-209.0002 2673.2702,-202.7597 2682.0468,-192.9661 2688.8133,-183.6153"/>
<polygon fill="#000000" stroke="#000000" points="2691.7545,-185.5137 2694.4475,-175.2668 2685.9522,-181.5979 2691.7545,-185.5137"/>
</g>
<!-- raw_38 -->
<g id="node39" class="node">
<title>raw_38</title>
<ellipse fill="none" stroke="#000000" cx="2780" cy="-157.9001" rx="27" ry="18"/>
<text text-anchor="middle" x="2780" y="-153.7001" font-family="Helvetica,sans-Serif" font-size="14.00" fill="#000000">raw</text>
</g>
<!-- prose_25&#45;&gt;raw_38 -->
<g id="edge38" class="edge">
<title>prose_25&#45;&gt;raw_38</title>
<path fill="none" stroke="#000000" stroke-dasharray="5,2" d="M2425.3467,-261.2369C2501.7336,-256.57 2690.8745,-241.9274 2744,-209.0002 2753.6463,-203.0214 2761.419,-193.3998 2767.2392,-184.1095"/>
<polygon fill="#000000" stroke="#000000" points="2770.2764,-185.8487 2772.2185,-175.4334 2764.2052,-182.3644 2770.2764,-185.8487"/>
</g>
<!-- leaf_49 -->
<g id="node50" class="node">
<title>leaf_49</title>
<polygon fill="none" stroke="#c0c0c0" points="3233,-200.4003 2825,-200.4003 2825,-115.4 3233,-115.4 3233,-200.4003"/>
<text text-anchor="middle" x="3029" y="-185.2002" font-family="Inconsolata" font-size="14.00" fill="#000000">local function new(Stator)</text>
<text text-anchor="middle" x="3029" y="-169.8002" font-family="Inconsolata" font-size="14.00" fill="#000000"> &#160;local stator = call(Stator)</text>
<text text-anchor="middle" x="3029" y="-154.4001" font-family="Inconsolata" font-size="14.00" fill="#000000"> &#160;stator.g, stator.G, stator._G = stator, stator, stator</text>
<text text-anchor="middle" x="3029" y="-139.0001" font-family="Inconsolata" font-size="14.00" fill="#000000"> &#160;return stator</text>
<text text-anchor="middle" x="3029" y="-123.6001" font-family="Inconsolata" font-size="14.00" fill="#000000">end</text>
</g>
<!-- codeblock_26&#45;&gt;leaf_49 -->
<g id="edge49" class="edge">
<title>codeblock_26&#45;&gt;leaf_49</title>
<path fill="none" stroke="#000000" stroke-dasharray="5,2" d="M2834.1824,-246.9233C2858.9128,-235.6226 2893.3608,-219.8814 2926.4229,-204.7734"/>
<polygon fill="#000000" stroke="#000000" points="2928.0614,-207.8728 2935.7021,-200.5332 2925.152,-201.5061 2928.0614,-207.8728"/>
</g>
<!-- leaf_50 -->
<g id="node51" class="node">
<title>leaf_50</title>
<polygon fill="none" stroke="#c0c0c0" points="3568.5,-175.9001 3251.5,-175.9001 3251.5,-139.9001 3568.5,-139.9001 3568.5,-175.9001"/>
<text text-anchor="middle" x="3410" y="-154.4001" font-family="Inconsolata" font-size="14.00" fill="#000000">return setmetatable(Stator, {__call = new})</text>
</g>
<!-- codeblock_27&#45;&gt;leaf_50 -->
<g id="edge50" class="edge">
<title>codeblock_27&#45;&gt;leaf_50</title>
<path fill="none" stroke="#000000" stroke-dasharray="5,2" d="M3245.8983,-246.3467C3278.668,-228.6847 3330.6649,-200.6597 3367.3315,-180.8973"/>
<polygon fill="#000000" stroke="#000000" points="3369.16,-183.8879 3376.3022,-176.0623 3365.8388,-177.7259 3369.16,-183.8879"/>
</g>
<!-- leaf_39 -->
<g id="node40" class="node">
<title>leaf_39</title>
<polygon fill="none" stroke="#c0c0c0" points="2062.5,-70.7004 1563.5,-70.7004 1563.5,-.0997 2062.5,-.0997 2062.5,-70.7004"/>
<text text-anchor="middle" x="1813" y="-23.6001" font-family="Inconsolata" font-size="14.00" fill="#000000">The root Stator has a global context, which is itself. &#160;This is given</text>
<text text-anchor="middle" x="1813" y="-8.2" font-family="Inconsolata" font-size="14.00" fill="#000000">the synonyms</text>
</g>
<!-- raw_29&#45;&gt;leaf_39 -->
<g id="edge39" class="edge">
<title>raw_29&#45;&gt;leaf_39</title>
<path fill="none" stroke="#000000" stroke-dasharray="5,2" d="M1981.7688,-140.6146C1975.3611,-129.8508 1966.0139,-116.2951 1955,-106.8001 1941.3337,-95.0183 1925.3842,-84.5969 1909.2095,-75.6096"/>
<polygon fill="#000000" stroke="#000000" points="1910.6774,-72.4249 1900.2134,-70.7647 1907.3582,-78.588 1910.6774,-72.4249"/>
</g>
<!-- leaf_40 -->
<g id="node41" class="node">
<title>leaf_40</title>
<polygon fill="none" stroke="#c0c0c0" points="2135,-53.4 2081,-53.4 2081,-17.4 2135,-17.4 2135,-53.4"/>
<text text-anchor="middle" x="2108" y="-31.9" font-family="Inconsolata" font-size="14.00" fill="#000000"> </text>
</g>
<!-- prespace_30&#45;&gt;leaf_40 -->
<g id="edge40" class="edge">
<title>prespace_30&#45;&gt;leaf_40</title>
<path fill="none" stroke="#000000" stroke-dasharray="5,2" d="M2085.8364,-139.8248C2090.0992,-119.7402 2097.0368,-87.0536 2102.0151,-63.5982"/>
<polygon fill="#000000" stroke="#000000" points="2105.4953,-64.0583 2104.1479,-53.5495 2098.6479,-62.6049 2105.4953,-64.0583"/>
</g>
<!-- leaf_41 -->
<g id="node42" class="node">
<title>leaf_41</title>
<polygon fill="none" stroke="#c0c0c0" points="2207,-53.4 2153,-53.4 2153,-17.4 2207,-17.4 2207,-53.4"/>
<text text-anchor="middle" x="2180" y="-31.9" font-family="Inconsolata" font-size="14.00" fill="#000000">G</text>
</g>
<!-- literal_31&#45;&gt;leaf_41 -->
<g id="edge41" class="edge">
<title>literal_31&#45;&gt;leaf_41</title>
<path fill="none" stroke="#000000" stroke-dasharray="5,2" d="M2178.2951,-139.8248C2178.623,-119.7402 2179.1567,-87.0536 2179.5396,-63.5982"/>
<polygon fill="#000000" stroke="#000000" points="2183.0399,-63.6053 2179.7037,-53.5495 2176.0408,-63.491 2183.0399,-63.6053"/>
</g>
<!-- leaf_42 -->
<g id="node43" class="node">
<title>leaf_42</title>
<polygon fill="none" stroke="#c0c0c0" points="2281,-53.4 2227,-53.4 2227,-17.4 2281,-17.4 2281,-53.4"/>
<text text-anchor="middle" x="2254" y="-31.9" font-family="Inconsolata" font-size="14.00" fill="#000000">,</text>
</g>
<!-- raw_32&#45;&gt;leaf_42 -->
<g id="edge42" class="edge">
<title>raw_32&#45;&gt;leaf_42</title>
<path fill="none" stroke="#000000" stroke-dasharray="5,2" d="M2254,-139.8248C2254,-119.7402 2254,-87.0536 2254,-63.5982"/>
<polygon fill="#000000" stroke="#000000" points="2257.5001,-63.5495 2254,-53.5495 2250.5001,-63.5495 2257.5001,-63.5495"/>
</g>
<!-- leaf_43 -->
<g id="node44" class="node">
<title>leaf_43</title>
<polygon fill="none" stroke="#c0c0c0" points="2372,-53.4 2318,-53.4 2318,-17.4 2372,-17.4 2372,-53.4"/>
<text text-anchor="middle" x="2345" y="-31.9" font-family="Inconsolata" font-size="14.00" fill="#000000"> </text>
</g>
<!-- prespace_33&#45;&gt;leaf_43 -->
<g id="edge43" class="edge">
<title>prespace_33&#45;&gt;leaf_43</title>
<path fill="none" stroke="#000000" stroke-dasharray="5,2" d="M2345,-139.8248C2345,-119.7402 2345,-87.0536 2345,-63.5982"/>
<polygon fill="#000000" stroke="#000000" points="2348.5001,-63.5495 2345,-53.5495 2341.5001,-63.5495 2348.5001,-63.5495"/>
</g>
<!-- leaf_44 -->
<g id="node45" class="node">
<title>leaf_44</title>
<polygon fill="none" stroke="#c0c0c0" points="2468,-53.4 2414,-53.4 2414,-17.4 2468,-17.4 2468,-53.4"/>
<text text-anchor="middle" x="2441" y="-31.9" font-family="Inconsolata" font-size="14.00" fill="#000000">g</text>
</g>
<!-- literal_34&#45;&gt;leaf_44 -->
<g id="edge44" class="edge">
<title>literal_34&#45;&gt;leaf_44</title>
<path fill="none" stroke="#000000" stroke-dasharray="5,2" d="M2441,-139.8248C2441,-119.7402 2441,-87.0536 2441,-63.5982"/>
<polygon fill="#000000" stroke="#000000" points="2444.5001,-63.5495 2441,-53.5495 2437.5001,-63.5495 2444.5001,-63.5495"/>
</g>
<!-- leaf_45 -->
<g id="node46" class="node">
<title>leaf_45</title>
<polygon fill="none" stroke="#c0c0c0" points="2544,-53.4 2490,-53.4 2490,-17.4 2544,-17.4 2544,-53.4"/>
<text text-anchor="middle" x="2517" y="-31.9" font-family="Inconsolata" font-size="14.00" fill="#000000"> and</text>
</g>
<!-- raw_35&#45;&gt;leaf_45 -->
<g id="edge45" class="edge">
<title>raw_35&#45;&gt;leaf_45</title>
<path fill="none" stroke="#000000" stroke-dasharray="5,2" d="M2517,-139.8248C2517,-119.7402 2517,-87.0536 2517,-63.5982"/>
<polygon fill="#000000" stroke="#000000" points="2520.5001,-63.5495 2517,-53.5495 2513.5001,-63.5495 2520.5001,-63.5495"/>
</g>
<!-- leaf_46 -->
<g id="node47" class="node">
<title>leaf_46</title>
<polygon fill="none" stroke="#c0c0c0" points="2635,-53.4 2581,-53.4 2581,-17.4 2635,-17.4 2635,-53.4"/>
<text text-anchor="middle" x="2608" y="-31.9" font-family="Inconsolata" font-size="14.00" fill="#000000"> </text>
</g>
<!-- prespace_36&#45;&gt;leaf_46 -->
<g id="edge46" class="edge">
<title>prespace_36&#45;&gt;leaf_46</title>
<path fill="none" stroke="#000000" stroke-dasharray="5,2" d="M2608,-139.8248C2608,-119.7402 2608,-87.0536 2608,-63.5982"/>
<polygon fill="#000000" stroke="#000000" points="2611.5001,-63.5495 2608,-53.5495 2604.5001,-63.5495 2611.5001,-63.5495"/>
</g>
<!-- leaf_47 -->
<g id="node48" class="node">
<title>leaf_47</title>
<polygon fill="none" stroke="#c0c0c0" points="2719,-53.4 2665,-53.4 2665,-17.4 2719,-17.4 2719,-53.4"/>
<text text-anchor="middle" x="2692" y="-31.9" font-family="Inconsolata" font-size="14.00" fill="#000000">_G</text>
</g>
<!-- literal_37&#45;&gt;leaf_47 -->
<g id="edge47" class="edge">
<title>literal_37&#45;&gt;leaf_47</title>
<path fill="none" stroke="#000000" stroke-dasharray="5,2" d="M2702.2294,-139.8248C2700.2619,-119.7402 2697.0599,-87.0536 2694.7623,-63.5982"/>
<polygon fill="#000000" stroke="#000000" points="2698.2362,-63.1606 2693.7779,-53.5495 2691.2696,-63.8431 2698.2362,-63.1606"/>
</g>
<!-- leaf_48 -->
<g id="node49" class="node">
<title>leaf_48</title>
<polygon fill="none" stroke="#c0c0c0" points="2928.5,-53.4 2737.5,-53.4 2737.5,-17.4 2928.5,-17.4 2928.5,-53.4"/>
<text text-anchor="middle" x="2833" y="-31.9" font-family="Inconsolata" font-size="14.00" fill="#000000">, to suit various styles.</text>
</g>
<!-- raw_38&#45;&gt;leaf_48 -->
<g id="edge48" class="edge">
<title>raw_38&#45;&gt;leaf_48</title>
<path fill="none" stroke="#000000" stroke-dasharray="5,2" d="M2787.5936,-140.3488C2796.3482,-120.1141 2810.8471,-86.6026 2821.103,-62.8979"/>
<polygon fill="#000000" stroke="#000000" points="2824.3157,-64.2865 2825.0743,-53.7188 2817.8912,-61.5069 2824.3157,-64.2865"/>
</g>
</g>
</svg>
