<?xml version="1.0" encoding="UTF-8" standalone="no"?>
<!DOCTYPE svg PUBLIC "-//W3C//DTD SVG 1.1//EN"
 "http://www.w3.org/Graphics/SVG/1.1/DTD/svg11.dtd">
<!-- Generated by graphviz version 2.40.1 (20161225.0304)
 -->
<!-- Title: lpegNode Pages: 1 -->
<svg width="3679pt" height="505pt"
 viewBox="0.00 0.00 3678.50 505.00" xmlns="http://www.w3.org/2000/svg" xmlns:xlink="http://www.w3.org/1999/xlink">
<g id="graph0" class="graph" transform="scale(1 1) rotate(0) translate(4 501.0002)">
<title>lpegNode</title>
<polygon fill="#ffffff" stroke="transparent" points="-4,4 -4,-501.0002 3674.5,-501.0002 3674.5,4 -4,4"/>
<!-- doc_0 -->
<g id="node1" class="node">
<title>doc_0</title>
<ellipse fill="none" stroke="#000000" cx="835" cy="-479.0002" rx="42.1216" ry="18"/>
<text text-anchor="middle" x="835" y="-474.8002" font-family="Helvetica,sans-Serif" font-size="14.00" fill="#000000">doc &#45; 47</text>
</g>
<!-- section_1 -->
<g id="node2" class="node">
<title>section_1</title>
<ellipse fill="none" stroke="#000000" cx="835" cy="-407.0002" rx="60.9826" ry="18"/>
<text text-anchor="middle" x="835" y="-402.8002" font-family="Helvetica,sans-Serif" font-size="14.00" fill="#000000">section: 1&#45;30</text>
</g>
<!-- doc_0&#45;&gt;section_1 -->
<g id="edge1" class="edge">
<title>doc_0&#45;&gt;section_1</title>
<path fill="none" stroke="#000000" stroke-dasharray="5,2" d="M835,-460.8315C835,-453.1311 835,-443.9745 835,-435.4168"/>
<polygon fill="#000000" stroke="#000000" points="838.5001,-435.4134 835,-425.4134 831.5001,-435.4135 838.5001,-435.4134"/>
</g>
<!-- header_2 -->
<g id="node3" class="node">
<title>header_2</title>
<ellipse fill="none" stroke="#000000" cx="564" cy="-335.0002" rx="45.9804" ry="18"/>
<text text-anchor="middle" x="564" y="-330.8002" font-family="Helvetica,sans-Serif" font-size="14.00" fill="#000000">1 : Stator</text>
</g>
<!-- section_1&#45;&gt;header_2 -->
<g id="edge2" class="edge">
<title>section_1&#45;&gt;header_2</title>
<path fill="none" stroke="#000000" stroke-dasharray="5,2" d="M789.6407,-394.949C740.4435,-381.8781 662.2318,-361.0986 612.0181,-347.7577"/>
<polygon fill="#000000" stroke="#000000" points="612.6206,-344.2965 602.0572,-345.1113 610.8232,-351.0618 612.6206,-344.2965"/>
</g>
<!-- prose_3 -->
<g id="node4" class="node">
<title>prose_3</title>
<ellipse fill="none" stroke="#000000" cx="680" cy="-335.0002" rx="32.4585" ry="18"/>
<text text-anchor="middle" x="680" y="-330.8002" font-family="Helvetica,sans-Serif" font-size="14.00" fill="#000000">prose</text>
</g>
<!-- section_1&#45;&gt;prose_3 -->
<g id="edge3" class="edge">
<title>section_1&#45;&gt;prose_3</title>
<path fill="none" stroke="#000000" stroke-dasharray="5,2" d="M802.1285,-391.7308C776.3271,-379.7457 740.5148,-363.1102 714.3426,-350.9529"/>
<polygon fill="#000000" stroke="#000000" points="715.7166,-347.732 705.1728,-346.6933 712.7676,-354.0805 715.7166,-347.732"/>
</g>
<!-- prose_4 -->
<g id="node5" class="node">
<title>prose_4</title>
<ellipse fill="none" stroke="#000000" cx="772" cy="-335.0002" rx="32.4585" ry="18"/>
<text text-anchor="middle" x="772" y="-330.8002" font-family="Helvetica,sans-Serif" font-size="14.00" fill="#000000">prose</text>
</g>
<!-- section_1&#45;&gt;prose_4 -->
<g id="edge4" class="edge">
<title>section_1&#45;&gt;prose_4</title>
<path fill="none" stroke="#000000" stroke-dasharray="5,2" d="M819.7495,-389.571C811.7038,-380.3759 801.7105,-368.955 792.9486,-358.9414"/>
<polygon fill="#000000" stroke="#000000" points="795.4656,-356.5029 786.2465,-351.2818 790.1975,-361.1124 795.4656,-356.5029"/>
</g>
<!-- codeblock_5 -->
<g id="node6" class="node">
<title>codeblock_5</title>
<ellipse fill="none" stroke="#000000" cx="904" cy="-335.0002" rx="76.6175" ry="18"/>
<text text-anchor="middle" x="904" y="-330.8002" font-family="Helvetica,sans-Serif" font-size="14.00" fill="#000000">code block 11&#45;13</text>
</g>
<!-- section_1&#45;&gt;codeblock_5 -->
<g id="edge5" class="edge">
<title>section_1&#45;&gt;codeblock_5</title>
<path fill="none" stroke="#000000" stroke-dasharray="5,2" d="M851.703,-389.571C860.1373,-380.77 870.5257,-369.9298 879.8153,-360.2363"/>
<polygon fill="#000000" stroke="#000000" points="882.5794,-362.4106 886.9715,-352.769 877.5254,-357.5673 882.5794,-362.4106"/>
</g>
<!-- section_6 -->
<g id="node7" class="node">
<title>section_6</title>
<ellipse fill="none" stroke="#000000" cx="1335" cy="-335.0002" rx="65.8187" ry="18"/>
<text text-anchor="middle" x="1335" y="-330.8002" font-family="Helvetica,sans-Serif" font-size="14.00" fill="#000000">section: 16&#45;30</text>
</g>
<!-- section_1&#45;&gt;section_6 -->
<g id="edge6" class="edge">
<title>section_1&#45;&gt;section_6</title>
<path fill="none" stroke="#000000" stroke-dasharray="5,2" d="M889.939,-399.0889C981.7894,-385.8625 1166.2975,-359.2933 1266.4839,-344.8665"/>
<polygon fill="#000000" stroke="#000000" points="1267.1015,-348.3137 1276.5006,-343.4241 1266.1038,-341.3852 1267.1015,-348.3137"/>
</g>
<!-- section_7 -->
<g id="node8" class="node">
<title>section_7</title>
<ellipse fill="none" stroke="#000000" cx="2495" cy="-335.0002" rx="65.8187" ry="18"/>
<text text-anchor="middle" x="2495" y="-330.8002" font-family="Helvetica,sans-Serif" font-size="14.00" fill="#000000">section: 31&#45;47</text>
</g>
<!-- section_1&#45;&gt;section_7 -->
<g id="edge7" class="edge">
<title>section_1&#45;&gt;section_7</title>
<path fill="none" stroke="#000000" stroke-dasharray="5,2" d="M895.5541,-404.3737C1150.7134,-393.3066 2138.0566,-350.482 2419.6441,-338.2686"/>
<polygon fill="#000000" stroke="#000000" points="2419.9186,-341.7601 2429.7575,-337.83 2419.6152,-334.7667 2419.9186,-341.7601"/>
</g>
<!-- leaf_8 -->
<g id="node9" class="node">
<title>leaf_8</title>
<polygon fill="none" stroke="#c0c0c0" points="595,-281.0002 523,-281.0002 523,-245.0002 595,-245.0002 595,-281.0002"/>
<text text-anchor="middle" x="559" y="-259.5002" font-family="Inconsolata" font-size="14.00" fill="#000000">* Stator</text>
</g>
<!-- header_2&#45;&gt;leaf_8 -->
<g id="edge8" class="edge">
<title>header_2&#45;&gt;leaf_8</title>
<path fill="none" stroke="#000000" stroke-dasharray="5,2" d="M562.7383,-316.8315C562.2035,-309.1311 561.5677,-299.9745 560.9734,-291.4168"/>
<polygon fill="#000000" stroke="#000000" points="564.4632,-291.1469 560.2787,-281.4134 557.48,-291.6319 564.4632,-291.1469"/>
</g>
<!-- raw_9 -->
<g id="node10" class="node">
<title>raw_9</title>
<ellipse fill="none" stroke="#000000" cx="640" cy="-263.0002" rx="27" ry="18"/>
<text text-anchor="middle" x="640" y="-258.8002" font-family="Helvetica,sans-Serif" font-size="14.00" fill="#000000">raw</text>
</g>
<!-- prose_3&#45;&gt;raw_9 -->
<g id="edge9" class="edge">
<title>prose_3&#45;&gt;raw_9</title>
<path fill="none" stroke="#000000" stroke-dasharray="5,2" d="M670.3171,-317.571C665.6004,-309.0808 659.8294,-298.693 654.593,-289.2676"/>
<polygon fill="#000000" stroke="#000000" points="657.5097,-287.3107 649.5937,-280.2688 651.3906,-290.7102 657.5097,-287.3107"/>
</g>
<!-- raw_11 -->
<g id="node12" class="node">
<title>raw_11</title>
<ellipse fill="none" stroke="#000000" cx="712" cy="-263.0002" rx="27" ry="18"/>
<text text-anchor="middle" x="712" y="-258.8002" font-family="Helvetica,sans-Serif" font-size="14.00" fill="#000000">raw</text>
</g>
<!-- prose_4&#45;&gt;raw_11 -->
<g id="edge11" class="edge">
<title>prose_4&#45;&gt;raw_11</title>
<path fill="none" stroke="#000000" stroke-dasharray="5,2" d="M758.3851,-318.6622C750.5279,-309.2336 740.5076,-297.2092 731.7922,-286.7508"/>
<polygon fill="#000000" stroke="#000000" points="734.2394,-284.2202 725.1487,-278.7786 728.8618,-288.7015 734.2394,-284.2202"/>
</g>
<!-- leaf_13 -->
<g id="node14" class="node">
<title>leaf_13</title>
<polygon fill="none" stroke="#c0c0c0" points="1130.5,-281.0002 757.5,-281.0002 757.5,-245.0002 1130.5,-245.0002 1130.5,-281.0002"/>
<text text-anchor="middle" x="944" y="-259.5002" font-family="Inconsolata" font-size="14.00" fill="#000000">local Stator = setmetatable({}, {__index = Stator})</text>
</g>
<!-- codeblock_5&#45;&gt;leaf_13 -->
<g id="edge13" class="edge">
<title>codeblock_5&#45;&gt;leaf_13</title>
<path fill="none" stroke="#000000" stroke-dasharray="5,2" d="M914.0937,-316.8315C918.5597,-308.7926 923.9075,-299.1667 928.8379,-290.2919"/>
<polygon fill="#000000" stroke="#000000" points="931.9735,-291.8548 933.7704,-281.4134 925.8544,-288.4552 931.9735,-291.8548"/>
</g>
<!-- header_14 -->
<g id="node15" class="node">
<title>header_14</title>
<ellipse fill="none" stroke="#000000" cx="1217" cy="-263.0002" rx="68.2066" ry="18"/>
<text text-anchor="middle" x="1217" y="-258.8002" font-family="Helvetica,sans-Serif" font-size="14.00" fill="#000000">2 : Constructor</text>
</g>
<!-- section_6&#45;&gt;header_14 -->
<g id="edge14" class="edge">
<title>section_6&#45;&gt;header_14</title>
<path fill="none" stroke="#000000" stroke-dasharray="5,2" d="M1307.9284,-318.4819C1291.7046,-308.5826 1270.8715,-295.8709 1253.2407,-285.1131"/>
<polygon fill="#000000" stroke="#000000" points="1254.7137,-281.9118 1244.3542,-279.6909 1251.0676,-287.8873 1254.7137,-281.9118"/>
</g>
<!-- prose_15 -->
<g id="node16" class="node">
<title>prose_15</title>
<ellipse fill="none" stroke="#000000" cx="1335" cy="-263.0002" rx="32.4585" ry="18"/>
<text text-anchor="middle" x="1335" y="-258.8002" font-family="Helvetica,sans-Serif" font-size="14.00" fill="#000000">prose</text>
</g>
<!-- section_6&#45;&gt;prose_15 -->
<g id="edge15" class="edge">
<title>section_6&#45;&gt;prose_15</title>
<path fill="none" stroke="#000000" stroke-dasharray="5,2" d="M1335,-316.8315C1335,-309.1311 1335,-299.9745 1335,-291.4168"/>
<polygon fill="#000000" stroke="#000000" points="1338.5001,-291.4134 1335,-281.4134 1331.5001,-291.4135 1338.5001,-291.4134"/>
</g>
<!-- prose_16 -->
<g id="node17" class="node">
<title>prose_16</title>
<ellipse fill="none" stroke="#000000" cx="1417" cy="-263.0002" rx="32.4585" ry="18"/>
<text text-anchor="middle" x="1417" y="-258.8002" font-family="Helvetica,sans-Serif" font-size="14.00" fill="#000000">prose</text>
</g>
<!-- section_6&#45;&gt;prose_16 -->
<g id="edge16" class="edge">
<title>section_6&#45;&gt;prose_16</title>
<path fill="none" stroke="#000000" stroke-dasharray="5,2" d="M1354.8499,-317.571C1365.9412,-307.8323 1379.8761,-295.5967 1391.7387,-285.1808"/>
<polygon fill="#000000" stroke="#000000" points="1394.3546,-287.5416 1399.5597,-278.3136 1389.736,-282.2816 1394.3546,-287.5416"/>
</g>
<!-- codeblock_17 -->
<g id="node18" class="node">
<title>codeblock_17</title>
<ellipse fill="none" stroke="#000000" cx="1610" cy="-263.0002" rx="77.4211" ry="18"/>
<text text-anchor="middle" x="1610" y="-258.8002" font-family="Helvetica,sans-Serif" font-size="14.00" fill="#000000">code block 24&#45;28</text>
</g>
<!-- section_6&#45;&gt;codeblock_17 -->
<g id="edge17" class="edge">
<title>section_6&#45;&gt;codeblock_17</title>
<path fill="none" stroke="#000000" stroke-dasharray="5,2" d="M1382.5874,-322.5409C1428.5616,-310.504 1498.4168,-292.2147 1548.5695,-279.0838"/>
<polygon fill="#000000" stroke="#000000" points="1549.537,-282.4485 1558.3244,-276.5298 1547.764,-275.6768 1549.537,-282.4485"/>
</g>
<!-- header_24 -->
<g id="node25" class="node">
<title>header_24</title>
<ellipse fill="none" stroke="#000000" cx="2189" cy="-263.0002" rx="40.1749" ry="18"/>
<text text-anchor="middle" x="2189" y="-258.8002" font-family="Helvetica,sans-Serif" font-size="14.00" fill="#000000">2 : New</text>
</g>
<!-- section_7&#45;&gt;header_24 -->
<g id="edge24" class="edge">
<title>section_7&#45;&gt;header_24</title>
<path fill="none" stroke="#000000" stroke-dasharray="5,2" d="M2445.1548,-323.2719C2386.9628,-309.5796 2291.5059,-287.1192 2235.0122,-273.8266"/>
<polygon fill="#000000" stroke="#000000" points="2235.4707,-270.3389 2224.9348,-271.4554 2233.8673,-277.1528 2235.4707,-270.3389"/>
</g>
<!-- prose_25 -->
<g id="node26" class="node">
<title>prose_25</title>
<ellipse fill="none" stroke="#000000" cx="2495" cy="-263.0002" rx="32.4585" ry="18"/>
<text text-anchor="middle" x="2495" y="-258.8002" font-family="Helvetica,sans-Serif" font-size="14.00" fill="#000000">prose</text>
</g>
<!-- section_7&#45;&gt;prose_25 -->
<g id="edge25" class="edge">
<title>section_7&#45;&gt;prose_25</title>
<path fill="none" stroke="#000000" stroke-dasharray="5,2" d="M2495,-316.8315C2495,-309.1311 2495,-299.9745 2495,-291.4168"/>
<polygon fill="#000000" stroke="#000000" points="2498.5001,-291.4134 2495,-281.4134 2491.5001,-291.4135 2498.5001,-291.4134"/>
</g>
<!-- codeblock_26 -->
<g id="node27" class="node">
<title>codeblock_26</title>
<ellipse fill="none" stroke="#000000" cx="2901" cy="-263.0002" rx="77.4211" ry="18"/>
<text text-anchor="middle" x="2901" y="-258.8002" font-family="Helvetica,sans-Serif" font-size="14.00" fill="#000000">code block 36&#45;42</text>
</g>
<!-- section_7&#45;&gt;codeblock_26 -->
<g id="edge26" class="edge">
<title>section_7&#45;&gt;codeblock_26</title>
<path fill="none" stroke="#000000" stroke-dasharray="5,2" d="M2550.1775,-325.215C2622.5335,-312.3834 2749.6138,-289.847 2829.3379,-275.7087"/>
<polygon fill="#000000" stroke="#000000" points="2830.0642,-279.1346 2839.2994,-273.9421 2828.8419,-272.2421 2830.0642,-279.1346"/>
</g>
<!-- codeblock_27 -->
<g id="node28" class="node">
<title>codeblock_27</title>
<ellipse fill="none" stroke="#000000" cx="3317" cy="-263.0002" rx="77.4211" ry="18"/>
<text text-anchor="middle" x="3317" y="-258.8002" font-family="Helvetica,sans-Serif" font-size="14.00" fill="#000000">code block 45&#45;47</text>
</g>
<!-- section_7&#45;&gt;codeblock_27 -->
<g id="edge27" class="edge">
<title>section_7&#45;&gt;codeblock_27</title>
<path fill="none" stroke="#000000" stroke-dasharray="5,2" d="M2557.7968,-329.4997C2704.4711,-316.6523 3069.5778,-284.6722 3234.1915,-270.2535"/>
<polygon fill="#000000" stroke="#000000" points="3234.6072,-273.7305 3244.2637,-269.3712 3233.9964,-266.7572 3234.6072,-273.7305"/>
</g>
<!-- leaf_10 -->
<g id="node11" class="node">
<title>leaf_10</title>
<polygon fill="none" stroke="#c0c0c0" points="534,-209.1004 0,-209.1004 0,-106.6998 534,-106.6998 534,-209.1004"/>
<text text-anchor="middle" x="267" y="-145.8002" font-family="Inconsolata" font-size="14.00" fill="#000000"> &#160;Having gotten about as far as I can with mere string concatenation, it&#39;s</text>
<text text-anchor="middle" x="267" y="-130.4001" font-family="Inconsolata" font-size="14.00" fill="#000000">time to put together a proper set of operations for transducing across a</text>
<text text-anchor="middle" x="267" y="-115.0001" font-family="Inconsolata" font-size="14.00" fill="#000000">Node.</text>
</g>
<!-- raw_9&#45;&gt;leaf_10 -->
<g id="edge10" class="edge">
<title>raw_9&#45;&gt;leaf_10</title>
<path fill="none" stroke="#000000" stroke-dasharray="5,2" d="M619.011,-251.5795C614.1667,-249.2054 608.9734,-246.8624 604,-245.0002 571.4109,-232.7973 536.4309,-221.6771 501.7849,-211.7699"/>
<polygon fill="#000000" stroke="#000000" points="502.5992,-208.363 492.024,-209.0079 500.6932,-215.0985 502.5992,-208.363"/>
</g>
<!-- leaf_12 -->
<g id="node13" class="node">
<title>leaf_12</title>
<polygon fill="none" stroke="#c0c0c0" points="1051.5,-185.2005 552.5,-185.2005 552.5,-130.5997 1051.5,-130.5997 1051.5,-185.2005"/>
<text text-anchor="middle" x="802" y="-154.1001" font-family="Inconsolata" font-size="14.00" fill="#000000">This isn&#39;t a great place to put theory, let&#39;s build the structure and</text>
<text text-anchor="middle" x="802" y="-138.7001" font-family="Inconsolata" font-size="14.00" fill="#000000">flesh out from there.</text>
</g>
<!-- raw_11&#45;&gt;leaf_12 -->
<g id="edge12" class="edge">
<title>raw_11&#45;&gt;leaf_12</title>
<path fill="none" stroke="#000000" stroke-dasharray="5,2" d="M725.6691,-247.0377C737.8889,-232.7677 756.2279,-211.3518 771.8675,-193.0881"/>
<polygon fill="#000000" stroke="#000000" points="774.5334,-195.356 778.3793,-185.4839 769.2164,-190.803 774.5334,-195.356"/>
</g>
<!-- leaf_18 -->
<g id="node19" class="node">
<title>leaf_18</title>
<polygon fill="none" stroke="#c0c0c0" points="1274,-175.9001 1160,-175.9001 1160,-139.9001 1274,-139.9001 1274,-175.9001"/>
<text text-anchor="middle" x="1217" y="-154.4001" font-family="Inconsolata" font-size="14.00" fill="#000000">** Constructor</text>
</g>
<!-- header_14&#45;&gt;leaf_18 -->
<g id="edge18" class="edge">
<title>header_14&#45;&gt;leaf_18</title>
<path fill="none" stroke="#000000" stroke-dasharray="5,2" d="M1217,-244.6931C1217,-228.5675 1217,-204.8223 1217,-186.243"/>
<polygon fill="#000000" stroke="#000000" points="1220.5001,-185.9973 1217,-175.9974 1213.5001,-185.9974 1220.5001,-185.9973"/>
</g>
<!-- raw_19 -->
<g id="node20" class="node">
<title>raw_19</title>
<ellipse fill="none" stroke="#000000" cx="1327" cy="-157.9001" rx="27" ry="18"/>
<text text-anchor="middle" x="1327" y="-153.7001" font-family="Helvetica,sans-Serif" font-size="14.00" fill="#000000">raw</text>
</g>
<!-- prose_15&#45;&gt;raw_19 -->
<g id="edge19" class="edge">
<title>prose_15&#45;&gt;raw_19</title>
<path fill="none" stroke="#000000" stroke-dasharray="5,2" d="M1333.6065,-244.6931C1332.3733,-228.4922 1330.5547,-204.6002 1329.1376,-185.9829"/>
<polygon fill="#000000" stroke="#000000" points="1332.6265,-185.7028 1328.3775,-175.9974 1325.6467,-186.2342 1332.6265,-185.7028"/>
</g>
<!-- raw_21 -->
<g id="node22" class="node">
<title>raw_21</title>
<ellipse fill="none" stroke="#000000" cx="1408" cy="-157.9001" rx="27" ry="18"/>
<text text-anchor="middle" x="1408" y="-153.7001" font-family="Helvetica,sans-Serif" font-size="14.00" fill="#000000">raw</text>
</g>
<!-- prose_16&#45;&gt;raw_21 -->
<g id="edge21" class="edge">
<title>prose_16&#45;&gt;raw_21</title>
<path fill="none" stroke="#000000" stroke-dasharray="5,2" d="M1415.4323,-244.6931C1414.045,-228.4922 1411.9991,-204.6002 1410.4048,-185.9829"/>
<polygon fill="#000000" stroke="#000000" points="1413.8902,-185.6622 1409.5497,-175.9974 1406.9158,-186.2595 1413.8902,-185.6622"/>
</g>
<!-- leaf_23 -->
<g id="node24" class="node">
<title>leaf_23</title>
<polygon fill="none" stroke="#c0c0c0" points="1896.5,-185.1006 1453.5,-185.1006 1453.5,-130.6996 1896.5,-130.6996 1896.5,-185.1006"/>
<text text-anchor="middle" x="1675" y="-169.8002" font-family="Inconsolata" font-size="14.00" fill="#000000">local function call(stator)</text>
<text text-anchor="middle" x="1675" y="-154.4001" font-family="Inconsolata" font-size="14.00" fill="#000000"> &#160;return setmetatable({}, {__index = stator, __call = call })</text>
<text text-anchor="middle" x="1675" y="-139.0001" font-family="Inconsolata" font-size="14.00" fill="#000000">end</text>
</g>
<!-- codeblock_17&#45;&gt;leaf_23 -->
<g id="edge23" class="edge">
<title>codeblock_17&#45;&gt;leaf_23</title>
<path fill="none" stroke="#000000" stroke-dasharray="5,2" d="M1621.0264,-245.1714C1629.6626,-231.2072 1641.9606,-211.3222 1652.6369,-194.0596"/>
<polygon fill="#000000" stroke="#000000" points="1655.7608,-195.6625 1658.044,-185.3166 1649.8073,-191.9806 1655.7608,-195.6625"/>
</g>
<!-- leaf_20 -->
<g id="node21" class="node">
<title>leaf_20</title>
<polygon fill="none" stroke="#c0c0c0" points="1150.5,-70.7004 637.5,-70.7004 637.5,-.0997 1150.5,-.0997 1150.5,-70.7004"/>
<text text-anchor="middle" x="894" y="-23.6001" font-family="Inconsolata" font-size="14.00" fill="#000000">We set up a new stator on each Node we&#39;re transducing, so we want it to</text>
<text text-anchor="middle" x="894" y="-8.2" font-family="Inconsolata" font-size="14.00" fill="#000000">be quick and cheap.</text>
</g>
<!-- raw_19&#45;&gt;leaf_20 -->
<g id="edge20" class="edge">
<title>raw_19&#45;&gt;leaf_20</title>
<path fill="none" stroke="#000000" stroke-dasharray="5,2" d="M1316.8423,-140.9552C1309.0439,-129.4724 1297.2176,-114.9542 1283,-106.8001 1259.4146,-93.2733 1213.1935,-81.2826 1160.599,-71.1721"/>
<polygon fill="#000000" stroke="#000000" points="1161.1838,-67.7208 1150.7083,-69.3062 1159.8861,-74.5995 1161.1838,-67.7208"/>
</g>
<!-- leaf_22 -->
<g id="node23" class="node">
<title>leaf_22</title>
<polygon fill="none" stroke="#c0c0c0" points="1647,-62.7005 1169,-62.7005 1169,-8.0996 1647,-8.0996 1647,-62.7005"/>
<text text-anchor="middle" x="1408" y="-31.6001" font-family="Inconsolata" font-size="14.00" fill="#000000">I recommend either lifting this method or providing an override if</text>
<text text-anchor="middle" x="1408" y="-16.2" font-family="Inconsolata" font-size="14.00" fill="#000000">subclassing Stator.</text>
</g>
<!-- raw_21&#45;&gt;leaf_22 -->
<g id="edge22" class="edge">
<title>raw_21&#45;&gt;leaf_22</title>
<path fill="none" stroke="#000000" stroke-dasharray="5,2" d="M1408,-139.8248C1408,-122.3586 1408,-95.3622 1408,-73.1943"/>
<polygon fill="#000000" stroke="#000000" points="1411.5001,-73.0824 1408,-63.0824 1404.5001,-73.0824 1411.5001,-73.0824"/>
</g>
<!-- leaf_28 -->
<g id="node29" class="node">
<title>leaf_28</title>
<polygon fill="none" stroke="#c0c0c0" points="2048,-175.9001 1994,-175.9001 1994,-139.9001 2048,-139.9001 2048,-175.9001"/>
<text text-anchor="middle" x="2021" y="-154.4001" font-family="Inconsolata" font-size="14.00" fill="#000000">* New</text>
</g>
<!-- header_24&#45;&gt;leaf_28 -->
<g id="edge28" class="edge">
<title>header_24&#45;&gt;leaf_28</title>
<path fill="none" stroke="#000000" stroke-dasharray="5,2" d="M2153.6465,-254.4682C2125.3016,-246.314 2085.6619,-231.8333 2057,-209.0002 2048.6845,-202.3757 2041.4612,-193.3378 2035.7121,-184.7038"/>
<polygon fill="#000000" stroke="#000000" points="2038.5294,-182.6069 2030.2705,-175.9705 2032.5883,-186.3087 2038.5294,-182.6069"/>
</g>
<!-- raw_29 -->
<g id="node30" class="node">
<title>raw_29</title>
<ellipse fill="none" stroke="#000000" cx="2093" cy="-157.9001" rx="27" ry="18"/>
<text text-anchor="middle" x="2093" y="-153.7001" font-family="Helvetica,sans-Serif" font-size="14.00" fill="#000000">raw</text>
</g>
<!-- prose_25&#45;&gt;raw_29 -->
<g id="edge29" class="edge">
<title>prose_25&#45;&gt;raw_29</title>
<path fill="none" stroke="#000000" stroke-dasharray="5,2" d="M2462.7374,-261.4721C2384.079,-257.2422 2184.7917,-243.3424 2129,-209.0002 2119.3353,-203.0511 2111.5592,-193.435 2105.7415,-184.1407"/>
<polygon fill="#000000" stroke="#000000" points="2108.7749,-182.3945 2100.766,-175.4584 2102.7014,-185.875 2108.7749,-182.3945"/>
</g>
<!-- prespace_30 -->
<g id="node31" class="node">
<title>prespace_30</title>
<ellipse fill="none" stroke="#000000" cx="2184" cy="-157.9001" rx="46.4736" ry="18"/>
<text text-anchor="middle" x="2184" y="-153.7001" font-family="Helvetica,sans-Serif" font-size="14.00" fill="#000000">prespace</text>
</g>
<!-- prose_25&#45;&gt;prespace_30 -->
<g id="edge30" class="edge">
<title>prose_25&#45;&gt;prespace_30</title>
<path fill="none" stroke="#000000" stroke-dasharray="5,2" d="M2462.5927,-261.5556C2412.3234,-258.1594 2313.6753,-246.813 2240,-209.0002 2227.2496,-202.4562 2215.2142,-192.2339 2205.5924,-182.6464"/>
<polygon fill="#000000" stroke="#000000" points="2207.8744,-179.9694 2198.4259,-175.176 2202.8229,-184.8153 2207.8744,-179.9694"/>
</g>
<!-- literal_31 -->
<g id="node32" class="node">
<title>literal_31</title>
<ellipse fill="none" stroke="#000000" cx="2280" cy="-157.9001" rx="31.481" ry="18"/>
<text text-anchor="middle" x="2280" y="-153.7001" font-family="Helvetica,sans-Serif" font-size="14.00" fill="#000000">literal</text>
</g>
<!-- prose_25&#45;&gt;literal_31 -->
<g id="edge31" class="edge">
<title>prose_25&#45;&gt;literal_31</title>
<path fill="none" stroke="#000000" stroke-dasharray="5,2" d="M2463.4379,-259.0873C2426.348,-253.2454 2364.2585,-239.4726 2320,-209.0002 2310.4363,-202.4154 2302.09,-192.8504 2295.5309,-183.772"/>
<polygon fill="#000000" stroke="#000000" points="2298.3167,-181.6439 2289.8085,-175.3303 2292.5224,-185.5716 2298.3167,-181.6439"/>
</g>
<!-- raw_32 -->
<g id="node33" class="node">
<title>raw_32</title>
<ellipse fill="none" stroke="#000000" cx="2356" cy="-157.9001" rx="27" ry="18"/>
<text text-anchor="middle" x="2356" y="-153.7001" font-family="Helvetica,sans-Serif" font-size="14.00" fill="#000000">raw</text>
</g>
<!-- prose_25&#45;&gt;raw_32 -->
<g id="edge32" class="edge">
<title>prose_25&#45;&gt;raw_32</title>
<path fill="none" stroke="#000000" stroke-dasharray="5,2" d="M2467.914,-252.981C2445.7994,-243.8749 2414.6178,-228.8362 2392,-209.0002 2383.8003,-201.809 2376.4905,-192.3886 2370.6355,-183.5976"/>
<polygon fill="#000000" stroke="#000000" points="2373.5834,-181.7107 2365.2863,-175.1222 2367.6638,-185.4468 2373.5834,-181.7107"/>
</g>
<!-- prespace_33 -->
<g id="node34" class="node">
<title>prespace_33</title>
<ellipse fill="none" stroke="#000000" cx="2447" cy="-157.9001" rx="46.4736" ry="18"/>
<text text-anchor="middle" x="2447" y="-153.7001" font-family="Helvetica,sans-Serif" font-size="14.00" fill="#000000">prespace</text>
</g>
<!-- prose_25&#45;&gt;prespace_33 -->
<g id="edge33" class="edge">
<title>prose_25&#45;&gt;prespace_33</title>
<path fill="none" stroke="#000000" stroke-dasharray="5,2" d="M2486.8575,-245.1714C2479.341,-228.7136 2468.0686,-204.0317 2459.4275,-185.1113"/>
<polygon fill="#000000" stroke="#000000" points="2462.5206,-183.4586 2455.1825,-175.8164 2456.1532,-186.3666 2462.5206,-183.4586"/>
</g>
<!-- literal_34 -->
<g id="node35" class="node">
<title>literal_34</title>
<ellipse fill="none" stroke="#000000" cx="2543" cy="-157.9001" rx="31.481" ry="18"/>
<text text-anchor="middle" x="2543" y="-153.7001" font-family="Helvetica,sans-Serif" font-size="14.00" fill="#000000">literal</text>
</g>
<!-- prose_25&#45;&gt;literal_34 -->
<g id="edge34" class="edge">
<title>prose_25&#45;&gt;literal_34</title>
<path fill="none" stroke="#000000" stroke-dasharray="5,2" d="M2503.1425,-245.1714C2510.7045,-228.6138 2522.0681,-203.7322 2530.7293,-184.7679"/>
<polygon fill="#000000" stroke="#000000" points="2534.007,-186.0159 2534.9777,-175.4656 2527.6396,-183.1078 2534.007,-186.0159"/>
</g>
<!-- raw_35 -->
<g id="node36" class="node">
<title>raw_35</title>
<ellipse fill="none" stroke="#000000" cx="2619" cy="-157.9001" rx="27" ry="18"/>
<text text-anchor="middle" x="2619" y="-153.7001" font-family="Helvetica,sans-Serif" font-size="14.00" fill="#000000">raw</text>
</g>
<!-- prose_25&#45;&gt;raw_35 -->
<g id="edge35" class="edge">
<title>prose_25&#45;&gt;raw_35</title>
<path fill="none" stroke="#000000" stroke-dasharray="5,2" d="M2519.9858,-251.1796C2538.6882,-241.5425 2564.1794,-226.6646 2583,-209.0002 2590.9523,-201.5364 2598.209,-192.0574 2604.0907,-183.2958"/>
<polygon fill="#000000" stroke="#000000" points="2607.0389,-185.1822 2609.4889,-174.8745 2601.1457,-181.4045 2607.0389,-185.1822"/>
</g>
<!-- prespace_36 -->
<g id="node37" class="node">
<title>prespace_36</title>
<ellipse fill="none" stroke="#000000" cx="2710" cy="-157.9001" rx="46.4736" ry="18"/>
<text text-anchor="middle" x="2710" y="-153.7001" font-family="Helvetica,sans-Serif" font-size="14.00" fill="#000000">prespace</text>
</g>
<!-- prose_25&#45;&gt;prespace_36 -->
<g id="edge36" class="edge">
<title>prose_25&#45;&gt;prespace_36</title>
<path fill="none" stroke="#000000" stroke-dasharray="5,2" d="M2525.5233,-256.7628C2558.9842,-249.0279 2613.4373,-233.7492 2655,-209.0002 2667.0177,-201.8441 2678.6246,-191.7082 2688.0533,-182.3482"/>
<polygon fill="#000000" stroke="#000000" points="2690.6568,-184.6913 2695.1143,-175.0798 2685.6358,-179.8137 2690.6568,-184.6913"/>
</g>
<!-- literal_37 -->
<g id="node38" class="node">
<title>literal_37</title>
<ellipse fill="none" stroke="#000000" cx="2806" cy="-157.9001" rx="31.481" ry="18"/>
<text text-anchor="middle" x="2806" y="-153.7001" font-family="Helvetica,sans-Serif" font-size="14.00" fill="#000000">literal</text>
</g>
<!-- prose_25&#45;&gt;literal_37 -->
<g id="edge37" class="edge">
<title>prose_25&#45;&gt;literal_37</title>
<path fill="none" stroke="#000000" stroke-dasharray="5,2" d="M2526.8998,-259.3858C2589.3596,-251.8659 2725.1685,-233.203 2765,-209.0002 2775.2702,-202.7597 2784.0468,-192.9661 2790.8133,-183.6153"/>
<polygon fill="#000000" stroke="#000000" points="2793.7545,-185.5137 2796.4475,-175.2668 2787.9522,-181.5979 2793.7545,-185.5137"/>
</g>
<!-- raw_38 -->
<g id="node39" class="node">
<title>raw_38</title>
<ellipse fill="none" stroke="#000000" cx="2882" cy="-157.9001" rx="27" ry="18"/>
<text text-anchor="middle" x="2882" y="-153.7001" font-family="Helvetica,sans-Serif" font-size="14.00" fill="#000000">raw</text>
</g>
<!-- prose_25&#45;&gt;raw_38 -->
<g id="edge38" class="edge">
<title>prose_25&#45;&gt;raw_38</title>
<path fill="none" stroke="#000000" stroke-dasharray="5,2" d="M2527.3467,-261.2369C2603.7336,-256.57 2792.8745,-241.9274 2846,-209.0002 2855.6463,-203.0214 2863.419,-193.3998 2869.2392,-184.1095"/>
<polygon fill="#000000" stroke="#000000" points="2872.2764,-185.8487 2874.2185,-175.4334 2866.2052,-182.3644 2872.2764,-185.8487"/>
</g>
<!-- leaf_49 -->
<g id="node50" class="node">
<title>leaf_49</title>
<polygon fill="none" stroke="#c0c0c0" points="3335,-200.4003 2927,-200.4003 2927,-115.4 3335,-115.4 3335,-200.4003"/>
<text text-anchor="middle" x="3131" y="-185.2002" font-family="Inconsolata" font-size="14.00" fill="#000000">local function new(Stator)</text>
<text text-anchor="middle" x="3131" y="-169.8002" font-family="Inconsolata" font-size="14.00" fill="#000000"> &#160;local stator = call(Stator)</text>
<text text-anchor="middle" x="3131" y="-154.4001" font-family="Inconsolata" font-size="14.00" fill="#000000"> &#160;stator.g, stator.G, stator._G = stator, stator, stator</text>
<text text-anchor="middle" x="3131" y="-139.0001" font-family="Inconsolata" font-size="14.00" fill="#000000"> &#160;return stator</text>
<text text-anchor="middle" x="3131" y="-123.6001" font-family="Inconsolata" font-size="14.00" fill="#000000">end</text>
</g>
<!-- codeblock_26&#45;&gt;leaf_49 -->
<g id="edge49" class="edge">
<title>codeblock_26&#45;&gt;leaf_49</title>
<path fill="none" stroke="#000000" stroke-dasharray="5,2" d="M2936.1824,-246.9233C2960.9128,-235.6226 2995.3608,-219.8814 3028.4229,-204.7734"/>
<polygon fill="#000000" stroke="#000000" points="3030.0614,-207.8728 3037.7021,-200.5332 3027.152,-201.5061 3030.0614,-207.8728"/>
</g>
<!-- leaf_50 -->
<g id="node51" class="node">
<title>leaf_50</title>
<polygon fill="none" stroke="#c0c0c0" points="3670.5,-175.9001 3353.5,-175.9001 3353.5,-139.9001 3670.5,-139.9001 3670.5,-175.9001"/>
<text text-anchor="middle" x="3512" y="-154.4001" font-family="Inconsolata" font-size="14.00" fill="#000000">return setmetatable(Stator, {__call = new})</text>
</g>
<!-- codeblock_27&#45;&gt;leaf_50 -->
<g id="edge50" class="edge">
<title>codeblock_27&#45;&gt;leaf_50</title>
<path fill="none" stroke="#000000" stroke-dasharray="5,2" d="M3347.8983,-246.3467C3380.668,-228.6847 3432.6649,-200.6597 3469.3315,-180.8973"/>
<polygon fill="#000000" stroke="#000000" points="3471.16,-183.8879 3478.3022,-176.0623 3467.8388,-177.7259 3471.16,-183.8879"/>
</g>
<!-- leaf_39 -->
<g id="node40" class="node">
<title>leaf_39</title>
<polygon fill="none" stroke="#c0c0c0" points="2164.5,-70.7004 1665.5,-70.7004 1665.5,-.0997 2164.5,-.0997 2164.5,-70.7004"/>
<text text-anchor="middle" x="1915" y="-23.6001" font-family="Inconsolata" font-size="14.00" fill="#000000">The root Stator has a global context, which is itself. &#160;This is given</text>
<text text-anchor="middle" x="1915" y="-8.2" font-family="Inconsolata" font-size="14.00" fill="#000000">the synonyms</text>
</g>
<!-- raw_29&#45;&gt;leaf_39 -->
<g id="edge39" class="edge">
<title>raw_29&#45;&gt;leaf_39</title>
<path fill="none" stroke="#000000" stroke-dasharray="5,2" d="M2083.7688,-140.6146C2077.3611,-129.8508 2068.0139,-116.2951 2057,-106.8001 2043.3337,-95.0183 2027.3842,-84.5969 2011.2095,-75.6096"/>
<polygon fill="#000000" stroke="#000000" points="2012.6774,-72.4249 2002.2134,-70.7647 2009.3582,-78.588 2012.6774,-72.4249"/>
</g>
<!-- leaf_40 -->
<g id="node41" class="node">
<title>leaf_40</title>
<polygon fill="none" stroke="#c0c0c0" points="2237,-53.4 2183,-53.4 2183,-17.4 2237,-17.4 2237,-53.4"/>
<text text-anchor="middle" x="2210" y="-31.9" font-family="Inconsolata" font-size="14.00" fill="#000000"> </text>
</g>
<!-- prespace_30&#45;&gt;leaf_40 -->
<g id="edge40" class="edge">
<title>prespace_30&#45;&gt;leaf_40</title>
<path fill="none" stroke="#000000" stroke-dasharray="5,2" d="M2187.8364,-139.8248C2192.0992,-119.7402 2199.0368,-87.0536 2204.0151,-63.5982"/>
<polygon fill="#000000" stroke="#000000" points="2207.4953,-64.0583 2206.1479,-53.5495 2200.6479,-62.6049 2207.4953,-64.0583"/>
</g>
<!-- leaf_41 -->
<g id="node42" class="node">
<title>leaf_41</title>
<polygon fill="none" stroke="#c0c0c0" points="2309,-53.4 2255,-53.4 2255,-17.4 2309,-17.4 2309,-53.4"/>
<text text-anchor="middle" x="2282" y="-31.9" font-family="Inconsolata" font-size="14.00" fill="#000000">G</text>
</g>
<!-- literal_31&#45;&gt;leaf_41 -->
<g id="edge41" class="edge">
<title>literal_31&#45;&gt;leaf_41</title>
<path fill="none" stroke="#000000" stroke-dasharray="5,2" d="M2280.2951,-139.8248C2280.623,-119.7402 2281.1567,-87.0536 2281.5396,-63.5982"/>
<polygon fill="#000000" stroke="#000000" points="2285.0399,-63.6053 2281.7037,-53.5495 2278.0408,-63.491 2285.0399,-63.6053"/>
</g>
<!-- leaf_42 -->
<g id="node43" class="node">
<title>leaf_42</title>
<polygon fill="none" stroke="#c0c0c0" points="2383,-53.4 2329,-53.4 2329,-17.4 2383,-17.4 2383,-53.4"/>
<text text-anchor="middle" x="2356" y="-31.9" font-family="Inconsolata" font-size="14.00" fill="#000000">,</text>
</g>
<!-- raw_32&#45;&gt;leaf_42 -->
<g id="edge42" class="edge">
<title>raw_32&#45;&gt;leaf_42</title>
<path fill="none" stroke="#000000" stroke-dasharray="5,2" d="M2356,-139.8248C2356,-119.7402 2356,-87.0536 2356,-63.5982"/>
<polygon fill="#000000" stroke="#000000" points="2359.5001,-63.5495 2356,-53.5495 2352.5001,-63.5495 2359.5001,-63.5495"/>
</g>
<!-- leaf_43 -->
<g id="node44" class="node">
<title>leaf_43</title>
<polygon fill="none" stroke="#c0c0c0" points="2474,-53.4 2420,-53.4 2420,-17.4 2474,-17.4 2474,-53.4"/>
<text text-anchor="middle" x="2447" y="-31.9" font-family="Inconsolata" font-size="14.00" fill="#000000"> </text>
</g>
<!-- prespace_33&#45;&gt;leaf_43 -->
<g id="edge43" class="edge">
<title>prespace_33&#45;&gt;leaf_43</title>
<path fill="none" stroke="#000000" stroke-dasharray="5,2" d="M2447,-139.8248C2447,-119.7402 2447,-87.0536 2447,-63.5982"/>
<polygon fill="#000000" stroke="#000000" points="2450.5001,-63.5495 2447,-53.5495 2443.5001,-63.5495 2450.5001,-63.5495"/>
</g>
<!-- leaf_44 -->
<g id="node45" class="node">
<title>leaf_44</title>
<polygon fill="none" stroke="#c0c0c0" points="2570,-53.4 2516,-53.4 2516,-17.4 2570,-17.4 2570,-53.4"/>
<text text-anchor="middle" x="2543" y="-31.9" font-family="Inconsolata" font-size="14.00" fill="#000000">g</text>
</g>
<!-- literal_34&#45;&gt;leaf_44 -->
<g id="edge44" class="edge">
<title>literal_34&#45;&gt;leaf_44</title>
<path fill="none" stroke="#000000" stroke-dasharray="5,2" d="M2543,-139.8248C2543,-119.7402 2543,-87.0536 2543,-63.5982"/>
<polygon fill="#000000" stroke="#000000" points="2546.5001,-63.5495 2543,-53.5495 2539.5001,-63.5495 2546.5001,-63.5495"/>
</g>
<!-- leaf_45 -->
<g id="node46" class="node">
<title>leaf_45</title>
<polygon fill="none" stroke="#c0c0c0" points="2646,-53.4 2592,-53.4 2592,-17.4 2646,-17.4 2646,-53.4"/>
<text text-anchor="middle" x="2619" y="-31.9" font-family="Inconsolata" font-size="14.00" fill="#000000"> and</text>
</g>
<!-- raw_35&#45;&gt;leaf_45 -->
<g id="edge45" class="edge">
<title>raw_35&#45;&gt;leaf_45</title>
<path fill="none" stroke="#000000" stroke-dasharray="5,2" d="M2619,-139.8248C2619,-119.7402 2619,-87.0536 2619,-63.5982"/>
<polygon fill="#000000" stroke="#000000" points="2622.5001,-63.5495 2619,-53.5495 2615.5001,-63.5495 2622.5001,-63.5495"/>
</g>
<!-- leaf_46 -->
<g id="node47" class="node">
<title>leaf_46</title>
<polygon fill="none" stroke="#c0c0c0" points="2737,-53.4 2683,-53.4 2683,-17.4 2737,-17.4 2737,-53.4"/>
<text text-anchor="middle" x="2710" y="-31.9" font-family="Inconsolata" font-size="14.00" fill="#000000"> </text>
</g>
<!-- prespace_36&#45;&gt;leaf_46 -->
<g id="edge46" class="edge">
<title>prespace_36&#45;&gt;leaf_46</title>
<path fill="none" stroke="#000000" stroke-dasharray="5,2" d="M2710,-139.8248C2710,-119.7402 2710,-87.0536 2710,-63.5982"/>
<polygon fill="#000000" stroke="#000000" points="2713.5001,-63.5495 2710,-53.5495 2706.5001,-63.5495 2713.5001,-63.5495"/>
</g>
<!-- leaf_47 -->
<g id="node48" class="node">
<title>leaf_47</title>
<polygon fill="none" stroke="#c0c0c0" points="2821,-53.4 2767,-53.4 2767,-17.4 2821,-17.4 2821,-53.4"/>
<text text-anchor="middle" x="2794" y="-31.9" font-family="Inconsolata" font-size="14.00" fill="#000000">_G</text>
</g>
<!-- literal_37&#45;&gt;leaf_47 -->
<g id="edge47" class="edge">
<title>literal_37&#45;&gt;leaf_47</title>
<path fill="none" stroke="#000000" stroke-dasharray="5,2" d="M2804.2294,-139.8248C2802.2619,-119.7402 2799.0599,-87.0536 2796.7623,-63.5982"/>
<polygon fill="#000000" stroke="#000000" points="2800.2362,-63.1606 2795.7779,-53.5495 2793.2696,-63.8431 2800.2362,-63.1606"/>
</g>
<!-- leaf_48 -->
<g id="node49" class="node">
<title>leaf_48</title>
<polygon fill="none" stroke="#c0c0c0" points="3030.5,-53.4 2839.5,-53.4 2839.5,-17.4 3030.5,-17.4 3030.5,-53.4"/>
<text text-anchor="middle" x="2935" y="-31.9" font-family="Inconsolata" font-size="14.00" fill="#000000">, to suit various styles.</text>
</g>
<!-- raw_38&#45;&gt;leaf_48 -->
<g id="edge48" class="edge">
<title>raw_38&#45;&gt;leaf_48</title>
<path fill="none" stroke="#000000" stroke-dasharray="5,2" d="M2889.5936,-140.3488C2898.3482,-120.1141 2912.8471,-86.6026 2923.103,-62.8979"/>
<polygon fill="#000000" stroke="#000000" points="2926.3157,-64.2865 2927.0743,-53.7188 2919.8912,-61.5069 2926.3157,-64.2865"/>
</g>
</g>
</svg>