<?xml version="1.0" encoding="UTF-8" standalone="no"?>
<!DOCTYPE svg PUBLIC "-//W3C//DTD SVG 1.1//EN"
 "http://www.w3.org/Graphics/SVG/1.1/DTD/svg11.dtd">
<!-- Generated by graphviz version 2.40.1 (20161225.0304)
 -->
<!-- Title: hierarchy Pages: 1 -->
<svg width="3693pt" height="505pt"
 viewBox="0.00 0.00 3693.00 505.00" xmlns="http://www.w3.org/2000/svg" xmlns:xlink="http://www.w3.org/1999/xlink">
<g id="graph0" class="graph" transform="scale(1 1) rotate(0) translate(4 501.0002)">
<title>hierarchy</title>
<polygon fill="#ffffff" stroke="transparent" points="-4,4 -4,-501.0002 3689,-501.0002 3689,4 -4,4"/>
<!-- doc_0 -->
<g id="node1" class="node">
<title>doc_0</title>
<ellipse fill="none" stroke="#000000" cx="846.5" cy="-479.0002" rx="42.1216" ry="18"/>
<text text-anchor="middle" x="846.5" y="-474.8002" font-family="Helvetica,sans-Serif" font-size="14.00" fill="#000000">doc &#45; 47</text>
</g>
<!-- section_1 -->
<g id="node2" class="node">
<title>section_1</title>
<ellipse fill="none" stroke="#000000" cx="846.5" cy="-407.0002" rx="60.9826" ry="18"/>
<text text-anchor="middle" x="846.5" y="-402.8002" font-family="Helvetica,sans-Serif" font-size="14.00" fill="#000000">section: 1&#45;30</text>
</g>
<!-- doc_0&#45;&gt;section_1 -->
<g id="edge1" class="edge">
<title>doc_0&#45;&gt;section_1</title>
<path fill="none" stroke="#000000" stroke-dasharray="5,2" d="M846.5,-460.8315C846.5,-453.1311 846.5,-443.9745 846.5,-435.4168"/>
<polygon fill="#000000" stroke="#000000" points="850.0001,-435.4134 846.5,-425.4134 843.0001,-435.4135 850.0001,-435.4134"/>
</g>
<!-- header_2 -->
<g id="node3" class="node">
<title>header_2</title>
<ellipse fill="none" stroke="#000000" cx="575.5" cy="-335.0002" rx="45.9804" ry="18"/>
<text text-anchor="middle" x="575.5" y="-330.8002" font-family="Helvetica,sans-Serif" font-size="14.00" fill="#000000">1 : Stator</text>
</g>
<!-- section_1&#45;&gt;header_2 -->
<g id="edge2" class="edge">
<title>section_1&#45;&gt;header_2</title>
<path fill="none" stroke="#000000" stroke-dasharray="5,2" d="M801.1407,-394.949C751.9435,-381.8781 673.7318,-361.0986 623.5181,-347.7577"/>
<polygon fill="#000000" stroke="#000000" points="624.1206,-344.2965 613.5572,-345.1113 622.3232,-351.0618 624.1206,-344.2965"/>
</g>
<!-- prose_3 -->
<g id="node4" class="node">
<title>prose_3</title>
<ellipse fill="none" stroke="#000000" cx="691.5" cy="-335.0002" rx="32.4585" ry="18"/>
<text text-anchor="middle" x="691.5" y="-330.8002" font-family="Helvetica,sans-Serif" font-size="14.00" fill="#000000">prose</text>
</g>
<!-- section_1&#45;&gt;prose_3 -->
<g id="edge3" class="edge">
<title>section_1&#45;&gt;prose_3</title>
<path fill="none" stroke="#000000" stroke-dasharray="5,2" d="M813.6285,-391.7308C787.8271,-379.7457 752.0148,-363.1102 725.8426,-350.9529"/>
<polygon fill="#000000" stroke="#000000" points="727.2166,-347.732 716.6728,-346.6933 724.2676,-354.0805 727.2166,-347.732"/>
</g>
<!-- prose_4 -->
<g id="node5" class="node">
<title>prose_4</title>
<ellipse fill="none" stroke="#000000" cx="783.5" cy="-335.0002" rx="32.4585" ry="18"/>
<text text-anchor="middle" x="783.5" y="-330.8002" font-family="Helvetica,sans-Serif" font-size="14.00" fill="#000000">prose</text>
</g>
<!-- section_1&#45;&gt;prose_4 -->
<g id="edge4" class="edge">
<title>section_1&#45;&gt;prose_4</title>
<path fill="none" stroke="#000000" stroke-dasharray="5,2" d="M831.2495,-389.571C823.2038,-380.3759 813.2105,-368.955 804.4486,-358.9414"/>
<polygon fill="#000000" stroke="#000000" points="806.9656,-356.5029 797.7465,-351.2818 801.6975,-361.1124 806.9656,-356.5029"/>
</g>
<!-- codeblock_5 -->
<g id="node6" class="node">
<title>codeblock_5</title>
<ellipse fill="none" stroke="#000000" cx="915.5" cy="-335.0002" rx="76.6175" ry="18"/>
<text text-anchor="middle" x="915.5" y="-330.8002" font-family="Helvetica,sans-Serif" font-size="14.00" fill="#000000">code block 11&#45;13</text>
</g>
<!-- section_1&#45;&gt;codeblock_5 -->
<g id="edge5" class="edge">
<title>section_1&#45;&gt;codeblock_5</title>
<path fill="none" stroke="#000000" stroke-dasharray="5,2" d="M863.203,-389.571C871.6373,-380.77 882.0257,-369.9298 891.3153,-360.2363"/>
<polygon fill="#000000" stroke="#000000" points="894.0794,-362.4106 898.4715,-352.769 889.0254,-357.5673 894.0794,-362.4106"/>
</g>
<!-- section_6 -->
<g id="node7" class="node">
<title>section_6</title>
<ellipse fill="none" stroke="#000000" cx="1346.5" cy="-335.0002" rx="65.8187" ry="18"/>
<text text-anchor="middle" x="1346.5" y="-330.8002" font-family="Helvetica,sans-Serif" font-size="14.00" fill="#000000">section: 16&#45;30</text>
</g>
<!-- section_1&#45;&gt;section_6 -->
<g id="edge6" class="edge">
<title>section_1&#45;&gt;section_6</title>
<path fill="none" stroke="#000000" stroke-dasharray="5,2" d="M901.439,-399.0889C993.2894,-385.8625 1177.7975,-359.2933 1277.9839,-344.8665"/>
<polygon fill="#000000" stroke="#000000" points="1278.6015,-348.3137 1288.0006,-343.4241 1277.6038,-341.3852 1278.6015,-348.3137"/>
</g>
<!-- section_7 -->
<g id="node8" class="node">
<title>section_7</title>
<ellipse fill="none" stroke="#000000" cx="2509.5" cy="-335.0002" rx="65.8187" ry="18"/>
<text text-anchor="middle" x="2509.5" y="-330.8002" font-family="Helvetica,sans-Serif" font-size="14.00" fill="#000000">section: 31&#45;47</text>
</g>
<!-- section_1&#45;&gt;section_7 -->
<g id="edge7" class="edge">
<title>section_1&#45;&gt;section_7</title>
<path fill="none" stroke="#000000" stroke-dasharray="5,2" d="M906.6695,-404.3951C1161.6269,-393.3567 2152.6616,-350.4496 2434.4059,-338.2514"/>
<polygon fill="#000000" stroke="#000000" points="2434.6843,-341.7427 2444.5235,-337.8133 2434.3814,-334.7492 2434.6843,-341.7427"/>
</g>
<!-- leaf_8 -->
<g id="node9" class="node">
<title>leaf_8</title>
<polygon fill="none" stroke="#c0c0c0" points="606.5,-281.0002 534.5,-281.0002 534.5,-245.0002 606.5,-245.0002 606.5,-281.0002"/>
<text text-anchor="middle" x="570.5" y="-259.5002" font-family="Inconsolata" font-size="14.00" fill="#000000">* Stator</text>
</g>
<!-- header_2&#45;&gt;leaf_8 -->
<g id="edge8" class="edge">
<title>header_2&#45;&gt;leaf_8</title>
<path fill="none" stroke="#000000" stroke-dasharray="5,2" d="M574.2383,-316.8315C573.7035,-309.1311 573.0677,-299.9745 572.4734,-291.4168"/>
<polygon fill="#000000" stroke="#000000" points="575.9632,-291.1469 571.7787,-281.4134 568.98,-291.6319 575.9632,-291.1469"/>
</g>
<!-- raw_9 -->
<g id="node10" class="node">
<title>raw_9</title>
<ellipse fill="none" stroke="#000000" cx="651.5" cy="-263.0002" rx="27" ry="18"/>
<text text-anchor="middle" x="651.5" y="-258.8002" font-family="Helvetica,sans-Serif" font-size="14.00" fill="#000000">raw</text>
</g>
<!-- prose_3&#45;&gt;raw_9 -->
<g id="edge9" class="edge">
<title>prose_3&#45;&gt;raw_9</title>
<path fill="none" stroke="#000000" stroke-dasharray="5,2" d="M681.8171,-317.571C677.1004,-309.0808 671.3294,-298.693 666.093,-289.2676"/>
<polygon fill="#000000" stroke="#000000" points="669.0097,-287.3107 661.0937,-280.2688 662.8906,-290.7102 669.0097,-287.3107"/>
</g>
<!-- raw_11 -->
<g id="node12" class="node">
<title>raw_11</title>
<ellipse fill="none" stroke="#000000" cx="723.5" cy="-263.0002" rx="27" ry="18"/>
<text text-anchor="middle" x="723.5" y="-258.8002" font-family="Helvetica,sans-Serif" font-size="14.00" fill="#000000">raw</text>
</g>
<!-- prose_4&#45;&gt;raw_11 -->
<g id="edge11" class="edge">
<title>prose_4&#45;&gt;raw_11</title>
<path fill="none" stroke="#000000" stroke-dasharray="5,2" d="M769.8851,-318.6622C762.0279,-309.2336 752.0076,-297.2092 743.2922,-286.7508"/>
<polygon fill="#000000" stroke="#000000" points="745.7394,-284.2202 736.6487,-278.7786 740.3618,-288.7015 745.7394,-284.2202"/>
</g>
<!-- leaf_13 -->
<g id="node14" class="node">
<title>leaf_13</title>
<polygon fill="none" stroke="#c0c0c0" points="1142,-281.0002 769,-281.0002 769,-245.0002 1142,-245.0002 1142,-281.0002"/>
<text text-anchor="middle" x="955.5" y="-259.5002" font-family="Inconsolata" font-size="14.00" fill="#000000">local Stator = setmetatable({}, {__index = Stator})</text>
</g>
<!-- codeblock_5&#45;&gt;leaf_13 -->
<g id="edge13" class="edge">
<title>codeblock_5&#45;&gt;leaf_13</title>
<path fill="none" stroke="#000000" stroke-dasharray="5,2" d="M925.5937,-316.8315C930.0597,-308.7926 935.4075,-299.1667 940.3379,-290.2919"/>
<polygon fill="#000000" stroke="#000000" points="943.4735,-291.8548 945.2704,-281.4134 937.3544,-288.4552 943.4735,-291.8548"/>
</g>
<!-- header_14 -->
<g id="node15" class="node">
<title>header_14</title>
<ellipse fill="none" stroke="#000000" cx="1228.5" cy="-263.0002" rx="68.2066" ry="18"/>
<text text-anchor="middle" x="1228.5" y="-258.8002" font-family="Helvetica,sans-Serif" font-size="14.00" fill="#000000">2 : Constructor</text>
</g>
<!-- section_6&#45;&gt;header_14 -->
<g id="edge14" class="edge">
<title>section_6&#45;&gt;header_14</title>
<path fill="none" stroke="#000000" stroke-dasharray="5,2" d="M1319.4284,-318.4819C1303.2046,-308.5826 1282.3715,-295.8709 1264.7407,-285.1131"/>
<polygon fill="#000000" stroke="#000000" points="1266.2137,-281.9118 1255.8542,-279.6909 1262.5676,-287.8873 1266.2137,-281.9118"/>
</g>
<!-- prose_15 -->
<g id="node16" class="node">
<title>prose_15</title>
<ellipse fill="none" stroke="#000000" cx="1346.5" cy="-263.0002" rx="32.4585" ry="18"/>
<text text-anchor="middle" x="1346.5" y="-258.8002" font-family="Helvetica,sans-Serif" font-size="14.00" fill="#000000">prose</text>
</g>
<!-- section_6&#45;&gt;prose_15 -->
<g id="edge15" class="edge">
<title>section_6&#45;&gt;prose_15</title>
<path fill="none" stroke="#000000" stroke-dasharray="5,2" d="M1346.5,-316.8315C1346.5,-309.1311 1346.5,-299.9745 1346.5,-291.4168"/>
<polygon fill="#000000" stroke="#000000" points="1350.0001,-291.4134 1346.5,-281.4134 1343.0001,-291.4135 1350.0001,-291.4134"/>
</g>
<!-- prose_16 -->
<g id="node17" class="node">
<title>prose_16</title>
<ellipse fill="none" stroke="#000000" cx="1428.5" cy="-263.0002" rx="32.4585" ry="18"/>
<text text-anchor="middle" x="1428.5" y="-258.8002" font-family="Helvetica,sans-Serif" font-size="14.00" fill="#000000">prose</text>
</g>
<!-- section_6&#45;&gt;prose_16 -->
<g id="edge16" class="edge">
<title>section_6&#45;&gt;prose_16</title>
<path fill="none" stroke="#000000" stroke-dasharray="5,2" d="M1366.3499,-317.571C1377.4412,-307.8323 1391.3761,-295.5967 1403.2387,-285.1808"/>
<polygon fill="#000000" stroke="#000000" points="1405.8546,-287.5416 1411.0597,-278.3136 1401.236,-282.2816 1405.8546,-287.5416"/>
</g>
<!-- codeblock_17 -->
<g id="node18" class="node">
<title>codeblock_17</title>
<ellipse fill="none" stroke="#000000" cx="1621.5" cy="-263.0002" rx="77.4211" ry="18"/>
<text text-anchor="middle" x="1621.5" y="-258.8002" font-family="Helvetica,sans-Serif" font-size="14.00" fill="#000000">code block 24&#45;28</text>
</g>
<!-- section_6&#45;&gt;codeblock_17 -->
<g id="edge17" class="edge">
<title>section_6&#45;&gt;codeblock_17</title>
<path fill="none" stroke="#000000" stroke-dasharray="5,2" d="M1394.0874,-322.5409C1440.0616,-310.504 1509.9168,-292.2147 1560.0695,-279.0838"/>
<polygon fill="#000000" stroke="#000000" points="1561.037,-282.4485 1569.8244,-276.5298 1559.264,-275.6768 1561.037,-282.4485"/>
</g>
<!-- header_24 -->
<g id="node25" class="node">
<title>header_24</title>
<ellipse fill="none" stroke="#000000" cx="2203.5" cy="-263.0002" rx="40.1749" ry="18"/>
<text text-anchor="middle" x="2203.5" y="-258.8002" font-family="Helvetica,sans-Serif" font-size="14.00" fill="#000000">2 : New</text>
</g>
<!-- section_7&#45;&gt;header_24 -->
<g id="edge24" class="edge">
<title>section_7&#45;&gt;header_24</title>
<path fill="none" stroke="#000000" stroke-dasharray="5,2" d="M2459.6548,-323.2719C2401.4628,-309.5796 2306.0059,-287.1192 2249.5122,-273.8266"/>
<polygon fill="#000000" stroke="#000000" points="2249.9707,-270.3389 2239.4348,-271.4554 2248.3673,-277.1528 2249.9707,-270.3389"/>
</g>
<!-- prose_25 -->
<g id="node26" class="node">
<title>prose_25</title>
<ellipse fill="none" stroke="#000000" cx="2509.5" cy="-263.0002" rx="32.4585" ry="18"/>
<text text-anchor="middle" x="2509.5" y="-258.8002" font-family="Helvetica,sans-Serif" font-size="14.00" fill="#000000">prose</text>
</g>
<!-- section_7&#45;&gt;prose_25 -->
<g id="edge25" class="edge">
<title>section_7&#45;&gt;prose_25</title>
<path fill="none" stroke="#000000" stroke-dasharray="5,2" d="M2509.5,-316.8315C2509.5,-309.1311 2509.5,-299.9745 2509.5,-291.4168"/>
<polygon fill="#000000" stroke="#000000" points="2513.0001,-291.4134 2509.5,-281.4134 2506.0001,-291.4135 2513.0001,-291.4134"/>
</g>
<!-- codeblock_26 -->
<g id="node27" class="node">
<title>codeblock_26</title>
<ellipse fill="none" stroke="#000000" cx="2915.5" cy="-263.0002" rx="77.4211" ry="18"/>
<text text-anchor="middle" x="2915.5" y="-258.8002" font-family="Helvetica,sans-Serif" font-size="14.00" fill="#000000">code block 36&#45;42</text>
</g>
<!-- section_7&#45;&gt;codeblock_26 -->
<g id="edge26" class="edge">
<title>section_7&#45;&gt;codeblock_26</title>
<path fill="none" stroke="#000000" stroke-dasharray="5,2" d="M2564.6775,-325.215C2637.0335,-312.3834 2764.1138,-289.847 2843.8379,-275.7087"/>
<polygon fill="#000000" stroke="#000000" points="2844.5642,-279.1346 2853.7994,-273.9421 2843.3419,-272.2421 2844.5642,-279.1346"/>
</g>
<!-- codeblock_27 -->
<g id="node28" class="node">
<title>codeblock_27</title>
<ellipse fill="none" stroke="#000000" cx="3331.5" cy="-263.0002" rx="77.4211" ry="18"/>
<text text-anchor="middle" x="3331.5" y="-258.8002" font-family="Helvetica,sans-Serif" font-size="14.00" fill="#000000">code block 45&#45;47</text>
</g>
<!-- section_7&#45;&gt;codeblock_27 -->
<g id="edge27" class="edge">
<title>section_7&#45;&gt;codeblock_27</title>
<path fill="none" stroke="#000000" stroke-dasharray="5,2" d="M2572.2968,-329.4997C2718.9711,-316.6523 3084.0778,-284.6722 3248.6915,-270.2535"/>
<polygon fill="#000000" stroke="#000000" points="3249.1072,-273.7305 3258.7637,-269.3712 3248.4964,-266.7572 3249.1072,-273.7305"/>
</g>
<!-- leaf_10 -->
<g id="node11" class="node">
<title>leaf_10</title>
<polygon fill="none" stroke="#c0c0c0" points="541,-209.1004 0,-209.1004 0,-106.6998 541,-106.6998 541,-209.1004"/>
<text text-anchor="middle" x="270.5" y="-145.8002" font-family="Inconsolata" font-size="14.00" fill="#000000"> &#160;Having gotten about as far as I can with mere string concatenation, it&#39;s </text>
<text text-anchor="middle" x="270.5" y="-130.4001" font-family="Inconsolata" font-size="14.00" fill="#000000">time to put together a proper set of operations for transducing across a</text>
<text text-anchor="middle" x="270.5" y="-115.0001" font-family="Inconsolata" font-size="14.00" fill="#000000">Node. </text>
</g>
<!-- raw_9&#45;&gt;leaf_10 -->
<g id="edge10" class="edge">
<title>raw_9&#45;&gt;leaf_10</title>
<path fill="none" stroke="#000000" stroke-dasharray="5,2" d="M630.5188,-251.5588C625.6741,-249.1857 620.4787,-246.8484 615.5,-245.0002 582.5472,-232.7667 547.1991,-221.6684 512.1485,-211.8051"/>
<polygon fill="#000000" stroke="#000000" points="512.8449,-208.366 502.2726,-209.056 510.9677,-215.1096 512.8449,-208.366"/>
</g>
<!-- leaf_12 -->
<g id="node13" class="node">
<title>leaf_12</title>
<polygon fill="none" stroke="#c0c0c0" points="1065.5,-185.2005 559.5,-185.2005 559.5,-130.5997 1065.5,-130.5997 1065.5,-185.2005"/>
<text text-anchor="middle" x="812.5" y="-154.1001" font-family="Inconsolata" font-size="14.00" fill="#000000">This isn&#39;t a great place to put theory, let&#39;s build the structure and </text>
<text text-anchor="middle" x="812.5" y="-138.7001" font-family="Inconsolata" font-size="14.00" fill="#000000">flesh out from there.</text>
</g>
<!-- raw_11&#45;&gt;leaf_12 -->
<g id="edge12" class="edge">
<title>raw_11&#45;&gt;leaf_12</title>
<path fill="none" stroke="#000000" stroke-dasharray="5,2" d="M737.0172,-247.0377C748.9933,-232.8951 766.9131,-211.7337 782.2874,-193.5781"/>
<polygon fill="#000000" stroke="#000000" points="785.3504,-195.3771 789.1417,-185.4839 780.0084,-190.8534 785.3504,-195.3771"/>
</g>
<!-- leaf_18 -->
<g id="node19" class="node">
<title>leaf_18</title>
<polygon fill="none" stroke="#c0c0c0" points="1285.5,-175.9001 1171.5,-175.9001 1171.5,-139.9001 1285.5,-139.9001 1285.5,-175.9001"/>
<text text-anchor="middle" x="1228.5" y="-154.4001" font-family="Inconsolata" font-size="14.00" fill="#000000">** Constructor</text>
</g>
<!-- header_14&#45;&gt;leaf_18 -->
<g id="edge18" class="edge">
<title>header_14&#45;&gt;leaf_18</title>
<path fill="none" stroke="#000000" stroke-dasharray="5,2" d="M1228.5,-244.6931C1228.5,-228.5675 1228.5,-204.8223 1228.5,-186.243"/>
<polygon fill="#000000" stroke="#000000" points="1232.0001,-185.9973 1228.5,-175.9974 1225.0001,-185.9974 1232.0001,-185.9973"/>
</g>
<!-- raw_19 -->
<g id="node20" class="node">
<title>raw_19</title>
<ellipse fill="none" stroke="#000000" cx="1338.5" cy="-157.9001" rx="27" ry="18"/>
<text text-anchor="middle" x="1338.5" y="-153.7001" font-family="Helvetica,sans-Serif" font-size="14.00" fill="#000000">raw</text>
</g>
<!-- prose_15&#45;&gt;raw_19 -->
<g id="edge19" class="edge">
<title>prose_15&#45;&gt;raw_19</title>
<path fill="none" stroke="#000000" stroke-dasharray="5,2" d="M1345.1065,-244.6931C1343.8733,-228.4922 1342.0547,-204.6002 1340.6376,-185.9829"/>
<polygon fill="#000000" stroke="#000000" points="1344.1265,-185.7028 1339.8775,-175.9974 1337.1467,-186.2342 1344.1265,-185.7028"/>
</g>
<!-- raw_21 -->
<g id="node22" class="node">
<title>raw_21</title>
<ellipse fill="none" stroke="#000000" cx="1419.5" cy="-157.9001" rx="27" ry="18"/>
<text text-anchor="middle" x="1419.5" y="-153.7001" font-family="Helvetica,sans-Serif" font-size="14.00" fill="#000000">raw</text>
</g>
<!-- prose_16&#45;&gt;raw_21 -->
<g id="edge21" class="edge">
<title>prose_16&#45;&gt;raw_21</title>
<path fill="none" stroke="#000000" stroke-dasharray="5,2" d="M1426.9323,-244.6931C1425.545,-228.4922 1423.4991,-204.6002 1421.9048,-185.9829"/>
<polygon fill="#000000" stroke="#000000" points="1425.3902,-185.6622 1421.0497,-175.9974 1418.4158,-186.2595 1425.3902,-185.6622"/>
</g>
<!-- leaf_23 -->
<g id="node24" class="node">
<title>leaf_23</title>
<polygon fill="none" stroke="#c0c0c0" points="1908,-185.1006 1465,-185.1006 1465,-130.6996 1908,-130.6996 1908,-185.1006"/>
<text text-anchor="middle" x="1686.5" y="-169.8002" font-family="Inconsolata" font-size="14.00" fill="#000000">function call(stator)</text>
<text text-anchor="middle" x="1686.5" y="-154.4001" font-family="Inconsolata" font-size="14.00" fill="#000000"> &#160;return setmetatable({}, {__index = stator, __call = call })</text>
<text text-anchor="middle" x="1686.5" y="-139.0001" font-family="Inconsolata" font-size="14.00" fill="#000000">end</text>
</g>
<!-- codeblock_17&#45;&gt;leaf_23 -->
<g id="edge23" class="edge">
<title>codeblock_17&#45;&gt;leaf_23</title>
<path fill="none" stroke="#000000" stroke-dasharray="5,2" d="M1632.5264,-245.1714C1641.1626,-231.2072 1653.4606,-211.3222 1664.1369,-194.0596"/>
<polygon fill="#000000" stroke="#000000" points="1667.2608,-195.6625 1669.544,-185.3166 1661.3073,-191.9806 1667.2608,-195.6625"/>
</g>
<!-- leaf_20 -->
<g id="node21" class="node">
<title>leaf_20</title>
<polygon fill="none" stroke="#c0c0c0" points="1159,-70.7004 646,-70.7004 646,-.0997 1159,-.0997 1159,-70.7004"/>
<text text-anchor="middle" x="902.5" y="-23.6001" font-family="Inconsolata" font-size="14.00" fill="#000000">We set up a new stator on each Node we&#39;re transducing, so we want it to</text>
<text text-anchor="middle" x="902.5" y="-8.2" font-family="Inconsolata" font-size="14.00" fill="#000000">be quick and cheap.</text>
</g>
<!-- raw_19&#45;&gt;leaf_20 -->
<g id="edge20" class="edge">
<title>raw_19&#45;&gt;leaf_20</title>
<path fill="none" stroke="#000000" stroke-dasharray="5,2" d="M1328.3457,-140.9493C1320.5489,-129.4636 1308.7232,-114.9445 1294.5,-106.8001 1279.2708,-98.0795 1214.5207,-85.0535 1141.9022,-72.5057"/>
<polygon fill="#000000" stroke="#000000" points="1142.0555,-68.9809 1131.6076,-70.7388 1140.8714,-75.88 1142.0555,-68.9809"/>
</g>
<!-- leaf_22 -->
<g id="node23" class="node">
<title>leaf_22</title>
<polygon fill="none" stroke="#c0c0c0" points="1662,-62.7005 1177,-62.7005 1177,-8.0996 1662,-8.0996 1662,-62.7005"/>
<text text-anchor="middle" x="1419.5" y="-31.6001" font-family="Inconsolata" font-size="14.00" fill="#000000">I recommend either lifting this method or providing an override if </text>
<text text-anchor="middle" x="1419.5" y="-16.2" font-family="Inconsolata" font-size="14.00" fill="#000000">subclassing Stator. </text>
</g>
<!-- raw_21&#45;&gt;leaf_22 -->
<g id="edge22" class="edge">
<title>raw_21&#45;&gt;leaf_22</title>
<path fill="none" stroke="#000000" stroke-dasharray="5,2" d="M1419.5,-139.8248C1419.5,-122.3586 1419.5,-95.3622 1419.5,-73.1943"/>
<polygon fill="#000000" stroke="#000000" points="1423.0001,-73.0824 1419.5,-63.0824 1416.0001,-73.0824 1423.0001,-73.0824"/>
</g>
<!-- leaf_28 -->
<g id="node29" class="node">
<title>leaf_28</title>
<polygon fill="none" stroke="#c0c0c0" points="2062.5,-175.9001 2008.5,-175.9001 2008.5,-139.9001 2062.5,-139.9001 2062.5,-175.9001"/>
<text text-anchor="middle" x="2035.5" y="-154.4001" font-family="Inconsolata" font-size="14.00" fill="#000000">* New</text>
</g>
<!-- header_24&#45;&gt;leaf_28 -->
<g id="edge28" class="edge">
<title>header_24&#45;&gt;leaf_28</title>
<path fill="none" stroke="#000000" stroke-dasharray="5,2" d="M2168.1465,-254.4682C2139.8016,-246.314 2100.1619,-231.8333 2071.5,-209.0002 2063.1845,-202.3757 2055.9612,-193.3378 2050.2121,-184.7038"/>
<polygon fill="#000000" stroke="#000000" points="2053.0294,-182.6069 2044.7705,-175.9705 2047.0883,-186.3087 2053.0294,-182.6069"/>
</g>
<!-- raw_29 -->
<g id="node30" class="node">
<title>raw_29</title>
<ellipse fill="none" stroke="#000000" cx="2107.5" cy="-157.9001" rx="27" ry="18"/>
<text text-anchor="middle" x="2107.5" y="-153.7001" font-family="Helvetica,sans-Serif" font-size="14.00" fill="#000000">raw</text>
</g>
<!-- prose_25&#45;&gt;raw_29 -->
<g id="edge29" class="edge">
<title>prose_25&#45;&gt;raw_29</title>
<path fill="none" stroke="#000000" stroke-dasharray="5,2" d="M2477.2374,-261.4721C2398.579,-257.2422 2199.2917,-243.3424 2143.5,-209.0002 2133.8353,-203.0511 2126.0592,-193.435 2120.2415,-184.1407"/>
<polygon fill="#000000" stroke="#000000" points="2123.2749,-182.3945 2115.266,-175.4584 2117.2014,-185.875 2123.2749,-182.3945"/>
</g>
<!-- prespace_30 -->
<g id="node31" class="node">
<title>prespace_30</title>
<ellipse fill="none" stroke="#000000" cx="2198.5" cy="-157.9001" rx="46.4736" ry="18"/>
<text text-anchor="middle" x="2198.5" y="-153.7001" font-family="Helvetica,sans-Serif" font-size="14.00" fill="#000000">prespace</text>
</g>
<!-- prose_25&#45;&gt;prespace_30 -->
<g id="edge30" class="edge">
<title>prose_25&#45;&gt;prespace_30</title>
<path fill="none" stroke="#000000" stroke-dasharray="5,2" d="M2477.0927,-261.5556C2426.8234,-258.1594 2328.1753,-246.813 2254.5,-209.0002 2241.7496,-202.4562 2229.7142,-192.2339 2220.0924,-182.6464"/>
<polygon fill="#000000" stroke="#000000" points="2222.3744,-179.9694 2212.9259,-175.176 2217.3229,-184.8153 2222.3744,-179.9694"/>
</g>
<!-- literal_31 -->
<g id="node32" class="node">
<title>literal_31</title>
<ellipse fill="none" stroke="#000000" cx="2294.5" cy="-157.9001" rx="31.481" ry="18"/>
<text text-anchor="middle" x="2294.5" y="-153.7001" font-family="Helvetica,sans-Serif" font-size="14.00" fill="#000000">literal</text>
</g>
<!-- prose_25&#45;&gt;literal_31 -->
<g id="edge31" class="edge">
<title>prose_25&#45;&gt;literal_31</title>
<path fill="none" stroke="#000000" stroke-dasharray="5,2" d="M2477.9379,-259.0873C2440.848,-253.2454 2378.7585,-239.4726 2334.5,-209.0002 2324.9363,-202.4154 2316.59,-192.8504 2310.0309,-183.772"/>
<polygon fill="#000000" stroke="#000000" points="2312.8167,-181.6439 2304.3085,-175.3303 2307.0224,-185.5716 2312.8167,-181.6439"/>
</g>
<!-- raw_32 -->
<g id="node33" class="node">
<title>raw_32</title>
<ellipse fill="none" stroke="#000000" cx="2370.5" cy="-157.9001" rx="27" ry="18"/>
<text text-anchor="middle" x="2370.5" y="-153.7001" font-family="Helvetica,sans-Serif" font-size="14.00" fill="#000000">raw</text>
</g>
<!-- prose_25&#45;&gt;raw_32 -->
<g id="edge32" class="edge">
<title>prose_25&#45;&gt;raw_32</title>
<path fill="none" stroke="#000000" stroke-dasharray="5,2" d="M2482.414,-252.981C2460.2994,-243.8749 2429.1178,-228.8362 2406.5,-209.0002 2398.3003,-201.809 2390.9905,-192.3886 2385.1355,-183.5976"/>
<polygon fill="#000000" stroke="#000000" points="2388.0834,-181.7107 2379.7863,-175.1222 2382.1638,-185.4468 2388.0834,-181.7107"/>
</g>
<!-- prespace_33 -->
<g id="node34" class="node">
<title>prespace_33</title>
<ellipse fill="none" stroke="#000000" cx="2461.5" cy="-157.9001" rx="46.4736" ry="18"/>
<text text-anchor="middle" x="2461.5" y="-153.7001" font-family="Helvetica,sans-Serif" font-size="14.00" fill="#000000">prespace</text>
</g>
<!-- prose_25&#45;&gt;prespace_33 -->
<g id="edge33" class="edge">
<title>prose_25&#45;&gt;prespace_33</title>
<path fill="none" stroke="#000000" stroke-dasharray="5,2" d="M2501.3575,-245.1714C2493.841,-228.7136 2482.5686,-204.0317 2473.9275,-185.1113"/>
<polygon fill="#000000" stroke="#000000" points="2477.0206,-183.4586 2469.6825,-175.8164 2470.6532,-186.3666 2477.0206,-183.4586"/>
</g>
<!-- literal_34 -->
<g id="node35" class="node">
<title>literal_34</title>
<ellipse fill="none" stroke="#000000" cx="2557.5" cy="-157.9001" rx="31.481" ry="18"/>
<text text-anchor="middle" x="2557.5" y="-153.7001" font-family="Helvetica,sans-Serif" font-size="14.00" fill="#000000">literal</text>
</g>
<!-- prose_25&#45;&gt;literal_34 -->
<g id="edge34" class="edge">
<title>prose_25&#45;&gt;literal_34</title>
<path fill="none" stroke="#000000" stroke-dasharray="5,2" d="M2517.6425,-245.1714C2525.2045,-228.6138 2536.5681,-203.7322 2545.2293,-184.7679"/>
<polygon fill="#000000" stroke="#000000" points="2548.507,-186.0159 2549.4777,-175.4656 2542.1396,-183.1078 2548.507,-186.0159"/>
</g>
<!-- raw_35 -->
<g id="node36" class="node">
<title>raw_35</title>
<ellipse fill="none" stroke="#000000" cx="2633.5" cy="-157.9001" rx="27" ry="18"/>
<text text-anchor="middle" x="2633.5" y="-153.7001" font-family="Helvetica,sans-Serif" font-size="14.00" fill="#000000">raw</text>
</g>
<!-- prose_25&#45;&gt;raw_35 -->
<g id="edge35" class="edge">
<title>prose_25&#45;&gt;raw_35</title>
<path fill="none" stroke="#000000" stroke-dasharray="5,2" d="M2534.4858,-251.1796C2553.1882,-241.5425 2578.6794,-226.6646 2597.5,-209.0002 2605.4523,-201.5364 2612.709,-192.0574 2618.5907,-183.2958"/>
<polygon fill="#000000" stroke="#000000" points="2621.5389,-185.1822 2623.9889,-174.8745 2615.6457,-181.4045 2621.5389,-185.1822"/>
</g>
<!-- prespace_36 -->
<g id="node37" class="node">
<title>prespace_36</title>
<ellipse fill="none" stroke="#000000" cx="2724.5" cy="-157.9001" rx="46.4736" ry="18"/>
<text text-anchor="middle" x="2724.5" y="-153.7001" font-family="Helvetica,sans-Serif" font-size="14.00" fill="#000000">prespace</text>
</g>
<!-- prose_25&#45;&gt;prespace_36 -->
<g id="edge36" class="edge">
<title>prose_25&#45;&gt;prespace_36</title>
<path fill="none" stroke="#000000" stroke-dasharray="5,2" d="M2540.0233,-256.7628C2573.4842,-249.0279 2627.9373,-233.7492 2669.5,-209.0002 2681.5177,-201.8441 2693.1246,-191.7082 2702.5533,-182.3482"/>
<polygon fill="#000000" stroke="#000000" points="2705.1568,-184.6913 2709.6143,-175.0798 2700.1358,-179.8137 2705.1568,-184.6913"/>
</g>
<!-- literal_37 -->
<g id="node38" class="node">
<title>literal_37</title>
<ellipse fill="none" stroke="#000000" cx="2820.5" cy="-157.9001" rx="31.481" ry="18"/>
<text text-anchor="middle" x="2820.5" y="-153.7001" font-family="Helvetica,sans-Serif" font-size="14.00" fill="#000000">literal</text>
</g>
<!-- prose_25&#45;&gt;literal_37 -->
<g id="edge37" class="edge">
<title>prose_25&#45;&gt;literal_37</title>
<path fill="none" stroke="#000000" stroke-dasharray="5,2" d="M2541.3998,-259.3858C2603.8596,-251.8659 2739.6685,-233.203 2779.5,-209.0002 2789.7702,-202.7597 2798.5468,-192.9661 2805.3133,-183.6153"/>
<polygon fill="#000000" stroke="#000000" points="2808.2545,-185.5137 2810.9475,-175.2668 2802.4522,-181.5979 2808.2545,-185.5137"/>
</g>
<!-- raw_38 -->
<g id="node39" class="node">
<title>raw_38</title>
<ellipse fill="none" stroke="#000000" cx="2896.5" cy="-157.9001" rx="27" ry="18"/>
<text text-anchor="middle" x="2896.5" y="-153.7001" font-family="Helvetica,sans-Serif" font-size="14.00" fill="#000000">raw</text>
</g>
<!-- prose_25&#45;&gt;raw_38 -->
<g id="edge38" class="edge">
<title>prose_25&#45;&gt;raw_38</title>
<path fill="none" stroke="#000000" stroke-dasharray="5,2" d="M2541.8467,-261.2369C2618.2336,-256.57 2807.3745,-241.9274 2860.5,-209.0002 2870.1463,-203.0214 2877.919,-193.3998 2883.7392,-184.1095"/>
<polygon fill="#000000" stroke="#000000" points="2886.7764,-185.8487 2888.7185,-175.4334 2880.7052,-182.3644 2886.7764,-185.8487"/>
</g>
<!-- leaf_49 -->
<g id="node50" class="node">
<title>leaf_49</title>
<polygon fill="none" stroke="#c0c0c0" points="3349.5,-200.4003 2941.5,-200.4003 2941.5,-115.4 3349.5,-115.4 3349.5,-200.4003"/>
<text text-anchor="middle" x="3145.5" y="-185.2002" font-family="Inconsolata" font-size="14.00" fill="#000000">function new(Stator)</text>
<text text-anchor="middle" x="3145.5" y="-169.8002" font-family="Inconsolata" font-size="14.00" fill="#000000"> &#160;local stator = call(Stator)</text>
<text text-anchor="middle" x="3145.5" y="-154.4001" font-family="Inconsolata" font-size="14.00" fill="#000000"> &#160;stator.g, stator.G, stator._G = stator, stator, stator</text>
<text text-anchor="middle" x="3145.5" y="-139.0001" font-family="Inconsolata" font-size="14.00" fill="#000000"> &#160;return stator</text>
<text text-anchor="middle" x="3145.5" y="-123.6001" font-family="Inconsolata" font-size="14.00" fill="#000000">end</text>
</g>
<!-- codeblock_26&#45;&gt;leaf_49 -->
<g id="edge49" class="edge">
<title>codeblock_26&#45;&gt;leaf_49</title>
<path fill="none" stroke="#000000" stroke-dasharray="5,2" d="M2950.6824,-246.9233C2975.4128,-235.6226 3009.8608,-219.8814 3042.9229,-204.7734"/>
<polygon fill="#000000" stroke="#000000" points="3044.5614,-207.8728 3052.2021,-200.5332 3041.652,-201.5061 3044.5614,-207.8728"/>
</g>
<!-- leaf_50 -->
<g id="node51" class="node">
<title>leaf_50</title>
<polygon fill="none" stroke="#c0c0c0" points="3685,-175.9001 3368,-175.9001 3368,-139.9001 3685,-139.9001 3685,-175.9001"/>
<text text-anchor="middle" x="3526.5" y="-154.4001" font-family="Inconsolata" font-size="14.00" fill="#000000">return setmetatable(Stator, {__call = new})</text>
</g>
<!-- codeblock_27&#45;&gt;leaf_50 -->
<g id="edge50" class="edge">
<title>codeblock_27&#45;&gt;leaf_50</title>
<path fill="none" stroke="#000000" stroke-dasharray="5,2" d="M3362.3983,-246.3467C3395.168,-228.6847 3447.1649,-200.6597 3483.8315,-180.8973"/>
<polygon fill="#000000" stroke="#000000" points="3485.66,-183.8879 3492.8022,-176.0623 3482.3388,-177.7259 3485.66,-183.8879"/>
</g>
<!-- leaf_39 -->
<g id="node40" class="node">
<title>leaf_39</title>
<polygon fill="none" stroke="#c0c0c0" points="2179,-70.7004 1680,-70.7004 1680,-.0997 2179,-.0997 2179,-70.7004"/>
<text text-anchor="middle" x="1929.5" y="-23.6001" font-family="Inconsolata" font-size="14.00" fill="#000000">The root Stator has a global context, which is itself. &#160;This is given</text>
<text text-anchor="middle" x="1929.5" y="-8.2" font-family="Inconsolata" font-size="14.00" fill="#000000">the synonyms</text>
</g>
<!-- raw_29&#45;&gt;leaf_39 -->
<g id="edge39" class="edge">
<title>raw_29&#45;&gt;leaf_39</title>
<path fill="none" stroke="#000000" stroke-dasharray="5,2" d="M2098.2688,-140.6146C2091.8611,-129.8508 2082.5139,-116.2951 2071.5,-106.8001 2057.8337,-95.0183 2041.8842,-84.5969 2025.7095,-75.6096"/>
<polygon fill="#000000" stroke="#000000" points="2027.1774,-72.4249 2016.7134,-70.7647 2023.8582,-78.588 2027.1774,-72.4249"/>
</g>
<!-- leaf_40 -->
<g id="node41" class="node">
<title>leaf_40</title>
<polygon fill="none" stroke="#c0c0c0" points="2251.5,-53.4 2197.5,-53.4 2197.5,-17.4 2251.5,-17.4 2251.5,-53.4"/>
<text text-anchor="middle" x="2224.5" y="-31.9" font-family="Inconsolata" font-size="14.00" fill="#000000"> </text>
</g>
<!-- prespace_30&#45;&gt;leaf_40 -->
<g id="edge40" class="edge">
<title>prespace_30&#45;&gt;leaf_40</title>
<path fill="none" stroke="#000000" stroke-dasharray="5,2" d="M2202.3364,-139.8248C2206.5992,-119.7402 2213.5368,-87.0536 2218.5151,-63.5982"/>
<polygon fill="#000000" stroke="#000000" points="2221.9953,-64.0583 2220.6479,-53.5495 2215.1479,-62.6049 2221.9953,-64.0583"/>
</g>
<!-- leaf_41 -->
<g id="node42" class="node">
<title>leaf_41</title>
<polygon fill="none" stroke="#c0c0c0" points="2323.5,-53.4 2269.5,-53.4 2269.5,-17.4 2323.5,-17.4 2323.5,-53.4"/>
<text text-anchor="middle" x="2296.5" y="-31.9" font-family="Inconsolata" font-size="14.00" fill="#000000">G</text>
</g>
<!-- literal_31&#45;&gt;leaf_41 -->
<g id="edge41" class="edge">
<title>literal_31&#45;&gt;leaf_41</title>
<path fill="none" stroke="#000000" stroke-dasharray="5,2" d="M2294.7951,-139.8248C2295.123,-119.7402 2295.6567,-87.0536 2296.0396,-63.5982"/>
<polygon fill="#000000" stroke="#000000" points="2299.5399,-63.6053 2296.2037,-53.5495 2292.5408,-63.491 2299.5399,-63.6053"/>
</g>
<!-- leaf_42 -->
<g id="node43" class="node">
<title>leaf_42</title>
<polygon fill="none" stroke="#c0c0c0" points="2397.5,-53.4 2343.5,-53.4 2343.5,-17.4 2397.5,-17.4 2397.5,-53.4"/>
<text text-anchor="middle" x="2370.5" y="-31.9" font-family="Inconsolata" font-size="14.00" fill="#000000">,</text>
</g>
<!-- raw_32&#45;&gt;leaf_42 -->
<g id="edge42" class="edge">
<title>raw_32&#45;&gt;leaf_42</title>
<path fill="none" stroke="#000000" stroke-dasharray="5,2" d="M2370.5,-139.8248C2370.5,-119.7402 2370.5,-87.0536 2370.5,-63.5982"/>
<polygon fill="#000000" stroke="#000000" points="2374.0001,-63.5495 2370.5,-53.5495 2367.0001,-63.5495 2374.0001,-63.5495"/>
</g>
<!-- leaf_43 -->
<g id="node44" class="node">
<title>leaf_43</title>
<polygon fill="none" stroke="#c0c0c0" points="2488.5,-53.4 2434.5,-53.4 2434.5,-17.4 2488.5,-17.4 2488.5,-53.4"/>
<text text-anchor="middle" x="2461.5" y="-31.9" font-family="Inconsolata" font-size="14.00" fill="#000000"> </text>
</g>
<!-- prespace_33&#45;&gt;leaf_43 -->
<g id="edge43" class="edge">
<title>prespace_33&#45;&gt;leaf_43</title>
<path fill="none" stroke="#000000" stroke-dasharray="5,2" d="M2461.5,-139.8248C2461.5,-119.7402 2461.5,-87.0536 2461.5,-63.5982"/>
<polygon fill="#000000" stroke="#000000" points="2465.0001,-63.5495 2461.5,-53.5495 2458.0001,-63.5495 2465.0001,-63.5495"/>
</g>
<!-- leaf_44 -->
<g id="node45" class="node">
<title>leaf_44</title>
<polygon fill="none" stroke="#c0c0c0" points="2584.5,-53.4 2530.5,-53.4 2530.5,-17.4 2584.5,-17.4 2584.5,-53.4"/>
<text text-anchor="middle" x="2557.5" y="-31.9" font-family="Inconsolata" font-size="14.00" fill="#000000">g</text>
</g>
<!-- literal_34&#45;&gt;leaf_44 -->
<g id="edge44" class="edge">
<title>literal_34&#45;&gt;leaf_44</title>
<path fill="none" stroke="#000000" stroke-dasharray="5,2" d="M2557.5,-139.8248C2557.5,-119.7402 2557.5,-87.0536 2557.5,-63.5982"/>
<polygon fill="#000000" stroke="#000000" points="2561.0001,-63.5495 2557.5,-53.5495 2554.0001,-63.5495 2561.0001,-63.5495"/>
</g>
<!-- leaf_45 -->
<g id="node46" class="node">
<title>leaf_45</title>
<polygon fill="none" stroke="#c0c0c0" points="2660.5,-53.4 2606.5,-53.4 2606.5,-17.4 2660.5,-17.4 2660.5,-53.4"/>
<text text-anchor="middle" x="2633.5" y="-31.9" font-family="Inconsolata" font-size="14.00" fill="#000000"> and</text>
</g>
<!-- raw_35&#45;&gt;leaf_45 -->
<g id="edge45" class="edge">
<title>raw_35&#45;&gt;leaf_45</title>
<path fill="none" stroke="#000000" stroke-dasharray="5,2" d="M2633.5,-139.8248C2633.5,-119.7402 2633.5,-87.0536 2633.5,-63.5982"/>
<polygon fill="#000000" stroke="#000000" points="2637.0001,-63.5495 2633.5,-53.5495 2630.0001,-63.5495 2637.0001,-63.5495"/>
</g>
<!-- leaf_46 -->
<g id="node47" class="node">
<title>leaf_46</title>
<polygon fill="none" stroke="#c0c0c0" points="2751.5,-53.4 2697.5,-53.4 2697.5,-17.4 2751.5,-17.4 2751.5,-53.4"/>
<text text-anchor="middle" x="2724.5" y="-31.9" font-family="Inconsolata" font-size="14.00" fill="#000000"> </text>
</g>
<!-- prespace_36&#45;&gt;leaf_46 -->
<g id="edge46" class="edge">
<title>prespace_36&#45;&gt;leaf_46</title>
<path fill="none" stroke="#000000" stroke-dasharray="5,2" d="M2724.5,-139.8248C2724.5,-119.7402 2724.5,-87.0536 2724.5,-63.5982"/>
<polygon fill="#000000" stroke="#000000" points="2728.0001,-63.5495 2724.5,-53.5495 2721.0001,-63.5495 2728.0001,-63.5495"/>
</g>
<!-- leaf_47 -->
<g id="node48" class="node">
<title>leaf_47</title>
<polygon fill="none" stroke="#c0c0c0" points="2835.5,-53.4 2781.5,-53.4 2781.5,-17.4 2835.5,-17.4 2835.5,-53.4"/>
<text text-anchor="middle" x="2808.5" y="-31.9" font-family="Inconsolata" font-size="14.00" fill="#000000">_G</text>
</g>
<!-- literal_37&#45;&gt;leaf_47 -->
<g id="edge47" class="edge">
<title>literal_37&#45;&gt;leaf_47</title>
<path fill="none" stroke="#000000" stroke-dasharray="5,2" d="M2818.7294,-139.8248C2816.7619,-119.7402 2813.5599,-87.0536 2811.2623,-63.5982"/>
<polygon fill="#000000" stroke="#000000" points="2814.7362,-63.1606 2810.2779,-53.5495 2807.7696,-63.8431 2814.7362,-63.1606"/>
</g>
<!-- leaf_48 -->
<g id="node49" class="node">
<title>leaf_48</title>
<polygon fill="none" stroke="#c0c0c0" points="3051.5,-53.4 2853.5,-53.4 2853.5,-17.4 3051.5,-17.4 3051.5,-53.4"/>
<text text-anchor="middle" x="2952.5" y="-31.9" font-family="Inconsolata" font-size="14.00" fill="#000000">, to suit various styles. </text>
</g>
<!-- raw_38&#45;&gt;leaf_48 -->
<g id="edge48" class="edge">
<title>raw_38&#45;&gt;leaf_48</title>
<path fill="none" stroke="#000000" stroke-dasharray="5,2" d="M2904.4047,-140.6087C2913.6791,-120.3208 2929.1705,-86.4334 2940.0605,-62.6115"/>
<polygon fill="#000000" stroke="#000000" points="2943.2968,-63.9502 2944.2713,-53.4003 2936.9305,-61.0398 2943.2968,-63.9502"/>
</g>
</g>
</svg>