<?xml version="1.0" encoding="UTF-8" standalone="no"?>
<!DOCTYPE svg PUBLIC "-//W3C//DTD SVG 1.1//EN"
 "http://www.w3.org/Graphics/SVG/1.1/DTD/svg11.dtd">
<!-- Generated by graphviz version 2.40.1 (20161225.0304)
 -->
<!-- Title: lpegNode Pages: 1 -->
<svg width="1102pt" height="1238pt"
 viewBox="0.00 0.00 1101.50 1237.80" xmlns="http://www.w3.org/2000/svg" xmlns:xlink="http://www.w3.org/1999/xlink">
<g id="graph0" class="graph" transform="scale(1 1) rotate(0) translate(4 1233.8012)">
<title>lpegNode</title>
<polygon fill="#ffffff" stroke="transparent" points="-4,4 -4,-1233.8012 1097.5,-1233.8012 1097.5,4 -4,4"/>
<!-- doc_0 -->
<g id="node1" class="node">
<title>doc_0</title>
<ellipse fill="none" stroke="#000000" cx="377" cy="-1211.8012" rx="42.1216" ry="18"/>
<text text-anchor="middle" x="377" y="-1207.6012" font-family="Helvetica,sans-Serif" font-size="14.00" fill="#000000">doc &#45; 62</text>
</g>
<!-- section_1 -->
<g id="node2" class="node">
<title>section_1</title>
<ellipse fill="none" stroke="#000000" cx="377" cy="-1139.8012" rx="60.9826" ry="18"/>
<text text-anchor="middle" x="377" y="-1135.6012" font-family="Helvetica,sans-Serif" font-size="14.00" fill="#000000">section: 1&#45;62</text>
</g>
<!-- doc_0&#45;&gt;section_1 -->
<g id="edge1" class="edge">
<title>doc_0&#45;&gt;section_1</title>
<path fill="none" stroke="#000000" stroke-dasharray="5,2" d="M377,-1193.6325C377,-1185.9321 377,-1176.7755 377,-1168.2178"/>
<polygon fill="#000000" stroke="#000000" points="380.5001,-1168.2144 377,-1158.2144 373.5001,-1168.2145 380.5001,-1168.2144"/>
</g>
<!-- header_2 -->
<g id="node3" class="node">
<title>header_2</title>
<ellipse fill="none" stroke="#000000" cx="221" cy="-1067.8012" rx="36.3165" ry="18"/>
<text text-anchor="middle" x="221" y="-1063.6012" font-family="Helvetica,sans-Serif" font-size="14.00" fill="#000000">1 : Dot</text>
</g>
<!-- section_1&#45;&gt;header_2 -->
<g id="edge2" class="edge">
<title>section_1&#45;&gt;header_2</title>
<path fill="none" stroke="#000000" stroke-dasharray="5,2" d="M343.9164,-1124.5318C318.4265,-1112.7672 283.2285,-1096.522 257.0283,-1084.4296"/>
<polygon fill="#000000" stroke="#000000" points="258.3637,-1081.1912 247.8174,-1080.1784 255.4302,-1087.5469 258.3637,-1081.1912"/>
</g>
<!-- prose_3 -->
<g id="node4" class="node">
<title>prose_3</title>
<ellipse fill="none" stroke="#000000" cx="336" cy="-1067.8012" rx="32.4585" ry="18"/>
<text text-anchor="middle" x="336" y="-1063.6012" font-family="Helvetica,sans-Serif" font-size="14.00" fill="#000000">prose</text>
</g>
<!-- section_1&#45;&gt;prose_3 -->
<g id="edge3" class="edge">
<title>section_1&#45;&gt;prose_3</title>
<path fill="none" stroke="#000000" stroke-dasharray="5,2" d="M366.8652,-1122.0034C362.0632,-1113.5707 356.2315,-1103.3297 350.9358,-1094.0299"/>
<polygon fill="#000000" stroke="#000000" points="353.8667,-1092.1036 345.8768,-1085.1457 347.7838,-1095.5676 353.8667,-1092.1036"/>
</g>
<!-- prose_4 -->
<g id="node5" class="node">
<title>prose_4</title>
<ellipse fill="none" stroke="#000000" cx="449" cy="-1067.8012" rx="32.4585" ry="18"/>
<text text-anchor="middle" x="449" y="-1063.6012" font-family="Helvetica,sans-Serif" font-size="14.00" fill="#000000">prose</text>
</g>
<!-- section_1&#45;&gt;prose_4 -->
<g id="edge4" class="edge">
<title>section_1&#45;&gt;prose_4</title>
<path fill="none" stroke="#000000" stroke-dasharray="5,2" d="M394.4292,-1122.372C403.9403,-1112.8609 415.8329,-1100.9683 426.0861,-1090.715"/>
<polygon fill="#000000" stroke="#000000" points="428.6086,-1093.1423 433.2049,-1083.5963 423.6589,-1088.1925 428.6086,-1093.1423"/>
</g>
<!-- codeblock_5 -->
<g id="node6" class="node">
<title>codeblock_5</title>
<ellipse fill="none" stroke="#000000" cx="694" cy="-1067.8012" rx="72.5844" ry="18"/>
<text text-anchor="middle" x="694" y="-1063.6012" font-family="Helvetica,sans-Serif" font-size="14.00" fill="#000000">code block 7&#45;62</text>
</g>
<!-- section_1&#45;&gt;codeblock_5 -->
<g id="edge5" class="edge">
<title>section_1&#45;&gt;codeblock_5</title>
<path fill="none" stroke="#000000" stroke-dasharray="5,2" d="M425.4905,-1128.7875C480.4467,-1116.3054 570.2201,-1095.9152 630.6681,-1082.1857"/>
<polygon fill="#000000" stroke="#000000" points="631.5035,-1085.5852 640.4799,-1079.9571 629.953,-1078.759 631.5035,-1085.5852"/>
</g>
<!-- leaf_6 -->
<g id="node7" class="node">
<title>leaf_6</title>
<polygon fill="none" stroke="#c0c0c0" points="204,-606.6006 150,-606.6006 150,-570.6006 204,-570.6006 204,-606.6006"/>
<text text-anchor="middle" x="177" y="-585.1006" font-family="Inconsolata" font-size="14.00" fill="#000000">* Dot</text>
</g>
<!-- header_2&#45;&gt;leaf_6 -->
<g id="edge6" class="edge">
<title>header_2&#45;&gt;leaf_6</title>
<path fill="none" stroke="#000000" stroke-dasharray="5,2" d="M218.051,-1049.8385C216.4013,-1039.3509 214.4013,-1025.8509 213,-1013.8012 195.6573,-864.6696 183.2121,-685.1868 178.7788,-616.8653"/>
<polygon fill="#000000" stroke="#000000" points="182.271,-616.631 178.1365,-606.8762 175.2854,-617.0802 182.271,-616.631"/>
</g>
<!-- raw_7 -->
<g id="node8" class="node">
<title>raw_7</title>
<ellipse fill="none" stroke="#000000" cx="249" cy="-588.6006" rx="27" ry="18"/>
<text text-anchor="middle" x="249" y="-584.4006" font-family="Helvetica,sans-Serif" font-size="14.00" fill="#000000">raw</text>
</g>
<!-- prose_3&#45;&gt;raw_7 -->
<g id="edge7" class="edge">
<title>prose_3&#45;&gt;raw_7</title>
<path fill="none" stroke="#000000" stroke-dasharray="5,2" d="M316.8437,-1053.2246C305.4955,-1043.4204 292.0035,-1029.4567 285,-1013.8012 223.2605,-875.79 237.0791,-687.5989 245.2235,-616.9432"/>
<polygon fill="#000000" stroke="#000000" points="248.7437,-616.9861 246.4694,-606.6382 241.7943,-616.1458 248.7437,-616.9861"/>
</g>
<!-- link_8 -->
<g id="node9" class="node">
<title>link_8</title>
<ellipse fill="none" stroke="#000000" cx="321" cy="-588.6006" rx="27" ry="18"/>
<text text-anchor="middle" x="321" y="-584.4006" font-family="Helvetica,sans-Serif" font-size="14.00" fill="#000000">link</text>
</g>
<!-- prose_3&#45;&gt;link_8 -->
<g id="edge8" class="edge">
<title>prose_3&#45;&gt;link_8</title>
<path fill="none" stroke="#000000" stroke-dasharray="5,2" d="M335.4303,-1049.6011C333.1494,-976.7339 324.6658,-705.7124 321.8873,-616.947"/>
<polygon fill="#000000" stroke="#000000" points="325.3815,-616.7044 321.5703,-606.8188 318.3849,-616.9235 325.3815,-616.7044"/>
</g>
<!-- raw_9 -->
<g id="node10" class="node">
<title>raw_9</title>
<ellipse fill="none" stroke="#000000" cx="393" cy="-588.6006" rx="27" ry="18"/>
<text text-anchor="middle" x="393" y="-584.4006" font-family="Helvetica,sans-Serif" font-size="14.00" fill="#000000">raw</text>
</g>
<!-- prose_3&#45;&gt;raw_9 -->
<g id="edge9" class="edge">
<title>prose_3&#45;&gt;raw_9</title>
<path fill="none" stroke="#000000" stroke-dasharray="5,2" d="M344.3204,-1050.2086C348.8438,-1039.8444 354.0938,-1026.3444 357,-1013.8012 390.9676,-867.1966 393.6959,-685.534 393.3741,-616.7551"/>
<polygon fill="#000000" stroke="#000000" points="396.8737,-616.6825 393.3006,-606.7084 389.8739,-616.7338 396.8737,-616.6825"/>
</g>
<!-- raw_16 -->
<g id="node17" class="node">
<title>raw_16</title>
<ellipse fill="none" stroke="#000000" cx="465" cy="-588.6006" rx="27" ry="18"/>
<text text-anchor="middle" x="465" y="-584.4006" font-family="Helvetica,sans-Serif" font-size="14.00" fill="#000000">raw</text>
</g>
<!-- prose_4&#45;&gt;raw_16 -->
<g id="edge16" class="edge">
<title>prose_4&#45;&gt;raw_16</title>
<path fill="none" stroke="#000000" stroke-dasharray="5,2" d="M449.6077,-1049.6011C452.0406,-976.7339 461.0898,-705.7124 464.0535,-616.947"/>
<polygon fill="#000000" stroke="#000000" points="467.556,-616.9301 464.3917,-606.8188 460.5599,-616.6964 467.556,-616.9301"/>
</g>
<!-- leaf_18 -->
<g id="node19" class="node">
<title>leaf_18</title>
<polygon fill="none" stroke="#c0c0c0" points="1093.5,-1014.0018 510.5,-1014.0018 510.5,-163.1994 1093.5,-163.1994 1093.5,-1014.0018"/>
<text text-anchor="middle" x="802" y="-998.6012" font-family="Inconsolata" font-size="14.00" fill="#000000">local Node &#160;&#160;&#160;= &#160;require &quot;espalier/node&quot;</text>
<text text-anchor="middle" x="802" y="-983.2011" font-family="Inconsolata" font-size="14.00" fill="#000000">local Grammar = &#160;require &quot;espalier/grammar&quot;</text>
<text text-anchor="middle" x="802" y="-967.8011" font-family="Inconsolata" font-size="14.00" fill="#000000">local L &#160;&#160;&#160;&#160;&#160;&#160;= &#160;require &quot;espalier/elpatt&quot;</text>
<text text-anchor="middle" x="802" y="-936.4011" font-family="Inconsolata" font-size="14.00" fill="#000000">local P, R, E, V, S &#160;&#160;&#160;= &#160;L.P, L.R, L.E, L.V, L.S</text>
<text text-anchor="middle" x="802" y="-905.001" font-family="Inconsolata" font-size="14.00" fill="#000000">local _ = (P&quot; &quot; + P&quot;\n&quot; + P&quot;\t&quot; + P&quot;\r&quot;)^0</text>
<text text-anchor="middle" x="802" y="-873.601" font-family="Inconsolata" font-size="14.00" fill="#000000">local IDstart = &#160;R(&quot;az&quot;, &quot;AZ&quot;) + &quot;_&quot; &#45;&#45; dot is actually latin&#45;1 but</text>
<text text-anchor="middle" x="802" y="-858.201" font-family="Inconsolata" font-size="14.00" fill="#000000">local IDrest &#160;= &#160;IDstart + R&quot;09&quot;</text>
<text text-anchor="middle" x="802" y="-826.8009" font-family="Inconsolata" font-size="14.00" fill="#000000">local num &#160;&#160;&#160;&#160;= &#160;P&quot;&#45;&quot;^0 * (P&quot;.&quot; + R&quot;09&quot;^1)</text>
<text text-anchor="middle" x="802" y="-811.4009" font-family="Inconsolata" font-size="14.00" fill="#000000"> &#160;&#160;&#160;&#160;&#160;&#160;&#160;&#160;&#160;&#160;&#160;&#160;&#160;+ &#160;R&quot;09&quot;^1 * P&quot;.&quot;^0 * R&quot;09&quot;^0</text>
<text text-anchor="middle" x="802" y="-780.0009" font-family="Inconsolata" font-size="14.00" fill="#000000">local string_patt = P&quot;\&quot;&quot; * (P(1) &#45; (P&quot;\&quot;&quot; * &#45; P&quot;\\\&quot;&quot;))^0 * P&quot;\&quot;&quot;</text>
<text text-anchor="middle" x="802" y="-748.6008" font-family="Inconsolata" font-size="14.00" fill="#000000">local function dot_fn(_ENV)</text>
<text text-anchor="middle" x="802" y="-733.2008" font-family="Inconsolata" font-size="14.00" fill="#000000"> &#160;START &quot;dot&quot;</text>
<text text-anchor="middle" x="802" y="-701.8008" font-family="Inconsolata" font-size="14.00" fill="#000000"> &#160;dot = &#160;_ * P&quot;strict&quot;^0 * _ * (P&quot;graph&quot; + P&quot;digraph&quot;)</text>
<text text-anchor="middle" x="802" y="-686.4007" font-family="Inconsolata" font-size="14.00" fill="#000000"> &#160;&#160;&#160;&#160;&#160;* &#160;_ * V&quot;ID&quot;^0 * _ * &quot;{&quot; * _ * V&quot;statment_list&quot; * _ * &quot;}&quot; * _</text>
<text text-anchor="middle" x="802" y="-655.0007" font-family="Inconsolata" font-size="14.00" fill="#000000"> &#160;statement_list = &#160;V&quot;statement&quot;^0 * _ * P&quot;;&quot;^0 * _ * V&quot;statement&quot;^0</text>
<text text-anchor="middle" x="802" y="-623.6007" font-family="Inconsolata" font-size="14.00" fill="#000000"> &#160;statement &#160;= &#160;V&quot;node_statement&quot;</text>
<text text-anchor="middle" x="802" y="-608.2007" font-family="Inconsolata" font-size="14.00" fill="#000000"> &#160;&#160;&#160;&#160;&#160;&#160;&#160;&#160;&#160;&#160;&#160;&#160;+ &#160;V&quot;edge_statement&quot;</text>
<text text-anchor="middle" x="802" y="-592.8006" font-family="Inconsolata" font-size="14.00" fill="#000000"> &#160;&#160;&#160;&#160;&#160;&#160;&#160;&#160;&#160;&#160;&#160;&#160;+ &#160;V&quot;attr_statement&quot;</text>
<text text-anchor="middle" x="802" y="-577.4006" font-family="Inconsolata" font-size="14.00" fill="#000000"> &#160;&#160;&#160;&#160;&#160;&#160;&#160;&#160;&#160;&#160;&#160;&#160;+ &#160;V&quot;ID&quot; * _ * &quot;=&quot; * _ * V&quot;ID&quot;</text>
<text text-anchor="middle" x="802" y="-562.0006" font-family="Inconsolata" font-size="14.00" fill="#000000"> &#160;&#160;&#160;&#160;&#160;&#160;&#160;&#160;&#160;&#160;&#160;&#160;+ &#160;V&quot;subgraph&quot;</text>
<text text-anchor="middle" x="802" y="-530.6005" font-family="Inconsolata" font-size="14.00" fill="#000000"> &#160;attr_statement = &#160;(P&quot;graph&quot; + &quot;node&quot; + &quot;edge&quot;) * V&quot;attr_list&quot;</text>
<text text-anchor="middle" x="802" y="-515.2005" font-family="Inconsolata" font-size="14.00" fill="#000000"> &#160;attr_list &#160;&#160;&#160;&#160;&#160;= &#160;P&quot;[&quot; * _ * V&quot;a_list&quot;^0 * _ * P&quot;]&quot; * _ * V&quot;attr_list&quot;^0</text>
<text text-anchor="middle" x="802" y="-499.8005" font-family="Inconsolata" font-size="14.00" fill="#000000"> &#160;a_list &#160;&#160;&#160;&#160;&#160;&#160;&#160;&#160;= &#160;V&quot;ID&quot; * _ * &quot;=&quot; * _ * V&quot;ID&quot;</text>
<text text-anchor="middle" x="802" y="-484.4004" font-family="Inconsolata" font-size="14.00" fill="#000000"> &#160;&#160;&#160;&#160;&#160;&#160;&#160;&#160;&#160;&#160;&#160;&#160;&#160;&#160;&#160;&#160;* (P&quot;;&quot; + P&quot;,&quot;)^0 * _ * V&quot;a_list&quot;^0</text>
<text text-anchor="middle" x="802" y="-453.0004" font-family="Inconsolata" font-size="14.00" fill="#000000"> &#160;edge_statement = &#160;(V&quot;node_id&quot; + V&quot;subgraph&quot;) * _ * V&quot;edgeRHS&quot; * V&quot;attr_list&quot;^0</text>
<text text-anchor="middle" x="802" y="-437.6004" font-family="Inconsolata" font-size="14.00" fill="#000000"> &#160;edgeRHS &#160;&#160;&#160;&#160;&#160;&#160;&#160;= &#160;V&quot;edgeop&quot; * _ * (V&quot;node_id&quot; + V&quot;subgraph&quot;) * _ * V&quot;edgeRHS&quot;^0</text>
<text text-anchor="middle" x="802" y="-406.2003" font-family="Inconsolata" font-size="14.00" fill="#000000"> &#160;node_statement = &#160;V&quot;node_id&quot; * _ * V&quot;attr_list&quot;^0</text>
<text text-anchor="middle" x="802" y="-390.8003" font-family="Inconsolata" font-size="14.00" fill="#000000"> &#160;node_id &#160;&#160;&#160;&#160;&#160;&#160;&#160;= &#160;V&quot;ID&quot; * _ * V&quot;port&quot;^0</text>
<text text-anchor="middle" x="802" y="-375.4003" font-family="Inconsolata" font-size="14.00" fill="#000000"> &#160;port &#160;&#160;&#160;&#160;&#160;&#160;&#160;&#160;&#160;&#160;= &#160;P&quot;:&quot; * _ * V&quot;ID&quot; * _ * (P&quot;:&quot; * _ * V&quot;compass_point&quot;)^0</text>
<text text-anchor="middle" x="802" y="-344.0002" font-family="Inconsolata" font-size="14.00" fill="#000000"> &#160;subgraph &#160;&#160;&#160;&#160;&#160;&#160;= &#160;(V&quot;subgraph&quot; * _ * V&quot;ID&quot;^0)^0 * _</text>
<text text-anchor="middle" x="802" y="-328.6002" font-family="Inconsolata" font-size="14.00" fill="#000000"> &#160;&#160;&#160;&#160;&#160;&#160;&#160;&#160;&#160;&#160;&#160;&#160;&#160;&#160;&#160;&#160;* &#160;&quot;{&quot; * _ * V&quot;statement_list&quot; * _ * &quot;}&quot;</text>
<text text-anchor="middle" x="802" y="-297.2002" font-family="Inconsolata" font-size="14.00" fill="#000000"> &#160;compass_point &#160;= &#160;S(&quot;n&quot;,&quot;ne&quot;,&quot;e&quot;,&quot;se&quot;,&quot;s&quot;,&quot;sw&quot;,&quot;w&quot;,&quot;nw&quot;,&quot;_&quot;)</text>
<text text-anchor="middle" x="802" y="-265.8002" font-family="Inconsolata" font-size="14.00" fill="#000000"> &#160;ID &#160;&#160;&#160;= &#160;(V&quot;IDstart&quot;^1 * V&quot;IDrest&quot;^0) + V&quot;num&quot; + V&quot;string_patt&quot;</text>
<text text-anchor="middle" x="802" y="-234.4001" font-family="Inconsolata" font-size="14.00" fill="#000000"> &#160;&#45;&#45; Add C&#45;style comments</text>
<text text-anchor="middle" x="802" y="-203.0001" font-family="Inconsolata" font-size="14.00" fill="#000000">end</text>
<text text-anchor="middle" x="802" y="-171.6001" font-family="Inconsolata" font-size="14.00" fill="#000000">return Grammar(dot_fn)</text>
</g>
<!-- codeblock_5&#45;&gt;leaf_18 -->
<g id="edge18" class="edge">
<title>codeblock_5&#45;&gt;leaf_18</title>
<path fill="none" stroke="#000000" stroke-dasharray="5,2" d="M698.1018,-1049.6011C699.6653,-1042.6638 701.6336,-1033.9305 703.9327,-1023.7295"/>
<polygon fill="#000000" stroke="#000000" points="707.3506,-1024.4828 706.1349,-1013.9579 700.5219,-1022.9437 707.3506,-1024.4828"/>
</g>
<!-- leaf_10 -->
<g id="node11" class="node">
<title>leaf_10</title>
<polygon fill="none" stroke="#c0c0c0" points="156,-127.6015 0,-127.6015 0,-71.7985 156,-71.7985 156,-127.6015"/>
<text text-anchor="middle" x="78" y="-80.2" font-family="Inconsolata" font-size="14.00" fill="#000000">Turns out there&#39;s a </text>
</g>
<!-- raw_7&#45;&gt;leaf_10 -->
<g id="edge10" class="edge">
<title>raw_7&#45;&gt;leaf_10</title>
<path fill="none" stroke="#000000" stroke-dasharray="5,2" d="M253.2294,-570.7635C266.9881,-508.1578 304.5133,-295.1218 213,-163.4 205.951,-153.2539 185.4269,-141.8296 162.4427,-131.4865"/>
<polygon fill="#000000" stroke="#000000" points="163.7494,-128.2379 153.1854,-127.4303 160.9401,-134.6494 163.7494,-128.2379"/>
</g>
<!-- anchortext_11 -->
<g id="node12" class="node">
<title>anchortext_11</title>
<ellipse fill="none" stroke="#000000" cx="225" cy="-99.7" rx="51.3018" ry="18"/>
<text text-anchor="middle" x="225" y="-95.5" font-family="Helvetica,sans-Serif" font-size="14.00" fill="#000000">anchortext</text>
</g>
<!-- link_8&#45;&gt;anchortext_11 -->
<g id="edge11" class="edge">
<title>link_8&#45;&gt;anchortext_11</title>
<path fill="none" stroke="#000000" stroke-dasharray="5,2" d="M323.5231,-570.5663C331.1949,-509.8955 349.9451,-308.838 285,-163.4 278.0892,-147.9239 265.8069,-133.839 254.1472,-122.8719"/>
<polygon fill="#000000" stroke="#000000" points="256.4177,-120.2067 246.6378,-116.1318 251.742,-125.4161 256.4177,-120.2067"/>
</g>
<!-- url_12 -->
<g id="node13" class="node">
<title>url_12</title>
<ellipse fill="none" stroke="#000000" cx="321" cy="-99.7" rx="27" ry="18"/>
<text text-anchor="middle" x="321" y="-95.5" font-family="Helvetica,sans-Serif" font-size="14.00" fill="#000000">url</text>
</g>
<!-- link_8&#45;&gt;url_12 -->
<g id="edge12" class="edge">
<title>link_8&#45;&gt;url_12</title>
<path fill="none" stroke="#000000" stroke-dasharray="5,2" d="M321,-570.3274C321,-496.2751 321,-218.1771 321,-128.0704"/>
<polygon fill="#000000" stroke="#000000" points="324.5001,-127.8052 321,-117.8052 317.5001,-127.8052 324.5001,-127.8052"/>
</g>
<!-- leaf_15 -->
<g id="node16" class="node">
<title>leaf_15</title>
<polygon fill="none" stroke="#c0c0c0" points="420,-117.7 366,-117.7 366,-81.7 420,-81.7 420,-117.7"/>
</g>
<!-- raw_9&#45;&gt;leaf_15 -->
<g id="edge15" class="edge">
<title>raw_9&#45;&gt;leaf_15</title>
<path fill="none" stroke="#000000" stroke-dasharray="5,2" d="M393,-570.3274C393,-496.2751 393,-218.1771 393,-128.0704"/>
<polygon fill="#000000" stroke="#000000" points="396.5001,-127.8052 393,-117.8052 389.5001,-127.8052 396.5001,-127.8052"/>
</g>
<!-- leaf_13 -->
<g id="node14" class="node">
<title>leaf_13</title>
<polygon fill="none" stroke="#c0c0c0" points="185.5,-36 120.5,-36 120.5,0 185.5,0 185.5,-36"/>
<text text-anchor="middle" x="153" y="-14.5" font-family="Inconsolata" font-size="14.00" fill="#000000">grammar</text>
</g>
<!-- anchortext_11&#45;&gt;leaf_13 -->
<g id="edge13" class="edge">
<title>anchortext_11&#45;&gt;leaf_13</title>
<path fill="none" stroke="#000000" stroke-dasharray="5,2" d="M209.7307,-82.3735C199.8172,-71.1245 186.7222,-56.2653 175.6114,-43.6576"/>
<polygon fill="#000000" stroke="#000000" points="178.2334,-41.3392 168.9959,-36.1509 172.9817,-45.9674 178.2334,-41.3392"/>
</g>
<!-- leaf_14 -->
<g id="node15" class="node">
<title>leaf_14</title>
<polygon fill="none" stroke="#c0c0c0" points="584,-36 204,-36 204,0 584,0 584,-36"/>
<text text-anchor="middle" x="394" y="-14.5" font-family="Inconsolata" font-size="14.00" fill="#000000">https://graphviz.gitlab.io/_pages/doc/info/lang.html</text>
</g>
<!-- url_12&#45;&gt;leaf_14 -->
<g id="edge14" class="edge">
<title>url_12&#45;&gt;leaf_14</title>
<path fill="none" stroke="#000000" stroke-dasharray="5,2" d="M335.0751,-83.9474C345.1624,-72.658 358.9805,-57.193 370.7003,-44.0766"/>
<polygon fill="#000000" stroke="#000000" points="373.6212,-46.0605 377.6742,-36.2715 368.4013,-41.3965 373.6212,-46.0605"/>
</g>
<!-- leaf_17 -->
<g id="node18" class="node">
<title>leaf_17</title>
<polygon fill="none" stroke="#c0c0c0" points="492,-119.6021 438,-119.6021 438,-79.7979 492,-79.7979 492,-119.6021"/>
<text text-anchor="middle" x="465" y="-88.2" font-family="Inconsolata" font-size="14.00" fill="#000000">So</text>
</g>
<!-- raw_16&#45;&gt;leaf_17 -->
<g id="edge17" class="edge">
<title>raw_16&#45;&gt;leaf_17</title>
<path fill="none" stroke="#000000" stroke-dasharray="5,2" d="M465,-570.3274C465,-496.7081 465,-221.4219 465,-129.6701"/>
<polygon fill="#000000" stroke="#000000" points="468.5001,-129.6587 465,-119.6587 461.5001,-129.6587 468.5001,-129.6587"/>
</g>
</g>
</svg>
