<?xml version="1.0" encoding="UTF-8" standalone="no"?>
<!DOCTYPE svg PUBLIC "-//W3C//DTD SVG 1.1//EN"
 "http://www.w3.org/Graphics/SVG/1.1/DTD/svg11.dtd">
<!-- Generated by graphviz version 2.40.1 (20161225.0304)
 -->
<!-- Title: lpegNode Pages: 1 -->
<svg width="1658pt" height="383pt"
 viewBox="0.00 0.00 1657.50 382.80" xmlns="http://www.w3.org/2000/svg" xmlns:xlink="http://www.w3.org/1999/xlink">
<g id="graph0" class="graph" transform="scale(1 1) rotate(0) translate(4 378.8001)">
<title>lpegNode</title>
<polygon fill="#ffffff" stroke="transparent" points="-4,4 -4,-378.8001 1653.5,-378.8001 1653.5,4 -4,4"/>
<!-- doc_0 -->
<g id="node1" class="node">
<title>doc_0</title>
<ellipse fill="none" stroke="#000000" cx="646.5" cy="-356.8001" rx="41.3176" ry="18"/>
<text text-anchor="middle" x="646.5" y="-352.6001" font-family="Helvetica,sans-Serif" font-size="14.00" fill="#000000">doc &#45; 11</text>
</g>
<!-- section_1 -->
<g id="node2" class="node">
<title>section_1</title>
<ellipse fill="none" stroke="#000000" cx="646.5" cy="-284.8001" rx="60.1778" ry="18"/>
<text text-anchor="middle" x="646.5" y="-280.6001" font-family="Helvetica,sans-Serif" font-size="14.00" fill="#000000">section: 1&#45;11</text>
</g>
<!-- doc_0&#45;&gt;section_1 -->
<g id="edge1" class="edge">
<title>doc_0&#45;&gt;section_1</title>
<path fill="none" stroke="#000000" stroke-dasharray="5,2" d="M646.5,-338.6314C646.5,-330.931 646.5,-321.7744 646.5,-313.2167"/>
<polygon fill="#000000" stroke="#000000" points="650.0001,-313.2133 646.5,-303.2133 643.0001,-313.2134 650.0001,-313.2133"/>
</g>
<!-- header_2 -->
<g id="node3" class="node">
<title>header_2</title>
<ellipse fill="none" stroke="#000000" cx="466.5" cy="-212.8001" rx="47.4168" ry="18"/>
<text text-anchor="middle" x="466.5" y="-208.6001" font-family="Helvetica,sans-Serif" font-size="14.00" fill="#000000">1 : Forest</text>
</g>
<!-- section_1&#45;&gt;header_2 -->
<g id="edge2" class="edge">
<title>section_1&#45;&gt;header_2</title>
<path fill="none" stroke="#000000" stroke-dasharray="5,2" d="M610.0743,-270.2298C580.7825,-258.5131 539.5866,-242.0347 508.8307,-229.7323"/>
<polygon fill="#000000" stroke="#000000" points="509.8248,-226.3604 499.2402,-225.8961 507.225,-232.8598 509.8248,-226.3604"/>
</g>
<!-- prose_3 -->
<g id="node4" class="node">
<title>prose_3</title>
<ellipse fill="none" stroke="#000000" cx="564.5" cy="-212.8001" rx="32.4585" ry="18"/>
<text text-anchor="middle" x="564.5" y="-208.6001" font-family="Helvetica,sans-Serif" font-size="14.00" fill="#000000">prose</text>
</g>
<!-- section_1&#45;&gt;prose_3 -->
<g id="edge3" class="edge">
<title>section_1&#45;&gt;prose_3</title>
<path fill="none" stroke="#000000" stroke-dasharray="5,2" d="M627.0671,-267.7371C615.8006,-257.8445 601.4965,-245.2848 589.4098,-234.6721"/>
<polygon fill="#000000" stroke="#000000" points="591.6653,-231.9948 581.8415,-228.0268 587.0466,-237.2549 591.6653,-231.9948"/>
</g>
<!-- prose_4 -->
<g id="node5" class="node">
<title>prose_4</title>
<ellipse fill="none" stroke="#000000" cx="646.5" cy="-212.8001" rx="32.4585" ry="18"/>
<text text-anchor="middle" x="646.5" y="-208.6001" font-family="Helvetica,sans-Serif" font-size="14.00" fill="#000000">prose</text>
</g>
<!-- section_1&#45;&gt;prose_4 -->
<g id="edge4" class="edge">
<title>section_1&#45;&gt;prose_4</title>
<path fill="none" stroke="#000000" stroke-dasharray="5,2" d="M646.5,-266.6314C646.5,-258.931 646.5,-249.7744 646.5,-241.2167"/>
<polygon fill="#000000" stroke="#000000" points="650.0001,-241.2133 646.5,-231.2133 643.0001,-241.2134 650.0001,-241.2133"/>
</g>
<!-- prose_5 -->
<g id="node6" class="node">
<title>prose_5</title>
<ellipse fill="none" stroke="#000000" cx="777.5" cy="-212.8001" rx="32.4585" ry="18"/>
<text text-anchor="middle" x="777.5" y="-208.6001" font-family="Helvetica,sans-Serif" font-size="14.00" fill="#000000">prose</text>
</g>
<!-- section_1&#45;&gt;prose_5 -->
<g id="edge5" class="edge">
<title>section_1&#45;&gt;prose_5</title>
<path fill="none" stroke="#000000" stroke-dasharray="5,2" d="M675.5731,-268.8209C696.1909,-257.4891 723.8692,-242.2766 745.1799,-230.5638"/>
<polygon fill="#000000" stroke="#000000" points="747.1012,-233.5017 754.1789,-225.6178 743.7295,-227.3672 747.1012,-233.5017"/>
</g>
<!-- prose_6 -->
<g id="node7" class="node">
<title>prose_6</title>
<ellipse fill="none" stroke="#000000" cx="1317.5" cy="-212.8001" rx="32.4585" ry="18"/>
<text text-anchor="middle" x="1317.5" y="-208.6001" font-family="Helvetica,sans-Serif" font-size="14.00" fill="#000000">prose</text>
</g>
<!-- section_1&#45;&gt;prose_6 -->
<g id="edge6" class="edge">
<title>section_1&#45;&gt;prose_6</title>
<path fill="none" stroke="#000000" stroke-dasharray="5,2" d="M703.1308,-278.7234C834.8786,-264.5866 1159.5282,-229.7508 1275.4885,-217.308"/>
<polygon fill="#000000" stroke="#000000" points="1276.1569,-220.7565 1285.7264,-216.2094 1275.41,-213.7964 1276.1569,-220.7565"/>
</g>
<!-- leaf_7 -->
<g id="node8" class="node">
<title>leaf_7</title>
<polygon fill="none" stroke="#c0c0c0" points="502.5,-158.8001 430.5,-158.8001 430.5,-122.8001 502.5,-122.8001 502.5,-158.8001"/>
<text text-anchor="middle" x="466.5" y="-137.3001" font-family="Inconsolata" font-size="14.00" fill="#000000">* Forest</text>
</g>
<!-- header_2&#45;&gt;leaf_7 -->
<g id="edge7" class="edge">
<title>header_2&#45;&gt;leaf_7</title>
<path fill="none" stroke="#000000" stroke-dasharray="5,2" d="M466.5,-194.6314C466.5,-186.931 466.5,-177.7744 466.5,-169.2167"/>
<polygon fill="#000000" stroke="#000000" points="470.0001,-169.2133 466.5,-159.2133 463.0001,-169.2134 470.0001,-169.2133"/>
</g>
<!-- raw_8 -->
<g id="node9" class="node">
<title>raw_8</title>
<ellipse fill="none" stroke="#000000" cx="556.5" cy="-140.8001" rx="27" ry="18"/>
<text text-anchor="middle" x="556.5" y="-136.6001" font-family="Helvetica,sans-Serif" font-size="14.00" fill="#000000">raw</text>
</g>
<!-- prose_3&#45;&gt;raw_8 -->
<g id="edge8" class="edge">
<title>prose_3&#45;&gt;raw_8</title>
<path fill="none" stroke="#000000" stroke-dasharray="5,2" d="M562.4813,-194.6314C561.6257,-186.931 560.6083,-177.7744 559.6574,-169.2167"/>
<polygon fill="#000000" stroke="#000000" points="563.1289,-168.7656 558.5459,-159.2133 556.1717,-169.5387 563.1289,-168.7656"/>
</g>
<!-- raw_10 -->
<g id="node11" class="node">
<title>raw_10</title>
<ellipse fill="none" stroke="#000000" cx="637.5" cy="-140.8001" rx="27" ry="18"/>
<text text-anchor="middle" x="637.5" y="-136.6001" font-family="Helvetica,sans-Serif" font-size="14.00" fill="#000000">raw</text>
</g>
<!-- prose_4&#45;&gt;raw_10 -->
<g id="edge10" class="edge">
<title>prose_4&#45;&gt;raw_10</title>
<path fill="none" stroke="#000000" stroke-dasharray="5,2" d="M644.2289,-194.6314C643.2664,-186.931 642.1218,-177.7744 641.0521,-169.2167"/>
<polygon fill="#000000" stroke="#000000" points="644.5151,-168.702 639.8017,-159.2133 637.5691,-169.5703 644.5151,-168.702"/>
</g>
<!-- raw_12 -->
<g id="node13" class="node">
<title>raw_12</title>
<ellipse fill="none" stroke="#000000" cx="787.5" cy="-140.8001" rx="27" ry="18"/>
<text text-anchor="middle" x="787.5" y="-136.6001" font-family="Helvetica,sans-Serif" font-size="14.00" fill="#000000">raw</text>
</g>
<!-- prose_5&#45;&gt;raw_12 -->
<g id="edge12" class="edge">
<title>prose_5&#45;&gt;raw_12</title>
<path fill="none" stroke="#000000" stroke-dasharray="5,2" d="M780.0234,-194.6314C781.0929,-186.931 782.3647,-177.7744 783.5532,-169.2167"/>
<polygon fill="#000000" stroke="#000000" points="787.0336,-169.5998 784.9426,-159.2133 780.1001,-168.6367 787.0336,-169.5998"/>
</g>
<!-- raw_14 -->
<g id="node15" class="node">
<title>raw_14</title>
<ellipse fill="none" stroke="#000000" cx="1049.5" cy="-140.8001" rx="27" ry="18"/>
<text text-anchor="middle" x="1049.5" y="-136.6001" font-family="Helvetica,sans-Serif" font-size="14.00" fill="#000000">raw</text>
</g>
<!-- prose_6&#45;&gt;raw_14 -->
<g id="edge14" class="edge">
<title>prose_6&#45;&gt;raw_14</title>
<path fill="none" stroke="#000000" stroke-dasharray="5,2" d="M1288.3091,-204.9577C1238.6038,-191.6041 1137.7468,-164.5082 1084.3995,-150.176"/>
<polygon fill="#000000" stroke="#000000" points="1085.269,-146.7856 1074.7034,-147.5711 1083.4528,-153.5459 1085.269,-146.7856"/>
</g>
<!-- prespace_15 -->
<g id="node16" class="node">
<title>prespace_15</title>
<ellipse fill="none" stroke="#000000" cx="1183.5" cy="-140.8001" rx="46.4736" ry="18"/>
<text text-anchor="middle" x="1183.5" y="-136.6001" font-family="Helvetica,sans-Serif" font-size="14.00" fill="#000000">prespace</text>
</g>
<!-- prose_6&#45;&gt;prespace_15 -->
<g id="edge15" class="edge">
<title>prose_6&#45;&gt;prespace_15</title>
<path fill="none" stroke="#000000" stroke-dasharray="5,2" d="M1294.159,-200.2586C1273.6379,-189.2324 1243.4385,-173.0058 1219.7702,-160.2885"/>
<polygon fill="#000000" stroke="#000000" points="1221.1935,-157.0801 1210.7279,-155.43 1217.8802,-163.2463 1221.1935,-157.0801"/>
</g>
<!-- literal_16 -->
<g id="node17" class="node">
<title>literal_16</title>
<ellipse fill="none" stroke="#000000" cx="1279.5" cy="-140.8001" rx="31.481" ry="18"/>
<text text-anchor="middle" x="1279.5" y="-136.6001" font-family="Helvetica,sans-Serif" font-size="14.00" fill="#000000">literal</text>
</g>
<!-- prose_6&#45;&gt;literal_16 -->
<g id="edge16" class="edge">
<title>prose_6&#45;&gt;literal_16</title>
<path fill="none" stroke="#000000" stroke-dasharray="5,2" d="M1308.3013,-195.3709C1303.8203,-186.8807 1298.3379,-176.4929 1293.3634,-167.0675"/>
<polygon fill="#000000" stroke="#000000" points="1296.377,-165.2789 1288.614,-158.0687 1290.1863,-168.5463 1296.377,-165.2789"/>
</g>
<!-- raw_17 -->
<g id="node18" class="node">
<title>raw_17</title>
<ellipse fill="none" stroke="#000000" cx="1355.5" cy="-140.8001" rx="27" ry="18"/>
<text text-anchor="middle" x="1355.5" y="-136.6001" font-family="Helvetica,sans-Serif" font-size="14.00" fill="#000000">raw</text>
</g>
<!-- prose_6&#45;&gt;raw_17 -->
<g id="edge17" class="edge">
<title>prose_6&#45;&gt;raw_17</title>
<path fill="none" stroke="#000000" stroke-dasharray="5,2" d="M1326.6987,-195.3709C1331.1797,-186.8807 1336.6621,-176.4929 1341.6366,-167.0675"/>
<polygon fill="#000000" stroke="#000000" points="1344.8137,-168.5463 1346.386,-158.0687 1338.623,-165.2789 1344.8137,-168.5463"/>
</g>
<!-- prespace_18 -->
<g id="node19" class="node">
<title>prespace_18</title>
<ellipse fill="none" stroke="#000000" cx="1446.5" cy="-140.8001" rx="46.4736" ry="18"/>
<text text-anchor="middle" x="1446.5" y="-136.6001" font-family="Helvetica,sans-Serif" font-size="14.00" fill="#000000">prespace</text>
</g>
<!-- prose_6&#45;&gt;prespace_18 -->
<g id="edge18" class="edge">
<title>prose_6&#45;&gt;prespace_18</title>
<path fill="none" stroke="#000000" stroke-dasharray="5,2" d="M1340.5626,-199.9279C1360.0533,-189.0494 1388.2982,-173.2848 1410.7226,-160.7688"/>
<polygon fill="#000000" stroke="#000000" points="1412.5956,-163.7318 1419.6217,-155.8019 1409.184,-157.6194 1412.5956,-163.7318"/>
</g>
<!-- literal_19 -->
<g id="node20" class="node">
<title>literal_19</title>
<ellipse fill="none" stroke="#000000" cx="1542.5" cy="-140.8001" rx="31.481" ry="18"/>
<text text-anchor="middle" x="1542.5" y="-136.6001" font-family="Helvetica,sans-Serif" font-size="14.00" fill="#000000">literal</text>
</g>
<!-- prose_6&#45;&gt;literal_19 -->
<g id="edge19" class="edge">
<title>prose_6&#45;&gt;literal_19</title>
<path fill="none" stroke="#000000" stroke-dasharray="5,2" d="M1347.195,-205.3424C1383.8846,-195.8419 1448.0143,-178.2982 1501.5,-158.8001 1503.8646,-157.9381 1506.2868,-157.0062 1508.7143,-156.036"/>
<polygon fill="#000000" stroke="#000000" points="1510.1076,-159.2471 1517.9921,-152.17 1507.4151,-152.7856 1510.1076,-159.2471"/>
</g>
<!-- raw_20 -->
<g id="node21" class="node">
<title>raw_20</title>
<ellipse fill="none" stroke="#000000" cx="1620.5" cy="-140.8001" rx="27" ry="18"/>
<text text-anchor="middle" x="1620.5" y="-136.6001" font-family="Helvetica,sans-Serif" font-size="14.00" fill="#000000">raw</text>
</g>
<!-- prose_6&#45;&gt;raw_20 -->
<g id="edge20" class="edge">
<title>prose_6&#45;&gt;raw_20</title>
<path fill="none" stroke="#000000" stroke-dasharray="5,2" d="M1349.1451,-208.8704C1399.4978,-202.0614 1500.5395,-186.1154 1582.5,-158.8001 1584.9239,-157.9922 1587.3953,-157.0688 1589.8559,-156.0766"/>
<polygon fill="#000000" stroke="#000000" points="1591.4075,-159.2182 1599.1695,-152.007 1588.6047,-152.8038 1591.4075,-159.2182"/>
</g>
<!-- leaf_9 -->
<g id="node10" class="node">
<title>leaf_9</title>
<polygon fill="none" stroke="#c0c0c0" points="499,-86.7003 0,-86.7003 0,-.0997 499,-.0997 499,-86.7003"/>
<text text-anchor="middle" x="249.5" y="-23.6001" font-family="Inconsolata" font-size="14.00" fill="#000000">A Forest is a dense array of Nodes, with compatible call syntax for a</text>
<text text-anchor="middle" x="249.5" y="-8.2" font-family="Inconsolata" font-size="14.00" fill="#000000">useful subset of Node operations.</text>
</g>
<!-- raw_8&#45;&gt;leaf_9 -->
<g id="edge9" class="edge">
<title>raw_8&#45;&gt;leaf_9</title>
<path fill="none" stroke="#000000" stroke-dasharray="5,2" d="M533.2888,-131.072C526.3293,-128.2757 518.646,-125.3068 511.5,-122.8001 479.048,-111.4161 444.01,-100.1243 410.4404,-89.7819"/>
<polygon fill="#000000" stroke="#000000" points="411.1328,-86.3334 400.546,-86.7477 409.0804,-93.0258 411.1328,-86.3334"/>
</g>
<!-- leaf_11 -->
<g id="node12" class="node">
<title>leaf_11</title>
<polygon fill="none" stroke="#c0c0c0" points="736,-63.3021 517,-63.3021 517,-23.4979 736,-23.4979 736,-63.3021"/>
<text text-anchor="middle" x="626.5" y="-31.9" font-family="Inconsolata" font-size="14.00" fill="#000000">&#45; [ ] #Todo @espalier/forest:</text>
</g>
<!-- raw_10&#45;&gt;leaf_11 -->
<g id="edge11" class="edge">
<title>raw_10&#45;&gt;leaf_11</title>
<path fill="none" stroke="#000000" stroke-dasharray="5,2" d="M635.431,-122.4799C633.8688,-108.6473 631.6917,-89.3704 629.8782,-73.3123"/>
<polygon fill="#000000" stroke="#000000" points="633.3492,-72.8582 628.749,-63.3141 626.3935,-73.6438 633.3492,-72.8582"/>
</g>
<!-- leaf_13 -->
<g id="node14" class="node">
<title>leaf_13</title>
<polygon fill="none" stroke="#c0c0c0" points="861,-63.3021 754,-63.3021 754,-23.4979 861,-23.4979 861,-63.3021"/>
<text text-anchor="middle" x="807.5" y="-31.9" font-family="Inconsolata" font-size="14.00" fill="#000000"> &#160;&#45; [ ] find,</text>
</g>
<!-- raw_12&#45;&gt;leaf_13 -->
<g id="edge13" class="edge">
<title>raw_12&#45;&gt;leaf_13</title>
<path fill="none" stroke="#000000" stroke-dasharray="5,2" d="M791.1683,-122.9354C794.0175,-109.0597 798.0317,-89.5107 801.3673,-73.2664"/>
<polygon fill="#000000" stroke="#000000" points="804.8591,-73.6614 803.4422,-63.1617 798.0022,-72.2533 804.8591,-73.6614"/>
</g>
<!-- leaf_21 -->
<g id="node22" class="node">
<title>leaf_21</title>
<polygon fill="none" stroke="#c0c0c0" points="1147.5,-63.3021 879.5,-63.3021 879.5,-23.4979 1147.5,-23.4979 1147.5,-63.3021"/>
<text text-anchor="middle" x="1013.5" y="-31.9" font-family="Inconsolata" font-size="14.00" fill="#000000"> &#160;&#45; [ ] adapt Forest class to modern</text>
</g>
<!-- raw_14&#45;&gt;leaf_21 -->
<g id="edge21" class="edge">
<title>raw_14&#45;&gt;leaf_21</title>
<path fill="none" stroke="#000000" stroke-dasharray="5,2" d="M1042.897,-122.9354C1037.7196,-108.9276 1030.4051,-89.1378 1024.3677,-72.8032"/>
<polygon fill="#000000" stroke="#000000" points="1027.554,-71.3281 1020.8041,-63.1617 1020.9881,-73.755 1027.554,-71.3281"/>
</g>
<!-- leaf_22 -->
<g id="node23" class="node">
<title>leaf_22</title>
<polygon fill="none" stroke="#c0c0c0" points="1219.5,-61.4 1165.5,-61.4 1165.5,-25.4 1219.5,-25.4 1219.5,-61.4"/>
<text text-anchor="middle" x="1192.5" y="-39.9" font-family="Inconsolata" font-size="14.00" fill="#000000"> </text>
</g>
<!-- prespace_15&#45;&gt;leaf_22 -->
<g id="edge22" class="edge">
<title>prespace_15&#45;&gt;leaf_22</title>
<path fill="none" stroke="#000000" stroke-dasharray="5,2" d="M1185.1928,-122.4799C1186.5128,-108.1953 1188.3692,-88.1047 1189.8805,-71.7485"/>
<polygon fill="#000000" stroke="#000000" points="1193.3797,-71.9177 1190.8148,-61.6381 1186.4094,-71.2736 1193.3797,-71.9177"/>
</g>
<!-- leaf_23 -->
<g id="node24" class="node">
<title>leaf_23</title>
<polygon fill="none" stroke="#c0c0c0" points="1309.5,-61.4 1237.5,-61.4 1237.5,-25.4 1309.5,-25.4 1309.5,-61.4"/>
<text text-anchor="middle" x="1273.5" y="-39.9" font-family="Inconsolata" font-size="14.00" fill="#000000">espalier</text>
</g>
<!-- literal_16&#45;&gt;leaf_23 -->
<g id="edge23" class="edge">
<title>literal_16&#45;&gt;leaf_23</title>
<path fill="none" stroke="#000000" stroke-dasharray="5,2" d="M1278.3714,-122.4799C1277.4915,-108.1953 1276.2539,-88.1047 1275.2463,-71.7485"/>
<polygon fill="#000000" stroke="#000000" points="1278.7318,-71.4039 1274.6235,-61.6381 1271.7451,-71.8344 1278.7318,-71.4039"/>
</g>
<!-- leaf_24 -->
<g id="node25" class="node">
<title>leaf_24</title>
<polygon fill="none" stroke="#c0c0c0" points="1407,-61.4 1328,-61.4 1328,-25.4 1407,-25.4 1407,-61.4"/>
<text text-anchor="middle" x="1367.5" y="-39.9" font-family="Inconsolata" font-size="14.00" fill="#000000"> from old</text>
</g>
<!-- raw_17&#45;&gt;leaf_24 -->
<g id="edge24" class="edge">
<title>raw_17&#45;&gt;leaf_24</title>
<path fill="none" stroke="#000000" stroke-dasharray="5,2" d="M1357.7571,-122.4799C1359.517,-108.1953 1361.9922,-88.1047 1364.0074,-71.7485"/>
<polygon fill="#000000" stroke="#000000" points="1367.5039,-71.991 1365.253,-61.6381 1360.5564,-71.135 1367.5039,-71.991"/>
</g>
<!-- leaf_25 -->
<g id="node26" class="node">
<title>leaf_25</title>
<polygon fill="none" stroke="#c0c0c0" points="1479.5,-61.4 1425.5,-61.4 1425.5,-25.4 1479.5,-25.4 1479.5,-61.4"/>
<text text-anchor="middle" x="1452.5" y="-39.9" font-family="Inconsolata" font-size="14.00" fill="#000000"> </text>
</g>
<!-- prespace_18&#45;&gt;leaf_25 -->
<g id="edge25" class="edge">
<title>prespace_18&#45;&gt;leaf_25</title>
<path fill="none" stroke="#000000" stroke-dasharray="5,2" d="M1447.6286,-122.4799C1448.5085,-108.1953 1449.7461,-88.1047 1450.7537,-71.7485"/>
<polygon fill="#000000" stroke="#000000" points="1454.2549,-71.8344 1451.3765,-61.6381 1447.2682,-71.4039 1454.2549,-71.8344"/>
</g>
<!-- leaf_26 -->
<g id="node27" class="node">
<title>leaf_26</title>
<polygon fill="none" stroke="#c0c0c0" points="1577.5,-61.4 1505.5,-61.4 1505.5,-25.4 1577.5,-25.4 1577.5,-61.4"/>
<text text-anchor="middle" x="1541.5" y="-39.9" font-family="Inconsolata" font-size="14.00" fill="#000000">lpegnode</text>
</g>
<!-- literal_19&#45;&gt;leaf_26 -->
<g id="edge26" class="edge">
<title>literal_19&#45;&gt;leaf_26</title>
<path fill="none" stroke="#000000" stroke-dasharray="5,2" d="M1542.3119,-122.4799C1542.1652,-108.1953 1541.959,-88.1047 1541.7911,-71.7485"/>
<polygon fill="#000000" stroke="#000000" points="1545.2898,-71.6016 1541.6872,-61.6381 1538.2902,-71.6735 1545.2898,-71.6016"/>
</g>
<!-- leaf_27 -->
<g id="node28" class="node">
<title>leaf_27</title>
<polygon fill="none" stroke="#c0c0c0" points="1649.5,-61.4 1595.5,-61.4 1595.5,-25.4 1649.5,-25.4 1649.5,-61.4"/>
<text text-anchor="middle" x="1622.5" y="-39.9" font-family="Inconsolata" font-size="14.00" fill="#000000">.</text>
</g>
<!-- raw_20&#45;&gt;leaf_27 -->
<g id="edge27" class="edge">
<title>raw_20&#45;&gt;leaf_27</title>
<path fill="none" stroke="#000000" stroke-dasharray="5,2" d="M1620.8762,-122.4799C1621.1695,-108.1953 1621.582,-88.1047 1621.9179,-71.7485"/>
<polygon fill="#000000" stroke="#000000" points="1625.4194,-71.7079 1622.1255,-61.6381 1618.4208,-71.5641 1625.4194,-71.7079"/>
</g>
</g>
</svg>
